<svg xmlns="http://www.w3.org/2000/svg" viewBox="0 0 217.34 164.78"><defs><style>.cls-1{fill:#0c0000;}.cls-2{fill:#fff;}.cls-3{fill:#e30613;}.cls-4{fill:#f1d400;}</style></defs><title>2</title><g id="Слой_2" data-name="Слой 2"><g id="Layer_1" data-name="Layer 1"><path class="cls-1" d="M19.72,147.78c-1.32,1.76-.92,4.49.4,6.26a11.74,11.74,0,0,0,5.29,3.56c6.86,2.75,14.21,3.73,21.48,4.68,5.53.72,11.12,1.43,16.66.77s10.92-2.71,16.21-4.73a12,12,0,0,0,4.88-2.84c1.63-1.82,2.13-4.44,2.55-6.92"/><path class="cls-2" d="M19.14,147.2c-10.41,12,24.74,16.33,29.59,17a54.4,54.4,0,0,0,27.91-3c6.8-2.54,11.07-4.86,11.88-12.62.16-1.52-2.24-1.78-2.62-.35-1,3.8-1.74,6.22-5.42,8.15a51,51,0,0,1-8.24,3,48.94,48.94,0,0,1-18.87,2c-7.14-.57-35.59-1.69-32.86-13.33.17-.74-.8-1.45-1.37-.79Z"/><path class="cls-3" d="M.93,113.46a16.11,16.11,0,0,0,1.32,6.4l3.12,8.81a30.41,30.41,0,0,0,9.5,14.14c2.71,2.25,5.49,5.25,8.73,6.48,4,1.53,13.86,5.74,23.17,6.59,8,.73,18.77-.89,27.26-3.29a60.7,60.7,0,0,0,13.85-5.35,26.15,26.15,0,0,0,10.58-10.68,43.31,43.31,0,0,0,2.75-7.91l4.25-15.37"/><path class="cls-2" d="M.11,113.46c-.74,6.16,2.57,13.29,4.95,18.86,2.47,5.79,6.21,9.75,10.93,13.78,8.53,7.28,21.9,11.15,33,11.6,12.8.52,27.77-2.44,39.05-8.6,13.06-7.12,16.2-21.82,19-35.4a1.6,1.6,0,0,0-3.09-.85c-2.22,6.34-3.38,13-5.55,19.38-2.22,6.52-6.73,11.19-12.8,14.34-10.48,5.44-24.13,8.07-35.87,7.78-9.81-.24-23-3.69-30.64-10.2C14.88,140.58,11,137,8.52,132c-2.75-5.53-5.77-12.64-6.8-18.73-.17-1-1.52-.62-1.62.22Z"/><path class="cls-3" d="M33,50.88c.28-3-2.82-4.83-5.26-6.43s-6.07-3.34-8-5.54c-4.11-4.57-5-10.6-.94-15.27s13.8-8,19.62-9.22C51.73,11.61,77,12.79,86.69,18c11.91,6.4,11.08,17.31,2.4,22.45A47.91,47.91,0,0,1,73.26,46.3c-7,1.15-13.94,2.3-21,2.38-4.64.05-9.4-.35-13.82,1.19-1.85.65-3.64,1.63-5.58,1.81l-1.2-5.06"/><path class="cls-2" d="M34.73,51.35c1.47-6.35-6-9.49-10.23-12.46-3.9-2.71-6.84-7.8-3.92-12.33,2.13-3.31,6.65-5.16,10.16-6.52C43.37,15.15,58,15.29,71.25,17.27c6.1.91,13.18,2,17.81,6.5,5.46,5.28,2.9,11.28-3.13,14.57-8.3,4.52-18.61,5.71-27.9,6.47-4.56.37-9.16,0-13.69.45C40,45.7,36.24,47.71,32,48.47l4.1,2.33c-.39-1.69-.79-3.38-1.22-5.06-1.06-4.15-7.31-2.39-6.4,1.76.37,1.69.78,3.38,1.19,5.06a3.41,3.41,0,0,0,4.1,2.33c4.36-.84,7.79-2.59,12.39-2.61a141.63,141.63,0,0,0,14.73-.58c8.47-.93,16.8-2.16,24.64-5.63,5.55-2.45,11.1-5.84,12.9-12a14.9,14.9,0,0,0-3.71-14.11C86.2,10.55,70.65,10,58.92,9.75c-12.55-.3-25.88.92-37,7.38C15.54,20.88,11.18,27.45,13.83,35a17.23,17.23,0,0,0,6.4,8.3c3.18,2.26,9.71,4.15,11.13,8,.55,1.51,3,1.81,3.38,0Z"/><path class="cls-1" d="M29.45,50.12a11.62,11.62,0,0,1,2.34-8.81,16.64,16.64,0,0,1,6.63-4.85C48.49,32,59.48,33.59,70,35.86a18.28,18.28,0,0,1,9.24,4.84c3.52,3.77,1.93,11.32-.74,15C74.13,61.87,68,64.31,61.82,66.43a21.65,21.65,0,0,1-4.87,1.25c-2.4.23-4.82-.38-7.22-.12s-4.56,1.29-6.88,1.59a6.08,6.08,0,0,1-6.31-2.71,28.47,28.47,0,0,1-1.45-3.94c-.93-2.42-2.61-4.24-4-6.31Z"/><path class="cls-2" d="M30.1,50.12c-1-16,21.84-16,32.46-14.25,5.57.89,15,1.87,17,8.33,1.67,5.57-2,11.4-6.07,14.77a36.76,36.76,0,0,1-13.65,6.54c-3.11.84-6,.35-9.18.5-2.62.13-5.14,1.51-7.71,1.51A5.75,5.75,0,0,1,37,63.45c-.22-.56-.36-1.15-.6-1.7-1-2.29-2.73-4-3.93-6.1-1-1.79-1.69-3.92-2.54-5.8a.56.56,0,0,0-1,.28,39.42,39.42,0,0,0,.59,5.45c.63,2.42,2.53,4.1,3.64,6.33,2.5,5,3.29,9.45,10.12,8.73,2.87-.3,5.32-1.52,8.28-1.6,2,0,3.85.35,5.82.11,3.46-.41,6.94-1.88,10.12-3.24,5.62-2.42,11.13-6.19,13.71-11.95,2-4.46,2.52-10.37-.88-14.28-4.5-5.17-12.84-6-19.13-6.85-11.63-1.55-34.36.51-32.36,17.31C28.9,50.93,30.16,51,30.1,50.12Z"/><path class="cls-4" d="M176.07,36.94c7.68-2.48,14.42-7.43,20.92-12.46a18.27,18.27,0,0,0,3.88-3.68,6.91,6.91,0,0,0,1.35-5.2c-.36-1.82-1.92-3.4-3.65-3.29l-6.16-1.49c-5.49,1-14.25,2.57-19.67,4,2,.49,7.38.78,8.71,2.41,1.88,2.31,1.51,5.79,1,8.8a23.5,23.5,0,0,1-1.63,6.27,7.31,7.31,0,0,1-4.45,4.17"/><path class="cls-2" d="M176.37,38c8.17-1.77,15.31-7.34,21.74-12.41,3.57-2.81,8-7.64,4.76-12.42-1.66-2.5-7.1-3.72-10-3.9s-6.32,1-9.19,1.56c-3.79.72-7.58,1.48-11.33,2.4a1.63,1.63,0,0,0,0,3.12c3.51.73,7.91.21,8.87,5,.81,4.05-1.31,11.76-5.25,13.39-2.06.85-1.23,4.23.94,3.42,6.29-2.33,8.06-10.74,7.65-16.81-.47-7-5.73-7-11.35-8.11v3.12c4.72-1.2,9.52-2.09,14.31-3,3.42-.64,6.33-1.28,9.67.25s3.89,4.78,1.27,7.58a49.26,49.26,0,0,1-7.15,5.65A105.46,105.46,0,0,1,175.52,36c-1.17.58-.32,2.26.85,2Z"/><path class="cls-1" d="M132.4,33.9c.15-2.15,2.28-3.41,4.12-4.28l24.05-11.29a52.61,52.61,0,0,1,6.59-2.74,25.73,25.73,0,0,1,10.79-1,7.1,7.1,0,0,1,3.63,1.25c1.46,1.16,2.08,3.16,2.5,5.06.69,3.13,1.07,6.53-.14,9.47-1.41,3.41-4.64,5.47-7.7,7.27a121,121,0,0,1-13.37,7.07,66.79,66.79,0,0,1-27.75,5.48"/><path class="cls-2" d="M133.18,34.35c2-4,7.93-5.48,11.73-7.23,4.32-2,8.67-3.89,13-5.89,4.7-2.18,9.37-4.64,14.62-5.13,1.78-.17,4.57-.43,6.3.26,3.53,1.41,4.21,6.17,4.17,9.36-.11,8.93-12.39,13.54-19.28,16.73a66.56,66.56,0,0,1-28.59,6.34,1.43,1.43,0,0,0,0,2.86A74.79,74.79,0,0,0,172.2,42c4.26-2.35,9.53-4.76,12.29-9s2.33-9.54.85-14c-3.56-10.74-18.31-5.4-25.52-2-6.3,2.95-12.52,6.06-18.79,9.06-3.55,1.7-9.33,3.13-9.53,7.81a.91.91,0,0,0,1.69.46Z"/><path class="cls-4" d="M124.66,37.77l4.16-2.45a18.26,18.26,0,0,1,4.24-2,6,6,0,0,1,4.54.36c2.32,1.31,3.2,4.43,3.22,7.24a9.86,9.86,0,0,1-.92,4.61,9.63,9.63,0,0,1-3.67,3.58c-2.23,1.37-4.78,3.59-8.76,3.67"/><path class="cls-2" d="M124.85,38.49a66.93,66.93,0,0,0,6.2-2.85c2.47-1.15,5.51-1.92,7.17,1a8.8,8.8,0,0,1,.89,4.3c0,5.88-6.94,9.52-12,10.55-1.56.32-1.11,2.61.36,2.67,4,.18,8.3-2.14,11.36-4.66,3.23-2.66,4.12-6.55,3.49-10.6-.58-3.68-2.72-7-6.74-7.3-4.23-.28-8.47,3-11.44,5.71a.75.75,0,0,0,.72,1.24Z"/><path class="cls-1" d="M197.89,24c1.64,1.51.36,1.92,2.35,2.82a8.77,8.77,0,0,0,6.93-.28c1.64-.84,5.95-6.47,5.59-9.68-.32-2.85.36-6.59-1.27-9-.63-.92-3-2.91-4.42-2.82-3.15.19-5.66.61-8.12,2.71s-4.16,8-4.13,9.38a4,4,0,0,1-2.77,1c-.43-4.77-.11-8.51,2.46-11.64a15.67,15.67,0,0,1,10.25-5.39c3-.37,6.3.14,8.31,2.5a14.31,14.31,0,0,1,2.87,6.49,23.67,23.67,0,0,1,.16,7.8c-.58,4-3.92,12.47-11.19,13.86-5.85,1.12-10.21-2.9-10.32-4.79"/><path class="cls-2" d="M197.2,24.38c1.62,2.15,1.77,3.39,4.79,3.91a8.47,8.47,0,0,0,6.76-1.62c4.79-3.85,5.56-9.78,4.87-15.46-.72-5.94-5.7-8.21-11.14-6.56a10.56,10.56,0,0,0-6.42,5.26c-1.13,2.09-1.3,7.2-4,7.15l1,1c-.51-7,1.61-13.24,9.07-15.44,3.39-1,6.9-1,9.63,1.37s3.5,6.45,3.55,9.92a19.5,19.5,0,0,1-3.66,11.71c-2,2.69-4.88,4.83-8.32,5-2.56.09-6.76-1.2-7.35-4.08-.38-1.82-3.29-1.05-2.81.77,1.7,6.43,11.09,7,15.83,4.13,6.36-3.79,8.81-12.1,8.23-19.06C216.6,4.55,212.09-1.19,203.77.21c-9.49,1.6-13.41,8.93-12.77,17.91a1.07,1.07,0,0,0,1,1,4.18,4.18,0,0,0,3.82-2c1-1.77.89-4.26,2-6.15a8.68,8.68,0,0,1,8.58-4.46c11.39.73,2.77,29-8,16.89-.59-.67-1.81.24-1.26,1Z"/><path class="cls-1" d="M80.28,51.25c12.7-5.07,31.6-9.7,44.87-13.48,3.08-.88,4.11,2.3,5.63,5s-.93,8.15-1.73,9a5.82,5.82,0,0,1-2.86,1.34c-12.27,3.2-29.85,10.18-41.23,16"/><path class="cls-2" d="M80.58,52.33c8.55-2.44,17-5.31,25.53-7.68,4.38-1.21,8.77-2.38,13.15-3.57,2.58-.7,4.36-1.61,6.91-.58,3.24,1.31,3.9,4.41,2.81,7.67-1.26,3.77-5.21,3.77-8.61,4.79-4.24,1.28-8.42,2.75-12.56,4.31C99.7,60.33,91.9,63.94,84,67.58c-2.1,1-.24,4.31,1.84,3.15,10.41-5.79,22-10,33.3-13.72,3.38-1.1,8.9-1.51,11.34-4.37a11.91,11.91,0,0,0,2.23-9.26c-.68-2.74-2.88-6.82-6-7.33-1.76-.29-3.85.66-5.5,1.12-2.72.76-5.44,1.51-8.15,2.26C102,42.5,90.09,45,79.72,50.29c-1.14.58-.34,2.39.86,2Z"/><path class="cls-3" d="M88.15,40.46c-2.91,3.44-8.63,5.67-12.91,6.43s-20.95,2.33-25.68,1.52a21.34,21.34,0,0,0-6.92-.28c-3.22.64-4.94,4.8-8.21,4.48a14.51,14.51,0,0,0-1.72-6.67c-.58-1.09-2.56-.18-6.32-2.83a44.16,44.16,0,0,1,1,7c0,4.3-2.24,7.81-3.63,11.52A300,300,0,0,1,9.94,93.59c-2.83,5.63-8.32,12.76-8.05,19.14C2,116,5.57,121.5,7.58,123.95c9.8,11.94,21.76,14.27,35.61,17.25,11.31,2.43,24.87,2.36,35.7-1.89,14.17-5.56,23.45-16.36,28.67-31.51a13.11,13.11,0,0,0,1-4.56c-.05-2.06-3.06-6.14-4-7.94L93.58,74.23c-2.77-5.32-5.56-10.71-7-16.59s-1.88-10.87.66-16.32"/><path class="cls-2" d="M87.44,39.76c-7.28,6.7-18.59,6.73-27.91,7.23a65.67,65.67,0,0,1-11.28-.25c-2.36-.28-4.88-.55-7.14.35s-3.92,3.85-6.67,4l1.5,1.5c-.07-2.38-.44-5.89-2.15-7.73-1.56-1.67-4.67-1.86-6.62-3.07A1.52,1.52,0,0,0,25,43.51a21.94,21.94,0,0,1-1.4,14.61c-2.08,4.82-3.86,9.77-5.88,14.61C13.45,82.86,8.2,92.26,3.25,102c-3.87,7.61-3.69,13.4,1.11,20.48a41.79,41.79,0,0,0,18.63,15c16.46,6.87,37.77,10.19,54.9,4.2,15.43-5.4,26.62-18.73,31.35-34.19,1.26-4.11.38-6.57-1.76-10.15-3.09-5.16-5.72-10.59-8.51-15.92C92.9,69.77,82.62,55.07,88.14,41.59c.48-1.18-1.41-1.67-1.9-.52-3.32,7.87-1.78,16.45,1.38,24.15,4.09,10,9.67,19.54,14.7,29.07,2,3.73,5.26,7.19,4.3,11.62-.93,4.25-3.15,8.56-5.35,12.28a45.43,45.43,0,0,1-17.59,16.9c-16.63,9-36.74,6.38-54.11,1-8.65-2.67-16.48-7.36-21.82-14.83C5.1,117.59,2.86,113.63,4.1,109c1.29-4.81,4.35-9,6.69-13.32A234.85,234.85,0,0,0,23.08,68c1.78-4.64,4.34-9.47,5.41-14.34.8-3.64.11-7.34-.63-10.93l-2.2,1.69c1.5.93,3.22,1.3,4.68,2.14,2.09,1.21,2.52,3.43,2.61,6.07a1.52,1.52,0,0,0,1.5,1.5c2.35-.16,3.3-1.07,5.17-2.33,3.69-2.48,5.86-2.29,10.16-1.87a76.63,76.63,0,0,0,13.41-.28c8.87-.7,19.55-1,25.68-8.46a1,1,0,0,0-1.41-1.41Z"/><path class="cls-2" d="M23.15,28.64c2.83-2.94,8.87-4.07,12.63-5,9.83-2.45,19.85-2.7,29.92-2.07,1.39.09,1.36-2,0-2.15a84.35,84.35,0,0,0-31.51,2.66c-3.69,1.07-9.38,2.49-12.08,5.53-.62.7.38,1.72,1,1Z"/><path class="cls-2" d="M7.93,108.25c4,9.29,10.88,16.52,20.49,19.9,1.66.58,2.35-2,.72-2.62a34,34,0,0,1-12.54-7.9c-3-3-5.15-6.71-7.78-10.06-.43-.55-1.12.15-.89.69Z"/><path class="cls-2" d="M11.95,102a34.23,34.23,0,0,0,19.5,17.69c1.34.46,2.29-1.72,1-2.32a45.07,45.07,0,0,1-19.08-16.19.81.81,0,0,0-1.4.82Z"/><path class="cls-2" d="M68.34,41c-3.4-2-8.14-3.42-12.08-2.39a1.17,1.17,0,0,0,0,2.23c3.82,1,7.78-.17,11.61,1.27.66.25,1.05-.77.47-1.11Z"/><path class="cls-2" d="M52.66,38.55a6.72,6.72,0,0,0-4.9,1c-1,.66-.4,2.39.84,2s2.74-.92,4.06-1.47c.64-.27.89-1.4,0-1.56Z"/></g></g></svg>