<svg xmlns="http://www.w3.org/2000/svg" viewBox="0 0 256.05 166"><defs><style>.cls-1{fill:#e30613;}.cls-2{fill:#fff;}.cls-3{fill:#f1d400;}.cls-4{fill:#0c0000;}</style></defs><title>1</title><g id="Слой_2" data-name="Слой 2"><g id="Layer_1" data-name="Layer 1"><path class="cls-1" d="M110.44,120.32a14.45,14.45,0,0,1,9,8.34,20.24,20.24,0,0,1,.81,12.75,16.26,16.26,0,0,1-2,4.9,15.38,15.38,0,0,1-3.78,3.91,18.09,18.09,0,0,1-14.68,3.4,15.9,15.9,0,0,1-11.34-10.28,17.44,17.44,0,0,1,2.14-14.66,20.86,20.86,0,0,1,11.75-8.39,31.2,31.2,0,0,1,14.41-.34"/><path class="cls-2" d="M110.32,120.79c9.33,3.44,12.21,16,7.34,24.18-4.38,7.38-15.31,10.13-22.42,5.16-7.59-5.31-7.74-16.09-1.68-22.65s14.86-6.77,23.16-6c1.77.17,2.11-2.67.42-3.08-10.58-2.55-23.33.47-28.74,10.73-4.79,9.09-1.55,20.64,8.14,24.8,8.78,3.78,20.43-.72,23.93-9.72,3.65-9.38.22-21.14-9.89-24.39-.6-.19-.83.72-.26.93Z"/><path class="cls-2" d="M99.83,141.79c.71.83,3.45,3.27.76,3.47a3,3,0,0,1-2.52-.67c-.72-.89.1-1.58.65-2.26a1,1,0,0,0-1.16-1.5,3.37,3.37,0,0,0-1.51,4.48c1,1.8,3.16,2.17,5,2a2.8,2.8,0,0,0,2.65-3.44c-.31-1.66-1.85-3.33-3.64-3-.48.08-.52.69-.26,1Z"/><path class="cls-3" d="M50.34,84.34c-.36-.37-1-.19-1.44,0Q45.26,86,41.74,87.88c-2,1-4,2.22-5.15,4.09a13.63,13.63,0,0,0-1.45,3.77c-1.06,3.85-2.1,7.8-1.83,11.78a20.1,20.1,0,0,0,11,16.06,24.27,24.27,0,0,0,19.73.59,18.73,18.73,0,0,0,4.71-2.63,17.23,17.23,0,0,0,6.09-12,27.23,27.23,0,0,0-2.56-13.4,21.28,21.28,0,0,0-3.77-6c-2.87-3.06-6.92-4.75-11-5.88a16.85,16.85,0,0,0-4.89-.79A7.11,7.11,0,0,0,48,85.15"/><path class="cls-2" d="M50.73,83.67C47.44,82.19,40,87,37.47,89.15c-4.57,4-5.94,12.69-5.63,18.38.73,13.16,13.65,21.42,26,19.9,14.65-1.8,21.73-14.67,17.25-28.46C73,92.38,69.31,87.21,62.88,84.36c-5-2.23-11.27-4.18-15.89-.27-1.31,1.11.37,3.18,1.8,2.34,4.43-2.62,11.09-.14,15.15,2.34,4.58,2.79,7.08,7.69,8.41,12.75,3.19,12.16-4,22.17-16.6,22.78-10.78.52-20.93-7.27-21-18.48C34.66,101,36,93.39,40,90.29c1.82-1.38,7.85-5.59,10.09-5.21.79.13,1.46-1,.6-1.41Z"/><path class="cls-3" d="M68.43,91.64c-1.46,2.47-5.16,8.45,2.25,24.44,2,4.31,6.18,7,10,9.89a66.14,66.14,0,0,0,5.92,4.39c4,2.4,8.82,3.25,13.51,3.49,2.19.11,4.66,0,6.16-1.6a7.62,7.62,0,0,0,1.6-4.18,57.12,57.12,0,0,0-.57-20.3,20.17,20.17,0,0,0-1.44-4.64,21.08,21.08,0,0,0-2.23-3.47,42.4,42.4,0,0,0-4.24-4.92A29.65,29.65,0,0,0,82.9,86.66a11.8,11.8,0,0,0-6.22.48c-1.57.66-7,2-8.25,4.5"/><path class="cls-2" d="M67.63,91.17c-3.64,5.11-3,11.63-1.28,17.37,1.61,5.53,3.78,10.65,8.22,14.46,4.2,3.6,9,7.77,14.12,9.89,4.24,1.74,10.49,3.09,15.06,2,5.33-1.23,5.59-6.85,5.93-11.46.95-12.74-1.8-24.74-12.45-32.66-5-3.69-12-6.69-18.28-5.92-4,.49-9.64,2.46-11.89,6-.94,1.48,1.36,3.34,2.47,1.91,2.92-3.77,10.09-5,14.43-4.18A29,29,0,0,1,99.9,97.64c5,5.43,6.62,11.07,7.09,18.39a55.12,55.12,0,0,1-.24,10.19c-.71,5.9-6.05,6.74-11,5.92-5.78-.95-9.85-3.87-14.39-7.35-5.42-4.16-9-7.5-11.44-14-2.3-6.13-3.57-12.56-.66-18.65a.93.93,0,0,0-1.6-.93Z"/><path class="cls-3" d="M59.62,80.09a33.07,33.07,0,0,1-9-14.46c-.48-1.63-.81-3.31-1.15-5C48.28,54.82,47.1,48.92,47.37,43a1.73,1.73,0,0,1,.57-1.45,1.75,1.75,0,0,1,1.12-.13l3.27.34a41.1,41.1,0,0,1,9.9,1.86,13.83,13.83,0,0,1,7.69,6.19,16.44,16.44,0,0,1,1.41,4.29,41.22,41.22,0,0,1,.46,14.29"/><path class="cls-2" d="M60.5,79.58c-3.11-4.71-6.49-8.91-8.17-14.42A79.86,79.86,0,0,1,49,45.64c-.1-2.37-.66-2.23,1.69-2.6,1.43-.22,3.38.35,4.79.55,3.44.48,6.75,1.18,9.63,3.24,6.17,4.41,5.89,14.26,4.94,21.05a1.78,1.78,0,1,0,3.51.47c.76-7.38.89-17.64-5.24-23a20.63,20.63,0,0,0-9.75-4.28c-2.66-.52-8.79-2.29-11.23-1-2.1,1.14-1.7,4.5-1.65,6.42a84.08,84.08,0,0,0,1.88,13.72C49.11,68.2,52,76.33,59.11,81a1,1,0,0,0,1.4-1.4Z"/><path class="cls-3" d="M52.14,63.17c-10-3.91-23.33-1.38-34.07-1.08a1.54,1.54,0,0,0-1.14.35,1.52,1.52,0,0,0-.15,1.32,41.21,41.21,0,0,0,3.55,10.34,13.34,13.34,0,0,0,2.09,3.22,15.9,15.9,0,0,0,2.31,1.91l3.7,2.69a36.83,36.83,0,0,0,8.41,5A31.84,31.84,0,0,0,45,88.59a45.57,45.57,0,0,0,11.46,0,6.92,6.92,0,0,0,3-1c1.4-1,2-2.82,2.27-4.53a24.57,24.57,0,0,0-.49-10.65A13.86,13.86,0,0,0,59.1,67.5a13,13,0,0,0-7-4.33"/><path class="cls-2" d="M52.73,62.16C47.52,59,40.45,59.1,34.55,59.32c-3.37.13-6.73.45-10.1.71-2.06.16-6.31-.42-8.16.91-3,2.13.21,8.24,1.17,10.61C20,77.7,23.7,80.38,29,84.12a32.39,32.39,0,0,0,17,6c4.45.39,12.61,1.53,15.77-2.76s2.35-12.06.76-16.78a13,13,0,0,0-10-8.88,1.5,1.5,0,0,0-.8,2.89c4.66,1.88,7.43,5,8.43,9.89.43,2.13,1.12,7.3-.14,9.36l-5.44,3.45a34.15,34.15,0,0,1-3.82.16c-4.86,0-10.23-.38-14.72-2.42a50.69,50.69,0,0,1-9.36-6.19,18.72,18.72,0,0,1-7.49-12c-.39-2.68-.48-2.65,2-3.24,2-.47,4.5-.29,6.57-.42a112.79,112.79,0,0,1,24.05,1.08,1.17,1.17,0,0,0,.9-2.13Z"/><path class="cls-1" d="M143.44,21.47A18.2,18.2,0,0,0,137,15.79a13.28,13.28,0,0,0-8.41-1.32,18.77,18.77,0,0,0-3.4,1.06,23.35,23.35,0,0,0-4,2,15.78,15.78,0,0,0-6.21,17.79A24,24,0,0,0,117,39.67a11.61,11.61,0,0,0,3,3.68,12.43,12.43,0,0,0,4.46,1.76,28.49,28.49,0,0,0,6.5,1,15.75,15.75,0,0,0,15.87-15.34"/><path class="cls-2" d="M144.31,21.23c-3.14-8.81-13.91-10.16-21.39-6.64a17.66,17.66,0,0,0-10.07,19.2c1.9,9.79,10,14.74,19.64,14a17,17,0,0,0,15.8-17c0-1.57-2.58-2.05-2.85-.39-1.08,6.61-5,12.4-11.9,13.77a19.85,19.85,0,0,1-10.19-1.1c-4.19-1.58-6.74-6.34-7.32-10.61-.88-6.4,2.74-12.08,8.47-14.7,8-3.64,12.27.24,18.48,4.5a.92.92,0,0,0,1.33-1Z"/><path class="cls-1" d="M143.07,28.6A9.27,9.27,0,0,0,138.34,33a25.49,25.49,0,0,0-2.14,6.24,12.35,12.35,0,0,0-.49,5,12.43,12.43,0,0,0,1.48,3.67c1.39,2.59,2.88,5.23,5.22,7,3.06,2.31,7.13,2.77,11,2.72,2.25,0,4.65-.26,6.4-1.67s2.45-3.69,3-5.86a25.41,25.41,0,0,0,.83-7,11.82,11.82,0,0,0-2.21-6.61,16.24,16.24,0,0,0-5-4A22.24,22.24,0,0,0,148,29.35"/><path class="cls-2" d="M142.84,27.75c-7,2.2-10.45,13-7.87,19.41,3.32,8.24,9.52,12.48,18.41,12.19s11.81-7.28,11.9-15.39c.1-9.3-8.54-15.52-17.23-16.39-2-.2-2.38,3-.47,3.51,6.14,1.64,13.72,4.71,14.26,12a19,19,0,0,1-1.39,9c-1.75,3.5-4.94,4-8.51,3.82-6.11-.27-9.93-2.9-12.9-8.17-3.27-5.79-1.19-14.59,4.49-18.32.8-.52.32-1.92-.68-1.6Z"/><path class="cls-1" d="M127.15,50.28c3.3-1.92,7.44-1.48,11.13-.51A25.84,25.84,0,0,1,147.61,54a14.08,14.08,0,0,1,5.45,8.5,16.71,16.71,0,0,1-.25,6,20.6,20.6,0,0,1-5.37,10.85,9.75,9.75,0,0,1-4.64,2.7,12.2,12.2,0,0,1-4.75-.14,27,27,0,0,1-11.5-4.68c-3.3-2.49-5.86-6.23-6.07-10.36a17.15,17.15,0,0,1,1.19-6.5A38.57,38.57,0,0,1,128,49.13"/><path class="cls-2" d="M127.46,51.43c7.16-2.45,17.43.53,21.85,6.85,4.13,5.9,1.71,17.68-5,21.22-6.12,3.24-17-2.46-20.25-7.77-4.37-7.13,1.41-15.77,5.47-21.67,1.17-1.7-1.52-3.8-2.88-2.22-6.28,7.29-11.63,18.73-5.06,27.43,5.07,6.72,18.23,12.4,25.72,6.69,6.72-5.13,10-16.9,5.66-24.38-4.56-7.79-18.38-13.21-26.47-8.3-1.11.67-.4,2.61.91,2.16Z"/><path class="cls-1" d="M18.67,125.32c-2.13,6.24.73,8.88,1.95,10.5a20.79,20.79,0,0,0,15.25,8.08,12.27,12.27,0,0,0,6.7-1.31,11.33,11.33,0,0,0,4.72-5.81,27.4,27.4,0,0,0,1.53-7.44,18.45,18.45,0,0,0,0-4.54A15,15,0,0,0,46,118.45a19,19,0,0,0-6-5.68,11.6,11.6,0,0,0-8.07-1.38c-4,.89-7,4.2-9.33,7.56A61.58,61.58,0,0,0,19,124.73"/><path class="cls-2" d="M17.55,124.67c-3.41,7.83,2,14.7,8.89,18.41,8.67,4.64,19.14,3.35,23-6.51,3.74-9.67,1.17-20.52-8.27-25.82-10.66-6-20,3.63-23.91,13a2,2,0,0,0,3.51,2.05c4.25-5.85,9.18-15.77,18-11,7,3.78,8.81,11.29,7.4,18.54-.95,4.87-3.4,8.09-8.57,8.75-3.52.45-7.68-1-10.61-2.86-5.16-3.21-8-7.46-7.09-13.54.19-1.29-1.72-2.46-2.36-1Z"/><path class="cls-1" d="M36.34,99.45a7.27,7.27,0,0,0,3.5-3.93,11.43,11.43,0,0,0,.39-5.26,16.14,16.14,0,0,0-.78-3.58c-1.6-4.49-6-7.63-10.73-8.43A21,21,0,0,0,15,81.14a10.63,10.63,0,0,0-2,1.41,13.07,13.07,0,0,0-2.57,3.95,8.65,8.65,0,0,0-1.21,4,8.58,8.58,0,0,0,.74,2.75l1.68,4.27a11.35,11.35,0,0,0,2.84,4.73c2.48,2.09,6.16,1.68,9.34,1q3.94-.79,7.83-1.78a7.59,7.59,0,0,0,4.1-2"/><path class="cls-2" d="M36.63,100.5C44.94,97.56,42.18,85,37,80.3c-6.51-5.93-17.65-5.1-24.35.2-7.1,5.61-5.74,15.58-.41,22,2.68,3.24,6.77,3.38,10.64,2.81,4.6-.68,10.52-1.4,14.09-4.59,1.48-1.32-.54-4-2.15-2.79-3.45,2.65-10.91,4.08-15.27,4-4.57,0-6-4.2-7.35-7.78a8.85,8.85,0,0,1,1.26-9.31c3.75-4.67,11.81-6.14,17.28-4.17,7.6,2.73,10.83,11.87,4.81,17.95-.73.73,0,2.19,1.06,1.82Z"/><path class="cls-1" d="M37.77,109.73a22.75,22.75,0,0,0-.6-6.9c-.67-2.22-2.14-4.69-7.08-7.36-2.22-1.2-6.16-1.64-8.71-1.84S7.54,93.07,8,108c0,0-5.08,4.15-6.11,6,1-.09,3.53,3.92,1.54,5,4.3.92,6.8,1,8.49,3.08,5.56,6.75,15.84,4,21.33-.31a11.61,11.61,0,0,0,2.8-3C37.63,116.07,37.72,112.82,37.77,109.73Z"/><path class="cls-2" d="M39.6,109.73c.07-7.41-2-12.85-9.11-16.08A24.2,24.2,0,0,0,16.92,92a12.47,12.47,0,0,0-9.47,7.61,16.93,16.93,0,0,0-1.06,4c-.14.95.11,3-.06,3.4-.9,2.11-4.63,4-6.06,6a1.85,1.85,0,0,0,1.1,2.69,2.45,2.45,0,0,1,.73,1.94,1.85,1.85,0,0,0,.81,3.06c2.38.48,5.18.66,7.15,2.15,1.77,1.33,2.87,2.88,5,3.83a16.37,16.37,0,0,0,10.53.68,21.49,21.49,0,0,0,10-5.26c3.44-3.41,3.93-7.79,4-12.42.05-2.36-3.61-2.36-3.66,0-.11,5-1,8.94-5.52,11.75a17.18,17.18,0,0,1-10.68,2.72c-3.69-.41-5.17-2.81-8-4.67-2.3-1.52-5.24-1.78-7.88-2.32l.81,3.06c2.5-2.43.76-7-2.35-8.07l1.1,2.69c1.76-2.52,5.38-4,6.36-6.88s0-5.51,1.64-8.28A8.45,8.45,0,0,1,16,96.06a16.34,16.34,0,0,1,7.63-.36c8.48,1.08,12.39,5.65,12.31,14C35.91,112.09,39.58,112.09,39.6,109.73Z"/><path class="cls-1" d="M41.27,110c-4.8,2.4-5.44,11.65-3,16.29,1.9,3.61,11.53,12.74,21.57,5.51.24-.17,5.51-8.79,2.74-16-2.3-6-6.23-7.4-10.08-8.24-4.55-1-10.9.64-13.29,4.8"/><path class="cls-2" d="M40.76,109.17c-6.87,3.2-6.85,14.55-2.78,19.89,4.86,6.38,16.79,11,23.25,3.94,5.77-6.26,5.38-18.4-.7-24.13-6.27-5.92-18.39-5.08-22.69,2.72-.83,1.5,1.28,3.33,2.47,1.91,3.84-4.57,11.73-5.13,16.66-1.78,5.31,3.61,6,13.65,1.71,18.51-4.85,5.48-14.16,1.31-17.88-3.36-3.47-4.36-3.4-12.55,1.18-16.12,1-.75-.26-2-1.23-1.59Z"/><path class="cls-3" d="M97.14,67.14c-1.06-2.77-3.07-6.36-5.71-7.71-2-1-4.47-.84-6.72-.43a42.1,42.1,0,0,0-14,5.26c-1.68,1-6.79,6.8-7.63,8.54-1.4,2.89-5.58,7-4.66,10.12,1,3.27,7,4.46,10,6,3.64,1.83,15.78,2.61,17.77,2a39,39,0,0,0,7.18-2.65,8.43,8.43,0,0,0,3-2.91c4.7-6.8,2.06-17,.74-18.26"/><path class="cls-2" d="M98.14,66.86c-1.5-6.24-5.41-10.51-12.19-9.8-6.18.64-13.71,3.1-18.3,7.47A53.07,53.07,0,0,0,58,77.5c-2.46,4.53-1.38,8,3.23,10.35,8.18,4.18,19.48,7,28.42,4,6.2-2.12,9.94-5.86,11-12.49.67-4.14.52-10-2.2-13.49-1.26-1.62-4.13.56-2.88,2.22,1.83,2.43,1.88,6.54,1.63,9.42-.58,6.57-5.08,10.6-11.47,11.73-5.83,1-12.84-.46-18.22-2.61-1.78-.71-4-1.2-5.54-2.34-2.77-2-1.43-4.27.19-6.75a65.45,65.45,0,0,1,6.05-8.44c3.17-3.49,6.79-5.41,11.31-6.9,2.46-.81,6.08-2.21,8.64-1.73,4,.75,6.14,4.06,8.1,7.24a1,1,0,0,0,1.9-.8Z"/><path class="cls-2" d="M72.25,80.56c8.21-2.48,15-8.44,23.38-10.5,2.19-.54,1.26-3.94-.93-3.39C86.3,68.8,79.62,75.08,71.56,78c-1.55.57-.94,3,.7,2.52Z"/><path class="cls-3" d="M115.85,69.19c1.44-4.7,8.64-3,15,1.23A76.23,76.23,0,0,1,146.42,83.6c1.34,1.48,3.15,2.54,4.2,4.24a3.29,3.29,0,0,1,.56,1.87,4,4,0,0,1-1.39,2.45,13.58,13.58,0,0,1-5.88,3.5c-4.71,1.29-9.67-.42-14.22-2.22-2.46-1-5.19-2.27-6-4.8"/><path class="cls-2" d="M116.51,69.58c5.61-8.56,23.11,9.17,27.42,13.76.79.84,1.54,1.69,2.36,2.51s2.61,1.88,2.82,2.87c.42,1.9-1.63,3.23-3,4-5.42,3.27-17.85,1.16-21-4.93-.85-1.64-3.75-.48-3,1.28,1.33,3.26,4,4.57,7.14,5.85,4.77,1.94,9.91,3.85,15.09,2.41,3-.83,6.74-2.89,8.05-5.84C154,88,151,85.65,148.7,83.45c-5.26-4.93-10.2-9.79-16.39-13.66-3.78-2.36-15.22-8.37-17.19-.81a.77.77,0,0,0,1.4.59Z"/><path class="cls-1" d="M180.27,41.41c.25,1.4-3.23.87.34,2.55,4.72,2.22-.82,3.36-1.19,6.77a10.11,10.11,0,0,1-11.51,8.77C157,57.94,154,50.58,154.16,44.63c.17-5.65,3.7-11.08,8.85-12.71C167.92,30.36,178.13,29.45,180.27,41.41Z"/><path class="cls-2" d="M179.49,41.19c-.06.17-1.06.69-1.27.89a1.12,1.12,0,0,0-.17,1.33c.38.64,1.66,1.27,1.89,1.71.9,1.76-.24,1.76-1.06,3.06-1.85,2.93-1.41,6.21-4.79,8.36-6.47,4.12-16.61-1-18.17-8.14A12.89,12.89,0,0,1,166.3,32.91a12.29,12.29,0,0,1,7.25.75c3.41,1.66,4.18,5.18,6.17,8.07.28.4,1,.43,1.15-.15,1.68-9.24-8.86-13.27-16.27-11.86-9.84,1.87-14.45,12.85-10.55,21.73,3.59,8.17,15.54,13.39,23,7a12.48,12.48,0,0,0,3.63-5.93,15.65,15.65,0,0,1,2.27-4.55,4.7,4.7,0,0,0,.77-1.21,2.68,2.68,0,0,0-1-3.07S180,42.32,180.33,43c.21.46.75-1.53.72-1.35A.81.81,0,0,0,179.49,41.19Z"/><path class="cls-2" d="M158.66,32.69a.69.69,0,0,0,0-1.39.69.69,0,0,0,0,1.39Z"/><path class="cls-2" d="M118.68,67.66c7.18-7.89,14.12-15.75,22.19-22.78,4.27-3.72,9.46-9.23,14.89-11.27,1.22-.46.67-2.44-.54-2-5.12,2-10,7.06-14.16,10.55-8.51,7.22-17.36,15.19-23.47,24.62a.7.7,0,0,0,1.09.84Z"/><path class="cls-1" d="M141.07,7c-2.16,3.38-3.39,10.08-2.3,13.94a15.32,15.32,0,0,0,7.3,9.18c1,.55,11.8,3.65,15.73-1.1,2.73-3.3,7.51-9.9,6.46-15.18a16,16,0,0,0-5.79-9.4C160.58,3.08,146.61-1.63,141.07,7Z"/><path class="cls-2" d="M140.53,6.48c-7,6.95-3.4,21,5.06,25a22.68,22.68,0,0,0,10.6,1.66c4.38-.31,6.75-2.57,9.2-6,5.44-7.66,7-19.17-2.71-24.59-6.57-3.66-17.07-3.81-22.19,2.2a1.88,1.88,0,0,0-.28,2.2c.65,1.13,1.59.91,2.66.51,1.7-.64,2.94-2.5,4.88-3.12a14.66,14.66,0,0,1,4.85-.58c7.55.22,15.86,5.13,13.72,14.1-.82,3.43-3.84,9.1-6.91,11s-7.38,1.32-10.61.57a12.35,12.35,0,0,1-8.72-8.86c-1.21-4.55.66-9,1.73-13.38A.77.77,0,0,0,140.53,6.48Z"/><path class="cls-3" d="M107.84,66.72c-6.75-.54-13.29-5.3-14.13-10.84a28.27,28.27,0,0,1-.08-5.74c.37-6.89.75-13.84,2.65-20.47A46,46,0,0,1,101,18.75a1.53,1.53,0,0,1,.39-.48c.63-.45,1.44.19,2,.76,1.65,1.78,14.87,13,17,19.86a28.65,28.65,0,0,1,.85,14.87C118.93,63,114.26,67.23,107.84,66.72Z"/><path class="cls-2" d="M108.18,65.51c-5-.91-11.07-3.59-12.68-8.88-1.5-5-.14-11.78.43-16.83.66-5.85,1.86-13,5.08-18.09,1.16-1.83.92-1.56,2.32-.69a18.41,18.41,0,0,1,2.73,2.64C110.94,28.53,117.19,34.12,119,41c2.3,8.71.28,24-11.16,24.74-1,.07-1.45,1.8-.27,2,12.15,1.71,16.86-12.22,15.91-22.23-1.1-11.64-9.2-18.31-17.32-25.76-2-1.88-4-4.33-6.42-1.68-2.14,2.33-3.43,6.67-4.43,9.61A55.7,55.7,0,0,0,93,38.86c-.78,6.39-2.77,15.39.68,21.22,3,5,8.63,7.51,14.21,7.88C109.23,68.06,109.57,65.77,108.18,65.51Z"/><path class="cls-3" d="M115.12,66.21a17,17,0,0,1,2.06-13.72,25.45,25.45,0,0,1,10.7-9.21.69.69,0,0,1,.45-.1.67.67,0,0,1,.32.25,12.36,12.36,0,0,1,2,11.5,17.2,17.2,0,0,1-7.55,9.22,14.62,14.62,0,0,1-9.73,2.34"/><path class="cls-2" d="M116.25,66.21c-.28-4.59-.11-8.81,2.36-12.88,1.12-1.85,6.79-9,9.49-8,1.95.71,1.6,6.6,1.33,7.87a13.85,13.85,0,0,1-3.34,6.33c-3.41,3.8-7.72,5.27-12.71,5.42-1.7,0-2.2,2.69-.42,3.07,6.27,1.32,13-2.53,16.65-7.48,3.5-4.7,5-13.22.42-17.9-3.27-3.32-9.72,3.39-11.89,5.85-4.32,4.89-7,12.1-4,18.31a1.14,1.14,0,0,0,2.11-.57Z"/><path class="cls-3" d="M112.12,68.1a9.1,9.1,0,0,0-10,0c-3.63,2.48-4.89,7.16-5.89,11.44a50.9,50.9,0,0,0-1.14,5.93c-.59,5.32.51,10.69,2.17,15.77.68,2.1,1.56,4.3,3.39,5.54,2.35,1.6,5.56,1.09,8.17,0,7.57-3.24,12.56-10.86,14.59-18.84a20.82,20.82,0,0,0,.46-9.82A14.48,14.48,0,0,0,111.2,67.27"/><path class="cls-2" d="M112.89,67.32A9.43,9.43,0,0,0,101,67c-4.67,3.3-6,9.81-7,15.06-1.57,7.75-1.44,27.33,10,27.67,21.14.64,32.51-43,7.25-43.78a1.34,1.34,0,0,0-.36,2.62c9.43,2.13,13.57,9.67,10.88,18.89-2,6.86-5.86,13.79-12.54,17.05-2.35,1.15-5.85,2.23-8.12,0-1.43-1.38-1.9-3.68-2.47-5.52a34.6,34.6,0,0,1-1.81-13.56c.84-8.46,4-20.27,15-16.31,1,.36,1.93-1.16,1.07-1.83Z"/><path class="cls-4" d="M155.53,32.31a12,12,0,0,1,3-3.85c1.52-1.4,6.58-5.63,10.36.07,1.4,2.11-2.33,4.33-3.84,5.15a9.9,9.9,0,0,1-5,1c-1.73,0-3.69-.5-4.52-2"/><path class="cls-2" d="M156.13,32.66C157.91,30,162,25.33,165.76,27c1.26.55,2.74,1.87,2.11,3.24a5.87,5.87,0,0,1-2.5,2.17c-2.3,1.35-7.11,2.47-9-.26-.74-1.08-2.52,0-1.75,1,2.29,3.13,7.24,3,10.5,1.54,2.25-1,6.05-3.44,4.7-6.4-3.45-7.56-13.14-1.68-15,3.84-.26.78.85,1.16,1.27.54Z"/><path class="cls-2" d="M111.44,66.72a73.65,73.65,0,0,0-4.82,18.65c-.22,1.65,2.38,1.88,2.83.38a111.31,111.31,0,0,0,4-18.48,1.1,1.1,0,0,0-2-.55Z"/><path class="cls-2" d="M104,41c2.18,8.14,1.19,16.74,3.72,24.76a1.55,1.55,0,0,0,3-.82c-2-8.12-1.29-16.71-4.57-24.53-.53-1.27-2.52-.83-2.14.59Z"/><path class="cls-2" d="M115.66,66.71c1.51-3.2,5.19-4.91,6.11-8.48a1.11,1.11,0,0,0-2.14-.59c-1,3.22-4.42,5.16-5.53,8.42-.3.9,1.14,1.53,1.55.65Z"/><path class="cls-2" d="M136.15,82.55A58.26,58.26,0,0,0,130,78c-2.33-1.54-4.56-3.54-7.07-4.74-1.21-.58-2.76,1-1.55,2,2,1.62,4.43,2.67,6.63,4a77.74,77.74,0,0,0,7.34,4.26c.63.3,1.4-.51.8-1Z"/><path class="cls-2" d="M91.47,116.89c-1.14-3.31-2.6-6.5-3.41-9.92s-.86-7-1.34-10.46c-.26-1.87-3.21-1.36-3.22.44a40.81,40.81,0,0,0,6.13,20.72c.59.92,2.24.36,1.85-.78Z"/><path class="cls-2" d="M66.62,90.13c-3.06,1.46-6,4.18-8.71,6.2-3.54,2.64-7.16,5.11-10.8,7.61a2,2,0,0,0,2,3.41c4-2.12,7.59-5.26,11-8.12,2.66-2.2,6-4.69,8-7.54.72-1-.63-2-1.57-1.57Z"/><path class="cls-2" d="M35.94,71.87c6.17,2,11.54,5.89,17.71,7.84a1.87,1.87,0,0,0,1.43-3.4,58.34,58.34,0,0,0-9.78-3.8c-3-1-5.93-2.31-9.11-2.52-1.12-.07-1.23,1.55-.25,1.87Z"/><path class="cls-2" d="M54.12,47c0,2.26,2.35,3.37,3.46,5.15,1.55,2.48,1.68,5.42,2.72,8.09.64,1.63,3.56,1.63,3.36-.45a18.82,18.82,0,0,0-2.57-7.56,13.46,13.46,0,0,0-2.22-2.89c-1-.95-2.46-1.54-3.09-2.78a.89.89,0,0,0-1.65.45Z"/><path class="cls-4" d="M44.18,95.44C44,94,40.12,94.47,38.8,95a5.06,5.06,0,0,0-2.9,2.9,2,2,0,0,0-.13,1.33,2,2,0,0,0,.95,1c2,1.18,4.54.71,6.62-.27a3.39,3.39,0,0,0,2-2,2.62,2.62,0,0,0-2.25-3.38"/><path class="cls-2" d="M44.77,95.28c-.7-2.42-4.39-2-6.27-1.42-2.87.95-5.86,5.32-2.39,7.42,2.76,1.67,7.93.86,9.88-1.83a3.8,3.8,0,0,0-2.86-6c-1.32-.15-1.45,1.84-.3,2.22,1.89.61,1.7,2.18.12,3.1-1.19.69-4.5,1.69-5.62.39-.74-.86.33-2.08,1-2.59a4.46,4.46,0,0,1,1.78-.82c.32-.08,3.32-.71,3.53-.18.28.71,1.39.45,1.17-.32Z"/><path class="cls-2" d="M62.1,86.54C56.21,88.75,51.34,93,45.44,95.26c-1.32.51-.8,2.63.6,2.17,6-2,11.35-6.1,16.67-9.45.72-.45.27-1.77-.61-1.44Z"/><path class="cls-4" d="M151.82,56.73c2.16,1.21,6.95,1.61,7.91,1.26a3.2,3.2,0,0,0,2.06-2.21,3.89,3.89,0,0,0-1.46-3.46,12.26,12.26,0,0,0-6.56-3.27c-1.83-.29-4.16.11-5,2a3.64,3.64,0,0,0,.45,3.46,9.11,9.11,0,0,0,2.59,2.26"/><path class="cls-2" d="M151.61,57.09c2.08,1.4,6.07,2.55,8.55,1.64,4.33-1.58,2.18-6.14-.45-8.13s-7.34-3.8-10.42-1.62c-3.74,2.66-.71,6.72,2.09,8.49,1,.6,1.74-.84.87-1.48-1.56-1.14-4.37-3.45-1.75-5.55a4,4,0,0,1,2.63-.51c2.37.15,5.63,1.52,7,3.56,3.55,5.41-6.29,3.48-8.17,2.84-.46-.16-.69.51-.32.76Z"/><path class="cls-2" d="M151.65,47.84c-3.57-5-12.27-2.85-16.87-.62-1,.47-.28,2.19.75,1.78,4.18-1.68,11.24-3.82,14.92-.23.6.58,1.72-.2,1.2-.93Z"/><path class="cls-2" d="M23.57,81.88a4.61,4.61,0,0,0-3.25.79,4.23,4.23,0,0,0-2.09,2.19c-.42,1.08,1.13,1.48,1.71.72a7.54,7.54,0,0,1,3.63-2,.89.89,0,0,0,0-1.69Z"/><path class="cls-2" d="M54.53,125.75a2.93,2.93,0,0,0-2.37,2.66A2,2,0,0,0,54.69,130a3.78,3.78,0,0,0,3-2.37,1.74,1.74,0,0,0-2-2.16c-.69.12-.54,1.29.17,1.23.9-.07.3,1,0,1.32a3.66,3.66,0,0,1-1.46.7c-.31.06-.61.08-.76-.23s.06-.5.25-.73a3.53,3.53,0,0,1,1.13-1c.64-.29.14-1.12-.44-1Z"/><path class="cls-2" d="M131.13,18.36a2.66,2.66,0,0,0-2.53.5,2.82,2.82,0,0,0-1.09,2.4.94.94,0,0,0,1.88,0A1.93,1.93,0,0,1,131,19.58a.62.62,0,0,0,.16-1.22Z"/><path class="cls-2" d="M155.09,6a3.41,3.41,0,0,0-2.82.87,2.1,2.1,0,0,0-.07,2.55,3.67,3.67,0,0,0,5.21.31.72.72,0,0,0-.7-1.2c-.9.17-1.83.67-2.75.25-.38-.17-.76-.62-.47-1s1.26-.61,1.73-.76a.5.5,0,0,0-.13-1Z"/><path class="cls-4" d="M47.57,103.75c-1.28-3.18-5.4-2.15-6.34.32-1.2,3.16-1.5,6.46-.53,7.1,1.57,1,6.21-2.24,7.29-4.78.63-1.48-.94-4.08-2.51-4.43"/><path class="cls-2" d="M48.09,103.61c-.47-3.34-4.73-3.38-6.75-1.41-1.39,1.36-1.81,3.7-2,5.54-.16,1.26-.35,3.26.86,4.13,2.32,1.67,6.43-1.81,7.72-3.48a4.49,4.49,0,0,0,1.07-4.31,4.3,4.3,0,0,0-3.46-3.19c-1.1-.11-1.38,1.48-.54,2a4.1,4.1,0,0,1,2,2.22c.31,1.12-.3,1.78-1,2.55s-3.43,3.56-4.63,2.72.55-5.79,1.27-6.62c1.45-1.68,3.34-1,4.64.39.41.44,1,0,.91-.53Z"/><path class="cls-4" d="M56,99.73c-1.49,2-2,4.45-2.48,6.85a6,6,0,0,0-.17,1.79,2,2,0,0,0,.86,1.52,2.26,2.26,0,0,0,2.29-.19,6.44,6.44,0,0,0,2.69-4.76,5.89,5.89,0,0,0-.19-2.88,3,3,0,0,0-2-1.91,2,2,0,0,0-2.31,1.28"/><path class="cls-2" d="M55.66,99.4a15.21,15.21,0,0,0-3.12,9.2c.54,3.29,4.15,2.56,5.78.59s2.55-6,1-8.32c-1.41-2.1-4.54-2.19-5.46.35-.32.88,1.07,1.45,1.5.63s1.06-1.08,1.77-.36a1.62,1.62,0,0,1,1.32,2,7.25,7.25,0,0,1-.28,2.36,6.34,6.34,0,0,1-.67,1.64,3.9,3.9,0,0,1-.71.94q-.77,1.14-1.65,0c-1.23-.78-.92-1-.69-2.24.12-.66.26-1.33.41-2A15.06,15.06,0,0,1,56.39,100c.25-.44-.38-1-.73-.56Z"/><path class="cls-4" d="M46.14,103.87A11,11,0,0,1,48.36,100c1.21-1.45,5.27-5.89,9.38-1.19,1.52,1.74-1.58,4.2-2.85,5.12a9,9,0,0,1-4.42,1.49c-1.57.16-3.4,0-4.33-1.28"/><path class="cls-2" d="M46.69,104.19c1.31-2.68,4.69-7.79,8.39-6.26,1.55.64,2.49,2.2,1.3,3.58a9.8,9.8,0,0,1-1.92,1.7c-2,1.32-5.83,2.37-7.65.3-.79-.89-2.13.43-1.31,1.31,2.32,2.49,6.9,1.72,9.51.1,1.82-1.13,4.95-3.63,3.78-6.12-1.29-2.73-5-3.57-7.51-2.35a11.28,11.28,0,0,0-5.74,7.24c-.12.66.82,1.18,1.16.49Z"/><path class="cls-3" d="M175.66,108.84a8.19,8.19,0,0,1,8.15-7.1c.77,0,1.53.17,2.3.25a14.32,14.32,0,0,0,11.72-4.39,22.19,22.19,0,0,1-2.78,7.05c-2.88,4.16-8.22,5.85-13.26,6.31a6.68,6.68,0,0,1-2.75-.16,2.55,2.55,0,0,1-1.79-1.93"/><path class="cls-2" d="M176.39,109c1-3.46,3.58-6.29,7.43-6.29,2.13,0,4,.51,6.17.19a15.78,15.78,0,0,0,8.73-4.47l-2.06-1.2c-1.11,4.16-2.31,7.83-6.3,10.1-2.28,1.3-10.33,4.23-12.07.89-.64-1.21-2.49-.37-2.17.91,1.29,5.08,8.82,2.88,12.25,1.61,6.12-2.27,9-6.78,10.66-12.86a1.24,1.24,0,0,0-2.06-1.2A13.91,13.91,0,0,1,187.4,101c-2.39,0-4.41-.56-6.74.31a8.74,8.74,0,0,0-5.76,7.53c-.08.86,1.25,1,1.48.2Z"/><path class="cls-1" d="M181.25,106.55c-5.61-.22-11.47.11-16.38,2.82a19.71,19.71,0,0,0-9.09,11.23,22.13,22.13,0,0,0,.53,14.51,19.4,19.4,0,0,0,8.46,10.12c3.86,2.12,8.39,2.59,12.79,2.78a20.46,20.46,0,0,0,8.11-.84,22.26,22.26,0,0,0,4.32-2.41,36.39,36.39,0,0,0,5.57-4.22c6.29-6.17,7.13-16.89,2.41-24.33a21.37,21.37,0,0,0-20-9.57"/><path class="cls-2" d="M181.25,105.63c-13.87-1.8-27.63,6.41-27.66,21.44a23.17,23.17,0,0,0,6.63,16.47c5,4.9,12.3,5.83,19,5.72,12-.19,24.26-11.35,23.17-23.88a22.12,22.12,0,0,0-24.64-19.75c-1.19.16-.88,2.07.28,2.06,10.7-.11,20.75,6.3,21.46,17.69a20.3,20.3,0,0,1-21.1,21.43c-5.73-.24-11.91-1.07-16.23-5.21A20.52,20.52,0,0,1,156,126.25a19,19,0,0,1,8.15-15.12c5.2-3.4,11.13-3.22,17.06-3.66a.92.92,0,0,0,0-1.84Z"/><path class="cls-3" d="M184.5,113.87c-1-.49-2.22.49-2.59,1.68a10,10,0,0,0-.09,3.78c.46,5.61-.77,11.2-1.78,16.72-.34,1.82-.45,4.19,1,5.07a2.94,2.94,0,0,0,1.79.3,11.74,11.74,0,0,0,3.69-1,14.2,14.2,0,0,0,7.29-7,13.09,13.09,0,0,0,.2-10.68,19.58,19.58,0,0,0-2.15-3.39,18.39,18.39,0,0,0-3.38-3.76,5.53,5.53,0,0,0-4.48-1.26"/><path class="cls-2" d="M184.72,113.06a3,3,0,0,0-3.82,2.22c-.54,1.55-.09,3.4,0,5a45.32,45.32,0,0,1-.9,10c-.74,4.2-3.73,13.33,3.78,12.29,7-1,12.09-7.49,12.35-14.38.23-6.25-5.09-15.48-12.12-15a1.24,1.24,0,0,0,0,2.48c6.4,0,10.79,9.14,9.73,14.58-.66,3.39-5.51,10.43-10,9.86-4.88-.62-1.7-8.45-1.32-11.4.27-2-.55-13.61,2.07-13.94.86-.11,1.24-1.43.22-1.66Z"/><path class="cls-3" d="M172.85,113.61c-4.82-.07-9.9,2.8-11.45,7.66a16,16,0,0,0-.64,3.9,18.28,18.28,0,0,0,.93,7.67,11.3,11.3,0,0,0,8.5,7.08,1.67,1.67,0,0,0,1.89-.74c1.58-1.92,2.06-4.6,2.13-7.15s-.22-5.12.08-7.65c.25-2.16.93-4.3.65-6.45s-2.06-4.32-4.05-3.88"/><path class="cls-2" d="M172.85,113c-14.72-1.37-18,21.46-5.79,27.11,7,3.26,8.3-4.59,8.34-10,0-4.32,3.68-17.52-4.51-17.22a1.15,1.15,0,0,0,0,2.3c4,.34,2.18,11.93,2.14,14.93,0,1.92.26,5.7-1.13,7.25-2.69,3-6.29-.55-7.85-2.67-2.5-3.42-3.1-9.08-1.7-13.16,1.63-4.78,6.09-6.57,10.65-7.36.7-.12.45-1.09-.16-1.15Z"/><path class="cls-2" d="M170.76,118.08c-1.77,3-5.34,4.79-6.61,8.13s.43,6.84,2.91,9.24a1.2,1.2,0,0,0,1.65,0c1.66-1.43,1.53-3.44,2-5.45.28-1.17-1.4-2-2-.84s-.75,3.82-1.66,4.64h1.65c-3.68-3.4-3.22-6.94,0-10.21,1.53-1.56,2.74-2.84,3.14-5a.6.6,0,0,0-1.08-.46Z"/><path class="cls-2" d="M185.2,120.23c-.2,2.71.19,3.33,1.89,5.53,1.2,1.56,2.63,3.91,1.88,6-.25.68-1.51,2.8-2.48,2.81-3.1,0-1.49-3-1.1-4s-1.24-1.68-1.83-.77c-2.81,4.34,1,9.37,5.35,5.57a6.25,6.25,0,0,0,1.68-6.73,10.33,10.33,0,0,0-1.71-3.16c-1.34-1.76-2.32-3-2.63-5.32-.09-.63-1-.42-1,.14Z"/><path class="cls-1" d="M205.69,137.81c-.33,7.53,3.82,14.71,9.39,19.91,3.58,3.35,8,6.14,12.87,6.84a27.79,27.79,0,0,0,9.82-.71c3-.66,6.1-1.58,8.45-3.56a21.59,21.59,0,0,0,4.18-5.41c1.45-2.35,2.93-4.81,3.22-7.54.4-3.85-1.73-7.66-4.8-10.1A24.46,24.46,0,0,0,238,132.84a49.84,49.84,0,0,0-26.62,2.33,12.41,12.41,0,0,0-4.16,2.3"/><path class="cls-2" d="M205,137.81c-1,11,7.82,22.19,17.66,26.41,9.69,4.15,22.58.83,28.25-8,16.29-25.49-30.17-31.59-44.65-19.66-1.18,1,.37,3,1.64,2.13,8.07-5.55,20.38-6.17,29.76-4.57,4.94.85,10.33,2.56,13.25,7,3.39,5.12.66,10.26-2.37,14.76-5.73,8.51-19.1,10-27.64,5a29.63,29.63,0,0,1-14.48-22.93.71.71,0,0,0-1.41,0Z"/><path class="cls-1" d="M241.08,124.22a29,29,0,0,0-26.62,1.54c-3.8,2.32-7.19,5.88-7.7,10.24s1.43,9,4.41,12.31c6.57,7.31,17.27,10,22.62,9.79s12.58-2.89,16.38-6.58,5.66-9.46,3.9-14.41a18,18,0,0,0-4-6c-6.1-6.56-11.78-8.21-18.87-8.76"/><path class="cls-2" d="M241.38,123.7c-10.71-5.81-30-3.69-35.07,9.2-5.18,13.12,10.44,23.34,21.13,25.84s25.51-2.54,28.25-14.28c1.58-6.77-2.24-12.38-7.13-16.7-5.13-4.53-10.68-6.08-17.39-6.21-.84,0-1.07,1.36-.2,1.5,9.51,1.54,24.87,8.6,22.11,20.69-2.36,10.36-15.68,14.26-24.93,12.45-9.59-1.88-23.9-10.8-19.43-22.45,4.58-11.93,22.25-12.08,32.21-8.93a.61.61,0,0,0,.47-1.1Z"/><path class="cls-3" d="M227.46,135.93c3.6,1,8.16-1,10.49-3.94.57-.72-1.42-4.17-2.22-4.45-4.64-1.66-10.3.4-14.84,2.31-8.25,3.48-7.67,10.67-6.86,12.89.28.78,2.24,2.59,3.64,2.1,3.22-1.13,8.63-2.49,9.72-4.18.61-1-.7-4.4-1.1-5.46"/><path class="cls-2" d="M227.31,136.5c5,1.41,15.75-2.67,10.09-8.84-5-5.46-19.2.6-22.82,5.59-2.4,3.31-4,11.92,2.06,12.77,2.7.38,9-1.94,10.93-3.92s.71-5.12-.37-7.43c-.51-1.09-2.23-.31-1.92.81.63,2.26,1.39,4.13-.69,5.72a15.37,15.37,0,0,1-6.07,2.15c-5.16,0-4.18-5.64-2.23-8.52,2.76-4.08,9-6,13.68-6.6,2.31-.31,8.12.56,6.39,3.95-1.39,2.72-6.29,3.4-8.88,3.17-.67-.06-.77,1-.16,1.15Z"/><path class="cls-3" d="M222.75,150.15c2.11,2.23,8.33,4.6,18.06,1.85,2.4-.68,9.57-7.86,7.94-13.46-.41-1.41-.47-3.09-1.68-3.93-2.49-1.72-8.89,3-9.57,5.31-.38,1.28-.52,3-1.81,3.36a7.89,7.89,0,0,1-1.45,0C233.4,143.38,220.44,148.37,222.75,150.15Z"/><path class="cls-2" d="M222.35,150.56c4.32,5.15,15.92,4.87,20.91,1.11,3-2.25,5.87-6.48,6.44-10.2.39-2.55,0-7-2.77-8.11s-6.09,1.34-8,3c-1.4,1.25-1.67,2.37-2.62,3.77-1.34,2-2.16,1.9-4,2.68-1.48.63-13.18,4.62-10,7.73.45.45,1.29-.14.91-.7s9.69-5.17,10.72-5.38c1.5-.32,2.29.09,3.41-1.14.53-.59.56-1.42.89-2.1a8.67,8.67,0,0,1,3.07-3.9c2.11-1.52,4.41-3.26,6.23.38a7.54,7.54,0,0,1,.21,5,14.83,14.83,0,0,1-6.35,7.92c-5,2.79-13.71,2.49-18.38-1C222.49,149.24,222,150.1,222.35,150.56Z"/><path class="cls-2" d="M243.74,139.45a4.5,4.5,0,0,0-4,4.65c.44,4.63-3.72,4.19-6.36,5.36,1.08-.48.27-2-.76-1.81l-.73.14a1.06,1.06,0,0,0-.75.75c-1.28,4.69,5.23,2.82,7.28,1.88a5.8,5.8,0,0,0,3.54-4.29c.16-1.13-.44-2.51.05-3.5a9.34,9.34,0,0,1,2.34-2.21c.49-.41-.06-1.07-.57-1Z"/><path class="cls-2" d="M231.12,129.12c-3.51,2.19-8.87,2.11-11.63,5.46-2.2,2.67.12,5.76,3.12,3.69.88-.61.36-2.3-.78-1.86-1,.38-1.15-.07-.31-.87a6.37,6.37,0,0,1,1.85-1.12c1.42-.63,2.95-1,4.41-1.49,1.69-.57,3.8-1.16,4.24-3.11a.62.62,0,0,0-.9-.7Z"/></g></g></svg>