<svg xmlns="http://www.w3.org/2000/svg" viewBox="0 0 180.33 206.97"><defs><style>.cls-1{fill:#f1d400;}.cls-2{fill:#fff;}.cls-3,.cls-4{fill:#0c0000;}.cls-4{stroke:#fff;stroke-miterlimit:10;stroke-width:1.92px;}.cls-5{fill:#e30613;}</style></defs><title>3</title><g id="Слой_2" data-name="Слой 2"><g id="Layer_1" data-name="Layer 1"><path class="cls-1" d="M140.37,113.43c2,9.95,6.69,28.43,8.7,38.38-.59-3.8-.62-25.79,8.8-27.86,8.27-1.82,22.37-10.66,20.44-38.77-.82-11.93-8.25-29.1-22.06-30.76-5.48-.66-20.48.55-29.93-6.29,3.43,17.66,8.15,32,10.43,48.72.12-.86,5.4-41.08,20.69-40.64,9.19,1,12.08,64.64-1.16,66.14C150.11,123.06,140.86,117.08,140.37,113.43Z"/><path class="cls-2" d="M139,113.82c2.63,12.85,6.06,25.53,8.7,38.38.32,1.57,3.05,1.24,2.83-.38-1-7.12-.7-20.48,5.45-25.31,2.42-1.9,6.24-2.21,9-3.8a26.45,26.45,0,0,0,7.68-6.81c12.25-16,10-47.79-7.44-59.56-4.62-3.11-9.5-3.43-14.88-3.65-8.1-.33-16.36-1.13-23.26-5.78-1.13-.76-2.34.49-2.12,1.63,3.23,16.3,8.09,32.25,10.43,48.72.2,1.38,2.59,1.38,2.78,0a125.68,125.68,0,0,1,4.22-19.41,54,54,0,0,1,5.82-13.6c1.5-2.33,6-8.15,9.49-6.43,2.15,1,3,5.5,3.5,7.51a82.73,82.73,0,0,1,2.14,13.5c.86,9.75.95,19.9-.8,29.56-.64,3.56-1.44,8.31-4,11.08-4.08,4.38-15.42-1.41-16.74-6.4a1.44,1.44,0,0,0-2.78.77c1.5,5.69,9.67,9.48,15,10,3.78.35,6.28-1.3,8.11-4.54,5.15-9.1,4.84-22.07,4.57-32.15-.24-9-.24-21.61-5.38-29.49-5.37-8.23-14.52,2.84-17.16,7.89-4.94,9.45-7.33,20.46-8.78,31h2.78C135.79,80,130.93,64,127.7,47.75l-2.12,1.63c4.9,3.31,10.49,4.82,16.31,5.55,5,.63,10.22.15,15.16,1.07,12.27,2.28,18.55,17,19.71,28.12s-.36,24.38-8.72,32.6a22.48,22.48,0,0,1-8.68,5.33c-3,1-5.3,1.66-7.25,4.36-4.71,6.55-5.55,17.6-4.51,25.4l2.83-.38c-2.63-12.85-6.06-25.53-8.7-38.38C141.39,111.23,138.61,112,139,113.82Z"/><path class="cls-1" d="M51.66,35.59c-.27,3.78-1.38,9.23-1.66,13a29.4,29.4,0,0,1,6.43,5.71C54.66,64.78,38.56,144.4,33.77,173c-.37,2.18-.71,4.53.41,6.5a9,9,0,0,0,2.9,2.85c8.22,5.55,19.52,5.3,29.84,4.81,11.8-.57,27.33.45,39.13-.12a139.77,139.77,0,0,0,16-1.38c13.41-2.21,24.07-2.34,36-8.27-10.71-43.11-20.3-80.67-29.2-123.2,1.38-3.09,4.51-5.33,6.16-6.54-.22-3.44-.31-8.42-1.18-11.78Z"/><path class="cls-2" d="M50.73,35.59c-.46,3.64-3.28,10.14-1.93,13.72.51,1.35,3.73,3.09,5,4.21,1.49,1.31,1,.33,1,2,0,4.56-1.86,9.71-2.74,14.17C48.75,86.49,45.4,103.23,42.14,120c-3.17,16.24-6.37,32.49-9.22,48.79-.53,3-1.57,6.5-.83,9.55,1.09,4.46,6.22,6.87,10.14,8.29,10.84,3.94,22.88,2,34.13,2,14.05,0,28.15.82,42.15-.83,13.57-1.6,27.85-3,40.3-9a1.65,1.65,0,0,0,.75-1.84q-9.6-38.53-18.76-77.17Q136.38,81,132.28,62.18c-.78-3.59-2.62-7.35.15-10.35,1-1.1,3.25-2.08,3.87-3.42,1.37-3-.72-9.84-1.43-12.88a1.18,1.18,0,0,0-1.12-.85c-27.36.2-54.73.46-82.1.38a.54.54,0,0,0,0,1.08c19.77.06,39.55.41,59.33.61l15.64.16c1.5,0,5.74-.72,7.07.09-1.07-.65-.43,4.54-.43,5.48s.39,2.9,0,3.78c-.27.67-.55.68-1.06,1.36-2.56,3.39-5.67,4.16-4.75,8.9,2.4,12.38,5.29,24.68,8.13,37,6.54,28.2,13.82,56.21,20.78,84.3l.75-1.84c-11.19,5.36-23.47,6.28-35.57,8.08S97,185.56,84.78,185.37c-11.66-.18-24,1.58-35.55-.28-7-1.13-15.12-3.75-13.84-12.44.45-3,1-6.06,1.59-9.08,5.59-31.09,11.85-62.06,17.83-93.07.93-4.84,2.06-9.69,2.76-14.57.38-2.68-.89-3.69-3-5.55-2.44-2.16-3.12-2.44-2.77-6,.29-2.93.61-5.86.78-8.8C52.66,34.37,50.88,34.43,50.73,35.59Z"/><path class="cls-3" d="M39.22,156.38c2,2.8,18.54-17.79,18.31-30.11C54.28,119,44.46,98.09,43.06,93.63,38.83,80.14,34,66.21,31.24,61,29,56.62,18.06,35.37,11.47,37.22c3.82,4.78-13.55.36-9.73,5.13C2.89,43.81,15,62.84,21.18,75.89,31,96.71,19.71,121.08,39.22,156.38Z"/><path class="cls-2" d="M38.61,157c3.34,4.07,12-9.46,13.14-11.24,2.95-4.62,5.66-9.78,6.77-15.19.93-4.54-.72-7.21-2.59-11.29-4.58-10-9.51-19.92-12.89-30.42-3.68-11.45-7.36-23-13.2-33.57C26.7,49.62,19.51,34.46,11.13,36a1.27,1.27,0,0,0-.76,1.86c.62.89-2.61.59-3.77.63-1.49,0-3.35-.13-4.77.44C-.48,39.85-.3,41.3.71,43.2c2.23,4.21,5.24,8.16,7.66,12.27,3.75,6.35,7.46,12.75,10.7,19.38,5.71,11.69,5.21,24.47,6.09,37.15a110.06,110.06,0,0,0,12.63,45.21c1,1.88,3.89.2,2.87-1.68-8.27-15.13-11.8-30.94-12.77-48-.66-11.79-1-23.32-6.32-34.12-3.25-6.62-7-13-10.8-19.32-1.63-2.68-3.3-5.33-5-8C5.05,44.95,3.47,43.31,3.11,42c-.11-.41-.34-.91-.57-.49.22-.41,2.19-.32,2.63-.35a34.8,34.8,0,0,0,5.16-.32c2.31-.52,3.81-1.95,2.23-4.24l-.76,1.86C16.42,37.61,21,46.25,23,49.38A132.46,132.46,0,0,1,29.8,61.28c6,11.81,8.5,25,13.6,37.14,2.15,5.12,4.47,10.17,6.79,15.22,1.92,4.19,5.94,9.91,5.82,14.53-.15,6-4.2,12.34-7.37,17.13-.65,1-7.77,11.18-9,10.32C38.8,155,38,156.28,38.61,157Z"/><path class="cls-3" d="M1.53,41.64c1.7,2.31,5.62,2.25,8.5,1.21a6.57,6.57,0,0,0,3.38-2.27,2.47,2.47,0,0,0-.56-3.45,4.11,4.11,0,0,0-2.22-.48c-3.9,0-7.63,2.43-8.89,5.7"/><path class="cls-2" d="M.89,41.81C2.81,47.42,15,44.94,15.25,39.27c.16-3.74-3.83-4.37-6.72-3.83A11,11,0,0,0,.49,41.63C-.25,43.31,2.24,44.79,3,43.09a8,8,0,0,1,3.8-4C8,38.43,14.16,37.2,12,40.1,11,41.42,8.49,42,6.92,42.18a8.26,8.26,0,0,1-5.06-1.12c-.48-.25-1.17.17-1,.75Z"/><path class="cls-3" d="M33.62,175.21a21.63,21.63,0,0,1-2.31,20.38c11.57,4.46,40.79,9.63,61.62,9.63,22.07,0,60.27-8,65.05-13.08-2.57-4.71-2.36-8.28-.68-16-15.84,10.94-47.82,10.71-62.26,10.93-13.63.2-54.22-4.27-61.27-11.7"/><path class="cls-2" d="M32.58,175.49A22.21,22.21,0,0,1,30,194.85a1.48,1.48,0,0,0,.87,2.14c10.89,4.11,22.69,6.2,34.18,7.82,12.43,1.75,25,2.73,37.57,1.77a231.2,231.2,0,0,0,35.43-5.67c6.41-1.51,16-2.84,21-7.66a1.64,1.64,0,0,0,.25-1.94c-2.49-4.9-1.56-9.6-.53-14.79.25-1.24-1.09-2.62-2.33-1.79-10.28,7-23.59,8.75-35.68,9.76a254.46,254.46,0,0,1-29.57.84A231.83,231.83,0,0,1,59.94,182c-7.46-1.28-19.19-2.29-24.93-7.9-1.61-1.58-4.1.9-2.48,2.48,6.07,5.89,17.4,7.13,25.28,8.51a233.43,233.43,0,0,0,32.56,3.53,250,250,0,0,0,31.81-1.1c12.27-1.17,25.38-3.19,35.91-10l-2.33-1.79c-1.36,6.06-2.08,11.56.83,17.24l.25-1.94c-2.17,2.1-5.82,3-8.61,3.86-4.43,1.4-9,2.48-13.51,3.46a234.14,234.14,0,0,1-34.62,4.87c-12.42.76-24.88-.5-37.17-2.21-10.44-1.45-21.32-3.12-31.24-6.8l.87,2.14a22.78,22.78,0,0,0,2.09-21.4c-.5-1.26-2.52-.76-2.07.57Z"/><path class="cls-2" d="M105,194.46c-.78,2.6-.12,5.76,2.82,6.46a5.23,5.23,0,0,0,6.17-5.2c-.12-2.78-2.78-5.87-5.68-5.77-2.52.09-4.46,2.89-3.23,5.16a.86.86,0,0,0,1.33.17,5.67,5.67,0,0,0,.83-.8c.28-.38.32-1,.72-1.35,1.24-.95,2.88,1.17,3.18,2.24a2.56,2.56,0,0,1-2.83,3.1c-1.61-.26-1.57-2.47-1.66-3.78A.85.85,0,0,0,105,194.46Z"/><path class="cls-2" d="M135.12,188.39c-1.62-2.28-3.63,2-3.84,3.31a5.24,5.24,0,0,0,.5,3.68,3.21,3.21,0,0,0,3.28.95,4.4,4.4,0,0,0,3.51-5.37c-.5-2.24-3-4-5.19-2.94-1,.47-.23,1.8.69,1.65,2.63-.42,3.69,3.56,1.26,4.52-.62.24-1.44.37-1.84-.16a2.69,2.69,0,0,1-.24-1.91c0-.36.87-3,1.21-2.86a.58.58,0,0,0,.65-.85Z"/><path class="cls-2" d="M148.44,188.25a4.29,4.29,0,0,0,.63,2.62,2.1,2.1,0,0,0,2.55.63c2.08-1,1.82-4.5,1.35-6.33a2.29,2.29,0,0,0-4-.79c-1,1.08-1.49,3.37-.2,4.34a.56.56,0,0,0,.75-.2,3.64,3.64,0,0,0,.45-1.77c.05-.35.46-1.78,1.13-1.39.21.12.33,1.44.35,1.63a6.33,6.33,0,0,1,0,1.93,1.86,1.86,0,0,1-.2.67c-.34.46-.84.17-1.16-.24a4.66,4.66,0,0,1-.45-1.26C149.37,187.52,148.4,187.58,148.44,188.25Z"/><path class="cls-2" d="M141.85,187.94a6.32,6.32,0,0,0-.32,4.45,2.58,2.58,0,0,0,4.25,1.08c1.3-1.34,1.24-4.36.17-5.81a2.55,2.55,0,0,0-4.49.33c-.41,1,1.21,1.64,1.73.73.37-.64,1.1-.19,1.37.28a3,3,0,0,1,.27,1.34,3.1,3.1,0,0,1-.16,1.56.8.8,0,0,1-1.49,0,4.82,4.82,0,0,1-.24-1.75,6.4,6.4,0,0,1,0-1.78c.14-.65-.78-1.11-1.11-.47Z"/><path class="cls-2" d="M119.9,191.05c-1.63,2.05-1.9,6.31.94,7.52s5.75-1,6.41-3.75c.47-2,.12-4.31-1.85-5.28-2.22-1.1-4.72-.75-5.63,1.81-.22.63.61,1,1,.61.9-.8,2.39-.55,3.47-.19.22.08.31,0,.52.29a2.65,2.65,0,0,1,.38,1.55c0,1.58-1.24,3.37-3,3.12s-1.53-3.7-1.15-5C121.17,191.1,120.33,190.52,119.9,191.05Z"/><path class="cls-2" d="M62.78,188.7c-1.8,2.61-2.81,6.35-.47,9s6.06,1.44,7.87-1.33c1.94-3-.57-6.34-3.08-8-3-2-5.84-.19-6.1,3.14-.12,1.54,2.05,1.61,2.52.34.31-.84.5-1.56,1.62-1.21a4.22,4.22,0,0,1,1.41,1.09c1.45,1.38,2,2.8.32,4.26-2,1.69-3.65-.15-3.88-2.25a9.64,9.64,0,0,1,.88-4.57c.26-.66-.73-1-1.08-.46Z"/><path class="cls-2" d="M51.28,186.8c-2.35,1-2.88,5.41-2,7.53,1,2.3,4,3.35,5.91,1.46s2-5.71.46-7.79c-1.63-2.25-4.58-2.3-5.61.4-.44,1.16,1.23,1.63,1.86.78,1.26-1.72,2.54,1,2.63,2s-.08,3.14-1.43,3.54c-3.54,1-2.62-5.79-1.24-7.19.41-.42-.11-1-.59-.76Z"/><path class="cls-2" d="M40.15,185.45a5.34,5.34,0,0,0-2,5.6c.57,2.14,3.22,3.54,5.15,2.12,1.52-1.12,2.48-4.2,2.24-6-.38-2.84-2.87-4.18-5.27-2.35a1.11,1.11,0,0,0,.85,2c.31-.08,1.34-.6,1.63-.48.52.22.63,1.57.57,2a7.1,7.1,0,0,1-1.08,3c-1.05,1.17-2.26-.32-2.36-1.41a5.44,5.44,0,0,1,1-3.57C41.24,185.9,40.75,185,40.15,185.45Z"/><path class="cls-2" d="M63.51,51c.82,29.49-.82,68.54,0,98,8.17.51,21-3.3,29.21-3.42,17.61-.25,24.75.69,31.92,0-1-30-2.44-58.81-2.5-94.62,0-.93,8-11.07,10.8-15.22-9.43-.58-21.7-.62-31.15-.65-5.77,0-44.48-2.1-49.13,2.23C52.66,37.41,63.47,49.7,63.51,51Z"/><path class="cls-2" d="M62.68,51c0,32.67-1.12,65.37-.3,98a1.15,1.15,0,0,0,1.12,1.12c11.61.45,23-3.29,34.71-3.21,8.77.06,17.68.87,26.43.11a1.46,1.46,0,0,0,1.44-1.44c-.7-20.28-1.63-40.55-2.15-60.84-.13-5.16-.27-10.32-.37-15.49-.11-5.43-1.25-12-.26-17.29.51-2.72,2.86-5.1,4.51-7.33,2-2.76,4.14-5.5,6.07-8.34a1.1,1.1,0,0,0-.94-1.64c-15.74-.89-31.58-.74-47.34-1.06-7.18-.14-14.39-.22-21.56.26-3.76.25-9.05.19-12.16,2.69a1.11,1.11,0,0,0,0,1.55q2.57,2.94,5.08,5.93c1.24,1.48,2.38,3.09,3.67,4.52.61.68,2.15,1.62,2.39,2.55a.5.5,0,0,0,1-.26c-1.41-5.47-6.92-10.15-10.55-14.28v1.55c3.36-2.72,10.62-2.12,14.64-2.28,6.87-.27,13.76-.19,20.64,0,14.73.34,29.52.19,44.23,1L132,35.28c-1.94,2.84-4,5.57-6.09,8.33-1.47,2-3.83,4.3-4.67,6.67C119.92,54,121,59.74,121,63.69q0,8.78.19,17.56c.38,21.48,1.29,43,2,64.42l1.44-1.44c-8.76.76-17.65-.07-26.43,0-11.69.1-23.07,4.13-34.71,3.71l1.12,1.12c-.9-32.66,1.37-65.4-.3-98A.82.82,0,0,0,62.68,51Z"/><path class="cls-4" d="M63.51,136.86,63.75,150s10.23,4.2,29.17,4.09c24.28-.13,32.23-7.75,32.23-7.75l.07-14.37s-9.41,6.86-30.22,8.4S64.89,141.5,63.51,136.86Z"/><path class="cls-3" d="M51.84,35.68a48.74,48.74,0,0,0,18.72-7.29c7.5-5,13.7-12.16,22.79-14.13,3.22-.7,6.86-.6,9.57,1.1,2.26,1.42,3.55,3.71,5.07,5.76,5.47,7.4,15,12.34,25,12.95-2.58,4-8.34,5-13.43,5.74-19.95,2.74-40.56,5.46-60.1,1-2.93-.67-6.4-2.18-6.34-4.85"/><path class="cls-2" d="M51.84,36.64a44.31,44.31,0,0,0,20.69-7.85c6.58-4.58,12.41-11,20.47-12.93,6.59-1.59,9.82,1,13.67,6a34.07,34.07,0,0,0,6.62,6.73,37.27,37.27,0,0,0,19.67,7.16l-1.48-2.58c-3.79,4.92-12,4.93-17.58,5.66-6.6.86-13.21,1.63-19.84,2.08a146,146,0,0,1-18.86.17c-3.72-.23-19.33-.32-20.22-5.69-.41-2.48-4.17-1.42-3.77,1,1,6.32,10.24,6.83,15.1,7.51a126.12,126.12,0,0,0,24.92.74c8.38-.5,16.7-1.6,25-2.74,6.27-.86,13.74-1.26,17.94-6.69a1.74,1.74,0,0,0-1.21-2.93A33.71,33.71,0,0,1,108.4,19.1c-3.72-4.88-7.61-7.42-14-6.51-6.8,1-12.37,5.21-17.61,9.33A66.83,66.83,0,0,1,51.58,34.75c-1,.27-.85,2,.26,1.89Z"/><path class="cls-3" d="M92.08,16.67c-.15,1.55.87,5.45,2.4,6.22-1.55-.78.54-5.22,2.73-7.18,2.8-2.5,5.35-4.38,5.35-8,0-3.4-3.33-6-6.78-6-3,0-6.74,2.41-6.8,6S92.35,13.81,92.08,16.67Z"/><path class="cls-2" d="M91.36,16.67c-.14,2.4.44,5.38,2.26,7.08a1.21,1.21,0,0,0,1.7-1.7c-1.64-1.86,4.52-6.6,5.57-7.65A10.1,10.1,0,0,0,104,9.29a7.88,7.88,0,0,0-6-9A9,9,0,0,0,88,4.36a7.24,7.24,0,0,0-.61,5.58c.74,2.71,3.22,4.33,4,6.9a.65.65,0,0,0,1.25,0c.73-3.28-1.5-5.16-1.7-8.22-.56-8.4,14.18-4.92,8.52,2.85-1.79,2.46-10.17,8.49-5.9,12.27l1.46-1.89c-1.63-1-2.19-3.39-2.29-5.18A.71.71,0,0,0,91.36,16.67Z"/><path class="cls-5" d="M110,140.61c3.11-.46,13.18-3.67,14.21-6.59.77-2.19-.39-4.71-2.24-6.17a14.6,14.6,0,0,0-6.55-2.51c-13-2.4-26-1.41-39,.85-7,1.22-13.06,6-13,9.17C63.54,142.75,92.71,143.17,110,140.61Z"/><path class="cls-2" d="M110.29,141.62c5.43-.88,18.35-4,14.77-12-2.05-4.59-7.77-5.53-12.18-6.18A99.28,99.28,0,0,0,90.07,123c-6.48.55-13.75,1-19.72,3.68C67.21,128.06,62.26,131,62,135c-.36,5.94,9.3,7.11,13.34,7.66a110.06,110.06,0,0,0,17.39.79c5.91-.13,11.84-.19,17.41-2.29a.56.56,0,0,0-.15-1.09c-9-.71-18.13.84-27.22.38a60.76,60.76,0,0,1-12-1.53c-3.39-.87-7.9-2.16-4.47-6.2,4.22-5,12.08-5.53,18.05-6.29a111.76,111.76,0,0,1,21.27-.85A59.06,59.06,0,0,1,116.46,127c3.57.91,9.28,4.6,4.95,8.21-2.9,2.42-8,3.68-11.68,4.4C108.39,139.85,109,141.84,110.29,141.62Z"/><path class="cls-5" d="M92.3,49.26c.33-.61,1.23.26,1.28.94,2,27,3.25,55.63,3.62,82.74a9,9,0,0,1-8.45.46c-.39-26.45.41-53.85,2.43-80.24a7.18,7.18,0,0,1,1.32-4.33"/><path class="cls-2" d="M92.52,50.07c-.46.15,1.3,19.17,1.4,21.14q.57,11.14,1,22.28c.25,7.1.41,14.2.58,21.3q.12,5.27.2,10.55c0,1,.53,4.82.08,5.71-1.22,2.4-4.74,1.65-6.6.95l1.07,1.4C90,119.7,90,106,90.08,92.29c0-6.72.44-13.44.82-20.14.18-3.18.28-6.35.39-9.53.14-4-.19-10,1.87-13.41a.77.77,0,0,0-1.34-.78c-1.27,2.18-1.34,4.11-1.54,6.61-.29,3.8-.71,7.59-1,11.38-.52,7.33-.75,14.68-1.06,22-.65,15-1.14,29.92-1,44.95a1.51,1.51,0,0,0,1.07,1.4,11.05,11.05,0,0,0,9.56-.62,1.43,1.43,0,0,0,.71-1.25c-.26-15.75-.87-31.49-1.74-47.21q-.64-11.59-1.47-23.16c-.27-3.72-.21-7.74-.87-11.42-.24-1.36-.22-1.94-1.37-2.8a.87.87,0,0,0-.86,0l-.46.2c-.86.37-.25,1.82.64,1.52Z"/><path class="cls-2" d="M80.56,189.75c-3.4-.43-5.42,3.34-5.15,6.24.28,3.07,3.13,5.7,6.29,4.83s4-4.81,3.33-7.67a4.88,4.88,0,0,0-2.59-3.64,3.24,3.24,0,0,0-4,.91,1.17,1.17,0,0,0,1.13,1.94c4.32-1.16,3.88,6.88.3,6-1.86-.44-2.5-2.94-2-4.54S80,192,81.11,191.08c.6-.48,0-1.26-.55-1.33Z"/><path class="cls-2" d="M90.47,195.1c-1.34,2.92,1.4,6.52,4.52,6.21,3.33-.34,5-3.64,4.81-6.73a5.35,5.35,0,0,0-5.45-4.78c-2.78.24-6.16,3.81-3.75,6.35a.88.88,0,0,0,1.22,0,4,4,0,0,0,1.24-2.05c.22-.62.63-1.64,1.28-2a2.47,2.47,0,0,1,2,.25c.64.45.46,1.2.54,1.92.19,1.7.18,4-1.87,4.48-2.37.59-2.25-2.29-3-3.69A.87.87,0,0,0,90.47,195.1Z"/><path class="cls-2" d="M80,146.24l3.62,0a.59.59,0,0,0,0-1.19l-3.62,0a.56.56,0,0,0,0,1.13Z"/><path class="cls-2" d="M99.28,150.32c1.77-.11,3.53-.2,5.3-.41,1-.11,1-1.66,0-1.56-1.83.17-3.66.32-5.48.58-.78.12-.6,1.44.19,1.39Z"/><path class="cls-2" d="M66.26,144.72c2.78,1.19,6,2.68,9,2.82.73,0,.73-1.11,0-1.14-2.89-.11-6-1.58-8.62-2.68-.57-.24-1,.76-.42,1Z"/><path class="cls-2" d="M83.62,151c1.81,0,3.61,0,5.42-.09a17.6,17.6,0,0,0,5-.43c.7-.24.41-1.35-.31-1.12a20.07,20.07,0,0,1-5.2.39c-1.65.06-3.31.07-5,.13-.71,0-.72,1.13,0,1.11Z"/><path class="cls-2" d="M71.1,149.48a13.87,13.87,0,0,0,2.93.92,10.81,10.81,0,0,0,3,.55.65.65,0,0,0,0-1.31,11.49,11.49,0,0,1-2.67-.53,12.68,12.68,0,0,1-2.64-.74c-.73-.36-1.38.72-.64,1.1Z"/><path class="cls-2" d="M105.1,146.3a33.68,33.68,0,0,0,14.43-3.69c.78-.37.1-1.51-.67-1.15a33.39,33.39,0,0,1-13.75,3.46.69.69,0,0,0,0,1.38Z"/><path class="cls-2" d="M110.43,148.88c3.71.34,7.75-1.66,10.94-3.4.84-.46.25-2-.67-1.58-1.72.72-3.39,1.57-5.12,2.25s-3.53,1.06-5.29,1.65a.55.55,0,0,0,.15,1.08Z"/><path class="cls-2" d="M89.8,147.61a21.05,21.05,0,0,0,10.59-1.38c.66-.29.18-1.46-.5-1.18a20.53,20.53,0,0,1-4.92,1,23.38,23.38,0,0,1-5,.4c-.63-.05-.79,1-.15,1.12Z"/></g></g></svg>