<svg xmlns="http://www.w3.org/2000/svg" viewBox="0 0 178.85 212.48"><defs><style>.cls-1{fill:#e30613;}.cls-2{fill:#fff;}.cls-3{fill:#0c0000;}.cls-4{fill:#e20613;}.cls-5{fill:#f1d400;}</style></defs><title>4</title><g id="Слой_2" data-name="Слой 2"><g id="Layer_1" data-name="Layer 1"><path class="cls-1" d="M50.77,48.37c-2.25-2.47-7.92-2.58-10.67-1.3S32,52.25,32,62.17c0,5.58,2.48,11.39,6.37,13.63,3.7,2.14,9.06,2.05,11,2.14,2.46.11,4.59-8,5.05-11.12a36.36,36.36,0,0,0-2.07-18.38c-1.12-2.79-2.83-5.52-5.19-6"/><path class="cls-2" d="M51.29,47.85c-4.73-6.09-14.16-1.92-17.58,3.36-4.88,7.54-4,21.5,4.6,26.12,2.76,1.48,8.93,3.1,12,1.87s4.24-6.33,4.95-9.2a37.27,37.27,0,0,0,0-17.21C54.23,48.22,52.52,42.51,47.57,41c-1.6-.5-2.75,2.06-1.16,2.76,7.35,3.25,7.65,16.84,6.48,23.52-.37,2.14-1,6.52-2.62,8.13-2.31,2.34-7.49.82-10-.3C26.2,68.88,34.68,40,50.4,49c.77.44,1.37-.53.89-1.15Z"/><path class="cls-3" d="M137.95,195.17a78.85,78.85,0,0,1,3.47,13.93,2.64,2.64,0,0,0,.4,1.24,1.15,1.15,0,0,0,.94.33l6.28.14q1.65-8.46,2.94-17.06"/><path class="cls-2" d="M137.25,195.37c.35,2.54,1.09,5,1.59,7.55.45,2.27.47,5.09,1.25,7.26,1.17,3.25,6.33,2.08,8.95,2.14a1.52,1.52,0,0,0,1.45-1.11q1.65-8.5,2.94-17.06c.29-1.9-2.62-2.72-2.91-.8q-1.3,8.56-2.94,17.06l1.45-1.11c-1.34,0-4.43.5-5.66-.12-.75-.38-.6-.51-.75-1.67a28.73,28.73,0,0,0-.63-3,36.21,36.21,0,0,0-3.44-9.74c-.44-.77-1.43-.2-1.32.56Z"/><path class="cls-3" d="M38.69,192.27a86.09,86.09,0,0,1,3.12,13.93,2.85,2.85,0,0,0,.36,1.24,1,1,0,0,0,.85.33l5.66.14q1.49-8.46,2.65-17.06"/><path class="cls-2" d="M38,192.27c.25,2.41.87,4.77,1.3,7.16s.43,5.19,1.16,7.51c1.09,3.46,5.28,2.41,8.26,2.48a1.52,1.52,0,0,0,1.45-1.11q1.48-8.51,2.65-17.06c.26-1.9-2.65-2.72-2.91-.8Q48.7,199,47.22,207.51l1.45-1.11c-1.19,0-4,.44-5.09-.12q-1,.23-.33-.48l-.2-1.2a21,21,0,0,0-.57-3,36.8,36.8,0,0,0-3.17-9.74c-.33-.6-1.42-.36-1.35.36Z"/><path class="cls-3" d="M28.27,173.4c-16.19,0-26.79,1.93-26.79,10.93,0,7.64,8.26,11.08,46.91,11.08,21.11,0,39.87-.77,61-.77,6.66,0,18.91-.64,25.18,2.31,20.75,9.75,43.16,0,43.16-11.92,0-9.26-8.53-22.48-27.84-16.6-29,8.82-42.66,5.19-65.73,5.19Z"/><path class="cls-2" d="M28.27,172.34C19.49,171.69-1,171.45,0,185.09c.47,6.32,7,8.37,12.26,9.48,16.7,3.48,34.64,2.14,51.56,1.85,11.29-.19,22.57-.47,33.86-.58,9.24-.09,18.84-.73,28,.28,8.83,1,16.33,5.91,25.44,6.14,7.3.19,15.08-1.49,21.07-5.84,8.85-6.43,8.42-18,.8-25.35a20.63,20.63,0,0,0-15.78-5.41c-9.36.57-18.48,4.7-27.79,6.09-15.1,2.25-30.39.58-45.57.65-18.55.09-37.11.39-55.66.32a.68.68,0,0,0,0,1.37c15.59.06,31.18.42,46.76.62,21.63.29,43.27,2.78,64.59-2.11,8.16-1.87,16.73-6,25.17-3.39a16.81,16.81,0,0,1,11.12,12.15c4.13,17-22.13,19.71-33,17.13-3.94-.94-7.49-2.95-11.41-3.89a52.08,52.08,0,0,0-10.14-1.1c-8.18-.3-16.43,0-24.61.1-19.37.27-38.89,1.39-58.25.42-7.67-.39-15.37-.38-23-1.62-3.53-.57-7.94-1.21-10.69-3.74a6.47,6.47,0,0,1-.42-8.79c4.84-6,17.09-4.85,23.83-5.41A1.06,1.06,0,0,0,28.27,172.34Z"/><path class="cls-2" d="M53,55.37c-1.3-4.74-11.32-9.17-15.21-.9-2.46,5.22-2.9,11.64.57,16.23,6.6,8.73,15-3.91,15.31-9.35"/><path class="cls-4" d="M53.4,55.37c.09-4.55-6.4-7-10.11-6.49-6.8,1-9.18,9.91-8.49,15.74.65,5.48,5.27,12.41,11.54,9.53,4.51-2.07,8.2-7.89,8.49-12.79.09-1.52-2.15-1.45-2.33,0A15.79,15.79,0,0,1,47.06,71c-5.16,4.15-9.44-1.7-10-6.81-.48-4.74,1.21-12.83,7.1-13.23,3.61-.24,6.45,2.09,8.51,4.74.23.29.69,0,.69-.29Z"/><path class="cls-1" d="M51.28,56.59c-.52-2.29-2.25-11-2.61-13.33,2.62.31,5.26-.06,7.9-.05a27.76,27.76,0,0,1,6.28.74,1,1,0,0,1,.52.24c.28.29.19.78.07,1.18-.56,2-1.23,8.33-1.79,10.35"/><path class="cls-2" d="M52.09,56.59c-.24-4.52-1.61-9.15-2.32-13.63l-1.1,1.45c2.64.23,5.25-.05,7.9,0a14.16,14.16,0,0,1,4.41.4c1.28.47,1.15.55,1.12,1.73a39.86,39.86,0,0,1-1.58,8.9c-.41,1.48,2,2.12,2.29.63.46-2.07.66-4.21,1-6.3.23-1.52,1.16-3.81.91-5.31-.33-1.94-2.9-1.95-4.43-2.15-3.86-.51-7.71.14-11.58-.17-.81-.06-1.21.78-1.1,1.45.37,2.24,1,4.4,1.42,6.63a35.66,35.66,0,0,0,1.52,6.61c.31.77,1.64.78,1.59-.22Z"/><path class="cls-3" d="M44.85,142.9c-1.89,2.25-4.51,4-6.6,7.09,1.11,3.27,10.54,3.27,19.21,3.27,9.4,0,14.65-1.29,17.88-3.7-.78-2.19-2.53-3.69-4.1-6.4"/><path class="cls-2" d="M44.33,142.38c-1.79,1.5-7.33,5.2-6.73,8s6,3.24,8.15,3.48c9,1,22.21,2.12,30.09-3.43a1,1,0,0,0,.36-1.38c-1.08-2.29-2.72-4.27-4-6.46-.74-1.27-2.78,0-2,1.14,1.46,2.1,3.15,4,4.21,6.34l.36-1.38c-6.17,4.2-14.6,3.65-21.72,3.58-3.07,0-9.59.78-12.14-1.11-2.73-2,3.16-5.91,4.52-7.89.51-.74-.56-1.4-1.16-.9Z"/><path class="cls-1" d="M61.49,55c-.76,7.08.69,9.94,5.88,14.26S81,79.89,85.67,84.86c6.57,7,7.71,14.24,7.37,24.22-.59,17.37-14.72,30.91-16.79,32.21a19.09,19.09,0,0,1-9.7,3.09c-5.61.13-13.33-.13-18.94,0-2.81.07-10.88-3.39-13.09-5.48-8-7.53-12.54-17.8-12.54-30.28A38.09,38.09,0,0,1,36.39,79.32c4.82-3.77,9.73-6.83,12.24-12.67,2.1-4.89,4-5.92,3-11.2C55.72,56.59,57.2,56.32,61.49,55Z"/><path class="cls-2" d="M60.8,54.85c-.94,5.87.41,10.21,4.79,14.26,5.9,5.45,12.65,9.93,18.3,15.66,12.86,13,8.95,34.26-1.09,47.77-4.23,5.7-8.67,10.13-16.25,10.62-4.23.27-8.55,0-12.78-.07-3.85,0-7.24.14-10.89-1.21-16.81-6.22-23.12-28.38-17.72-44.36A38.32,38.32,0,0,1,33.9,83.16c3.13-3.22,7-5.54,10.28-8.59,5-4.66,9.57-12.41,8.52-19.42l-1.37,1.37a19.08,19.08,0,0,0,10.46-.36,1.17,1.17,0,0,0-.62-2.26,15.59,15.59,0,0,1-9.25.47,1.13,1.13,0,0,0-1.37,1.37c.7,5-2.71,11.4-5.94,15.15s-7.68,6.19-11.33,9.51a38.9,38.9,0,0,0-12.11,22.43c-2.29,14.28,3.46,33.35,17.37,40,7.21,3.43,14,2.82,21.87,2.84,6.88,0,13.55-.28,18.78-5.29A47.88,47.88,0,0,0,94,99.91C92.77,90.39,87.18,84,80,78c-3.9-3.26-8-6.24-12-9.48-4.71-3.89-6-7.5-5.89-13.53C62.21,54.26,60.93,54,60.8,54.85Z"/><path class="cls-3" d="M13.82,109.66c-1.55,24.06-.88,48.21-.22,72.31,0,.42.08.94.44,1.1a.94.94,0,0,0,.53,0l4.88-.84a1.58,1.58,0,0,0,.78-.29,1.87,1.87,0,0,0,.41-1.53c-.11-2.44-.59-4.84-.85-7.27a77.9,77.9,0,0,1-.31-7.94c-.06-16.45.2-33.17-.15-49.4-.07-3.24.54-6.28.2-9.6"/><path class="cls-2" d="M13.13,109.66c-2,16.11-1.88,32.64-1.58,48.85.07,3.91.19,7.82.32,11.73.13,3.69-.47,8.15.34,11.73s3.58,2.6,6.8,1.71c4.83-1.34,2.43-6.63,2-10.53-.72-7-.19-14.21-.12-21.27.08-7.62.05-15.25,0-22.87s.39-15.29,0-22.8c-.1-1.67-2.71-1.68-2.61,0,.33,5.65-.14,11.45-.13,17.12q0,9.5,0,19c0,6.36,0,12.71.09,19.07,0,2.85,0,5.72.15,8.57.09,2.13,1.7,7.81,1,9.53s1.05,1.35-1.86,1.68c-2,.23-2.16-.09-2.59-2.15-.63-3-.13-6.7-.18-9.78-.11-6.52-.24-13-.33-19.56-.18-13.36.12-26.69.15-40,0-.91-1.28-.86-1.38,0Z"/><path class="cls-3" d="M100.8,109.66c1.55,24.06.88,48.21.22,72.31,0,.42-.08.94-.44,1.1a.94.94,0,0,1-.53,0l-4.88-.84a1.58,1.58,0,0,1-.78-.29,1.87,1.87,0,0,1-.41-1.53c.11-2.44.59-4.84.85-7.27a77.85,77.85,0,0,0,.31-7.94c.06-16.45-.2-33.17.15-49.4.07-3.24-.54-6.28-.2-9.6"/><path class="cls-2" d="M100.11,109.66c0,13,.32,26,.16,39.07-.08,6.52-.22,13-.33,19.56-.05,3.22.18,6.58-.16,9.78-.26,2.42,0,3.44-2.63,3.13-1.81-.21-1.52-.15-1.86-1.68-.52-2.33.81-6.28.95-8.73.16-2.8.14-5.61.18-8.41q.14-9.54.1-19.07t0-19c0-6-.48-12.11-.13-18.07.1-1.68-2.51-1.67-2.61,0-.42,7.2,0,14.62,0,21.85-.08,7.94-.11,15.88,0,23.82.07,7.05.59,14.23-.12,21.27-.4,3.93-2.8,9.15,2,10.53,3.26.93,5.93,1.83,6.8-1.71s.22-8.15.34-11.73c.13-3.91.25-7.82.32-11.73.31-16.21.38-32.74-1.58-48.85-.1-.86-1.38-.92-1.38,0Z"/><path class="cls-3" d="M93.06,105.61a9.13,9.13,0,0,1,7.39-.64,2.57,2.57,0,0,1,1.27.82,2.81,2.81,0,0,1,.52,2,2.28,2.28,0,0,1-1.58,1.86c-2.3,1-4.78,1.77-7,.36"/><path class="cls-2" d="M93.25,106.3a24.48,24.48,0,0,1,3.79-.71c1.1,0,3.65,0,4.11,1.36.53,1.53-1.5,2-2.51,2.35a6.05,6.05,0,0,1-4.48-.14,1,1,0,0,0-1,1.69c2.22,1.51,4.84.95,7.19,0,1.66-.66,3-1.68,2.93-3.65-.21-5-8-4.49-10.75-2.12-.58.51.05,1.33.7,1.2Z"/><path class="cls-1" d="M48.84,174.44a5.65,5.65,0,0,0-1.91-4.82A7,7,0,0,0,42.21,168a5.86,5.86,0,0,0-1.77.27,6.37,6.37,0,0,0-2,1.17,8.07,8.07,0,0,0-3.12,6.78,9.45,9.45,0,0,0,1.16,3.41,6.59,6.59,0,0,0,3,3.19,5.39,5.39,0,0,0,4.09-.28,12.59,12.59,0,0,0,6.18-5.68,5.28,5.28,0,0,0,.65-4.26"/><path class="cls-2" d="M49.37,174.59c1.59-4.66-4-8-8.05-7.4s-7.4,5.26-7,9.33c.5,5,4.65,9.08,9.64,7,3.92-1.6,9.05-6.59,7.5-11.24a1.13,1.13,0,0,0-2.18.6c.49,3.24-2.16,6.4-4.8,7.94-1.68,1-3.81,1.84-5.68.24a8.74,8.74,0,0,1-2.28-4.25,7,7,0,0,1,3.66-7.48,6,6,0,0,1,5.6.52c1.72,1.17,2,2.88,2.52,4.7a.55.55,0,0,0,1.06,0Z"/><path class="cls-3" d="M21.57,105.72a8.41,8.41,0,0,0-7.39-.7,2.56,2.56,0,0,0-1.27.9,3.31,3.31,0,0,0-.52,2.19,2.44,2.44,0,0,0,1.58,2c2.3,1.05,4.78,1.94,7,.4"/><path class="cls-2" d="M22.07,105.21c-2.83-2.65-10.55-2.89-10.75,2.28-.09,2.23,1.4,3.29,3.26,4.05,2.25.93,4.76,1.39,6.85-.15a1,1,0,0,0-1-1.69,5.32,5.32,0,0,1-4.18.26c-1-.32-3.69-1.05-2.8-2.79,1.41-2.77,5.7-1.29,7.91-.76a.72.72,0,0,0,.7-1.2Z"/><path class="cls-2" d="M44.66,176.32c.29-1.12,0-3.07-1.91-3.28a2.54,2.54,0,0,0-2.41,1.83c.08,2.91,2.62,3.15,3.5,2.67a2.2,2.2,0,0,0,.65-.51"/><path class="cls-4" d="M45.22,176.47A2.89,2.89,0,0,0,44,172.31a3.46,3.46,0,0,0-4.78,2,3.86,3.86,0,0,0,2,4.21,3.27,3.27,0,0,0,4.23-.9,1.15,1.15,0,0,0-.3-1.5,1.19,1.19,0,0,0-1.53.09c-.07.06-.71.39-.43.27a1.27,1.27,0,0,1-.34.09c.19,0-.16,0-.21,0s-.31-.08-.39-.12a1.66,1.66,0,0,1-.81-1.58c0,.36,0,.06.1-.06a3.42,3.42,0,0,1,.54-.47.91.91,0,0,1,1.08,0c.51.38.69,1.44.87,2a.62.62,0,0,0,1.12.15Z"/><path class="cls-2" d="M47.66,43.26c.14,3.94,5,4.68,8.15,5s8.11-.76,9.47-4.13c2.07-5.17-5.51-5.67-8.69-5.92-3-.23-9.73,1-8.89,5.37a1,1,0,0,0,2,0c.31-1.29,2.9-.65,3.7-.61,1.22.05,2.48-.21,3.71-.26a14,14,0,0,1,4.18.47c.75.19-.09-.2-.39-.11-.46.14-1,.55-1.46.72a9.41,9.41,0,0,1-4.35.43c-1.05-.12-4.89-.45-5.49-1.42A1,1,0,0,0,47.66,43.26Z"/><path class="cls-1" d="M84.4,183.14c0-1.08-11.18-5.68-13.1-7.76-1.57-1.69-4.75-6.48-5.22-6.53A93.72,93.72,0,0,0,50.43,168a2.2,2.2,0,0,0-1.08.23,2.43,2.43,0,0,0-.83,1.14c-1.07,2.37-1.8,5-3.38,7s-7.1,6.5-5.68,7.47C50.27,191.18,72.69,190.43,84.4,183.14Z"/><path class="cls-2" d="M85.13,182.93c-.83-2.51-5.33-3.93-7.39-5.1a27,27,0,0,1-5.47-3.44c-1.78-1.69-2.68-4.29-4.5-5.93-1.58-1.42-3.05-1.26-5.29-1.48-3.79-.38-8.3-1.19-12.05-.47-2.1.4-2.44.86-3.48,2.82-1.69,3.16-2.68,5.79-5.23,8.38-1.75,1.78-5.32,4.49-3.35,7.2,2.54,3.5,10.71,4.59,14.55,5.09,9.37,1.23,25.06,1.24,31.88-6.48a.56.56,0,0,0-.54-.93c-4.11.93-7.88,2.69-12,3.61a54.48,54.48,0,0,1-14.83,1.18,38.29,38.29,0,0,1-14.21-3.27c-2.5-1.19-2.43-.91-.52-3,1.15-1.26,2.49-2.37,3.54-3.71s1.55-3.24,2.53-4.76c2.19-3.4,4.83-3.35,8.68-3.15,2.31.12,6.33-.28,8.29,1,1.18.78,2.08,2.77,3,3.9a16.87,16.87,0,0,0,6.36,4.84c1.93,1,7.58,2.37,8.68,4.26C84.17,184.25,85.41,183.77,85.13,182.93Z"/><path class="cls-3" d="M47.66,168.27c0,2.91,4.48,4.64,8.85,4.76,5.41.15,10.76-1.48,10.76-3.67s-4.86-3.32-10-3.32c-4.71,0-9.68,1.56-9.63,2.24"/><path class="cls-2" d="M47.12,168.27c.07,4.26,5.38,5.47,8.8,5.76,3,.26,11.51.14,12.35-4.11.76-3.86-5.84-4.67-8.24-4.89-2.57-.24-12.54-.65-13.34,3a1,1,0,0,0,1.68,1c2.56-2.34,15.43-3.28,16.4.21.54,2-1.13,1.87-2.78,2.25a23.48,23.48,0,0,1-4.8.53c-2.89,0-8.07-.37-9-3.84a.54.54,0,0,0-1.07.14Z"/><path class="cls-5" d="M114.57,98c-.36,13-.16,30.93,1.54,43.76.58,4.35,1.39,8.67,2,13,1,7.17,1.29,14.42,1.75,21.64.16,2.59.55,5.56,2.58,6.93a7.22,7.22,0,0,0,3,.94c11.41,1.76,23.14,3.51,34.37.67,1.56-.4,4.08.13,4.08-5,0-6.73,2.75-15,3.9-21.63,5.39-31.2,3.77-59.89,2.7-59.9l-51.57-.66Z"/><path class="cls-2" d="M114,97.89c-1.81,9.48-1,19.88-.62,29.48.45,10.92,2.59,21.5,3.62,32.36.57,6,.42,12.09,1.13,18.06.4,3.4,1.38,6.54,4.84,7.79,4,1.45,9.12,1.56,13.35,2a77.13,77.13,0,0,0,18.14.08c2.55-.34,6.17-.52,8.49-1.86,2.63-1.52,2.38-4.66,2.55-7.29.68-10.61,4.33-21.1,5.65-31.7a267.4,267.4,0,0,0,2.08-32.14c0-4.7.86-11.39-.84-15.92-.78-2.09-1.62-1.92-3.89-2-7.27-.25-14.55-.41-21.82-.56s-14.55-.25-21.82-.35a25.85,25.85,0,0,0-6.64.34c-1.14.28-2.48,1.21-3.64,1.28-.76,0-.76,1.24,0,1.19,1.94-.12,4.35,1,6.31,1.19,5.22.44,10.62.13,15.87.19q7.44.08,14.88.09h6.94c2.65,0,6.39.71,8.93,0,1.66-.48,1.07-1,1.76-.1a5.74,5.74,0,0,1,.24,2c.26,2.59.32,5.2.38,7.8.16,7.53-.1,15.08-.63,22.59a208.62,208.62,0,0,1-3.92,30c-.87,4-1.89,7.89-2.49,11.9-.21,1.41-.28,2.83-.47,4.24-.16,1.18-.21,3.77-1.22,4.64-.31.27-1.09.12-1.48.27-9.11,3.56-21.76,1.07-31-.38-2.8-.44-5.84-1.52-6.72-4.42-.74-2.43-.5-5.55-.68-8.07-.38-5.25-.79-10.51-1.49-15.73-1.34-10-3-19.82-3.53-29.91-.49-8.95.16-18.16-1.05-27C115.06,97.31,114.1,97.34,114,97.89Z"/><path class="cls-3" d="M169.69,100.52c0-6-18.09-7.69-26.87-7.69-12.79,0-28.25,1.46-28.25,5.21C114.57,109.63,169.69,107.1,169.69,100.52Z"/><path class="cls-2" d="M170.28,100.52c.87-8.55-19.34-8.89-24.47-9.11a113.06,113.06,0,0,0-22.32,1.17c-2.95.46-9.34,1.08-10.24,4.82-1.42,5.93,8.67,8.15,12.42,8.86a100.55,100.55,0,0,0,29.13.69c2.75-.29,17.29-1,15.44-6.58a.6.6,0,0,0-1.09-.14c-.67,1.17-5,2.06-6.26,2.38a68.12,68.12,0,0,1-11.7,1.66c-9,.66-18.64.79-27.46-1.35-1.6-.39-7.48-1.63-7.64-4.05-.26-3.94,15.32-4.13,17.71-4.26a122,122,0,0,1,19,.24c4.13.42,14.67.93,16.25,5.85A.6.6,0,0,0,170.28,100.52Z"/><path class="cls-3" d="M142.32,39.51c-.6-3.17-5.33-14.88-11.94-21.66C121,8.23,114,4.93,103.82,2.87,91.66.41,78.23,2.77,69,11.75c-7.69,7.51-12.76,22.37-15.36,30.4,2,.8,4.07.16,6.83-.11,1.14-2.68,6.56-13.19,9.17-18.14,3.59-6.8,11.87-15.71,28-14.91,17.09.85,30.29,14.34,34.62,23S138.11,51.6,138,61.48c-.09,12.93-3.51,30.32-2.45,43.19h5.52c.48-9.66,1.61-25.44,2.09-35.1C143.7,59.54,144.2,49.36,142.32,39.51Z"/><path class="cls-2" d="M144.21,39C139.39,17.45,118.78,1.22,97.16.06,85.65-.55,73.59,3.31,65.92,12.22c-7.1,8.24-10.82,19.22-14.14,29.41A2,2,0,0,0,53.15,44c2.15.57,6.43,1,8.34-.3,1.49-1,2.23-3.94,3-5.5,2.59-5.19,5-10.72,8.19-15.59,8.95-13.72,27.59-14.38,40.85-6.85,14.67,8.33,21.23,22.54,22.34,39,1.13,16.7-3.4,33.21-2.25,49.9a2,2,0,0,0,2,2h5.52a2,2,0,0,0,2-2c1.1-21.54,4.89-44.29,1.13-65.69-.44-2.48-4.22-1.43-3.79,1,2.06,11.74,1.18,23.73.48,35.55-.57,9.7-1.26,19.39-1.76,29.09l2-2h-5.52l2,2c-1.77-25.87,10.31-56.3-7.13-79.22-12.9-17-40.7-26.79-57.48-9.4C69.43,19.7,67.29,24.17,65,28.62c-1.49,2.88-3,5.76-4.4,8.67-.35.7-.94,2.8-1.56,3.24-.34.24-4.34-.14-4.84-.28l1.37,2.42c2.93-9,6.14-18.32,11.8-26C74.25,7.34,85.87,3.39,97.16,4,117.08,5.06,136,20.26,140.43,40,141,42.5,144.77,41.45,144.21,39Z"/><path class="cls-2" d="M53.14,79.81C59.57,78.7,69,81.68,72.86,87.26a1,1,0,0,0,1.74-1c-3.75-6.56-14.87-9.05-21.73-7.43-.66.16-.37,1.11.28,1Z"/><path class="cls-2" d="M32.42,120.05c2.19,5.86,6.94,13.44,13.2,15.56,1.36.46,1.86-1.39.9-2.13-2.53-1.95-5.36-3.33-7.63-5.65a27.16,27.16,0,0,1-5.25-8.3c-.3-.68-1.48-.19-1.21.51Z"/></g></g></svg>