<svg xmlns="http://www.w3.org/2000/svg" viewBox="0 0 203 228.77"><defs><style>.cls-1,.cls-5{fill:#0c0000;}.cls-2{fill:#fff;}.cls-3{fill:#e30613;}.cls-4{fill:#f1d400;}.cls-5{stroke:#fff;stroke-miterlimit:10;stroke-width:3.24px;}</style></defs><title>5</title><g id="Слой_2" data-name="Слой 2"><g id="Layer_1" data-name="Layer 1"><path class="cls-1" d="M34.87,129.55,7.69,126.76a5.34,5.34,0,0,0-5.85,5.68v.18a5.33,5.33,0,0,0,6.14,5l26.87-4.31Z"/><path class="cls-2" d="M35.07,128.82c-6.62-1.66-13.74-2-20.49-2.94-5.64-.78-15-2.32-14.56,6.64.41,8.52,9.24,6.9,14.86,5.79,6.78-1.33,13.51-2.72,20.33-3.85a1.26,1.26,0,0,0,.92-1.21q0-1.86,0-3.72a1.24,1.24,0,0,0-2.48,0,12.78,12.78,0,0,0,0,1.86c.28,1.74-.84,1.22.86.66a5.1,5.1,0,0,1-1.51.24c-2.69-.11-5.81.95-8.49,1.31-3.52.47-7.07.72-10.59,1.18-1.93.25-4.34,1.1-6.29,1-4.32-.29-6.12-6.28.26-7.19a11.52,11.52,0,0,1,2.22.2c3.06.22,6.14.41,9.21.52,5.2.19,10.36,1.23,15.57,1A.75.75,0,0,0,35.07,128.82Z"/><path class="cls-1" d="M166,129.55c9-.88,19-3.33,28.41-4.8A5.74,5.74,0,0,1,201,130.2v.15a5.76,5.76,0,0,1-6.25,6.06c-10.22-.94-24.2-2-29.2-2.59Z"/><path class="cls-2" d="M166,130.43c6-.38,12.13-1.21,18.1-2.18,3-.48,6-1.18,9-1.44,2.55-.22,5.5.43,5.9,3.52.38,2.88-2.86,4.07-5,4.13-5.18.16-10.67-.9-15.85-1.25-4.22-.29-8.44-.52-12.64-1l1.54,1.54a13,13,0,0,0-.47-4.42.65.65,0,0,0-1.17-.15,14.08,14.08,0,0,0-1.44,4.58c-.11.9.8,1.44,1.54,1.54,7.24.92,14.52,1.59,21.79,2.24,5.67.5,13.91,2.18,15.45-5.43a7.81,7.81,0,0,0-7.76-9.33c-4.4,0-9.32,1.67-13.6,2.67-5.24,1.23-10.34,2.39-15.67,3.21C164.83,128.85,165.06,130.5,166,130.43Z"/><path class="cls-1" d="M64.52,72.78a4.06,4.06,0,0,0-4.23-3.72,6.21,6.21,0,0,0-4.93,3.43,7.3,7.3,0,0,0-.25,6.71,5.4,5.4,0,0,0,5.77,2.88,8,8,0,0,0,2.78-1.44A6.69,6.69,0,0,0,66.57,77a7.52,7.52,0,0,0-.17-3.11c-.42-2.14-.94-4.43-2.53-5.9"/><path class="cls-2" d="M65.73,72.78c.16-4.64-5.23-6.25-8.69-4.07-3.92,2.47-5.5,8.39-2.59,12.21,3.15,4.15,8.2,3,11.57-.16,3.69-3.51,2.4-10.53-1.1-13.8a1.49,1.49,0,0,0-2.1,2.1A11.58,11.58,0,0,1,65.08,76c-.22,2.71-4,5.33-6.58,4.34-3-1.16-3.22-5-1.72-7.46,1.65-2.7,5.64-3.36,6.57.23a1.22,1.22,0,0,0,2.39-.32Z"/><path class="cls-1" d="M133.15,69.41c2.73-2.24,6.82-3.32,9.77-1.38s3.54,6.29,1.72,9.23a8.78,8.78,0,0,1-9,3.66,6.65,6.65,0,0,1-4.28-2.51,7.41,7.41,0,0,1-1-2.38,14.71,14.71,0,0,1,1.86-11.59"/><path class="cls-2" d="M133.56,70.11c3-1.47,7.61-3.42,9.87.48,2,3.37-.09,7.29-3.57,8.47-3.78,1.27-7.45-.39-8.16-4.43-.6-3.37.35-6.42,1.79-9.43a1.48,1.48,0,0,0-2.55-1.49c-3,4.06-3.91,11.16-1,15.53s9.86,4.32,13.74,1.31c3.69-2.86,4.67-8.53,1.56-12.22-3.27-3.88-9.51-3-12.69.52a.81.81,0,0,0,1,1.26Z"/><path class="cls-1" d="M37.76,152a6.55,6.55,0,0,1,5.69-5.61c2.73-.47,7.32,1.11,5.65,4.73-.78,1.68,1.59,3.14,2.52,1.47,2.68-4.82-2-9.22-6.81-9.11s-9.42,3.78-8.68,8.74c.15,1,1.56.64,1.64-.22Z"/><path class="cls-1" d="M43.52,138.67a16.44,16.44,0,0,0-.5,3.08c-.1,1-.43,2.15,0,3.06,1,2.1,4.19.33,2.84-1.5a1.43,1.43,0,0,0-1.92-.5l-.08,0a1.39,1.39,0,0,0,1.07,2.53l.09,0-1.72-1v-.5l1-1-.12,0,1.44.38c.16.15,0-.64,0-.74,0-.4,0-.81-.06-1.21,0-.81,0-1.62-.11-2.42a1,1,0,0,0-1.94-.26Z"/><path class="cls-3" d="M30.71,121.82c1.33,1.7,2,11.69,2.71,14.85,5.67,1.55,20.44.69,21-.61.29-.68,2.21-16,1.72-17.11a65.5,65.5,0,0,0-16.86,2"/><path class="cls-2" d="M29.78,122.08c1.69,4.62,1.17,10.18,2.09,15A1.59,1.59,0,0,0,33,138.23c4.71,1.13,9.76,1.05,14.56.74,2.19-.14,6.64.09,8.16-1.92s1.13-6.13,1.4-8.37c.37-3.15,1.36-7,.63-10.17a1.67,1.67,0,0,0-1.59-1.21,58.23,58.23,0,0,0-17.24,2.3,1.41,1.41,0,0,0,.75,2.72,100.27,100.27,0,0,1,16.49-1.72l-1.59-1.21c.76,3.26-.57,8-1,11.26-.12,1,0,4-.7,4.82.79-.94-2-.08-2.27,0-1.2.17-2.43.24-3.64.31a67.72,67.72,0,0,1-8.25,0c-3.91-.25-3.79.48-4.29-3.06s-.6-8.72-3.06-11.58a1,1,0,0,0-1.62.94Z"/><path class="cls-1" d="M151.73,141c0,2.45.05,4.9,0,7.35,0,1.54-.26,3.37,1,4.47s3.45-.76,2.06-2.06c-1-.9-.72-3.59-.83-4.86-.15-1.63-.24-3.27-.39-4.9a1,1,0,0,0-1.91,0Z"/><path class="cls-3" d="M140.84,124.3a44.22,44.22,0,0,0,1.58,13,1.85,1.85,0,0,0,2,1.69,91,91,0,0,0,16.61.69,2.41,2.41,0,0,0,1-.19c.79-.4.92-1.47,1-2.36A47,47,0,0,1,166,122.73a73.44,73.44,0,0,0-25.33,3.47"/><path class="cls-2" d="M139.93,124.3c-.37,3.88-1.14,11.86,1.74,15.07,2.34,2.61,8.73,1.94,11.92,2,3,.09,8.14,1.2,10.16-1.56,1.17-1.6.91-4.27,1.16-6.15a49.45,49.45,0,0,1,2.7-10.54,1.63,1.63,0,0,0-1.56-2.05,79.53,79.53,0,0,0-25.76,3.53c-2,.61-1.14,3.74.86,3.12a76.88,76.88,0,0,1,24.9-3.41l-1.56-2.05a51.44,51.44,0,0,0-2.63,9.83,19.13,19.13,0,0,1-.41,3.19c-1.27,3.53-3.25,2.92-6,2.89-2.53,0-6.89.47-9.23-.57-4.26-1.89-4.15-9.57-4.46-13.35a.91.91,0,0,0-1.82,0Z"/><path class="cls-3" d="M59.91,172.65c-5.13,1.77-18.69,8.69-20.09,11.53C38.63,186.6,38,198,38.34,208.35c.25,8.49,32.74,18.22,59.09,18.22,22.67,0,62.62-12.75,62.62-21.06a81.16,81.16,0,0,0-3.2-22.71c-1.32-4.63-5.32-8.11-9.75-9.91s-9.28-2.18-14.05-2.4a264.43,264.43,0,0,0-35.74.76"/><path class="cls-2" d="M59.65,171.72a49.46,49.46,0,0,0-10.34,4c-3.24,1.62-7.65,3.56-10.08,6.41-1.7,2-1.86,4.56-2.14,7.09a130.12,130.12,0,0,0-.63,17.4c.16,6.73,5.88,9.84,11.51,12.39,9.34,4.23,19.61,6.73,29.71,8.34,20.29,3.25,40.14.67,59.59-5.64,7.17-2.33,15.24-5,21.16-9.8s3.91-11.88,2.87-18.74c-1.59-10.44-4.38-19.14-15.38-22.72-7.16-2.33-15.37-2-22.8-2.07a253.48,253.48,0,0,0-25.8,1.16c-2.14.21-2.19,3.56,0,3.39a281.64,281.64,0,0,1,35.74-.6c6,.32,12.83.76,17.61,4.88,3.44,3,4.49,7,5.41,11.27a71.7,71.7,0,0,1,1.59,13.35c.09,3.37.13,4.43-2.51,6.43-5,3.81-11.45,6.1-17.36,8.11-15.51,5.28-31.85,8.5-48.26,7.5a142.45,142.45,0,0,1-28.83-4.64c-6.09-1.67-14.81-3.73-19.22-8.67-2.67-3-1.45-8.83-1.36-12.54.08-3.5-.6-9.72,1.18-12.91,1.6-2.86,6.38-4.79,9.1-6.3,3.3-1.84,6.61-3.67,10-5.34,1-.5.29-2-.74-1.76Z"/><path class="cls-3" d="M66.58,157.36c-5,1.9-6.42,4-6.45,9.4s.08,13.74,0,19.1c8.74,6.59,26.39,7.16,37.3,7.34,7.95.13,29.18-2.18,36.34-6.29.7-.4,2.31-1.53,2.23-2.47-.63-7.69-.39-18-1-25.74a5.93,5.93,0,0,0-.61-2.59c-.86-1.44-2.7-1.85-4.34-2.1-23.4-3.63-42.2-4.68-64.9,2.11"/><path class="cls-2" d="M66.32,156.39c-5.91,2.1-7.55,5.55-7.68,11.65-.09,4.06,0,8.12-.06,12.18,0,2.7-.85,5.47,1.2,7.37,4.82,4.46,13.45,5.56,19.62,6.34A135.2,135.2,0,0,0,99.9,195a136.7,136.7,0,0,0,19.73-2.11c5.15-.9,11.93-1.75,16.17-5.14,2.48-2,2-4.15,1.83-7.1-.22-4.7-.25-9.42-.36-14.12-.08-3.33.49-7.86-1-10.94s-4.68-3.35-7.59-3.83c-20.88-3.41-43.81-4.94-64.06,2.5a1.93,1.93,0,0,0,1,3.73c15.29-3.34,29.68-5.45,45.38-4.21,3.56.28,7.11.67,10.66,1.11,4.48.55,10.38,0,11.47,5.28,1.33,6.48.42,13.88.76,20.48.18,3.63-1.07,4.92-4.27,6.06a56.36,56.36,0,0,1-7.19,1.92A135.06,135.06,0,0,1,105.16,191a112,112,0,0,1-31.61-1.73c-3.37-.72-7.13-1.55-10.12-3.34-2.72-1.63-1.69-5.1-1.71-8.08,0-3.49-.11-7-.11-10.49,0-4.68,1.22-7.12,5.48-9.18a1,1,0,0,0-.77-1.84Z"/><path class="cls-4" d="M61.6,107.65c-13.49.16-22.27.16-35.73,1-.34,0-.45,7.76.12,7.74,11.51-.53,25.3-.59,36.82-.19,1.55.05.61-2,.8-3.41"/><path class="cls-2" d="M61.6,106.8c-10.58-1.07-21.39-.51-32,0-2.67.13-4.7-.51-5.45,2.17-.48,1.72-.61,5.57.06,7.23,1,2.36,2.73,1.69,5.13,1.6,5.62-.21,11.24-.28,16.87-.24q4.47,0,8.93.17c2.42.07,5.29.79,7.67.38,3.1-.53,2.89-2.72,2.66-5.38a1.87,1.87,0,0,0-3.73,0c-.15,2.58-5.39,1.43-7.48,1.43q-5.38,0-10.76.07t-10.71.24c-1,0-4.19.72-5.14.18q-.58,1.1-.42-.31,0-.69,0-1.38c-.05-3.51-.2-2.85,3.29-3s6.7-.32,10-.42c7-.22,14.06-.15,21.06-1a.85.85,0,0,0,0-1.7Z"/><path class="cls-4" d="M43.45,157.3c-9.34,0-16.81,3.21-17.11,5.68-.58,4.73,3.81,7.53,16.3,9.09,4.23.53,17.28-3.2,17.28-7.36C59.93,159.17,54,157.3,43.45,157.3Z"/><path class="cls-2" d="M43.74,156.25c-5.28-.95-20.6.43-19.08,8.87,1.32,7.31,13.62,9.18,19.41,9.18,5.53,0,17.91-2.49,18.4-9.59.63-9-13.51-10.74-19.36-8a.68.68,0,0,0,0,1.17c2.7,1.34,15.48,1.64,14.28,6.74-.77,3.25-10.57,5.12-13.32,5.29-3.7.22-12.59-.71-15.23-4.14-4.31-5.6,12.46-6.87,14.89-7.42A1.1,1.1,0,0,0,43.74,156.25Z"/><path class="cls-4" d="M132.12,108.88c-.22-.29,26.4-1.37,40.13-.46,0,1.57.25,6.26,0,6.28-7.44.69-13.44.83-20.94.92A92.9,92.9,0,0,1,136.4,115a5.27,5.27,0,0,1-2-.63,2.45,2.45,0,0,1-1-2,9.17,9.17,0,0,1,.74-4.28"/><path class="cls-2" d="M132.63,109.75c-.68.34.64.11,1.06.13,1.15.05,2.35,0,3.5-.06,3.46-.07,6.92-.18,10.38-.24,8.21-.15,16.46-.27,24.66.29l-1.45-1.45c0,1.61.57,4.36,0,5.89l1.44-1.1c-6.36.54-12.72.77-19.1.84-2.82,0-5.65.07-8.47,0-4.1-.12-10.55.65-9.18-5.65.32-1.47-1.85-2.6-2.57-1.08-1,2.12-1.84,5.06-.41,7.2,1.7,2.57,6,2.35,8.76,2.52a204.21,204.21,0,0,0,31-.84,1.58,1.58,0,0,0,1.44-1.1c.72-1.9.09-4.68,0-6.68a1.49,1.49,0,0,0-1.45-1.45c-9-.48-18.1-.4-27.14-.1-3.41.11-6.83.21-10.22.55-1,.1-2.7,0-3.49.75s.23,2.1,1.23,1.6Z"/><path class="cls-1" d="M62.44,49c0,11.45-.6,65.6-1.06,76.45-.53,12.28-.86,21.41-.86,33.7,0,8.35,26.62,10.25,37.6,10.25,11.74,0,36.35-2.34,36.77-7.91.44-5.85,1.06-40,1.91-67.67.19-6.25-.26-33.77-.26-45.05C118.11,34.31,80.43,37.88,62.44,49Z"/><path class="cls-2" d="M61.49,49c-.88,22.92-1.08,45.84-1.59,68.77-.12,5.61-.38,11.22-.59,16.83-.17,4.55-.31,9.1-.39,13.65-.07,3.72-1,8.91.14,12.5,1.33,4,6.09,5.74,9.76,6.87a91.26,91.26,0,0,0,19.36,3.22c12.81,1,26.27.64,38.78-2.54,3.34-.85,8.51-2.1,9.74-5.86s.42-9,.53-12.81c.86-30.6,1.53-61.13,1.26-91.74,0-2.58.82-7-.09-9.37s-4.64-4-6.89-5.13A62,62,0,0,0,108.9,37.7C93,36.5,75.42,39.31,61.64,47.64c-1.75,1.06-.16,3.81,1.61,2.75,11.64-7,26.1-9.46,39.51-9.37a67.3,67.3,0,0,1,21.67,3.4,40.24,40.24,0,0,1,8.29,4c2.6,1.64,1.91,2.91,1.94,6.08.19,27.4-.21,54.68-.89,82.08-.16,6.22-.27,12.44-.52,18.65-.17,4.35.53,6.57-4,8.24-10.72,4-23.82,4.22-35.15,4a117,117,0,0,1-18.44-1.7c-4.07-.74-12.21-1.85-13.45-6.6-1-3.67,0-8.81.13-12.61.1-4.57.25-9.13.43-13.69.19-4.89.41-9.78.52-14.67.53-23,1-46.15.11-69.17A1,1,0,0,0,61.49,49Z"/><path class="cls-4" d="M63.7,48.6c-1.58-6.38,5.82-16.23,14.56-21.34S98,19.78,107.69,22.6a55.65,55.65,0,0,1,15.73,7.11c5.67,3.87,9,8.92,10.88,15.57.22.79.55,3.53-.1,3.77C110.12,58.08,65.35,55.24,63.7,48.6Z"/><path class="cls-2" d="M64.64,48.6c-.63-7.83,7.09-15.34,13.1-19.21a39,39,0,0,1,23.69-6.27c8.66.7,19,5,25.09,11.42a24.62,24.62,0,0,1,5.67,9.81c.28.93.89,2.86.48,3.38s-3.07,1-3.9,1.23c-12.31,3.5-25.48,4.34-38.23,4a97,97,0,0,1-16.47-1.79c-1.74-.35-7.77-1.18-8.49-3-.88-2.28-4.48-1.41-3.74,1,1.91,6.31,14.24,6.38,19.24,6.78a156.28,156.28,0,0,0,39.49-1.46c2.88-.51,5.75-1.12,8.57-1.9,2-.56,5.45-1,6.74-2.8,2.51-3.56-2.13-11.33-4.08-14.17C123.64,23.8,105.9,18,92.19,20.41A41.86,41.86,0,0,0,69.91,31.85c-4.31,4.35-8.85,10.55-7.1,17C63.07,49.83,64.72,49.67,64.64,48.6Z"/><path class="cls-1" d="M92.65,1.76C95.85,4,97,8.24,97,12.16s-.92,7.8-.73,11.71a.85.85,0,0,0,1,1,49.44,49.44,0,0,0,7.3.39,1.15,1.15,0,0,0,.82-.24,1.18,1.18,0,0,0,.2-.92c-.25-4-1-7.94-.89-11.93S106,4,109.12,1.45A75.29,75.29,0,0,1,93,2.15"/><path class="cls-2" d="M92,2.45c3.15,3.14,3.87,7.11,3.63,11.38-.17,3.09-1.61,7.25-.72,10.22,1.08,3.57,8,3.13,10.84,2.32a1.44,1.44,0,0,0,1-1c.77-3.39-.43-7.22-.56-10.67-.17-4.58.54-8.93,4-12.2,1.2-1.12-.11-2.67-1.44-2.48A78.35,78.35,0,0,1,93,.64c-1.92-.12-1.93,2.92,0,3a90.52,90.52,0,0,0,16.52-.77L108.07.4a15.71,15.71,0,0,0-4.77,10,32.63,32.63,0,0,0,.08,6.84c.28,3,1.59,7.87-3.44,6.43-3.38-1-2.13-4.43-1.88-7.34a30.21,30.21,0,0,0,0-7C97.55,5.81,96.14,2.9,93.14.92c-.94-.62-2,.76-1.19,1.54Z"/><path class="cls-1" d="M29.64,121.15c0,2.87,7.81,4,14.12,4,4,0,13.51-1.78,13.51-4.41s-9.35-3-12.44-3C44.83,117.76,29.64,118.28,29.64,121.15Z"/><path class="cls-2" d="M28.91,121.15c.31,6.34,14,5.84,18,5.36,2.47-.29,15.74-2.53,11-7.78-3.17-3.51-11.21-2.62-15.46-2.15-2.93.32-12.79.47-13.48,4.38-.15.86,1.1,1.24,1.33.37.65-2.43,9.43-2.08,11.4-2.13a53.61,53.61,0,0,1,7.72.37,30,30,0,0,1,3.93.55c1.27.32,2.29,0,1.39,1.23-1.07,1.48-6.43,1.88-8,2.07-3.33.41-14.92,1.28-16.37-2.46C30.07,120.25,28.87,120.27,28.91,121.15Z"/><ellipse class="cls-5" cx="152.94" cy="124.36" rx="12.66" ry="5.19"/><path class="cls-4" d="M153.64,122c-3.44.43-2.9-5.81-2.9-10,0-.6-.32-8,2.8-8C156.84,104.07,156.34,122,153.64,122Z"/><path class="cls-2" d="M153.64,121c-2.68-.14-1.68-8-1.63-9.86a14.81,14.81,0,0,1,.46-4c.54-1.72.71-2.25,1.29-.54.83,2.46.63,5.54.46,8.1,0,.69-.09,6.34-.76,6.61a.66.66,0,0,0,.17,1.29c3.41.17,3.67-6.52,3.73-8.58.07-2.78.46-9.69-2.8-11.15-4.49-2-5.12,5.74-5.12,8.25,0,3.23-1.07,12.06,4.19,11.8A1,1,0,0,0,153.64,121Z"/><path class="cls-4" d="M44.15,121.14c-3.44.43-2.9-3.66-2.9-7.8,0-3.47-.32-8,2.8-8S46.63,121.14,44.15,121.14Z"/><path class="cls-2" d="M44.15,120.17c-2.78-.08-1.71-8.08-1.58-9.93.05-.74.38-3.83,1.34-3.28.45.26.56,2.06.62,2.5a26.9,26.9,0,0,1,0,6.48c-.09.72,0,4.34-.66,4.64s-.24,1.18.33,1.22c2.85.23,3.44-4.95,3.54-6.74.16-2.84.51-8.33-2-10.44-3.69-3.13-5.71,3.05-5.77,5.62-.09,3.4-1.34,12.35,4.2,11.87A1,1,0,0,0,44.15,120.17Z"/><path class="cls-4" d="M170.16,164.69c0,4.73-9.32,5.6-16.53,5.71-9.06.15-18.8-1.81-18.8-7.11,0-3.92,9.66-6.65,18.45-6.65C166.18,156.65,170.16,161.52,170.16,164.69Z"/><path class="cls-2" d="M169.47,164.29c-2.18,5.09-11.24,4.52-15.83,4.47a38.71,38.71,0,0,1-10.27-1.31,11.45,11.45,0,0,1-4.2-1.71c-2-1.71-2.08-2.42-.13-3.94,4.79-3.74,14.35-3,20-2.34,3.5.4,9.34,1.28,10.49,5.42.17.62,1.25.72,1.36,0,1-6.34-6.92-9.52-11.92-10.29a42.11,42.11,0,0,0-17.42,1.23c-3.19.9-7.84,2.5-8.85,6.13-2.67,9.65,13.95,10.21,19.38,10.14,4.52-.06,20.12.26,18.91-7.61A.81.81,0,0,0,169.47,164.29Z"/><path class="cls-1" d="M61.8,98.77a2.28,2.28,0,0,1,3.18-1,5.26,5.26,0,0,1,1.93,2.39c2.72,5.59,2.41,12.18,1.45,18.33a8.85,8.85,0,0,1-1.84,4.83c-1.2,1.27-3.59,2.25-5-1C58.72,116.22,60.9,100.25,61.8,98.77Z"/><path class="cls-2" d="M62.37,99.33,66,100.66l1.07,2.9a24.48,24.48,0,0,1,.79,4.69,39.8,39.8,0,0,1-.41,8.38c-.37,2.7-2,8.59-5,4.35-.95-1.3-1-4.09-1.1-5.56-.44-4.86-.91-11.9,1-16.49.26-.61-.77-1-1.06-.45-2.18,4.34-5.46,30.08,3.94,27.18,6.12-1.89,5.26-14.65,4.6-19.23-.49-3.45-4.19-14.36-8.73-8.06C60.56,99.12,61.73,99.94,62.37,99.33Z"/><path class="cls-1" d="M137.77,99.13a2.43,2.43,0,0,0-3-2.55,3.53,3.53,0,0,0-1.92,1.35c-2.74,3.24-4.4,10.71-4.4,17.38,0,9.58,6.69,17.91,8.47,15.41S137.77,99.13,137.77,99.13Z"/><path class="cls-2" d="M138.5,99.13c.08-2.49-1.53-4.25-4.16-3.6-4.51,1.11-5.92,9.15-6.49,12.71-.9,5.59-.83,11.2,1.38,16.48,1,2.35,3.28,7.37,6.46,7.57,4.66.3,3.28-10.6,3.28-13.17,0-6.67-.31-13.33-.53-20,0-.86-1.36-.86-1.33,0,.26,8.07.19,16.24-.27,24.3-.08,1.36.22,4.55-.57,5.7-1.28,1.85-3.66-2.84-4.4-4.37-2.41-5-2.55-10.49-1.72-15.88a32.22,32.22,0,0,1,1.51-6.17c.51-1.4,3.69-8.31,5.42-3.38A.74.74,0,0,0,138.5,99.13Z"/><path class="cls-2" d="M39.15,185.33c.79,9.23,11.08,12.93,18.65,15.27a152.73,152.73,0,0,0,37.49,6.76c12.66.62,25.79-.64,37.75-5.08,8.62-3.2,19.4-7.57,23.88-16.24.84-1.62-1.62-3.05-2.44-1.43-4.28,8.49-15.33,12.43-23.83,14.9a107,107,0,0,1-32.79,4.43,145.39,145.39,0,0,1-33.9-4.8c-8.36-2.23-20.36-4.58-23.16-14-.26-.87-1.74-.76-1.65.22Z"/></g></g></svg>