<svg xmlns="http://www.w3.org/2000/svg" viewBox="0 0 121.61 213.84"><defs><style>.cls-1,.cls-5{fill:#f1d400;}.cls-2{fill:#fff;}.cls-3{fill:#0c0000;}.cls-4{fill:#e30613;}.cls-5{stroke:#fff;stroke-miterlimit:10;stroke-width:3px;}</style></defs><title>6</title><g id="Слой_2" data-name="Слой 2"><g id="Layer_1" data-name="Layer 1"><path class="cls-1" d="M17.43,98.39Q22.5,115.51,26.25,133a42.11,42.11,0,0,0,19.41,1.23,3.47,3.47,0,0,0,2.2-1,3.63,3.63,0,0,0,.6-1.86C49.94,120,52,111.71,54.58,100.5"/><path class="cls-2" d="M16.33,98.39c1.33,11.77,5.6,23.49,8.11,35.08a1.86,1.86,0,0,0,1.3,1.3,43.29,43.29,0,0,0,16.37,1.7c3-.31,6.34-.41,7.67-3.48.84-1.94.7-4.55,1-6.64.46-2.81,1-5.6,1.58-8.39,1.19-5.68,2.59-11.32,3.91-17,.54-2.28-3-3.26-3.52-1-1.53,6.76-3.09,13.52-4.31,20.34-.53,3-.46,6.8-1.5,9.64-1.44,3.93-7.48,3.1-11.12,2.84a20.91,20.91,0,0,1-5.68-.78c-2.41-.91-2.24-1-3-3.25-1.11-3.56-1.69-7.35-2.59-11-1.66-6.68-3.21-13.8-6.28-20-.47-.94-2.17-.53-2,.55Z"/><path class="cls-1" d="M61.11,37.5c.38-4.31-8.45-5.6-11.88-5.91a95.14,95.14,0,0,0-24.78,1c-1.39.24-5,1.45-5,3.59-.08,3,8,6,21.1,6C50.3,42.28,60.87,40.31,61.11,37.5Z"/><path class="cls-2" d="M62.28,37.5c.52-7.67-14-7.62-18.77-7.78-4-.13-27.06-1.57-25.65,7.1,1.08,6.61,15.34,7,19.94,7.26,4.45.21,24.5,1.43,24.27-6.57A1,1,0,0,0,60.3,37c-.79,1.11-6,1.89-7.14,2.14a60.39,60.39,0,0,1-10.92,1.09,74.06,74.06,0,0,1-11.65-.56c-2.08-.28-6.6-.69-8.15-2.28s-.31-2.29,1.71-3.14c1.63-.68,4.41-.75,6-.93a95.2,95.2,0,0,1,12.42-.59c3.75.06,16.52-.32,17.45,5.06C60.23,39.17,62.19,38.73,62.28,37.5Z"/><path class="cls-2" d="M55.25,103.17q-1.06.68,0,.38a4.15,4.15,0,0,1,1.49,0,3.76,3.76,0,0,1,2.07,1.1,4.74,4.74,0,0,1,.53,5.49,7.15,7.15,0,0,1-8.4,3.43,2.12,2.12,0,0,0-2,3.52c2.39,2.68,6.56,1.66,9.34.14a11,11,0,0,0,5.9-8.37,8.13,8.13,0,0,0-4.5-8.31c-1.76-.81-6.44-1.29-6.84,1.51a1.42,1.42,0,0,0,1.34,1.77,1.32,1.32,0,0,0,1.14-.6Z"/><path class="cls-3" d="M20.34,112.73c3.91,2.86,30.66,1.32,30.87,0l-3.35,20.52s-6.15,2.61-11,2.58-10.09-1.27-11.53-4-4.77-20-4.77-20"/><path class="cls-2" d="M19.48,113.59c4.11,3.68,13.22,2.49,18.21,2.38,3.13-.07,13,.9,15-2.37l-3.23-1.36q-1,6.08-2,12.16c-.36,2.21-1.18,4.75-1.15,7,0,.32-.52,2.34.34.72.67-1.26.57-.26-.19-.28a10.59,10.59,0,0,0-2.22.77c-4.53,1.43-9.88,2.18-14.4.27-3.58-1.51-3.75-4-4.57-7.44-1.13-4.65-2.2-9.37-3.11-14.07-.42-2.17-3.73-1.25-3.31.91C20,118,21,123.85,22.59,129.51c2.23,7.76,11,9,18.16,7.71,2.14-.38,7-1,8.53-2.89.92-1.17.81-3.59,1-5q1.32-8.08,2.6-16.17a1.78,1.78,0,0,0-3.23-1.36c.62-1,.19-.22-.85-.17s-2.27.32-3.39.44c-3.1.31-6.22.47-9.34.56-4.78.13-10.89.72-15.44-1.08-1.14-.45-2.05,1.25-1.18,2Z"/><path class="cls-1" d="M11.08,209.34C6,203.19.53,195.91,1.9,188c.56-3.23,2.25-6.15,3.18-9.3C6.21,175,6.23,170.95,6.25,167q.21-61.77.42-123.54c0-8,.72-17.3,7.36-21.75C16.64,20,20.18,18.93,21.28,16a22.7,22.7,0,0,0,.63-3.72c.73-3.76,4-6.5,7.44-8.22C33.65,1.9,38.78.88,43.25,2.59S51.09,9.33,49.8,14a107.79,107.79,0,0,1,22.3.31c2.2.26,4.51.58,6.57-.24s3.66-3.25,2.76-5.27l7.53,0c-1,2.94,1.35,6.06,4.1,7.51s6,1.87,8.71,3.34c4.18,2.23,6.84,6.64,8,11.22s1.11,9.39,1,14.12q-1,55.5-.56,111c.05,6.74.21,13.82,3.57,19.67,2.39,4.15,6.43,7.89,6.23,12.67a17,17,0,0,1-1.78,5.84c-2.19,5.1-4,10.62-8.13,14.38S98.8,213.3,95.3,209c-.95-1.17-1.56-2.64-2.77-3.53-1.38-1-3.23-1.07-4.94-1.08l-56.21-.27c-1.5,0-3.13,0-4.32.94A10.84,10.84,0,0,0,24.94,208c-3.16,4.84-11.17,5.38-14.94,1"/><path class="cls-2" d="M12.18,208.23c-5.09-6.3-10.49-13.6-8-22.11.93-3.19,2.52-6.09,3.13-9.39A59.88,59.88,0,0,0,8,166q.1-24.91.17-49.81.09-25.4.17-50.81c0-8-.08-16,.1-23.94.15-6.37.79-14.23,6.48-18.25,2.38-1.68,5.38-2.54,7.13-5s1.16-6,3.09-8.63c5.32-7.28,25.54-9.3,23,3.95a1.74,1.74,0,0,0,1.65,2.17,116.76,116.76,0,0,1,13-.38c4.19.13,8.45,1,12.62,1,4.64-.06,8.67-3,7.61-8l-1.62,2.13c2.51,0,5,0,7.53,0L87.36,8.29c-1.68,8.86,7.92,9.63,13.57,12.71,11,6,8.25,22.55,8.08,32.83q-.57,35.68-.59,71.36c0,11.91-.33,23.92.25,35.82a38.31,38.31,0,0,0,2.19,12.2c1.77,4.51,6,8.06,7.23,12.73,1.14,4.32-2.68,11.16-4.62,15-2.49,4.92-7.33,10.67-13.63,9-3.83-1-4.69-5.74-8.58-6.89-4.65-1.38-10.51-.5-15.3-.55-12.92-.13-25.84-.12-38.77-.17-4.12,0-9.4-1-12.4,2.49-1.72,2-2.43,4.1-5.34,4.91a8.05,8.05,0,0,1-8-2.17c-1.82-1.86-4.71,1-2.86,2.86a11.91,11.91,0,0,0,17-.22c.36-.39.6-.91,1-1.28a10.07,10.07,0,0,1,6.8-3,74.81,74.81,0,0,1,7.75,0l20.35.11c6.14,0,12.28.07,18.41.06,2.65,0,6.59-.77,9.06,0,3,.92,4.23,3.42,6.43,5.18,5.88,4.71,14.26,1,18.3-4.21,2.57-3.34,4.07-7.32,5.69-11.17,1.79-4.25,3.3-7.88,1.48-12.41-1.88-4.69-5.78-8.08-7.3-13-1.85-6-1.52-12.43-1.56-18.59q-.25-39.15.15-78.3.1-10.9.29-21.8c.1-6.25.62-12.7-.43-18.9-.79-4.65-2.66-9.21-6.16-12.49C102,17,89.34,15.52,90.55,9.17A1.68,1.68,0,0,0,89,7.08c-2.51,0-5,0-7.53,0A1.71,1.71,0,0,0,79.8,9.2c1.11,5.48-13.91,2.78-16.05,2.69a115.27,115.27,0,0,0-13.95.34l1.65,2.17A11.92,11.92,0,0,0,44.12,1.11C38-1.43,30.48.67,25.4,4.48a13.18,13.18,0,0,0-4.76,6c-.71,2-.55,4.75-2,6.45s-4.2,2.43-6,3.74C7.94,24.07,6.1,29.71,5.39,35.27c-1.17,9.23-.48,18.84-.51,28.13l-.1,30.88Q4.67,125.66,4.56,157c0,5.53.33,11.23-.27,16.73C3.74,178.83.93,183.09.19,188c-1.31,8.71,4.53,16.14,9.78,22.41,1.3,1.55,3.46-.67,2.21-2.21Z"/><path class="cls-4" d="M32.12,71c-3,.29-5.73-2-6.9-4.81s-1.13-5.87-1.07-8.87l.28-13.73c.08-4,.2-8.07,2-11.59a13.44,13.44,0,0,1,13.62-7A13.44,13.44,0,0,1,51,35.78a26.2,26.2,0,0,1,.21,4.95l-.45,22.8c0,1.75-1.73,7.45-7.27,7.65Z"/><path class="cls-2" d="M32.12,69.88c-8.52-.33-6.75-12.71-6.63-18.44S25,39.41,27,34.05a11.91,11.91,0,0,1,15.21-7.11c6.52,2.42,7.87,8.53,7.73,14.73-.12,5.39-.29,10.77-.22,16.15.06,4.56.7,10.94-5.12,12.51-3.76,1-8.59,0-12.46-.1a.77.77,0,0,0,0,1.55c6.39.09,15.43,2,18.76-5.07a12,12,0,0,0,1-5.09c.21-5.07.44-10.13.52-15.2.1-6.42.88-13-3.83-18.07C40,19.18,25.85,24.89,23.75,36.48a70.19,70.19,0,0,0-.61,11c-.1,5-.69,10.26,0,15.23s3.64,9.34,9,9.4A1.13,1.13,0,0,0,32.12,69.88Z"/><path class="cls-1" d="M32.78,60.5c0,3.32,0,11.09.36,16.91,3.19.12,6.14-.51,9.3-.06a63.61,63.61,0,0,1,.23-12.87,12,12,0,0,0-.08-4.34,5.61,5.61,0,0,0-3.83-3.82C37.35,55.92,32.78,57.18,32.78,60.5Z"/><path class="cls-2" d="M32.07,60.3c-1.2,5.3-.36,11.73-.11,17.1a1.2,1.2,0,0,0,1.18,1.18c3.11,0,6.19-.31,9.3,0a1.22,1.22,0,0,0,1.21-1.21c-.39-4.86.25-9.49.37-14.33.08-3-.83-5.86-3.62-7.31-3.48-1.81-8.61.63-8.24,4.8a.62.62,0,0,0,1.21.16,5.3,5.3,0,0,1,4-3.16c4.13-.22,4.25,4.83,4,7.72a71.19,71.19,0,0,0-.14,12.12l1.21-1.21c-3.11-.28-6.18.08-9.3.1l1.18,1.18c-.36-5.5.4-11.72-.82-17.1A.74.74,0,0,0,32.07,60.3Z"/><path class="cls-4" d="M9.36,169.79c0,6.57,5,11.91,48.48,11.91,41.27,0,51.15-7.81,51.15-11.91S9.36,166.7,9.36,169.79Z"/><path class="cls-2" d="M8.3,169.79C8,181.95,28.51,181.84,36.38,182.3c15.73.93,31.82,1.19,47.49-.67,7.45-.89,15.73-2.11,22.32-6,2-1.2,6.14-4.56,3.86-7.26-1.92-2.26-8.24-1.82-10.78-2-17.73-1.14-35.64-.73-53.39-.25-9,.24-18.08.54-27.09,1.27-1.5.12-9.69-.09-10.17,2.17-.21,1,1.28,1.39,1.49.41.09-.44,8.36-.85,9.62-.92,6.66-.39,13.33-.55,20-.66,15.91-.26,31.85-.2,47.75.43,5.55.22,11.17.39,16.68,1.16a11.75,11.75,0,0,1,3.69.8c-1-.58,0-1-.66-.4-.4.4-.67,1.05-1.07,1.49-3.66,4-10.75,5.22-15.79,6.16-12.87,2.4-26,2.52-39.07,2.38-10.93-.11-22.76,0-33.3-3.36-3.71-1.17-7.31-3-7.52-7.3A1.06,1.06,0,0,0,8.3,169.79Z"/><path class="cls-4" d="M18.77,139.23q.06,4.41.34,8.81Q40,147.32,60.95,148c-.09-3.11-.18-5.68,0-8.9-6.89.06-38.42-.2-42.14-.45"/><path class="cls-2" d="M17.32,139.23c0,2.94.06,5.87.23,8.81a1.59,1.59,0,0,0,1.57,1.57c13.88-.45,28,.55,41.84-.44A1.23,1.23,0,0,0,62.14,148c.25-3,.32-5.92.43-8.9A1.63,1.63,0,0,0,61,137.46c-13.92.23-28.25.47-42.14-.57-2.21-.17-2.24,3.38,0,3.47,14,.56,28.1.31,42.14.33l-1.61-1.61a47.94,47.94,0,0,0,.46,9.21l1.15-1.51c-13.63-1.79-28.12-.77-41.84-.31L20.68,148c-.17-2.93-.29-5.87-.45-8.81a1.46,1.46,0,0,0-2.91,0Z"/><path class="cls-4" d="M83.74,57.69c-1.92-.6-4-1.29-5.17-2.9S77.26,51,77.22,49l-.13-6.12C77,39.28,77,35.62,78,32.19s3.33-6.69,6.7-7.92c2.9-1.06,6.16-.5,9,.65a7.52,7.52,0,0,1,3.74,2.71,8.61,8.61,0,0,1,1,3.28A90.57,90.57,0,0,1,99.6,47.47c-.1,3.36-.68,7.17-3.45,9.07a10.18,10.18,0,0,1-5.53,1.39,39,39,0,0,1-9.23-.82"/><path class="cls-2" d="M84,56.69c-7.12-2.61-6.16-12.85-5.74-19.22.24-3.65,1.13-7.61,3.88-10.24,3.54-3.39,10.5-3,13.48.9,3.34,4.38,2.84,14.51,2.52,20-.26,4.36-1.44,7.57-6.26,8.42-3.47.61-7.06-.35-10.51-.69C79.93,55.7,79.7,58,81,58.34,89.33,60.62,99.39,60,100.8,50c.77-5.46.13-11.33-.63-16.76-.71-5-1.8-8.09-6.88-9.81-9.16-3.1-15.93,2.87-17.14,11.9A57.19,57.19,0,0,0,76.29,52c.74,4,3.51,5.56,7.18,6.65,1.3.39,1.79-1.55.55-2Z"/><path class="cls-1" d="M18.2,96.59q5.08,18.88,8.71,38.1a46.11,46.11,0,0,0,21.22,1.88,3.8,3.8,0,0,0,2.43-1,4,4,0,0,0,.71-2C53.19,121.13,56,111,59.1,98.83"/><path class="cls-2" d="M17.23,96.59c1.52,12.92,5.65,25.74,8.09,38.53a1.63,1.63,0,0,0,1.14,1.14,47.52,47.52,0,0,0,17.2,2.33c3.25-.2,7.41-.1,8.78-3.6,1-2.43,1-5.7,1.46-8.28.57-2.86,1.2-5.7,1.87-8.53,1.51-6.34,3.22-12.63,4.86-18.93.52-2-2.57-2.84-3.07-.85-1.88,7.44-3.82,14.86-5.4,22.37-.72,3.44-1,7.19-2,10.54q.14,3.39-3.84,3.94l-1.78.11a29.08,29.08,0,0,1-6.26-.07,46.87,46.87,0,0,1-6.64-1c-3-.66-3.06-1.08-3.91-3.89-1.12-3.68-1.56-7.72-2.39-11.48C23.66,111.32,22.1,103.3,19,96.1a1,1,0,0,0-1.79.48Z"/><path class="cls-2" d="M2.21,186.72c2.09,7,13.09,6.73,18.87,7.38,11.86,1.35,23.82,1.39,35.74,1.38s23.69-.28,35.49-1.35c8.45-.77,19.11-.88,25.74-6.94,1.27-1.16-.42-3.43-1.87-2.42C108.71,190,99.24,190.28,90.4,191c-9.89.82-19.81,1.1-29.73,1.16-9.45.06-18.93.07-28.38-.36-4.67-.21-9.36-.48-14-1.05-4.48-.55-11.49-.45-14.13-4.88a1.08,1.08,0,0,0-2,.82Z"/><path class="cls-1" d="M25.25,100.54A91.69,91.69,0,0,0,50.39,102a25.14,25.14,0,0,0,7.78-1.59,3.52,3.52,0,0,0,1.54-1,2.41,2.41,0,0,0,0-2.61,5.54,5.54,0,0,0-2.09-1.84c-2.92-1.67-6.36-2.28-9.73-2.67a93.63,93.63,0,0,0-24.41.38c-1.37.2-4.24.88-4.24,3S22.16,99.94,25.25,100.54Z"/><path class="cls-2" d="M25,101.42c9.64,2.53,22.34,3.75,32,.73,2.15-.67,4.49-1.69,4.26-4.38-.33-3.84-5.88-5.37-8.85-6.08a71.32,71.32,0,0,0-16.77-1.53c-4.56,0-10.46-.23-14.78,1.56-2.12.87-3.54,2.48-3.06,4.85.72,3.53,4.29,4.67,7.44,4.71a.75.75,0,0,0,.38-1.39c-1.88-1.1-3.48-1.7-3.43-3.88.06-2.34.19-1.16,1.67-1.87,2.68-1.28,7.81-.87,10.84-1,6-.19,12.84-.36,18.67,1.4,1.9.57,6.75,1.72,3,5.21-.78.72-3.42.75-4.37.87a73.34,73.34,0,0,1-8.85.46c-6,0-11.91-.85-17.88-1.5C24.21,99.51,24,101.17,25,101.42Z"/><path class="cls-2" d="M59.27,102.41c.18-.7,4.56,1.62,5,2.35,1.34,2,.86,4.82-.45,6.73a8.15,8.15,0,0,1-9.65,3.17c-1.63-.65-2.73,1.7-1.63,2.81,5.4,5.44,15-2.27,15.8-8.25a8.3,8.3,0,0,0-4.4-8.7c-1.88-.91-6-1.41-6.81,1.15a1.12,1.12,0,0,0,.51,1.26l.17.07a1,1,0,0,0,1.42-.58Z"/><path class="cls-3" d="M21,111a27.44,27.44,0,0,0,14.76,5.31,45.54,45.54,0,0,0,15.71-1.92c1.43-.41,3.07-1.11,3.34-2.57l-4.26,23.71s-6.8,2.68-12.14,2.52-11-1.67-12.52-4.67-4.67-22-4.67-22"/><path class="cls-2" d="M20.34,111.7c5.18,4.54,12.19,6.16,19,6,4.67-.08,14.47-.26,16.72-5.19l-2.55-1.07q-1.22,6.64-2.42,13.29L49.58,133c-.12.67-.21,1.36-.36,2s1.46-.91.56-.65c-.64.19-1.27.45-1.91.65-5.44,1.72-11.28,2.41-16.78.44-4.15-1.48-4.61-4.51-5.45-8.3-1.18-5.33-2.22-10.73-3.12-16.11-.29-1.71-2.89-1-2.6.72,1.08,6.43,2,12.93,3.69,19.25,2.3,8.59,12.89,9.42,20.44,7.93,2.17-.43,6.59-.87,7.87-3,.88-1.47.83-4.61,1.13-6.27q1.56-8.71,3.1-17.42c.25-1.42-1.85-2.63-2.55-1.07-1.84,4.11-13.52,4.1-17,3.92A33,33,0,0,1,21.5,110.2c-.91-.53-2,.77-1.16,1.5Z"/><path class="cls-5" d="M87.91,143.85h0a4.18,4.18,0,0,1-4.18-4.18V56.95a4.18,4.18,0,0,1,4.18-4.18h0a4.18,4.18,0,0,1,4.18,4.18v82.72A4.18,4.18,0,0,1,87.91,143.85Z"/><path class="cls-2" d="M25.56,11.85c1.79,2.29,4.6,2.51,7.32,2.62,4,.16,8.28.24,12.13-1.14a.93.93,0,0,0-.49-1.79c-5.24,1-13.33,2.37-18-.94-.8-.57-1.47.6-1,1.25Z"/></g></g></svg>