<svg xmlns="http://www.w3.org/2000/svg" viewBox="0 0 82.25 82.24"><defs><style>.cls-1,.cls-4{fill:#f1d400;}.cls-1{stroke:#fff;stroke-miterlimit:10;stroke-width:2.24px;}.cls-2{fill:#e30613;}.cls-3{fill:#fff;}</style></defs><title>b3</title><g id="Слой_2" data-name="Слой 2"><g id="Layer_1" data-name="Layer 1"><ellipse class="cls-1" cx="41.13" cy="41.12" rx="40" ry="40"/><path class="cls-2" d="M60,50.3c-2.8,6.92-9.61,12.24-19.43,11.83-13.21-.56-17.25-14.19-17-20,.48-11.29,9.23-19.66,17.75-19.3C50.3,23.2,57.9,27,60.29,34.06,61.14,36.59,61.85,45.82,60,50.3Z"/><path class="cls-3" d="M59.17,49.8c-4.21,9.55-16.66,15-26.08,9.07-6.72-4.2-9.72-13.41-7.87-20.92,3-12,14.32-16.75,25.33-12.2C60.08,29.7,62.22,40.9,59.06,50c-.42,1.23,1.52,1.76,1.95.54,3.54-10.25.79-22.42-9.79-26.74C39.65,19.1,27.58,23.7,23.66,36c-2.76,8.7.42,19.65,8.4,24.59,10.31,6.38,24.18.79,28.84-9.79C61.43,49.64,59.69,48.61,59.17,49.8Z"/><path class="cls-2" d="M35.84,16.48a21.12,21.12,0,0,0,0,3c2.94,0,10.3.05,10.3.05l.38-4.18s-6.88-.2-10.31.09"/><path class="cls-3" d="M35.33,16.34c-.16,1-.61,2.59-.13,3.53a.69.69,0,0,0,.6.34c3.43,0,6.87,0,10.3.08a.73.73,0,0,0,.72-.72c.12-1.39.22-2.79.36-4.18a.71.71,0,0,0-.7-.7c-3.44-.14-7.12-.49-10.54,0-.94.13-.7,1.66.22,1.64,3.44-.05,6.86-.29,10.31-.22l-.7-.7c-.11,1.4-.26,2.79-.39,4.18l.72-.72c-2,0-4.1-.06-6.15-.06a18.23,18.23,0,0,1-3.8,0c.3.07.22.71.27.07,0-.35,0-.73,0-1.08a11.08,11.08,0,0,0-.08-1.48c-.07-.51-.93-.5-1,0Z"/><path class="cls-2" d="M56.25,22c1.47,1.31,7,7.28,7,7.28l3.12-3s-6-6.54-6.42-6.57Z"/><path class="cls-3" d="M56,22.21c2.3,2.44,4.54,5,6.87,7.38a.51.51,0,0,0,.72,0c1-1,2-2.06,3.12-3a.52.52,0,0,0,0-.73,70.71,70.71,0,0,0-5.63-6.13c-.65-.61-1-.91-1.78-.46a29.85,29.85,0,0,0-3.22,2.4.36.36,0,0,0,.37.63l3-1.62a4.22,4.22,0,0,0,.65-.35c.1-.08-.43-.22-.32.06s.87.83,1.17,1.12c1.68,1.68,3.33,3.4,5,5.08v-.73c-1,1.05-2.05,2-3.12,3h.72a58.24,58.24,0,0,0-7.07-7.17C56.15,21.42,55.67,21.86,56,22.21Z"/><path class="cls-4" d="M39.64,40.91a3.8,3.8,0,0,0,.47,4.91c1.25,1.22,4.44.7,5.55-.65A11,11,0,0,0,47,41.74l2.45-9.62a121.79,121.79,0,0,0-9.82,8.79"/><path class="cls-3" d="M39.36,40.63c-2.8,3.26.55,7.37,4.41,6.37,2.11-.55,3-2,3.59-3.94,1.12-3.51,1.89-7.18,2.79-10.75a.73.73,0,0,0-1.21-.71c-3.35,2.87-6.64,5.74-9.87,8.75-.75.7.44,1.87,1.11,1.11,2.93-3.29,6.45-6,9.78-8.84l-1.21-.71c-.84,3.29-1.58,6.62-2.49,9.89-.42,1.52-.78,3-2.36,3.65A3.07,3.07,0,0,1,40,41.1c.2-.37-.31-.82-.61-.47Z"/><path class="cls-3" d="M53.74,42.63c2.31-.21,4.67-.36,7-.71.74-.11.54-1.27-.17-1.28a23.93,23.93,0,0,0-6.91,1.07c-.49.14-.42,1,.13.93Z"/><path class="cls-3" d="M41.44,28.81a43,43,0,0,0,.22-6.08.74.74,0,0,0-1.47,0,43,43,0,0,0,.22,6.08.52.52,0,0,0,1,0Z"/></g></g></svg>