<svg xmlns="http://www.w3.org/2000/svg" viewBox="0 0 82.25 82.24"><defs><style>.cls-1{fill:#f1d400;stroke:#fff;stroke-miterlimit:10;stroke-width:2.24px;}.cls-2{fill:#e30613;}.cls-3{fill:#fff;}</style></defs><title>b1</title><g id="Слой_2" data-name="Слой 2"><g id="Layer_1" data-name="Layer 1"><ellipse class="cls-1" cx="41.13" cy="41.12" rx="40" ry="40"/><path class="cls-2" d="M38,42.55a32,32,0,0,0-8.93,1.38c-3.55.92-8,2.22-7.64,6.33.39,5.06,10.63,8.79,18.81,8.65,7.95-.14,18.92-4.43,18.84-9.25,0-2.83-7.39-6.55-10.67-7.16-6.11-1.14-11.07-1.55-16.74.71"/><path class="cls-3" d="M38,42.15c-4.86-.1-20.61,1.4-16.8,9.94C24.52,59.5,38,60.36,44.63,59.26c4.06-.67,18.73-4.64,14.55-11.54-1.82-3-6.47-5-9.69-5.87a28.72,28.72,0,0,0-18,.48c-1.06.41-.65,2.11.48,1.74,6.92-2.25,15-2.26,21.57,1.28,1.11.6,3.56,1.6,4,2.82.88,2.67-.85,4.69-2.87,5.95a27.66,27.66,0,0,1-9,3.35c-6.35,1.3-13.94.74-19.59-2.71-1.36-.83-3.33-2.17-3.74-3.87-.86-3.61,2.47-4.87,4.78-5.65A51.26,51.26,0,0,1,38,43a.4.4,0,0,0,0-.8Z"/><path class="cls-2" d="M27.91,26.71C28.54,25,34.2,21.2,39.35,21.3c3.73.07,12.2,2.91,12.49,5.56.66,6,2.55,21.58,2.58,22,.15,1.9-7.86,5-13.26,5.41-5.91.42-14.14-2-15.62-4.91C25.55,49.37,27.44,28,27.91,26.71Z"/><path class="cls-3" d="M28.47,27c3.23-4.87,10.84-5.38,15.85-3.8,3,1,5.88,2,6.73,5.3a40.42,40.42,0,0,1,.61,5.39C52.12,38,52.56,42,53,46.08c.22,2,.7,2.43-1,3.77-1.95,1.51-5.44,2.23-7.81,2.72a24,24,0,0,1-9.47,0c-2-.37-6.28-1-7.45-2.76-1.06-1.63-.28-4.32-.08-6.45.34-3.54.68-7.09,1.06-10.63.22-2,.87-4.19.16-6.13a.51.51,0,0,0-.83-.22c-1.55,1.27-1.28,4.09-1.47,5.9-.43,4.12-.81,8.25-1.18,12.38-.18,2-.88,4.16.14,5.9,1.78,3,7.61,4.3,10.7,4.76,5,.75,19.55-.14,19.7-7.24.09-4.38-1.2-9.18-1.73-13.52-.36-3,.08-7.47-2.08-9.77-5.47-5.83-20.4-6.32-24.29,1.63A.65.65,0,0,0,28.47,27Z"/><path class="cls-3" d="M27.52,26.71c.33,3.69,5.45,4.45,8.36,4.83a22.78,22.78,0,0,0,16.33-4c.72-.55.1-1.73-.73-1.25-4,2.28-8.28,4-12.93,3.93-3.13,0-8.68-.5-10.29-3.65a.4.4,0,0,0-.73.2Z"/><path class="cls-3" d="M37.62,21.69c-1.54.22-3.63,1-2.94,3,.79,2.22,4,2,5.78,1.47,1.37-.39,4.35-1.67,3.3-3.61s-4.25-2-6-1.72c-.64.11-.5,1.19.15,1.14a8.3,8.3,0,0,1,3.07.18c.87.25,1.84,1.15.74,2a4.74,4.74,0,0,1-1.65.62,5.28,5.28,0,0,1-3.14,0c-1.93-.9.15-2,1-2.38.44-.2.1-.77-.3-.71Z"/><path class="cls-3" d="M36.72,4.88c-.15,3.66-.3,7.31-.23,11a.86.86,0,0,0,1.72,0c.08-3.66-.07-7.31-.23-11a.63.63,0,0,0-1.26,0Z"/><path class="cls-3" d="M41.66,11.44c-.18,1.91-.34,3.81-.38,5.73a1,1,0,0,0,2.07,0c0-1.91-.19-3.82-.38-5.73a.66.66,0,0,0-1.31,0Z"/><path class="cls-3" d="M41.69,7a12.31,12.31,0,0,0-.4,1.66c-.12,1.31,2.14,1.35,2.07,0a3.82,3.82,0,0,0-.47-1.82.66.66,0,0,0-1.2.16Z"/><path class="cls-3" d="M35.3,63.42c-.06.52-.13,1-.17,1.57-.1,1.22,2,1.22,1.89,0,0-.53-.11-1-.17-1.57a.78.78,0,0,0-1.56,0Z"/><path class="cls-3" d="M33.47,68.93A24.42,24.42,0,0,0,33.29,76a1.07,1.07,0,0,0,2,0,24.42,24.42,0,0,0-.18-7.09.88.88,0,0,0-1.69,0Z"/><path class="cls-3" d="M39.91,64.17a44.35,44.35,0,0,0-.27,6.8,1.05,1.05,0,0,0,2.1,0,44.35,44.35,0,0,0-.27-6.8.78.78,0,0,0-1.56,0Z"/><path class="cls-3" d="M45.29,63.25c-.89,4.22-.66,8.93-.4,13.22a1,1,0,0,0,2,0c.27-4.28.49-9-.4-13.22a.64.64,0,0,0-1.23,0Z"/></g></g></svg>