<svg xmlns="http://www.w3.org/2000/svg" viewBox="0 0 82.25 82.24"><defs><style>.cls-1,.cls-3{fill:#f1d400;}.cls-1{stroke:#fff;stroke-miterlimit:10;stroke-width:2.24px;}.cls-2{fill:#fff;}.cls-4{fill:#e30613;}</style></defs><title>b2</title><g id="Слой_2" data-name="Слой 2"><g id="Layer_1" data-name="Layer 1"><ellipse class="cls-1" cx="41.13" cy="41.12" rx="40" ry="40"/><path class="cls-2" d="M61.29,29.28c2.13-1.12,4.64-2.68,7.17-2.05,3,.74,3,3.82,2,6.14-1.78,4.25-5.71,5.71-9.85,6.74a1.26,1.26,0,0,0,.33,2.46c6.1.24,12.72-6,12.32-12.2a5.23,5.23,0,0,0-4.28-5c-3.16-.64-6,1.14-8.32,3.1-.47.4.13,1.09.64.83Z"/><path class="cls-3" d="M52.1,46.29c.15,2.6.86,9.28-.44,11.07-3.34,4.61-9.76,4.91-9,6.54,0,.32,7,1.64,9.42,1.86,3.75.34,13.81-.23,13.81-2.75,0-2.08-5.47-2.94-7.44-5.1C57,56.31,56,51.73,55.64,46.31c-.11-1.4-1.7-1.81-2.66-1.83"/><path class="cls-2" d="M51.69,46.29C51.15,52.1,52.76,57,46.51,60.21c-1.3.67-5.34,1.51-4.92,3.69.35,1.78,3.69,1.85,5,2.14A39.42,39.42,0,0,0,57.12,67c2.62-.14,13.55-1.31,8.75-6.12-1.41-1.41-3.7-1.74-5.32-2.83-2.69-1.8-3-5.63-3.37-8.59-.41-3.28-.27-5.94-4.2-6.17-1.34-.08-1.67,2.14-.32,2.37,2.55.45,2.51,7.63,3.27,9.88a7.72,7.72,0,0,0,3.9,4.81c.86.49,3.78,1.21,4.21,2.07.63,1.27-1.36,1.37-2.47,1.61a34.15,34.15,0,0,1-9.51.55c-2.08-.16-6.6-.17-8.33-1.36-.4-.28.28.29.83.11a17.75,17.75,0,0,0,2-.91,17.42,17.42,0,0,0,3.87-2.34c4-3.43,3.11-9.2,2-13.89-.11-.48-.76-.33-.81.11Z"/><path class="cls-3" d="M40.25,20.09c1.6.59,4.53,7.71,4.45,9.25-.58,10.85-.08,14.95,1.75,17,2.17,2.48,5.42,1.51,8.9,1.51,4.22,0,8.06-1.81,8.49-5.85,1-9.24-2.29-13.91,2.27-21.84"/><path class="cls-2" d="M39.82,20.52c5.73,4.48,3.25,14.13,3.8,20.15.35,3.9,1.53,7.6,5.87,8.35,4.66.81,12.47.28,14.78-4.61,1.39-2.94.92-6.79.74-9.93-.29-5-.3-9.13,2.13-13.68.71-1.34-1.33-2.53-2-1.19-2.87,5.48-2.52,10.25-2.23,16.24a29.87,29.87,0,0,1,0,4.52c-.5,4.81-3.12,6.14-7.54,6.47-3.42.26-7.39.64-9.1-2.9-2.21-4.57.1-10.6-.65-15.35-.46-2.91-2.31-7.57-5-9-.57-.3-1.3.51-.73.95Z"/><path class="cls-4" d="M45.16,33.79c-.44,4.45-.62,4.43-.28,9.21.11,1.6,1.55,3.55,2.7,4.65a10.48,10.48,0,0,0,6.07,2.55,9.51,9.51,0,0,0,6-1.05c2.48-1.47,6-6.66,4.2-15.35-5.93,3.47-11.87,2.73-18.78.81"/><path class="cls-2" d="M44.62,33.64c-.6,3.74-1.65,8.25.12,11.83,2,4,6.47,5.92,10.76,5.77,9.1-.32,10.58-10.63,9.32-17.73a1,1,0,0,0-1.48-.6c-5.9,3.19-11.77,2.32-18,.7a1,1,0,0,0-.54,1.95c6.7,1.87,13.25,2.51,19.55-.91l-1.48-.6c1.1,6.09.08,15.31-8,15.24-5.39,0-8.87-3.35-9.28-8.66a56.33,56.33,0,0,1,.11-6.84c0-.61-1-.77-1.08-.15Z"/><path class="cls-4" d="M24.35,45.09a22.09,22.09,0,0,0-7.83,1.38c-3.11,1-5.15,3.19-5.15,7.87,0,5.33,9.35,8.23,16.52,8.23,7,0,13.2-3.58,13.2-9.05,0-3.2-4.76-7.53-7.62-8.29-5.33-1.41-9.66-2-14.66.47"/><path class="cls-2" d="M24.35,44.69C18,44.44,8.79,47.06,10.76,55.45c1.65,7,13.64,8.37,19.33,7.77S44.36,58.1,41.28,51.09c-3.67-8.34-15.66-9.54-22.93-6.17-.92.43-.26,2,.7,1.65C25,44.2,33,44.17,37.77,49c7.16,7.29-3.39,12.61-9.88,12.75-4.36.1-10.56-.84-13.87-4s-1.89-8.2,1.82-10.24c2.42-1.33,5.84-1.76,8.51-2.05a.4.4,0,0,0,0-.8Z"/><path class="cls-3" d="M16.66,45a16.26,16.26,0,0,0-6.08-.66A3.06,3.06,0,0,0,8.44,45a2.43,2.43,0,0,0-.61,1.32A4.07,4.07,0,0,0,8,48.46,5.61,5.61,0,0,0,10.39,51a11.83,11.83,0,0,0,3.08,1.5,5.31,5.31,0,0,0,3.38-.06"/><path class="cls-2" d="M16.94,44.56a13.1,13.1,0,0,0-7.28-1c-2,.28-2.9,1.9-2.86,3.85.09,4.3,6.68,7.3,10.32,6a1,1,0,0,0-.54-1.95c-2.44.68-7.56-1.05-7.88-4.06-.24-2.18,1.46-2.14,3.11-2.17a23.86,23.86,0,0,1,4.7.36c.57.1,1-.7.43-1Z"/><path class="cls-4" d="M13.17,39.83c.84,4.27,1.52,7.12,3.93,10.74s6.75,6.32,11,5.48a11.68,11.68,0,0,0,5.48-3c3.76-3.42,5.42-8.21,5.62-13.29"/><path class="cls-2" d="M12.81,39.83C13.33,47.15,17.54,56.54,26,57c8.81.47,13.9-9.7,14-17.23,0-1-1.43-1-1.55,0C37.6,46.61,33.26,57.64,24.13,55c-6.88-2-8.6-9.42-10.6-15.28-.12-.36-.74-.33-.71.1Z"/><path class="cls-3" d="M13.66,41.58A119,119,0,0,0,37.2,43.07a3.72,3.72,0,0,0,2.68-2.66c.11-1-2.28-2.15-3.27-2.4-7.32-1.86-15.28-2.89-22.26,0a3,3,0,0,0-1,.63,2.19,2.19,0,0,0,.36,3"/><path class="cls-2" d="M13.55,42a64.57,64.57,0,0,0,12.77,1.74c3,.19,8.16,1.09,11.09.11s4.31-3.58,1.66-5.6c-4.54-3.47-14.82-3.42-20-2.54-3.38.58-9.55,2.18-6,6.51.64.78,1.81-.22,1.35-1-2.12-3.88,10.87-4,11.82-4a49.24,49.24,0,0,1,6.73.89q1.72.34,3.43.75,4,2.91.5,3.14c-2.58,1.48-8.62.38-11.49.21-3.92-.23-7.82-.83-11.74-1a.4.4,0,0,0-.11.78Z"/><path class="cls-3" d="M66.48,21.39a119,119,0,0,1-23.58.49c-1-.09-2.22-.3-2.74-1.19A2.26,2.26,0,0,1,40.87,18a6.36,6.36,0,0,1,2.83-1.11c7.39-1.54,15.39-2.24,22.25.92a3,3,0,0,1,1,.67,2.19,2.19,0,0,1-.48,3"/><path class="cls-2" d="M66.48,21c-3.62,0-7.23.39-10.86.48-3.23.08-9.38,1-12.27-.36q-3.52.24.57-3.45,1.29-.26,2.59-.46a53.29,53.29,0,0,1,6.76-.71c1.36,0,14.87.47,12.46,4.46-.5.82.69,1.79,1.35,1,6.8-7.67-22.05-9-26.63-4.75-2.66,2.48-.75,4.86,2.23,5.38a65.38,65.38,0,0,0,23.9-.85.4.4,0,0,0-.11-.78Z"/><path class="cls-2" d="M46.61,38.46a13,13,0,0,0,5.49,1.26c.61,0,1.23.08,1.84.1,1.35,0-.91-.31-.05,0a10.83,10.83,0,0,0,1.39.31c4.84,1,9.71-2.18,9.71-7.4s-4.87-8.41-9.71-7.4c-.38.08-.75.16-1.12.26-1.6.42.9.07,0,0-.69,0-1.41,0-2.1.05a13.77,13.77,0,0,0-5.49,1.15c-4.64,2-4.19,9.51,0,11.67Z"/></g></g></svg>