<?xml version="1.0" standalone="no"?>
<!DOCTYPE svg PUBLIC "-//W3C//DTD SVG 1.1//EN" "http://www.w3.org/Graphics/SVG/1.1/DTD/svg11.dtd" >
<svg xmlns="http://www.w3.org/2000/svg" xmlns:xlink="http://www.w3.org/1999/xlink" version="1.1">
<metadata>
Created by FontForge 20161013 at Tue Feb  3 16:57:07 2009
 By ,,,
Copyright (c) 2008 Typotheque.com All rights reserved.
</metadata>
<defs>
<font id="GretaDisplayPro-Light" horiz-adv-x="570" >
  <font-face 
    font-family="Greta Display Pro Light"
    font-weight="300"
    font-stretch="normal"
    units-per-em="1000"
    panose-1="2 0 5 6 0 0 0 2 0 4"
    ascent="710"
    descent="-290"
    x-height="450"
    cap-height="583"
    bbox="-433 -384 1141 888"
    underline-thickness="50"
    underline-position="-200"
    unicode-range="U+0020-FB04"
  />
<missing-glyph horiz-adv-x="712" 
d="M305 375v27h27v-27h-27zM380 525v27h27v-27h-27zM305 525v27h27v-27h-27zM230 525v27h27v-27h-27zM80 0v27h27v-27h-27zM155 0v27h27v-27h-27zM230 0v27h27v-27h-27zM305 0v27h27v-27h-27zM380 0v27h27v-27h-27zM80 75v27h27v-27h-27zM80 150v27h27v-27h-27zM80 225v27
h27v-27h-27zM80 300v27h27v-27h-27zM80 375v27h27v-27h-27zM80 450v27h27v-27h-27zM80 525v27h27v-27h-27zM80 600v27h27v-27h-27zM80 675v27h27v-27h-27zM155 675v27h27v-27h-27zM230 675v27h27v-27h-27zM305 675v27h27v-27h-27zM380 675v27h27v-27h-27zM455 675v27h27v-27
h-27zM530 675v27h27v-27h-27zM530 0v27h27v-27h-27zM455 0v27h27v-27h-27zM605 0v27h27v-27h-27zM605 675v27h27v-27h-27zM305 300v27h27v-27h-27zM305 150v27h27v-27h-27zM380 375v27h27v-27h-27zM455 375v27h27v-27h-27zM455 450v27h27v-27h-27zM455 525v27h27v-27h-27z
M605 600v27h27v-27h-27zM605 525v27h27v-27h-27zM605 375v27h27v-27h-27zM605 300v27h27v-27h-27zM605 150v27h27v-27h-27zM605 75v27h27v-27h-27zM605 225v27h27v-27h-27zM605 450v27h27v-27h-27z" />
    <glyph glyph-name="f_f" unicode="ff" horiz-adv-x="552" 
d="M286 0v10l79 20v396h-200v-394l94 -21v-11h-244v10l79 20v396h-81v6l81 19v57q0 95 55.5 144.5t145.5 49.5q69 0 146 -30q28 21 63 27q28 7 50 7q26 0 45 -5l-15 -79h-6l-106 48q-36 -31 -36 -102v-118h98v-24h-98v-394l94 -21v-11h-244zM165 538v-88h195l5 1v87
q0 41 26 82q-74 37 -172 46q-26 -14 -40 -52.5t-14 -75.5z" />
    <glyph glyph-name="fi" unicode="fi" horiz-adv-x="529" 
d="M284 0v10l80 14v402h-199v-394l94 -21v-11h-244v10l79 20v396h-81v6l81 19v87q0 77 59.5 123t141.5 46q59 0 106 -23l-32 -76l-168 63q-36 -32 -36 -103v-118h183l57 9h30v-435l83 -13v-11h-234z" />
    <glyph glyph-name="fl" unicode="fl" horiz-adv-x="521" 
d="M285 0v10l80 20v599l-164 42q-36 -32 -36 -103v-118h124v-24h-124v-394l94 -21v-11h-244v10l79 20v396h-81v6l81 19v87q0 77 59.5 123t141.5 46q35 0 70 -9l20 5h52v-672l82 -20v-11h-234z" />
    <glyph glyph-name="f_f_i" unicode="ffi" horiz-adv-x="800" 
d="M555 0v10l80 14v402h-199v-394l94 -21v-11h-244v10l79 20v396h-200v-394l94 -21v-11h-244v10l79 20v396h-81v6l81 19v57q0 95 55.5 144.5t145.5 49.5q69 0 146 -30q28 21 63 27q28 7 50 7q20 0 45 -5l-15 -79h-6l-106 48q-36 -31 -36 -102v-118h183l57 9h30v-435l83 -13
v-11h-234zM365 538q0 41 26 82q-74 37 -172 46q-26 -14 -40 -52.5t-14 -75.5v-88h195l5 1v87z" />
    <glyph glyph-name="f_f_l" unicode="ffl" horiz-adv-x="792" 
d="M556 0v10l80 20v599l-164 42q-36 -32 -36 -103v-118h124v-24h-124v-394l94 -21v-11h-244v10l79 20v396h-200v-394l94 -21v-11h-244v10l79 20v396h-81v6l81 19v57q0 95 55.5 144.5t145.5 49.5q69 0 146 -30q53 35 125 35q36 0 70 -9l20 5h52v-672l82 -20v-11h-234z
M365 538q0 48 24 84q-73 35 -170 44q-26 -14 -40 -52.5t-14 -75.5v-88h195l5 1v87z" />
    <glyph glyph-name="uni0045030A" unicode="E&#x2da;" horiz-adv-x="501" 
d="M423 280l-224 4v-257h222l47 115l17 -6l-16 -136h-450v13l99 12v532l-99 12v14h448v-132h-24l-29 106h-215v-247l224 4v-34zM307 629q-26 0 -49.5 20t-23.5 54q0 32 20 52t53 20t53.5 -20.5t20.5 -51.5q0 -33 -21.5 -53.5t-52.5 -20.5zM307 647q26 0 41 14.5t15 41.5
q0 25 -15.5 40t-40.5 15q-26 0 -40.5 -14.5t-14.5 -40.5q0 -27 17 -41.5t38 -14.5z" />
    <glyph glyph-name="uni00460304" unicode="F&#xaf;" horiz-adv-x="467" 
d="M19 583h448v-132h-24l-29 106h-215v-256l224 5v-35l-224 5v-250l101 -12v-14h-281v13l99 12v532l-99 12v14zM425 668h-245v26h245v-26z" />
    <glyph glyph-name="uni00480331" unicode="H&#x331;" horiz-adv-x="689" 
d="M390 0v13l98 12v259h-289v-258l101 -12v-14h-281v13l99 12v532l-99 12v14h281v-13l-101 -13v-247h289v247l-98 12v14h281v-13l-101 -13v-531l101 -12v-14h-281zM469 -125h-246v28h246v-28z" />
    <glyph glyph-name="uni004A0301" unicode="J&#xb4;" horiz-adv-x="401" 
d="M134 -9q-74 0 -133 21v161h21l32 -135q34 -18 78 -18q38 0 62 32.5t24 94.5v410l-99 12v14h282v-13l-101 -13v-407q0 -70 -51 -114.5t-115 -44.5zM350 746l28 -64l-195 -68l-6 13z" />
    <glyph glyph-name="uni004D0310" unicode="M&#x310;" horiz-adv-x="791" 
d="M524 0v13l89 12l-40 444h-4l-183 -477h-32l-196 506h-4l-41 -459l98 -25v-14h-217v13l84 25l50 507l-85 24v14h173l183 -487l178 487h162v-13l-93 -15l54 -530l89 -11v-14h-265zM401 625q-94 0 -118 80l34 12q26 -57 83 -57q68 0 98 54l15 -10q-10 -36 -42.5 -57.5
t-69.5 -21.5zM362 740q0 17 11 28.5t28 11.5t28.5 -11.5t11.5 -28.5q0 -16 -11.5 -27.5t-28.5 -11.5t-28 11.5t-11 27.5z" />
    <glyph glyph-name="uni004E0304" unicode="N&#xaf;" horiz-adv-x="628" 
d="M21 0v13l78 23v507l-80 26v14h138l344 -431v394l-87 23v14h203v-13l-78 -22v-556h-18l-384 487v-444l87 -21v-14h-203zM449 668h-245v26h245v-26z" />
    <glyph glyph-name="uni00500304" unicode="P&#xaf;" horiz-adv-x="521" 
d="M19 0v13l99 12v532l-99 12v14h281q196 0 196 -171q0 -77 -65.5 -124t-172.5 -47h-59v-215l101 -12v-14h-281zM270 555h-71v-288h55q78 0 119.5 35.5t41.5 105.5q0 67 -38.5 107t-106.5 40zM407 668h-245v26h245v-26z" />
    <glyph glyph-name="uni00520300" unicode="R`" horiz-adv-x="574" 
d="M449 0l-166 275q-11 -1 -34 -1h-50v-248l101 -12v-14h-281v13l99 12v532l-99 12v14h273q196 0 196 -151q0 -107 -122 -143l12 -19l153 -241l53 -18v-11h-135zM262 555h-63v-255h47q69 2 114.5 37t45.5 91q0 58 -37.5 92t-106.5 35zM132 682l33 62l168 -117l-6 -13z" />
    <glyph glyph-name="uni00520325" unicode="R&#x325;" horiz-adv-x="574" 
d="M449 0l-166 275q-11 -1 -34 -1h-50v-248l101 -12v-14h-281v13l99 12v532l-99 12v14h273q196 0 196 -151q0 -107 -122 -143l12 -19l153 -241l53 -18v-11h-135zM262 555h-63v-255h47q69 2 114.5 37t45.5 91q0 58 -37.5 92t-106.5 35zM293 -203q-26 0 -49.5 20t-23.5 54
q0 32 20 52t53 20t53.5 -20.5t20.5 -51.5q0 -33 -21.5 -53.5t-52.5 -20.5zM293 -185q26 0 41 14.5t15 41.5q0 25 -15.5 40t-40.5 15q-26 0 -40.5 -14.5t-14.5 -40.5q0 -27 17 -41.5t38 -14.5z" />
    <glyph glyph-name="uni005203250304" unicode="R&#x325;&#xaf;" horiz-adv-x="574" 
d="M449 0l-166 275q-11 -1 -34 -1h-50v-248l101 -12v-14h-281v13l99 12v532l-99 12v14h273q196 0 196 -151q0 -107 -122 -143l12 -19l153 -241l53 -18v-11h-135zM262 555h-63v-255h47q69 2 114.5 37t45.5 91q0 58 -37.5 92t-106.5 35zM293 -203q-26 0 -49.5 20t-23.5 54
q0 32 20 52t53 20t53.5 -20.5t20.5 -51.5q0 -33 -21.5 -53.5t-52.5 -20.5zM293 -185q26 0 41 14.5t15 41.5q0 25 -15.5 40t-40.5 15q-26 0 -40.5 -14.5t-14.5 -40.5q0 -27 17 -41.5t38 -14.5zM407 668h-245v26h245v-26z" />
    <glyph glyph-name="uni00530331" unicode="S&#x331;" horiz-adv-x="437" 
d="M368 417l-32 115q-46 33 -103 33q-58 0 -91.5 -30.5t-33.5 -74.5q0 -43 32 -71.5t90 -51.5q4 -2 13 -5q33 -13 50 -20t44 -23t40.5 -32t24 -41.5t10.5 -56.5q0 -82 -66 -124.5t-156 -42.5q-85 0 -165 34v143h18l36 -117q56 -34 126 -34q126 0 126 120q0 25 -10.5 44
t-35.5 34t-42.5 22.5t-55.5 22.5q-34 13 -56.5 25t-46.5 31t-36.5 45.5t-12.5 60.5q0 74 55 121.5t132 47.5q97 0 165 -35v-140h-19zM348 -125h-246v28h246v-28z" />
    <glyph glyph-name="uni00530300" unicode="S`" horiz-adv-x="437" 
d="M368 417l-32 115q-46 33 -103 33q-58 0 -91.5 -30.5t-33.5 -74.5q0 -43 32 -71.5t90 -51.5q4 -2 13 -5q33 -13 50 -20t44 -23t40.5 -32t24 -41.5t10.5 -56.5q0 -82 -66 -124.5t-156 -42.5q-85 0 -165 34v143h18l36 -117q56 -34 126 -34q126 0 126 120q0 25 -10.5 44
t-35.5 34t-42.5 22.5t-55.5 22.5q-34 13 -56.5 25t-46.5 31t-36.5 45.5t-12.5 60.5q0 74 55 121.5t132 47.5q97 0 165 -35v-140h-19zM95 682l33 62l168 -117l-6 -13z" />
    <glyph glyph-name="uni00530306" unicode="S&#x2d8;" horiz-adv-x="437" 
d="M368 417l-32 115q-46 33 -103 33q-58 0 -91.5 -30.5t-33.5 -74.5q0 -43 32 -71.5t90 -51.5q4 -2 13 -5q33 -13 50 -20t44 -23t40.5 -32t24 -41.5t10.5 -56.5q0 -82 -66 -124.5t-156 -42.5q-85 0 -165 34v143h18l36 -117q56 -34 126 -34q126 0 126 120q0 25 -10.5 44
t-35.5 34t-42.5 22.5t-55.5 22.5q-34 13 -56.5 25t-46.5 31t-36.5 45.5t-12.5 60.5q0 74 55 121.5t132 47.5q97 0 165 -35v-140h-19zM245 625q-85 0 -105 90l37 12q20 -73 77 -73q55 0 79 65l10 -5q-7 -36 -36.5 -62.5t-61.5 -26.5z" />
    <glyph glyph-name="uni00540308" unicode="T&#xa8;" horiz-adv-x="510" 
d="M114 0v13l99 12v531h-151l-38 -139h-19v166h500v-166h-19l-45 139h-146v-530l101 -12v-14h-282zM130 678q0 19 12.5 31t31.5 12q18 0 30.5 -12t12.5 -31q0 -18 -12.5 -31t-30.5 -13q-19 0 -31.5 13t-12.5 31zM308 678q0 19 12.5 31t31.5 12q18 0 30.5 -12t12.5 -31
q0 -18 -12.5 -31t-30.5 -13q-19 0 -31.5 13t-12.5 31z" />
    <glyph glyph-name="uni00560304" unicode="V&#xaf;" horiz-adv-x="567" 
d="M255 0l-209 563l-50 9v11h224v-10l-82 -14l168 -483h4l170 471l-96 25v11h187v-10l-56 -23l-203 -550h-57zM433 668h-245v26h245v-26z" />
    <glyph glyph-name="uni00580304" unicode="X&#xaf;" 
d="M327 0v14l77 14l-138 226l-146 -219l82 -20v-15h-199v14l68 21l181 242l-172 279l-68 12v15h238v-14l-79 -17l129 -207l134 199l-68 24v15h173v-14l-60 -23l-165 -224l185 -295l68 -12v-15h-240zM428 668h-245v26h245v-26z" />
    <glyph glyph-name="uni005A0324" unicode="Z&#x324;" horiz-adv-x="464" 
d="M17 0l-6 19l326 537h-259l-34 -139h-21v166h411l8 -12l-340 -544h284l45 132l19 -4l-14 -155h-419zM97 -105q0 19 12.5 31t31.5 12q18 0 30.5 -12t12.5 -31q0 -18 -12.5 -31t-30.5 -13q-19 0 -31.5 13t-12.5 31zM275 -105q0 19 12.5 31t31.5 12q18 0 30.5 -12t12.5 -31
q0 -18 -12.5 -31t-30.5 -13q-19 0 -31.5 13t-12.5 31z" />
    <glyph glyph-name="uni0065030A" unicode="e&#x2da;" horiz-adv-x="417" 
d="M95 227q0 -88 48.5 -138.5t120.5 -50.5q25 0 58 12t58 32l11 -19q-20 -26 -65 -48.5t-95 -22.5q-102 0 -155.5 59.5t-53.5 165.5q0 104 54 173t144 69q168 0 175 -217h-300v-15zM213 437q-43 0 -76 -44.5t-41 -124.5h215q2 74 -23 121.5t-75 47.5zM226 532
q-26 0 -49.5 20t-23.5 54q0 32 20 52t53 20t53.5 -20.5t20.5 -51.5q0 -33 -21.5 -53.5t-52.5 -20.5zM226 550q26 0 41 14.5t15 41.5q0 25 -15.5 40t-40.5 15q-26 0 -40.5 -14.5t-14.5 -40.5q0 -27 17 -41.5t38 -14.5z" />
    <glyph glyph-name="uni00660304" unicode="f&#xaf;" horiz-adv-x="281" 
d="M15 0v10l79 20v396h-81v6l81 19v87q0 70 58 119t132 49q25 0 44 -5l-15 -79h-6l-106 48q-36 -31 -36 -102v-118h98v-24h-98v-394l94 -21v-11h-244zM352 781h-246v28h246v-28z" />
    <glyph glyph-name="uni006A0301" unicode="j&#xb4;" horiz-adv-x="237" 
d="M163 -2q0 -61 -34 -114t-90 -91l-9 10q38 35 50 71t12 130v408h-85v11l126 36h30v-461zM193 693l45 -54l-169 -119l-10 8z" />
    <glyph glyph-name="uni006D0310" unicode="m&#x310;" horiz-adv-x="822" 
d="M308 0v10l82 21v253q0 66 -24 95t-75 29q-65 0 -121 -47v-330l83 -20v-11h-234v10l80 20v382h-85v11l111 36h37l7 -85q83 85 166 85q86 0 115 -84q82 84 164 84q65 0 95.5 -44.5t30.5 -117.5v-266l81 -20v-11h-234v10l82 21v253q0 65 -24 94.5t-75 29.5q-60 0 -117 -43
q8 -34 8 -68v-266l81 -20v-11h-234zM433 530q-45 0 -77 25t-41 65l34 12q8 -30 31.5 -48.5t51.5 -18.5q74 0 98 64l15 -10q-7 -35 -41 -62t-71 -27zM390 663q0 19 12 31.5t31 12.5q18 0 31 -12.5t13 -31.5q0 -18 -13 -30.5t-31 -12.5q-19 0 -31 12.5t-12 30.5z" />
    <glyph glyph-name="uni006E0304" unicode="n&#xaf;" horiz-adv-x="551" 
d="M19 0v10l80 20v382h-85v11l111 36h37l7 -85q85 85 174 85q65 0 95.5 -44.5t30.5 -117.5v-266l81 -20v-11h-234v10l82 21v252q0 125 -99 125q-70 0 -129 -47v-330l83 -20v-11h-234zM405 597h-246v28h246v-28z" />
    <glyph glyph-name="uni007000AF" unicode="p&#xaf;" horiz-adv-x="494" 
d="M16 -207v10l80 22v587h-85v11l111 36h37l7 -60q69 60 135 60q170 0 170 -224q0 -105 -67.5 -174.5t-164.5 -69.5q-41 0 -72 9v-174l93 -22v-11h-244zM272 411q-55 0 -105 -25v-336q42 -30 97 -30q35 0 61 18t39.5 48t19.5 62.5t6 68.5q0 83 -31 138.5t-87 55.5zM385 597
h-246v28h246v-28z" />
    <glyph glyph-name="uni00720325" unicode="r&#x325;" horiz-adv-x="353" 
d="M19 0v10l80 20v382h-85v11l111 36h37l5 -59q71 59 140 59q26 0 46 -5l-23 -75h-3l-94 24l-66 -8l3 -25v-338l93 -21v-11h-244zM133 -203q-26 0 -49.5 20t-23.5 54q0 32 20 52t53 20t53.5 -20.5t20.5 -51.5q0 -33 -21.5 -53.5t-52.5 -20.5zM133 -185q26 0 41 14.5t15 41.5
q0 25 -15.5 40t-40.5 15q-26 0 -40.5 -14.5t-14.5 -40.5q0 -27 17 -41.5t38 -14.5z" />
    <glyph glyph-name="uni007203250304" unicode="r&#x325;&#xaf;" horiz-adv-x="353" 
d="M19 0v10l80 20v382h-85v11l111 36h37l5 -59q71 59 140 59q26 0 46 -5l-23 -75h-3l-94 24l-66 -8l3 -25v-338l93 -21v-11h-244zM135 -203q-26 0 -49.5 20t-23.5 54q0 32 20 52t53 20t53.5 -20.5t20.5 -51.5q0 -33 -21.5 -53.5t-52.5 -20.5zM135 -185q26 0 41 14.5t15 41.5
q0 25 -15.5 40t-40.5 15q-26 0 -40.5 -14.5t-14.5 -40.5q0 -27 17 -41.5t38 -14.5zM323 596h-246v28h246v-28z" />
    <glyph glyph-name="uni00720300" unicode="r`" horiz-adv-x="353" 
d="M19 0v10l80 20v382h-85v11l111 36h37l5 -59q71 59 140 59q26 0 46 -5l-23 -75h-3l-94 24l-66 -8l3 -25v-338l93 -21v-11h-244zM43 639l45 54l134 -165l-10 -8z" />
    <glyph glyph-name="uni00730331" unicode="s&#x331;" horiz-adv-x="371" 
d="M172 -8q-76 0 -144 30v123h12l33 -99q45 -24 99 -24q46 0 77 20.5t31 62.5q0 35 -25.5 54t-61.5 27.5t-72.5 19.5t-62 40t-25.5 79q0 62 48 98t117 36q72 0 129 -28v-112h-12l-24 83q-51 28 -106 28q-42 0 -68.5 -20t-26.5 -64q0 -36 26 -54.5t63 -26t74.5 -17.5
t63.5 -38t26 -77q0 -72 -50 -106.5t-121 -34.5zM299 -125h-246v28h246v-28z" />
    <glyph glyph-name="uni00730300" unicode="s`" horiz-adv-x="371" 
d="M172 -8q-76 0 -144 30v123h12l33 -99q45 -24 99 -24q46 0 77 20.5t31 62.5q0 35 -25.5 54t-61.5 27.5t-72.5 19.5t-62 40t-25.5 79q0 62 48 98t117 36q72 0 129 -28v-112h-12l-24 83q-51 28 -106 28q-42 0 -68.5 -20t-26.5 -64q0 -36 26 -54.5t63 -26t74.5 -17.5
t63.5 -38t26 -77q0 -72 -50 -106.5t-121 -34.5zM65 640l45 54l134 -165l-10 -8z" />
    <glyph glyph-name="uni00730306" unicode="s&#x2d8;" horiz-adv-x="371" 
d="M172 -8q-76 0 -144 30v123h12l33 -99q45 -24 99 -24q46 0 77 20.5t31 62.5q0 35 -25.5 54t-61.5 27.5t-72.5 19.5t-62 40t-25.5 79q0 62 48 98t117 36q72 0 129 -28v-112h-12l-24 83q-51 28 -106 28q-42 0 -68.5 -20t-26.5 -64q0 -36 26 -54.5t63 -26t74.5 -17.5
t63.5 -38t26 -77q0 -72 -50 -106.5t-121 -34.5zM201 541q-85 0 -105 90l37 12q18 -67 67 -67q60 0 84 64l15 -10q-7 -36 -36.5 -62.5t-61.5 -26.5z" />
    <glyph glyph-name="uni00760304" unicode="v&#xaf;" horiz-adv-x="471" 
d="M479 450v-10l-78 -26l-147 -414h-37l-175 425l-50 14v11h210v-10l-75 -22l131 -333h3l111 328l-76 26v11h183zM370 597h-246v28h246v-28z" />
    <glyph glyph-name="uni00780304" unicode="x&#xaf;" horiz-adv-x="495" 
d="M115 39l79 -28v-11h-193v10l70 27l144 175l-145 211l-59 16v11h210v-10l-61 -18l99 -156l110 144l-71 29v11h193v-10l-89 -30l-130 -165l154 -216l68 -18v-11h-209v10l48 14l-103 166zM388 597h-246v28h246v-28z" />
    <glyph glyph-name="uni007A0324" unicode="z&#x324;" horiz-adv-x="377" 
d="M367 143l-22 -143h-323l-10 29l248 397h-175l-54 -92l-10 3l13 113h307l11 -18l-262 -408h201l69 121zM53 -105q0 19 12.5 31t31.5 12q18 0 30.5 -12t12.5 -31q0 -18 -12.5 -31t-30.5 -13q-19 0 -31.5 13t-12.5 31zM231 -105q0 19 12.5 31t31.5 12q18 0 30.5 -12
t12.5 -31q0 -18 -12.5 -31t-30.5 -13q-19 0 -31.5 13t-12.5 31z" />
    <glyph glyph-name="f_h" unicode="fh" horiz-adv-x="822" 
d="M285 0v10l80 20v599l-164 42q-36 -32 -36 -103v-118h124v-24h-124v-394l94 -21v-11h-244v10l79 20v396h-81v6l81 19v87q0 77 59.5 123t141.5 46q35 0 69 -9l21 5h52v-328q84 84 172 84q65 0 95.5 -44.5t30.5 -117.5v-266l81 -20v-11h-234v10l82 21v251q0 126 -99 126
q-71 0 -128 -46v-331l82 -20v-11h-234z" />
    <glyph glyph-name="f_b" unicode="fb" horiz-adv-x="764" 
d="M509 -9q-85 0 -144 45v593l-164 42q-36 -32 -36 -103v-118h124v-24h-124v-394l94 -21v-11h-244v10l79 20v396h-81v6l81 19v87q0 77 59.5 123t141.5 46q37 0 70 -10l21 6h51v-303q70 59 134 59q170 0 170 -224q0 -105 -67.5 -174.5t-164.5 -69.5zM542 411q-55 0 -105 -25
v-336q42 -30 97 -30q35 0 61 18t39.5 48t19.5 62.5t6 68.5q0 83 -31 138.5t-87 55.5z" />
    <glyph glyph-name="f_j" unicode="fj" horiz-adv-x="488" 
d="M311 -207l-9 10q38 35 50 71t12 130v422h-199v-394l94 -21v-11h-244v10l79 20v396h-81v6l81 19v87q0 77 59.5 123t141.5 46q57 0 106 -23l-26 -57l-174 44q-36 -32 -36 -103v-118h169l71 9h30v-461q0 -61 -34 -114t-90 -91z" />
    <glyph glyph-name="f_k" unicode="fk" horiz-adv-x="750" 
d="M285 0v10l80 20v599l-164 42q-36 -32 -36 -103v-118h124v-24h-124v-394l94 -21v-11h-244v10l79 20v396h-81v6l81 19v87q0 77 59.5 123t141.5 46q35 0 69 -9l21 5h52v-672l82 -20v-11h-234zM620 0l-154 235v8l161 170l-80 27v10h182v-11l-68 -27l-134 -140l157 -238
l74 -24v-10h-138z" />
    <glyph glyph-name="f_igrave" unicode="f&#xec;" horiz-adv-x="545" 
d="M300 0v10l80 14v402h-215v-394l94 -21v-11h-244v10l79 20v396h-81v6l81 19v87q0 72 53.5 120t126.5 48q25 0 44 -5l-15 -79h-6l-96 48q-36 -31 -36 -102v-118h185l71 9h30v-435l83 -13v-11h-234zM329 647l53 39l72 -140l-10 -8z" />
    <glyph glyph-name="f_idieresis" unicode="f&#xef;" horiz-adv-x="543" 
d="M299 0v10l80 14v402h-214v-394l94 -21v-11h-244v10l79 20v396h-81v6l81 19v87q0 69 55.5 118t128.5 49q23 0 40 -4l-15 -79h-6l-96 48q-36 -31 -36 -102v-118h195l60 9h30v-435l83 -13v-11h-234zM313 610q0 19 12.5 31t31.5 12q18 0 30.5 -12t12.5 -31q0 -18 -12.5 -31
t-30.5 -13q-19 0 -31.5 13t-12.5 31zM451 610q0 19 12.5 31t31.5 12q18 0 30.5 -12t12.5 -31q0 -18 -12.5 -31t-30.5 -13q-19 0 -31.5 13t-12.5 31z" />
    <glyph glyph-name="lambda_lambda" unicode="&#x3bb;&#x3bb;" horiz-adv-x="826" 
d="M402 606h-5q-13 26 -17 53q21 17 52.5 32t54.5 15q45 0 78.5 -31t47.5 -79l154 -531q11 -35 31 -35q22 0 43 7l5 -12q-53 -34 -96 -34q-38 0 -49 28l-109 384l-82 -280q-38 -132 -113 -132q-41 0 -58 11.5t-29 43.5l-101 357l-118 -403h-77v17l187 410l-45 159
q-28 100 -60 105q-15 -9 -38.5 -35t-38.5 -50h-5q-13 26 -17 53q21 17 52.5 32t54.5 15q45 0 78.5 -31t47.5 -79l154 -531q8 -26 18 -32h6l176 394l-45 159q-28 100 -60 105q-15 -9 -38.5 -35t-38.5 -50z" />
    <glyph glyph-name="gamma_gamma" unicode="&#x3b3;&#x3b3;" horiz-adv-x="817" 
d="M608 -204q-20 -9 -47 -9q-22 0 -38 4q5 36 13.5 100t12.5 89q-43 218 -96 349q-18 44 -29 66h-8q-32 -65 -96 -226t-74 -183q4 -108 4 -190q-20 -9 -47 -9q-22 0 -38 4q5 36 13.5 100t12.5 89q-50 257 -99 364q-29 61 -44 73q-12 9 -23 9q-19 0 -31 -5l-4 10q8 8 38.5 18
t55.5 10q29 0 41.5 -9.5t25.5 -42.5q20 -49 47.5 -156.5t44.5 -212.5h6l137 413q26 7 42 7q32 0 63 -17q23 -57 58.5 -180t51.5 -223h6l137 413q48 1 76 -18q-7 -15 -98.5 -201.5t-117.5 -245.5q4 -108 4 -190z" />
    <glyph glyph-name=".notdef" horiz-adv-x="712" 
d="M305 375v27h27v-27h-27zM380 525v27h27v-27h-27zM305 525v27h27v-27h-27zM230 525v27h27v-27h-27zM80 0v27h27v-27h-27zM155 0v27h27v-27h-27zM230 0v27h27v-27h-27zM305 0v27h27v-27h-27zM380 0v27h27v-27h-27zM80 75v27h27v-27h-27zM80 150v27h27v-27h-27zM80 225v27
h27v-27h-27zM80 300v27h27v-27h-27zM80 375v27h27v-27h-27zM80 450v27h27v-27h-27zM80 525v27h27v-27h-27zM80 600v27h27v-27h-27zM80 675v27h27v-27h-27zM155 675v27h27v-27h-27zM230 675v27h27v-27h-27zM305 675v27h27v-27h-27zM380 675v27h27v-27h-27zM455 675v27h27v-27
h-27zM530 675v27h27v-27h-27zM530 0v27h27v-27h-27zM455 0v27h27v-27h-27zM605 0v27h27v-27h-27zM605 675v27h27v-27h-27zM305 300v27h27v-27h-27zM305 150v27h27v-27h-27zM380 375v27h27v-27h-27zM455 375v27h27v-27h-27zM455 450v27h27v-27h-27zM455 525v27h27v-27h-27z
M605 600v27h27v-27h-27zM605 525v27h27v-27h-27zM605 375v27h27v-27h-27zM605 300v27h27v-27h-27zM605 150v27h27v-27h-27zM605 75v27h27v-27h-27zM605 225v27h27v-27h-27zM605 450v27h27v-27h-27z" />
    <glyph glyph-name=".null" horiz-adv-x="0" 
 />
    <glyph glyph-name="nonmarkingreturn" horiz-adv-x="333" 
 />
    <glyph glyph-name="space" unicode=" " horiz-adv-x="206" 
 />
    <glyph glyph-name="exclam" unicode="!" horiz-adv-x="253" 
d="M175 598l-42 -424h-13l-42 424h97zM68 46q0 23 17 40t40 17t39.5 -17t16.5 -40t-16.5 -39.5t-39.5 -16.5t-40 16.5t-17 39.5z" />
    <glyph glyph-name="quotedbl" unicode="&#x22;" horiz-adv-x="342" 
d="M57 395v198h79l-50 -198h-29zM213 395v198h82l-52 -198h-30z" />
    <glyph glyph-name="numbersign" unicode="#" horiz-adv-x="621" 
d="M83 403v29h148l34 151h28l-33 -151h159l34 151h28l-33 -151h130v-29h-137l-41 -190h138v-29h-145l-40 -184h-30l41 184h-159l-40 -184h-30l41 184h-133v29h139l43 190h-142zM253 403l-41 -190h158l43 190h-160z" />
    <glyph glyph-name="dollar" unicode="$" horiz-adv-x="473" 
d="M396 407l-31 129q-46 25 -105 25h-10v-215q36 -13 53 -19.5t47 -23t44.5 -33t26.5 -44.5t12 -62q0 -73 -52.5 -115t-130.5 -51v-75h-26v73q-3 0 -7.5 -0.5t-6.5 -0.5q-88 0 -169 36v152h12l32 -119q56 -34 125 -34h14v226q-33 11 -51 18t-45.5 21.5t-41.5 30t-25 40.5
t-11 56q0 73 50 118t124 51v76h26v-75q91 -1 158 -37v-148h-12zM352 153q0 35 -26 55.5t-76 38.5v-215q102 13 102 121zM123 450q0 -35 26 -55.5t75 -38.5v202q-101 -14 -101 -108z" />
    <glyph glyph-name="percent" unicode="%" horiz-adv-x="700" 
d="M40 420q0 73 36 118t91 45q57 0 92 -41t35 -119q0 -72 -35.5 -114.5t-91.5 -42.5q-57 0 -92 40t-35 114zM233 418q0 138 -69 138q-63 0 -63 -134q0 -63 18.5 -97t51.5 -34q62 0 62 127zM415 147q0 73 35.5 117.5t91.5 44.5q57 0 92 -41t35 -118q0 -72 -35.5 -115
t-91.5 -43q-57 0 -92 40.5t-35 114.5zM608 144q0 138 -69 138q-63 0 -63 -133q0 -63 19 -97.5t51 -34.5q62 0 62 127zM214 0h-37l311 583h40z" />
    <glyph glyph-name="ampersand" unicode="&#x26;" horiz-adv-x="669" 
d="M669 20v-20h-128q-36 19 -103 65q-89 -80 -219 -80q-87 0 -138.5 42t-51.5 111q0 112 117 168q-66 71 -66 138q0 55 49.5 101t130.5 46q77 0 117.5 -36t40.5 -89q0 -45 -46 -88t-121 -64q24 -23 63 -55q62 -53 150 -113q48 65 81 165l-77 27v17h191v-20l-72 -23
q-43 -115 -94 -186q101 -66 176 -106zM253 209q-70 60 -96 86q-45 -46 -45 -127q0 -55 37 -97.5t98 -42.5q93 0 162 58q-90 65 -156 123zM159 459q0 -53 78 -131q102 54 102 134q0 45 -22 71.5t-63 26.5q-45 0 -70 -28.5t-25 -72.5z" />
    <glyph glyph-name="quotesingle" unicode="'" horiz-adv-x="186" 
d="M57 395v198h80l-61 -198h-19z" />
    <glyph glyph-name="parenleft" unicode="(" horiz-adv-x="287" 
d="M226 -185q-28 24 -60 63.5t-65.5 96.5t-55.5 133t-22 153q0 68 23 139.5t57.5 127.5t66.5 95.5t58 62.5l20 -21q-24 -23 -52.5 -60t-61 -90.5t-54 -121t-21.5 -131.5q0 -73 21 -145.5t55 -128.5t60 -91t53 -63z" />
    <glyph glyph-name="parenright" unicode=")" horiz-adv-x="287" 
d="M54 -185l-21 20q26 27 52.5 62t60 91t54.5 128.5t21 145.5q0 64 -22 131.5t-55 121t-62 91t-53 60.5l23 20q26 -23 58 -62.5t66.5 -95.5t57.5 -127.5t23 -139.5q0 -77 -22 -153t-55.5 -133t-65.5 -96.5t-60 -63.5z" />
    <glyph glyph-name="asterisk" unicode="*" horiz-adv-x="371" 
d="M331 435l-6 -29l-23 -22l-106 85l21 -132l-28 -9l-28 9l21 133l-105 -86l-20 20l-8 30l132 47l-132 50l6 29l23 20l105 -85l-21 134l27 7l29 -7l-22 -133l107 84l23 -19l5 -30l-136 -49z" />
    <glyph glyph-name="plus" unicode="+" horiz-adv-x="495" 
d="M445 286h-178v-193h-39v193h-179v36h179v184h39v-184h178v-36z" />
    <glyph glyph-name="comma" unicode="," horiz-adv-x="245" 
d="M186 29q0 -56 -36 -107.5t-94 -84.5l-12 13q28 24 51 59.5t23 62.5q0 20 -13.5 36.5t-37.5 20.5q0 22 18 40.5t41 18.5q25 0 42.5 -17t17.5 -42z" />
    <glyph glyph-name="hyphen" unicode="-" horiz-adv-x="314" 
d="M273 230h-232v35h232v-35z" />
    <glyph glyph-name="period" unicode="." horiz-adv-x="232" 
d="M57 46q0 23 17 40t40 17t39.5 -17t16.5 -40t-16.5 -39.5t-39.5 -16.5t-40 16.5t-17 39.5z" />
    <glyph glyph-name="slash" unicode="/" horiz-adv-x="271" 
d="M269 672l-232 -763h-37l233 763h36z" />
    <glyph glyph-name="zero" unicode="0" horiz-adv-x="469" 
d="M442 299q0 -128 -57.5 -217.5t-156.5 -89.5q-103 0 -152 80t-49 209q0 121 58 215.5t157 94.5q56 0 96.5 -25.5t62.5 -69t31.5 -92.5t9.5 -105zM358 294q0 72 -12 130.5t-42 99t-76 40.5q-34 0 -59 -23.5t-38 -64.5t-19 -88t-6 -103q0 -118 33.5 -191.5t100.5 -73.5
q118 0 118 274z" />
    <glyph glyph-name="one" unicode="1" horiz-adv-x="377" 
d="M37 0v13l123 21v486h-137v12l188 59h25v-557l122 -20v-14h-321z" />
    <glyph glyph-name="two" unicode="2" horiz-adv-x="410" 
d="M399 130l-8 -130h-375l-9 43q281 237 281 378q0 60 -31.5 97.5t-82.5 37.5q-25 0 -50 -8t-49.5 -29t-35.5 -51h-14v73q62 50 156 50q79 0 134 -44.5t55 -129.5q0 -60 -50.5 -130t-116.5 -124.5t-146 -105.5h285l46 76z" />
    <glyph glyph-name="three" unicode="3" horiz-adv-x="396" 
d="M26 113h13q16 -41 54 -67t87 -26q48 0 82.5 35.5t34.5 94.5q0 58 -43 91.5t-135 33.5v31q55 4 102.5 44.5t47.5 100.5q0 46 -26.5 77t-72.5 31q-49 0 -75 -24.5t-50 -77.5h-14v83q63 51 148 51q67 0 116 -39t49 -97q0 -29 -14 -55.5t-34.5 -43t-38 -26.5t-30.5 -14v-4
q54 -4 99.5 -41.5t45.5 -95.5q0 -84 -67 -133.5t-149 -49.5q-74 0 -130 25v96z" />
    <glyph glyph-name="four" unicode="4" horiz-adv-x="436" 
d="M414 148h-82v-148h-76v148h-235l-21 42l274 393h58v-372h88zM51 211h205v291z" />
    <glyph glyph-name="five" unicode="5" horiz-adv-x="395" 
d="M23 96h16q18 -43 48 -60t83 -17q50 0 86 40t36 106q0 63 -45 98t-132 35q-28 0 -70 -5l24 290h290l-10 -73h-255l-13 -148q26 2 54 2q107 0 170.5 -47.5t63.5 -135.5q0 -82 -70.5 -136t-146.5 -54q-59 0 -129 25v80z" />
    <glyph glyph-name="six" unicode="6" horiz-adv-x="442" 
d="M220 -9q-94 0 -143 71.5t-49 180.5q0 150 67 249t181 99q50 0 107 -18v-74l-14 1q-41 59 -113 59q-57 0 -95 -67t-51 -166q62 44 139 44q71 0 120 -48.5t49 -121.5q0 -85 -53.5 -147t-144.5 -62zM218 327q-56 0 -110 -23q-3 -33 -3 -65q0 -86 31 -151.5t90 -65.5
q51 0 81.5 44.5t30.5 109.5q0 62 -30 106.5t-90 44.5z" />
    <glyph glyph-name="seven" unicode="7" horiz-adv-x="354" 
d="M61 0v16l259 494h-319l11 73h351l10 -28l-253 -555h-59z" />
    <glyph glyph-name="eight" unicode="8" horiz-adv-x="469" 
d="M226 -9q-88 0 -136.5 41.5t-48.5 112.5q0 47 31.5 87t84.5 62q-94 65 -94 144q0 61 47.5 107t118.5 46q80 0 132 -39t52 -103q0 -44 -26.5 -82.5t-72.5 -64.5q53 -30 83 -64t30 -81q0 -67 -59.5 -116.5t-141.5 -49.5zM344 139q0 21 -17.5 42t-37.5 33.5t-59.5 35.5
t-58.5 35q-49 -55 -49 -137q0 -57 29.5 -94.5t84.5 -37.5q49 0 78.5 35t29.5 88zM137 457q0 -11 2.5 -21t8.5 -19.5t11.5 -17t17 -16.5t19 -14.5t22.5 -14t23 -13t25.5 -13.5t24.5 -13q40 55 40 132q0 45 -23.5 81t-77.5 36q-47 0 -70 -31.5t-23 -75.5z" />
    <glyph glyph-name="nine" unicode="9" horiz-adv-x="442" 
d="M225 591q94 0 143 -71.5t49 -180.5q0 -150 -67 -249t-181 -99q-50 0 -107 18v74l14 -1q41 -59 113 -59q56 0 94 67t51 165q-63 -43 -138 -43q-71 0 -120 48.5t-49 121.5q0 85 53.5 147t144.5 62zM227 255q55 0 109 23q4 44 4 65q0 86 -31 151.5t-90 65.5
q-51 0 -81.5 -44.5t-30.5 -109.5q0 -62 30 -106.5t90 -44.5z" />
    <glyph glyph-name="colon" unicode=":" horiz-adv-x="246" 
d="M98 46q0 23 17 40t40 17t39.5 -17t16.5 -40t-16.5 -39.5t-39.5 -16.5t-40 16.5t-17 39.5zM98 402q0 23 17 40t40 17t39.5 -17t16.5 -40t-16.5 -39.5t-39.5 -16.5t-40 16.5t-17 39.5z" />
    <glyph glyph-name="semicolon" unicode=";" horiz-adv-x="246" 
d="M209 29q0 -56 -36 -107.5t-94 -84.5l-12 13q28 24 51 59.5t23 62.5q0 20 -13.5 36.5t-37.5 20.5q0 22 18 40.5t41 18.5q25 0 42.5 -17t17.5 -42zM98 402q0 23 17 40t40 17t39.5 -17t16.5 -40t-16.5 -39.5t-39.5 -16.5t-40 16.5t-17 39.5z" />
    <glyph glyph-name="less" unicode="&#x3c;" horiz-adv-x="495" 
d="M91 300l344 -182l-14 -29l-371 191v37l371 189l14 -30z" />
    <glyph glyph-name="equal" unicode="=" horiz-adv-x="536" 
d="M466 377h-396v39h396v-39zM466 179h-396v39h396v-39z" />
    <glyph glyph-name="greater" unicode="&#x3e;" horiz-adv-x="495" 
d="M54 116l347 182l-348 178l16 30l371 -189v-37l-371 -191z" />
    <glyph glyph-name="question" unicode="?" horiz-adv-x="326" 
d="M331 456q0 -37 -17.5 -66.5t-45.5 -47.5t-54.5 -28.5t-52.5 -15.5l-17 -121h-21l-15 131q21 7 42.5 17.5t48 28.5t43 43.5t16.5 53.5q0 52 -27.5 85.5t-69.5 33.5q-41 0 -78 -25l-28 -96h-14v116q64 32 129 32q71 0 116 -34.5t45 -106.5zM76 46q0 23 17 40t40 17
t39.5 -17t16.5 -40t-16.5 -39.5t-39.5 -16.5t-40 16.5t-17 39.5z" />
    <glyph glyph-name="at" unicode="@" horiz-adv-x="882" 
d="M476 5l27 154l-179 -167h-39q-13 46 -13 111q0 77 16 152.5t45 113.5q22 29 37 45t41 30t56 14q45 0 101 -28l24 29h30l-73 -415l10 -7q119 46 182 123t63 152q0 82 -32 148t-103.5 109t-173.5 43q-106 0 -199.5 -49t-154 -145.5t-60.5 -218.5q0 -173 109 -270t279 -97
q66 0 136 28.5t122 71.5l17 -22q-139 -107 -287 -107q-181 0 -297 107t-116 288q0 186 133.5 315t325.5 129q151 0 244.5 -92t93.5 -232q0 -112 -95 -201t-224 -125zM341 88l15 -5l157 136l30 160q-95 35 -133 26q-28 -40 -49.5 -121.5t-21.5 -157.5q0 -14 2 -38z" />
    <glyph glyph-name="A" unicode="A" horiz-adv-x="559" 
d="M339 0v10l84 14l-67 206h-196l-73 -195l96 -24v-11h-187v10l57 23l211 550h57l192 -563l50 -9v-11h-224zM263 506l-93 -249h178l-80 249h-5z" />
    <glyph glyph-name="B" unicode="B" horiz-adv-x="542" 
d="M19 0v13l99 12v532l-99 12v14h249q102 0 158 -34.5t56 -104.5q0 -45 -40.5 -82t-90.5 -48v-2q26 -1 53.5 -9.5t55.5 -24.5t45.5 -45t17.5 -67q0 -76 -58.5 -121t-171.5 -45h-274zM247 289h-48v-262h79q72 0 116.5 35.5t44.5 100.5q0 73 -49 99.5t-143 26.5zM247 560h-48
v-244h59q137 0 137 118q0 66 -40.5 96t-107.5 30z" />
    <glyph glyph-name="C" unicode="C" horiz-adv-x="552" 
d="M527 405h-21l-38 127q-54 35 -119 35q-97 0 -162.5 -71t-65.5 -199q0 -137 69.5 -208.5t176.5 -71.5q91 0 149 92h11v-79q-1 0 -18 -7.5t-34 -13.5t-49 -11.5t-68 -5.5q-150 0 -238.5 74.5t-88.5 222.5q0 131 91 217t233 86q87 0 172 -33v-154z" />
    <glyph glyph-name="D" unicode="D" horiz-adv-x="654" 
d="M19 0v13l99 12v532l-99 12v14h258q61 0 109 -6.5t93.5 -25t76 -49t49 -80t18.5 -116.5q0 -147 -94.5 -226.5t-246.5 -79.5h-263zM274 556h-75v-529h92q120 0 181 60.5t61 203.5q0 131 -60.5 198t-198.5 67z" />
    <glyph glyph-name="E" unicode="E" horiz-adv-x="501" 
d="M423 280l-224 4v-257h222l47 115l17 -6l-16 -136h-450v13l99 12v532l-99 12v14h448v-132h-24l-29 106h-215v-247l224 4v-34z" />
    <glyph glyph-name="F" unicode="F" horiz-adv-x="467" 
d="M19 583h448v-132h-24l-29 106h-215v-256l224 5v-35l-224 5v-250l101 -12v-14h-281v13l99 12v532l-99 12v14z" />
    <glyph glyph-name="G" unicode="G" horiz-adv-x="582" 
d="M506 405l-39 131q-49 31 -118 31q-96 0 -162 -73t-66 -197q0 -130 70 -202.5t176 -72.5q34 0 78 17v229l-99 12v14h181v-264q-1 0 -18 -7.5t-34 -13.5t-49 -11.5t-68 -5.5q-150 0 -238.5 74.5t-88.5 222.5q0 131 91 217t233 86q21 0 39.5 -1t34 -3.5t27 -4.5t23.5 -6
t17.5 -6t16.5 -6.5t14 -5.5v-154h-21z" />
    <glyph glyph-name="H" unicode="H" horiz-adv-x="689" 
d="M390 0v13l98 12v259h-289v-258l101 -12v-14h-281v13l99 12v532l-99 12v14h281v-13l-101 -13v-247h289v247l-98 12v14h281v-13l-101 -13v-531l101 -12v-14h-281z" />
    <glyph glyph-name="I" unicode="I" horiz-adv-x="345" 
d="M32 0v13l99 13v531l-99 12v14h281v-13l-101 -13v-531l101 -12v-14h-281z" />
    <glyph glyph-name="J" unicode="J" horiz-adv-x="401" 
d="M134 -9q-74 0 -133 21v161h21l32 -135q34 -18 78 -18q38 0 62 32.5t24 94.5v410l-99 12v14h282v-13l-101 -13v-407q0 -70 -51 -114.5t-115 -44.5z" />
    <glyph glyph-name="K" unicode="K" horiz-adv-x="586" 
d="M19 0v13l99 13v531l-99 12v14h281v-13l-101 -13v-531l101 -12v-14h-281zM440 0l-215 280v16l217 255l-74 20v12h201v-14l-88 -18l-193 -219l239 -308l67 -9v-15h-154z" />
    <glyph glyph-name="L" unicode="L" horiz-adv-x="482" 
d="M19 0v13l99 12v532l-99 12v14h281v-13l-101 -13v-530h213l54 141l21 -6l-27 -162h-441z" />
    <glyph glyph-name="M" unicode="M" horiz-adv-x="791" 
d="M524 0v13l89 12l-40 444h-4l-183 -477h-32l-196 506h-4l-41 -459l98 -25v-14h-217v13l84 25l50 507l-85 24v14h173l183 -487l178 487h162v-13l-93 -15l54 -530l89 -11v-14h-265z" />
    <glyph glyph-name="N" unicode="N" horiz-adv-x="628" 
d="M21 0v13l78 23v507l-80 26v14h138l344 -431v394l-87 23v14h203v-13l-78 -22v-556h-18l-384 487v-444l87 -21v-14h-203z" />
    <glyph glyph-name="O" unicode="O" horiz-adv-x="646" 
d="M615 314q0 -134 -82 -228t-217 -94q-129 0 -207 78t-78 205q0 139 83.5 228t217.5 89q129 0 206 -77.5t77 -200.5zM524 295q0 119 -50 195.5t-149 76.5q-101 0 -152.5 -75t-51.5 -196q0 -119 53 -198.5t145 -79.5q55 0 96 23.5t64 64t34 88t11 101.5z" />
    <glyph glyph-name="P" unicode="P" horiz-adv-x="521" 
d="M19 0v13l99 12v532l-99 12v14h281q196 0 196 -171q0 -77 -65.5 -124t-172.5 -47h-59v-215l101 -12v-14h-281zM270 555h-71v-288h55q78 0 119.5 35.5t41.5 105.5q0 67 -38.5 107t-106.5 40z" />
    <glyph glyph-name="Q" unicode="Q" horiz-adv-x="646" 
d="M615 314q0 -103 -51 -186t-140 -117l208 -101v-17h-120l-125 107q-35 -8 -71 -8q-129 0 -207 78t-78 205q0 139 83.5 228t217.5 89q129 0 206 -77.5t77 -200.5zM524 295q0 119 -50 195.5t-149 76.5q-101 0 -152.5 -75t-51.5 -196q0 -119 53 -198.5t145 -79.5
q55 0 96 23.5t64 64t34 88t11 101.5z" />
    <glyph glyph-name="R" unicode="R" horiz-adv-x="574" 
d="M449 0l-166 275q-11 -1 -34 -1h-50v-248l101 -12v-14h-281v13l99 12v532l-99 12v14h273q196 0 196 -151q0 -107 -122 -143l12 -19l153 -241l53 -18v-11h-135zM262 555h-63v-255h47q69 2 114.5 37t45.5 91q0 58 -37.5 92t-106.5 35z" />
    <glyph glyph-name="S" unicode="S" horiz-adv-x="437" 
d="M368 417l-32 115q-46 33 -103 33q-58 0 -91.5 -30.5t-33.5 -74.5q0 -43 32 -71.5t90 -51.5q4 -2 13 -5q33 -13 50 -20t44 -23t40.5 -32t24 -41.5t10.5 -56.5q0 -82 -66 -124.5t-156 -42.5q-85 0 -165 34v143h18l36 -117q56 -34 126 -34q126 0 126 120q0 25 -10.5 44
t-35.5 34t-42.5 22.5t-55.5 22.5q-34 13 -56.5 25t-46.5 31t-36.5 45.5t-12.5 60.5q0 74 55 121.5t132 47.5q97 0 165 -35v-140h-19z" />
    <glyph glyph-name="T" unicode="T" horiz-adv-x="510" 
d="M114 0v13l99 12v531h-151l-38 -139h-19v166h500v-166h-19l-45 139h-146v-530l101 -12v-14h-282z" />
    <glyph glyph-name="U" unicode="U" horiz-adv-x="635" 
d="M332 -8q-46 0 -85.5 10t-75.5 33t-57 67t-21 104v352l-81 11v14h263v-13l-100 -13v-346q0 -100 45.5 -144t115.5 -44q170 0 170 208v315l-97 23v14h213v-13l-78 -23v-319q0 -120 -62 -178t-150 -58z" />
    <glyph glyph-name="V" unicode="V" horiz-adv-x="567" 
d="M255 0l-209 563l-50 9v11h224v-10l-82 -14l168 -483h4l170 471l-96 25v11h187v-10l-56 -23l-203 -550h-57z" />
    <glyph glyph-name="W" unicode="W" horiz-adv-x="880" 
d="M225 0l-181 563l-48 9v11h224v-10l-83 -14l138 -477h4l147 501h54l158 -507h5l152 471l-98 25v11h187v-10l-54 -23l-185 -550h-59l-153 486h-4l-147 -486h-57z" />
    <glyph glyph-name="X" unicode="X" 
d="M327 0v14l77 14l-138 226l-146 -219l82 -20v-15h-199v14l68 21l181 242l-172 279l-68 12v15h238v-14l-79 -17l129 -207l134 199l-68 24v15h173v-14l-60 -23l-165 -224l185 -295l68 -12v-15h-240z" />
    <glyph glyph-name="Y" unicode="Y" horiz-adv-x="544" 
d="M136 0v13l99 13v213l-188 322l-41 8v14h212v-13l-79 -15l166 -283l137 273l-94 24v14h190v-13l-50 -17l-172 -314v-213l101 -12v-14h-281z" />
    <glyph glyph-name="Z" unicode="Z" horiz-adv-x="464" 
d="M17 0l-6 19l326 537h-259l-34 -139h-21v166h411l8 -12l-340 -544h284l45 132l19 -4l-14 -155h-419z" />
    <glyph glyph-name="bracketleft" unicode="[" horiz-adv-x="256" 
d="M213 -181h-115v861h115v-34h-79v-793h79v-34z" />
    <glyph glyph-name="backslash" unicode="\" horiz-adv-x="271" 
d="M232 -91l-232 763h36l233 -763h-37z" />
    <glyph glyph-name="bracketright" unicode="]" horiz-adv-x="257" 
d="M160 -181h-117v34h80v793h-80v34h117v-861z" />
    <glyph glyph-name="asciicircum" unicode="^" horiz-adv-x="447" 
d="M389 242h-38l-123 304l-138 -304h-38l156 341h45z" />
    <glyph glyph-name="underscore" unicode="_" horiz-adv-x="500" 
d="M500 -98h-500v46h500v-46z" />
    <glyph glyph-name="grave" unicode="`" horiz-adv-x="295" 
d="M55 640l45 54l134 -165l-10 -8z" />
    <glyph glyph-name="a" unicode="a" horiz-adv-x="436" 
d="M71 299h-16v125h1q77 35 147 35q65 0 107.5 -34.5t42.5 -104.5v-291l71 -19v-10h-127l-13 57q-63 -65 -141 -65q-53 0 -86.5 31t-33.5 85q0 60 57 101.5t151 41.5h51v82q0 102 -81 102q-50 0 -95 -34zM281 70l1 155h-67q-60 0 -92 -27t-32 -74q0 -42 22 -66t58 -24
q49 0 110 36z" />
    <glyph glyph-name="b" unicode="b" horiz-adv-x="469" 
d="M70 36v628h-84v12l105 27h51v-303q70 59 134 59q170 0 170 -224q0 -105 -67.5 -174.5t-164.5 -69.5q-85 0 -144 45zM247 411q-55 0 -105 -25v-336q42 -30 97 -30q35 0 61 18t39.5 48t19.5 62.5t6 68.5q0 83 -31 138.5t-87 55.5z" />
    <glyph glyph-name="c" unicode="c" horiz-adv-x="407" 
d="M363 286l-31 105q-47 44 -101 44q-56 0 -96 -50t-40 -151q0 -100 48 -148.5t122 -48.5q25 0 58 12t57 33l11 -19q-20 -27 -65 -49.5t-95 -22.5q-102 0 -155.5 60t-53.5 166q0 105 58 173.5t155 68.5q47 0 78.5 -8t70.5 -31v-134h-21z" />
    <glyph glyph-name="d" unicode="d" horiz-adv-x="480" 
d="M343 0l-15 54q-59 -62 -132 -62t-123.5 51.5t-50.5 163.5t61.5 182t150.5 70q50 0 92 -10v215h-84v12l105 27h51v-674l72 -19v-10h-127zM222 38q59 0 104 25v340q-34 32 -92 32q-64 0 -101 -54.5t-37 -146.5q0 -91 34 -143.5t92 -52.5z" />
    <glyph glyph-name="e" unicode="e" horiz-adv-x="417" 
d="M95 227q0 -88 48.5 -138.5t120.5 -50.5q25 0 58 12t58 32l11 -19q-20 -26 -65 -48.5t-95 -22.5q-102 0 -155.5 59.5t-53.5 165.5q0 104 54 173t144 69q168 0 175 -217h-300v-15zM213 437q-43 0 -76 -44.5t-41 -124.5h215q2 74 -23 121.5t-75 47.5z" />
    <glyph glyph-name="f" unicode="f" horiz-adv-x="281" 
d="M15 0v10l79 20v396h-81v6l81 19v87q0 70 58 119t132 49q25 0 44 -5l-15 -79h-6l-106 48q-36 -31 -36 -102v-118h98v-24h-98v-394l94 -21v-11h-244z" />
    <glyph glyph-name="g" unicode="g" horiz-adv-x="451" 
d="M213 176q-21 0 -41 3l-51 -64l131 -17q171 -24 171 -128q0 -71 -66.5 -127.5t-174.5 -56.5q-83 0 -128.5 36.5t-45.5 90.5q0 36 34 70t86 58l-74 10v37l101 95q-50 13 -78.5 46.5t-28.5 80.5q0 58 45.5 103.5t113.5 45.5q82 0 126 -46l111 37h7v-48h-109q28 -39 28 -90
q0 -54 -48 -95t-109 -41zM76 -81q0 -41 33 -70t97 -29t113 36.5t49 81.5q0 73 -136 90l-87 11q-69 -54 -69 -120zM210 201q39 0 59.5 28t20.5 78q0 128 -86 128q-36 0 -58 -30.5t-22 -86.5t22.5 -86.5t63.5 -30.5z" />
    <glyph glyph-name="h" unicode="h" horiz-adv-x="548" 
d="M11 0v10l80 20v634h-85v12l105 27h52v-328q84 84 172 84q65 0 95.5 -44.5t30.5 -117.5v-266l81 -20v-11h-234v10l82 21v251q0 126 -99 126q-71 0 -128 -46v-331l82 -20v-11h-234z" />
    <glyph glyph-name="i" unicode="i" horiz-adv-x="264" 
d="M19 0v10l80 14v388h-85v11l126 36h30v-435l83 -13v-11h-234zM84 619q0 22 15 36.5t37 14.5q21 0 36 -14.5t15 -36.5t-15 -36.5t-36 -14.5q-22 0 -37 14.5t-15 36.5z" />
    <glyph glyph-name="j" unicode="j" horiz-adv-x="237" 
d="M39 -207l-9 10q38 35 50 71t12 130v408h-85v11l126 36h30v-461q0 -61 -34 -114t-90 -91zM130 568q-22 0 -37 14.5t-15 36.5t15 36.5t37 14.5q21 0 36 -14.5t15 -36.5t-15 -36.5t-36 -14.5z" />
    <glyph glyph-name="k" unicode="k" horiz-adv-x="476" 
d="M11 0v10l80 20v634h-85v12l105 27h52v-672l82 -20v-11h-234zM192 235v8l161 170l-80 27v10h182v-11l-68 -27l-134 -140l157 -238l74 -24v-10h-138z" />
    <glyph glyph-name="l" unicode="l" horiz-adv-x="247" 
d="M11 0v10l80 20v634h-85v12l105 27h52v-672l82 -20v-11h-234z" />
    <glyph glyph-name="m" unicode="m" horiz-adv-x="822" 
d="M308 0v10l82 21v253q0 66 -24 95t-75 29q-65 0 -121 -47v-330l83 -20v-11h-234v10l80 20v382h-85v11l111 36h37l7 -85q83 85 166 85q86 0 115 -84q82 84 164 84q65 0 95.5 -44.5t30.5 -117.5v-266l81 -20v-11h-234v10l82 21v253q0 65 -24 94.5t-75 29.5q-60 0 -117 -43
q8 -34 8 -68v-266l81 -20v-11h-234z" />
    <glyph glyph-name="n" unicode="n" horiz-adv-x="551" 
d="M19 0v10l80 20v382h-85v11l111 36h37l7 -85q85 85 174 85q65 0 95.5 -44.5t30.5 -117.5v-266l81 -20v-11h-234v10l82 21v252q0 125 -99 125q-70 0 -129 -47v-330l83 -20v-11h-234z" />
    <glyph glyph-name="o" unicode="o" horiz-adv-x="451" 
d="M428 225q0 -93 -61 -163t-147 -70q-198 0 -198 228q0 94 61 166.5t145 72.5q200 0 200 -234zM348 213q0 37 -5 71t-17.5 71t-40 59t-66.5 22q-118 0 -118 -200q0 -39 6 -74.5t19.5 -70t41 -55t65.5 -20.5q36 0 60 16.5t35.5 46.5t15.5 61.5t4 72.5z" />
    <glyph glyph-name="p" unicode="p" horiz-adv-x="494" 
d="M16 -207v10l80 22v587h-85v11l111 36h37l7 -60q69 60 135 60q170 0 170 -224q0 -105 -67.5 -174.5t-164.5 -69.5q-41 0 -72 9v-174l93 -22v-11h-244zM272 411q-55 0 -105 -25v-336q42 -30 97 -30q35 0 61 18t39.5 48t19.5 62.5t6 68.5q0 83 -31 138.5t-87 55.5z" />
    <glyph glyph-name="q" unicode="q" horiz-adv-x="456" 
d="M231 -197l93 23v223q-59 -57 -128 -57q-71 0 -122.5 54.5t-51.5 160.5q0 112 61.5 182t150.5 70q40 0 87.5 -8.5t73.5 -20.5v-605l80 -21v-11h-244v10zM222 38q56 0 102 24v337q-35 32 -90 32q-64 0 -101 -53t-37 -144t34 -143.5t92 -52.5z" />
    <glyph glyph-name="r" unicode="r" horiz-adv-x="353" 
d="M19 0v10l80 20v382h-85v11l111 36h37l5 -59q71 59 140 59q26 0 46 -5l-23 -75h-3l-94 24l-66 -8l3 -25v-338l93 -21v-11h-244z" />
    <glyph glyph-name="s" unicode="s" horiz-adv-x="371" 
d="M172 -8q-76 0 -144 30v123h12l33 -99q45 -24 99 -24q46 0 77 20.5t31 62.5q0 35 -25.5 54t-61.5 27.5t-72.5 19.5t-62 40t-25.5 79q0 62 48 98t117 36q72 0 129 -28v-112h-12l-24 83q-51 28 -106 28q-42 0 -68.5 -20t-26.5 -64q0 -36 26 -54.5t63 -26t74.5 -17.5
t63.5 -38t26 -77q0 -72 -50 -106.5t-121 -34.5z" />
    <glyph glyph-name="t" unicode="t" horiz-adv-x="313" 
d="M308 34l4 -14q-59 -28 -114 -28q-56 0 -91.5 32t-34.5 99v301h-66v8l70 20l58 115h13v-117h150v-26h-150v-311q1 -92 91 -92q31 0 70 13z" />
    <glyph glyph-name="u" unicode="u" horiz-adv-x="519" 
d="M382 0l-16 55q-42 -35 -74.5 -49t-72.5 -14q-132 0 -132 153v267h-85v11l127 36h30v-275q0 -74 21.5 -111.5t71.5 -37.5q61 0 113 29v348h-84v11l126 36h30v-430l72 -19v-10h-127z" />
    <glyph glyph-name="v" unicode="v" horiz-adv-x="471" 
d="M479 450v-10l-78 -26l-147 -414h-37l-175 425l-50 14v11h210v-10l-75 -22l131 -333h3l111 328l-76 26v11h183z" />
    <glyph glyph-name="w" unicode="w" horiz-adv-x="741" 
d="M184 0l-144 426l-48 13v11h210v-10l-78 -23l99 -332h4l122 365h55l129 -365h4l106 328l-77 26v11h183v-10l-77 -26l-139 -414h-43l-132 380h-2l-132 -380h-40z" />
    <glyph glyph-name="x" unicode="x" horiz-adv-x="495" 
d="M115 39l79 -28v-11h-193v10l70 27l144 175l-145 211l-59 16v11h210v-10l-61 -18l99 -156l110 144l-71 29v11h193v-10l-89 -30l-130 -165l154 -216l68 -18v-11h-209v10l48 14l-103 166z" />
    <glyph glyph-name="y" unicode="y" horiz-adv-x="461" 
d="M261 0l-62 -207h-60v8l78 174l-174 450l-51 14v11h210v-10l-76 -23l127 -341l115 336l-72 27v11h173v-10l-73 -28z" />
    <glyph glyph-name="z" unicode="z" horiz-adv-x="377" 
d="M367 143l-22 -143h-323l-10 29l248 397h-175l-54 -92l-10 3l13 113h307l11 -18l-262 -408h201l69 121z" />
    <glyph glyph-name="braceleft" unicode="{" horiz-adv-x="275" 
d="M257 -168l-22 -2q-73 -5 -118 29.5t-39 110.5l17 186q2 31 -14.5 56.5t-50.5 31.5v30q33 7 50 33t15 57l-17 191q-2 65 39.5 98t109.5 32h30v-33h-24q-116 0 -116 -100l17 -179q1 -24 0.5 -44t-15.5 -38t-45 -31q66 -22 59 -112l-17 -181q-4 -52 27.5 -78t89.5 -26h24
v-31z" />
    <glyph glyph-name="bar" unicode="|" horiz-adv-x="223" 
d="M131 -91h-35v763h35v-763z" />
    <glyph glyph-name="braceright" unicode="}" horiz-adv-x="275" 
d="M40 -170l-22 2v33h24q60 0 91 23.5t26 78.5l-17 181q-7 90 59 112q-30 13 -45 31t-15.5 38t0.5 44l17 179q3 52 -29 76t-87 24h-24v33h30q68 1 109.5 -32t39.5 -98l-17 -191q-2 -31 15 -57t50 -33v-30q-34 -6 -50.5 -31.5t-14.5 -56.5l17 -186q6 -76 -39 -110.5
t-118 -29.5z" />
    <glyph glyph-name="asciitilde" unicode="~" horiz-adv-x="443" 
d="M387 330l17 -21q-44 -52 -96 -52q-34 0 -88 22t-84 22q-37 0 -76 -34l-16 21q44 49 97 49q43 0 92 -22.5t82 -22.5q30 0 72 38z" />
    <glyph glyph-name="uni00A0" unicode="&#xa0;" horiz-adv-x="206" 
 />
    <glyph glyph-name="exclamdown" unicode="&#xa1;" horiz-adv-x="253" 
d="M78 -139l42 422h13l42 -422h-97zM68 402q0 23 17 40t40 17t39.5 -17t16.5 -40t-16.5 -39.5t-39.5 -16.5t-40 16.5t-17 39.5z" />
    <glyph glyph-name="cent" unicode="&#xa2;" horiz-adv-x="435" 
d="M363 286l-31 105q-38 35 -85 42v-395q6 -1 18 -1q25 0 58 12t57 33l11 -19q-19 -24 -59 -46t-85 -25v-69h-29v68q-96 4 -146 63.5t-50 162.5q0 100 53 167.5t143 73.5v77h29v-76q71 -1 137 -39v-134h-21zM95 234q0 -83 33.5 -130.5t89.5 -61.5v392q-52 -6 -87.5 -56
t-35.5 -144z" />
    <glyph glyph-name="sterling" unicode="&#xa3;" horiz-adv-x="478" 
d="M347 303v-35h-161q7 -39 7 -64q0 -67 -41 -165h224l72 136l17 -3l-27 -172h-428v14l88 24q23 69 23 143q0 29 -18 87h-84v35h74q-17 62 -17 106q0 78 58 130.5t127 52.5q84 0 151 -36v-148h-18l-35 116q-43 37 -97 37q-48 0 -80 -34t-32 -90q0 -31 28 -134h169z" />
    <glyph glyph-name="currency" unicode="&#xa4;" horiz-adv-x="496" 
d="M73 92l-28 27l74 72q-39 42 -39 107q0 57 39 105l-73 74l25 25l72 -73q50 38 108 38q59 0 107 -36l71 72l26 -27l-71 -73q39 -39 39 -105q0 -61 -42 -108l73 -73l-24 -26l-73 73q-52 -35 -106 -35q-60 0 -106 35zM251 167q64 0 97.5 36.5t33.5 94.5t-34 95t-97 37
q-62 0 -97 -37.5t-35 -94.5t35.5 -94t96.5 -37z" />
    <glyph glyph-name="yen" unicode="&#xa5;" horiz-adv-x="547" 
d="M136 0v13l99 13v144h-205v29h205v40l-29 49h-176v29h159l-142 244l-41 8v14h212v-13l-79 -15l166 -283l137 273l-94 24v14h190v-13l-50 -17l-130 -236h148v-29h-164l-26 -49v-40h191v-29h-191v-144l101 -12v-14h-281z" />
    <glyph glyph-name="brokenbar" unicode="&#xa6;" horiz-adv-x="216" 
d="M128 -92h-36v290h36v-290zM128 675v-283h-36v283h36z" />
    <glyph glyph-name="section" unicode="&#xa7;" horiz-adv-x="460" 
d="M373 417l-10 104q-58 36 -123 36q-79 0 -129 -56l189 -146q117 -101 117 -243q0 -87 -65.5 -146t-149.5 -59q-87 0 -162 42v133h33l9 -104q58 -36 124 -36q76 0 128 57l-188 146q-117 101 -117 242q0 87 65.5 146t149.5 59q87 0 162 -42v-133h-33zM70 389
q0 -132 122 -228l164 -130q20 35 20 79q0 71 -30 124t-95 104l-163 129q-18 -35 -18 -78z" />
    <glyph glyph-name="dieresis" unicode="&#xa8;" horiz-adv-x="377" 
d="M56 610q0 19 12.5 31t31.5 12q18 0 30.5 -12t12.5 -31q0 -18 -12.5 -31t-30.5 -13q-19 0 -31.5 13t-12.5 31zM234 610q0 19 12.5 31t31.5 12q18 0 30.5 -12t12.5 -31q0 -18 -12.5 -31t-30.5 -13q-19 0 -31.5 13t-12.5 31z" />
    <glyph glyph-name="copyright" unicode="&#xa9;" horiz-adv-x="726" 
d="M496 360h-16l-45 87q-30 12 -53 12q-53 0 -81.5 -48.5t-28.5 -117.5q0 -72 28 -119.5t78 -47.5q40 0 68.5 25t40.5 56h9v-70q-61 -34 -121 -34q-86 0 -141 46t-55 135q0 88 56 141t138 53t123 -26v-92zM60 289q0 125 89 214t214 89t214 -89t89 -214t-89 -214t-214 -89
t-214 89t-89 214zM87 289q0 -114 81 -195t195 -81q113 0 194.5 81t81.5 195q0 113 -81.5 194.5t-194.5 81.5q-114 0 -195 -81.5t-81 -194.5z" />
    <glyph glyph-name="ordfeminine" unicode="&#xaa;" horiz-adv-x="352" 
d="M70 595h-21v88q55 24 113 24q47 0 81 -24.5t34 -72.5v-205l50 -13v-7h-99l-9 40q-44 -46 -99 -46q-94 0 -94 82q0 48 43 74t113 26h36v58q0 72 -57 72q-36 0 -67 -24zM217 434l1 109h-47q-87 0 -87 -71q0 -30 15 -46.5t41 -16.5q33 0 77 25zM31 326v16h290v-16h-290z" />
    <glyph glyph-name="guillemotleft" unicode="&#xab;" horiz-adv-x="368" 
d="M152 46l-122 180l121 179h20l-51 -179l51 -180h-19zM308 46l-122 180l121 179h20l-51 -179l51 -180h-19z" />
    <glyph glyph-name="logicalnot" unicode="&#xac;" horiz-adv-x="495" 
d="M427 100h-43v185h-328v38h371v-223z" />
    <glyph glyph-name="registered" unicode="&#xae;" horiz-adv-x="434" 
d="M217 268q-80 0 -133.5 53.5t-53.5 132.5q0 80 54 133.5t133 53.5t133 -53.5t54 -133.5q0 -79 -53.5 -132.5t-133.5 -53.5zM217 287q68 0 114 48.5t46 118.5t-46 118.5t-114 48.5t-114 -48.5t-46 -118.5t46 -118.5t114 -48.5zM121 363v4l27 10v164l-27 9v6h107
q32 0 50.5 -14.5t18.5 -41.5q0 -36 -35 -50l41 -73l25 -10v-4h-75l-41 81h-12v-67l24 -9v-5h-103zM204 545h-4v-90q43 0 43 45q0 44 -39 45z" />
    <glyph glyph-name="macron" unicode="&#xaf;" horiz-adv-x="348" 
d="M297 596h-246v28h246v-28z" />
    <glyph glyph-name="degree" unicode="&#xb0;" horiz-adv-x="394" 
d="M330 464q0 -52 -37.5 -91t-98.5 -39q-60 0 -95 37.5t-35 91.5q0 52 38 90.5t99 38.5q60 0 94.5 -37t34.5 -91zM275 464q0 45 -22 73t-57 28q-36 0 -56.5 -28t-20.5 -75q0 -45 21.5 -73t57.5 -28q38 0 57.5 27.5t19.5 75.5z" />
    <glyph glyph-name="plusminus" unicode="&#xb1;" horiz-adv-x="501" 
d="M443 47h-385v36h385v-36zM268 352h175v-36h-175v-169h-37v169h-173v36h173v166h37v-166z" />
    <glyph glyph-name="twosuperior" unicode="&#xb2;" horiz-adv-x="265" 
d="M251 474l-6 -75h-226l-6 22q163 123 163 203q0 32 -17.5 49t-47.5 17q-24 0 -47 -12.5t-32 -36.5h-9v43q38 29 98 29q48 0 80.5 -24t32.5 -68q0 -45 -50 -93.5t-127 -92.5h162l24 41z" />
    <glyph glyph-name="threesuperior" unicode="&#xb3;" horiz-adv-x="256" 
d="M23 464h9q9 -22 31 -35.5t49 -13.5q28 0 48 18t20 45q0 66 -102 66v17q33 2 59.5 24.5t26.5 53.5q0 24 -15.5 38.5t-40.5 14.5q-49 0 -73 -52h-10v45q39 28 93 28q42 0 71 -20.5t29 -51.5q0 -28 -25 -48t-49 -26v-2q36 -2 62.5 -22t26.5 -52q0 -44 -39 -70t-89 -26
q-40 0 -82 14v55z" />
    <glyph glyph-name="acute" unicode="&#xb4;" horiz-adv-x="295" 
d="M199 694l45 -54l-169 -119l-10 8z" />
    <glyph glyph-name="mu" unicode="&#xb5;" horiz-adv-x="529" 
d="M426 -5q-56 0 -70 61q-44 -36 -79.5 -50t-79.5 -14q-35 0 -78 25l-2 -2q30 -31 30 -89v-133h-72v657h72v-299q1 -65 26 -86t73 -22q48 0 108 29v378h71v-340q0 -45 9.5 -61.5t28.5 -16.5q33 0 55 2l3 -12q-46 -27 -95 -27z" />
    <glyph glyph-name="mu" unicode="&#x3bc;" horiz-adv-x="529" 
d="M426 -5q-56 0 -70 61q-44 -36 -79.5 -50t-79.5 -14q-35 0 -78 25l-2 -2q30 -31 30 -89v-133h-72v657h72v-299q1 -65 26 -86t73 -22q48 0 108 29v378h71v-340q0 -45 9.5 -61.5t28.5 -16.5q33 0 55 2l3 -12q-46 -27 -95 -27z" />
    <glyph glyph-name="paragraph" unicode="&#xb6;" horiz-adv-x="620" 
d="M306 149q-114 3 -185 59t-71 158q0 98 71 157.5t189 59.5h258v-23l-79 -9v-758h-37v751h-105v-751h-41v356z" />
    <glyph glyph-name="periodcentered" unicode="&#xb7;" horiz-adv-x="109" 
d="M10 299q0 20 12.5 32.5t31.5 12.5t32 -13t13 -32t-13 -31.5t-32 -12.5t-31.5 12.5t-12.5 31.5z" />
    <glyph glyph-name="cedilla" unicode="&#xb8;" horiz-adv-x="283" 
d="M123 -216q-44 0 -72 15l14 25q28 -15 57 -15q22 0 41 15t19 36q0 26 -19 46.5t-57 28.5l44 73l19 1l-23 -61q41 -6 63.5 -28t22.5 -52q0 -35 -29.5 -59.5t-79.5 -24.5z" />
    <glyph glyph-name="onesuperior" unicode="&#xb9;" horiz-adv-x="242" 
d="M28 399v8l70 17v249h-77v7l111 28h22v-284l69 -17v-8h-195z" />
    <glyph glyph-name="ordmasculine" unicode="&#xba;" horiz-adv-x="355" 
d="M31 326v16h290v-16h-290zM318 545q0 -65 -42 -114t-102 -49q-138 0 -138 159q0 65 42.5 115.5t100.5 50.5q139 0 139 -162zM263 536q0 145 -90 145q-33 0 -52 -20t-24.5 -46t-5.5 -63q0 -59 21 -101t71 -42q47 0 63.5 33.5t16.5 93.5z" />
    <glyph glyph-name="guillemotright" unicode="&#xbb;" horiz-adv-x="369" 
d="M60 408l122 -180l-121 -179h-20l51 179l-51 180h19zM217 408l122 -180l-121 -179h-20l51 179l-51 180h19z" />
    <glyph glyph-name="onequarter" unicode="&#xbc;" horiz-adv-x="667" 
d="M610 78h-45v-78h-56v78h-138l-11 22l164 209h41v-194h51zM58 274v8l70 17v249h-77v7l111 28h22v-284l69 -17v-8h-195zM158 -5l-18 10l363 553l19 -11zM398 115h111v142z" />
    <glyph glyph-name="onehalf" unicode="&#xbd;" horiz-adv-x="674" 
d="M623 75l-6 -75h-226l-6 22q163 123 163 203q0 32 -17.5 49t-47.5 17q-24 0 -47 -12.5t-32 -36.5h-9v43q38 29 98 29q48 0 80.5 -24t32.5 -68q0 -45 -50 -93.5t-127 -92.5h162l24 41zM58 274v8l70 17v249h-77v7l111 28h22v-284l69 -17v-8h-195zM133 -5l-18 10l363 553
l19 -11z" />
    <glyph glyph-name="threequarters" unicode="&#xbe;" horiz-adv-x="662" 
d="M605 78h-45v-78h-56v78h-138l-11 22l164 209h41v-194h51zM51 338h9q9 -22 31 -35.5t49 -13.5q28 0 48 18t20 45q0 66 -102 66v17q33 2 59.5 24.5t26.5 53.5q0 24 -15.5 38.5t-40.5 14.5q-49 0 -73 -52h-10v45q39 28 93 28q42 0 71 -20.5t29 -51.5q0 -28 -25 -48t-49 -26
v-2q36 -2 62.5 -22t26.5 -52q0 -44 -39 -70t-89 -26q-40 0 -82 14v55zM151 -5l-18 10l363 553l19 -11zM393 115h111v142z" />
    <glyph glyph-name="questiondown" unicode="&#xbf;" horiz-adv-x="331" 
d="M0 -4q0 37 17.5 66.5t45.5 47.5t54.5 28.5t52.5 15.5l17 121h21l15 -131q-21 -7 -42.5 -17.5t-48 -28.5t-43 -43.5t-16.5 -53.5q0 -52 27.5 -85.5t69.5 -33.5q40 0 78 25l28 96h14v-116q-64 -32 -129 -32q-71 0 -116 34.5t-45 106.5zM135 402q0 23 17 40t40 17t39.5 -17
t16.5 -40t-16.5 -39.5t-39.5 -16.5t-40 16.5t-17 39.5z" />
    <glyph glyph-name="Agrave" unicode="&#xc0;" horiz-adv-x="559" 
d="M339 0v10l84 14l-67 206h-196l-73 -195l96 -24v-11h-187v10l57 23l211 550h57l192 -563l50 -9v-11h-224zM263 506l-93 -249h178l-80 249h-5zM134 682l33 62l168 -117l-6 -13z" />
    <glyph glyph-name="Aacute" unicode="&#xc1;" horiz-adv-x="559" 
d="M339 0v10l84 14l-67 206h-196l-73 -195l96 -24v-11h-187v10l57 23l211 550h57l192 -563l50 -9v-11h-224zM263 506l-93 -249h178l-80 249h-5zM430 746l28 -64l-195 -68l-6 13z" />
    <glyph glyph-name="Acircumflex" unicode="&#xc2;" horiz-adv-x="559" 
d="M339 0v10l84 14l-67 206h-196l-73 -195l96 -24v-11h-187v10l57 23l211 550h57l192 -563l50 -9v-11h-224zM263 506l-93 -249h178l-80 249h-5zM412 620l-127 58l-120 -56l-10 10l133 103l133 -102z" />
    <glyph glyph-name="Atilde" unicode="&#xc3;" horiz-adv-x="559" 
d="M339 0v10l84 14l-67 206h-196l-73 -195l96 -24v-11h-187v10l57 23l211 550h57l192 -563l50 -9v-11h-224zM263 506l-93 -249h178l-80 249h-5zM337 638q-23 0 -56 12t-55 12q-29 0 -55 -22l-8 7q31 64 86 64q27 0 60 -11.5t56 -11.5q17 0 48 17l6 -7q-25 -60 -82 -60z" />
    <glyph glyph-name="Adieresis" unicode="&#xc4;" horiz-adv-x="559" 
d="M339 0v10l84 14l-67 206h-196l-73 -195l96 -24v-11h-187v10l57 23l211 550h57l192 -563l50 -9v-11h-224zM263 506l-93 -249h178l-80 249h-5zM161 678q0 19 12.5 31t31.5 12q18 0 30.5 -12t12.5 -31q0 -18 -12.5 -31t-30.5 -13q-19 0 -31.5 13t-12.5 31zM339 678
q0 19 12.5 31t31.5 12q18 0 30.5 -12t12.5 -31q0 -18 -12.5 -31t-30.5 -13q-19 0 -31.5 13t-12.5 31z" />
    <glyph glyph-name="Aring" unicode="&#xc5;" horiz-adv-x="559" 
d="M339 0v10l84 14l-67 206h-196l-73 -195l96 -24v-11h-187v10l57 23l211 550h57l192 -563l50 -9v-11h-224zM263 506l-93 -249h178l-80 249h-5zM290 619q-26 0 -49.5 20t-23.5 54q0 32 20 52t53 20t53.5 -20.5t20.5 -51.5q0 -33 -21.5 -53.5t-52.5 -20.5zM290 637
q26 0 41 14.5t15 41.5q0 25 -15.5 40t-40.5 15q-26 0 -40.5 -14.5t-14.5 -40.5q0 -27 17 -41.5t38 -14.5z" />
    <glyph glyph-name="AE" unicode="&#xc6;" horiz-adv-x="777" 
d="M296 0v13l99 12v205h-187l-110 -198l85 -21v-11h-187v10l66 27l310 546h371v-132h-24l-29 106h-214v-247l223 4v-34l-223 4v-257h221l47 115l17 -6l-16 -136h-449zM387 550l-164 -293h172v293h-8z" />
    <glyph glyph-name="Ccedilla" unicode="&#xc7;" horiz-adv-x="552" 
d="M527 405h-21l-38 127q-54 35 -119 35q-97 0 -162.5 -71t-65.5 -199q0 -137 69.5 -208.5t176.5 -71.5q91 0 149 92h11v-79q-1 0 -18 -7.5t-34 -13.5t-49 -11.5t-68 -5.5h-1l-16 -44q41 -6 63.5 -28t22.5 -52q0 -35 -29.5 -59.5t-79.5 -24.5q-44 0 -72 15l14 25
q28 -15 57 -15q22 0 41 15t19 36q0 26 -19 46.5t-57 28.5l34 58q-141 5 -222.5 79.5t-81.5 216.5q0 131 91 217t233 86q87 0 172 -33v-154z" />
    <glyph glyph-name="Egrave" unicode="&#xc8;" horiz-adv-x="501" 
d="M423 280l-224 4v-257h222l47 115l17 -6l-16 -136h-450v13l99 12v532l-99 12v14h448v-132h-24l-29 106h-215v-247l224 4v-34zM156 682l33 62l168 -117l-6 -13z" />
    <glyph glyph-name="Eacute" unicode="&#xc9;" horiz-adv-x="501" 
d="M423 280l-224 4v-257h222l47 115l17 -6l-16 -136h-450v13l99 12v532l-99 12v14h448v-132h-24l-29 106h-215v-247l224 4v-34zM373 746l28 -64l-195 -68l-6 13z" />
    <glyph glyph-name="Ecircumflex" unicode="&#xca;" horiz-adv-x="501" 
d="M423 280l-224 4v-257h222l47 115l17 -6l-16 -136h-450v13l99 12v532l-99 12v14h448v-132h-24l-29 106h-215v-247l224 4v-34zM432 619l-127 58l-120 -56l-10 10l133 103l133 -102z" />
    <glyph glyph-name="Edieresis" unicode="&#xcb;" horiz-adv-x="501" 
d="M423 280l-224 4v-257h222l47 115l17 -6l-16 -136h-450v13l99 12v532l-99 12v14h448v-132h-24l-29 106h-215v-247l224 4v-34zM177 679q0 19 12.5 31t31.5 12q18 0 30.5 -12t12.5 -31q0 -18 -12.5 -31t-30.5 -13q-19 0 -31.5 13t-12.5 31zM355 679q0 19 12.5 31t31.5 12
q18 0 30.5 -12t12.5 -31q0 -18 -12.5 -31t-30.5 -13q-19 0 -31.5 13t-12.5 31z" />
    <glyph glyph-name="Igrave" unicode="&#xcc;" horiz-adv-x="345" 
d="M32 0v13l99 13v531l-99 12v14h281v-13l-101 -13v-531l101 -12v-14h-281zM44 682l33 62l168 -117l-6 -13z" />
    <glyph glyph-name="Iacute" unicode="&#xcd;" horiz-adv-x="345" 
d="M32 0v13l99 13v531l-99 12v14h281v-13l-101 -13v-531l101 -12v-14h-281zM279 746l28 -64l-195 -68l-6 13z" />
    <glyph glyph-name="Icircumflex" unicode="&#xce;" horiz-adv-x="345" 
d="M32 0v13l99 13v531l-99 12v14h281v-13l-101 -13v-531l101 -12v-14h-281zM309 619l-127 58l-120 -56l-10 10l133 103l133 -102z" />
    <glyph glyph-name="Idieresis" unicode="&#xcf;" horiz-adv-x="345" 
d="M32 0v13l99 13v531l-99 12v14h281v-13l-101 -13v-531l101 -12v-14h-281zM46 679q0 19 12.5 31t31.5 12q18 0 30.5 -12t12.5 -31q0 -18 -12.5 -31t-30.5 -13q-19 0 -31.5 13t-12.5 31zM224 679q0 19 12.5 31t31.5 12q18 0 30.5 -12t12.5 -31q0 -18 -12.5 -31t-30.5 -13
q-19 0 -31.5 13t-12.5 31z" />
    <glyph glyph-name="Eth" unicode="&#xd0;" horiz-adv-x="654" 
d="M32 286v30h86v241l-99 12v14h258q61 0 109 -6.5t93.5 -25t76 -49t49 -80t18.5 -116.5q0 -147 -94.5 -226.5t-246.5 -79.5h-263v13l99 12v261h-86zM318 286h-119v-259h92q120 0 181 60.5t61 203.5q0 131 -60.5 198t-198.5 67h-75v-240h119v-30z" />
    <glyph glyph-name="Ntilde" unicode="&#xd1;" horiz-adv-x="628" 
d="M21 0v13l78 23v507l-80 26v14h138l344 -431v394l-87 23v14h203v-13l-78 -22v-556h-18l-384 487v-444l87 -21v-14h-203zM379 638q-23 0 -56 12t-55 12q-29 0 -55 -22l-8 7q31 64 86 64q27 0 60 -11.5t56 -11.5q17 0 48 17l6 -7q-25 -60 -82 -60z" />
    <glyph glyph-name="Ograve" unicode="&#xd2;" horiz-adv-x="646" 
d="M615 314q0 -134 -82 -228t-217 -94q-129 0 -207 78t-78 205q0 139 83.5 228t217.5 89q129 0 206 -77.5t77 -200.5zM524 295q0 119 -50 195.5t-149 76.5q-101 0 -152.5 -75t-51.5 -196q0 -119 53 -198.5t145 -79.5q55 0 96 23.5t64 64t34 88t11 101.5zM184 682l33 62
l168 -117l-6 -13z" />
    <glyph glyph-name="Oacute" unicode="&#xd3;" horiz-adv-x="646" 
d="M615 314q0 -134 -82 -228t-217 -94q-129 0 -207 78t-78 205q0 139 83.5 228t217.5 89q129 0 206 -77.5t77 -200.5zM524 295q0 119 -50 195.5t-149 76.5q-101 0 -152.5 -75t-51.5 -196q0 -119 53 -198.5t145 -79.5q55 0 96 23.5t64 64t34 88t11 101.5zM446 746l28 -64
l-195 -68l-6 13z" />
    <glyph glyph-name="Ocircumflex" unicode="&#xd4;" horiz-adv-x="646" 
d="M615 314q0 -134 -82 -228t-217 -94q-129 0 -207 78t-78 205q0 139 83.5 228t217.5 89q129 0 206 -77.5t77 -200.5zM524 295q0 119 -50 195.5t-149 76.5q-101 0 -152.5 -75t-51.5 -196q0 -119 53 -198.5t145 -79.5q55 0 96 23.5t64 64t34 88t11 101.5zM467 620l-127 58
l-120 -56l-10 10l133 103l133 -102z" />
    <glyph glyph-name="Otilde" unicode="&#xd5;" horiz-adv-x="646" 
d="M615 314q0 -134 -82 -228t-217 -94q-129 0 -207 78t-78 205q0 139 83.5 228t217.5 89q129 0 206 -77.5t77 -200.5zM524 295q0 119 -50 195.5t-149 76.5q-101 0 -152.5 -75t-51.5 -196q0 -119 53 -198.5t145 -79.5q55 0 96 23.5t64 64t34 88t11 101.5zM379 637
q-23 0 -56 12t-55 12q-29 0 -55 -22l-8 7q31 64 86 64q27 0 60 -11.5t56 -11.5q17 0 48 17l6 -7q-25 -60 -82 -60z" />
    <glyph glyph-name="Odieresis" unicode="&#xd6;" horiz-adv-x="646" 
d="M615 314q0 -134 -82 -228t-217 -94q-129 0 -207 78t-78 205q0 139 83.5 228t217.5 89q129 0 206 -77.5t77 -200.5zM524 295q0 119 -50 195.5t-149 76.5q-101 0 -152.5 -75t-51.5 -196q0 -119 53 -198.5t145 -79.5q55 0 96 23.5t64 64t34 88t11 101.5zM191 678
q0 19 12.5 31t31.5 12q18 0 30.5 -12t12.5 -31q0 -18 -12.5 -31t-30.5 -13q-19 0 -31.5 13t-12.5 31zM369 678q0 19 12.5 31t31.5 12q18 0 30.5 -12t12.5 -31q0 -18 -12.5 -31t-30.5 -13q-19 0 -31.5 13t-12.5 31z" />
    <glyph glyph-name="multiply" unicode="&#xd7;" horiz-adv-x="519" 
d="M437 445l-153 -148l152 -150l-28 -28l-151 150l-146 -150l-29 25l149 149l-147 150l28 28l147 -150l149 149z" />
    <glyph glyph-name="Oslash" unicode="&#xd8;" horiz-adv-x="646" 
d="M615 314q0 -134 -82 -228t-217 -94q-117 0 -193 64l-58 -64h-35l75 82q-74 79 -74 201q0 139 83.5 228t217.5 89q113 0 189 -62l56 62h36l-73 -80q75 -77 75 -198zM524 295q0 95 -33 164l-323 -353q55 -88 151 -88q55 0 96 23.5t64 64t34 88t11 101.5zM121 296
q0 -94 34 -167l323 354q-53 84 -153 84q-101 0 -152.5 -75t-51.5 -196z" />
    <glyph glyph-name="Ugrave" unicode="&#xd9;" horiz-adv-x="635" 
d="M332 -8q-46 0 -85.5 10t-75.5 33t-57 67t-21 104v352l-81 11v14h263v-13l-100 -13v-346q0 -100 45.5 -144t115.5 -44q170 0 170 208v315l-97 23v14h213v-13l-78 -23v-319q0 -120 -62 -178t-150 -58zM182 682l33 62l168 -117l-6 -13z" />
    <glyph glyph-name="Uacute" unicode="&#xda;" horiz-adv-x="635" 
d="M332 -8q-46 0 -85.5 10t-75.5 33t-57 67t-21 104v352l-81 11v14h263v-13l-100 -13v-346q0 -100 45.5 -144t115.5 -44q170 0 170 208v315l-97 23v14h213v-13l-78 -23v-319q0 -120 -62 -178t-150 -58zM468 746l28 -64l-195 -68l-6 13z" />
    <glyph glyph-name="Ucircumflex" unicode="&#xdb;" horiz-adv-x="635" 
d="M332 -8q-46 0 -85.5 10t-75.5 33t-57 67t-21 104v352l-81 11v14h263v-13l-100 -13v-346q0 -100 45.5 -144t115.5 -44q170 0 170 208v315l-97 23v14h213v-13l-78 -23v-319q0 -120 -62 -178t-150 -58zM469 619l-127 58l-120 -56l-10 10l133 103l133 -102z" />
    <glyph glyph-name="Udieresis" unicode="&#xdc;" horiz-adv-x="635" 
d="M332 -8q-46 0 -85.5 10t-75.5 33t-57 67t-21 104v352l-81 11v14h263v-13l-100 -13v-346q0 -100 45.5 -144t115.5 -44q170 0 170 208v315l-97 23v14h213v-13l-78 -23v-319q0 -120 -62 -178t-150 -58zM199 678q0 19 12.5 31t31.5 12q18 0 30.5 -12t12.5 -31
q0 -18 -12.5 -31t-30.5 -13q-19 0 -31.5 13t-12.5 31zM377 678q0 19 12.5 31t31.5 12q18 0 30.5 -12t12.5 -31q0 -18 -12.5 -31t-30.5 -13q-19 0 -31.5 13t-12.5 31z" />
    <glyph glyph-name="Yacute" unicode="&#xdd;" horiz-adv-x="544" 
d="M136 0v13l99 13v213l-188 322l-41 8v14h212v-13l-79 -15l166 -283l137 273l-94 24v14h190v-13l-50 -17l-172 -314v-213l101 -12v-14h-281zM411 746l28 -64l-195 -68l-6 13z" />
    <glyph glyph-name="Thorn" unicode="&#xde;" horiz-adv-x="501" 
d="M32 0v13l99 13v531l-99 12v14h281v-13l-101 -13v-75l1 2h87q196 0 196 -171q0 -77 -65.5 -124t-172.5 -47h-46v-116l101 -12v-14h-281zM270 456h-58v-288h42q78 0 119.5 35.5t41.5 105.5q0 67 -38.5 106.5t-106.5 40.5z" />
    <glyph glyph-name="germandbls" unicode="&#xdf;" horiz-adv-x="528" 
d="M15 0v11l79 20v391h-81v10l81 19v87q0 68 56 118t126 50t114.5 -39.5t44.5 -99.5q0 -31 -15 -62t-31.5 -50.5t-42 -45.5t-33.5 -36q29 -12 59.5 -31t62.5 -46.5t52 -66t20 -79.5q0 -73 -49.5 -115.5t-116.5 -42.5q-51 0 -103 23v123h13l35 -99q28 -21 69 -21
q36 0 60.5 34t24.5 70q0 110 -177 194v25q3 5 15.5 23t17.5 26.5t15.5 25.5t15.5 29.5t11.5 28.5t9 32t2.5 32q0 54 -30.5 95t-68.5 42q-16 0 -36 -4q-50 -41 -50 -116v-527l42 -16v-12h-192z" />
    <glyph glyph-name="agrave" unicode="&#xe0;" horiz-adv-x="436" 
d="M71 299h-16v125h1q77 35 147 35q65 0 107.5 -34.5t42.5 -104.5v-291l71 -19v-10h-127l-13 57q-63 -65 -141 -65q-53 0 -86.5 31t-33.5 85q0 60 57 101.5t151 41.5h51v82q0 102 -81 102q-50 0 -95 -34zM281 70l1 155h-67q-60 0 -92 -27t-32 -74q0 -42 22 -66t58 -24
q49 0 110 36zM76 639l45 54l134 -165l-10 -8z" />
    <glyph glyph-name="aacute" unicode="&#xe1;" horiz-adv-x="436" 
d="M71 299h-16v125h1q77 35 147 35q65 0 107.5 -34.5t42.5 -104.5v-291l71 -19v-10h-127l-13 57q-63 -65 -141 -65q-53 0 -86.5 31t-33.5 85q0 60 57 101.5t151 41.5h51v82q0 102 -81 102q-50 0 -95 -34zM281 70l1 155h-67q-60 0 -92 -27t-32 -74q0 -42 22 -66t58 -24
q49 0 110 36zM291 694l45 -54l-169 -119l-10 8z" />
    <glyph glyph-name="acircumflex" unicode="&#xe2;" horiz-adv-x="436" 
d="M71 299h-16v125h1q77 35 147 35q65 0 107.5 -34.5t42.5 -104.5v-291l71 -19v-10h-127l-13 57q-63 -65 -141 -65q-53 0 -86.5 31t-33.5 85q0 60 57 101.5t151 41.5h51v82q0 102 -81 102q-50 0 -95 -34zM281 70l1 155h-67q-60 0 -92 -27t-32 -74q0 -42 22 -66t58 -24
q49 0 110 36zM195 668h32l115 -126l-6 -10l-133 75l-130 -74l-6 9z" />
    <glyph glyph-name="atilde" unicode="&#xe3;" horiz-adv-x="436" 
d="M71 299h-16v125h1q77 35 147 35q65 0 107.5 -34.5t42.5 -104.5v-291l71 -19v-10h-127l-13 57q-63 -65 -141 -65q-53 0 -86.5 31t-33.5 85q0 60 57 101.5t151 41.5h51v82q0 102 -81 102q-50 0 -95 -34zM281 70l1 155h-67q-60 0 -92 -27t-32 -74q0 -42 22 -66t58 -24
q49 0 110 36zM249 552q-23 0 -56 12t-55 12q-29 0 -55 -22l-8 7q31 64 86 64q27 0 60 -11.5t56 -11.5q17 0 48 17l6 -7q-25 -60 -82 -60z" />
    <glyph glyph-name="adieresis" unicode="&#xe4;" horiz-adv-x="436" 
d="M71 299h-16v125h1q77 35 147 35q65 0 107.5 -34.5t42.5 -104.5v-291l71 -19v-10h-127l-13 57q-63 -65 -141 -65q-53 0 -86.5 31t-33.5 85q0 60 57 101.5t151 41.5h51v82q0 102 -81 102q-50 0 -95 -34zM281 70l1 155h-67q-60 0 -92 -27t-32 -74q0 -42 22 -66t58 -24
q49 0 110 36zM71 610q0 19 12.5 31t31.5 12q18 0 30.5 -12t12.5 -31q0 -18 -12.5 -31t-30.5 -13q-19 0 -31.5 13t-12.5 31zM249 610q0 19 12.5 31t31.5 12q18 0 30.5 -12t12.5 -31q0 -18 -12.5 -31t-30.5 -13q-19 0 -31.5 13t-12.5 31z" />
    <glyph glyph-name="aring" unicode="&#xe5;" horiz-adv-x="436" 
d="M71 299h-16v125h1q77 35 147 35q65 0 107.5 -34.5t42.5 -104.5v-291l71 -19v-10h-127l-13 57q-63 -65 -141 -65q-53 0 -86.5 31t-33.5 85q0 60 57 101.5t151 41.5h51v82q0 102 -81 102q-50 0 -95 -34zM281 70l1 155h-67q-60 0 -92 -27t-32 -74q0 -42 22 -66t58 -24
q49 0 110 36zM204 532q-26 0 -49.5 20t-23.5 54q0 32 20 52t53 20t53.5 -20.5t20.5 -51.5q0 -33 -21.5 -53.5t-52.5 -20.5zM204 550q26 0 41 14.5t15 41.5q0 25 -15.5 40t-40.5 15q-26 0 -40.5 -14.5t-14.5 -40.5q0 -27 17 -41.5t38 -14.5z" />
    <glyph glyph-name="ae" unicode="&#xe6;" horiz-adv-x="677" 
d="M55 299v125q77 35 148 35q96 0 132 -70q55 70 145 70q168 0 175 -217h-301q-1 -102 48 -153t122 -51q25 0 58 12t58 32l11 -19q-20 -26 -65 -48.5t-95 -22.5q-113 0 -166 72q-86 -72 -182 -72q-53 0 -86.5 31t-33.5 85q0 60 57 101.5t151 41.5h51v82q0 102 -81 102
q-50 0 -95 -34l-35 -102h-16zM171 34q55 0 136 58q-25 50 -25 133h-67q-60 0 -92 -27t-32 -74q0 -42 22 -66t58 -24zM356 268h215q2 74 -23 121.5t-75 47.5q-43 0 -76 -44.5t-41 -124.5z" />
    <glyph glyph-name="ccedilla" unicode="&#xe7;" horiz-adv-x="407" 
d="M363 286l-31 105q-47 44 -101 44q-56 0 -96 -50t-40 -151q0 -100 48 -148.5t122 -48.5q25 0 58 12t57 33l11 -19q-20 -26 -62.5 -48t-90.5 -24l-16 -43q41 -6 63.5 -28t22.5 -52q0 -35 -29.5 -59.5t-79.5 -24.5q-44 0 -72 15l14 25q28 -15 57 -15q22 0 41 15t19 36
q0 26 -19 46.5t-57 28.5l34 56q-95 4 -144.5 64t-49.5 162q0 105 58 173.5t155 68.5q47 0 78.5 -8t70.5 -31v-134h-21z" />
    <glyph glyph-name="egrave" unicode="&#xe8;" horiz-adv-x="417" 
d="M95 227q0 -88 48.5 -138.5t120.5 -50.5q25 0 58 12t58 32l11 -19q-20 -26 -65 -48.5t-95 -22.5q-102 0 -155.5 59.5t-53.5 165.5q0 104 54 173t144 69q168 0 175 -217h-300v-15zM213 437q-43 0 -76 -44.5t-41 -124.5h215q2 74 -23 121.5t-75 47.5zM122 640l45 54
l134 -165l-10 -8z" />
    <glyph glyph-name="eacute" unicode="&#xe9;" horiz-adv-x="417" 
d="M95 227q0 -88 48.5 -138.5t120.5 -50.5q25 0 58 12t58 32l11 -19q-20 -26 -65 -48.5t-95 -22.5q-102 0 -155.5 59.5t-53.5 165.5q0 104 54 173t144 69q168 0 175 -217h-300v-15zM213 437q-43 0 -76 -44.5t-41 -124.5h215q2 74 -23 121.5t-75 47.5zM307 694l45 -54
l-169 -119l-10 8z" />
    <glyph glyph-name="ecircumflex" unicode="&#xea;" horiz-adv-x="417" 
d="M95 227q0 -88 48.5 -138.5t120.5 -50.5q25 0 58 12t58 32l11 -19q-20 -26 -65 -48.5t-95 -22.5q-102 0 -155.5 59.5t-53.5 165.5q0 104 54 173t144 69q168 0 175 -217h-300v-15zM213 437q-43 0 -76 -44.5t-41 -124.5h215q2 74 -23 121.5t-75 47.5zM222 668h32l115 -126
l-6 -10l-133 75l-130 -74l-6 9z" />
    <glyph glyph-name="edieresis" unicode="&#xeb;" horiz-adv-x="417" 
d="M95 227q0 -88 48.5 -138.5t120.5 -50.5q25 0 58 12t58 32l11 -19q-20 -26 -65 -48.5t-95 -22.5q-102 0 -155.5 59.5t-53.5 165.5q0 104 54 173t144 69q168 0 175 -217h-300v-15zM213 437q-43 0 -76 -44.5t-41 -124.5h215q2 74 -23 121.5t-75 47.5zM94 610q0 19 12.5 31
t31.5 12q18 0 30.5 -12t12.5 -31q0 -18 -12.5 -31t-30.5 -13q-19 0 -31.5 13t-12.5 31zM272 610q0 19 12.5 31t31.5 12q18 0 30.5 -12t12.5 -31q0 -18 -12.5 -31t-30.5 -13q-19 0 -31.5 13t-12.5 31z" />
    <glyph glyph-name="igrave" unicode="&#xec;" horiz-adv-x="264" 
d="M19 0v10l80 14v388h-85v11l126 36h30v-435l83 -13v-11h-234zM7 640l45 54l134 -165l-10 -8z" />
    <glyph glyph-name="iacute" unicode="&#xed;" horiz-adv-x="264" 
d="M170 24l83 -13v-11h-234v10l80 14v388h-85v11l126 36h30v-435zM216 694l45 -54l-169 -119l-10 8z" />
    <glyph glyph-name="icircumflex" unicode="&#xee;" horiz-adv-x="264" 
d="M170 24l83 -13v-11h-234v10l80 14v388h-85v11l126 36h30v-435zM118 668h32l115 -126l-6 -10l-133 75l-130 -74l-6 9z" />
    <glyph glyph-name="idieresis" unicode="&#xef;" horiz-adv-x="264" 
d="M19 0v10l80 14v388h-85v11l126 36h30v-435l83 -13v-11h-234zM1 610q0 19 12.5 31t31.5 12q18 0 30.5 -12t12.5 -31q0 -18 -12.5 -31t-30.5 -13q-19 0 -31.5 13t-12.5 31zM179 610q0 19 12.5 31t31.5 12q18 0 30.5 -12t12.5 -31q0 -18 -12.5 -31t-30.5 -13q-19 0 -31.5 13
t-12.5 31z" />
    <glyph glyph-name="eth" unicode="&#xf0;" horiz-adv-x="480" 
d="M150 524l-13 28l119 52q-48 48 -114 83l12 16q80 -33 138 -83l92 41l13 -27l-82 -36q127 -130 127 -343q0 -116 -59.5 -189.5t-148.5 -73.5q-198 0 -198 228q0 94 61 166.5t145 72.5q61 0 104 -22q-19 83 -69 144zM362 243q0 78 -5 129q-19 27 -52.5 44t-71.5 17
q-118 0 -118 -197q0 -39 6 -73.5t19.5 -67.5t41 -52.5t65.5 -19.5q36 0 60 17t35.5 50.5t15.5 68.5t4 84z" />
    <glyph glyph-name="ntilde" unicode="&#xf1;" horiz-adv-x="551" 
d="M19 0v10l80 20v382h-85v11l111 36h37l7 -85q85 85 174 85q65 0 95.5 -44.5t30.5 -117.5v-266l81 -20v-11h-234v10l82 21v252q0 125 -99 125q-70 0 -129 -47v-330l83 -20v-11h-234zM337 552q-23 0 -56 12t-55 12q-29 0 -55 -22l-8 7q31 64 86 64q27 0 60 -11.5t56 -11.5
q17 0 48 17l6 -7q-25 -60 -82 -60z" />
    <glyph glyph-name="ograve" unicode="&#xf2;" horiz-adv-x="451" 
d="M428 225q0 -93 -61 -163t-147 -70q-198 0 -198 228q0 94 61 166.5t145 72.5q200 0 200 -234zM348 213q0 37 -5 71t-17.5 71t-40 59t-66.5 22q-118 0 -118 -200q0 -39 6 -74.5t19.5 -70t41 -55t65.5 -20.5q36 0 60 16.5t35.5 46.5t15.5 61.5t4 72.5zM98 640l45 54
l134 -165l-10 -8z" />
    <glyph glyph-name="oacute" unicode="&#xf3;" horiz-adv-x="451" 
d="M428 225q0 -93 -61 -163t-147 -70q-198 0 -198 228q0 94 61 166.5t145 72.5q200 0 200 -234zM348 213q0 37 -5 71t-17.5 71t-40 59t-66.5 22q-118 0 -118 -200q0 -39 6 -74.5t19.5 -70t41 -55t65.5 -20.5q36 0 60 16.5t35.5 46.5t15.5 61.5t4 72.5zM330 694l45 -54
l-169 -119l-10 8z" />
    <glyph glyph-name="ocircumflex" unicode="&#xf4;" horiz-adv-x="451" 
d="M428 225q0 -93 -61 -163t-147 -70q-198 0 -198 228q0 94 61 166.5t145 72.5q200 0 200 -234zM348 213q0 37 -5 71t-17.5 71t-40 59t-66.5 22q-118 0 -118 -200q0 -39 6 -74.5t19.5 -70t41 -55t65.5 -20.5q36 0 60 16.5t35.5 46.5t15.5 61.5t4 72.5zM229 663h32l115 -126
l-6 -10l-133 75l-130 -74l-6 9z" />
    <glyph glyph-name="otilde" unicode="&#xf5;" horiz-adv-x="451" 
d="M428 225q0 -93 -61 -163t-147 -70q-198 0 -198 228q0 94 61 166.5t145 72.5q200 0 200 -234zM348 213q0 37 -5 71t-17.5 71t-40 59t-66.5 22q-118 0 -118 -200q0 -39 6 -74.5t19.5 -70t41 -55t65.5 -20.5q36 0 60 16.5t35.5 46.5t15.5 61.5t4 72.5zM287 552q-23 0 -56 12
t-55 12q-29 0 -55 -22l-8 7q31 64 86 64q27 0 60 -11.5t56 -11.5q17 0 48 17l6 -7q-25 -60 -82 -60z" />
    <glyph glyph-name="odieresis" unicode="&#xf6;" horiz-adv-x="451" 
d="M428 225q0 -93 -61 -163t-147 -70q-198 0 -198 228q0 94 61 166.5t145 72.5q200 0 200 -234zM348 213q0 37 -5 71t-17.5 71t-40 59t-66.5 22q-118 0 -118 -200q0 -39 6 -74.5t19.5 -70t41 -55t65.5 -20.5q36 0 60 16.5t35.5 46.5t15.5 61.5t4 72.5zM97 610q0 19 12.5 31
t31.5 12q18 0 30.5 -12t12.5 -31q0 -18 -12.5 -31t-30.5 -13q-19 0 -31.5 13t-12.5 31zM275 610q0 19 12.5 31t31.5 12q18 0 30.5 -12t12.5 -31q0 -18 -12.5 -31t-30.5 -13q-19 0 -31.5 13t-12.5 31z" />
    <glyph glyph-name="divide" unicode="&#xf7;" horiz-adv-x="458" 
d="M427 283h-396v39h396v-39zM160 448q0 31 19.5 51.5t50.5 20.5q30 0 51 -20.5t21 -51.5q0 -29 -21 -49.5t-51 -20.5t-50 20t-20 50zM160 148q0 31 19.5 51.5t50.5 20.5q30 0 51 -20.5t21 -51.5q0 -29 -21 -49.5t-51 -20.5t-50 20t-20 50z" />
    <glyph glyph-name="oslash" unicode="&#xf8;" horiz-adv-x="451" 
d="M428 225q0 -93 -61 -163t-147 -70q-85 0 -135 43l-35 -43h-28l48 59q-48 57 -48 169q0 94 61 166.5t145 72.5q86 0 134 -42l34 42h32l-49 -60q49 -56 49 -174zM348 213q0 71 -17 126l-203 -251q34 -72 105 -72q36 0 60 16.5t35.5 46.5t15.5 61.5t4 72.5zM101 236
q0 -73 17 -124l203 253q-33 71 -102 71q-118 0 -118 -200z" />
    <glyph glyph-name="ugrave" unicode="&#xf9;" horiz-adv-x="519" 
d="M382 0l-16 55q-42 -35 -74.5 -49t-72.5 -14q-132 0 -132 153v267h-85v11l127 36h30v-275q0 -74 21.5 -111.5t71.5 -37.5q61 0 113 29v348h-84v11l126 36h30v-430l72 -19v-10h-127zM138 640l45 54l134 -165l-10 -8z" />
    <glyph glyph-name="uacute" unicode="&#xfa;" horiz-adv-x="519" 
d="M382 0l-16 55q-42 -35 -74.5 -49t-72.5 -14q-132 0 -132 153v267h-85v11l127 36h30v-275q0 -74 21.5 -111.5t71.5 -37.5q61 0 113 29v348h-84v11l126 36h30v-430l72 -19v-10h-127zM368 694l45 -54l-169 -119l-10 8z" />
    <glyph glyph-name="ucircumflex" unicode="&#xfb;" horiz-adv-x="519" 
d="M382 0l-16 55q-42 -35 -74.5 -49t-72.5 -14q-132 0 -132 153v267h-85v11l127 36h30v-275q0 -74 21.5 -111.5t71.5 -37.5q61 0 113 29v348h-84v11l126 36h30v-430l72 -19v-10h-127zM264 668h32l115 -126l-6 -10l-133 75l-130 -74l-6 9z" />
    <glyph glyph-name="udieresis" unicode="&#xfc;" horiz-adv-x="519" 
d="M159 184q0 -74 21.5 -111.5t71.5 -37.5q61 0 113 29v348h-84v11l126 36h30v-430l72 -19v-10h-127l-16 55q-42 -35 -74.5 -49t-72.5 -14q-132 0 -132 153v267h-85v11l127 36h30v-275zM141 610q0 19 12.5 31t31.5 12q18 0 30.5 -12t12.5 -31q0 -18 -12.5 -31t-30.5 -13
q-19 0 -31.5 13t-12.5 31zM319 610q0 19 12.5 31t31.5 12q18 0 30.5 -12t12.5 -31q0 -18 -12.5 -31t-30.5 -13q-19 0 -31.5 13t-12.5 31z" />
    <glyph glyph-name="yacute" unicode="&#xfd;" horiz-adv-x="461" 
d="M261 0l-62 -207h-60v8l78 174l-174 450l-51 14v11h210v-10l-76 -23l127 -341l115 336l-72 27v11h173v-10l-73 -28zM351 694l45 -54l-169 -119l-10 8z" />
    <glyph glyph-name="thorn" unicode="&#xfe;" horiz-adv-x="494" 
d="M16 -207v10l80 22v831h-85v11l111 36h45v-303q70 59 134 59q170 0 170 -224q0 -105 -67.5 -174.5t-164.5 -69.5q-41 0 -72 9v-174l93 -22v-11h-244zM272 411q-55 0 -105 -25v-336q42 -30 97 -30q35 0 61 18t39.5 48t19.5 62.5t6 68.5q0 83 -31 138.5t-87 55.5z" />
    <glyph glyph-name="ydieresis" unicode="&#xff;" horiz-adv-x="461" 
d="M261 0l-62 -207h-60v8l78 174l-174 450l-51 14v11h210v-10l-76 -23l127 -341l115 336l-72 27v11h173v-10l-73 -28zM114 611q0 19 12.5 31t31.5 12q18 0 30.5 -12t12.5 -31q0 -18 -12.5 -31t-30.5 -13q-19 0 -31.5 13t-12.5 31zM292 611q0 19 12.5 31t31.5 12
q18 0 30.5 -12t12.5 -31q0 -18 -12.5 -31t-30.5 -13q-19 0 -31.5 13t-12.5 31z" />
    <glyph glyph-name="Amacron" unicode="&#x100;" horiz-adv-x="559" 
d="M339 0v10l84 14l-67 206h-196l-73 -195l96 -24v-11h-187v10l57 23l211 550h57l192 -563l50 -9v-11h-224zM263 506l-93 -249h178l-80 249h-5zM413 668h-245v26h245v-26z" />
    <glyph glyph-name="amacron" unicode="&#x101;" horiz-adv-x="436" 
d="M71 299h-16v125h1q77 35 147 35q65 0 107.5 -34.5t42.5 -104.5v-291l71 -19v-10h-127l-13 57q-63 -65 -141 -65q-53 0 -86.5 31t-33.5 85q0 60 57 101.5t151 41.5h51v82q0 102 -81 102q-50 0 -95 -34zM281 70l1 155h-67q-60 0 -92 -27t-32 -74q0 -42 22 -66t58 -24
q49 0 110 36zM330 596h-246v28h246v-28z" />
    <glyph glyph-name="Abreve" unicode="&#x102;" horiz-adv-x="559" 
d="M339 0v10l84 14l-67 206h-196l-73 -195l96 -24v-11h-187v10l57 23l211 550h57l192 -563l50 -9v-11h-224zM263 506l-93 -249h178l-80 249h-5zM301 626q-85 0 -105 90l37 12q20 -73 77 -73q55 0 79 65l10 -5q-7 -36 -36.5 -62.5t-61.5 -26.5z" />
    <glyph glyph-name="abreve" unicode="&#x103;" horiz-adv-x="436" 
d="M71 299h-16v125h1q77 35 147 35q65 0 107.5 -34.5t42.5 -104.5v-291l71 -19v-10h-127l-13 57q-63 -65 -141 -65q-53 0 -86.5 31t-33.5 85q0 60 57 101.5t151 41.5h51v82q0 102 -81 102q-50 0 -95 -34zM281 70l1 155h-67q-60 0 -92 -27t-32 -74q0 -42 22 -66t58 -24
q49 0 110 36zM202 539q-85 0 -105 90l37 12q18 -67 67 -67q60 0 84 64l15 -10q-7 -36 -36.5 -62.5t-61.5 -26.5z" />
    <glyph glyph-name="Aogonek" unicode="&#x104;" horiz-adv-x="559" 
d="M-4 0v10l57 23l211 550h57l192 -563l50 -9v-11h-63q-38 -20 -59.5 -52.5t-21.5 -66.5t14 -50t48 -16q28 0 48 13l7 -17q-30 -18 -81 -18q-45 0 -67.5 21t-22.5 56q0 74 89 130h-115v10l84 14l-67 206h-196l-73 -195l96 -24v-11h-187zM263 506l-93 -249h178l-80 249h-5z
" />
    <glyph glyph-name="aogonek" unicode="&#x105;" horiz-adv-x="436" 
d="M424 10v-10h-85q-38 -22 -58.5 -54.5t-20.5 -64.5q0 -34 14 -50t48 -16q28 0 48 13l7 -17q-30 -18 -81 -18q-45 0 -67.5 21t-22.5 56q0 75 91 131l-13 56q-63 -65 -141 -65q-53 0 -86.5 31t-33.5 85q0 60 57 101.5t151 41.5h51v82q0 102 -81 102q-50 0 -95 -34l-35 -102
h-16v125h1q77 35 147 35q65 0 107.5 -34.5t42.5 -104.5v-291zM281 70l1 155h-67q-60 0 -92 -27t-32 -74q0 -42 22 -66t58 -24q49 0 110 36z" />
    <glyph glyph-name="Cacute" unicode="&#x106;" horiz-adv-x="552" 
d="M527 405h-21l-38 127q-54 35 -119 35q-97 0 -162.5 -71t-65.5 -199q0 -137 69.5 -208.5t176.5 -71.5q91 0 149 92h11v-79q-1 0 -18 -7.5t-34 -13.5t-49 -11.5t-68 -5.5q-150 0 -238.5 74.5t-88.5 222.5q0 131 91 217t233 86q87 0 172 -33v-154zM465 746l28 -64l-195 -68
l-6 13z" />
    <glyph glyph-name="cacute" unicode="&#x107;" horiz-adv-x="407" 
d="M363 286l-31 105q-47 44 -101 44q-56 0 -96 -50t-40 -151q0 -100 48 -148.5t122 -48.5q25 0 58 12t57 33l11 -19q-20 -27 -65 -49.5t-95 -22.5q-102 0 -155.5 60t-53.5 166q0 105 58 173.5t155 68.5q47 0 78.5 -8t70.5 -31v-134h-21zM308 694l45 -54l-169 -119l-10 8z
" />
    <glyph glyph-name="Ccircumflex" unicode="&#x108;" horiz-adv-x="552" 
d="M527 405h-21l-38 127q-54 35 -119 35q-97 0 -162.5 -71t-65.5 -199q0 -137 69.5 -208.5t176.5 -71.5q91 0 149 92h11v-79q-1 0 -18 -7.5t-34 -13.5t-49 -11.5t-68 -5.5q-150 0 -238.5 74.5t-88.5 222.5q0 131 91 217t233 86q87 0 172 -33v-154zM485 619l-127 58l-120 -56
l-10 10l133 103l133 -102z" />
    <glyph glyph-name="ccircumflex" unicode="&#x109;" horiz-adv-x="407" 
d="M363 286l-31 105q-47 44 -101 44q-56 0 -96 -50t-40 -151q0 -100 48 -148.5t122 -48.5q25 0 58 12t57 33l11 -19q-20 -27 -65 -49.5t-95 -22.5q-102 0 -155.5 60t-53.5 166q0 105 58 173.5t155 68.5q47 0 78.5 -8t70.5 -31v-134h-21zM231 668h32l115 -126l-6 -10l-133 75
l-130 -74l-6 9z" />
    <glyph glyph-name="Cdotaccent" unicode="&#x10a;" horiz-adv-x="552" 
d="M527 405h-21l-38 127q-54 35 -119 35q-97 0 -162.5 -71t-65.5 -199q0 -137 69.5 -208.5t176.5 -71.5q91 0 149 92h11v-79q-1 0 -18 -7.5t-34 -13.5t-49 -11.5t-68 -5.5q-150 0 -238.5 74.5t-88.5 222.5q0 131 91 217t233 86q87 0 172 -33v-154zM312 685q0 20 12.5 32.5
t31.5 12.5t32 -13t13 -32t-13 -31.5t-32 -12.5t-31.5 12.5t-12.5 31.5z" />
    <glyph glyph-name="cdotaccent" unicode="&#x10b;" horiz-adv-x="407" 
d="M363 286l-31 105q-47 44 -101 44q-56 0 -96 -50t-40 -151q0 -100 48 -148.5t122 -48.5q25 0 58 12t57 33l11 -19q-20 -27 -65 -49.5t-95 -22.5q-102 0 -155.5 60t-53.5 166q0 105 58 173.5t155 68.5q47 0 78.5 -8t70.5 -31v-134h-21zM198 619q0 20 12.5 32.5t31.5 12.5
t32 -13t13 -32t-13 -31.5t-32 -12.5t-31.5 12.5t-12.5 31.5z" />
    <glyph glyph-name="Ccaron" unicode="&#x10c;" horiz-adv-x="552" 
d="M527 405h-21l-38 127q-54 35 -119 35q-97 0 -162.5 -71t-65.5 -199q0 -137 69.5 -208.5t176.5 -71.5q91 0 149 92h11v-79q-1 0 -18 -7.5t-34 -13.5t-49 -11.5t-68 -5.5q-150 0 -238.5 74.5t-88.5 222.5q0 131 91 217t233 86q87 0 172 -33v-154zM368 626h-21l-118 102
l9 13l127 -58l120 56l10 -10z" />
    <glyph glyph-name="ccaron" unicode="&#x10d;" horiz-adv-x="407" 
d="M363 286l-31 105q-47 44 -101 44q-56 0 -96 -50t-40 -151q0 -100 48 -148.5t122 -48.5q25 0 58 12t57 33l11 -19q-20 -27 -65 -49.5t-95 -22.5q-102 0 -155.5 60t-53.5 166q0 105 58 173.5t155 68.5q47 0 78.5 -8t70.5 -31v-134h-21zM248 519h-32l-115 126l6 10l133 -75
l130 74l6 -9z" />
    <glyph glyph-name="Dcaron" unicode="&#x10e;" horiz-adv-x="654" 
d="M19 0v13l99 12v532l-99 12v14h258q61 0 109 -6.5t93.5 -25t76 -49t49 -80t18.5 -116.5q0 -147 -94.5 -226.5t-246.5 -79.5h-263zM274 556h-75v-529h92q120 0 181 60.5t61 203.5q0 131 -60.5 198t-198.5 67zM323 624h-21l-118 102l9 13l127 -58l120 56l10 -10z" />
    <glyph glyph-name="dcaron" unicode="&#x10f;" horiz-adv-x="528" 
d="M343 0l-15 54q-59 -62 -132 -62t-123.5 51.5t-50.5 163.5t61.5 182t150.5 70q50 0 92 -10v215h-84v12l105 27h51v-674l72 -19v-10h-127zM326 63v340q-34 32 -92 32q-64 0 -101 -54.5t-37 -146.5q0 -91 34 -143.5t92 -52.5q59 0 104 25zM477 529h-19v174h67z" />
    <glyph glyph-name="Dcroat" unicode="&#x110;" horiz-adv-x="654" 
d="M32 286v30h86v241l-99 12v14h258q61 0 109 -6.5t93.5 -25t76 -49t49 -80t18.5 -116.5q0 -147 -94.5 -226.5t-246.5 -79.5h-263v13l99 12v261h-86zM318 286h-119v-259h92q120 0 181 60.5t61 203.5q0 131 -60.5 198t-198.5 67h-75v-240h119v-30z" />
    <glyph glyph-name="dcroat" unicode="&#x111;" horiz-adv-x="480" 
d="M196 -8q-73 0 -123.5 51.5t-50.5 163.5t61.5 182t150.5 70q50 0 92 -10v84h-139v28h139v103h-84v12l105 27h51v-142h55v-28h-55v-504l72 -19v-10h-127l-15 54q-59 -62 -132 -62zM326 63v340q-34 32 -92 32q-64 0 -101 -54.5t-37 -146.5q0 -91 34 -143.5t92 -52.5
q59 0 104 25z" />
    <glyph glyph-name="Emacron" unicode="&#x112;" horiz-adv-x="501" 
d="M423 280l-224 4v-257h222l47 115l17 -6l-16 -136h-450v13l99 12v532l-99 12v14h448v-132h-24l-29 106h-215v-247l224 4v-34zM421 669h-245v26h245v-26z" />
    <glyph glyph-name="emacron" unicode="&#x113;" horiz-adv-x="417" 
d="M95 227q0 -88 48.5 -138.5t120.5 -50.5q25 0 58 12t58 32l11 -19q-20 -26 -65 -48.5t-95 -22.5q-102 0 -155.5 59.5t-53.5 165.5q0 104 54 173t144 69q168 0 175 -217h-300v-15zM213 437q-43 0 -76 -44.5t-41 -124.5h215q2 74 -23 121.5t-75 47.5zM348 596h-246v28h246
v-28z" />
    <glyph glyph-name="Ebreve" unicode="&#x114;" horiz-adv-x="501" 
d="M423 280l-224 4v-257h222l47 115l17 -6l-16 -136h-450v13l99 12v532l-99 12v14h448v-132h-24l-29 106h-215v-247l224 4v-34zM315 626q-85 0 -105 90l37 12q20 -73 77 -73q55 0 79 65l10 -5q-7 -36 -36.5 -62.5t-61.5 -26.5z" />
    <glyph glyph-name="ebreve" unicode="&#x115;" horiz-adv-x="417" 
d="M95 227q0 -88 48.5 -138.5t120.5 -50.5q25 0 58 12t58 32l11 -19q-20 -26 -65 -48.5t-95 -22.5q-102 0 -155.5 59.5t-53.5 165.5q0 104 54 173t144 69q168 0 175 -217h-300v-15zM213 437q-43 0 -76 -44.5t-41 -124.5h215q2 74 -23 121.5t-75 47.5zM227 539q-85 0 -105 90
l37 12q18 -67 67 -67q60 0 84 64l15 -10q-7 -36 -36.5 -62.5t-61.5 -26.5z" />
    <glyph glyph-name="Edotaccent" unicode="&#x116;" horiz-adv-x="501" 
d="M423 280l-224 4v-257h222l47 115l17 -6l-16 -136h-450v13l99 12v532l-99 12v14h448v-132h-24l-29 106h-215v-247l224 4v-34zM254 684q0 20 12.5 32.5t31.5 12.5t32 -13t13 -32t-13 -31.5t-32 -12.5t-31.5 12.5t-12.5 31.5z" />
    <glyph glyph-name="edotaccent" unicode="&#x117;" horiz-adv-x="417" 
d="M95 227q0 -88 48.5 -138.5t120.5 -50.5q25 0 58 12t58 32l11 -19q-20 -26 -65 -48.5t-95 -22.5q-102 0 -155.5 59.5t-53.5 165.5q0 104 54 173t144 69q168 0 175 -217h-300v-15zM213 437q-43 0 -76 -44.5t-41 -124.5h215q2 74 -23 121.5t-75 47.5zM174 619
q0 20 12.5 32.5t31.5 12.5t32 -13t13 -32t-13 -31.5t-32 -12.5t-31.5 12.5t-12.5 31.5z" />
    <glyph glyph-name="Eogonek" unicode="&#x118;" horiz-adv-x="501" 
d="M423 280l-224 4v-257h222l47 115l17 -6l-16 -136h-44q-41 -21 -63.5 -55t-22.5 -68t14 -50t48 -16q28 0 48 13l7 -17q-30 -18 -81 -18q-45 0 -67.5 21t-22.5 56q0 39 26.5 74t69.5 60h-362v13l99 12v532l-99 12v14h448v-132h-24l-29 106h-215v-247l224 4v-34z" />
    <glyph glyph-name="eogonek" unicode="&#x119;" horiz-adv-x="417" 
d="M95 227q0 -88 48.5 -138.5t120.5 -50.5q25 0 58 12t58 32l11 -19q-32 -41 -100 -62q-39 -21 -60 -54t-21 -66q0 -34 14 -50t48 -16q28 0 48 13l7 -17q-30 -18 -81 -18q-45 0 -67.5 21t-22.5 56q0 69 77 122h-2q-102 0 -155.5 59.5t-53.5 165.5q0 104 54 173t144 69
q168 0 175 -217h-300v-15zM213 437q-43 0 -76 -44.5t-41 -124.5h215q2 74 -23 121.5t-75 47.5z" />
    <glyph glyph-name="Ecaron" unicode="&#x11a;" horiz-adv-x="501" 
d="M423 280l-224 4v-257h222l47 115l17 -6l-16 -136h-450v13l99 12v532l-99 12v14h448v-132h-24l-29 106h-215v-247l224 4v-34zM306 626h-21l-118 102l9 13l127 -58l120 56l10 -10z" />
    <glyph glyph-name="ecaron" unicode="&#x11b;" horiz-adv-x="417" 
d="M95 227q0 -88 48.5 -138.5t120.5 -50.5q25 0 58 12t58 32l11 -19q-20 -26 -65 -48.5t-95 -22.5q-102 0 -155.5 59.5t-53.5 165.5q0 104 54 173t144 69q168 0 175 -217h-300v-15zM213 437q-43 0 -76 -44.5t-41 -124.5h215q2 74 -23 121.5t-75 47.5zM239 519h-32l-115 126
l6 10l133 -75l130 74l6 -9z" />
    <glyph glyph-name="Gcircumflex" unicode="&#x11c;" horiz-adv-x="582" 
d="M527 30q-1 0 -18 -7.5t-34 -13.5t-49 -11.5t-68 -5.5q-150 0 -238.5 74.5t-88.5 222.5q0 131 91 217t233 86q21 0 39.5 -1t34 -3.5t27 -4.5t23.5 -6t17.5 -6t16.5 -6.5t14 -5.5v-154h-21l-39 131q-49 31 -118 31q-96 0 -162 -73t-66 -197q0 -130 70 -202.5t176 -72.5
q34 0 78 17v229l-99 12v14h181v-264zM493 619l-127 58l-120 -56l-10 10l133 103l133 -102z" />
    <glyph glyph-name="gcircumflex" unicode="&#x11d;" horiz-adv-x="451" 
d="M213 176q-21 0 -41 3l-51 -64l131 -17q171 -24 171 -128q0 -71 -66.5 -127.5t-174.5 -56.5q-83 0 -128.5 36.5t-45.5 90.5q0 36 34 70t86 58l-74 10v37l101 95q-50 13 -78.5 46.5t-28.5 80.5q0 58 45.5 103.5t113.5 45.5q82 0 126 -46l111 37h7v-48h-109q28 -39 28 -90
q0 -54 -48 -95t-109 -41zM76 -81q0 -41 33 -70t97 -29t113 36.5t49 81.5q0 73 -136 90l-87 11q-69 -54 -69 -120zM210 201q39 0 59.5 28t20.5 78q0 128 -86 128q-36 0 -58 -30.5t-22 -86.5t22.5 -86.5t63.5 -30.5zM208 668h32l115 -126l-6 -10l-133 75l-130 -74l-6 9z" />
    <glyph glyph-name="Gbreve" unicode="&#x11e;" horiz-adv-x="582" 
d="M506 405l-39 131q-49 31 -118 31q-96 0 -162 -73t-66 -197q0 -130 70 -202.5t176 -72.5q34 0 78 17v229l-99 12v14h181v-264q-1 0 -18 -7.5t-34 -13.5t-49 -11.5t-68 -5.5q-150 0 -238.5 74.5t-88.5 222.5q0 131 91 217t233 86q21 0 39.5 -1t34 -3.5t27 -4.5t23.5 -6
t17.5 -6t16.5 -6.5t14 -5.5v-154h-21zM366 625q-85 0 -105 90l37 12q20 -73 77 -73q55 0 79 65l10 -5q-7 -36 -36.5 -62.5t-61.5 -26.5z" />
    <glyph glyph-name="gbreve" unicode="&#x11f;" horiz-adv-x="451" 
d="M213 176q-21 0 -41 3l-51 -64l131 -17q171 -24 171 -128q0 -71 -66.5 -127.5t-174.5 -56.5q-83 0 -128.5 36.5t-45.5 90.5q0 36 34 70t86 58l-74 10v37l101 95q-50 13 -78.5 46.5t-28.5 80.5q0 58 45.5 103.5t113.5 45.5q82 0 126 -46l111 37h7v-48h-109q28 -39 28 -90
q0 -54 -48 -95t-109 -41zM76 -81q0 -41 33 -70t97 -29t113 36.5t49 81.5q0 73 -136 90l-87 11q-69 -54 -69 -120zM210 201q39 0 59.5 28t20.5 78q0 128 -86 128q-36 0 -58 -30.5t-22 -86.5t22.5 -86.5t63.5 -30.5zM217 539q-85 0 -105 90l37 12q18 -67 67 -67q60 0 84 64
l15 -10q-7 -36 -36.5 -62.5t-61.5 -26.5z" />
    <glyph glyph-name="Gdotaccent" unicode="&#x120;" horiz-adv-x="582" 
d="M506 405l-39 131q-49 31 -118 31q-96 0 -162 -73t-66 -197q0 -130 70 -202.5t176 -72.5q34 0 78 17v229l-99 12v14h181v-264q-1 0 -18 -7.5t-34 -13.5t-49 -11.5t-68 -5.5q-150 0 -238.5 74.5t-88.5 222.5q0 131 91 217t233 86q21 0 39.5 -1t34 -3.5t27 -4.5t23.5 -6
t17.5 -6t16.5 -6.5t14 -5.5v-154h-21zM318 685q0 20 12.5 32.5t31.5 12.5t32 -13t13 -32t-13 -31.5t-32 -12.5t-31.5 12.5t-12.5 31.5z" />
    <glyph glyph-name="gdotaccent" unicode="&#x121;" horiz-adv-x="451" 
d="M213 176q-21 0 -41 3l-51 -64l131 -17q171 -24 171 -128q0 -71 -66.5 -127.5t-174.5 -56.5q-83 0 -128.5 36.5t-45.5 90.5q0 36 34 70t86 58l-74 10v37l101 95q-50 13 -78.5 46.5t-28.5 80.5q0 58 45.5 103.5t113.5 45.5q82 0 126 -46l111 37h7v-48h-109q28 -39 28 -90
q0 -54 -48 -95t-109 -41zM76 -81q0 -41 33 -70t97 -29t113 36.5t49 81.5q0 73 -136 90l-87 11q-69 -54 -69 -120zM210 201q39 0 59.5 28t20.5 78q0 128 -86 128q-36 0 -58 -30.5t-22 -86.5t22.5 -86.5t63.5 -30.5zM174 619q0 20 12.5 32.5t31.5 12.5t32 -13t13 -32
t-13 -31.5t-32 -12.5t-31.5 12.5t-12.5 31.5z" />
    <glyph glyph-name="Gcommaaccent" unicode="&#x122;" horiz-adv-x="582" 
d="M527 30q-1 0 -18 -7.5t-34 -13.5t-49 -11.5t-68 -5.5q-150 0 -238.5 74.5t-88.5 222.5q0 131 91 217t233 86q21 0 39.5 -1t34 -3.5t27 -4.5t23.5 -6t17.5 -6t16.5 -6.5t14 -5.5v-154h-21l-39 131q-49 31 -118 31q-96 0 -162 -73t-66 -197q0 -130 70 -202.5t176 -72.5
q34 0 78 17v229l-99 12v14h181v-264zM317 -62h62l-61 -185h-21z" />
    <glyph glyph-name="gcommaaccent" unicode="&#x123;" horiz-adv-x="451" 
d="M213 176q-21 0 -41 3l-51 -64l131 -17q171 -24 171 -128q0 -71 -66.5 -127.5t-174.5 -56.5q-83 0 -128.5 36.5t-45.5 90.5q0 36 34 70t86 58l-74 10v37l101 95q-50 13 -78.5 46.5t-28.5 80.5q0 58 45.5 103.5t113.5 45.5q82 0 126 -46l111 37h7v-48h-109q28 -39 28 -90
q0 -54 -48 -95t-109 -41zM76 -81q0 -41 33 -70t97 -29t113 36.5t49 81.5q0 73 -136 90l-87 11q-69 -54 -69 -120zM210 201q39 0 59.5 28t20.5 78q0 128 -86 128q-36 0 -58 -30.5t-22 -86.5t22.5 -86.5t63.5 -30.5zM247 513h-62l61 188h21z" />
    <glyph glyph-name="Hcircumflex" unicode="&#x124;" horiz-adv-x="689" 
d="M390 0v13l98 12v259h-289v-258l101 -12v-14h-281v13l99 12v532l-99 12v14h281v-13l-101 -13v-247h289v247l-98 12v14h281v-13l-101 -13v-531l101 -12v-14h-281zM485 619l-127 58l-120 -56l-10 10l133 103l133 -102z" />
    <glyph glyph-name="hcircumflex" unicode="&#x125;" horiz-adv-x="548" 
d="M11 0v10l80 20v634h-85v12l105 27h52v-328q84 84 172 84q65 0 95.5 -44.5t30.5 -117.5v-266l81 -20v-11h-234v10l82 21v251q0 126 -99 126q-71 0 -128 -46v-331l82 -20v-11h-234zM250 695l-127 58l-120 -56l-10 10l133 103l133 -102z" />
    <glyph glyph-name="Hbar" unicode="&#x126;" horiz-adv-x="689" 
d="M19 0v13l99 12v404h-77v24h77v104l-99 12v14h281v-13l-101 -13v-104h289v104l-98 12v14h281v-13l-101 -13v-104h75v-24h-75v-403l101 -12v-14h-281v13l98 12v259h-289v-258l101 -12v-14h-281zM199 429v-119h289v119h-289z" />
    <glyph glyph-name="hbar" unicode="&#x127;" horiz-adv-x="548" 
d="M11 0v10l80 20v500h-82v30h82v104h-85v12l105 27h52v-143h122v-30h-122v-155q84 84 172 84q65 0 95.5 -44.5t30.5 -117.5v-266l81 -20v-11h-234v10l82 21v251q0 126 -99 126q-71 0 -128 -46v-331l82 -20v-11h-234z" />
    <glyph glyph-name="Itilde" unicode="&#x128;" horiz-adv-x="345" 
d="M32 0v13l99 13v531l-99 12v14h281v-13l-101 -13v-531l101 -12v-14h-281zM221 638q-23 0 -56 12t-55 12q-29 0 -55 -22l-8 7q31 64 86 64q27 0 60 -11.5t56 -11.5q17 0 48 17l6 -7q-25 -60 -82 -60z" />
    <glyph glyph-name="itilde" unicode="&#x129;" horiz-adv-x="264" 
d="M19 0v10l80 14v388h-85v11l126 36h30v-435l83 -13v-11h-234zM180 552q-23 0 -56 12t-55 12q-29 0 -55 -22l-8 7q31 64 86 64q27 0 60 -11.5t56 -11.5q17 0 48 17l6 -7q-25 -60 -82 -60z" />
    <glyph glyph-name="Imacron" unicode="&#x12a;" horiz-adv-x="345" 
d="M32 0v13l99 13v531l-99 12v14h281v-13l-101 -13v-531l101 -12v-14h-281zM296 669h-245v26h245v-26z" />
    <glyph glyph-name="imacron" unicode="&#x12b;" horiz-adv-x="264" 
d="M170 24l83 -13v-11h-234v10l80 14v388h-85v11l126 36h30v-435zM252 596h-246v28h246v-28z" />
    <glyph glyph-name="Ibreve" unicode="&#x12c;" horiz-adv-x="345" 
d="M32 0v13l99 13v531l-99 12v14h281v-13l-101 -13v-531l101 -12v-14h-281zM186 626q-85 0 -105 90l37 12q20 -73 77 -73q55 0 79 65l10 -5q-7 -36 -36.5 -62.5t-61.5 -26.5z" />
    <glyph glyph-name="ibreve" unicode="&#x12d;" horiz-adv-x="264" 
d="M19 0v10l80 14v388h-85v11l126 36h30v-435l83 -13v-11h-234zM138 539q-85 0 -105 90l37 12q18 -67 67 -67q60 0 84 64l15 -10q-7 -36 -36.5 -62.5t-61.5 -26.5z" />
    <glyph glyph-name="Iogonek" unicode="&#x12e;" horiz-adv-x="345" 
d="M32 0v13l99 13v531l-99 12v14h281v-13l-101 -13v-531l101 -12v-14h-103q-36 -22 -58.5 -52t-22.5 -62q0 -36 15 -55t53 -19q31 0 54 15l9 -20q-34 -20 -91 -20q-49 0 -74.5 23.5t-25.5 61.5q0 70 90 128h-127z" />
    <glyph glyph-name="iogonek" unicode="&#x12f;" horiz-adv-x="264" 
d="M19 0v10l80 14v388h-85v11l126 36h30v-435l83 -13v-11h-82q-38 -22 -58.5 -54.5t-20.5 -64.5q0 -34 14 -50t48 -16q28 0 48 13l7 -17q-30 -18 -81 -18q-45 0 -67.5 21t-22.5 56q0 74 89 130h-108zM84 619q0 22 15 36.5t37 14.5q21 0 36 -14.5t15 -36.5t-15 -36.5
t-36 -14.5q-22 0 -37 14.5t-15 36.5z" />
    <glyph glyph-name="Idotaccent" unicode="&#x130;" horiz-adv-x="345" 
d="M32 0v13l99 13v531l-99 12v14h281v-13l-101 -13v-531l101 -12v-14h-281zM131 685q0 20 12.5 32.5t31.5 12.5t32 -13t13 -32t-13 -31.5t-32 -12.5t-31.5 12.5t-12.5 31.5z" />
    <glyph glyph-name="dotlessi" unicode="&#x131;" horiz-adv-x="264" 
d="M19 0v10l80 14v388h-85v11l126 36h30v-435l83 -13v-11h-234z" />
    <glyph glyph-name="IJ" unicode="&#x132;" horiz-adv-x="733" 
d="M466 -9q-74 0 -133 21v161h21l32 -135q34 -18 78 -18q38 0 62 32.5t24 94.5v410l-99 12v14h282v-13l-101 -13v-407q0 -70 -51 -114.5t-115 -44.5zM32 0v13l99 13v531l-99 12v14h281v-13l-101 -13v-531l101 -12v-14h-281z" />
    <glyph glyph-name="ij" unicode="&#x133;" horiz-adv-x="480" 
d="M282 -207l-9 10q38 35 50 71t12 130v408h-85v11l126 36h30v-461q0 -61 -34 -114t-90 -91zM19 0v10l80 14v388h-85v11l126 36h30v-435l83 -13v-11h-234zM84 619q0 22 15 36.5t37 14.5q21 0 36 -14.5t15 -36.5t-15 -36.5t-36 -14.5q-22 0 -37 14.5t-15 36.5zM373 568
q-22 0 -37 14.5t-15 36.5t15 36.5t37 14.5q21 0 36 -14.5t15 -36.5t-15 -36.5t-36 -14.5z" />
    <glyph glyph-name="Jcircumflex" unicode="&#x134;" horiz-adv-x="401" 
d="M134 -9q-74 0 -133 21v161h21l32 -135q34 -18 78 -18q38 0 62 32.5t24 94.5v410l-99 12v14h282v-13l-101 -13v-407q0 -70 -51 -114.5t-115 -44.5zM387 619l-127 58l-120 -56l-10 10l133 103l133 -102z" />
    <glyph glyph-name="jcircumflex" unicode="&#x135;" horiz-adv-x="237" 
d="M163 -2q0 -61 -34 -114t-90 -91l-9 10q38 35 50 71t12 130v408h-85v11l126 36h30v-461zM114 668h32l115 -126l-6 -10l-133 75l-130 -74l-6 9z" />
    <glyph glyph-name="Kcommaaccent" unicode="&#x136;" horiz-adv-x="586" 
d="M19 0v13l99 13v531l-99 12v14h281v-13l-101 -13v-531l101 -12v-14h-281zM440 0l-215 280v16l217 255l-74 20v12h201v-14l-88 -18l-193 -219l239 -308l67 -9v-15h-154zM303 -62h62l-61 -185h-21z" />
    <glyph glyph-name="kcommaaccent" unicode="&#x137;" horiz-adv-x="476" 
d="M11 0v10l80 20v634h-85v12l105 27h52v-672l82 -20v-11h-234zM192 235v8l161 170l-80 27v10h182v-11l-68 -27l-134 -140l157 -238l74 -24v-10h-138zM230 -62h62l-61 -185h-21z" />
    <glyph glyph-name="Lacute" unicode="&#x139;" horiz-adv-x="482" 
d="M19 0v13l99 12v532l-99 12v14h281v-13l-101 -13v-530h213l54 141l21 -6l-27 -162h-441zM297 746l28 -64l-195 -68l-6 13z" />
    <glyph glyph-name="lacute" unicode="&#x13a;" horiz-adv-x="247" 
d="M11 0v10l80 20v634h-85v12l105 27h52v-672l82 -20v-11h-234zM209 850l28 -64l-195 -68l-6 13z" />
    <glyph glyph-name="Lcommaaccent" unicode="&#x13b;" horiz-adv-x="482" 
d="M19 0v13l99 12v532l-99 12v14h281v-13l-101 -13v-530h213l54 141l21 -6l-27 -162h-441zM247 -62h62l-61 -185h-21z" />
    <glyph glyph-name="lcommaaccent" unicode="&#x13c;" horiz-adv-x="247" 
d="M11 0v10l80 20v634h-85v12l105 27h52v-672l82 -20v-11h-234zM99 -62h62l-61 -185h-21z" />
    <glyph glyph-name="Lcaron" unicode="&#x13d;" horiz-adv-x="482" 
d="M19 0v13l99 12v532l-99 12v14h281v-13l-101 -13v-530h213l54 141l21 -6l-27 -162h-441zM385 428h-19v174h67z" />
    <glyph glyph-name="lcaron" unicode="&#x13e;" horiz-adv-x="287" 
d="M11 0v10l80 20v634h-85v12l105 27h52v-672l82 -20v-11h-234zM239 529h-19v174h67z" />
    <glyph glyph-name="Ldot" unicode="&#x13f;" horiz-adv-x="482" 
d="M19 0v13l99 12v532l-99 12v14h281v-13l-101 -13v-530h213l54 141l21 -6l-27 -162h-441zM374 317q0 20 12.5 32.5t31.5 12.5t32 -13t13 -32t-13 -31.5t-32 -12.5t-31.5 12.5t-12.5 31.5z" />
    <glyph glyph-name="ldot" unicode="&#x140;" horiz-adv-x="274" 
d="M11 0v10l80 20v634h-85v12l105 27h52v-672l82 -20v-11h-234zM211 304q0 20 12.5 32.5t31.5 12.5t32 -13t13 -32t-13 -31.5t-32 -12.5t-31.5 12.5t-12.5 31.5z" />
    <glyph glyph-name="Lslash" unicode="&#x141;" horiz-adv-x="482" 
d="M19 0v13l99 12v217l-88 -51v27l88 56v283l-99 12v14h281v-13l-101 -13v-231l112 72v-43l-112 -66v-262h213l54 141l21 -6l-27 -162h-441z" />
    <glyph glyph-name="lslash" unicode="&#x142;" horiz-adv-x="247" 
d="M11 0v10l80 20v255l-75 -54v34l75 58v341h-85v12l105 27h52v-324l66 52v-46l-66 -48v-306l82 -20v-11h-234z" />
    <glyph glyph-name="Nacute" unicode="&#x143;" horiz-adv-x="628" 
d="M21 0v13l78 23v507l-80 26v14h138l344 -431v394l-87 23v14h203v-13l-78 -22v-556h-18l-384 487v-444l87 -21v-14h-203zM458 746l28 -64l-195 -68l-6 13z" />
    <glyph glyph-name="nacute" unicode="&#x144;" horiz-adv-x="551" 
d="M19 0v10l80 20v382h-85v11l111 36h37l7 -85q85 85 174 85q65 0 95.5 -44.5t30.5 -117.5v-266l81 -20v-11h-234v10l82 21v252q0 125 -99 125q-70 0 -129 -47v-330l83 -20v-11h-234zM385 694l45 -54l-169 -119l-10 8z" />
    <glyph glyph-name="Ncommaaccent" unicode="&#x145;" horiz-adv-x="628" 
d="M21 0v13l78 23v507l-80 26v14h138l344 -431v394l-87 23v14h203v-13l-78 -22v-556h-18l-384 487v-444l87 -21v-14h-203zM303 -62h62l-61 -185h-21z" />
    <glyph glyph-name="ncommaaccent" unicode="&#x146;" horiz-adv-x="551" 
d="M19 0v10l80 20v382h-85v11l111 36h37l7 -85q85 85 174 85q65 0 95.5 -44.5t30.5 -117.5v-266l81 -20v-11h-234v10l82 21v252q0 125 -99 125q-70 0 -129 -47v-330l83 -20v-11h-234zM267 -62h62l-61 -185h-21z" />
    <glyph glyph-name="Ncaron" unicode="&#x147;" horiz-adv-x="628" 
d="M21 0v13l78 23v507l-80 26v14h138l344 -431v394l-87 23v14h203v-13l-78 -22v-556h-18l-384 487v-444l87 -21v-14h-203zM351 626h-21l-118 102l9 13l127 -58l120 56l10 -10z" />
    <glyph glyph-name="ncaron" unicode="&#x148;" horiz-adv-x="551" 
d="M19 0v10l80 20v382h-85v11l111 36h37l7 -85q85 85 174 85q65 0 95.5 -44.5t30.5 -117.5v-266l81 -20v-11h-234v10l82 21v252q0 125 -99 125q-70 0 -129 -47v-330l83 -20v-11h-234zM298 519h-32l-115 126l6 10l133 -75l130 74l6 -9z" />
    <glyph glyph-name="napostrophe" unicode="&#x149;" horiz-adv-x="551" 
d="M19 0v10l80 20v382h-85v11l111 36h37l7 -85q85 85 174 85q65 0 95.5 -44.5t30.5 -117.5v-266l81 -20v-11h-234v10l82 21v252q0 125 -99 125q-70 0 -129 -47v-330l83 -20v-11h-234zM159 642q0 -39 -24.5 -74.5t-64.5 -57.5l-9 9q19 16 35 41t16 43q0 14 -9.5 25t-25.5 14
q0 15 12.5 28t28.5 13q17 0 29 -12t12 -29z" />
    <glyph glyph-name="Eng" unicode="&#x14a;" horiz-adv-x="628" 
d="M21 0v13l78 23v507l-80 26v14h138l344 -431v394l-87 23v14h203v-13l-78 -22v-553q0 -82 -25.5 -139t-101.5 -103l-17 23q63 54 84.5 100.5t22.5 139.5l-365 463v-444l87 -21v-14h-203z" />
    <glyph glyph-name="eng" unicode="&#x14b;" horiz-adv-x="551" 
d="M19 0v10l80 20v382h-85v11l111 36h37l7 -85q85 85 174 85q65 0 95.5 -44.5t30.5 -117.5v-287q0 -110 -106 -212l-17 12q52 56 52 200v273q0 125 -99 125q-70 0 -129 -47v-330l83 -20v-11h-234z" />
    <glyph glyph-name="Omacron" unicode="&#x14c;" horiz-adv-x="646" 
d="M615 314q0 -134 -82 -228t-217 -94q-129 0 -207 78t-78 205q0 139 83.5 228t217.5 89q129 0 206 -77.5t77 -200.5zM524 295q0 119 -50 195.5t-149 76.5q-101 0 -152.5 -75t-51.5 -196q0 -119 53 -198.5t145 -79.5q55 0 96 23.5t64 64t34 88t11 101.5zM459 669h-245v26
h245v-26z" />
    <glyph glyph-name="omacron" unicode="&#x14d;" horiz-adv-x="451" 
d="M428 225q0 -93 -61 -163t-147 -70q-198 0 -198 228q0 94 61 166.5t145 72.5q200 0 200 -234zM348 213q0 37 -5 71t-17.5 71t-40 59t-66.5 22q-118 0 -118 -200q0 -39 6 -74.5t19.5 -70t41 -55t65.5 -20.5q36 0 60 16.5t35.5 46.5t15.5 61.5t4 72.5zM357 596h-246v28h246
v-28z" />
    <glyph glyph-name="Obreve" unicode="&#x14e;" horiz-adv-x="646" 
d="M615 314q0 -134 -82 -228t-217 -94q-129 0 -207 78t-78 205q0 139 83.5 228t217.5 89q129 0 206 -77.5t77 -200.5zM524 295q0 119 -50 195.5t-149 76.5q-101 0 -152.5 -75t-51.5 -196q0 -119 53 -198.5t145 -79.5q55 0 96 23.5t64 64t34 88t11 101.5zM342 625
q-85 0 -105 90l37 12q20 -73 77 -73q55 0 79 65l10 -5q-7 -36 -36.5 -62.5t-61.5 -26.5z" />
    <glyph glyph-name="obreve" unicode="&#x14f;" horiz-adv-x="451" 
d="M428 225q0 -93 -61 -163t-147 -70q-198 0 -198 228q0 94 61 166.5t145 72.5q200 0 200 -234zM348 213q0 37 -5 71t-17.5 71t-40 59t-66.5 22q-118 0 -118 -200q0 -39 6 -74.5t19.5 -70t41 -55t65.5 -20.5q36 0 60 16.5t35.5 46.5t15.5 61.5t4 72.5zM238 539
q-85 0 -105 90l37 12q18 -67 67 -67q60 0 84 64l15 -10q-7 -36 -36.5 -62.5t-61.5 -26.5z" />
    <glyph glyph-name="Ohungarumlaut" unicode="&#x150;" horiz-adv-x="646" 
d="M615 314q0 -134 -82 -228t-217 -94q-129 0 -207 78t-78 205q0 139 83.5 228t217.5 89q129 0 206 -77.5t77 -200.5zM524 295q0 119 -50 195.5t-149 76.5q-101 0 -152.5 -75t-51.5 -196q0 -119 53 -198.5t145 -79.5q55 0 96 23.5t64 64t34 88t11 101.5zM222 624l-10 13
l139 129l38 -47zM362 624l-6 13l166 115l26 -58z" />
    <glyph glyph-name="ohungarumlaut" unicode="&#x151;" horiz-adv-x="451" 
d="M428 225q0 -93 -61 -163t-147 -70q-198 0 -198 228q0 94 61 166.5t145 72.5q200 0 200 -234zM348 213q0 37 -5 71t-17.5 71t-40 59t-66.5 22q-118 0 -118 -200q0 -39 6 -74.5t19.5 -70t41 -55t65.5 -20.5q36 0 60 16.5t35.5 46.5t15.5 61.5t4 72.5zM162 521l-13 8l76 167
l65 -24zM280 521l-10 8l122 159l49 -42z" />
    <glyph glyph-name="OE" unicode="&#x152;" horiz-adv-x="757" 
d="M664 280l-223 4v-257h221l47 115l17 -6l-16 -136h-316q-34 -8 -78 -8q-129 0 -207 78t-78 205q0 139 83.5 228t217.5 89q58 0 88 -9h288v-132h-24l-29 106h-214v-247l223 4v-34zM319 18q21 0 41 6v537q-18 6 -35 6q-94 0 -149 -73.5t-55 -197.5q0 -123 52.5 -200.5
t145.5 -77.5z" />
    <glyph glyph-name="oe" unicode="&#x153;" horiz-adv-x="743" 
d="M421 227q0 -88 48.5 -138.5t120.5 -50.5q25 0 58 12t58 32l11 -19q-20 -26 -65 -48.5t-95 -22.5q-130 0 -177 97q-26 -44 -68 -70.5t-92 -26.5q-198 0 -198 228q0 94 61 166.5t145 72.5q122 0 163 -90q52 90 155 90q168 0 175 -217h-300v-15zM348 213q0 37 -5 71
t-17.5 71t-40 59t-66.5 22q-118 0 -118 -200q0 -39 6 -74t19.5 -68.5t41 -53.5t65.5 -20q36 0 60 15.5t35.5 45t15.5 60.5t4 72zM539 437q-43 0 -76 -44.5t-41 -124.5h215q2 74 -23 121.5t-75 47.5z" />
    <glyph glyph-name="Racute" unicode="&#x154;" horiz-adv-x="574" 
d="M449 0l-166 275q-11 -1 -34 -1h-50v-248l101 -12v-14h-281v13l99 12v532l-99 12v14h273q196 0 196 -151q0 -107 -122 -143l12 -19l153 -241l53 -18v-11h-135zM262 555h-63v-255h47q69 2 114.5 37t45.5 91q0 58 -37.5 92t-106.5 35zM393 746l28 -64l-195 -68l-6 13z" />
    <glyph glyph-name="racute" unicode="&#x155;" horiz-adv-x="353" 
d="M19 0v10l80 20v382h-85v11l111 36h37l5 -59q71 59 140 59q26 0 46 -5l-23 -75h-3l-94 24l-66 -8l3 -25v-338l93 -21v-11h-244zM320 694l45 -54l-169 -119l-10 8z" />
    <glyph glyph-name="Rcommaaccent" unicode="&#x156;" horiz-adv-x="574" 
d="M449 0l-166 275q-11 -1 -34 -1h-50v-248l101 -12v-14h-281v13l99 12v532l-99 12v14h273q196 0 196 -151q0 -107 -122 -143l12 -19l153 -241l53 -18v-11h-135zM262 555h-63v-255h47q69 2 114.5 37t45.5 91q0 58 -37.5 92t-106.5 35zM285 -62h62l-61 -185h-21z" />
    <glyph glyph-name="rcommaaccent" unicode="&#x157;" horiz-adv-x="353" 
d="M19 0v10l80 20v382h-85v11l111 36h37l5 -59q71 59 140 59q26 0 46 -5l-23 -75h-3l-94 24l-66 -8l3 -25v-338l93 -21v-11h-244zM105 -62h62l-61 -185h-21z" />
    <glyph glyph-name="Rcaron" unicode="&#x158;" horiz-adv-x="574" 
d="M449 0l-166 275q-11 -1 -34 -1h-50v-248l101 -12v-14h-281v13l99 12v532l-99 12v14h273q196 0 196 -151q0 -107 -122 -143l12 -19l153 -241l53 -18v-11h-135zM262 555h-63v-255h47q69 2 114.5 37t45.5 91q0 58 -37.5 92t-106.5 35zM287 626h-21l-118 102l9 13l127 -58
l120 56l10 -10z" />
    <glyph glyph-name="rcaron" unicode="&#x159;" horiz-adv-x="353" 
d="M19 0v10l80 20v382h-85v11l111 36h37l5 -59q71 59 140 59q26 0 46 -5l-23 -75h-3l-94 24l-66 -8l3 -25v-338l93 -21v-11h-244zM228 519h-32l-115 126l6 10l133 -75l130 74l6 -9z" />
    <glyph glyph-name="Sacute" unicode="&#x15a;" horiz-adv-x="437" 
d="M368 417l-32 115q-46 33 -103 33q-58 0 -91.5 -30.5t-33.5 -74.5q0 -43 32 -71.5t90 -51.5q4 -2 13 -5q33 -13 50 -20t44 -23t40.5 -32t24 -41.5t10.5 -56.5q0 -82 -66 -124.5t-156 -42.5q-85 0 -165 34v143h18l36 -117q56 -34 126 -34q126 0 126 120q0 25 -10.5 44
t-35.5 34t-42.5 22.5t-55.5 22.5q-34 13 -56.5 25t-46.5 31t-36.5 45.5t-12.5 60.5q0 74 55 121.5t132 47.5q97 0 165 -35v-140h-19zM341 746l28 -64l-195 -68l-6 13z" />
    <glyph glyph-name="sacute" unicode="&#x15b;" horiz-adv-x="371" 
d="M172 -8q-76 0 -144 30v123h12l33 -99q45 -24 99 -24q46 0 77 20.5t31 62.5q0 35 -25.5 54t-61.5 27.5t-72.5 19.5t-62 40t-25.5 79q0 62 48 98t117 36q72 0 129 -28v-112h-12l-24 83q-51 28 -106 28q-42 0 -68.5 -20t-26.5 -64q0 -36 26 -54.5t63 -26t74.5 -17.5
t63.5 -38t26 -77q0 -72 -50 -106.5t-121 -34.5zM280 694l45 -54l-169 -119l-10 8z" />
    <glyph glyph-name="Scircumflex" unicode="&#x15c;" horiz-adv-x="437" 
d="M368 417l-32 115q-46 33 -103 33q-58 0 -91.5 -30.5t-33.5 -74.5q0 -43 32 -71.5t90 -51.5q4 -2 13 -5q33 -13 50 -20t44 -23t40.5 -32t24 -41.5t10.5 -56.5q0 -82 -66 -124.5t-156 -42.5q-85 0 -165 34v143h18l36 -117q56 -34 126 -34q126 0 126 120q0 25 -10.5 44
t-35.5 34t-42.5 22.5t-55.5 22.5q-34 13 -56.5 25t-46.5 31t-36.5 45.5t-12.5 60.5q0 74 55 121.5t132 47.5q97 0 165 -35v-140h-19zM363 619l-127 58l-120 -56l-10 10l133 103l133 -102z" />
    <glyph glyph-name="scircumflex" unicode="&#x15d;" horiz-adv-x="371" 
d="M172 -8q-76 0 -144 30v123h12l33 -99q45 -24 99 -24q46 0 77 20.5t31 62.5q0 35 -25.5 54t-61.5 27.5t-72.5 19.5t-62 40t-25.5 79q0 62 48 98t117 36q72 0 129 -28v-112h-12l-24 83q-51 28 -106 28q-42 0 -68.5 -20t-26.5 -64q0 -36 26 -54.5t63 -26t74.5 -17.5
t63.5 -38t26 -77q0 -72 -50 -106.5t-121 -34.5zM190 668h32l115 -126l-6 -10l-133 75l-130 -74l-6 9z" />
    <glyph glyph-name="Scedilla" unicode="&#x15e;" horiz-adv-x="437" 
d="M190 -216q-44 0 -72 15l14 25q28 -15 57 -15q22 0 41 15t19 36q0 26 -19 46.5t-57 28.5l34 58q-6 -1 -17 -1q-85 0 -165 34v143h18l36 -117q56 -34 126 -34q126 0 126 120q0 25 -10.5 44t-35.5 34t-42.5 22.5t-55.5 22.5q-34 13 -56.5 25t-46.5 31t-36.5 45.5t-12.5 60.5
q0 74 55 121.5t132 47.5q97 0 165 -35v-140h-19l-32 115q-46 33 -103 33q-58 0 -91.5 -30.5t-33.5 -74.5q0 -43 32 -71.5t90 -51.5q4 -2 13 -5q33 -13 50 -20t44 -23t40.5 -32t24 -41.5t10.5 -56.5q0 -73 -52 -114.5t-130 -49.5l-17 -47q41 -6 63.5 -28t22.5 -52
q0 -35 -29.5 -59.5t-79.5 -24.5z" />
    <glyph glyph-name="scedilla" unicode="&#x15f;" horiz-adv-x="371" 
d="M151 -216q-44 0 -72 15l14 25q28 -15 57 -15q22 0 41 15t19 36q0 26 -19 46.5t-57 28.5l34 57q-77 1 -140 30v123h12l33 -99q45 -24 99 -24q46 0 77 20.5t31 62.5q0 35 -25.5 54t-61.5 27.5t-72.5 19.5t-62 40t-25.5 79q0 62 48 98t117 36q72 0 129 -28v-112h-12l-24 83
q-51 28 -106 28q-42 0 -68.5 -20t-26.5 -64q0 -36 26 -54.5t63 -26t74.5 -17.5t63.5 -38t26 -77q0 -67 -43.5 -101.5t-108.5 -38.5l-17 -45q41 -6 63.5 -28t22.5 -52q0 -35 -29.5 -59.5t-79.5 -24.5z" />
    <glyph glyph-name="Scaron" unicode="&#x160;" horiz-adv-x="437" 
d="M368 417l-32 115q-46 33 -103 33q-58 0 -91.5 -30.5t-33.5 -74.5q0 -43 32 -71.5t90 -51.5q4 -2 13 -5q33 -13 50 -20t44 -23t40.5 -32t24 -41.5t10.5 -56.5q0 -82 -66 -124.5t-156 -42.5q-85 0 -165 34v143h18l36 -117q56 -34 126 -34q126 0 126 120q0 25 -10.5 44
t-35.5 34t-42.5 22.5t-55.5 22.5q-34 13 -56.5 25t-46.5 31t-36.5 45.5t-12.5 60.5q0 74 55 121.5t132 47.5q97 0 165 -35v-140h-19zM254 626h-21l-118 102l9 13l127 -58l120 56l10 -10z" />
    <glyph glyph-name="scaron" unicode="&#x161;" horiz-adv-x="371" 
d="M172 -8q-76 0 -144 30v123h12l33 -99q45 -24 99 -24q46 0 77 20.5t31 62.5q0 35 -25.5 54t-61.5 27.5t-72.5 19.5t-62 40t-25.5 79q0 62 48 98t117 36q72 0 129 -28v-112h-12l-24 83q-51 28 -106 28q-42 0 -68.5 -20t-26.5 -64q0 -36 26 -54.5t63 -26t74.5 -17.5
t63.5 -38t26 -77q0 -72 -50 -106.5t-121 -34.5zM215 519h-32l-115 126l6 10l133 -75l130 74l6 -9z" />
    <glyph glyph-name="Tcommaaccent" unicode="&#x162;" horiz-adv-x="510" 
d="M114 0v13l99 12v531h-151l-38 -139h-19v166h500v-166h-19l-45 139h-146v-530l101 -12v-14h-282zM225 -62h62l-61 -185h-21z" />
    <glyph glyph-name="tcommaaccent" unicode="&#x163;" horiz-adv-x="313" 
d="M308 34l4 -14q-59 -28 -114 -28q-56 0 -91.5 32t-34.5 99v301h-66v8l70 20l58 115h13v-117h150v-26h-150v-311q1 -92 91 -92q31 0 70 13zM162 -62h62l-61 -185h-21z" />
    <glyph glyph-name="Tcaron" unicode="&#x164;" horiz-adv-x="510" 
d="M114 0v13l99 12v531h-151l-38 -139h-19v166h500v-166h-19l-45 139h-146v-530l101 -12v-14h-282zM264 626h-21l-118 102l9 13l127 -58l120 56l10 -10z" />
    <glyph glyph-name="tcaron" unicode="&#x165;" horiz-adv-x="313" 
d="M308 34l4 -14q-59 -28 -114 -28q-56 0 -91.5 32t-34.5 99v301h-66v8l70 20l58 115h13v-117h150v-26h-150v-311q1 -92 91 -92q31 0 70 13zM243 529h-19v174h67z" />
    <glyph glyph-name="Tbar" unicode="&#x166;" horiz-adv-x="510" 
d="M5 417v166h500v-166h-19l-45 139h-146v-244h126v-30h-126v-256l101 -12v-14h-282v13l99 12v257h-124v30h124v244h-151l-38 -139h-19z" />
    <glyph glyph-name="tbar" unicode="&#x167;" horiz-adv-x="313" 
d="M308 34l4 -14q-59 -28 -114 -28q-56 0 -91.5 32t-34.5 99v138h-55v25h55v138h-66v8l70 20l58 115h13v-117h150v-26h-150v-138h124v-25h-124v-148q1 -92 91 -92q31 0 70 13z" />
    <glyph glyph-name="Utilde" unicode="&#x168;" horiz-adv-x="635" 
d="M332 -8q-46 0 -85.5 10t-75.5 33t-57 67t-21 104v352l-81 11v14h263v-13l-100 -13v-346q0 -100 45.5 -144t115.5 -44q170 0 170 208v315l-97 23v14h213v-13l-78 -23v-319q0 -120 -62 -178t-150 -58zM376 638q-23 0 -56 12t-55 12q-29 0 -55 -22l-8 7q31 64 86 64
q27 0 60 -11.5t56 -11.5q17 0 48 17l6 -7q-25 -60 -82 -60z" />
    <glyph glyph-name="utilde" unicode="&#x169;" horiz-adv-x="519" 
d="M382 0l-16 55q-42 -35 -74.5 -49t-72.5 -14q-132 0 -132 153v267h-85v11l127 36h30v-275q0 -74 21.5 -111.5t71.5 -37.5q61 0 113 29v348h-84v11l126 36h30v-430l72 -19v-10h-127zM321 552q-23 0 -56 12t-55 12q-29 0 -55 -22l-8 7q31 64 86 64q27 0 60 -11.5t56 -11.5
q17 0 48 17l6 -7q-25 -60 -82 -60z" />
    <glyph glyph-name="Umacron" unicode="&#x16a;" horiz-adv-x="635" 
d="M332 -8q-46 0 -85.5 10t-75.5 33t-57 67t-21 104v352l-81 11v14h263v-13l-100 -13v-346q0 -100 45.5 -144t115.5 -44q170 0 170 208v315l-97 23v14h213v-13l-78 -23v-319q0 -120 -62 -178t-150 -58zM466 669h-245v26h245v-26z" />
    <glyph glyph-name="umacron" unicode="&#x16b;" horiz-adv-x="519" 
d="M382 0l-16 55q-42 -35 -74.5 -49t-72.5 -14q-132 0 -132 153v267h-85v11l127 36h30v-275q0 -74 21.5 -111.5t71.5 -37.5q61 0 113 29v348h-84v11l126 36h30v-430l72 -19v-10h-127zM392 596h-246v28h246v-28z" />
    <glyph glyph-name="Ubreve" unicode="&#x16c;" horiz-adv-x="635" 
d="M332 -8q-46 0 -85.5 10t-75.5 33t-57 67t-21 104v352l-81 11v14h263v-13l-100 -13v-346q0 -100 45.5 -144t115.5 -44q170 0 170 208v315l-97 23v14h213v-13l-78 -23v-319q0 -120 -62 -178t-150 -58zM341 626q-85 0 -105 90l37 12q20 -73 77 -73q55 0 79 65l10 -5
q-7 -36 -36.5 -62.5t-61.5 -26.5z" />
    <glyph glyph-name="ubreve" unicode="&#x16d;" horiz-adv-x="519" 
d="M382 0l-16 55q-42 -35 -74.5 -49t-72.5 -14q-132 0 -132 153v267h-85v11l127 36h30v-275q0 -74 21.5 -111.5t71.5 -37.5q61 0 113 29v348h-84v11l126 36h30v-430l72 -19v-10h-127zM272 539q-85 0 -105 90l37 12q18 -67 67 -67q60 0 84 64l15 -10q-7 -36 -36.5 -62.5
t-61.5 -26.5z" />
    <glyph glyph-name="Uring" unicode="&#x16e;" horiz-adv-x="635" 
d="M332 -8q-46 0 -85.5 10t-75.5 33t-57 67t-21 104v352l-81 11v14h263v-13l-100 -13v-346q0 -100 45.5 -144t115.5 -44q170 0 170 208v315l-97 23v14h213v-13l-78 -23v-319q0 -120 -62 -178t-150 -58zM346 628q-26 0 -49.5 20t-23.5 54q0 32 20 52t53 20t53.5 -20.5
t20.5 -51.5q0 -33 -21.5 -53.5t-52.5 -20.5zM346 646q26 0 41 14.5t15 41.5q0 25 -15.5 40t-40.5 15q-26 0 -40.5 -14.5t-14.5 -40.5q0 -27 17 -41.5t38 -14.5z" />
    <glyph glyph-name="uring" unicode="&#x16f;" horiz-adv-x="519" 
d="M382 0l-16 55q-42 -35 -74.5 -49t-72.5 -14q-132 0 -132 153v267h-85v11l127 36h30v-275q0 -74 21.5 -111.5t71.5 -37.5q61 0 113 29v348h-84v11l126 36h30v-430l72 -19v-10h-127zM267 532q-26 0 -49.5 20t-23.5 54q0 32 20 52t53 20t53.5 -20.5t20.5 -51.5
q0 -33 -21.5 -53.5t-52.5 -20.5zM267 550q26 0 41 14.5t15 41.5q0 25 -15.5 40t-40.5 15q-26 0 -40.5 -14.5t-14.5 -40.5q0 -27 17 -41.5t38 -14.5z" />
    <glyph glyph-name="Uhungarumlaut" unicode="&#x170;" horiz-adv-x="635" 
d="M332 -8q-46 0 -85.5 10t-75.5 33t-57 67t-21 104v352l-81 11v14h263v-13l-100 -13v-346q0 -100 45.5 -144t115.5 -44q170 0 170 208v315l-97 23v14h213v-13l-78 -23v-319q0 -120 -62 -178t-150 -58zM350 624l-6 13l166 115l26 -58zM210 624l-10 13l139 129l38 -47z" />
    <glyph glyph-name="uhungarumlaut" unicode="&#x171;" horiz-adv-x="519" 
d="M382 0l-16 55q-42 -35 -74.5 -49t-72.5 -14q-132 0 -132 153v267h-85v11l127 36h30v-275q0 -74 21.5 -111.5t71.5 -37.5q61 0 113 29v348h-84v11l126 36h30v-430l72 -19v-10h-127zM188 521l-13 8l76 167l65 -24zM306 521l-10 8l122 159l49 -42z" />
    <glyph glyph-name="Uogonek" unicode="&#x172;" horiz-adv-x="635" 
d="M332 -8q-46 0 -85.5 10t-75.5 33t-57 67t-21 104v352l-81 11v14h263v-13l-100 -13v-346q0 -100 45.5 -144t115.5 -44q170 0 170 208v315l-97 23v14h213v-13l-78 -23v-319q0 -96 -41 -152.5t-106 -74.5q-39 -22 -60 -54.5t-21 -65.5q0 -34 14 -50t48 -16q28 0 48 13l7 -17
q-30 -18 -81 -18q-45 0 -67.5 21t-22.5 56q0 69 77 122h-7z" />
    <glyph glyph-name="uogonek" unicode="&#x173;" horiz-adv-x="519" 
d="M159 184q0 -74 21.5 -111.5t71.5 -37.5q61 0 113 29v348h-84v11l126 36h30v-430l72 -19v-10h-82q-38 -22 -58.5 -54.5t-20.5 -64.5q0 -34 14 -50t48 -16q28 0 48 13l7 -17q-30 -18 -81 -18q-45 0 -67.5 21t-22.5 56q0 74 89 130h-1l-16 55q-42 -35 -74.5 -49t-72.5 -14
q-132 0 -132 153v267h-85v11l127 36h30v-275z" />
    <glyph glyph-name="Wcircumflex" unicode="&#x174;" horiz-adv-x="880" 
d="M225 0l-181 563l-48 9v11h224v-10l-83 -14l138 -477h4l147 501h54l158 -507h5l152 471l-98 25v11h187v-10l-54 -23l-185 -550h-59l-153 486h-4l-147 -486h-57zM582 619l-127 58l-120 -56l-10 10l133 103l133 -102z" />
    <glyph glyph-name="wcircumflex" unicode="&#x175;" horiz-adv-x="741" 
d="M184 0l-144 426l-48 13v11h210v-10l-78 -23l99 -332h4l122 365h55l129 -365h4l106 328l-77 26v11h183v-10l-77 -26l-139 -414h-43l-132 380h-2l-132 -380h-40zM362 668h32l115 -126l-6 -10l-133 75l-130 -74l-6 9z" />
    <glyph glyph-name="Ycircumflex" unicode="&#x176;" horiz-adv-x="544" 
d="M136 0v13l99 13v213l-188 322l-41 8v14h212v-13l-79 -15l166 -283l137 273l-94 24v14h190v-13l-50 -17l-172 -314v-213l101 -12v-14h-281zM411 619l-127 58l-120 -56l-10 10l133 103l133 -102z" />
    <glyph glyph-name="ycircumflex" unicode="&#x177;" horiz-adv-x="461" 
d="M261 0l-62 -207h-60v8l78 174l-174 450l-51 14v11h210v-10l-76 -23l127 -341l115 336l-72 27v11h173v-10l-73 -28zM250 668h32l115 -126l-6 -10l-133 75l-130 -74l-6 9z" />
    <glyph glyph-name="Ydieresis" unicode="&#x178;" horiz-adv-x="544" 
d="M136 0v13l99 13v213l-188 322l-41 8v14h212v-13l-79 -15l166 -283l137 273l-94 24v14h190v-13l-50 -17l-172 -314v-213l101 -12v-14h-281zM168 679q0 19 12.5 31t31.5 12q18 0 30.5 -12t12.5 -31q0 -18 -12.5 -31t-30.5 -13q-19 0 -31.5 13t-12.5 31zM346 679
q0 19 12.5 31t31.5 12q18 0 30.5 -12t12.5 -31q0 -18 -12.5 -31t-30.5 -13q-19 0 -31.5 13t-12.5 31z" />
    <glyph glyph-name="Zacute" unicode="&#x179;" horiz-adv-x="464" 
d="M17 0l-6 19l326 537h-259l-34 -139h-21v166h411l8 -12l-340 -544h284l45 132l19 -4l-14 -155h-419zM351 746l28 -64l-195 -68l-6 13z" />
    <glyph glyph-name="zacute" unicode="&#x17a;" horiz-adv-x="377" 
d="M367 143l-22 -143h-323l-10 29l248 397h-175l-54 -92l-10 3l13 113h307l11 -18l-262 -408h201l69 121zM297 694l45 -54l-169 -119l-10 8z" />
    <glyph glyph-name="Zdotaccent" unicode="&#x17b;" horiz-adv-x="464" 
d="M17 0l-6 19l326 537h-259l-34 -139h-21v166h411l8 -12l-340 -544h284l45 132l19 -4l-14 -155h-419zM204 684q0 20 12.5 32.5t31.5 12.5t32 -13t13 -32t-13 -31.5t-32 -12.5t-31.5 12.5t-12.5 31.5z" />
    <glyph glyph-name="zdotaccent" unicode="&#x17c;" horiz-adv-x="377" 
d="M367 143l-22 -143h-323l-10 29l248 397h-175l-54 -92l-10 3l13 113h307l11 -18l-262 -408h201l69 121zM169 619q0 20 12.5 32.5t31.5 12.5t32 -13t13 -32t-13 -31.5t-32 -12.5t-31.5 12.5t-12.5 31.5z" />
    <glyph glyph-name="Zcaron" unicode="&#x17d;" horiz-adv-x="464" 
d="M17 0l-6 19l326 537h-259l-34 -139h-21v166h411l8 -12l-340 -544h284l45 132l19 -4l-14 -155h-419zM246 626h-21l-118 102l9 13l127 -58l120 56l10 -10z" />
    <glyph glyph-name="zcaron" unicode="&#x17e;" horiz-adv-x="377" 
d="M367 143l-22 -143h-323l-10 29l248 397h-175l-54 -92l-10 3l13 113h307l11 -18l-262 -408h201l69 121zM215 519h-32l-115 126l6 10l133 -75l130 74l6 -9z" />
    <glyph glyph-name="uni018F" unicode="&#x18f;" horiz-adv-x="598" 
d="M286 -8q-137 0 -195 76.5t-58 213.5v8v20h443q-4 107 -56 172.5t-140 65.5q-97 0 -191 -43l-16 24q104 63 211 63q129 0 206 -77.5t77 -200.5q0 -136 -74 -229t-207 -93zM289 18q92 0 138 75.5t49 187.5h-353q2 -263 166 -263z" />
    <glyph glyph-name="florin" unicode="&#x192;" horiz-adv-x="394" 
d="M39 287v28h108l7 72q9 103 66 158t137 55q17 0 37 -3l-14 -86l-87 48q-57 -50 -69 -175l-7 -69h125v-28h-127l-19 -210q-8 -86 -51 -153.5t-109 -67.5q-65 0 -95 17l23 72q65 -35 113 -45q33 33 46 160l21 227h-105z" />
    <glyph glyph-name="Ohorn" unicode="&#x1a0;" horiz-adv-x="646" 
d="M615 314q0 -134 -82 -228t-217 -94q-129 0 -207 78t-78 205q0 139 83.5 228t217.5 89q120 0 197 -69q33 15 33 55q0 21 -15 75l66 13q12 -28 12 -64q0 -63 -81 -94q71 -76 71 -194zM524 295q0 119 -50 195.5t-149 76.5q-101 0 -152.5 -75t-51.5 -196q0 -119 53 -198.5
t145 -79.5q55 0 96 23.5t64 64t34 88t11 101.5z" />
    <glyph glyph-name="ohorn" unicode="&#x1a1;" horiz-adv-x="451" 
d="M428 225q0 -93 -61 -163t-147 -70q-198 0 -198 228q0 94 61 166.5t145 72.5q93 0 142 -50q25 13 25 43q0 29 -28 87l66 13q12 -28 12 -64q0 -35 -13 -57.5t-49 -36.5q45 -57 45 -169zM348 213q0 37 -5 71t-17.5 71t-40 59t-66.5 22q-118 0 -118 -200q0 -39 6 -74.5
t19.5 -70t41 -55t65.5 -20.5q36 0 60 16.5t35.5 46.5t15.5 61.5t4 72.5z" />
    <glyph glyph-name="Uhorn" unicode="&#x1af;" horiz-adv-x="635" 
d="M332 -9q-46 0 -85.5 10t-75.5 33t-57 67t-21 104v353l-81 11v14h263v-13l-100 -13v-347q0 -100 45.5 -144t115.5 -44q170 0 170 208v316l-97 23v14h170q24 35 -23 100l66 13q12 -29 12 -64q0 -31 -17.5 -48.5t-72.5 -35.5v-321q0 -120 -62 -178t-150 -58z" />
    <glyph glyph-name="uhorn" unicode="&#x1b0;" horiz-adv-x="519" 
d="M382 0l-16 55q-42 -35 -74.5 -49t-72.5 -14q-132 0 -132 153v267h-85v11l127 36h30v-275q0 -74 21.5 -111.5t71.5 -37.5q61 0 113 29v348h-84v11l150 38q40 12 40 39q0 22 -32 58l64 14q12 -28 12 -64q0 -57 -78 -91v-388l72 -19v-10h-127z" />
    <glyph glyph-name="uni01C4" unicode="&#x1c4;" horiz-adv-x="1118" 
d="M19 0v13l99 12v532l-99 12v14h258q61 0 109 -6.5t93.5 -25t76 -49t49 -80t18.5 -116.5q0 -147 -94.5 -226.5t-246.5 -79.5h-263zM274 556h-75v-529h92q120 0 181 60.5t61 203.5q0 131 -60.5 198t-198.5 67zM671 0l-6 19l326 537h-259l-34 -139h-21v166h411l8 -12
l-340 -544h284l45 132l19 -4l-14 -155h-419zM900 626h-21l-118 102l9 13l127 -58l120 56l10 -10z" />
    <glyph glyph-name="uni01C5" unicode="&#x1c5;" horiz-adv-x="1031" 
d="M19 0v13l99 12v532l-99 12v14h258q61 0 109 -6.5t93.5 -25t76 -49t49 -80t18.5 -116.5q0 -147 -94.5 -226.5t-246.5 -79.5h-263zM274 556h-75v-529h92q120 0 181 60.5t61 203.5q0 131 -60.5 198t-198.5 67zM1021 143l-22 -143h-323l-10 29l248 397h-175l-54 -92l-10 3
l13 113h307l11 -18l-262 -408h201l69 121zM869 519h-32l-115 126l6 10l133 -75l130 74l6 -9z" />
    <glyph glyph-name="uni01C6" unicode="&#x1c6;" horiz-adv-x="857" 
d="M343 0l-15 54q-59 -62 -132 -62t-123.5 51.5t-50.5 163.5t61.5 182t150.5 70q50 0 92 -10v215h-84v12l105 27h51v-674l72 -19v-10h-127zM222 38q59 0 104 25v340q-34 32 -92 32q-64 0 -101 -54.5t-37 -146.5q0 -91 34 -143.5t92 -52.5zM847 143l-22 -143h-323l-10 29
l248 397h-175l-54 -92l-10 3l13 113h307l11 -18l-262 -408h201l69 121zM695 519h-32l-115 126l6 10l133 -75l130 74l6 -9z" />
    <glyph glyph-name="uni01C7" unicode="&#x1c7;" horiz-adv-x="903" 
d="M19 0v13l99 12v532l-99 12v14h281v-13l-101 -13v-530h213l54 141l21 -6l-27 -162h-441zM636 -9q-74 0 -133 21v161h21l32 -135q34 -18 78 -18q38 0 62 32.5t24 94.5v410l-99 12v14h282v-13l-101 -13v-407q0 -70 -51 -114.5t-115 -44.5z" />
    <glyph glyph-name="uni01C8" unicode="&#x1c8;" horiz-adv-x="719" 
d="M19 0v13l99 12v532l-99 12v14h281v-13l-101 -13v-530h213l54 141l21 -6l-27 -162h-441zM521 -207l-9 10q38 35 50 71t12 130v408h-85v11l126 36h30v-461q0 -61 -34 -114t-90 -91zM612 568q-22 0 -37 14.5t-15 36.5t15 36.5t37 14.5q21 0 36 -14.5t15 -36.5t-15 -36.5
t-36 -14.5z" />
    <glyph glyph-name="uni01C9" unicode="&#x1c9;" horiz-adv-x="484" 
d="M11 0v10l80 20v634h-85v12l105 27h52v-672l82 -20v-11h-234zM286 -207l-9 10q38 35 50 71t12 130v408h-85v11l126 36h30v-461q0 -61 -34 -114t-90 -91zM377 568q-22 0 -37 14.5t-15 36.5t15 36.5t37 14.5q21 0 36 -14.5t15 -36.5t-15 -36.5t-36 -14.5z" />
    <glyph glyph-name="uni01CA" unicode="&#x1ca;" horiz-adv-x="1029" 
d="M21 0v13l78 23v507l-80 26v14h138l344 -431v394l-87 23v14h203v-13l-78 -22v-556h-18l-384 487v-444l87 -21v-14h-203zM762 -9q-74 0 -133 21v161h21l32 -135q34 -18 78 -18q38 0 62 32.5t24 94.5v410l-99 12v14h282v-13l-101 -13v-407q0 -70 -51 -114.5t-115 -44.5z" />
    <glyph glyph-name="uni01CB" unicode="&#x1cb;" horiz-adv-x="865" 
d="M21 0v13l78 23v507l-80 26v14h138l344 -431v394l-87 23v14h203v-13l-78 -22v-556h-18l-384 487v-444l87 -21v-14h-203zM667 -207l-9 10q38 35 50 71t12 130v408h-85v11l126 36h30v-461q0 -61 -34 -114t-90 -91zM758 568q-22 0 -37 14.5t-15 36.5t15 36.5t37 14.5
q21 0 36 -14.5t15 -36.5t-15 -36.5t-36 -14.5z" />
    <glyph glyph-name="uni01CC" unicode="&#x1cc;" horiz-adv-x="788" 
d="M19 0v10l80 20v382h-85v11l111 36h37l7 -85q85 85 174 85q65 0 95.5 -44.5t30.5 -117.5v-266l81 -20v-11h-234v10l82 21v252q0 125 -99 125q-70 0 -129 -47v-330l83 -20v-11h-234zM590 -207l-9 10q38 35 50 71t12 130v408h-85v11l126 36h30v-461q0 -61 -34 -114t-90 -91z
M681 568q-22 0 -37 14.5t-15 36.5t15 36.5t37 14.5q21 0 36 -14.5t15 -36.5t-15 -36.5t-36 -14.5z" />
    <glyph glyph-name="uni01CD" unicode="&#x1cd;" horiz-adv-x="559" 
d="M339 0v10l84 14l-67 206h-196l-73 -195l96 -24v-11h-187v10l57 23l211 550h57l192 -563l50 -9v-11h-224zM263 506l-93 -249h178l-80 249h-5zM301 626h-21l-118 102l9 13l127 -58l120 56l10 -10z" />
    <glyph glyph-name="uni01CE" unicode="&#x1ce;" horiz-adv-x="436" 
d="M71 299h-16v125h1q77 35 147 35q65 0 107.5 -34.5t42.5 -104.5v-291l71 -19v-10h-127l-13 57q-63 -65 -141 -65q-53 0 -86.5 31t-33.5 85q0 60 57 101.5t151 41.5h51v82q0 102 -81 102q-50 0 -95 -34zM281 70l1 155h-67q-60 0 -92 -27t-32 -74q0 -42 22 -66t58 -24
q49 0 110 36zM223 523h-32l-115 126l6 10l133 -75l130 74l6 -9z" />
    <glyph glyph-name="uni01CF" unicode="&#x1cf;" horiz-adv-x="345" 
d="M32 0v13l99 13v531l-99 12v14h281v-13l-101 -13v-531l101 -12v-14h-281zM181 626h-21l-118 102l9 13l127 -58l120 56l10 -10z" />
    <glyph glyph-name="uni01D0" unicode="&#x1d0;" horiz-adv-x="264" 
d="M170 24l83 -13v-11h-234v10l80 14v388h-85v11l126 36h30v-435zM145 519h-32l-115 126l6 10l133 -75l130 74l6 -9z" />
    <glyph glyph-name="uni01D1" unicode="&#x1d1;" horiz-adv-x="646" 
d="M615 314q0 -134 -82 -228t-217 -94q-129 0 -207 78t-78 205q0 139 83.5 228t217.5 89q129 0 206 -77.5t77 -200.5zM524 295q0 119 -50 195.5t-149 76.5q-101 0 -152.5 -75t-51.5 -196q0 -119 53 -198.5t145 -79.5q55 0 96 23.5t64 64t34 88t11 101.5zM334 626h-21
l-118 102l9 13l127 -58l120 56l10 -10z" />
    <glyph glyph-name="uni01D2" unicode="&#x1d2;" horiz-adv-x="451" 
d="M428 225q0 -93 -61 -163t-147 -70q-198 0 -198 228q0 94 61 166.5t145 72.5q200 0 200 -234zM348 213q0 37 -5 71t-17.5 71t-40 59t-66.5 22q-118 0 -118 -200q0 -39 6 -74.5t19.5 -70t41 -55t65.5 -20.5q36 0 60 16.5t35.5 46.5t15.5 61.5t4 72.5zM242 519h-32l-115 126
l6 10l133 -75l130 74l6 -9z" />
    <glyph glyph-name="uni01D3" unicode="&#x1d3;" horiz-adv-x="635" 
d="M332 -8q-46 0 -85.5 10t-75.5 33t-57 67t-21 104v352l-81 11v14h263v-13l-100 -13v-346q0 -100 45.5 -144t115.5 -44q170 0 170 208v315l-97 23v14h213v-13l-78 -23v-319q0 -120 -62 -178t-150 -58zM344 627h-21l-118 102l9 13l127 -58l120 56l10 -10z" />
    <glyph glyph-name="uni01D4" unicode="&#x1d4;" horiz-adv-x="519" 
d="M382 0l-16 55q-42 -35 -74.5 -49t-72.5 -14q-132 0 -132 153v267h-85v11l127 36h30v-275q0 -74 21.5 -111.5t71.5 -37.5q61 0 113 29v348h-84v11l126 36h30v-430l72 -19v-10h-127zM285 519h-32l-115 126l6 10l133 -75l130 74l6 -9z" />
    <glyph glyph-name="AEmacron" unicode="&#x1e2;" horiz-adv-x="777" 
d="M296 0v13l99 12v205h-187l-110 -198l85 -21v-11h-187v10l66 27l310 546h371v-132h-24l-29 106h-214v-247l223 4v-34l-223 4v-257h221l47 115l17 -6l-16 -136h-449zM387 550l-164 -293h172v293h-8zM688 667h-245v26h245v-26z" />
    <glyph glyph-name="aemacron" unicode="&#x1e3;" horiz-adv-x="677" 
d="M55 299v125q77 35 148 35q96 0 132 -70q55 70 145 70q168 0 175 -217h-301q-1 -102 48 -153t122 -51q25 0 58 12t58 32l11 -19q-20 -26 -65 -48.5t-95 -22.5q-113 0 -166 72q-86 -72 -182 -72q-53 0 -86.5 31t-33.5 85q0 60 57 101.5t151 41.5h51v82q0 102 -81 102
q-50 0 -95 -34l-35 -102h-16zM171 34q55 0 136 58q-25 50 -25 133h-67q-60 0 -92 -27t-32 -74q0 -42 22 -66t58 -24zM356 268h215q2 74 -23 121.5t-75 47.5q-43 0 -76 -44.5t-41 -124.5zM479 596h-246v28h246v-28z" />
    <glyph glyph-name="uni01E6" unicode="&#x1e6;" horiz-adv-x="582" 
d="M527 30q-1 0 -18 -7.5t-34 -13.5t-49 -11.5t-68 -5.5q-150 0 -238.5 74.5t-88.5 222.5q0 131 91 217t233 86q21 0 39.5 -1t34 -3.5t27 -4.5t23.5 -6t17.5 -6t16.5 -6.5t14 -5.5v-154h-21l-39 131q-49 31 -118 31q-96 0 -162 -73t-66 -197q0 -130 70 -202.5t176 -72.5
q34 0 78 17v229l-99 12v14h181v-264zM349 626h-21l-118 102l9 13l127 -58l120 56l10 -10z" />
    <glyph glyph-name="uni01E7" unicode="&#x1e7;" horiz-adv-x="451" 
d="M213 176q-21 0 -41 3l-51 -64l131 -17q171 -24 171 -128q0 -71 -66.5 -127.5t-174.5 -56.5q-83 0 -128.5 36.5t-45.5 90.5q0 36 34 70t86 58l-74 10v37l101 95q-50 13 -78.5 46.5t-28.5 80.5q0 58 45.5 103.5t113.5 45.5q82 0 126 -46l111 37h7v-48h-109q28 -39 28 -90
q0 -54 -48 -95t-109 -41zM76 -81q0 -41 33 -70t97 -29t113 36.5t49 81.5q0 73 -136 90l-87 11q-69 -54 -69 -120zM210 201q39 0 59.5 28t20.5 78q0 128 -86 128q-36 0 -58 -30.5t-22 -86.5t22.5 -86.5t63.5 -30.5zM231 519h-32l-115 126l6 10l133 -75l130 74l6 -9z" />
    <glyph glyph-name="uni01E8" unicode="&#x1e8;" horiz-adv-x="586" 
d="M19 0v13l99 13v531l-99 12v14h281v-13l-101 -13v-531l101 -12v-14h-281zM440 0l-215 280v16l217 255l-74 20v12h201v-14l-88 -18l-193 -219l239 -308l67 -9v-15h-154zM334 626h-21l-118 102l9 13l127 -58l120 56l10 -10z" />
    <glyph glyph-name="uni01E9" unicode="&#x1e9;" horiz-adv-x="476" 
d="M11 0v10l80 20v634h-85v12l105 27h52v-672l82 -20v-11h-234zM192 235v8l161 170l-80 27v10h182v-11l-68 -27l-134 -140l157 -238l74 -24v-10h-138zM338 626h-21l-118 102l9 13l127 -58l120 56l10 -10z" />
    <glyph glyph-name="uni01EA" unicode="&#x1ea;" horiz-adv-x="646" 
d="M615 314q0 -117 -64.5 -206t-173.5 -110q-37 -22 -56.5 -54t-19.5 -63q0 -34 14 -50t48 -16q28 0 48 13l7 -17q-30 -18 -81 -18q-45 0 -67.5 21t-22.5 56q0 68 77 123q-2 0 -4 -0.5t-4 -0.5q-129 0 -207 78t-78 205q0 139 83.5 228t217.5 89q129 0 206 -77.5t77 -200.5z
M524 295q0 119 -50 195.5t-149 76.5q-101 0 -152.5 -75t-51.5 -196q0 -119 53 -198.5t145 -79.5q55 0 96 23.5t64 64t34 88t11 101.5z" />
    <glyph glyph-name="uni01EB" unicode="&#x1eb;" horiz-adv-x="451" 
d="M428 225q0 -70 -37 -130.5t-96 -86.5q-46 -21 -70.5 -56.5t-24.5 -70.5q0 -34 14 -50t48 -16q28 0 48 13l7 -17q-30 -18 -81 -18q-45 0 -67.5 21t-22.5 56q0 69 77 122h-3q-198 0 -198 228q0 94 61 166.5t145 72.5q200 0 200 -234zM348 213q0 37 -5 71t-17.5 71t-40 59
t-66.5 22q-118 0 -118 -200q0 -39 6 -74.5t19.5 -70t41 -55t65.5 -20.5q36 0 60 16.5t35.5 46.5t15.5 61.5t4 72.5z" />
    <glyph glyph-name="uni01EC" unicode="&#x1ec;" horiz-adv-x="646" 
d="M615 314q0 -117 -64.5 -206t-173.5 -110q-37 -22 -56.5 -54t-19.5 -63q0 -34 14 -50t48 -16q28 0 48 13l7 -17q-30 -18 -81 -18q-45 0 -67.5 21t-22.5 56q0 68 77 123q-2 0 -4 -0.5t-4 -0.5q-129 0 -207 78t-78 205q0 139 83.5 228t217.5 89q129 0 206 -77.5t77 -200.5z
M524 295q0 119 -50 195.5t-149 76.5q-101 0 -152.5 -75t-51.5 -196q0 -119 53 -198.5t145 -79.5q55 0 96 23.5t64 64t34 88t11 101.5zM447 668h-245v26h245v-26z" />
    <glyph glyph-name="uni01ED" unicode="&#x1ed;" horiz-adv-x="451" 
d="M428 225q0 -76 -42.5 -139t-108.5 -85q-39 -22 -60 -54.5t-21 -65.5q0 -34 14 -50t48 -16q28 0 48 13l7 -17q-30 -18 -81 -18q-45 0 -67.5 21t-22.5 56q0 69 77 122q-197 2 -197 228q0 94 61 166.5t145 72.5q200 0 200 -234zM348 213q0 37 -5 71t-17.5 71t-40 59
t-66.5 22q-118 0 -118 -200q0 -39 6 -74.5t19.5 -70t41 -55t65.5 -20.5q36 0 60 16.5t35.5 46.5t15.5 61.5t4 72.5zM356 596h-246v28h246v-28z" />
    <glyph glyph-name="uni01EE" unicode="&#x1ee;" horiz-adv-x="450" 
d="M340 74q0 129 -176 151l-13 42l173 238l-3 7h-255l-32 -76l-18 3l17 144h357l10 -22l-191 -259l3 -6q100 -13 158.5 -66.5t58.5 -127.5q0 -104 -72 -162.5t-185 -58.5q-58 0 -138 25v109h16q42 -107 148 -107q64 0 103 48.5t39 117.5zM232 626h-21l-118 102l9 13l127 -58
l120 56l10 -10z" />
    <glyph glyph-name="uni01EF" unicode="&#x1ef;" horiz-adv-x="403" 
d="M384 26q0 -68 -48.5 -122.5t-120.5 -82t-150 -28.5l-6 22q96 0 168.5 58.5t72.5 134.5q0 56 -35 86t-93 30q-29 0 -50 -5l-13 42l178 221l-3 7h-211l-43 -85l-14 2l17 144h317l10 -22l-184 -225l3 -6q102 -3 153.5 -49t51.5 -122zM208 519h-32l-115 126l6 10l133 -75
l130 74l6 -9z" />
    <glyph glyph-name="uni01F1" unicode="&#x1f1;" horiz-adv-x="1118" 
d="M19 0v13l99 12v532l-99 12v14h258q61 0 109 -6.5t93.5 -25t76 -49t49 -80t18.5 -116.5q0 -147 -94.5 -226.5t-246.5 -79.5h-263zM274 556h-75v-529h92q120 0 181 60.5t61 203.5q0 131 -60.5 198t-198.5 67zM671 0l-6 19l326 537h-259l-34 -139h-21v166h411l8 -12
l-340 -544h284l45 132l19 -4l-14 -155h-419z" />
    <glyph glyph-name="uni01F2" unicode="&#x1f2;" horiz-adv-x="1031" 
d="M19 0v13l99 12v532l-99 12v14h258q61 0 109 -6.5t93.5 -25t76 -49t49 -80t18.5 -116.5q0 -147 -94.5 -226.5t-246.5 -79.5h-263zM274 556h-75v-529h92q120 0 181 60.5t61 203.5q0 131 -60.5 198t-198.5 67zM1021 143l-22 -143h-323l-10 29l248 397h-175l-54 -92l-10 3
l13 113h307l11 -18l-262 -408h201l69 121z" />
    <glyph glyph-name="uni01F3" unicode="&#x1f3;" horiz-adv-x="857" 
d="M343 0l-15 54q-59 -62 -132 -62t-123.5 51.5t-50.5 163.5t61.5 182t150.5 70q50 0 92 -10v215h-84v12l105 27h51v-674l72 -19v-10h-127zM222 38q59 0 104 25v340q-34 32 -92 32q-64 0 -101 -54.5t-37 -146.5q0 -91 34 -143.5t92 -52.5zM847 143l-22 -143h-323l-10 29
l248 397h-175l-54 -92l-10 3l13 113h307l11 -18l-262 -408h201l69 121z" />
    <glyph glyph-name="uni01F4" unicode="&#x1f4;" horiz-adv-x="582" 
d="M506 405l-39 131q-49 31 -118 31q-96 0 -162 -73t-66 -197q0 -130 70 -202.5t176 -72.5q34 0 78 17v229l-99 12v14h181v-264q-1 0 -18 -7.5t-34 -13.5t-49 -11.5t-68 -5.5q-150 0 -238.5 74.5t-88.5 222.5q0 131 91 217t233 86q21 0 39.5 -1t34 -3.5t27 -4.5t23.5 -6
t17.5 -6t16.5 -6.5t14 -5.5v-154h-21zM445 746l28 -64l-195 -68l-6 13z" />
    <glyph glyph-name="uni01F5" unicode="&#x1f5;" horiz-adv-x="451" 
d="M213 176q-21 0 -41 3l-51 -64l131 -17q171 -24 171 -128q0 -71 -66.5 -127.5t-174.5 -56.5q-83 0 -128.5 36.5t-45.5 90.5q0 36 34 70t86 58l-74 10v37l101 95q-50 13 -78.5 46.5t-28.5 80.5q0 58 45.5 103.5t113.5 45.5q82 0 126 -46l111 37h7v-48h-109q28 -39 28 -90
q0 -54 -48 -95t-109 -41zM76 -81q0 -41 33 -70t97 -29t113 36.5t49 81.5q0 73 -136 90l-87 11q-69 -54 -69 -120zM210 201q39 0 59.5 28t20.5 78q0 128 -86 128q-36 0 -58 -30.5t-22 -86.5t22.5 -86.5t63.5 -30.5zM313 694l45 -54l-169 -119l-10 8z" />
    <glyph glyph-name="uni01F8" unicode="&#x1f8;" horiz-adv-x="628" 
d="M21 0v13l78 23v507l-80 26v14h138l344 -431v394l-87 23v14h203v-13l-78 -22v-556h-18l-384 487v-444l87 -21v-14h-203zM192 682l33 62l168 -117l-6 -13z" />
    <glyph glyph-name="uni01F9" unicode="&#x1f9;" horiz-adv-x="551" 
d="M19 0v10l80 20v382h-85v11l111 36h37l7 -85q85 85 174 85q65 0 95.5 -44.5t30.5 -117.5v-266l81 -20v-11h-234v10l82 21v252q0 125 -99 125q-70 0 -129 -47v-330l83 -20v-11h-234zM145 640l45 54l134 -165l-10 -8z" />
    <glyph glyph-name="uni01FA" unicode="&#x1fa;" horiz-adv-x="559" 
d="M339 0v10l84 14l-67 206h-196l-73 -195l96 -24v-11h-187v10l57 23l211 550h57l192 -563l50 -9v-11h-224zM263 506l-93 -249h178l-80 249h-5zM292 597q-26 0 -49.5 20t-23.5 54q0 32 20 52t53 20t53.5 -20.5t20.5 -51.5q0 -33 -21.5 -53.5t-52.5 -20.5zM292 615
q26 0 41 14.5t15 41.5q0 25 -15.5 40t-40.5 15q-26 0 -40.5 -14.5t-14.5 -40.5q0 -27 17 -41.5t38 -14.5zM394 879l28 -64l-195 -68l-6 13z" />
    <glyph glyph-name="uni01FB" unicode="&#x1fb;" horiz-adv-x="436" 
d="M71 299h-16v125h1q77 35 147 35q65 0 107.5 -34.5t42.5 -104.5v-291l71 -19v-10h-127l-13 57q-63 -65 -141 -65q-53 0 -86.5 31t-33.5 85q0 60 57 101.5t151 41.5h51v82q0 102 -81 102q-50 0 -95 -34zM281 70l1 155h-67q-60 0 -92 -27t-32 -74q0 -42 22 -66t58 -24
q49 0 110 36zM209 513q-26 0 -49.5 20t-23.5 54q0 32 20 52t53 20t53.5 -20.5t20.5 -51.5q0 -33 -21.5 -53.5t-52.5 -20.5zM209 531q26 0 41 14.5t15 41.5q0 25 -15.5 40t-40.5 15q-26 0 -40.5 -14.5t-14.5 -40.5q0 -27 17 -41.5t38 -14.5zM310 801l28 -64l-195 -68l-6 13z
" />
    <glyph glyph-name="AEacute" unicode="&#x1fc;" horiz-adv-x="777" 
d="M296 0v13l99 12v205h-187l-110 -198l85 -21v-11h-187v10l66 27l310 546h371v-132h-24l-29 106h-214v-247l223 4v-34l-223 4v-257h221l47 115l17 -6l-16 -136h-449zM387 550l-164 -293h172v293h-8zM684 747l28 -64l-195 -68l-6 13z" />
    <glyph glyph-name="aeacute" unicode="&#x1fd;" horiz-adv-x="677" 
d="M55 299v125q77 35 148 35q96 0 132 -70q55 70 145 70q168 0 175 -217h-301q-1 -102 48 -153t122 -51q25 0 58 12t58 32l11 -19q-20 -26 -65 -48.5t-95 -22.5q-113 0 -166 72q-86 -72 -182 -72q-53 0 -86.5 31t-33.5 85q0 60 57 101.5t151 41.5h51v82q0 102 -81 102
q-50 0 -95 -34l-35 -102h-16zM171 34q55 0 136 58q-25 50 -25 133h-67q-60 0 -92 -27t-32 -74q0 -42 22 -66t58 -24zM356 268h215q2 74 -23 121.5t-75 47.5q-43 0 -76 -44.5t-41 -124.5zM446 694l45 -54l-169 -119l-10 8z" />
    <glyph glyph-name="Oslashacute" unicode="&#x1fe;" horiz-adv-x="646" 
d="M615 314q0 -134 -82 -228t-217 -94q-117 0 -193 64l-58 -64h-35l75 82q-74 79 -74 201q0 139 83.5 228t217.5 89q113 0 189 -62l56 62h36l-73 -80q75 -77 75 -198zM524 295q0 95 -33 164l-323 -353q55 -88 151 -88q55 0 96 23.5t64 64t34 88t11 101.5zM121 296
q0 -94 34 -167l323 354q-53 84 -153 84q-101 0 -152.5 -75t-51.5 -196zM439 746l28 -64l-195 -68l-6 13z" />
    <glyph glyph-name="oslashacute" unicode="&#x1ff;" horiz-adv-x="451" 
d="M428 225q0 -93 -61 -163t-147 -70q-85 0 -135 43l-35 -43h-28l48 59q-48 57 -48 169q0 94 61 166.5t145 72.5q86 0 134 -42l34 42h32l-49 -60q49 -56 49 -174zM348 213q0 71 -17 126l-203 -251q34 -72 105 -72q36 0 60 16.5t35.5 46.5t15.5 61.5t4 72.5zM101 236
q0 -73 17 -124l203 253q-33 71 -102 71q-118 0 -118 -200zM344 694l45 -54l-169 -119l-10 8z" />
    <glyph glyph-name="Scommaaccent" unicode="&#x218;" horiz-adv-x="437" 
d="M368 417l-32 115q-46 33 -103 33q-58 0 -91.5 -30.5t-33.5 -74.5q0 -43 32 -71.5t90 -51.5q4 -2 13 -5q33 -13 50 -20t44 -23t40.5 -32t24 -41.5t10.5 -56.5q0 -82 -66 -124.5t-156 -42.5q-85 0 -165 34v143h18l36 -117q56 -34 126 -34q126 0 126 120q0 25 -10.5 44
t-35.5 34t-42.5 22.5t-55.5 22.5q-34 13 -56.5 25t-46.5 31t-36.5 45.5t-12.5 60.5q0 74 55 121.5t132 47.5q97 0 165 -35v-140h-19zM205 -62h62l-61 -185h-21z" />
    <glyph glyph-name="scommaaccent" unicode="&#x219;" horiz-adv-x="371" 
d="M172 -8q-76 0 -144 30v123h12l33 -99q45 -24 99 -24q46 0 77 20.5t31 62.5q0 35 -25.5 54t-61.5 27.5t-72.5 19.5t-62 40t-25.5 79q0 62 48 98t117 36q72 0 129 -28v-112h-12l-24 83q-51 28 -106 28q-42 0 -68.5 -20t-26.5 -64q0 -36 26 -54.5t63 -26t74.5 -17.5
t63.5 -38t26 -77q0 -72 -50 -106.5t-121 -34.5zM156 -62h62l-61 -185h-21z" />
    <glyph glyph-name="uni021A" unicode="&#x21a;" horiz-adv-x="510" 
d="M114 0v13l99 12v531h-151l-38 -139h-19v166h500v-166h-19l-45 139h-146v-530l101 -12v-14h-282zM225 -62h62l-61 -185h-21z" />
    <glyph glyph-name="uni021B" unicode="&#x21b;" horiz-adv-x="313" 
d="M308 34l4 -14q-59 -28 -114 -28q-56 0 -91.5 32t-34.5 99v301h-66v8l70 20l58 115h13v-117h150v-26h-150v-311q1 -92 91 -92q31 0 70 13zM163 -62h62l-61 -185h-21z" />
    <glyph glyph-name="uni021C" unicode="&#x21c;" horiz-adv-x="450" 
d="M340 74q0 129 -176 151l-13 42l173 238l-3 7h-255l-32 -76l-18 3l17 144h357l10 -22l-191 -259l3 -6q100 -13 158.5 -66.5t58.5 -127.5q0 -104 -72 -162.5t-185 -58.5q-58 0 -138 25v109h16q42 -107 148 -107q64 0 103 48.5t39 117.5z" />
    <glyph glyph-name="uni021D" unicode="&#x21d;" horiz-adv-x="403" 
d="M384 26q0 -68 -48.5 -122.5t-120.5 -82t-150 -28.5l-6 22q96 0 168.5 58.5t72.5 134.5q0 56 -35 86t-93 30q-29 0 -50 -5l-13 42l178 221l-3 7h-211l-43 -85l-14 2l17 144h317l10 -22l-184 -225l3 -6q102 -3 153.5 -49t51.5 -122z" />
    <glyph glyph-name="uni021E" unicode="&#x21e;" horiz-adv-x="689" 
d="M390 0v13l98 12v259h-289v-258l101 -12v-14h-281v13l99 12v532l-99 12v14h281v-13l-101 -13v-247h289v247l-98 12v14h281v-13l-101 -13v-531l101 -12v-14h-281zM355 626h-21l-118 102l9 13l127 -58l120 56l10 -10z" />
    <glyph glyph-name="uni021F" unicode="&#x21f;" horiz-adv-x="548" 
d="M11 0v10l80 20v634h-85v12l105 27h52v-328q84 84 172 84q65 0 95.5 -44.5t30.5 -117.5v-266l81 -20v-11h-234v10l82 21v251q0 126 -99 126q-71 0 -128 -46v-331l82 -20v-11h-234zM345 626h-21l-118 102l9 13l127 -58l120 56l10 -10z" />
    <glyph glyph-name="uni0226" unicode="&#x226;" horiz-adv-x="559" 
d="M339 0v10l84 14l-67 206h-196l-73 -195l96 -24v-11h-187v10l57 23l211 550h57l192 -563l50 -9v-11h-224zM263 506l-93 -249h178l-80 249h-5zM250 684q0 20 12.5 32.5t31.5 12.5t32 -13t13 -32t-13 -31.5t-32 -12.5t-31.5 12.5t-12.5 31.5z" />
    <glyph glyph-name="uni0227" unicode="&#x227;" horiz-adv-x="436" 
d="M71 299h-16v125h1q77 35 147 35q65 0 107.5 -34.5t42.5 -104.5v-291l71 -19v-10h-127l-13 57q-63 -65 -141 -65q-53 0 -86.5 31t-33.5 85q0 60 57 101.5t151 41.5h51v82q0 102 -81 102q-50 0 -95 -34zM281 70l1 155h-67q-60 0 -92 -27t-32 -74q0 -42 22 -66t58 -24
q49 0 110 36zM162 619q0 20 12.5 32.5t31.5 12.5t32 -13t13 -32t-13 -31.5t-32 -12.5t-31.5 12.5t-12.5 31.5z" />
    <glyph glyph-name="uni0228" unicode="&#x228;" horiz-adv-x="501" 
d="M423 280l-224 4v-257h222l47 115l17 -6l-16 -136h-161l-19 -52q41 -6 63.5 -28t22.5 -52q0 -35 -29.5 -59.5t-79.5 -24.5q-44 0 -72 15l14 25q28 -15 57 -15q22 0 41 15t19 36q0 26 -19 46.5t-57 28.5l39 65h-269v13l99 12v532l-99 12v14h448v-132h-24l-29 106h-215v-247
l224 4v-34z" />
    <glyph glyph-name="uni0229" unicode="&#x229;" horiz-adv-x="417" 
d="M201 -216q-44 0 -72 15l14 25q28 -15 57 -15q22 0 41 15t19 36q0 26 -19 46.5t-57 28.5l34 57q-97 4 -146.5 63t-49.5 162q0 104 54 173t144 69q168 0 175 -217h-300v-15q0 -88 48.5 -138.5t120.5 -50.5q25 0 58 12t58 32l11 -19q-18 -25 -60.5 -46.5t-90.5 -24.5
l-16 -44q41 -6 63.5 -28t22.5 -52q0 -35 -29.5 -59.5t-79.5 -24.5zM213 437q-43 0 -76 -44.5t-41 -124.5h215q2 74 -23 121.5t-75 47.5z" />
    <glyph glyph-name="uni022E" unicode="&#x22e;" horiz-adv-x="646" 
d="M615 314q0 -134 -82 -228t-217 -94q-129 0 -207 78t-78 205q0 139 83.5 228t217.5 89q129 0 206 -77.5t77 -200.5zM524 295q0 119 -50 195.5t-149 76.5q-101 0 -152.5 -75t-51.5 -196q0 -119 53 -198.5t145 -79.5q55 0 96 23.5t64 64t34 88t11 101.5zM287 684
q0 20 12.5 32.5t31.5 12.5t32 -13t13 -32t-13 -31.5t-32 -12.5t-31.5 12.5t-12.5 31.5z" />
    <glyph glyph-name="uni022F" unicode="&#x22f;" horiz-adv-x="451" 
d="M428 225q0 -93 -61 -163t-147 -70q-198 0 -198 228q0 94 61 166.5t145 72.5q200 0 200 -234zM348 213q0 37 -5 71t-17.5 71t-40 59t-66.5 22q-118 0 -118 -200q0 -39 6 -74.5t19.5 -70t41 -55t65.5 -20.5q36 0 60 16.5t35.5 46.5t15.5 61.5t4 72.5zM183 619
q0 20 12.5 32.5t31.5 12.5t32 -13t13 -32t-13 -31.5t-32 -12.5t-31.5 12.5t-12.5 31.5z" />
    <glyph glyph-name="Ymacron" unicode="&#x232;" horiz-adv-x="544" 
d="M136 0v13l99 13v213l-188 322l-41 8v14h212v-13l-79 -15l166 -283l137 273l-94 24v14h190v-13l-50 -17l-172 -314v-213l101 -12v-14h-281zM407 668h-245v26h245v-26z" />
    <glyph glyph-name="ymacron" unicode="&#x233;" horiz-adv-x="461" 
d="M261 0l-62 -207h-60v8l78 174l-174 450l-51 14v11h210v-10l-76 -23l127 -341l115 336l-72 27v11h173v-10l-73 -28zM373 598h-246v28h246v-28z" />
    <glyph glyph-name="dotlessj" unicode="&#x237;" horiz-adv-x="237" 
d="M163 -2q0 -61 -34 -114t-90 -91l-9 10q38 35 50 71t12 130v408h-85v11l126 36h30v-461z" />
    <glyph glyph-name="schwa" unicode="&#x259;" horiz-adv-x="417" 
d="M322 224q0 88 -48.5 138.5t-120.5 50.5q-25 0 -58 -12t-58 -32l-11 19q20 26 65 48.5t95 22.5q102 0 155.5 -59.5t53.5 -165.5q0 -104 -54 -173t-144 -69q-168 0 -175 217h299q0 3 0.5 8t0.5 7zM204 14q43 0 76 44.5t40 124.5h-214q-2 -74 23 -121.5t75 -47.5z" />
    <glyph glyph-name="circumflex" unicode="&#x2c6;" horiz-adv-x="377" 
d="M179 668h32l115 -126l-6 -10l-133 75l-130 -74l-6 9z" />
    <glyph glyph-name="caron" unicode="&#x2c7;" horiz-adv-x="445" 
d="M239 519h-32l-115 126l6 10l133 -75l130 74l6 -9z" />
    <glyph glyph-name="breve" unicode="&#x2d8;" horiz-adv-x="330" 
d="M164 539q-85 0 -105 90l37 12q18 -67 67 -67q60 0 84 64l15 -10q-7 -36 -36.5 -62.5t-61.5 -26.5z" />
    <glyph glyph-name="dotaccent" unicode="&#x2d9;" horiz-adv-x="211" 
d="M61 619q0 20 12.5 32.5t31.5 12.5t32 -13t13 -32t-13 -31.5t-32 -12.5t-31.5 12.5t-12.5 31.5z" />
    <glyph glyph-name="ring" unicode="&#x2da;" horiz-adv-x="311" 
d="M155 550q26 0 41 14.5t15 41.5q0 25 -15.5 40t-40.5 15q-26 0 -40.5 -14.5t-14.5 -40.5q0 -27 17 -41.5t38 -14.5zM155 532q-26 0 -49.5 20t-23.5 54q0 32 20 52t53 20t53.5 -20.5t20.5 -51.5q0 -33 -21.5 -53.5t-52.5 -20.5z" />
    <glyph glyph-name="ogonek" unicode="&#x2db;" horiz-adv-x="294" 
d="M207 8q-46 -21 -70.5 -56.5t-24.5 -70.5q0 -34 14 -50t48 -16q28 0 48 13l7 -17q-30 -18 -81 -18q-45 0 -67.5 21t-22.5 56q0 46 38 87.5t94 64.5z" />
    <glyph glyph-name="tilde" unicode="&#x2dc;" horiz-adv-x="405" 
d="M250 552q-23 0 -56 12t-55 12q-29 0 -55 -22l-8 7q31 64 86 64q27 0 60 -11.5t56 -11.5q17 0 48 17l6 -7q-25 -60 -82 -60z" />
    <glyph glyph-name="hungarumlaut" unicode="&#x2dd;" horiz-adv-x="451" 
d="M119 521l-13 8l76 167l65 -24zM237 521l-10 8l122 159l49 -42z" />
    <glyph glyph-name="gravecmb" unicode="&#x300;" horiz-adv-x="0" 
d="M-350 640l45 54l134 -165l-10 -8z" />
    <glyph glyph-name="acutecmb" unicode="&#x301;" horiz-adv-x="0" 
d="M-161 694l45 -54l-169 -119l-10 8z" />
    <glyph glyph-name="circumflexcmb" unicode="&#x302;" horiz-adv-x="0" 
d="M-240 668h32l115 -126l-6 -10l-133 75l-130 -74l-6 9z" />
    <glyph glyph-name="tildecmb" unicode="&#x303;" horiz-adv-x="0" 
d="M-182 559q-23 0 -56 12t-55 12q-29 0 -55 -22l-8 7q31 64 86 64q27 0 60 -11.5t56 -11.5q17 0 48 17l6 -7q-25 -60 -82 -60z" />
    <glyph glyph-name="macroncmb" unicode="&#x304;" horiz-adv-x="0" 
d="M-112 596h-246v28h246v-28z" />
    <glyph glyph-name="brevecmb" unicode="&#x306;" horiz-adv-x="0" 
d="M-226 531q-85 0 -105 90l37 12q18 -67 67 -67q60 0 84 64l15 -10q-7 -36 -36.5 -62.5t-61.5 -26.5z" />
    <glyph glyph-name="dotaccentcmb" unicode="&#x307;" horiz-adv-x="0" 
d="M-288 620q0 23 15.5 38.5t38.5 15.5t39 -15.5t16 -38.5q0 -22 -16 -38t-39 -16t-38.5 15.5t-15.5 38.5z" />
    <glyph glyph-name="dieresiscmb" unicode="&#x308;" horiz-adv-x="0" 
d="M-372 617q0 19 12.5 31t31.5 12q18 0 30.5 -12t12.5 -31q0 -18 -12.5 -31t-30.5 -13q-19 0 -31.5 13t-12.5 31zM-194 617q0 19 12.5 31t31.5 12q18 0 30.5 -12t12.5 -31q0 -18 -12.5 -31t-30.5 -13q-19 0 -31.5 13t-12.5 31z" />
    <glyph glyph-name="hookcmb" unicode="&#x309;" horiz-adv-x="0" 
d="M-136 620q0 -68 -86 -105l-18 13q18 6 37.5 31t19.5 51q0 20 -13.5 30t-31.5 10q-24 0 -48 -18l-17 33q36 27 74 27q40 0 61.5 -20.5t21.5 -51.5z" />
    <glyph glyph-name="ringcmb" unicode="&#x30a;" horiz-adv-x="0" 
d="M-234 553q21 0 35 12t14 37q0 20 -13 34t-36 14q-48 0 -48 -48q0 -22 14 -35.5t34 -13.5zM-236 528q-32 0 -56 19.5t-24 54.5t23.5 54t56.5 19q34 0 58.5 -19t24.5 -54q0 -34 -25 -54t-58 -20z" />
    <glyph glyph-name="hungarumlautcmb" unicode="&#x30b;" horiz-adv-x="0" 
d="M-301 521l-13 8l76 167l65 -24zM-183 521l-10 8l122 159l49 -42z" />
    <glyph glyph-name="caroncmb" unicode="&#x30c;" horiz-adv-x="0" 
d="M-215 519h-32l-115 126l6 10l133 -75l130 74l6 -9z" />
    <glyph glyph-name="candrabinducmb" unicode="&#x310;" horiz-adv-x="0" 
d="M-267 663q0 19 12 31.5t31 12.5q18 0 31 -12.5t13 -31.5q0 -18 -13 -30.5t-31 -12.5q-19 0 -31 12.5t-12 30.5zM-224 530q-45 0 -77 25t-41 65l34 12q8 -30 31.5 -48.5t51.5 -18.5q74 0 98 64l15 -10q-7 -35 -41 -62t-71 -27z" />
    <glyph glyph-name="dotbelowcmb" unicode="&#x323;" horiz-adv-x="0" 
d="M-268 -113q0 20 12.5 32.5t31.5 12.5t32 -13t13 -32t-13 -31.5t-32 -12.5t-31.5 12.5t-12.5 31.5z" />
    <glyph glyph-name="dieresisbelowcmb" unicode="&#x324;" horiz-adv-x="0" 
d="M-372 -105q0 19 12.5 31t31.5 12q18 0 30.5 -12t12.5 -31q0 -18 -12.5 -31t-30.5 -13q-19 0 -31.5 13t-12.5 31zM-194 -105q0 19 12.5 31t31.5 12q18 0 30.5 -12t12.5 -31q0 -18 -12.5 -31t-30.5 -13q-19 0 -31.5 13t-12.5 31z" />
    <glyph glyph-name="ringbelowcmb" unicode="&#x325;" horiz-adv-x="0" 
d="M-243 -185q26 0 41 14.5t15 41.5q0 25 -15.5 40t-40.5 15q-26 0 -40.5 -14.5t-14.5 -40.5q0 -27 17 -41.5t38 -14.5zM-243 -203q-26 0 -49.5 20t-23.5 54q0 32 20 52t53 20t53.5 -20.5t20.5 -51.5q0 -33 -21.5 -53.5t-52.5 -20.5z" />
    <glyph glyph-name="cedillacmb" unicode="&#x327;" horiz-adv-x="0" 
d="M-261 -213q-44 0 -72 15l14 25q28 -15 57 -15q22 0 41 15t19 36q0 26 -19 46.5t-57 28.5l44 73l19 1l-23 -61q41 -6 63.5 -28t22.5 -52q0 -35 -29.5 -59.5t-79.5 -24.5z" />
    <glyph glyph-name="ogonekcmb" unicode="&#x328;" horiz-adv-x="0" 
d="M-172 15q-46 -21 -70.5 -56.5t-24.5 -70.5q0 -34 14 -50t48 -16q28 0 48 13l7 -17q-30 -18 -81 -18q-45 0 -67.5 21t-22.5 56q0 46 38 87.5t94 64.5z" />
    <glyph glyph-name="brevebelowcmb" unicode="&#x32e;" horiz-adv-x="0" 
d="M-238 -163q-85 0 -105 90l37 12q18 -67 67 -67q60 0 84 64l15 -10q-7 -36 -36.5 -62.5t-61.5 -26.5z" />
    <glyph glyph-name="macronbelowcmb" unicode="&#x331;" horiz-adv-x="0" 
d="M-109 -125h-246v28h246v-28z" />
    <glyph glyph-name="uni0374" unicode="&#x374;" horiz-adv-x="205" 
d="M170 620q0 -49 -32 -95t-83 -76l-11 12q25 21 45 53t20 55q0 18 -12 32.5t-32 18.5q0 20 15.5 36.5t36.5 16.5q22 0 37.5 -15.5t15.5 -37.5z" />
    <glyph glyph-name="uni0375" unicode="&#x375;" horiz-adv-x="220" 
d="M160 29q0 -49 -32 -95t-83 -76l-11 12q25 21 45 53t20 55q0 18 -12 32.5t-32 18.5q0 20 15.5 36.5t36.5 16.5q22 0 37.5 -15.5t15.5 -37.5z" />
    <glyph glyph-name="uni037E" unicode="&#x37e;" horiz-adv-x="246" 
d="M209 29q0 -56 -36 -107.5t-94 -84.5l-12 13q28 24 51 59.5t23 62.5q0 20 -13.5 36.5t-37.5 20.5q0 22 18 40.5t41 18.5q25 0 42.5 -17t17.5 -42zM98 402q0 23 17 40t40 17t39.5 -17t16.5 -40t-16.5 -39.5t-39.5 -16.5t-40 16.5t-17 39.5z" />
    <glyph glyph-name="tonos" unicode="&#x384;" horiz-adv-x="295" 
d="M126 703h66l3 -6l-67 -176l-14 1z" />
    <glyph glyph-name="dieresistonos" unicode="&#x385;" horiz-adv-x="396" 
d="M39 577q0 21 13.5 35t34.5 14q20 0 34.5 -14t14.5 -35q0 -20 -14.5 -34t-34.5 -14q-21 0 -34.5 14t-13.5 34zM249 577q0 21 14 35t35 14q20 0 34 -14t14 -35q0 -20 -14 -34t-34 -14q-21 0 -35 14t-14 34zM180 703h66l3 -6l-67 -176l-14 1z" />
    <glyph glyph-name="Alphatonos" unicode="&#x386;" horiz-adv-x="559" 
d="M339 0v10l84 14l-67 206h-196l-73 -195l96 -24v-11h-187v10l57 23l211 550h57l192 -563l50 -9v-11h-224zM263 506l-93 -249h178l-80 249h-5zM79 582h66l3 -6l-67 -176l-14 1z" />
    <glyph glyph-name="anoteleia" unicode="&#x387;" horiz-adv-x="256" 
d="M60 289q0 28 20.5 48.5t48.5 20.5t47.5 -20.5t19.5 -48.5t-19.5 -47.5t-47.5 -19.5t-48.5 19.5t-20.5 47.5z" />
    <glyph glyph-name="Epsilontonos" unicode="&#x388;" horiz-adv-x="501" 
d="M423 280l-224 4v-257h222l47 115l17 -6l-16 -136h-450v13l99 12v532l-99 12v14h448v-132h-24l-29 106h-215v-247l224 4v-34zM-81 582h66l3 -6l-67 -176l-14 1z" />
    <glyph glyph-name="Etatonos" unicode="&#x389;" horiz-adv-x="689" 
d="M390 0v13l98 12v259h-289v-258l101 -12v-14h-281v13l99 12v532l-99 12v14h281v-13l-101 -13v-247h289v247l-98 12v14h281v-13l-101 -13v-531l101 -12v-14h-281zM-91 582h66l3 -6l-67 -176l-14 1z" />
    <glyph glyph-name="Iotatonos" unicode="&#x38a;" horiz-adv-x="345" 
d="M32 0v13l99 13v531l-99 12v14h281v-13l-101 -13v-531l101 -12v-14h-281zM-71 582h66l3 -6l-67 -176l-14 1z" />
    <glyph glyph-name="Omicrontonos" unicode="&#x38c;" horiz-adv-x="646" 
d="M615 314q0 -134 -82 -228t-217 -94q-129 0 -207 78t-78 205q0 139 83.5 228t217.5 89q129 0 206 -77.5t77 -200.5zM524 295q0 119 -50 195.5t-149 76.5q-101 0 -152.5 -75t-51.5 -196q0 -119 53 -198.5t145 -79.5q55 0 96 23.5t64 64t34 88t11 101.5zM-36 582h66l3 -6
l-67 -176l-14 1z" />
    <glyph glyph-name="Upsilontonos" unicode="&#x38e;" horiz-adv-x="536" 
d="M114 0v13l99 14v172q0 113 -55.5 224.5t-117.5 132.5q-28 0 -50 -3l-2 15q62 24 111 24q27 -12 49 -30.5t45.5 -52.5t42.5 -92.5t31 -138.5h8q18 119 77.5 206.5t126.5 107.5q37 -4 69 -17l-3 -13q-61 -6 -111 -49t-79.5 -105.5t-45 -129.5t-15.5 -128v-123l101 -13v-14
h-281zM-111 582h66l3 -6l-67 -176l-14 1z" />
    <glyph glyph-name="Omegatonos" unicode="&#x38f;" horiz-adv-x="656" 
d="M597 75l12 64h11v-139h-214l-14 87q70 49 103.5 103t33.5 139q0 101 -51 169t-148 68q-102 0 -153 -70t-51 -180q0 -64 17.5 -109t41.5 -69t70 -56l-13 -82h-206v139h12l12 -64h166l1 2q-88 32 -139.5 93t-51.5 145q0 120 85 198t216 78q137 0 210 -72t73 -189
q0 -83 -59 -153t-143 -100v-2h179zM-39 582h66l3 -6l-67 -176l-14 1z" />
    <glyph glyph-name="iotadieresistonos" unicode="&#x390;" horiz-adv-x="266" 
d="M-39 577q0 21 13.5 35t34.5 14q20 0 34.5 -14t14.5 -35q0 -20 -14.5 -34t-34.5 -14q-21 0 -34.5 14t-13.5 34zM171 577q0 21 14 35t35 14q20 0 34 -14t14 -35q0 -20 -14 -34t-34 -14q-21 0 -35 14t-14 34zM102 703h66l3 -6l-67 -176l-14 1zM75 62v388h71v-399
q0 -35 42 -35q6 0 55 7l2 -13q-38 -19 -99 -19q-71 0 -71 71z" />
    <glyph glyph-name="Alpha" unicode="&#x391;" horiz-adv-x="559" 
d="M339 0v10l84 14l-67 206h-196l-73 -195l96 -24v-11h-187v10l57 23l211 550h57l192 -563l50 -9v-11h-224zM263 506l-93 -249h178l-80 249h-5z" />
    <glyph glyph-name="Beta" unicode="&#x392;" horiz-adv-x="542" 
d="M19 0v13l99 12v532l-99 12v14h249q102 0 158 -34.5t56 -104.5q0 -45 -40.5 -82t-90.5 -48v-2q26 -1 53.5 -9.5t55.5 -24.5t45.5 -45t17.5 -67q0 -76 -58.5 -121t-171.5 -45h-274zM247 289h-48v-262h79q72 0 116.5 35.5t44.5 100.5q0 73 -49 99.5t-143 26.5zM247 560h-48
v-244h59q137 0 137 118q0 66 -40.5 96t-107.5 30z" />
    <glyph glyph-name="Gamma" unicode="&#x393;" horiz-adv-x="481" 
d="M32 0v13l99 14v529l-99 13v14h448v-132h-24l-29 106h-215v-530l101 -13v-14h-281z" />
    <glyph glyph-name="uni0394" unicode="&#x394;" horiz-adv-x="494" 
d="M18 0l-8 34l223 549h67l184 -548l-7 -35h-459zM242 523h-5l-177 -447h321z" />
    <glyph glyph-name="Epsilon" unicode="&#x395;" horiz-adv-x="501" 
d="M423 280l-224 4v-257h222l47 115l17 -6l-16 -136h-450v13l99 12v532l-99 12v14h448v-132h-24l-29 106h-215v-247l224 4v-34z" />
    <glyph glyph-name="Zeta" unicode="&#x396;" horiz-adv-x="464" 
d="M17 0l-6 19l326 537h-259l-34 -139h-21v166h411l8 -12l-340 -544h284l45 132l19 -4l-14 -155h-419z" />
    <glyph glyph-name="Eta" unicode="&#x397;" horiz-adv-x="689" 
d="M390 0v13l98 12v259h-289v-258l101 -12v-14h-281v13l99 12v532l-99 12v14h281v-13l-101 -13v-247h289v247l-98 12v14h281v-13l-101 -13v-531l101 -12v-14h-281z" />
    <glyph glyph-name="Theta" unicode="&#x398;" horiz-adv-x="646" 
d="M615 314q0 -134 -82 -228t-217 -94q-129 0 -207 78t-78 205q0 139 83.5 227.5t217.5 88.5q130 0 206.5 -77t76.5 -200zM524 295q0 119 -50 195t-149 76q-101 0 -152.5 -74.5t-51.5 -195.5q0 -119 53 -198.5t145 -79.5q55 0 96 23.5t64 64t34 88t11 101.5zM244 268
l-10 -60h-13v184h14l9 -63h162l9 63h14v-184h-13l-10 60h-162z" />
    <glyph glyph-name="Iota" unicode="&#x399;" horiz-adv-x="345" 
d="M32 0v13l99 13v531l-99 12v14h281v-13l-101 -13v-531l101 -12v-14h-281z" />
    <glyph glyph-name="Kappa" unicode="&#x39a;" horiz-adv-x="586" 
d="M19 0v13l99 13v531l-99 12v14h281v-13l-101 -13v-531l101 -12v-14h-281zM440 0l-215 280v16l217 255l-74 20v12h201v-14l-88 -18l-193 -219l239 -308l67 -9v-15h-154z" />
    <glyph glyph-name="Lambda" unicode="&#x39b;" horiz-adv-x="559" 
d="M339 0v10l84 14l-155 482h-5l-176 -471l96 -24v-11h-187v10l57 23l211 550h57l192 -563l50 -9v-11h-224z" />
    <glyph glyph-name="Mu" unicode="&#x39c;" horiz-adv-x="791" 
d="M524 0v13l89 12l-40 444h-4l-183 -477h-32l-196 506h-4l-41 -459l98 -25v-14h-217v13l84 25l50 507l-85 24v14h173l183 -487l178 487h162v-13l-93 -15l54 -530l89 -11v-14h-265z" />
    <glyph glyph-name="Nu" unicode="&#x39d;" horiz-adv-x="628" 
d="M21 0v13l78 23v507l-80 26v14h138l344 -431v394l-87 23v14h203v-13l-78 -22v-556h-18l-384 487v-444l87 -21v-14h-203z" />
    <glyph glyph-name="Xi" unicode="&#x39e;" horiz-adv-x="528" 
d="M440 76l35 63l13 -3l-16 -136h-416l-16 136l12 3l35 -63h353zM96 506l-19 -55h-19v132h412v-132h-20l-18 55h-336zM184 268l-15 -60h-14v184h15l14 -63h170l13 63h16v-184h-15l-14 60h-170z" />
    <glyph glyph-name="Omicron" unicode="&#x39f;" horiz-adv-x="646" 
d="M615 314q0 -134 -82 -228t-217 -94q-129 0 -207 78t-78 205q0 139 83.5 228t217.5 89q129 0 206 -77.5t77 -200.5zM524 295q0 119 -50 195.5t-149 76.5q-101 0 -152.5 -75t-51.5 -196q0 -119 53 -198.5t145 -79.5q55 0 96 23.5t64 64t34 88t11 101.5z" />
    <glyph glyph-name="Pi" unicode="&#x3a0;" horiz-adv-x="718" 
d="M404 0v13l98 14v529h-289v-528l101 -14v-14h-281v13l99 15v527l-99 14v14h652v-13l-101 -15v-527l101 -14v-14h-281z" />
    <glyph glyph-name="Rho" unicode="&#x3a1;" horiz-adv-x="521" 
d="M19 0v13l99 12v532l-99 12v14h281q196 0 196 -171q0 -77 -65.5 -124t-172.5 -47h-59v-215l101 -12v-14h-281zM270 555h-71v-288h55q78 0 119.5 35.5t41.5 105.5q0 67 -38.5 107t-106.5 40z" />
    <glyph glyph-name="Sigma" unicode="&#x3a3;" horiz-adv-x="487" 
d="M137 556l159 -240l-198 -241h308l39 84l13 -4l-14 -155h-420l-6 21l209 254l-197 291l4 17h408v-166h-16l-46 139h-243z" />
    <glyph glyph-name="Tau" unicode="&#x3a4;" horiz-adv-x="510" 
d="M114 0v13l99 12v531h-151l-38 -139h-19v166h500v-166h-19l-45 139h-146v-530l101 -12v-14h-282z" />
    <glyph glyph-name="Upsilon" unicode="&#x3a5;" horiz-adv-x="536" 
d="M114 0v13l99 14v172q0 113 -55.5 224.5t-117.5 132.5q-28 0 -50 -3l-2 15q62 24 111 24q27 -12 49 -30.5t45.5 -52.5t42.5 -92.5t31 -138.5h8q18 119 77.5 206.5t126.5 107.5q37 -4 69 -17l-3 -13q-61 -6 -111 -49t-79.5 -105.5t-45 -129.5t-15.5 -128v-123l101 -13v-14
h-281z" />
    <glyph glyph-name="Phi" unicode="&#x3a6;" horiz-adv-x="684" 
d="M202 0v13l99 14v66q-125 1 -196.5 50.5t-71.5 142.5q0 97 74 159t194 67v64l-99 14v14h281v-13l-101 -15v-63q126 -1 197.5 -53.5t71.5 -142.5q0 -94 -71.5 -156.5t-197.5 -67.5v-66l101 -13v-14h-281zM566 306q0 80 -51 132t-133 55v-380q85 4 134.5 59t49.5 134z
M117 300q0 -80 50.5 -133t133.5 -54v380q-82 -4 -133 -59.5t-51 -133.5z" />
    <glyph glyph-name="Chi" unicode="&#x3a7;" 
d="M327 0v14l77 14l-138 226l-146 -219l82 -20v-15h-199v14l68 21l181 242l-172 279l-68 12v15h238v-14l-79 -17l129 -207l134 199l-68 24v15h173v-14l-60 -23l-165 -224l185 -295l68 -12v-15h-240z" />
    <glyph glyph-name="Psi" unicode="&#x3a8;" horiz-adv-x="601" 
d="M158 0v13l102 13v165q-91 9 -149 52.5t-58 115.5v186h-62v14l97 24h40v-231q0 -58 35 -94t97 -44v341l-64 14v14h209v-13l-66 -15v-342q65 9 102 51.5t37 117.5v201h41l96 -24v-14h-62v-178q0 -77 -61.5 -123t-152.5 -54v-164l104 -12v-14h-285z" />
    <glyph glyph-name="Omega" unicode="&#x3a9;" horiz-adv-x="656" 
d="M597 75l12 64h11v-139h-214l-14 87q70 49 103.5 103t33.5 139q0 101 -51 169t-148 68q-102 0 -153 -70t-51 -180q0 -64 17.5 -109t41.5 -69t70 -56l-13 -82h-206v139h12l12 -64h166l1 2q-88 32 -139.5 93t-51.5 145q0 120 85 198t216 78q137 0 210 -72t73 -189
q0 -83 -59 -153t-143 -100v-2h179z" />
    <glyph glyph-name="Omega" unicode="&#x2126;" horiz-adv-x="656" 
d="M597 75l12 64h11v-139h-214l-14 87q70 49 103.5 103t33.5 139q0 101 -51 169t-148 68q-102 0 -153 -70t-51 -180q0 -64 17.5 -109t41.5 -69t70 -56l-13 -82h-206v139h12l12 -64h166l1 2q-88 32 -139.5 93t-51.5 145q0 120 85 198t216 78q137 0 210 -72t73 -189
q0 -83 -59 -153t-143 -100v-2h179z" />
    <glyph glyph-name="Iotadieresis" unicode="&#x3aa;" horiz-adv-x="345" 
d="M32 0v13l99 13v531l-99 12v14h281v-13l-101 -13v-531l101 -12v-14h-281zM41 678q0 19 12.5 31t31.5 12q18 0 30.5 -12t12.5 -31q0 -18 -12.5 -31t-30.5 -13q-19 0 -31.5 13t-12.5 31zM219 678q0 19 12.5 31t31.5 12q18 0 30.5 -12t12.5 -31q0 -18 -12.5 -31t-30.5 -13
q-19 0 -31.5 13t-12.5 31z" />
    <glyph glyph-name="Upsilondieresis" unicode="&#x3ab;" horiz-adv-x="536" 
d="M114 0v13l99 14v172q0 113 -55.5 224.5t-117.5 132.5q-28 0 -50 -3l-2 15q62 24 111 24q27 -12 49 -30.5t45.5 -52.5t42.5 -92.5t31 -138.5h8q18 119 77.5 206.5t126.5 107.5q37 -4 69 -17l-3 -13q-61 -6 -111 -49t-79.5 -105.5t-45 -129.5t-15.5 -128v-123l101 -13v-14
h-281zM145 678q0 19 12.5 31t31.5 12q18 0 30.5 -12t12.5 -31q0 -18 -12.5 -31t-30.5 -13q-19 0 -31.5 13t-12.5 31zM323 678q0 19 12.5 31t31.5 12q18 0 30.5 -12t12.5 -31q0 -18 -12.5 -31t-30.5 -13q-19 0 -31.5 13t-12.5 31z" />
    <glyph glyph-name="alphatonos" unicode="&#x3ac;" horiz-adv-x="515" 
d="M412 199l2 -118q0 -35 12 -49.5t39 -14.5q5 0 23 2l2 -11q-39 -16 -78 -16q-71 0 -71 70v24q-60 -94 -147 -94q-71 0 -114.5 50.5t-43.5 164.5q0 109 64 180.5t142 71.5q72 0 113 -68q7 39 14 56l69 12l4 -8q-30 -73 -30 -252zM232 31q57 0 109 88v84q0 49 3 98
q-15 59 -51 93.5t-72 34.5q-53 0 -83.5 -48.5t-30.5 -137.5q0 -93 34.5 -152.5t90.5 -59.5zM254 708h66l3 -6l-67 -176l-14 1z" />
    <glyph glyph-name="epsilontonos" unicode="&#x3ad;" horiz-adv-x="419" 
d="M221 459q83 0 142 -38v-85h-28q-37 100 -119 100q-38 0 -65 -31t-27 -69q0 -29 20 -55t46 -29q34 5 113 10q2 -20 -6 -47q-10 0 -57.5 5.5t-56.5 7.5q-30 -7 -48.5 -31.5t-18.5 -58.5q0 -49 31 -85t79 -36q41 0 77 28.5t49 68.5h26v-69q-66 -53 -169 -53q-74 0 -123.5 36
t-49.5 98q0 43 36 71t81 37v5q-45 11 -75.5 37t-30.5 61q0 52 56 87t118 35zM211 707h66l3 -6l-67 -176l-14 1z" />
    <glyph glyph-name="etatonos" unicode="&#x3ae;" horiz-adv-x="539" 
d="M469 -207h-72v501q0 114 -99 114q-62 0 -128 -43v-365h-71v401q0 28 -38 28q-18 0 -45 -5l-4 11q54 24 107 24q51 0 51 -81v-1q65 53 102 68q32 14 64 14q66 0 99.5 -43t33.5 -119v-504zM281 707h66l3 -6l-67 -176l-14 1z" />
    <glyph glyph-name="iotatonos" unicode="&#x3af;" horiz-adv-x="266" 
d="M100 707h66l3 -6l-67 -176l-14 1zM75 62v388h71v-399q0 -35 42 -35q6 0 55 7l2 -13q-38 -19 -99 -19q-71 0 -71 71z" />
    <glyph glyph-name="upsilondieresistonos" unicode="&#x3b0;" horiz-adv-x="495" 
d="M95 577q0 21 13.5 35t34.5 14q20 0 34.5 -14t14.5 -35q0 -20 -14.5 -34t-34.5 -14q-21 0 -34.5 14t-13.5 34zM305 577q0 21 14 35t35 14q20 0 34 -14t14 -35q0 -20 -14 -34t-34 -14q-21 0 -35 14t-14 34zM236 703h66l3 -6l-67 -176l-14 1zM158 394v-228q0 -62 26.5 -106
t83.5 -44q43 0 75 38.5t46 89t14 100.5q0 69 -19 125l-79 51v22q53 17 83 17q28 -21 46.5 -69.5t18.5 -109.5q0 -51 -10.5 -99t-33 -92t-63.5 -70.5t-96 -26.5q-75 0 -119 41t-44 125v240q0 28 -38 28q-4 0 -22.5 -2.5t-22.5 -2.5l-4 14q54 24 104 24q54 0 54 -65z" />
    <glyph glyph-name="alpha" unicode="&#x3b1;" horiz-adv-x="515" 
d="M412 199l2 -118q0 -35 12 -49.5t39 -14.5q5 0 23 2l2 -11q-39 -16 -78 -16q-71 0 -71 70v24q-60 -94 -147 -94q-71 0 -114.5 50.5t-43.5 164.5q0 109 64 180.5t142 71.5q72 0 113 -68q7 39 14 56l69 12l4 -8q-30 -73 -30 -252zM232 31q57 0 109 88v84q0 49 3 98
q-15 59 -51 93.5t-72 34.5q-53 0 -83.5 -48.5t-30.5 -137.5q0 -93 34.5 -152.5t90.5 -59.5z" />
    <glyph glyph-name="beta" unicode="&#x3b2;" horiz-adv-x="490" 
d="M242 -7q-58 0 -101 19v-219h-71v708q0 92 49.5 150.5t121.5 58.5q81 0 128 -40t47 -109q0 -64 -46 -110t-103 -62v-5q79 -6 134 -55.5t55 -126.5q0 -97 -69 -153t-145 -56zM141 528v-482q48 -30 96 -30q58 0 98 48.5t40 136.5q0 65 -52 114t-131 49v21q55 0 99 56t44 106
q0 59 -26.5 98t-73.5 39q-45 0 -69.5 -40t-24.5 -116z" />
    <glyph glyph-name="gamma" unicode="&#x3b3;" horiz-adv-x="458" 
d="M250 -204q-20 -9 -47 -9q-22 0 -38 4q5 36 13.5 100t12.5 89q-50 257 -99 364q-29 61 -44 73q-12 9 -23 9q-19 0 -31 -5l-4 10q8 8 38.5 18t55.5 10q29 0 41.5 -9.5t25.5 -42.5q20 -49 47.5 -156.5t44.5 -212.5h6l137 413q48 1 76 -18q-7 -15 -98.5 -201.5t-117.5 -245.5
q4 -108 4 -190z" />
    <glyph glyph-name="delta" unicode="&#x3b4;" horiz-adv-x="476" 
d="M34 180q0 66 44 119.5t122 109.5q-55 55 -84.5 96.5t-29.5 80.5q0 49 47 86.5t101 37.5q111 0 197 -51l-30 -64l-21 -3q-84 93 -164 93q-29 0 -45.5 -18t-16.5 -49q0 -30 30 -71.5t73 -84t86 -86t73 -89.5t30 -83q0 -88 -66.5 -150t-151.5 -62q-93 0 -143.5 51.5
t-50.5 136.5zM367 168q0 35 -24.5 77t-48 67.5t-71.5 73.5l-17 17q-89 -99 -89 -222q0 -63 31.5 -114t93.5 -51q50 0 87.5 45.5t37.5 106.5z" />
    <glyph glyph-name="epsilon" unicode="&#x3b5;" horiz-adv-x="419" 
d="M221 459q83 0 142 -38v-85h-28q-37 100 -119 100q-38 0 -65 -31t-27 -69q0 -29 20 -55t46 -29q34 5 113 10q2 -20 -6 -47q-10 0 -57.5 5.5t-56.5 7.5q-30 -7 -48.5 -31.5t-18.5 -58.5q0 -49 31 -85t79 -36q41 0 77 28.5t49 68.5h26v-69q-66 -53 -169 -53q-74 0 -123.5 36
t-49.5 98q0 43 36 71t81 37v5q-45 11 -75.5 37t-30.5 61q0 52 56 87t118 35z" />
    <glyph glyph-name="zeta" unicode="&#x3b6;" horiz-adv-x="369" 
d="M47 703h26q61 -19 133 -27q52 -5 97 -5q29 0 44 1q7 -32 8 -43q-44 -56 -66.5 -85t-61.5 -87t-59 -99.5t-36.5 -96.5t-16.5 -105q0 -35 20.5 -53t76.5 -33q66 -18 106.5 -38t44.5 -31q0 -48 -26 -102.5t-47 -73.5l-9 5q35 76 35 124q-24 20 -138 47q-30 7 -46.5 12
t-36 15.5t-29 24.5t-16 37t-6.5 55q0 68 93 214t180 249l-2 5q-111 -3 -135 -3q-96 4 -144 20z" />
    <glyph glyph-name="eta" unicode="&#x3b7;" horiz-adv-x="539" 
d="M469 -207h-72v501q0 114 -99 114q-62 0 -128 -43v-365h-71v401q0 28 -38 28q-18 0 -45 -5l-4 11q54 24 107 24q51 0 51 -81v-1q65 53 102 68q32 14 64 14q66 0 99.5 -43t33.5 -119v-504z" />
    <glyph glyph-name="theta" unicode="&#x3b8;" horiz-adv-x="487" 
d="M451 361q0 -158 -57.5 -264t-156.5 -106q-70 0 -116 49t-65.5 125.5t-19.5 177.5t24 182.5t73.5 132t117.5 50.5q56 0 96.5 -29.5t62.5 -81t31.5 -109.5t9.5 -127zM249 16q112 0 118 321h-252q2 -77 15.5 -147.5t45 -122t73.5 -51.5zM237 684q-63 0 -91.5 -90.5
t-30.5 -232.5h252q-1 64 -8.5 119.5t-22 102.5t-40 74t-59.5 27z" />
    <glyph glyph-name="iota" unicode="&#x3b9;" horiz-adv-x="266" 
d="M75 62v388h71v-399q0 -35 42 -35q6 0 55 7l2 -13q-38 -19 -99 -19q-71 0 -71 71z" />
    <glyph glyph-name="kappa" unicode="&#x3ba;" horiz-adv-x="500" 
d="M168 391v-176l166 176q5 5 14.5 15t13 13.5l10.5 10.5t10.5 9.5t9.5 7t10 6t10 3.5t12 2.5t13 0.5q28 0 48 -6l-14 -64h-22l-57 24l-134 -140l143 -221q21 -29 55 -29q18 0 33 5l2 -12q-50 -25 -87 -25q-33 0 -50 10t-28 30l-120 189l-38 -38v-182h-72v404q0 31 -44 31
q-7 0 -21 -2t-16 -2l-3 14q47 14 99 14q34 0 45.5 -15.5t11.5 -52.5z" />
    <glyph glyph-name="lambda" unicode="&#x3bb;" horiz-adv-x="485" 
d="M33 606h-5q-13 26 -17 53q21 17 52.5 32t54.5 15q45 0 78.5 -31t47.5 -79l154 -531q11 -35 31 -35q22 0 43 7l5 -12q-53 -34 -96 -34q-38 0 -49 28l-109 384l-118 -403h-77v17l187 410l-45 159q-28 100 -60 105q-15 -9 -38.5 -35t-38.5 -50z" />
    <glyph glyph-name="nu" unicode="&#x3bd;" horiz-adv-x="452" 
d="M206 -12l-129 385q-18 46 -47 46q-16 0 -36 -8l-5 14q14 12 41 23.5t51 11.5q47 0 67 -64l107 -342h6q44 82 69 161.5t25 131.5q-27 46 -47 66v24q41 21 68 21q21 -11 33.5 -36.5t12.5 -53.5q0 -54 -44 -142t-129 -226z" />
    <glyph glyph-name="xi" unicode="&#x3be;" horiz-adv-x="402" 
d="M253 709q91 0 157 -42l-23 -60l-24 -4q-41 81 -116 81q-49 0 -77 -40.5t-28 -102.5q0 -58 29 -96.5t75 -44.5q4 0 101 9q5 -25 -7 -50q-14 1 -52 5.5t-49 4.5q-46 -7 -82 -50t-36 -104q0 -62 27.5 -100t97.5 -52q104 -23 150 -54q-1 -57 -28.5 -107t-48.5 -65l-7 6
q36 70 33 118q-21 15 -165 45q-71 16 -107.5 65.5t-36.5 121.5q0 61 45 112.5t115 72.5v4q-59 11 -96.5 54.5t-37.5 94.5q0 71 54.5 124.5t136.5 53.5z" />
    <glyph glyph-name="omicron" unicode="&#x3bf;" horiz-adv-x="451" 
d="M428 225q0 -84 -62 -158.5t-146 -74.5q-198 0 -198 228q0 87 62 163t144 76q200 0 200 -234zM348 213q0 37 -5 69t-17.5 66.5t-40 54.5t-66.5 20q-36 0 -60.5 -15.5t-36.5 -44t-16.5 -58.5t-4.5 -69t6 -73t19.5 -66t41 -50.5t65.5 -18.5q36 0 60 14.5t35.5 42.5
t15.5 57.5t4 70.5z" />
    <glyph glyph-name="pi" unicode="&#x3c0;" horiz-adv-x="556" 
d="M488 450v-63h-78v-149q0 -78 4 -118t20 -65t48 -25q18 0 35 3l3 -10q-35 -32 -76 -32q-50 0 -75 29t-25 95v272h-170v-283q0 -50 -22 -81.5t-58 -31.5q-21 0 -40.5 11t-28.5 24l1 11q58 -7 85 31.5t27 147.5v171h-105v14l20 49h435z" />
    <glyph glyph-name="rho" unicode="&#x3c1;" horiz-adv-x="483" 
d="M141 -207h-71v434q0 109 54.5 170.5t143.5 61.5q83 0 130.5 -60.5t47.5 -163.5q0 -105 -67 -174t-164 -69q-41 0 -74 15v-214zM141 247v-189q54 -42 98 -42q35 0 61 20t39.5 52.5t19.5 64.5t6 64q0 93 -33 156.5t-89 63.5q-46 0 -74 -53.5t-28 -136.5z" />
    <glyph glyph-name="sigma1" unicode="&#x3c2;" horiz-adv-x="425" 
d="M218 4q-102 17 -142 74.5t-40 150.5q0 97 66 163.5t154 66.5q92 0 146 -26l-15 -80h-24q-55 83 -121 83q-43 0 -75 -36.5t-45 -82.5t-13 -90q0 -66 36 -106.5t126 -57.5q121 -23 133 -53q0 -48 -26.5 -104t-47.5 -75l-11 4q35 76 35 121q-10 8 -50.5 22.5t-85.5 25.5z
" />
    <glyph glyph-name="sigma" unicode="&#x3c3;" horiz-adv-x="497" 
d="M483 447l4 -70l-22 -12l-134 39q42 -34 73 -87t31 -97q0 -91 -60 -159.5t-141 -68.5q-198 0 -198 228q0 103 75 171t170 68q120 0 202 -12zM368 218q0 78 -55 188q-38 7 -75 7q-133 0 -133 -177q0 -38 7.5 -74.5t23 -70.5t44.5 -54.5t67 -20.5q60 0 90.5 62t30.5 140z
" />
    <glyph glyph-name="tau" unicode="&#x3c4;" horiz-adv-x="380" 
d="M365 450v-63h-165q-4 -108 -4 -235q0 -119 85 -119q24 0 57 9l4 -15q-65 -35 -119 -35q-98 0 -98 128q0 93 58 267h-178v17l20 46h340z" />
    <glyph glyph-name="upsilon" unicode="&#x3c5;" horiz-adv-x="495" 
d="M158 394v-228q0 -62 26.5 -106t83.5 -44q43 0 75 38.5t46 89t14 100.5q0 69 -19 125l-79 51v22q53 17 83 17q28 -21 46.5 -69.5t18.5 -109.5q0 -51 -10.5 -99t-33 -92t-63.5 -70.5t-96 -26.5q-75 0 -119 41t-44 125v240q0 28 -38 28q-4 0 -22.5 -2.5t-22.5 -2.5l-4 14
q54 24 104 24q54 0 54 -65z" />
    <glyph glyph-name="phi" unicode="&#x3c6;" horiz-adv-x="624" 
d="M269 583h76l-1 -126q114 -5 179 -61t65 -165q0 -102 -73 -163.5t-173 -72.5l-1 -201h-63l-3 199q-107 6 -173 63t-66 166q0 106 67.5 163t166.5 70zM509 232q0 85 -43 139t-122 64l-2 -417q73 13 120 73.5t47 140.5zM115 221q0 -80 44 -138t116 -66l-4 417
q-156 -25 -156 -213z" />
    <glyph glyph-name="chi" unicode="&#x3c7;" horiz-adv-x="454" 
d="M11 -207v17l186 298l-105 241q-16 37 -29 51t-36 14q-9 0 -22 -5l-5 12q44 38 86 38q38 0 64 -58l96 -216l119 265h73v-17l-182 -268l131 -292q2 -3 6 -12t5 -11.5t4.5 -8.5t6 -7.5t6.5 -4t9 -3.5t11 -1q11 0 17 1l2 -15q-39 -25 -77 -25q-37 0 -49 27l-120 274
l-122 -294h-75z" />
    <glyph glyph-name="psi" unicode="&#x3c8;" horiz-adv-x="636" 
d="M295 583h76l-3 -566q77 13 126 84.5t49 182.5q0 59 -5 83l-81 53v18q80 21 110 21q25 -62 25 -145q0 -54 -14.5 -106.5t-41 -98t-70.5 -76.5t-98 -38l-1 -201h-63l-3 200q-88 8 -150 63t-62 151l-2 189q0 28 -38 28q-4 0 -22.5 -2.5t-22.5 -2.5l-2 15q54 24 104 24
q54 0 54 -65v-178q0 -175 141 -198z" />
    <glyph glyph-name="omega" unicode="&#x3c9;" horiz-adv-x="635" 
d="M598 204q0 -91 -52.5 -151.5t-118.5 -60.5q-41 0 -70 31.5t-41 67.5q-34 -99 -121 -99q-74 0 -116 56t-42 156q0 80 37 146.5t100 108.5l27 -22q-54 -53 -69.5 -108t-15.5 -134q0 -57 28 -117.5t68 -60.5q19 0 35.5 14t26.5 34.5t14.5 33t6.5 20.5q-17 43 -17 169
q15 9 38 9q26 0 40 -9q0 -124 -17 -169q3 -12 10.5 -31.5t28 -45t45.5 -25.5q40 0 68.5 61.5t28.5 118.5q0 176 -86 239l26 23q58 -27 98 -100t40 -155z" />
    <glyph glyph-name="iotadieresis" unicode="&#x3ca;" horiz-adv-x="266" 
d="M-22 610q0 19 12.5 31t31.5 12q18 0 30.5 -12t12.5 -31q0 -18 -12.5 -31t-30.5 -13q-19 0 -31.5 13t-12.5 31zM156 610q0 19 12.5 31t31.5 12q18 0 30.5 -12t12.5 -31q0 -18 -12.5 -31t-30.5 -13q-19 0 -31.5 13t-12.5 31zM75 62v388h71v-399q0 -35 42 -35q6 0 55 7
l2 -13q-38 -19 -99 -19q-71 0 -71 71z" />
    <glyph glyph-name="upsilondieresis" unicode="&#x3cb;" horiz-adv-x="495" 
d="M112 610q0 19 12.5 31t31.5 12q18 0 30.5 -12t12.5 -31q0 -18 -12.5 -31t-30.5 -13q-19 0 -31.5 13t-12.5 31zM290 610q0 19 12.5 31t31.5 12q18 0 30.5 -12t12.5 -31q0 -18 -12.5 -31t-30.5 -13q-19 0 -31.5 13t-12.5 31zM158 394v-228q0 -62 26.5 -106t83.5 -44
q43 0 75 38.5t46 89t14 100.5q0 69 -19 125l-79 51v22q53 17 83 17q28 -21 46.5 -69.5t18.5 -109.5q0 -51 -10.5 -99t-33 -92t-63.5 -70.5t-96 -26.5q-75 0 -119 41t-44 125v240q0 28 -38 28q-4 0 -22.5 -2.5t-22.5 -2.5l-4 14q54 24 104 24q54 0 54 -65z" />
    <glyph glyph-name="omicrontonos" unicode="&#x3cc;" horiz-adv-x="451" 
d="M428 225q0 -84 -62 -158.5t-146 -74.5q-198 0 -198 228q0 87 62 163t144 76q200 0 200 -234zM348 213q0 37 -5 69t-17.5 66.5t-40 54.5t-66.5 20q-36 0 -60.5 -15.5t-36.5 -44t-16.5 -58.5t-4.5 -69t6 -73t19.5 -66t41 -50.5t65.5 -18.5q36 0 60 14.5t35.5 42.5
t15.5 57.5t4 70.5zM227 707h66l3 -6l-67 -176l-14 1z" />
    <glyph glyph-name="upsilontonos" unicode="&#x3cd;" horiz-adv-x="495" 
d="M243 707h66l3 -6l-67 -176l-14 1zM158 394v-228q0 -62 26.5 -106t83.5 -44q43 0 75 38.5t46 89t14 100.5q0 69 -19 125l-79 51v22q53 17 83 17q28 -21 46.5 -69.5t18.5 -109.5q0 -51 -10.5 -99t-33 -92t-63.5 -70.5t-96 -26.5q-75 0 -119 41t-44 125v240q0 28 -38 28
q-4 0 -22.5 -2.5t-22.5 -2.5l-4 14q54 24 104 24q54 0 54 -65z" />
    <glyph glyph-name="omegatonos" unicode="&#x3ce;" horiz-adv-x="635" 
d="M598 204q0 -91 -52.5 -151.5t-118.5 -60.5q-41 0 -70 31.5t-41 67.5q-34 -99 -121 -99q-74 0 -116 56t-42 156q0 80 37 146.5t100 108.5l27 -22q-54 -53 -69.5 -108t-15.5 -134q0 -57 28 -117.5t68 -60.5q19 0 35.5 14t26.5 34.5t14.5 33t6.5 20.5q-17 43 -17 169
q15 9 38 9q26 0 40 -9q0 -124 -17 -169q3 -12 10.5 -31.5t28 -45t45.5 -25.5q40 0 68.5 61.5t28.5 118.5q0 176 -86 239l26 23q58 -27 98 -100t40 -155zM316 707h66l3 -6l-67 -176l-14 1z" />
    <glyph glyph-name="uni03D8" unicode="&#x3d8;" horiz-adv-x="650" 
d="M615 314q0 -121 -69.5 -212t-185.5 -107v-201h-81v200q-114 11 -181 87.5t-67 193.5q0 139 83.5 228t217.5 89q129 0 206 -77.5t77 -200.5zM524 295q0 119 -50 195.5t-149 76.5q-101 0 -152.5 -75t-51.5 -196q0 -119 53 -198.5t145 -79.5q55 0 96 23.5t64 64t34 88
t11 101.5z" />
    <glyph glyph-name="uni03D9" unicode="&#x3d9;" horiz-adv-x="451" 
d="M428 225q0 -78 -45 -142.5t-114 -83.5v-205h-74v199q-173 14 -173 227q0 94 61 166.5t145 72.5q200 0 200 -234zM348 213q0 37 -5 71t-17.5 71t-40 59t-66.5 22q-118 0 -118 -200q0 -39 6 -74.5t19.5 -70t41 -55t65.5 -20.5q36 0 60 16.5t35.5 46.5t15.5 61.5t4 72.5z
" />
    <glyph glyph-name="uni03DA" unicode="&#x3da;" horiz-adv-x="425" 
d="M387 388h-135q-81 0 -122 -47.5t-41 -113.5q0 -71 36.5 -114t110.5 -43h152q20 -7 13 -46q-8 -51 -45 -137t-53 -100l-16 5q75 164 75 208h-88q-238 0 -238 229q0 95 70 158t160 63l95 25h26v-87z" />
    <glyph glyph-name="uni03DB" unicode="&#x3db;" horiz-adv-x="425" 
d="M387 388h-135q-81 0 -122 -47.5t-41 -113.5q0 -71 36.5 -114t110.5 -43h152q20 -7 13 -46q-8 -51 -45 -137t-53 -100l-16 5q75 164 75 208h-88q-238 0 -238 229q0 95 70 158t160 63l95 25h26v-87z" />
    <glyph glyph-name="uni03DC" unicode="&#x3dc;" horiz-adv-x="467" 
d="M81 0v583h349v-26h-268v-246l224 5v-35l-224 5v-286h-81z" />
    <glyph glyph-name="uni03DD" unicode="&#x3dd;" horiz-adv-x="380" 
d="M81 -206v656h278v-26h-207v-246l163 5v-35l-163 5v-359h-71z" />
    <glyph glyph-name="uni03DE" unicode="&#x3de;" horiz-adv-x="427" 
d="M250 -59h-27l118 314h-306l129 328h27l-101 -259h310z" />
    <glyph glyph-name="uni03DF" unicode="&#x3df;" horiz-adv-x="427" 
d="M269 0h-29l107 278h-304l121 305h29l-93 -236h308z" />
    <glyph glyph-name="uni03E0" unicode="&#x3e0;" horiz-adv-x="676" 
d="M625 -96v-110h-82v78q-1 156 -61 305l-253 -185l-20 21l260 191q-25 50 -70 98l-264 -191l-17 22l257 192q-147 124 -317 125h-47v28h71q173 0 296 -75.5t183 -203t64 -295.5z" />
    <glyph glyph-name="uni03E1" unicode="&#x3e1;" horiz-adv-x="528" 
d="M434 -252l-71 22q21 64 32.5 111.5t13 68t2.5 53.5q0 53 -7 109l-276 -112l-9 21l278 116q-10 53 -41 113l-283 -115l-10 23l281 114q-107 166 -323 224l7 22q125 -27 216.5 -77t143 -116.5t75.5 -140.5t24 -160q0 -118 -53 -276z" />
    <glyph glyph-name="uni0400" unicode="&#x400;" horiz-adv-x="501" 
d="M423 280l-224 4v-257h222l47 115l17 -6l-16 -136h-450v13l99 12v532l-99 12v14h448v-132h-24l-29 106h-215v-247l224 4v-34zM142 682l33 62l168 -117l-6 -13z" />
    <glyph glyph-name="afii10023" unicode="&#x401;" horiz-adv-x="501" 
d="M423 280l-224 4v-257h222l47 115l17 -6l-16 -136h-450v13l99 12v532l-99 12v14h448v-132h-24l-29 106h-215v-247l224 4v-34zM157 678q0 19 12.5 31t31.5 12q18 0 30.5 -12t12.5 -31q0 -18 -12.5 -31t-30.5 -13q-19 0 -31.5 13t-12.5 31zM335 678q0 19 12.5 31t31.5 12
q18 0 30.5 -12t12.5 -31q0 -18 -12.5 -31t-30.5 -13q-19 0 -31.5 13t-12.5 31z" />
    <glyph glyph-name="afii10051" unicode="&#x402;" horiz-adv-x="642" 
d="M289 556v-248q91 25 149 25q92 0 138 -44.5t46 -124.5q0 -86 -47 -129.5t-114 -43.5q-45 0 -94 20v116h21l28 -103q9 -7 31 -7q93 0 93 142q0 147 -123 147q-57 0 -128 -23v-283h-181v13l100 13v530h-131l-38 -139h-19v166h500v-151h-19l-42 124h-170z" />
    <glyph glyph-name="afii10052" unicode="&#x403;" horiz-adv-x="476" 
d="M200 556v-530l100 -12v-14h-281v13l100 13v531l-100 12v14h437v-166h-19l-45 139h-192zM376 746l28 -64l-195 -68l-6 13z" />
    <glyph glyph-name="afii10053" unicode="&#x404;" horiz-adv-x="562" 
d="M527 405h-21l-38 127q-54 35 -119 35q-95 0 -159.5 -68t-68.5 -191l302 5v-36l-302 5q4 -129 73 -197t173 -68q91 0 149 92h11v-79q-1 0 -18 -7.5t-34 -13.5t-49 -11.5t-68 -5.5q-150 0 -238.5 74.5t-88.5 222.5q0 131 91 217t233 86q87 0 172 -33v-154z" />
    <glyph glyph-name="afii10054" unicode="&#x405;" horiz-adv-x="437" 
d="M368 416l-32 115q-46 33 -103 33q-58 0 -91.5 -30.5t-33.5 -74.5q0 -43 32 -71.5t90 -51.5q4 -2 13 -5q33 -13 50 -20t44 -23t40.5 -32t24 -41.5t10.5 -56.5q0 -82 -66 -124.5t-156 -42.5q-85 0 -165 34v143h18l36 -117q56 -34 126 -34q126 0 126 120q0 25 -10.5 44
t-35.5 34t-42.5 22.5t-55.5 22.5q-34 13 -56.5 25t-46.5 31t-36.5 45.5t-12.5 60.5q0 74 55 121.5t132 47.5q97 0 165 -35v-140h-19z" />
    <glyph glyph-name="afii10055" unicode="&#x406;" horiz-adv-x="345" 
d="M32 0v13l99 13v531l-99 12v14h281v-13l-101 -13v-531l101 -12v-14h-281z" />
    <glyph glyph-name="afii10056" unicode="&#x407;" horiz-adv-x="345" 
d="M32 0v13l99 13v531l-99 12v14h281v-13l-101 -13v-531l101 -12v-14h-281zM41 678q0 19 12.5 31t31.5 12q18 0 30.5 -12t12.5 -31q0 -18 -12.5 -31t-30.5 -13q-19 0 -31.5 13t-12.5 31zM219 678q0 19 12.5 31t31.5 12q18 0 30.5 -12t12.5 -31q0 -18 -12.5 -31t-30.5 -13
q-19 0 -31.5 13t-12.5 31z" />
    <glyph glyph-name="afii10057" unicode="&#x408;" horiz-adv-x="401" 
d="M134 -9q-74 0 -133 21v161h21l32 -135q34 -18 78 -18q38 0 62 32.5t24 94.5v410l-99 12v14h282v-13l-101 -13v-407q0 -70 -51 -114.5t-115 -44.5z" />
    <glyph glyph-name="afii10058" unicode="&#x409;" horiz-adv-x="765" 
d="M559 583v-13l-101 -13v-216h101q91 0 143.5 -43t52.5 -129q0 -77 -61 -123t-177 -46h-240v13l99 13v531h-136q-19 -289 -67 -441q-11 -35 -19 -52t-24.5 -37t-43 -27.5t-66.5 -7.5v83l6 6h105q62 181 78 467l-100 21v14h450zM458 315v-289h55q161 5 161 140
q0 65 -38.5 106t-106.5 42z" />
    <glyph glyph-name="afii10059" unicode="&#x40a;" horiz-adv-x="877" 
d="M390 0v13l98 12v259h-289v-258l101 -12v-14h-281v13l99 12v532l-99 12v14h281v-13l-101 -13v-247h289v247l-98 12v14h281v-13l-101 -13v-247h101q91 0 143.5 -39t52.5 -117q0 -70 -61 -112t-177 -42h-239zM641 283l-71 1v-258h55q76 3 118.5 31t42.5 94q0 58 -38.5 94.5
t-106.5 37.5z" />
    <glyph glyph-name="afii10060" unicode="&#x40b;" horiz-adv-x="713" 
d="M445 0v13l86 12v171q0 22 -3.5 38.5t-14 34.5t-35 27.5t-62.5 9.5q-56 0 -127 -20v-260l100 -12v-14h-281v13l100 13v530h-131l-38 -139h-19v166h500v-151h-19l-42 124h-170v-246q85 23 148 23q110 0 145 -40q30 -34 30 -124v-144l83 -11v-14h-250z" />
    <glyph glyph-name="afii10061" unicode="&#x40c;" horiz-adv-x="599" 
d="M19 0v13l100 13v531l-100 12v14h281v-13l-100 -13v-247h100l73 155q36 77 59 102t69 25q17 0 43 -9l-17 -86h-8l-84 33l-93 -196l177 -310l66 -9v-15h-145l-159 284h-81v-258l100 -12v-14h-281zM424 746l28 -64l-195 -68l-6 13z" />
    <glyph glyph-name="uni040D" unicode="&#x40d;" horiz-adv-x="698" 
d="M199 103v-77l101 -12v-14h-281v13l99 12v532l-99 12v14h281v-13l-101 -13v-414l298 340v74l-98 12v14h281v-13l-101 -13v-531l101 -12v-14h-281v13l98 12v418zM201 682l33 62l168 -117l-6 -13z" />
    <glyph glyph-name="afii10062" unicode="&#x40e;" horiz-adv-x="557" 
d="M137 555l183 -336l135 326l-93 24v14h190v-13l-50 -17l-183 -403q-47 -103 -76.5 -131t-106.5 -28v82l6 6h113l27 58l-236 424l-41 8v14h212v-13zM298 663q-63 0 -106 30t-43 74l70 22h11v-85q24 -20 68 -20q45 0 68 20v85h11l70 -22q0 -44 -43 -74t-106 -30z" />
    <glyph glyph-name="afii10145" unicode="&#x40f;" horiz-adv-x="676" 
d="M19 0v13l100 13v531l-100 12v14h276v-13l-95 -13v-531h277v531l-95 12v14h276v-13l-100 -13v-531l100 -12v-14h-290l12 -140h-81l12 140h-292z" />
    <glyph glyph-name="afii10017" unicode="&#x410;" horiz-adv-x="559" 
d="M339 0v10l84 14l-67 206h-196l-73 -195l96 -24v-11h-187v10l57 23l211 550h57l192 -563l50 -9v-11h-224zM263 506l-93 -249h178l-80 249h-5z" />
    <glyph glyph-name="afii10018" unicode="&#x411;" horiz-adv-x="526" 
d="M19 0v13l100 13v531l-100 12v14h442v-152h-19l-45 125h-197v-215h110q91 0 143.5 -43t52.5 -129q0 -77 -61 -123t-177 -46h-249zM280 314l-80 1v-289h64q161 5 161 140q0 65 -38.5 106t-106.5 42z" />
    <glyph glyph-name="afii10019" unicode="&#x412;" horiz-adv-x="542" 
d="M19 0v13l99 12v532l-99 12v14h249q102 0 158 -34.5t56 -104.5q0 -45 -40.5 -82t-90.5 -48v-2q26 -1 53.5 -9.5t55.5 -24.5t45.5 -45t17.5 -67q0 -76 -58.5 -121t-171.5 -45h-274zM247 289h-48v-262h79q72 0 116.5 35.5t44.5 100.5q0 73 -49 99.5t-143 26.5zM247 560h-48
v-244h59q137 0 137 118q0 66 -40.5 96t-107.5 30z" />
    <glyph glyph-name="afii10020" unicode="&#x413;" horiz-adv-x="476" 
d="M200 556v-530l100 -12v-14h-281v13l100 13v531l-100 12v14h437v-166h-19l-45 139h-192z" />
    <glyph glyph-name="afii10021" unicode="&#x414;" horiz-adv-x="586" 
d="M20 -140v166h77q80 208 118 521l-111 22v14h452v-13l-101 -13v-531h111v-166h-19l-45 140h-425l-38 -140h-19zM128 26h245v531h-129q-17 -152 -49.5 -300.5t-66.5 -230.5z" />
    <glyph glyph-name="afii10022" unicode="&#x415;" horiz-adv-x="501" 
d="M423 280l-224 4v-257h222l47 115l17 -6l-16 -136h-450v13l99 12v532l-99 12v14h448v-132h-24l-29 106h-215v-247l224 4v-34z" />
    <glyph glyph-name="afii10024" unicode="&#x416;" horiz-adv-x="839" 
d="M289 0v13l90 12v259h-81l-139 -284h-145v15l66 9l159 307l-85 199l-84 -33h-8l-17 86q26 9 43 9q47 0 70 -25.5t55 -101.5l66 -155h100v247l-90 12v14h261v-13l-90 -13v-247h100l66 155q32 76 55 101.5t70 25.5q17 0 43 -9l-17 -86h-8l-84 33l-83 -199l157 -307l66 -9
v-15h-145l-139 284h-81v-259l90 -11v-14h-261z" />
    <glyph glyph-name="afii10025" unicode="&#x417;" horiz-adv-x="458" 
d="M218 18q62 0 99 36t37 100q0 53 -29.5 84.5t-71.5 42.5l-120 -3v34l119 -4q77 41 77 126q0 64 -34.5 98t-91.5 34q-45 0 -92 -32l-37 -119h-21v144q85 33 170 33q81 0 137 -42t56 -111q0 -48 -24.5 -85t-66.5 -53v-2q15 -4 32 -12.5t36.5 -24.5t32 -44t12.5 -63
q0 -68 -58.5 -115.5t-161.5 -47.5q-105 0 -183 48v89h13q20 -39 65 -75t105 -36z" />
    <glyph glyph-name="afii10026" unicode="&#x418;" horiz-adv-x="698" 
d="M199 103v-77l101 -12v-14h-281v13l99 12v532l-99 12v14h281v-13l-101 -13v-414l298 340v74l-98 12v14h281v-13l-101 -13v-531l101 -12v-14h-281v13l98 12v418z" />
    <glyph glyph-name="afii10027" unicode="&#x419;" horiz-adv-x="698" 
d="M199 103v-77l101 -12v-14h-281v13l99 12v532l-99 12v14h281v-13l-101 -13v-414l298 340v74l-98 12v14h281v-13l-101 -13v-531l101 -12v-14h-281v13l98 12v418zM353 663q-63 0 -106 30t-43 74l70 22h11v-85q24 -20 68 -20q45 0 68 20v85h11l70 -22q0 -44 -43 -74t-106 -30
z" />
    <glyph glyph-name="afii10028" unicode="&#x41a;" horiz-adv-x="599" 
d="M19 0v13l100 13v531l-100 12v14h281v-13l-100 -13v-247h100l73 155q36 77 59 102t69 25q17 0 43 -9l-17 -86h-8l-84 33l-93 -196l177 -310l66 -9v-15h-145l-159 284h-81v-258l100 -12v-14h-281z" />
    <glyph glyph-name="afii10029" unicode="&#x41b;" horiz-adv-x="576" 
d="M277 0v13l99 13v531h-136q-19 -289 -67 -441q-11 -35 -19 -52t-24.5 -37t-43 -27.5t-66.5 -7.5v83l6 6h105q63 184 79 468l-101 20v14h449v-13l-100 -13v-531l100 -12v-14h-281z" />
    <glyph glyph-name="afii10030" unicode="&#x41c;" horiz-adv-x="791" 
d="M524 0v13l89 12l-40 444h-4l-183 -478h-32l-196 507h-4l-41 -459l98 -25v-14h-217v13l84 25l50 507l-85 24v14h173l183 -487l178 487h162v-13l-93 -15l54 -530l89 -11v-14h-265z" />
    <glyph glyph-name="afii10031" unicode="&#x41d;" horiz-adv-x="689" 
d="M390 0v13l98 12v259h-289v-258l101 -12v-14h-281v13l99 12v532l-99 12v14h281v-13l-101 -13v-247h289v247l-98 12v14h281v-13l-101 -13v-531l101 -12v-14h-281z" />
    <glyph glyph-name="afii10032" unicode="&#x41e;" horiz-adv-x="646" 
d="M615 314q0 -134 -82 -228t-217 -94q-129 0 -207 78t-78 205q0 139 83.5 228t217.5 89q129 0 206 -77.5t77 -200.5zM524 295q0 119 -50 195.5t-149 76.5q-101 0 -152.5 -75t-51.5 -196q0 -119 53 -198.5t145 -79.5q55 0 96 23.5t64 64t34 88t11 101.5z" />
    <glyph glyph-name="afii10033" unicode="&#x41f;" horiz-adv-x="674" 
d="M19 0v13l100 13v531l-100 12v14h637v-13l-100 -13v-531l100 -12v-14h-281v13l100 13v531h-275v-531l100 -12v-14h-281z" />
    <glyph glyph-name="afii10034" unicode="&#x420;" horiz-adv-x="521" 
d="M19 0v13l99 12v532l-99 12v14h281q196 0 196 -171q0 -77 -65.5 -124t-172.5 -47h-59v-215l101 -12v-14h-281zM270 555h-71v-288h55q78 0 119.5 35.5t41.5 105.5q0 67 -38.5 107t-106.5 40z" />
    <glyph glyph-name="afii10035" unicode="&#x421;" horiz-adv-x="552" 
d="M527 405h-21l-38 127q-54 35 -119 35q-97 0 -162.5 -71t-65.5 -199q0 -137 69.5 -208.5t176.5 -71.5q91 0 149 92h11v-79q-1 0 -18 -7.5t-34 -13.5t-49 -11.5t-68 -5.5q-150 0 -238.5 74.5t-88.5 222.5q0 131 91 217t233 86q87 0 172 -33v-154z" />
    <glyph glyph-name="afii10036" unicode="&#x422;" horiz-adv-x="540" 
d="M129 0v13l99 12v531h-151l-38 -139h-19v166h500v-166h-19l-45 139h-146v-530l101 -12v-14h-282z" />
    <glyph glyph-name="afii10037" unicode="&#x423;" horiz-adv-x="557" 
d="M137 555l183 -336l135 326l-93 24v14h190v-13l-50 -17l-183 -403q-47 -103 -76.5 -131t-106.5 -28v82l6 6h113l27 58l-236 424l-41 8v14h212v-13z" />
    <glyph glyph-name="afii10038" unicode="&#x424;" horiz-adv-x="680" 
d="M199 0v13l100 13v72q-125 1 -196.5 49t-71.5 139q0 94 74 154.5t194 65.5v72l-100 12v14h281v-13l-100 -13v-71q126 -1 197.5 -52t71.5 -139q0 -91 -71.5 -152t-197.5 -66v-72l100 -12v-14h-281zM564 306q0 82 -50 127t-134 48v-357q87 4 135.5 52.5t48.5 129.5zM115 299
q0 -82 49 -127.5t135 -47.5v357q-84 -4 -134 -53t-50 -129z" />
    <glyph glyph-name="afii10039" unicode="&#x425;" horiz-adv-x="574" 
d="M329 0v14l77 14l-138 226l-146 -219l82 -20v-15h-199v14l68 21l181 242l-172 279l-68 12v15h238v-14l-79 -17l129 -207l134 199l-68 24v15h173v-14l-60 -23l-165 -224l185 -295l68 -12v-15h-240z" />
    <glyph glyph-name="afii10040" unicode="&#x426;" horiz-adv-x="689" 
d="M19 0v13l100 13v531l-100 12v14h276v-13l-95 -13v-531h277v531l-95 12v14h276v-13l-100 -13v-531h111v-166h-19l-45 140h-586z" />
    <glyph glyph-name="afii10041" unicode="&#x427;" horiz-adv-x="615" 
d="M306 0v13l110 13v244q-85 -23 -148 -23q-101 0 -145 50q-30 34 -30 114v146l-83 12v14h251v-13l-87 -12v-172q0 -22 3.5 -38.5t14 -34.5t35 -27.5t62.5 -9.5q56 0 127 20v261l-88 12v14h269v-13l-100 -13v-531l100 -12v-14h-291z" />
    <glyph glyph-name="afii10042" unicode="&#x428;" horiz-adv-x="950" 
d="M19 0v13l100 13v531l-100 12v14h268v-13l-87 -13v-531h235v531l-87 12v14h255v-13l-87 -13v-531h235v531l-87 12v14h268v-13l-100 -13v-531l100 -12v-14h-913z" />
    <glyph glyph-name="afii10043" unicode="&#x429;" horiz-adv-x="963" 
d="M19 0v13l100 13v531l-100 12v14h268v-13l-87 -13v-531h235v531l-87 12v14h255v-13l-87 -13v-531h235v531l-87 12v14h268v-13l-100 -13v-531h111v-166h-19l-45 140h-860z" />
    <glyph glyph-name="afii10044" unicode="&#x42a;" horiz-adv-x="577" 
d="M20 417v166h351v-13l-101 -13v-216h101q91 0 143.5 -43t52.5 -129q0 -77 -61 -123t-177 -46h-240v13l100 13v530h-112l-38 -139h-19zM341 314l-71 1v-289h55q161 5 161 140q0 65 -38.5 106t-106.5 42z" />
    <glyph glyph-name="afii10045" unicode="&#x42b;" horiz-adv-x="810" 
d="M19 0v13l100 13v531l-100 12v14h282v-13l-101 -13v-216h101q91 0 143.5 -43t52.5 -129q0 -77 -61 -123t-177 -46h-240zM511 0v13l100 13v531l-100 12v14h281v-13l-100 -13v-531l100 -12v-14h-281zM200 315v-289h55q161 5 161 140q0 65 -38.5 106t-106.5 42z" />
    <glyph glyph-name="afii10046" unicode="&#x42c;" horiz-adv-x="507" 
d="M19 0v13l100 13v531l-100 12v14h282v-13l-101 -13v-216h101q91 0 143.5 -43t52.5 -129q0 -77 -61 -123t-177 -46h-240zM200 315v-289h55q161 5 161 140q0 65 -38.5 106t-106.5 42z" />
    <glyph glyph-name="afii10047" unicode="&#x42d;" horiz-adv-x="564" 
d="M532 295q0 -128 -89 -215.5t-218 -87.5q-118 0 -190 48v89h13q56 -111 178 -111q87 0 149 69t67 195l-283 -6v38l283 -6q-6 125 -75.5 191.5t-170.5 66.5q-54 0 -101 -31l-36 -130h-22v154q85 33 170 33q150 0 237.5 -74.5t87.5 -222.5z" />
    <glyph glyph-name="afii10048" unicode="&#x42e;" horiz-adv-x="944" 
d="M913 314q0 -134 -80.5 -228t-212.5 -94q-127 0 -203.5 78t-76.5 205v9h-140v-258l100 -12v-14h-281v13l100 13v531l-100 12v14h281v-13l-100 -13v-247h141q11 125 91.5 203t202.5 78q127 0 202.5 -77t75.5 -200zM822 295q0 119 -48.5 195t-145.5 76q-98 0 -148 -74.5
t-50 -195.5q0 -119 51.5 -198.5t141.5 -79.5q70 0 116.5 42t64.5 101.5t18 133.5z" />
    <glyph glyph-name="afii10049" unicode="&#x42f;" horiz-adv-x="576" 
d="M287 0v13l90 12v231h-69l-154 -256h-149v15l65 9l152 242q-142 33 -142 147q0 86 56.5 128t149.5 42h272v-13l-100 -13v-531l100 -12v-14h-271zM161 422q0 -72 44.5 -106t116.5 -34h55v275h-61q-71 0 -113 -35t-42 -100z" />
    <glyph glyph-name="afii10065" unicode="&#x430;" horiz-adv-x="436" 
d="M71 299h-16v125q79 35 148 35q65 0 107.5 -34.5t42.5 -104.5v-291l71 -19v-10h-127l-13 57q-63 -65 -141 -65q-53 0 -86.5 31t-33.5 85q0 60 57 101.5t151 41.5h51v82q0 102 -81 102q-50 0 -95 -34zM281 70l1 155h-67q-60 0 -92 -27t-32 -74q0 -42 22 -66t58 -24
q49 0 110 36z" />
    <glyph glyph-name="afii10066" unicode="&#x431;" horiz-adv-x="469" 
d="M447 223q0 -95 -60 -163t-149 -68q-198 0 -198 269q0 85 24 167t72 130q47 49 171 71l89 16l40 40l9 -6l-55 -111q-38 -5 -129 -13q-9 -1 -23 -2t-21.5 -1.5t-17.5 -1.5t-15.5 -2.5t-12 -3.5t-10 -4.5t-6.5 -5.5q-22 -29 -36 -189q27 26 72.5 46.5t94.5 20.5
q74 0 117.5 -50t43.5 -139zM247 379q-60 0 -129 -47l-1 -33q0 -7 -0.5 -20.5t-0.5 -20.5q0 -53 5.5 -92.5t19 -75.5t41.5 -55t69 -19q116 0 116 174q0 189 -120 189z" />
    <glyph glyph-name="afii10067" unicode="&#x432;" horiz-adv-x="464" 
d="M233 450q88 0 134.5 -28.5t46.5 -82.5q0 -38 -22.5 -65t-63.5 -38v-1q111 -14 111 -107q0 -58 -49.5 -93t-144.5 -35h-225v10l81 14v402l-81 13v11h213zM215 217h-43v-191h58q129 0 129 98q0 53 -35.5 73t-108.5 20zM205 424h-33v-181h52q110 0 110 91q0 29 -11.5 48.5
t-32.5 27.5t-40.5 11t-44.5 3z" />
    <glyph glyph-name="afii10068" unicode="&#x433;" horiz-adv-x="407" 
d="M331 424h-159v-400l92 -13v-11h-244v10l81 14v402l-81 13v11h362v-141h-12z" />
    <glyph glyph-name="afii10069" unicode="&#x434;" horiz-adv-x="485" 
d="M409 0h-334l-44 -127h-12v153h54q33 70 64.5 189t44.5 210l-88 14v11h368v-10l-82 -14v-400h85v-153h-12zM103 26h206v398h-99q-15 -110 -47 -227t-60 -171z" />
    <glyph glyph-name="afii10070" unicode="&#x435;" horiz-adv-x="417" 
d="M395 242h-300v-15q0 -88 48.5 -138.5t120.5 -50.5q25 0 58 12t58 32l11 -19q-20 -26 -65 -48.5t-95 -22.5q-102 0 -155.5 59.5t-53.5 165.5q0 104 54 173t144 69q168 0 175 -217zM213 437q-43 0 -76 -44.5t-41 -124.5h215q2 74 -23 121.5t-75 47.5z" />
    <glyph glyph-name="afii10072" unicode="&#x436;" horiz-adv-x="707" 
d="M247 0v10l71 13v189h-60l-103 -212h-145v10l75 24l115 221l-58 153l-75 -34h-9l-15 80q22 5 40 5q41 0 63 -19.5t43 -75.5l48 -126h81v188l-71 13v11h214v-10l-72 -14v-188h81l48 126q21 56 43 75.5t63 19.5q18 0 40 -5l-15 -80h-9l-75 34l-58 -153l115 -221l75 -24v-10
h-145l-103 212h-60v-189l72 -12v-11h-214z" />
    <glyph glyph-name="afii10073" unicode="&#x437;" horiz-adv-x="373" 
d="M172 459q76 0 117 -34t41 -88q0 -37 -20.5 -65.5t-52.5 -34.5v-1q38 -8 64.5 -34t26.5 -76q0 -59 -47 -97t-134 -38q-74 0 -142 31v78h13q23 -35 58.5 -59t73.5 -24q44 0 71 28t27 78q0 72 -64 94l-100 -3v33l99 -3q48 32 48 95q0 46 -24.5 70t-64.5 24q-48 0 -85 -35
l-23 -79h-20v112q61 28 138 28z" />
    <glyph glyph-name="afii10074" unicode="&#x438;" horiz-adv-x="576" 
d="M330 0v10l73 13v309l-231 -252v-57l74 -12v-11h-226v10l81 14v402l-81 13v11h226v-10l-74 -14v-306l231 252v54l-73 13v11h226v-10l-82 -14v-402l82 -13v-11h-226z" />
    <glyph glyph-name="afii10075" unicode="&#x439;" horiz-adv-x="576" 
d="M330 0v10l73 13v309l-231 -252v-57l74 -12v-11h-226v10l81 14v402l-81 13v11h226v-10l-74 -14v-306l231 252v54l-73 13v11h226v-10l-82 -14v-402l82 -13v-11h-226zM299 557q-57 0 -100.5 27t-43.5 73l74 22h7v-87q25 -17 63 -17q40 0 63 17v87h7l74 -22q0 -46 -43 -73
t-101 -27z" />
    <glyph glyph-name="afii10076" unicode="&#x43a;" horiz-adv-x="510" 
d="M254 450v-10l-82 -14v-181h89l48 119q24 57 45.5 76t67.5 19q18 0 40 -5l-15 -80h-9l-81 37l-58 -146l126 -231l75 -24v-10h-145l-113 219h-70v-196l72 -12v-11h-224v10l81 14v402l-81 13v11h234z" />
    <glyph glyph-name="afii10077" unicode="&#x43b;" horiz-adv-x="480" 
d="M170 425l-82 14v11h372v-10l-82 -14v-402l82 -13v-11h-224v10l71 13v401h-105q-17 -197 -55 -324q-17 -58 -44 -83t-93 -25v82l5 5h96q50 151 59 346z" />
    <glyph glyph-name="afii10078" unicode="&#x43c;" horiz-adv-x="672" 
d="M200 450l129 -355h4l131 355h160v-10l-85 -14l41 -402l84 -13v-11h-241v10l86 14l-36 348h-3l-139 -380h-37l-141 386h-3l-33 -342l76 -25v-11h-183v10l78 26l41 390l-85 13v11h156z" />
    <glyph glyph-name="afii10079" unicode="&#x43d;" horiz-adv-x="566" 
d="M322 0v10l71 13v193h-221v-193l72 -12v-11h-224v10l81 14v402l-81 13v11h224v-10l-72 -14v-184h221v184l-71 13v11h224v-10l-82 -14v-402l82 -13v-11h-224z" />
    <glyph glyph-name="afii10080" unicode="&#x43e;" horiz-adv-x="451" 
d="M428 225q0 -93 -61 -163t-147 -70q-198 0 -198 228q0 94 61 166.5t145 72.5q200 0 200 -234zM348 213q0 37 -5 71t-17.5 71t-40 59t-66.5 22q-118 0 -118 -200q0 -39 6 -74.5t19.5 -70t41 -55t65.5 -20.5q36 0 60 16.5t35.5 46.5t15.5 61.5t4 72.5z" />
    <glyph glyph-name="afii10081" unicode="&#x43f;" horiz-adv-x="552" 
d="M308 0v10l71 13v401h-207v-401l72 -12v-11h-224v10l81 14v402l-81 13v11h512v-10l-82 -14v-402l82 -13v-11h-224z" />
    <glyph glyph-name="afii10082" unicode="&#x440;" horiz-adv-x="494" 
d="M16 -207v10l80 22v587h-85v11l111 36h37l7 -60q69 60 135 60q170 0 170 -224q0 -105 -67.5 -174.5t-164.5 -69.5q-41 0 -72 9v-174l93 -22v-11h-244zM272 411q-55 0 -105 -25v-336q42 -30 97 -30q35 0 61 18t39.5 48t19.5 62.5t6 68.5q0 83 -31 138.5t-87 55.5z" />
    <glyph glyph-name="afii10083" unicode="&#x441;" horiz-adv-x="407" 
d="M363 286l-31 105q-47 44 -101 44q-56 0 -96 -50t-40 -151q0 -100 48 -148.5t122 -48.5q25 0 58 12t57 33l11 -19q-20 -27 -65 -49.5t-95 -22.5q-102 0 -155.5 60t-53.5 166q0 105 58 173.5t155 68.5q47 0 78.5 -8t70.5 -31v-134h-21z" />
    <glyph glyph-name="afii10084" unicode="&#x442;" horiz-adv-x="460" 
d="M384 424h-119v-400l82 -13v-11h-234v10l81 14v400h-118l-39 -115h-12v141h410v-141h-12z" />
    <glyph glyph-name="afii10085" unicode="&#x443;" horiz-adv-x="477" 
d="M269 0l-62 -207h-50v8l70 171l-176 453l-51 14v11h210v-10l-76 -23l127 -341l115 336l-72 27v11h173v-10l-73 -28z" />
    <glyph glyph-name="afii10086" unicode="&#x444;" horiz-adv-x="580" 
d="M176 -206v10l80 20v169q-234 11 -234 227q0 93 64 159.5t170 77.5v207h-85v12l105 27h47v-245q120 -6 177 -63t57 -170q0 -92 -63 -156t-171 -75v-169l82 -20v-11h-229zM477 209q0 90 -36.5 153t-117.5 66v-409q47 3 79 19.5t47.5 44.5t21.5 57.5t6 68.5zM256 22v408
q-154 -12 -154 -196q0 -56 12.5 -100t48.5 -77t93 -35z" />
    <glyph glyph-name="afii10087" unicode="&#x445;" horiz-adv-x="495" 
d="M272 245l154 -216l68 -18v-11h-209v10l48 14l-103 166l-115 -151l79 -28v-11h-193v10l70 27l144 175l-145 211l-59 16v11h210v-10l-61 -18l99 -156l110 144l-71 29v11h193v-10l-89 -30z" />
    <glyph glyph-name="afii10088" unicode="&#x446;" horiz-adv-x="554" 
d="M532 450v-10l-82 -14v-400h84v-153h-12l-44 127h-458v10l81 14v402l-81 13v11h224v-10l-72 -14v-400h207v400l-71 13v11h224z" />
    <glyph glyph-name="afii10089" unicode="&#x447;" horiz-adv-x="507" 
d="M243 0v10l91 14v183q-69 -23 -130 -23q-67 0 -97 30q-31 31 -31 90v122l-70 13v11h210v-10l-68 -14v-136q0 -80 84 -80q43 0 102 21v195l-71 13v11h224v-10l-82 -14v-402l82 -13v-11h-244z" />
    <glyph glyph-name="afii10090" unicode="&#x448;" horiz-adv-x="770" 
d="M536 439v11h214v-10l-82 -14v-402l82 -13v-11h-730v10l81 14v402l-81 13v11h214v-10l-62 -13v-401h177v401l-61 12v11h194v-10l-62 -13v-401h177v401z" />
    <glyph glyph-name="afii10091" unicode="&#x449;" horiz-adv-x="772" 
d="M696 0h-676v10l81 14v402l-81 13v11h214v-10l-62 -13v-401h177v401l-61 12v11h194v-10l-62 -13v-401h177v401l-61 12v11h214v-10l-82 -14v-400h84v-153h-12z" />
    <glyph glyph-name="afii10092" unicode="&#x44a;" horiz-adv-x="487" 
d="M317 450v-10l-82 -14v-160h53q94 0 144 -29.5t50 -102.5q0 -60 -49.5 -97t-144.5 -37h-205v10l81 14v400h-83l-44 -115h-12v141h292zM235 240v-214h47q120 0 120 108q0 106 -121 106h-46z" />
    <glyph glyph-name="afii10093" unicode="&#x44b;" horiz-adv-x="687" 
d="M254 450v-10l-82 -14v-160h53q94 0 144 -29.5t50 -102.5q0 -60 -49.5 -97t-144.5 -37h-205v10l81 14v402l-81 13v11h234zM667 450v-10l-82 -14v-402l82 -13v-11h-234v10l81 14v402l-81 13v11h234zM172 240v-214h47q120 0 120 108q0 106 -121 106h-46z" />
    <glyph glyph-name="afii10094" unicode="&#x44c;" horiz-adv-x="424" 
d="M254 450v-10l-82 -14v-160h53q94 0 144 -29.5t50 -102.5q0 -60 -49.5 -97t-144.5 -37h-205v10l81 14v402l-81 13v11h234zM172 240v-214h47q120 0 120 108q0 106 -121 106h-46z" />
    <glyph glyph-name="afii10095" unicode="&#x44d;" horiz-adv-x="402" 
d="M25 100h13q55 -83 136 -83q53 0 90.5 49.5t40.5 145.5l-192 -3v33l192 -3q-4 92 -40 143t-96 51q-49 0 -93 -33l-25 -91h-20v122q58 28 145 28q98 0 150.5 -57.5t52.5 -168.5q0 -104 -55.5 -173t-147.5 -69q-85 0 -151 32v77z" />
    <glyph glyph-name="afii10096" unicode="&#x44e;" horiz-adv-x="707" 
d="M172 217v-194l72 -12v-11h-224v10l81 14v402l-81 13v11h224v-10l-72 -14v-183h107q8 87 67.5 151.5t137.5 64.5q200 0 200 -234q0 -93 -61 -163t-147 -70q-197 0 -198 225h-106zM604 213q0 37 -5 71t-17.5 71t-40 59t-66.5 22q-118 0 -118 -200q0 -39 6 -74.5t19.5 -70
t41 -55t65.5 -20.5q36 0 60 16.5t35.5 46.5t15.5 61.5t4 72.5z" />
    <glyph glyph-name="afii10097" unicode="&#x44f;" horiz-adv-x="498" 
d="M254 0v10l71 13v166h-64l-116 -189h-140v10l73 24l107 169q-51 13 -78 43.5t-27 72.5q0 67 48 99t127 32h223v-10l-82 -14v-402l82 -13v-11h-224zM325 215v209h-47q-119 -2 -119 -103q0 -57 32.5 -80.5t91.5 -25.5h42z" />
    <glyph glyph-name="uni0450" unicode="&#x450;" horiz-adv-x="417" 
d="M95 227q0 -88 48.5 -138.5t120.5 -50.5q25 0 58 12t58 32l11 -19q-20 -26 -65 -48.5t-95 -22.5q-102 0 -155.5 59.5t-53.5 165.5q0 104 54 173t144 69q168 0 175 -217h-300v-15zM213 437q-43 0 -76 -44.5t-41 -124.5h215q2 74 -23 121.5t-75 47.5zM90 640l45 54l134 -165
l-10 -8z" />
    <glyph glyph-name="afii10071" unicode="&#x451;" horiz-adv-x="417" 
d="M395 242h-300v-15q0 -88 48.5 -138.5t120.5 -50.5q25 0 58 12t58 32l11 -19q-20 -26 -65 -48.5t-95 -22.5q-102 0 -155.5 59.5t-53.5 165.5q0 104 54 173t144 69q168 0 175 -217zM213 437q-43 0 -76 -44.5t-41 -124.5h215q2 74 -23 121.5t-75 47.5zM84 610q0 19 12.5 31
t31.5 12q18 0 30.5 -12t12.5 -31q0 -18 -12.5 -31t-30.5 -13q-19 0 -31.5 13t-12.5 31zM262 610q0 19 12.5 31t31.5 12q18 0 30.5 -12t12.5 -31q0 -18 -12.5 -31t-30.5 -13q-19 0 -31.5 13t-12.5 31z" />
    <glyph glyph-name="afii10099" unicode="&#x452;" horiz-adv-x="505" 
d="M177 302v-271l82 -20v-11h-234v10l80 20v465h-85v26h85v143h-85v12l105 27h52v-182h142v-26h-142v-180q80 84 162 84q76 0 109.5 -45t33.5 -117q0 -114 -56 -244.5t-121 -208.5l-12 8q109 198 109 410q0 145 -97 145q-70 0 -128 -45z" />
    <glyph glyph-name="afii10100" unicode="&#x453;" horiz-adv-x="407" 
d="M331 424h-159v-400l92 -13v-11h-244v10l81 14v402l-81 13v11h362v-141h-12zM299 694l45 -54l-169 -119l-10 8z" />
    <glyph glyph-name="afii10101" unicode="&#x454;" horiz-adv-x="407" 
d="M363 306l-31 85q-47 44 -101 44t-93.5 -47t-42.5 -141v-8l207 3v-33l-207 3q6 -89 53 -132t117 -43q25 0 58 12t57 33l11 -19q-20 -27 -65 -49.5t-95 -22.5q-102 0 -155.5 60t-53.5 166q0 105 58 173.5t155 68.5q47 0 78.5 -8t70.5 -31v-114h-21z" />
    <glyph glyph-name="afii10102" unicode="&#x455;" horiz-adv-x="371" 
d="M172 -8q-76 0 -144 30v123h12l33 -99q45 -24 99 -24q46 0 77 20.5t31 62.5q0 35 -25.5 54t-61.5 27.5t-72.5 19.5t-62 40t-25.5 79q0 62 48 98t117 36q72 0 129 -28v-112h-12l-24 83q-51 28 -106 28q-42 0 -68.5 -20t-26.5 -64q0 -36 26 -54.5t63 -26t74.5 -17.5
t63.5 -38t26 -77q0 -72 -50 -106.5t-121 -34.5z" />
    <glyph glyph-name="afii10103" unicode="&#x456;" horiz-adv-x="264" 
d="M19 0v10l80 14v388h-85v11l126 36h30v-435l83 -13v-11h-234zM84 619q0 22 15 36.5t37 14.5q21 0 36 -14.5t15 -36.5t-15 -36.5t-36 -14.5q-22 0 -37 14.5t-15 36.5z" />
    <glyph glyph-name="afii10104" unicode="&#x457;" horiz-adv-x="264" 
d="M19 0v10l80 14v388h-85v11l126 36h30v-435l83 -13v-11h-234zM160 619q0 22 15 36.5t37 14.5q21 0 36 -14.5t15 -36.5t-15 -36.5t-36 -14.5q-22 0 -37 14.5t-15 36.5zM3 619q0 22 15 36.5t37 14.5q21 0 36 -14.5t15 -36.5t-15 -36.5t-36 -14.5q-22 0 -37 14.5t-15 36.5z
" />
    <glyph glyph-name="afii10105" unicode="&#x458;" horiz-adv-x="237" 
d="M39 -207l-9 10q38 35 50 71t12 130v408h-85v11l126 36h30v-461q0 -61 -34 -114t-90 -91zM130 568q-22 0 -37 14.5t-15 36.5t15 36.5t37 14.5q21 0 36 -14.5t15 -36.5t-15 -36.5t-36 -14.5z" />
    <glyph glyph-name="afii10106" unicode="&#x459;" horiz-adv-x="630" 
d="M236 0v10l71 13v401h-105q-17 -197 -55 -324q-17 -58 -44 -83t-93 -25v82l5 5h96q50 151 59 346l-82 14v11h372v-10l-82 -14v-160h53q94 0 144 -29.5t50 -102.5q0 -60 -49.5 -97t-144.5 -37h-195zM424 240h-46v-214h47q120 0 120 108q0 106 -121 106z" />
    <glyph glyph-name="afii10107" unicode="&#x45a;" horiz-adv-x="716" 
d="M322 0v10l71 13v193h-221v-193l72 -12v-11h-224v10l81 14v402l-81 13v11h224v-10l-72 -14v-184h221v184l-71 13v11h224v-10l-82 -14v-184h53q94 0 144 -26.5t50 -93.5q0 -55 -49.5 -88.5t-144.5 -33.5h-195zM464 216v-190h47q120 0 120 96q0 94 -121 94h-46z" />
    <glyph glyph-name="afii10108" unicode="&#x45b;" horiz-adv-x="562" 
d="M20 495v26h85v143h-85v12l105 27h52v-182h142v-26h-142v-180q84 84 172 84q65 0 95.5 -44.5t30.5 -117.5v-206l81 -20v-11h-234v10l82 21v191q0 126 -99 126q-71 0 -128 -46v-271l82 -20v-11h-234v10l80 20v465h-85z" />
    <glyph glyph-name="afii10109" unicode="&#x45c;" horiz-adv-x="510" 
d="M254 450v-10l-82 -14v-181h89l48 119q24 57 45.5 76t67.5 19q18 0 40 -5l-15 -80h-9l-81 37l-58 -146l126 -231l75 -24v-10h-145l-113 219h-70v-196l72 -12v-11h-224v10l81 14v402l-81 13v11h234zM349 694l45 -54l-169 -119l-10 8z" />
    <glyph glyph-name="uni045D" unicode="&#x45d;" horiz-adv-x="576" 
d="M330 0v10l73 13v309l-231 -252v-57l74 -12v-11h-226v10l81 14v402l-81 13v11h226v-10l-74 -14v-306l231 252v54l-73 13v11h226v-10l-82 -14v-402l82 -13v-11h-226zM168 640l45 54l134 -165l-10 -8z" />
    <glyph glyph-name="afii10110" unicode="&#x45e;" horiz-adv-x="477" 
d="M269 0l-62 -207h-50v8l70 171l-176 453l-51 14v11h210v-10l-76 -23l127 -341l115 336l-72 27v11h173v-10l-73 -28zM263 557q-57 0 -100.5 27t-43.5 73l74 22h7v-87q25 -17 63 -17q40 0 63 17v87h7l74 -22q0 -46 -43 -73t-101 -27z" />
    <glyph glyph-name="afii10193" unicode="&#x45f;" horiz-adv-x="552" 
d="M244 450v-10l-72 -14v-400h207v400l-71 13v11h224v-10l-82 -14v-402l82 -13v-11h-228l7 -140h-71l7 140h-227v10l81 14v402l-81 13v11h224z" />
    <glyph glyph-name="afii10146" unicode="&#x462;" horiz-adv-x="572" 
d="M85 0v13l99 14v420h-114l-45 -76h-12v100h171v85l-99 13v14h269v-13l-89 -14v-85h177v-100h-11l-46 76h-120v-145h101q184 0 184 -143q0 -159 -226 -159h-239zM265 275v-249h55q149 5 149 130q0 47 -34.5 82t-98.5 36z" />
    <glyph glyph-name="afii10194" unicode="&#x463;" horiz-adv-x="551" 
d="M355 583v-11l-101 -16v-90h199v-105h-13l-42 75h-144v-134h71q99 0 152.5 -28t53.5 -106q0 -168 -218 -168h-239v11l99 18v407h-97l-46 -75h-10v105h153v90l-99 15v12h281zM450 165q0 58 -45.5 84.5t-150.5 25.5v-249h55q141 5 141 139z" />
    <glyph glyph-name="afii10147" unicode="&#x472;" horiz-adv-x="650" 
d="M617 314q0 -134 -82 -228t-217 -94q-129 0 -207 78t-78 205q0 139 83.5 227.5t217.5 88.5q130 0 206.5 -77t76.5 -200zM327 566q-91 0 -145.5 -69t-58.5 -192l402 4q-8 122 -59.5 189.5t-138.5 67.5zM321 17q183 0 204 258l-401 4q7 -110 57 -186t140 -76z" />
    <glyph glyph-name="afii10195" unicode="&#x473;" horiz-adv-x="479" 
d="M442 225q0 -93 -61 -163t-147 -70q-198 0 -198 228q0 94 61 166.5t145 72.5q200 0 200 -234zM247 16q115 0 115 202l-247 6q0 -86 32 -147t100 -61zM233 437q-114 0 -118 -195l245 6q-4 48 -15 86.5t-40 70.5t-72 32z" />
    <glyph glyph-name="afii10148" unicode="&#x474;" horiz-adv-x="591" 
d="M310 76l141 414q21 62 39 82t54 20q24 0 51 -21l-12 -32q-15 6 -30 6q-38 0 -57 -51l-184 -494h-57l-209 563l-50 9v11h224v-10l-82 -14l168 -483h4z" />
    <glyph glyph-name="afii10196" unicode="&#x475;" horiz-adv-x="474" 
d="M385 363l-131 -363h-37l-175 425l-50 14v11h210v-10l-75 -22l131 -333h3l85 271q11 33 19.5 52t25.5 35t40 16t52 -18l-11 -31q-15 6 -30 6q-38 0 -57 -53z" />
    <glyph glyph-name="afii10050" unicode="&#x490;" horiz-adv-x="466" 
d="M200 556v-530l100 -12v-14h-281v13l100 13v531l-100 12v14h363l45 149h19v-176h-246z" />
    <glyph glyph-name="afii10098" unicode="&#x491;" horiz-adv-x="392" 
d="M372 424h-200v-400l92 -13v-11h-244v10l81 14v402l-81 13v11h301l39 125h12v-151z" />
    <glyph glyph-name="uni04D8" unicode="&#x4d8;" horiz-adv-x="600" 
d="M286 -8q-137 0 -195 76.5t-58 213.5v8v20h443q-4 107 -56 172t-140 65q-97 0 -191 -43l-16 24q104 63 211 63q130 0 206.5 -77t76.5 -200q0 -136 -74 -229t-207 -93zM289 18q92 0 138 75.5t49 187.5h-353q2 -263 166 -263z" />
    <glyph glyph-name="afii10846" unicode="&#x4d9;" horiz-adv-x="417" 
d="M322 224q0 88 -48.5 138.5t-120.5 50.5q-25 0 -58 -12t-58 -32l-11 19q20 26 65 48.5t95 22.5q102 0 155.5 -59.5t53.5 -165.5q0 -104 -54 -173t-144 -69q-168 0 -175 217h299q0 3 0.5 8t0.5 7zM204 14q43 0 76 44.5t40 124.5h-214q-2 -74 23 -121.5t75 -47.5z" />
    <glyph glyph-name="uni1E02" unicode="&#x1e02;" horiz-adv-x="542" 
d="M19 0v13l99 12v532l-99 12v14h249q102 0 158 -34.5t56 -104.5q0 -45 -40.5 -82t-90.5 -48v-2q26 -1 53.5 -9.5t55.5 -24.5t45.5 -45t17.5 -67q0 -76 -58.5 -121t-171.5 -45h-274zM247 289h-48v-262h79q72 0 116.5 35.5t44.5 100.5q0 73 -49 99.5t-143 26.5zM247 560h-48
v-244h59q137 0 137 118q0 66 -40.5 96t-107.5 30zM230 684q0 20 12.5 32.5t31.5 12.5t32 -13t13 -32t-13 -31.5t-32 -12.5t-31.5 12.5t-12.5 31.5z" />
    <glyph glyph-name="uni1E03" unicode="&#x1e03;" horiz-adv-x="469" 
d="M70 36v628h-84v12l105 27h51v-303q70 59 134 59q170 0 170 -224q0 -105 -67.5 -174.5t-164.5 -69.5q-85 0 -144 45zM142 50q42 -30 97 -30q35 0 61 18t39.5 48t19.5 62.5t6 68.5q0 83 -31 138.5t-87 55.5q-55 0 -105 -25v-336zM233 619q0 20 12.5 32.5t31.5 12.5t32 -13
t13 -32t-13 -31.5t-32 -12.5t-31.5 12.5t-12.5 31.5z" />
    <glyph glyph-name="uni1E04" unicode="&#x1e04;" horiz-adv-x="542" 
d="M19 0v13l99 12v532l-99 12v14h249q102 0 158 -34.5t56 -104.5q0 -45 -40.5 -82t-90.5 -48v-2q26 -1 53.5 -9.5t55.5 -24.5t45.5 -45t17.5 -67q0 -76 -58.5 -121t-171.5 -45h-274zM247 289h-48v-262h79q72 0 116.5 35.5t44.5 100.5q0 73 -49 99.5t-143 26.5zM247 560h-48
v-244h59q137 0 137 118q0 66 -40.5 96t-107.5 30zM237 -113q0 20 12.5 32.5t31.5 12.5t32 -13t13 -32t-13 -31.5t-32 -12.5t-31.5 12.5t-12.5 31.5z" />
    <glyph glyph-name="uni1E05" unicode="&#x1e05;" horiz-adv-x="469" 
d="M70 36v628h-84v12l105 27h51v-303q70 59 134 59q170 0 170 -224q0 -105 -67.5 -174.5t-164.5 -69.5q-85 0 -144 45zM142 50q42 -30 97 -30q35 0 61 18t39.5 48t19.5 62.5t6 68.5q0 83 -31 138.5t-87 55.5q-55 0 -105 -25v-336zM201 -113q0 20 12.5 32.5t31.5 12.5t32 -13
t13 -32t-13 -31.5t-32 -12.5t-31.5 12.5t-12.5 31.5z" />
    <glyph glyph-name="uni1E06" unicode="&#x1e06;" horiz-adv-x="542" 
d="M19 0v13l99 12v532l-99 12v14h249q102 0 158 -34.5t56 -104.5q0 -45 -40.5 -82t-90.5 -48v-2q26 -1 53.5 -9.5t55.5 -24.5t45.5 -45t17.5 -67q0 -76 -58.5 -121t-171.5 -45h-274zM247 289h-48v-262h79q72 0 116.5 35.5t44.5 100.5q0 73 -49 99.5t-143 26.5zM247 560h-48
v-244h59q137 0 137 118q0 66 -40.5 96t-107.5 30zM412 -125h-246v28h246v-28z" />
    <glyph glyph-name="uni1E07" unicode="&#x1e07;" horiz-adv-x="469" 
d="M70 36v628h-84v12l105 27h51v-303q70 59 134 59q170 0 170 -224q0 -105 -67.5 -174.5t-164.5 -69.5q-85 0 -144 45zM247 411q-55 0 -105 -25v-336q42 -30 97 -30q35 0 61 18t39.5 48t19.5 62.5t6 68.5q0 83 -31 138.5t-87 55.5zM369 -125h-246v28h246v-28z" />
    <glyph glyph-name="uni1E0A" unicode="&#x1e0a;" horiz-adv-x="654" 
d="M19 0v13l99 12v532l-99 12v14h258q61 0 109 -6.5t93.5 -25t76 -49t49 -80t18.5 -116.5q0 -147 -94.5 -226.5t-246.5 -79.5h-263zM274 556h-75v-529h92q120 0 181 60.5t61 203.5q0 131 -60.5 198t-198.5 67zM281 684q0 20 12.5 32.5t31.5 12.5t32 -13t13 -32t-13 -31.5
t-32 -12.5t-31.5 12.5t-12.5 31.5z" />
    <glyph glyph-name="uni1E0B" unicode="&#x1e0b;" horiz-adv-x="480" 
d="M343 0l-15 54q-59 -62 -132 -62t-123.5 51.5t-50.5 163.5t61.5 182t150.5 70q50 0 92 -10v215h-84v12l105 27h51v-674l72 -19v-10h-127zM326 63v340q-34 32 -92 32q-64 0 -101 -54.5t-37 -146.5q0 -91 34 -143.5t92 -52.5q59 0 104 25zM122 619q0 20 12.5 32.5t31.5 12.5
t32 -13t13 -32t-13 -31.5t-32 -12.5t-31.5 12.5t-12.5 31.5z" />
    <glyph glyph-name="uni1E0C" unicode="&#x1e0c;" horiz-adv-x="654" 
d="M19 0v13l99 12v532l-99 12v14h258q61 0 109 -6.5t93.5 -25t76 -49t49 -80t18.5 -116.5q0 -147 -94.5 -226.5t-246.5 -79.5h-263zM274 556h-75v-529h92q120 0 181 60.5t61 203.5q0 131 -60.5 198t-198.5 67zM287 -113q0 20 12.5 32.5t31.5 12.5t32 -13t13 -32t-13 -31.5
t-32 -12.5t-31.5 12.5t-12.5 31.5z" />
    <glyph glyph-name="uni1E0D" unicode="&#x1e0d;" horiz-adv-x="480" 
d="M343 0l-15 54q-59 -62 -132 -62t-123.5 51.5t-50.5 163.5t61.5 182t150.5 70q50 0 92 -10v215h-84v12l105 27h51v-674l72 -19v-10h-127zM222 38q59 0 104 25v340q-34 32 -92 32q-64 0 -101 -54.5t-37 -146.5q0 -91 34 -143.5t92 -52.5zM202 -113q0 20 12.5 32.5
t31.5 12.5t32 -13t13 -32t-13 -31.5t-32 -12.5t-31.5 12.5t-12.5 31.5z" />
    <glyph glyph-name="uni1E0E" unicode="&#x1e0e;" horiz-adv-x="654" 
d="M19 0v13l99 12v532l-99 12v14h258q61 0 109 -6.5t93.5 -25t76 -49t49 -80t18.5 -116.5q0 -147 -94.5 -226.5t-246.5 -79.5h-263zM274 556h-75v-529h92q120 0 181 60.5t61 203.5q0 131 -60.5 198t-198.5 67zM448 -125h-246v28h246v-28z" />
    <glyph glyph-name="uni1E0F" unicode="&#x1e0f;" horiz-adv-x="480" 
d="M343 0l-15 54q-59 -62 -132 -62t-123.5 51.5t-50.5 163.5t61.5 182t150.5 70q50 0 92 -10v215h-84v12l105 27h51v-674l72 -19v-10h-127zM326 63v340q-34 32 -92 32q-64 0 -101 -54.5t-37 -146.5q0 -91 34 -143.5t92 -52.5q59 0 104 25zM370 -125h-246v28h246v-28z" />
    <glyph glyph-name="uni1E1E" unicode="&#x1e1e;" horiz-adv-x="467" 
d="M19 583h448v-132h-24l-29 106h-215v-256l224 5v-35l-224 5v-250l101 -12v-14h-281v13l99 12v532l-99 12v14zM250 684q0 20 12.5 32.5t31.5 12.5t32 -13t13 -32t-13 -31.5t-32 -12.5t-31.5 12.5t-12.5 31.5z" />
    </font>
</defs>
</svg>
