<?xml version="1.0" standalone="no"?>
<!DOCTYPE svg PUBLIC "-//W3C//DTD SVG 1.1//EN" "http://www.w3.org/Graphics/SVG/1.1/DTD/svg11.dtd" >
<svg xmlns="http://www.w3.org/2000/svg" xmlns:xlink="http://www.w3.org/1999/xlink" version="1.1">
<metadata>
Created by FontForge 20161013 at Wed Aug 20 21:50:40 2008
 By ,,,
Copyright (c) 2007-2008 Typotheque.com All rights reserved. Cyrillic designed by Alexei Kassian and Gayaneh Bagdasaryan.
</metadata>
<defs>
<font id="GretaTextPro-Light" horiz-adv-x="594" >
  <font-face 
    font-family="Greta Text Pro"
    font-weight="300"
    font-stretch="normal"
    units-per-em="1000"
    panose-1="2 0 3 3 0 0 0 2 0 4"
    ascent="710"
    descent="-290"
    x-height="450"
    cap-height="583"
    bbox="-432 -384 1168 899"
    underline-thickness="50"
    underline-position="-200"
    unicode-range="U+0020-FB04"
  />
<missing-glyph horiz-adv-x="712" 
d="M305 375v27h27v-27h-27zM380 525v27h27v-27h-27zM305 525v27h27v-27h-27zM230 525v27h27v-27h-27zM80 0v27h27v-27h-27zM155 0v27h27v-27h-27zM230 0v27h27v-27h-27zM305 0v27h27v-27h-27zM380 0v27h27v-27h-27zM80 75v27h27v-27h-27zM80 150v27h27v-27h-27zM80 225v27
h27v-27h-27zM80 300v27h27v-27h-27zM80 375v27h27v-27h-27zM80 450v27h27v-27h-27zM80 525v27h27v-27h-27zM80 600v27h27v-27h-27zM80 675v27h27v-27h-27zM155 675v27h27v-27h-27zM230 675v27h27v-27h-27zM305 675v27h27v-27h-27zM380 675v27h27v-27h-27zM455 675v27h27v-27
h-27zM530 675v27h27v-27h-27zM530 0v27h27v-27h-27zM455 0v27h27v-27h-27zM605 0v27h27v-27h-27zM605 675v27h27v-27h-27zM305 300v27h27v-27h-27zM305 150v27h27v-27h-27zM380 375v27h27v-27h-27zM455 375v27h27v-27h-27zM455 450v27h27v-27h-27zM455 525v27h27v-27h-27z
M605 600v27h27v-27h-27zM605 525v27h27v-27h-27zM605 375v27h27v-27h-27zM605 300v27h27v-27h-27zM605 150v27h27v-27h-27zM605 75v27h27v-27h-27zM605 225v27h27v-27h-27zM605 450v27h27v-27h-27z" />
    <glyph glyph-name="f_f" unicode="ff" horiz-adv-x="608" 
d="M29 0v31l78 20v347h-81v34l81 19v60q0 75 66 136t169 61q76 0 139 -40q54 38 119 38q26 0 46 -5l-14 -76h-22l-89 22q-39 -40 -39 -112v-85h98v-52h-98v-345l83 -21v-32h-236v31l78 20v347h-225v-346l84 -20v-32h-237zM407 535q0 42 23 80q-80 46 -131 50
q-50 -11 -83.5 -49.5t-33.5 -93.5v-72h225v85z" />
    <glyph glyph-name="fi" unicode="fi" horiz-adv-x="571" 
d="M29 0v31l78 20v347h-81v34l81 19v52q0 77 57.5 141t148.5 64q71 0 109 -21l-15 -76h-21l-121 50q-83 -43 -83 -135v-76h186l68 10h32v-408l82 -20v-32h-226v31l69 20v347h-211v-346l74 -20v-32h-227z" />
    <glyph glyph-name="fl" unicode="fl" horiz-adv-x="564" 
d="M316 0v31l79 21v568l-127 36q-86 -45 -86 -134v-72h99v-52h-99v-346l74 -20v-32h-227v31l78 20v347h-81v34l81 19v61q0 80 59.5 136.5t156.5 56.5q31 0 71 -8l24 6h53v-651l81 -20v-32h-236z" />
    <glyph glyph-name="f_f_i" unicode="ffi" horiz-adv-x="869" 
d="M29 0v31l78 20v347h-81v34l81 19v60q0 75 66 136t169 61q79 0 145 -43q55 43 125 43q71 0 109 -21l-15 -76h-21l-121 50q-83 -43 -83 -135v-76h186l68 10h32v-408l82 -20v-32h-226v31l69 20v347h-211v-346l74 -20v-32h-227v31l78 20v347h-224v-346l84 -20v-32h-237z
M406 503q0 56 32 108q-87 49 -139 54q-50 -11 -83.5 -49.5t-33.5 -93.5v-72h224v53z" />
    <glyph glyph-name="f_f_l" unicode="ffl" horiz-adv-x="852" 
d="M328 0v31l78 20v347h-224v-346l84 -20v-32h-237v31l78 20v347h-81v34l81 19v60q0 75 66 136t169 61q80 0 146 -44q57 41 133 41q33 0 67 -7l20 5h52v-650l82 -21v-32h-237v31l79 20v572l-117 33q-86 -45 -86 -134v-72h99v-52h-99v-346l74 -20v-32h-227zM182 522v-72h224
v62q0 54 31 100q-89 48 -138 53q-50 -11 -83.5 -49.5t-33.5 -93.5z" />
    <glyph glyph-name="uni0045030A" unicode="E&#x2da;" horiz-adv-x="529" 
d="M438 269l-222 4v-225h198l49 96l38 -6l-16 -138h-453v34l98 20v474l-98 20v35h451v-133h-46l-29 86h-192v-216l222 5v-56zM306 621q-34 0 -59.5 20.5t-25.5 57.5t25 57t60 20t61 -20t26 -57q0 -35 -26.5 -56.5t-60.5 -21.5zM306 653q20 0 33 13t13 33t-13 32.5t-33 12.5
q-21 0 -33 -12.5t-12 -32.5t12.5 -33t32.5 -13z" />
    <glyph glyph-name="uni00460304" unicode="F&#xaf;" horiz-adv-x="481" 
d="M425 651h-245v52h245v-52zM32 0v34l98 20v474l-98 20v35h450v-133h-45l-30 86h-191v-225l222 6v-57l-222 4v-210l100 -19v-35h-284z" />
    <glyph glyph-name="uni004A0301" unicode="J&#xb4;" horiz-adv-x="419" 
d="M143 -8q-74 0 -135 21v162h41l23 -119l5 -2q5 -1 12.5 -3t16 -4t18 -3.5t15.5 -1.5q37 0 61 30t24 77v379l-98 20v35h284v-34l-100 -21v-376q0 -70 -51 -115t-116 -45zM351 757l29 -65l-195 -68l-16 32z" />
    <glyph glyph-name="uni004E0304" unicode="N&#xaf;" horiz-adv-x="676" 
d="M471 651h-245v52h245v-52zM34 0v34l78 21v466l-80 26v36h176l303 -426h4v370l-87 21v35h224v-34l-77 -21v-536h-61l-340 479h-3v-415l88 -21v-35h-225z" />
    <glyph glyph-name="uni00500304" unicode="P&#xaf;" horiz-adv-x="519" 
d="M32 0v34l98 20v474l-98 20v35h284q92 0 145 -44.5t53 -133.5q0 -80 -61.5 -127.5t-178.5 -47.5h-58v-176l99 -19v-35h-283zM284 534h-68v-257h53q158 5 158 125q0 58 -38 94.5t-105 37.5zM408 651h-245v52h245v-52z" />
    <glyph glyph-name="uni00520300" unicode="R`" 
d="M134 692l28 65l183 -101l-16 -32zM457 0l-158 264q-11 -1 -34 -1h-49v-209l99 -19v-35h-283v34l98 20v474l-98 20v35h276q90 0 143.5 -41t53.5 -120q0 -109 -115 -144l137 -218l73 -28v-32h-143zM276 534h-60v-224h44q158 5 158 108q0 114 -142 116z" />
    <glyph glyph-name="uni00530306" unicode="S&#x2d8;" horiz-adv-x="457" 
d="M234 620q-98 0 -117 95l42 11q16 -59 78 -59q37 0 58.5 16t23.5 42l39 -12q-6 -48 -40 -70.5t-84 -22.5zM368 416l-27 102q-48 27 -105 27q-54 0 -84 -26.5t-30 -68.5q0 -20 8 -35t28.5 -28t37 -20.5t49.5 -21.5q28 -11 37.5 -15.5t34.5 -16.5t36 -20t28.5 -23.5t25 -30
t14 -35t6.5 -44.5q0 -83 -66 -125.5t-158 -42.5q-89 0 -171 34v145h35l28 -99q58 -34 132 -34q52 0 83.5 28.5t31.5 80.5q0 21 -8.5 37t-31 29.5t-37.5 20.5t-50 20q-4 2 -6 2.5t-5.5 2t-6.5 2.5q-70 27 -110.5 62t-40.5 99q0 75 56 122.5t134 47.5q98 0 166 -35v-141h-34z
" />
    <glyph glyph-name="uni00560304" unicode="V&#xaf;" horiz-adv-x="605" 
d="M434 651h-245v52h245v-52zM261 -8l-200 540l-61 16v35h244v-34l-81 -20l144 -425h4l160 427l-75 17v35h210v-34l-70 -19l-223 -538h-52z" />
    <glyph glyph-name="uni00580304" unicode="X&#xaf;" horiz-adv-x="585" 
d="M337 0v35l53 16l-116 190l-122 -183l87 -22v-36h-223v35l59 15l174 232l-151 247l-70 18v36h240v-35l-65 -20l105 -168l115 168l-69 19v36h213v-35l-80 -22l-154 -206l166 -265l71 -19v-36h-233zM428 651h-245v52h245v-52z" />
    <glyph glyph-name="uni0065030A" unicode="e&#x2da;" horiz-adv-x="445" 
d="M244 679q36 0 62 -20t26 -57q0 -36 -26.5 -57t-61.5 -21q-34 0 -59.5 20.5t-25.5 57.5t25.5 57t59.5 20zM244 647q-20 0 -32.5 -12.5t-12.5 -32.5t12.5 -33t32.5 -13t33 13t13 33t-13 32.5t-33 12.5zM113 228q0 -87 45 -132.5t117 -45.5q55 0 123 34l11 -20
q-20 -27 -66.5 -49.5t-97.5 -22.5q-103 0 -156.5 59t-53.5 166q0 104 57.5 173t148.5 69q167 0 172 -218h-300v-13zM224 418q-40 0 -69 -32t-38 -98h208q-11 130 -101 130z" />
    <glyph glyph-name="uni00660304" unicode="f&#xaf;" horiz-adv-x="309" 
d="M372 751h-246v55h246v-55zM29 0v31l78 20v347h-81v34l81 19v84q0 72 59 121.5t134 49.5q26 0 46 -5l-14 -76h-22l-89 22q-39 -40 -39 -112v-85h98v-52h-98v-345l84 -21v-32h-237z" />
    <glyph glyph-name="uni006A0301" unicode="j&#xb4;" horiz-adv-x="272" 
d="M187 -1q0 -125 -96 -213l-37 24q58 63 58 194v387h-85v32l128 36h32v-460zM221 694l47 -55l-169 -119l-25 26z" />
    <glyph glyph-name="uni006E0304" unicode="n&#xaf;" horiz-adv-x="579" 
d="M415 567h-246v55h246v-55zM32 0v31l80 21v339h-85v32l114 36h27l19 -66q80 66 166 66q66 0 99.5 -43t33.5 -119v-245l80 -20v-32h-236v31l80 21v240q0 53 -24 78.5t-75 25.5q-64 0 -124 -39v-305l81 -20v-32h-236z" />
    <glyph glyph-name="uni007000AF" unicode="p&#xaf;" horiz-adv-x="523" 
d="M29 -207v31l79 22v545h-84v32l113 36h28l13 -48q73 48 136 48q176 0 176 -223q0 -106 -68 -175t-166 -69q-40 0 -73 11v-156l82 -22v-32h-236zM287 400q-59 0 -104 -25v-308q39 -25 95 -25q35 0 61 16t39.5 43t19.5 56t6 61q0 89 -30 135.5t-87 46.5zM407 567h-246v55
h246v-55z" />
    <glyph glyph-name="uni00720300" unicode="r`" horiz-adv-x="368" 
d="M33 0v31l79 21v339h-85v32l114 36h27l14 -49q65 49 141 49q26 0 46 -5l-22 -83h-20l-78 22h-62v-341l82 -20v-32h-236zM42 639l47 55l147 -148l-25 -26z" />
    <glyph glyph-name="uni00730306" unicode="s&#x2d8;" horiz-adv-x="399" 
d="M187 -8q-75 0 -146 30v123h37l25 -79q43 -27 98 -27q40 0 66.5 17t26.5 49q0 34 -25.5 53t-62 27.5t-73 19.5t-62 40.5t-25.5 78.5q0 63 49 99t119 36q74 0 131 -29v-112h-35l-21 68q-48 28 -96 28q-38 0 -62 -17.5t-24 -50.5q0 -35 26 -53.5t63.5 -26t75 -17.5
t63.5 -38.5t26 -77.5q0 -71 -50.5 -106t-123.5 -35zM200 528q-49 0 -79 29.5t-39 74.5l43 12q8 -29 27.5 -49t49.5 -20q37 0 59 20.5t24 47.5l40 -11q-7 -49 -41.5 -76.5t-83.5 -27.5z" />
    <glyph glyph-name="uni00760304" unicode="v&#xaf;" horiz-adv-x="489" 
d="M372 567h-246v55h246v-55zM497 450v-30l-70 -20l-162 -408h-58l-154 411l-57 16v31h214v-30l-65 -20l99 -313h7l117 313l-66 19v31h195z" />
    <glyph glyph-name="uni00780304" unicode="x&#xaf;" horiz-adv-x="523" 
d="M510 0h-213v31l47 14l-98 142l-111 -134l74 -21v-32h-195v31l48 13l159 178l-137 180l-60 17v31h214v-30l-60 -19l91 -128l110 127l-66 19v31h195v-30l-75 -21l-139 -160l146 -188l70 -19v-32zM390 567h-246v55h246v-55z" />
    <glyph glyph-name="f_h" unicode="fh" horiz-adv-x="885" 
d="M319 0v31l80 21v567l-131 37q-86 -45 -86 -134v-72h99v-52h-99v-346l74 -20v-32h-227v31l78 20v347h-81v34l81 19v61q0 80 59.5 136.5t156.5 56.5q34 0 73 -9l26 7h53v-309q82 66 172 66q65 0 95.5 -45t30.5 -118v-245l80 -20v-32h-236v31l81 21v240q0 104 -99 104
q-63 0 -124 -38v-306l80 -20v-32h-236z" />
    <glyph glyph-name="f_b" unicode="fb" horiz-adv-x="806" 
d="M394 35v585l-126 36q-86 -45 -86 -134v-72h99v-52h-99v-346l74 -20v-32h-227v31l78 20v347h-81v34l81 19v61q0 80 59.5 136.5t156.5 56.5q31 0 71 -8l24 6h52v-288q71 45 134 45q171 0 171 -224q0 -106 -68.5 -175.5t-165.5 -69.5q-88 0 -147 44zM470 74q52 -29 93 -29
q67 0 97 52t30 122q0 81 -31.5 131t-87.5 50q-55 0 -101 -24v-302z" />
    <glyph glyph-name="f_j" unicode="fj" horiz-adv-x="529" 
d="M28 0v31l78 20v347h-81v34l81 19v52q0 77 57.5 141t148.5 64q71 0 109 -21l-15 -76h-21l-121 50q-83 -43 -83 -135v-76h186l68 10h32v-461q0 -128 -100 -220l-37 25q28 31 45 85.5t17 114.5v394h-211v-346l74 -20v-32h-227z" />
    <glyph glyph-name="f_k" unicode="fk" horiz-adv-x="813" 
d="M322 0v31l80 21v566l-134 38q-86 -45 -86 -134v-72h99v-52h-99v-346l74 -20v-32h-227v31l78 20v347h-81v34l81 19v61q0 80 59.5 136.5t156.5 56.5q35 0 75 -9l27 7h53v-651l80 -20v-32h-236zM506 235v16l139 142l-70 27v30h195v-31l-56 -27l-136 -127l142 -203l79 -31
v-31h-138z" />
    <glyph glyph-name="f_igrave" unicode="f&#xec;" horiz-adv-x="571" 
d="M297 625l-13 -1l-64 22q-38 -41 -38 -111v-85h188l68 10h32v-408l82 -20v-32h-227v31l70 20v347h-213v-346l84 -20v-32h-237v31l78 20v347h-81v34l81 19v84q0 72 54 121t117 49q9 0 45 -6zM326 643l49 52l125 -142l-25 -27z" />
    <glyph glyph-name="f_idieresis" unicode="f&#xef;" horiz-adv-x="571" 
d="M297 625l-13 -1l-64 22q-38 -41 -38 -111v-85h188l68 10h32v-408l82 -20v-32h-227v31l70 20v347h-213v-346l84 -20v-32h-237v31l78 20v347h-81v34l81 19v84q0 72 54 121t117 49q9 0 45 -6zM315 616q0 21 13.5 35t35.5 14q20 0 34.5 -14t14.5 -35q0 -20 -14.5 -34.5
t-34.5 -14.5q-21 0 -35 14t-14 35zM483 616q0 21 14 35t35 14q20 0 34 -14t14 -35q0 -20 -14 -34.5t-34 -14.5q-21 0 -35 14.5t-14 34.5z" />
    <glyph glyph-name="uni00480331" unicode="H&#x331;" horiz-adv-x="718" 
d="M404 0v34l97 20v220h-285v-220l99 -19v-35h-283v34l98 20v474l-98 20v35h283v-34l-99 -21v-208h285v208l-97 20v35h282v-34l-99 -20v-475l99 -19v-35h-282zM481 -144h-246v54h246v-54z" />
    <glyph glyph-name="uni004D0310" unicode="M&#x310;" horiz-adv-x="839" 
d="M413 620q-45 0 -74 26.5t-39 66.5l30 9q25 -54 85 -54q32 0 57 15t36 40l25 -12q-10 -42 -44 -66.5t-76 -24.5zM377 742q0 17 11.5 28.5t28.5 11.5t29 -11.5t12 -28.5t-12 -28.5t-29 -11.5t-28.5 11.5t-11.5 28.5zM559 0v34l85 19l-36 415h-4l-179 -476h-51l-175 483h-4
l-36 -419l86 -21v-35h-237v34l89 19l47 474l-87 21v35h196l161 -467h5l166 467h191v-34l-89 -23l48 -473l90 -18v-35h-266z" />
    <glyph glyph-name="uni006D0310" unicode="m&#x310;" horiz-adv-x="852" 
d="M429 523q-49 0 -79 30.5t-39 75.5l35 9q7 -27 30.5 -47t54.5 -20q37 0 62 19.5t34 45.5l27 -8q-7 -47 -42 -76t-83 -29zM389 664q0 20 12.5 32.5t31.5 12.5t32 -13t13 -32q0 -18 -13 -30.5t-32 -12.5t-31.5 12.5t-12.5 30.5zM604 0v31l79 21v240q0 104 -99 104
q-59 0 -113 -36q7 -33 7 -63v-245l81 -20v-32h-236v31l80 21v240q0 104 -99 104q-58 0 -117 -38v-306l81 -20v-32h-236v31l80 21v339h-85v32l114 36h27l18 -65q81 65 165 65q81 0 110 -70q84 70 172 70q65 0 95.5 -44.5t30.5 -117.5v-245l81 -20v-32h-236z" />
    <glyph glyph-name="uni00520325" unicode="R&#x325;" 
d="M457 0l-158 264q-11 -1 -34 -1h-49v-209l99 -19v-35h-283v34l98 20v474l-98 20v35h276q90 0 143.5 -41t53.5 -120q0 -109 -115 -144l137 -218l73 -28v-32h-143zM276 534h-60v-224h44q158 5 158 108q0 114 -142 116zM323 -52q35 0 61.5 -20t26.5 -57q0 -35 -27 -56.5
t-61 -21.5t-59.5 20.5t-25.5 57.5t25 57t60 20zM323 -84q-20 0 -32.5 -12.5t-12.5 -32.5t12.5 -33t32.5 -13t33 13t13 33t-13 32.5t-33 12.5z" />
    <glyph glyph-name="uni00720325" unicode="r&#x325;" horiz-adv-x="368" 
d="M33 0v31l79 21v339h-85v32l114 36h27l14 -49q65 49 141 49q26 0 46 -5l-22 -83h-20l-78 22h-62v-341l82 -20v-32h-236zM148 -52q35 0 61.5 -20t26.5 -57q0 -35 -27 -56.5t-61 -21.5t-59.5 20.5t-25.5 57.5t25 57t60 20zM148 -84q-20 0 -32.5 -12.5t-12.5 -32.5t12.5 -33
t32.5 -13t33 13t13 33t-13 32.5t-33 12.5z" />
    <glyph glyph-name="uni005203250304" unicode="R&#x325;&#xaf;" 
d="M420 651h-245v52h245v-52zM457 0l-158 264q-11 -1 -34 -1h-49v-209l99 -19v-35h-283v34l98 20v474l-98 20v35h276q90 0 143.5 -41t53.5 -120q0 -109 -115 -144l137 -218l73 -28v-32h-143zM276 534h-60v-224h44q158 5 158 108q0 114 -142 116zM323 -52q35 0 61.5 -20
t26.5 -57q0 -35 -27 -56.5t-61 -21.5t-59.5 20.5t-25.5 57.5t25 57t60 20zM323 -84q-20 0 -32.5 -12.5t-12.5 -32.5t12.5 -33t32.5 -13t33 13t13 33t-13 32.5t-33 12.5z" />
    <glyph glyph-name="uni007203250304" unicode="r&#x325;&#xaf;" horiz-adv-x="368" 
d="M33 0v31l79 21v339h-85v32l114 36h27l14 -49q65 49 141 49q26 0 46 -5l-22 -83h-20l-78 22h-62v-341l82 -20v-32h-236zM337 566h-246v55h246v-55zM148 -52q35 0 61.5 -20t26.5 -57q0 -35 -27 -56.5t-61 -21.5t-59.5 20.5t-25.5 57.5t25 57t60 20zM148 -84
q-20 0 -32.5 -12.5t-12.5 -32.5t12.5 -33t32.5 -13t33 13t13 33t-13 32.5t-33 12.5z" />
    <glyph glyph-name="uni00530331" unicode="S&#x331;" horiz-adv-x="457" 
d="M368 416l-27 102q-48 27 -105 27q-54 0 -84 -26.5t-30 -68.5q0 -20 8 -35t28.5 -28t37 -20.5t49.5 -21.5q28 -11 37.5 -15.5t34.5 -16.5t36 -20t28.5 -23.5t25 -30t14 -35t6.5 -44.5q0 -83 -66 -125.5t-158 -42.5q-89 0 -171 34v145h35l28 -99q58 -34 132 -34
q52 0 83.5 28.5t31.5 80.5q0 21 -8.5 37t-31 29.5t-37.5 20.5t-50 20q-4 2 -6 2.5t-5.5 2t-6.5 2.5q-70 27 -110.5 62t-40.5 99q0 75 56 122.5t134 47.5q98 0 166 -35v-141h-34zM349 -144h-246v54h246v-54z" />
    <glyph glyph-name="uni00730331" unicode="s&#x331;" horiz-adv-x="399" 
d="M187 -8q-75 0 -146 30v123h37l25 -79q43 -27 98 -27q40 0 66.5 17t26.5 49q0 34 -25.5 53t-62 27.5t-73 19.5t-62 40.5t-25.5 78.5q0 63 49 99t119 36q74 0 131 -29v-112h-35l-21 68q-48 28 -96 28q-38 0 -62 -17.5t-24 -50.5q0 -35 26 -53.5t63.5 -26t75 -17.5
t63.5 -38.5t26 -77.5q0 -71 -50.5 -106t-123.5 -35zM320 -144h-246v54h246v-54z" />
    <glyph glyph-name="uni00530300" unicode="S`" horiz-adv-x="457" 
d="M97 692l28 65l183 -101l-16 -32zM368 416l-27 102q-48 27 -105 27q-54 0 -84 -26.5t-30 -68.5q0 -20 8 -35t28.5 -28t37 -20.5t49.5 -21.5q28 -11 37.5 -15.5t34.5 -16.5t36 -20t28.5 -23.5t25 -30t14 -35t6.5 -44.5q0 -83 -66 -125.5t-158 -42.5q-89 0 -171 34v145h35
l28 -99q58 -34 132 -34q52 0 83.5 28.5t31.5 80.5q0 21 -8.5 37t-31 29.5t-37.5 20.5t-50 20q-4 2 -6 2.5t-5.5 2t-6.5 2.5q-70 27 -110.5 62t-40.5 99q0 75 56 122.5t134 47.5q98 0 166 -35v-141h-34z" />
    <glyph glyph-name="uni00730300" unicode="s`" horiz-adv-x="399" 
d="M187 -8q-75 0 -146 30v123h37l25 -79q43 -27 98 -27q40 0 66.5 17t26.5 49q0 34 -25.5 53t-62 27.5t-73 19.5t-62 40.5t-25.5 78.5q0 63 49 99t119 36q74 0 131 -29v-112h-35l-21 68q-48 28 -96 28q-38 0 -62 -17.5t-24 -50.5q0 -35 26 -53.5t63.5 -26t75 -17.5
t63.5 -38.5t26 -77.5q0 -71 -50.5 -106t-123.5 -35zM62 640l47 55l147 -148l-25 -26z" />
    <glyph glyph-name="uni00540308" unicode="T&#xa8;" horiz-adv-x="525" 
d="M126 678q0 22 13.5 36t34.5 14t35.5 -14t14.5 -36q0 -20 -14.5 -34t-35.5 -14t-34.5 14t-13.5 34zM304 678q0 22 14 36t35 14t35 -14t14 -36q0 -20 -14 -34t-35 -14t-35 14t-14 34zM122 0v34l98 20v481h-128l-48 -119h-31v167h503v-167h-31l-55 119h-124v-481l100 -19
v-35h-284z" />
    <glyph glyph-name="uni005A0324" unicode="Z&#x324;" horiz-adv-x="487" 
d="M25 0l-9 31l319 504h-238l-37 -119h-28v167h418l7 -22l-334 -512h257l53 112l29 -5l-14 -156h-423zM107 -104q0 21 13.5 35t35.5 14q20 0 34.5 -14t14.5 -35q0 -20 -14.5 -34.5t-34.5 -14.5q-21 0 -35 14t-14 35zM285 -104q0 21 14 35t35 14q20 0 34 -14t14 -35
q0 -20 -14 -34.5t-34 -14.5q-21 0 -35 14.5t-14 34.5z" />
    <glyph glyph-name="uni007A0324" unicode="z&#x324;" horiz-adv-x="418" 
d="M395 145l-22 -145h-347l-10 30l255 377h-154l-69 -76l-23 4l13 115h331l11 -19l-259 -388h174l73 109zM65 -104q0 21 13.5 35t35.5 14q20 0 34.5 -14t14.5 -35q0 -20 -14.5 -34.5t-34.5 -14.5q-21 0 -35 14t-14 35zM243 -104q0 21 14 35t35 14q20 0 34 -14t14 -35
q0 -20 -14 -34.5t-34 -14.5q-21 0 -35 14.5t-14 34.5z" />
    <glyph glyph-name="lambda_lambda" unicode="&#x3bb;&#x3bb;" horiz-adv-x="882" 
d="M12 685q56 21 106 21q46 0 80.5 -31t49.5 -80l143 -496q13 -40 34 -46q34 26 117 235q6 14 9 22l58 144l-33 114q-14 47 -23.5 60.5t-32.5 13.5q-22 0 -88 -31l-19 74q54 21 106 21q45 0 78 -31t47 -80l148 -512q11 -33 33 -33q25 0 43 6l6 -32q-47 -32 -90 -32
q-41 0 -53 30l-104 365l-31 -101q-54 -165 -92.5 -229.5t-92.5 -64.5q-67 0 -95 97l-85 298l-124 -387h-79v19l185 435l-37 114q-14 47 -23.5 60.5t-33.5 13.5q-22 0 -88 -31z" />
    <glyph glyph-name="gamma_gamma" unicode="&#x3b3;&#x3b3;" horiz-adv-x="871" 
d="M271 -203q-22 -10 -48 -10q-22 0 -40 3q5 40 11.5 102t8.5 82q-57 263 -107 366q-13 25 -19.5 35.5t-17 19.5t-24.5 9q-11 0 -31 -6l-12 29q44 31 97 32q28 0 41 -10t26 -43q53 -118 90 -321h6q22 60 79 188q51 110 87.5 148t73.5 38q39 0 66 -48.5t55 -138.5
q26 -85 48 -189h6l145 376q53 0 78 -17q-12 -27 -101 -215t-113 -246q0 -4 5 -76.5t6 -107.5q-22 -10 -48 -10q-22 0 -40 3q5 40 11.5 102t8.5 82q-43 180 -70 264q-36 110 -73 151q-45 -43 -104 -162q-38 -74 -112 -246q0 -4 5 -76.5t6 -107.5z" />
    <glyph glyph-name=".notdef" horiz-adv-x="712" 
d="M305 375v27h27v-27h-27zM380 525v27h27v-27h-27zM305 525v27h27v-27h-27zM230 525v27h27v-27h-27zM80 0v27h27v-27h-27zM155 0v27h27v-27h-27zM230 0v27h27v-27h-27zM305 0v27h27v-27h-27zM380 0v27h27v-27h-27zM80 75v27h27v-27h-27zM80 150v27h27v-27h-27zM80 225v27
h27v-27h-27zM80 300v27h27v-27h-27zM80 375v27h27v-27h-27zM80 450v27h27v-27h-27zM80 525v27h27v-27h-27zM80 600v27h27v-27h-27zM80 675v27h27v-27h-27zM155 675v27h27v-27h-27zM230 675v27h27v-27h-27zM305 675v27h27v-27h-27zM380 675v27h27v-27h-27zM455 675v27h27v-27
h-27zM530 675v27h27v-27h-27zM530 0v27h27v-27h-27zM455 0v27h27v-27h-27zM605 0v27h27v-27h-27zM605 675v27h27v-27h-27zM305 300v27h27v-27h-27zM305 150v27h27v-27h-27zM380 375v27h27v-27h-27zM455 375v27h27v-27h-27zM455 450v27h27v-27h-27zM455 525v27h27v-27h-27z
M605 600v27h27v-27h-27zM605 525v27h27v-27h-27zM605 375v27h27v-27h-27zM605 300v27h27v-27h-27zM605 150v27h27v-27h-27zM605 75v27h27v-27h-27zM605 225v27h27v-27h-27zM605 450v27h27v-27h-27z" />
    <glyph glyph-name=".null" horiz-adv-x="0" 
 />
    <glyph glyph-name="nonmarkingreturn" horiz-adv-x="333" 
 />
    <glyph glyph-name="space" unicode=" " horiz-adv-x="206" 
 />
    <glyph glyph-name="exclam" unicode="!" horiz-adv-x="271" 
d="M186 582l-23 -405h-54l-23 405h100zM70 55q0 26 19 45.5t45 19.5t45 -19.5t19 -45.5t-19 -44.5t-45 -18.5t-45 18.5t-19 44.5z" />
    <glyph glyph-name="quotedbl" unicode="&#x22;" horiz-adv-x="360" 
d="M65 422v200h81l-20 -200h-61zM222 422v200h84l-22 -200h-62z" />
    <glyph glyph-name="numbersign" unicode="#" horiz-adv-x="621" 
d="M82 385v47h133l34 151h56l-33 -151h131l34 151h56l-33 -151h117v-47h-128l-37 -171h125v-47h-136l-36 -167h-58l37 167h-131l-36 -167h-58l37 167h-114v47h124l38 171h-122zM261 385l-37 -171h130l38 171h-131z" />
    <glyph glyph-name="dollar" unicode="$" horiz-adv-x="491" 
d="M383 378l-26 100q-40 23 -90 26v-185q39 -13 63.5 -23.5t53.5 -30t43 -48.5t14 -67q0 -66 -49.5 -105.5t-124.5 -49.5v-82h-40v78h-9q-89 0 -169 34v143h33l28 -98q54 -30 117 -33v199q-40 13 -62 22.5t-51 27.5t-42.5 44.5t-13.5 61.5q0 68 48.5 110t120.5 49v71h40v-70
q85 -3 149 -35v-139h-33zM357 139q0 30 -23.5 49t-66.5 35v-184q40 7 65 34t25 66zM133 418q0 -31 24 -50.5t70 -34.5v170q-44 -5 -69 -27t-25 -58z" />
    <glyph glyph-name="percent" unicode="%" horiz-adv-x="700" 
d="M39 403q0 70 35.5 113t90.5 43q56 0 90.5 -39.5t34.5 -113.5q0 -69 -35 -110t-90 -41q-57 0 -91.5 38.5t-34.5 109.5zM229 401q0 66 -16.5 92t-50.5 26q-32 0 -46.5 -25t-14.5 -89q0 -113 68 -113q60 0 60 109zM408 140q0 70 35.5 113t90.5 43q56 0 90.5 -39.5
t34.5 -113.5q0 -69 -35 -110t-90 -41q-57 0 -91.5 38.5t-34.5 109.5zM597 138q0 67 -16.5 93t-50.5 26q-32 0 -46 -25t-14 -90q0 -113 67 -113q30 0 45 25t15 84zM231 0h-58l286 548h57z" />
    <glyph glyph-name="ampersand" unicode="&#x26;" horiz-adv-x="669" 
d="M661 21v-21h-112q-48 25 -127 78q-94 -86 -214 -86q-83 0 -128.5 47t-45.5 110q0 112 113 160q-61 71 -61 123q0 64 46.5 112t128.5 48q77 0 117.5 -36.5t40.5 -90.5q0 -45 -45 -87.5t-120 -63.5q17 -16 62 -55q57 -50 122 -96q49 57 93 138l-64 26v28h193v-31l-71 -22
q-58 -99 -113 -166q109 -75 185 -115zM252 208q-44 36 -90 84q-49 -52 -49 -116q0 -47 34 -86.5t93 -39.5q70 0 141 57q-69 47 -129 101zM162 459q0 -55 75 -128q102 60 102 131q0 44 -22 69.5t-62 25.5q-44 0 -68.5 -27.5t-24.5 -70.5z" />
    <glyph glyph-name="quotesingle" unicode="'" horiz-adv-x="204" 
d="M65 422v200h82l-22 -200h-60z" />
    <glyph glyph-name="parenleft" unicode="(" horiz-adv-x="291" 
d="M227 -185q-22 19 -47.5 49t-65 87.5t-65 139t-25.5 168.5q0 71 18.5 139t43.5 113.5t56.5 85.5t51 58t33.5 28l33 -33q-18 -14 -43 -42.5t-59 -78t-57 -121.5t-23 -148q0 -77 23 -152t58 -128.5t59 -83.5t42 -47z" />
    <glyph glyph-name="parenright" unicode=")" horiz-adv-x="291" 
d="M64 -184l-34 34q19 17 42.5 46.5t58.5 83.5t58 129t23 152q0 76 -23 148t-57 121.5t-59 78t-43 42.5l33 33q14 -10 33.5 -28t51 -58t56.5 -85.5t43.5 -113.5t18.5 -139t-18.5 -140t-43 -116.5t-56 -91.5t-50.5 -63.5t-34 -32.5z" />
    <glyph glyph-name="asterisk" unicode="*" horiz-adv-x="380" 
d="M331 435l-6 -30l-24 -23l-100 78l17 -124l-29 -10l-29 10l16 125l-99 -79l-21 21l-8 31l116 46l-116 49l6 30l24 21l100 -80l-17 128l28 7l30 -7l-18 -127l101 79l24 -20l5 -31l-121 -48z" />
    <glyph glyph-name="plus" unicode="+" horiz-adv-x="495" 
d="M446 268l-170 2l2 -190h-62l2 190l-170 -2v56l170 -1l-2 190h62l-2 -190l170 1v-56z" />
    <glyph glyph-name="comma" unicode="," horiz-adv-x="263" 
d="M206 37q0 -62 -40.5 -120t-105.5 -96l-22 22q32 27 55.5 64t23.5 66q0 38 -46 64q0 25 20.5 46t46.5 21q29 0 48.5 -19.5t19.5 -47.5z" />
    <glyph glyph-name="hyphen" unicode="-" horiz-adv-x="332" 
d="M282 209h-232v58h232v-58z" />
    <glyph glyph-name="period" unicode="." horiz-adv-x="250" 
d="M60 55q0 26 19 45.5t45 19.5t45 -19.5t19 -45.5t-19 -44.5t-45 -18.5t-45 18.5t-19 44.5z" />
    <glyph glyph-name="slash" unicode="/" horiz-adv-x="303" 
d="M288 673l-216 -764h-59l217 764h58z" />
    <glyph glyph-name="zero" unicode="0" horiz-adv-x="487" 
d="M455 281q0 -126 -57.5 -207.5t-158.5 -81.5q-105 0 -154 72t-49 199q0 120 58 207.5t159 87.5q57 0 97.5 -23t62.5 -63.5t32 -87.5t10 -103zM366 276q0 40 -7 80t-21 78t-40 62t-59 24t-57.5 -24t-37 -63.5t-18.5 -81t-6 -84.5q0 -96 33.5 -165.5t97.5 -69.5
q115 0 115 244z" />
    <glyph glyph-name="one" unicode="1" horiz-adv-x="395" 
d="M45 0v34l122 22v417h-136v33l189 52h28v-502l121 -21v-35h-324z" />
    <glyph glyph-name="two" unicode="2" horiz-adv-x="428" 
d="M410 132l-8 -132h-377l-9 54q55 47 83 72t71.5 68t65.5 73t39 66.5t17 67.5q0 50 -31.5 79.5t-76.5 29.5q-78 0 -122 -78h-28v75q63 51 158 51q79 0 132.5 -41t53.5 -120q0 -45 -24.5 -91t-70 -89.5t-90.5 -78t-104 -73.5l1 -5h252l46 77z" />
    <glyph glyph-name="three" unicode="3" horiz-adv-x="414" 
d="M34 115h29q15 -39 49.5 -60.5t75.5 -21.5q48 0 81.5 28t33.5 79q0 52 -47 79t-129 29v48q55 4 102 41t47 90q0 36 -29 59.5t-69 23.5q-74 0 -109 -76h-30v73q63 51 149 51q70 0 119 -34.5t49 -91.5q0 -38 -25 -69t-49 -44t-44 -19v-4q56 -5 100.5 -40t44.5 -91t-34.5 -97
t-82 -58.5t-100.5 -17.5q-76 0 -132 26v97z" />
    <glyph glyph-name="four" unicode="4" horiz-adv-x="439" 
d="M411 146h-81v-146h-80v146h-225l-15 67l258 345h62v-347h87zM62 211h188v255z" />
    <glyph glyph-name="five" unicode="5" horiz-adv-x="413" 
d="M32 99h32q43 -65 115 -65q50 0 85 32.5t35 89.5q0 121 -175 121q-28 0 -70 -5l24 276h293l-10 -75h-247l-8 -131q28 2 42 2q108 0 170.5 -42.5t62.5 -129.5q0 -56 -36.5 -98.5t-85 -62t-97.5 -19.5q-57 0 -130 25v82z" />
    <glyph glyph-name="six" unicode="6" horiz-adv-x="460" 
d="M230 -8q-95 0 -144 67.5t-49 175.5q0 146 66 234.5t183 88.5q53 0 109 -19v-75l-26 1q-29 27 -51 37t-51 10q-59 0 -96 -57t-49 -148q64 44 139 44q72 0 120.5 -43.5t48.5 -116.5q0 -83 -54 -141t-146 -58zM228 293q-58 0 -109 -23q-1 -12 -1 -38q0 -84 30 -138.5
t88 -54.5q52 0 81 33.5t29 94.5q0 56 -32 91t-86 35z" />
    <glyph glyph-name="seven" unicode="7" horiz-adv-x="372" 
d="M52 0v17l257 456h-299l11 75h353l10 -29l-252 -519h-80z" />
    <glyph glyph-name="eight" unicode="8" horiz-adv-x="487" 
d="M236 -8q-90 0 -138.5 36.5t-48.5 106.5q0 45 30 82.5t80 59.5q-88 56 -88 133q0 61 48 104.5t121 43.5q81 0 133.5 -36.5t52.5 -99.5q0 -84 -102 -134q55 -28 85.5 -59.5t30.5 -79.5q0 -67 -60 -112t-144 -45zM352 130q0 21 -18 40.5t-38.5 31.5t-59.5 32t-59 32
q-43 -51 -43 -127q0 -50 33 -79t79 -29q43 0 74.5 25.5t31.5 73.5zM150 430q0 -11 2.5 -20.5t8.5 -18.5t11 -16t16.5 -15t18 -12.5t22.5 -13t22 -11.5t25 -12t24 -11q40 52 40 120q0 40 -24.5 69t-74.5 29q-39 0 -65 -24.5t-26 -63.5z" />
    <glyph glyph-name="nine" unicode="9" horiz-adv-x="460" 
d="M233 558q95 0 144 -67.5t49 -175.5q0 -146 -66 -234.5t-183 -88.5q-53 0 -109 19v75l26 -1q29 -27 51 -37t51 -10q59 0 96 57t49 148q-64 -44 -139 -44q-72 0 -120.5 43.5t-48.5 116.5q0 83 54 141t146 58zM235 257q58 0 109 23q1 12 1 38q0 84 -30 138.5t-88 54.5
q-52 0 -81 -33.5t-29 -94.5q0 -56 32 -91t86 -35z" />
    <glyph glyph-name="colon" unicode=":" horiz-adv-x="264" 
d="M98 55q0 26 19 45.5t45 19.5t45 -19.5t19 -45.5t-19 -44.5t-45 -18.5t-45 18.5t-19 44.5zM98 394q0 26 19 45.5t45 19.5t45 -19.5t19 -45.5t-19 -44.5t-45 -18.5t-45 18.5t-19 44.5z" />
    <glyph glyph-name="semicolon" unicode=";" horiz-adv-x="264" 
d="M227 37q0 -62 -40.5 -120t-105.5 -96l-22 22q32 27 55.5 64t23.5 66q0 38 -46 64q0 25 20.5 46t46.5 21q29 0 48.5 -19.5t19.5 -47.5zM99 394q0 26 19 45.5t45 19.5t45 -19.5t19 -45.5t-19 -44.5t-45 -18.5t-45 18.5t-19 44.5z" />
    <glyph glyph-name="less" unicode="&#x3c;" horiz-adv-x="495" 
d="M130 295l315 -161l-25 -47l-372 190v37l372 191l25 -48z" />
    <glyph glyph-name="equal" unicode="=" horiz-adv-x="536" 
d="M465 361h-396v56h396v-56zM465 178h-396v56h396v-56z" />
    <glyph glyph-name="greater" unicode="&#x3e;" horiz-adv-x="495" 
d="M49 133l316 161l-316 162l26 48l371 -191v-37l-371 -190z" />
    <glyph glyph-name="question" unicode="?" horiz-adv-x="344" 
d="M324 452q0 -36 -16 -67t-41 -52t-47 -33.5t-44 -20.5l-6 -86h-62l-6 107q21 7 41.5 17.5t45.5 28.5t40.5 45t15.5 59q0 45 -21 72.5t-60 27.5t-74 -23l-19 -84h-36v117q66 32 134 32q70 0 112.5 -35.5t42.5 -104.5zM74 55q0 26 19 45.5t45 19.5t45 -19.5t19 -45.5
t-19 -44.5t-45 -18.5t-45 18.5t-19 44.5z" />
    <glyph glyph-name="at" unicode="@" horiz-adv-x="882" 
d="M468 5l27 153l-178 -166h-40q-13 46 -13 111q0 77 16 152.5t45 113.5q22 29 37 45t41 30t56 14q46 0 102 -28l24 29h31l-69 -395l10 -7q236 104 236 243q0 127 -91.5 211.5t-232.5 84.5q-154 0 -261 -108t-107 -268q0 -165 100 -267.5t271 -102.5q125 0 251 105h15
l-1 -45q-139 -107 -288 -107q-181 0 -297 107t-116 288q0 186 134 315t326 129q153 0 255.5 -93.5t102.5 -232.5q0 -57 -31 -110t-82.5 -93.5t-108 -70.5t-117.5 -51zM334 89l15 -5l156 135l26 151q-93 36 -132 27q-28 -39 -47.5 -114.5t-19.5 -150.5q0 -15 2 -43z" />
    <glyph glyph-name="A" unicode="A" horiz-adv-x="607" 
d="M372 0v31l68 18l-51 169h-191l-61 -165l80 -21v-32h-217v31l74 20l215 532h64l186 -534l69 -17v-32h-236zM301 494l-85 -229h159l-69 229h-5z" />
    <glyph glyph-name="B" unicode="B" horiz-adv-x="570" 
d="M32 548v35h252q101 0 158 -37t57 -107q0 -95 -92 -128v-2q21 -3 41 -10.5t42 -22.5t35.5 -43.5t13.5 -66.5q0 -76 -58.5 -121t-171.5 -45h-277v34l98 20v474zM262 278h-46v-230h75q71 0 115.5 27t44.5 88q0 66 -49 90.5t-140 24.5zM262 539h-46v-213h56q136 0 136 104
q0 109 -146 109z" />
    <glyph glyph-name="C" unicode="C" horiz-adv-x="568" 
d="M531 405h-43l-35 115q-44 26 -100 26q-97 0 -161.5 -64t-64.5 -185q0 -130 67.5 -194.5t175.5 -64.5q78 0 141 63h20v-71q-1 -1 -13.5 -6.5t-25 -10t-32 -10t-45.5 -8.5t-55 -3q-150 0 -239 74.5t-89 221.5q0 132 92 218t234 86q21 0 39.5 -1t34.5 -3.5t26.5 -4.5t24 -6
t18 -6t17 -7t13.5 -5v-154z" />
    <glyph glyph-name="D" unicode="D" horiz-adv-x="650" 
d="M32 0v34l98 20v474l-98 20v35h260q61 0 109 -6.5t94 -25t76.5 -49t49 -80t18.5 -116.5q0 -147 -95 -226.5t-247 -79.5h-265zM289 535h-73v-487h88q240 0 240 243q0 121 -67.5 182.5t-187.5 61.5z" />
    <glyph glyph-name="E" unicode="E" horiz-adv-x="529" 
d="M438 269l-222 4v-225h198l49 96l38 -6l-16 -138h-453v34l98 20v474l-98 20v35h451v-133h-46l-29 86h-192v-216l222 5v-56z" />
    <glyph glyph-name="F" unicode="F" horiz-adv-x="481" 
d="M32 0v34l98 20v474l-98 20v35h450v-133h-45l-30 86h-191v-225l222 6v-57l-222 4v-210l100 -19v-35h-284z" />
    <glyph glyph-name="G" unicode="G" horiz-adv-x="598" 
d="M488 405l-34 115q-44 26 -101 26q-97 0 -161.5 -64t-64.5 -185t68.5 -187.5t174.5 -66.5q41 0 77 14v182l-97 20v35h183v-264q-73 -38 -173 -38q-150 0 -239 74.5t-89 221.5q0 132 92 218t234 86q105 0 173 -33v-154h-43z" />
    <glyph glyph-name="H" unicode="H" horiz-adv-x="718" 
d="M404 0v34l97 20v220h-285v-220l99 -19v-35h-283v34l98 20v474l-98 20v35h283v-34l-99 -21v-208h285v208l-97 20v35h282v-34l-99 -20v-475l99 -19v-35h-282z" />
    <glyph glyph-name="I" unicode="I" horiz-adv-x="372" 
d="M45 0v34l98 20v474l-98 20v35h283v-34l-100 -21v-474l100 -19v-35h-283z" />
    <glyph glyph-name="J" unicode="J" horiz-adv-x="419" 
d="M143 -8q-74 0 -135 21v162h41l23 -119l5 -2q5 -1 12.5 -3t16 -4t18 -3.5t15.5 -1.5q37 0 61 30t24 77v379l-98 20v35h284v-34l-100 -21v-376q0 -70 -51 -115t-116 -45z" />
    <glyph glyph-name="K" unicode="K" horiz-adv-x="600" 
d="M32 0v34l98 20v474l-98 20v35h283v-34l-99 -21v-474l99 -19v-35h-283zM454 0l-221 293v17l209 218l-59 22v33h203v-35l-65 -21l-205 -204l213 -267l82 -20v-36h-157z" />
    <glyph glyph-name="L" unicode="L" horiz-adv-x="501" 
d="M32 0v34l98 20v474l-98 20v35h283v-34l-99 -21v-480h189l66 122l32 -7l-27 -163h-444z" />
    <glyph glyph-name="M" unicode="M" horiz-adv-x="839" 
d="M559 0v34l85 19l-36 415h-4l-179 -476h-51l-175 483h-4l-36 -419l86 -21v-35h-237v34l89 19l47 474l-87 21v35h196l161 -467h5l166 467h191v-34l-89 -23l48 -473l90 -18v-35h-266z" />
    <glyph glyph-name="N" unicode="N" horiz-adv-x="676" 
d="M34 0v34l78 21v466l-80 26v36h176l303 -426h4v370l-87 21v35h224v-34l-77 -21v-536h-61l-340 479h-3v-415l88 -21v-35h-225z" />
    <glyph glyph-name="O" unicode="O" horiz-adv-x="650" 
d="M618 314q0 -134 -82 -228t-218 -94q-129 0 -207.5 78t-78.5 205q0 139 84 228t218 89q130 0 207 -77t77 -201zM522 295q0 113 -52.5 183.5t-142.5 70.5q-92 0 -146 -69t-54 -184q0 -112 51.5 -186t142.5 -74q97 0 149 74t52 185z" />
    <glyph glyph-name="P" unicode="P" horiz-adv-x="519" 
d="M32 0v34l98 20v474l-98 20v35h284q92 0 145 -44.5t53 -133.5q0 -80 -61.5 -127.5t-178.5 -47.5h-58v-176l99 -19v-35h-283zM284 534h-68v-257h53q158 5 158 125q0 58 -38 94.5t-105 37.5z" />
    <glyph glyph-name="Q" unicode="Q" horiz-adv-x="650" 
d="M618 314q0 -97 -45.5 -177t-126.5 -118l189 -109v-18h-126l-121 108q-35 -8 -70 -8q-129 0 -207.5 78t-78.5 205q0 139 84 228t218 89q130 0 207 -77t77 -201zM522 295q0 113 -52.5 183.5t-142.5 70.5q-92 0 -146 -69t-54 -184q0 -112 51.5 -186t142.5 -74q97 0 149 74
t52 185z" />
    <glyph glyph-name="R" unicode="R" 
d="M457 0l-158 264q-11 -1 -34 -1h-49v-209l99 -19v-35h-283v34l98 20v474l-98 20v35h276q90 0 143.5 -41t53.5 -120q0 -109 -115 -144l137 -218l73 -28v-32h-143zM276 534h-60v-224h44q158 5 158 108q0 114 -142 116z" />
    <glyph glyph-name="S" unicode="S" horiz-adv-x="457" 
d="M368 416l-27 102q-48 27 -105 27q-54 0 -84 -26.5t-30 -68.5q0 -20 8 -35t28.5 -28t37 -20.5t49.5 -21.5q28 -11 37.5 -15.5t34.5 -16.5t36 -20t28.5 -23.5t25 -30t14 -35t6.5 -44.5q0 -83 -66 -125.5t-158 -42.5q-89 0 -171 34v145h35l28 -99q58 -34 132 -34
q52 0 83.5 28.5t31.5 80.5q0 21 -8.5 37t-31 29.5t-37.5 20.5t-50 20q-4 2 -6 2.5t-5.5 2t-6.5 2.5q-70 27 -110.5 62t-40.5 99q0 75 56 122.5t134 47.5q98 0 166 -35v-141h-34z" />
    <glyph glyph-name="T" unicode="T" horiz-adv-x="525" 
d="M122 0v34l98 20v481h-128l-48 -119h-31v167h503v-167h-31l-55 119h-124v-481l100 -19v-35h-284z" />
    <glyph glyph-name="U" unicode="U" horiz-adv-x="663" 
d="M345 -8q-46 0 -86.5 10.5t-76 33.5t-56.5 66.5t-21 103.5v323l-90 19v35h275v-34l-98 -20v-318q0 -83 46 -126.5t114 -43.5q74 0 116 47.5t42 142.5v296l-88 21v35h225v-34l-78 -21v-300q0 -62 -20 -109.5t-53 -74t-71 -39.5t-80 -13z" />
    <glyph glyph-name="V" unicode="V" horiz-adv-x="605" 
d="M261 -8l-200 540l-61 16v35h244v-34l-81 -20l144 -425h4l160 427l-75 17v35h210v-34l-70 -19l-223 -538h-52z" />
    <glyph glyph-name="W" unicode="W" horiz-adv-x="958" 
d="M290 -8h-54l-176 540l-60 16v35h244v-34l-83 -20l120 -415h5l168 469h72l150 -471h5l141 419l-77 17v35h210v-34l-68 -18l-206 -539h-53l-156 471h-6z" />
    <glyph glyph-name="X" unicode="X" horiz-adv-x="585" 
d="M337 0v35l53 16l-116 190l-122 -183l87 -22v-36h-223v35l59 15l174 232l-151 247l-70 18v36h240v-35l-65 -20l105 -168l115 168l-69 19v36h213v-35l-80 -22l-154 -206l166 -265l71 -19v-36h-233z" />
    <glyph glyph-name="Y" unicode="Y" horiz-adv-x="560" 
d="M138 0v34l98 20v183l-176 296l-56 15v35h244v-34l-92 -23l141 -242h4l134 244l-88 20v35h211v-34l-50 -14l-187 -298v-183l100 -19v-35h-283z" />
    <glyph glyph-name="Z" unicode="Z" horiz-adv-x="487" 
d="M25 0l-9 31l319 504h-238l-37 -119h-28v167h418l7 -22l-334 -512h257l53 112l29 -5l-14 -156h-423z" />
    <glyph glyph-name="bracketleft" unicode="[" horiz-adv-x="286" 
d="M225 -181h-131v860h131v-50h-73v-761h73v-49z" />
    <glyph glyph-name="backslash" unicode="\" horiz-adv-x="303" 
d="M219 -93l-196 767h59l195 -767h-58z" />
    <glyph glyph-name="bracketright" unicode="]" horiz-adv-x="286" 
d="M191 -181h-132v49h74v761h-74v50h132v-860z" />
    <glyph glyph-name="asciicircum" unicode="^" horiz-adv-x="447" 
d="M391 241h-62l-100 285l-118 -285h-61l146 342h66z" />
    <glyph glyph-name="underscore" unicode="_" horiz-adv-x="412" 
d="M416 -137h-416v57h416v-57z" />
    <glyph glyph-name="grave" unicode="`" horiz-adv-x="295" 
d="M55 640l47 55l147 -148l-25 -26z" />
    <glyph glyph-name="a" unicode="a" horiz-adv-x="464" 
d="M106 300h-42v121q86 38 155 38q68 0 109.5 -31.5t41.5 -101.5v-266l71 -29v-31h-130l-14 57q-63 -65 -144 -65q-53 0 -85 30.5t-32 85.5q0 60 57 101.5t152 41.5h50v62q0 49 -25 75.5t-64 26.5q-31 0 -70 -23zM294 86l1 112h-65q-121 0 -121 -73q0 -68 73 -68
q47 0 112 29z" />
    <glyph glyph-name="b" unicode="b" horiz-adv-x="497" 
d="M83 36v606h-84v33l108 28h52v-288q70 44 134 44q171 0 171 -223q0 -106 -68.5 -175t-165.5 -69q-88 0 -147 44zM260 400q-53 0 -101 -23v-303q49 -28 93 -28q46 0 76 28t40.5 64.5t10.5 80.5q0 81 -31.5 131t-87.5 50z" />
    <glyph glyph-name="c" unicode="c" horiz-adv-x="435" 
d="M356 285l-32 107q-31 26 -86 26q-54 0 -90 -47.5t-36 -135.5t44.5 -137t114.5 -49q55 0 125 35l12 -20q-21 -27 -67 -50t-96 -23q-102 0 -156 60t-54 166q0 104 57.5 173t147.5 69q93 0 161 -40v-134h-45z" />
    <glyph glyph-name="d" unicode="d" horiz-adv-x="508" 
d="M416 60l71 -29v-31h-130l-13 57q-58 -65 -134 -65q-74 0 -124.5 52t-50.5 164q0 111 62 180.5t152 69.5q53 0 91 -11v195h-84v33l108 28h52v-643zM340 85v295q-41 29 -90 29q-65 0 -101 -43t-36 -131q0 -89 33.5 -135t92.5 -46q34 0 101 31z" />
    <glyph glyph-name="e" unicode="e" horiz-adv-x="445" 
d="M113 228q0 -87 45 -132.5t117 -45.5q55 0 123 34l11 -20q-20 -27 -66.5 -49.5t-97.5 -22.5q-103 0 -156.5 59t-53.5 166q0 104 57.5 173t148.5 69q167 0 172 -218h-300v-13zM224 418q-40 0 -69 -32t-38 -98h208q-11 130 -101 130z" />
    <glyph glyph-name="f" unicode="f" horiz-adv-x="309" 
d="M29 0v31l78 20v347h-81v34l81 19v84q0 72 59 121.5t134 49.5q26 0 46 -5l-14 -76h-22l-89 22q-39 -40 -39 -112v-85h98v-52h-98v-345l84 -21v-32h-237z" />
    <glyph glyph-name="g" unicode="g" horiz-adv-x="486" 
d="M228 176q-22 0 -41 3l-49 -63l130 -17q173 -23 173 -129q0 -71 -67.5 -127.5t-176.5 -56.5q-84 0 -130 36t-46 91q0 35 27.5 70t71.5 60l-53 7v58l82 81q-89 35 -89 121q0 59 46 104t116 45q84 0 128 -46l91 38h27v-60h-100q21 -35 21 -79q0 -54 -49.5 -95t-111.5 -41z
M247 27l-94 12q-60 -55 -60 -119q0 -39 32 -61.5t97 -22.5t107.5 29t42.5 72q0 75 -125 90zM304 307q0 53 -23.5 82t-61.5 29q-35 0 -57 -26.5t-22 -73.5q0 -46 22.5 -73.5t62.5 -27.5q38 0 58.5 24t20.5 66z" />
    <glyph glyph-name="h" unicode="h" horiz-adv-x="576" 
d="M24 0v31l80 21v590h-85v33l108 28h53v-309q83 65 172 65q65 0 95.5 -44.5t30.5 -117.5v-245l80 -20v-32h-236v31l81 21v240q0 103 -99 103q-64 0 -124 -37v-306l81 -20v-32h-237z" />
    <glyph glyph-name="i" unicode="i" horiz-adv-x="292" 
d="M32 0v31l80 21v339h-85v32l128 36h32v-407l82 -20v-32h-237zM95 620q0 24 16 39.5t40 15.5t40.5 -15.5t16.5 -39.5t-16.5 -40t-40.5 -16t-40 16t-16 40z" />
    <glyph glyph-name="j" unicode="j" horiz-adv-x="272" 
d="M187 32q0 -67 -25.5 -136t-70.5 -110l-32 22q53 83 53 196v387h-85v32l128 36h32v-427zM95 620q0 24 16 39.5t40 15.5t40.5 -15.5t16.5 -39.5t-16.5 -40t-40.5 -16t-40 16t-16 40z" />
    <glyph glyph-name="k" unicode="k" horiz-adv-x="504" 
d="M24 0v31l80 21v590h-85v33l108 28h53v-651l81 -20v-32h-237zM208 235v16l139 142l-70 27v30h195v-31l-56 -27l-135 -127l141 -203l79 -31v-31h-138z" />
    <glyph glyph-name="l" unicode="l" horiz-adv-x="275" 
d="M24 0v31l80 21v590h-85v33l108 28h53v-651l81 -20v-32h-237z" />
    <glyph glyph-name="m" unicode="m" horiz-adv-x="852" 
d="M604 0v31l79 21v240q0 104 -99 104q-59 0 -113 -36q7 -33 7 -63v-245l81 -20v-32h-236v31l80 21v240q0 104 -99 104q-58 0 -117 -38v-306l81 -20v-32h-236v31l80 21v339h-85v32l114 36h27l18 -65q81 65 165 65q81 0 110 -70q84 70 172 70q65 0 95.5 -44.5t30.5 -117.5
v-245l81 -20v-32h-236z" />
    <glyph glyph-name="n" unicode="n" horiz-adv-x="579" 
d="M32 0v31l80 21v339h-85v32l114 36h27l19 -66q80 66 166 66q66 0 99.5 -43t33.5 -119v-245l80 -20v-32h-236v31l80 21v240q0 53 -24 78.5t-75 25.5q-64 0 -124 -39v-305l81 -20v-32h-236z" />
    <glyph glyph-name="o" unicode="o" horiz-adv-x="479" 
d="M446 225q0 -93 -62 -163t-149 -70q-200 0 -200 228q0 95 62 167t146 72q203 0 203 -234zM361 213q0 203 -127 203q-116 0 -116 -180q0 -197 130 -197q35 0 58.5 14t35 40.5t15.5 54t4 65.5z" />
    <glyph glyph-name="p" unicode="p" horiz-adv-x="523" 
d="M29 -207v31l79 22v545h-84v32l113 36h28l13 -48q73 48 136 48q176 0 176 -223q0 -106 -68 -175t-166 -69q-40 0 -73 11v-156l82 -22v-32h-236zM287 400q-59 0 -104 -25v-308q39 -25 95 -25q35 0 61 16t39.5 43t19.5 56t6 61q0 89 -30 135.5t-87 46.5z" />
    <glyph glyph-name="q" unicode="q" horiz-adv-x="484" 
d="M255 -207v31l83 23v205q-63 -60 -128 -60q-72 0 -123.5 56t-51.5 160q0 113 62.5 182t152.5 69q92 0 163 -23v-590l79 -21v-32h-237zM241 60q39 0 97 25v297q-40 28 -88 28q-133 0 -133 -170q0 -88 33 -134t91 -46z" />
    <glyph glyph-name="r" unicode="r" horiz-adv-x="368" 
d="M33 0v31l79 21v339h-85v32l114 36h27l14 -49q65 49 141 49q26 0 46 -5l-22 -83h-20l-78 22h-62v-341l82 -20v-32h-236z" />
    <glyph glyph-name="s" unicode="s" horiz-adv-x="399" 
d="M187 -8q-75 0 -146 30v123h37l25 -79q43 -27 98 -27q40 0 66.5 17t26.5 49q0 34 -25.5 53t-62 27.5t-73 19.5t-62 40.5t-25.5 78.5q0 63 49 99t119 36q74 0 131 -29v-112h-35l-21 68q-48 28 -96 28q-38 0 -62 -17.5t-24 -50.5q0 -35 26 -53.5t63.5 -26t75 -17.5
t63.5 -38.5t26 -77.5q0 -71 -50.5 -106t-123.5 -35z" />
    <glyph glyph-name="t" unicode="t" horiz-adv-x="339" 
d="M320 53l10 -35q-52 -26 -117 -26q-57 0 -93 32t-35 100v271h-66v31l70 24l29 118h46v-118h150v-55h-150v-270q1 -43 26 -63t65 -20q32 0 65 11z" />
    <glyph glyph-name="u" unicode="u" horiz-adv-x="547" 
d="M396 0l-11 56q-47 -37 -82.5 -50.5t-79.5 -13.5q-123 0 -123 154v245h-85v32l129 36h32v-274q0 -68 20.5 -98t64.5 -31q53 0 118 35v300h-84v32l128 36h32v-399l71 -29v-31h-130z" />
    <glyph glyph-name="v" unicode="v" horiz-adv-x="489" 
d="M497 450v-30l-70 -20l-162 -408h-58l-154 411l-57 16v31h214v-30l-65 -20l99 -313h7l117 313l-66 19v31h195z" />
    <glyph glyph-name="w" unicode="w" horiz-adv-x="744" 
d="M485 -8l-104 349h-6l-134 -349h-59l-132 411l-54 16v31h214v-30l-67 -21l80 -314h5l134 365h59l108 -366h4l96 315l-70 20v31h194v-30l-64 -18l-141 -410h-63z" />
    <glyph glyph-name="x" unicode="x" horiz-adv-x="523" 
d="M510 0h-213v31l47 14l-98 142l-111 -134l74 -21v-32h-195v31l48 13l159 178l-137 180l-60 17v31h214v-30l-60 -19l91 -128l110 127l-66 19v31h195v-30l-75 -21l-139 -160l146 -188l70 -19v-32z" />
    <glyph glyph-name="y" unicode="y" horiz-adv-x="489" 
d="M210 450v-30l-64 -20l103 -323h4l116 323l-67 19v31h195v-30l-70 -20l-147 -373l-73 -234h-82v26l84 174l-153 409l-60 17v31h214z" />
    <glyph glyph-name="z" unicode="z" horiz-adv-x="418" 
d="M395 145l-22 -145h-347l-10 30l255 377h-154l-69 -76l-23 4l13 115h331l11 -19l-259 -388h174l73 109z" />
    <glyph glyph-name="braceleft" unicode="{" horiz-adv-x="297" 
d="M237 -179q-75 -3 -120 29.5t-37 109.5l17 189q4 37 -12 59.5t-53 22.5v45q73 0 65 82l-17 194q-7 71 33.5 101t113.5 29l30 -1l-1 -47h-22q-56 0 -80 -19t-18 -65l16 -182q10 -90 -55 -115q28 -9 43 -39.5t11 -71.5l-17 -184q-5 -47 18 -67.5t82 -20.5h22l1 -48z" />
    <glyph glyph-name="bar" unicode="|" horiz-adv-x="216" 
d="M137 -92h-58v767h58v-767z" />
    <glyph glyph-name="braceright" unicode="}" horiz-adv-x="298" 
d="M60 -179l-20 1v48h23q58 0 81.5 20.5t18.5 67.5l-18 184q-4 42 11.5 72.5t42.5 38.5q-64 27 -56 115l18 182q5 46 -19 65t-79 19h-23l-1 47h30q73 1 114 -28.5t34 -100.5l-17 -194q-9 -82 65 -82v-45q-74 0 -65 -82l17 -189q8 -78 -37 -110t-120 -29z" />
    <glyph glyph-name="asciitilde" unicode="~" horiz-adv-x="442" 
d="M410 288q-45 -53 -111 -53q-35 0 -87.5 27.5t-82.5 27.5q-8 0 -16.5 -1.5t-14.5 -3.5t-13.5 -6t-11 -6t-10.5 -7t-9 -6l-24 34q46 51 104 51q43 0 92 -27t82 -27q29 0 73 33z" />
    <glyph glyph-name="uni00A0" unicode="&#xa0;" horiz-adv-x="206" 
 />
    <glyph glyph-name="exclamdown" unicode="&#xa1;" horiz-adv-x="271" 
d="M86 -131l23 404h54l23 -404h-100zM70 395q0 26 19.5 45.5t45.5 19.5t44.5 -19.5t18.5 -45.5t-18.5 -44.5t-44.5 -18.5t-45.5 19t-19.5 44z" />
    <glyph glyph-name="cent" unicode="&#xa2;" horiz-adv-x="435" 
d="M356 285l-32 107q-22 18 -55 24v-367h2q55 0 125 35l12 -20q-19 -24 -57 -45t-82 -26v-70h-41v69q-95 5 -144 64t-49 161q0 100 53.5 168.5t139.5 72.5v77h41v-77q73 -4 132 -39v-134h-45zM112 235q0 -73 31.5 -120t84.5 -61v363q-50 -4 -83 -51t-33 -131z" />
    <glyph glyph-name="sterling" unicode="&#xa3;" horiz-adv-x="478" 
d="M354 314v-47h-170q11 -46 11 -75q0 -55 -34 -134h210l58 111l33 -6l-28 -163h-424v34l85 17q24 63 24 119q0 25 -22 97h-68v47h55q-9 33 -9 70q0 74 57.5 123.5t126.5 49.5q81 0 151 -35v-140h-35l-28 101q-40 26 -87 26q-45 0 -76 -28.5t-31 -70.5q0 -31 19 -96h182z
" />
    <glyph glyph-name="currency" unicode="&#xa4;" horiz-adv-x="496" 
d="M73 57l-33 34l72 70q-33 42 -33 104q0 66 32 104l-71 71l33 32l70 -70q53 34 105 34q63 0 105 -32l69 70l34 -35l-70 -70q32 -35 32 -104t-34 -106l70 -70l-31 -34l-70 70q-51 -30 -105 -30q-60 0 -103 32zM248 144q59 0 89.5 33.5t30.5 87.5q1 53 -30.5 87t-89.5 34
q-57 0 -89 -34.5t-32 -86.5q0 -53 32.5 -87t88.5 -34z" />
    <glyph glyph-name="yen" unicode="&#xa5;" horiz-adv-x="560" 
d="M138 0v34l98 20v98h-183v47h183v27l-28 44h-155v47h125l-117 181l-57 15v35h244v-34l-92 -23l141 -217h4l133 219l-87 20v35h211v-34l-52 -14l-124 -183h131v-47h-163l-29 -44v-27h193v-47h-193v-98l100 -19v-35h-283z" />
    <glyph glyph-name="brokenbar" unicode="&#xa6;" horiz-adv-x="216" 
d="M137 -92h-58v291h58v-291zM137 675v-285h-58v285h58z" />
    <glyph glyph-name="section" unicode="&#xa7;" horiz-adv-x="447" 
d="M73 84l25 -102q49 -27 116 -27q61 0 104 48l-171 148q-63 53 -90 109.5t-27 125.5q0 82 66.5 144t148.5 62q95 0 163 -37v-140h-33l-26 102q-48 27 -116 27q-61 0 -104 -48l172 -148q63 -53 90 -109.5t27 -125.5q0 -83 -66.5 -144.5t-149.5 -61.5q-96 0 -162 37v140h33z
M235 296l-141 123v-12q0 -100 120 -205l139 -122q1 4 1 12q0 100 -119 204z" />
    <glyph glyph-name="dieresis" unicode="&#xa8;" horiz-adv-x="377" 
d="M52 616q0 21 13.5 35t35.5 14q21 0 35 -14t14 -35q0 -20 -14 -34.5t-35 -14.5t-35 14t-14 35zM230 616q0 21 14 35t35 14t35 -14t14 -35q0 -20 -14 -34.5t-35 -14.5t-35 14.5t-14 34.5z" />
    <glyph glyph-name="copyright" unicode="&#xa9;" horiz-adv-x="726" 
d="M497 360h-39l-23 67q-24 11 -43 11q-54 0 -86.5 -38t-32.5 -107q0 -146 117 -146q28 0 52.5 17t34.5 43h20v-70q-61 -34 -122 -34q-86 0 -141 46t-55 135q0 90 58.5 142t151.5 52q67 0 108 -26v-92zM60 289q0 125 89 214t214 89t214 -89t89 -214t-89 -214t-214 -89
t-214 89t-89 214zM90 289q0 -113 80 -193t193 -80t193 80t80 193t-80 193t-193 80t-193 -80t-80 -193z" />
    <glyph glyph-name="ordfeminine" unicode="&#xaa;" horiz-adv-x="352" 
d="M88 596h-38v84q61 27 116 27q49 0 79.5 -23.5t30.5 -71.5v-179l46 -19v-25h-98l-10 40q-46 -46 -100 -46q-37 0 -60 21.5t-23 59.5q0 42 40.5 70t106.5 28h34v41q0 33 -17.5 52.5t-44.5 19.5q-17 0 -41 -12zM31 306v36h292v-36h-292zM212 448v79h-40q-78 0 -78 -49
q0 -21 14 -33.5t38 -12.5q32 0 66 16z" />
    <glyph glyph-name="guillemotleft" unicode="&#xab;" horiz-adv-x="397" 
d="M145 46l-115 180l114 179h48l-71 -179l71 -180h-47zM301 46l-115 180l114 179h48l-71 -179l71 -180h-47z" />
    <glyph glyph-name="logicalnot" unicode="&#xac;" horiz-adv-x="495" 
d="M425 100h-62v168h-304v56h366v-224z" />
    <glyph glyph-name="registered" unicode="&#xae;" horiz-adv-x="434" 
d="M217 268q-80 0 -133.5 53.5t-53.5 132.5q0 80 54 133.5t133 53.5t133 -53.5t54 -133.5q0 -79 -53.5 -132.5t-133.5 -53.5zM217 295q68 0 113 45.5t45 113.5t-45 114t-113 46t-113 -46t-45 -114t45 -113.5t113 -45.5zM121 363v15l27 10v143l-27 9v16h107q32 0 51 -14.5
t19 -41.5q0 -36 -35 -50l41 -62l24 -10v-15h-68l-48 81h-12v-56l24 -9v-16h-103zM204 535h-4v-70q22 0 32.5 7.5t10.5 27.5q0 34 -39 35z" />
    <glyph glyph-name="macron" unicode="&#xaf;" horiz-adv-x="348" 
d="M299 566h-246v55h246v-55z" />
    <glyph glyph-name="degree" unicode="&#xb0;" horiz-adv-x="394" 
d="M330 463q0 -52 -37.5 -91t-98.5 -39q-60 0 -95.5 37.5t-35.5 91.5q0 53 38.5 91.5t99.5 38.5q60 0 94.5 -37.5t34.5 -91.5zM274 463q0 43 -22.5 67t-55.5 24q-32 0 -54 -24.5t-22 -68.5q0 -42 23 -66t55 -24q33 0 54.5 24.5t21.5 67.5z" />
    <glyph glyph-name="plusminus" unicode="&#xb1;" horiz-adv-x="501" 
d="M451 45h-401v56h401v-56zM277 356l166 1v-51h-166l2 -159h-56l2 159h-168v51l168 -1l-2 163h56z" />
    <glyph glyph-name="twosuperior" unicode="&#xb2;" horiz-adv-x="240" 
d="M229 476l-5 -77h-210l-5 32q70 58 108.5 102.5t38.5 83.5q0 26 -15.5 42t-39.5 16q-40 0 -63 -47h-19v46q34 30 90 30q45 0 74.5 -22.5t29.5 -64.5q0 -83 -157 -176l1 -3h131l27 42z" />
    <glyph glyph-name="threesuperior" unicode="&#xb3;" horiz-adv-x="232" 
d="M18 466h20q8 -21 26 -33.5t40 -12.5q25 0 41.5 15t16.5 40q0 56 -93 59v27q31 2 55 21.5t24 47.5q0 21 -14 34t-36 13q-38 0 -56 -45h-22v43q37 29 86 29q40 0 68 -18.5t28 -50.5q0 -28 -22 -47t-45 -24v-3q33 -3 57 -23t24 -49q0 -45 -36.5 -70t-84.5 -25q-45 0 -77 16
v56z" />
    <glyph glyph-name="acute" unicode="&#xb4;" horiz-adv-x="295" 
d="M203 695l47 -55l-169 -119l-25 26z" />
    <glyph glyph-name="mu" unicode="&#xb5;" horiz-adv-x="529" 
d="M74 -207v657h76v-296q1 -57 21.5 -77t64.5 -21q50 0 119 42v352h75v-339q0 -57 35 -57q33 0 54 2l6 -34q-46 -27 -97 -27q-57 0 -70 59q-76 -62 -161 -62q-28 0 -53 14l6 -80v-133h-76z" />
    <glyph glyph-name="mu" unicode="&#x3bc;" horiz-adv-x="529" 
d="M74 -207v657h76v-296q1 -57 21.5 -77t64.5 -21q50 0 119 42v352h75v-339q0 -57 35 -57q33 0 54 2l6 -34q-46 -27 -97 -27q-57 0 -70 59q-76 -62 -161 -62q-28 0 -53 14l6 -80v-133h-76z" />
    <glyph glyph-name="paragraph" unicode="&#xb6;" horiz-adv-x="627" 
d="M306 168q-115 3 -185.5 55t-70.5 153q0 97 70.5 152t189.5 55h309v-34l-121 -24v-732h-53v744h-84v-744h-55v375z" />
    <glyph glyph-name="periodcentered" unicode="&#xb7;" horiz-adv-x="129" 
d="M11 317q0 23 16 38.5t40 15.5q23 0 39.5 -15.5t16.5 -38.5t-16.5 -39t-39.5 -16q-24 0 -40 16t-16 39z" />
    <glyph glyph-name="cedilla" unicode="&#xb8;" horiz-adv-x="283" 
d="M125 -221q-41 0 -73 19l19 36q26 -14 57 -14q22 0 36.5 10.5t14.5 30.5q0 45 -71 60v14l46 80h44l-37 -66q33 -10 53 -32t20 -50q0 -36 -29.5 -62t-79.5 -26z" />
    <glyph glyph-name="onesuperior" unicode="&#xb9;" horiz-adv-x="217" 
d="M22 399v20l65 15v220h-71v20l104 29h22v-270l63 -13v-21h-183z" />
    <glyph glyph-name="ordmasculine" unicode="&#xba;" horiz-adv-x="355" 
d="M31 306v36h296v-36h-296zM329 544q0 -67 -45 -114t-106 -47q-146 0 -146 158q0 69 45.5 117.5t105.5 48.5q146 0 146 -163zM259 536q0 141 -82 141q-76 0 -76 -124q0 -134 84 -134q43 0 58.5 31.5t15.5 85.5z" />
    <glyph glyph-name="guillemotright" unicode="&#xbb;" horiz-adv-x="398" 
d="M96 408l115 -180l-114 -179h-48l71 179l-71 180h47zM253 408l115 -180l-114 -179h-48l71 179l-71 180h47z" />
    <glyph glyph-name="onequarter" unicode="&#xbc;" horiz-adv-x="672" 
d="M65 252v20l65 15v220h-71v20l104 29h22v-270l63 -13v-21h-183zM599 76h-41v-76h-54v76h-124l-7 38l142 190h43v-188h45zM406 116h98v133zM161 -12l-31 20l353 556l31 -19z" />
    <glyph glyph-name="onehalf" unicode="&#xbd;" horiz-adv-x="672" 
d="M65 252v20l65 15v220h-71v20l104 29h22v-270l63 -13v-21h-183zM613 77l-5 -77h-210l-5 32q70 58 108.5 102.5t38.5 83.5q0 26 -15.5 42t-39.5 16q-40 0 -63 -47h-19v46q35 30 90 30q45 0 74.5 -22.5t29.5 -64.5q0 -83 -157 -176l1 -3h131l27 42zM159 -12l-31 20l353 556
l31 -19z" />
    <glyph glyph-name="threequarters" unicode="&#xbe;" horiz-adv-x="672" 
d="M61 318h20q8 -21 26 -33.5t40 -12.5q25 0 41.5 15t16.5 40q0 56 -93 59v27q31 2 55 21.5t24 47.5q0 21 -14 34t-36 13q-38 0 -56 -45h-22v43q37 29 86 29q40 0 68 -18.5t28 -50.5q0 -28 -22 -47t-45 -24v-3q33 -3 57 -23t24 -49q0 -45 -36.5 -70t-84.5 -25q-45 0 -77 16
v56zM595 76h-41v-76h-54v76h-124l-7 38l142 190h43v-188h45zM402 116h98v133zM169 -12l-31 20l353 556l31 -19z" />
    <glyph glyph-name="questiondown" unicode="&#xbf;" horiz-adv-x="344" 
d="M24 3q0 47 28.5 87t58.5 59t60 31l6 85h62l6 -107q-20 -7 -41 -18.5t-46 -30t-40.5 -46t-15.5 -59.5q0 -44 21.5 -71.5t60.5 -27.5q40 0 74 23l18 83h36v-117q-66 -32 -134 -32q-70 0 -112 36t-42 105zM137 395q0 26 19.5 45.5t45.5 19.5t44.5 -19.5t18.5 -45.5
t-18.5 -44.5t-44.5 -18.5t-45.5 19t-19.5 44z" />
    <glyph glyph-name="Agrave" unicode="&#xc0;" horiz-adv-x="607" 
d="M372 0v31l68 18l-51 169h-191l-61 -165l80 -21v-32h-217v31l74 20l215 532h64l186 -534l69 -17v-32h-236zM301 494l-85 -229h159l-69 229h-5zM167 692l28 65l183 -101l-16 -32z" />
    <glyph glyph-name="Aacute" unicode="&#xc1;" horiz-adv-x="607" 
d="M372 0v31l68 18l-51 169h-191l-61 -165l80 -21v-32h-217v31l74 20l215 532h64l186 -534l69 -17v-32h-236zM301 494l-85 -229h159l-69 229h-5zM440 757l29 -65l-195 -68l-16 32z" />
    <glyph glyph-name="Acircumflex" unicode="&#xc2;" horiz-adv-x="607" 
d="M372 0v31l68 18l-51 169h-191l-61 -165l80 -21v-32h-217v31l74 20l215 532h64l186 -534l69 -17v-32h-236zM301 494l-85 -229h159l-69 229h-5zM433 626l-115 62l-113 -61l-17 26l135 107l132 -106z" />
    <glyph glyph-name="Atilde" unicode="&#xc3;" horiz-adv-x="607" 
d="M372 0v31l68 18l-51 169h-191l-61 -165l80 -21v-32h-217v31l74 20l215 532h64l186 -534l69 -17v-32h-236zM301 494l-85 -229h159l-69 229h-5zM370 634q-17 0 -53.5 18.5t-49.5 18.5q-37 0 -64 -26l-24 28q47 50 98 50q22 0 59.5 -18.5t48.5 -18.5q16 0 30.5 5.5
t21.5 10.5l7 6l22 -28q-46 -46 -96 -46z" />
    <glyph glyph-name="Adieresis" unicode="&#xc4;" horiz-adv-x="607" 
d="M372 0v31l68 18l-51 169h-191l-61 -165l80 -21v-32h-217v31l74 20l215 532h64l186 -534l69 -17v-32h-236zM301 494l-85 -229h159l-69 229h-5zM175 678q0 22 13.5 36t34.5 14t35.5 -14t14.5 -36q0 -20 -14.5 -34t-35.5 -14t-34.5 14t-13.5 34zM353 678q0 22 14 36t35 14
t35 -14t14 -36q0 -20 -14 -34t-35 -14t-35 14t-14 34z" />
    <glyph glyph-name="Aring" unicode="&#xc5;" horiz-adv-x="607" 
d="M372 0v31l68 18l-51 169h-191l-61 -165l80 -21v-32h-217v31l74 20l215 532h64l186 -534l69 -17v-32h-236zM301 494l-85 -229h159l-69 229h-5zM317 612q-34 0 -59.5 20.5t-25.5 57.5t25 57t60 20t61 -20t26 -57q0 -35 -26.5 -56.5t-60.5 -21.5zM317 644q20 0 33 13t13 33
t-13 32.5t-33 12.5q-21 0 -33 -12.5t-12 -32.5t12.5 -33t32.5 -13z" />
    <glyph glyph-name="AE" unicode="&#xc6;" horiz-adv-x="786" 
d="M290 0v34l98 20v166h-164l-89 -169l73 -19v-32h-227v31l81 20l292 532h386v-133h-45l-30 86h-192v-216l222 5v-56l-222 4v-225h199l49 96l38 -6l-17 -138h-452zM380 519l-132 -252h140v252h-8z" />
    <glyph glyph-name="Ccedilla" unicode="&#xc7;" horiz-adv-x="568" 
d="M306 -220q-41 0 -73 19l19 36q26 -14 57 -14q22 0 36.5 10.5t14.5 30.5q0 45 -71 60v14l33 57q-134 9 -212 83t-78 212q0 132 92 218t234 86q21 0 39.5 -1t34.5 -3.5t26.5 -4.5t24 -6t18 -6t17 -7t13.5 -5v-154h-43l-35 115q-44 26 -100 26q-97 0 -161.5 -64t-64.5 -185
q0 -130 67.5 -194.5t175.5 -64.5q78 0 141 63h20v-71q-2 -1 -13.5 -6t-24 -9.5t-31.5 -10t-44 -9t-53 -3.5l-23 -42q33 -10 53 -32t20 -50q0 -36 -29.5 -62t-79.5 -26z" />
    <glyph glyph-name="Egrave" unicode="&#xc8;" horiz-adv-x="529" 
d="M157 692l28 65l183 -101l-16 -32zM438 269l-222 4v-225h198l49 96l38 -6l-16 -138h-453v34l98 20v474l-98 20v35h451v-133h-46l-29 86h-192v-216l222 5v-56z" />
    <glyph glyph-name="Eacute" unicode="&#xc9;" horiz-adv-x="529" 
d="M374 757l29 -65l-195 -68l-16 32zM438 269l-222 4v-225h198l49 96l38 -6l-16 -138h-453v34l98 20v474l-98 20v35h451v-133h-46l-29 86h-192v-216l222 5v-56z" />
    <glyph glyph-name="Ecircumflex" unicode="&#xca;" horiz-adv-x="529" 
d="M438 269l-222 4v-225h198l49 96l38 -6l-16 -138h-453v34l98 20v474l-98 20v35h451v-133h-46l-29 86h-192v-216l222 5v-56zM420 625l-115 62l-113 -61l-17 26l135 107l132 -106z" />
    <glyph glyph-name="Edieresis" unicode="&#xcb;" horiz-adv-x="529" 
d="M171 679q0 22 13.5 36t34.5 14t35.5 -14t14.5 -36q0 -20 -14.5 -34t-35.5 -14t-34.5 14t-13.5 34zM349 679q0 22 14 36t35 14t35 -14t14 -36q0 -20 -14 -34t-35 -14t-35 14t-14 34zM438 269l-222 4v-225h198l49 96l38 -6l-16 -138h-453v34l98 20v474l-98 20v35h451v-133
h-46l-29 86h-192v-216l222 5v-56z" />
    <glyph glyph-name="Igrave" unicode="&#xcc;" horiz-adv-x="372" 
d="M45 0v34l98 20v474l-98 20v35h283v-34l-100 -21v-474l100 -19v-35h-283zM46 692l28 65l183 -101l-16 -32z" />
    <glyph glyph-name="Iacute" unicode="&#xcd;" horiz-adv-x="372" 
d="M45 0v34l98 20v474l-98 20v35h283v-34l-100 -21v-474l100 -19v-35h-283zM280 757l29 -65l-195 -68l-16 32z" />
    <glyph glyph-name="Icircumflex" unicode="&#xce;" horiz-adv-x="372" 
d="M45 0v34l98 20v474l-98 20v35h283v-34l-100 -21v-474l100 -19v-35h-283zM298 625l-115 62l-113 -61l-17 26l135 107l132 -106z" />
    <glyph glyph-name="Idieresis" unicode="&#xcf;" horiz-adv-x="372" 
d="M45 0v34l98 20v474l-98 20v35h283v-34l-100 -21v-474l100 -19v-35h-283zM47 679q0 22 13.5 36t34.5 14t35.5 -14t14.5 -36q0 -20 -14.5 -34t-35.5 -14t-34.5 14t-13.5 34zM225 679q0 22 14 36t35 14t35 -14t14 -36q0 -20 -14 -34t-35 -14t-35 14t-14 34z" />
    <glyph glyph-name="Eth" unicode="&#xd0;" horiz-adv-x="650" 
d="M33 274v47h97v207l-98 20v35h260q61 0 109 -6.5t94 -25t76.5 -49t49 -80t18.5 -116.5q0 -147 -95 -226.5t-247 -79.5h-265v34l98 20v220h-97zM289 535h-73v-214h151v-47h-151v-226h88q240 0 240 243q0 121 -67.5 182.5t-187.5 61.5z" />
    <glyph glyph-name="Ntilde" unicode="&#xd1;" horiz-adv-x="676" 
d="M396 634q-17 0 -53.5 18.5t-49.5 18.5q-37 0 -64 -26l-24 28q47 50 98 50q22 0 59.5 -18.5t48.5 -18.5q16 0 30.5 5.5t21.5 10.5l7 6l22 -28q-46 -46 -96 -46zM34 0v34l78 21v466l-80 26v36h176l303 -426h4v370l-87 21v35h224v-34l-77 -21v-536h-61l-340 479h-3v-415
l88 -21v-35h-225z" />
    <glyph glyph-name="Ograve" unicode="&#xd2;" horiz-adv-x="650" 
d="M173 692l28 65l183 -101l-16 -32zM618 314q0 -134 -82 -228t-218 -94q-129 0 -207.5 78t-78.5 205q0 139 84 228t218 89q130 0 207 -77t77 -201zM522 295q0 113 -52.5 183.5t-142.5 70.5q-92 0 -146 -69t-54 -184q0 -112 51.5 -186t142.5 -74q97 0 149 74t52 185z" />
    <glyph glyph-name="Oacute" unicode="&#xd3;" horiz-adv-x="650" 
d="M435 757l29 -65l-195 -68l-16 32zM618 314q0 -134 -82 -228t-218 -94q-129 0 -207.5 78t-78.5 205q0 139 84 228t218 89q130 0 207 -77t77 -201zM522 295q0 113 -52.5 183.5t-142.5 70.5q-92 0 -146 -69t-54 -184q0 -112 51.5 -186t142.5 -74q97 0 149 74t52 185z" />
    <glyph glyph-name="Ocircumflex" unicode="&#xd4;" horiz-adv-x="650" 
d="M618 314q0 -134 -82 -228t-218 -94q-129 0 -207.5 78t-78.5 205q0 139 84 228t218 89q130 0 207 -77t77 -201zM522 295q0 113 -52.5 183.5t-142.5 70.5q-92 0 -146 -69t-54 -184q0 -112 51.5 -186t142.5 -74q97 0 149 74t52 185zM443 626l-115 62l-113 -61l-17 26
l135 107l132 -106z" />
    <glyph glyph-name="Otilde" unicode="&#xd5;" horiz-adv-x="650" 
d="M390 633q-17 0 -53.5 18.5t-49.5 18.5q-37 0 -64 -26l-24 28q47 50 98 50q22 0 59.5 -18.5t48.5 -18.5q16 0 30.5 5.5t21.5 11.5l7 5l22 -28q-46 -46 -96 -46zM618 314q0 -134 -82 -228t-218 -94q-129 0 -207.5 78t-78.5 205q0 139 84 228t218 89q130 0 207 -77t77 -201z
M522 295q0 113 -52.5 183.5t-142.5 70.5q-92 0 -146 -69t-54 -184q0 -112 51.5 -186t142.5 -74q97 0 149 74t52 185z" />
    <glyph glyph-name="Odieresis" unicode="&#xd6;" horiz-adv-x="650" 
d="M186 678q0 22 13.5 36t34.5 14t35.5 -14t14.5 -36q0 -20 -14.5 -34t-35.5 -14t-34.5 14t-13.5 34zM364 678q0 22 14 36t35 14t35 -14t14 -36q0 -20 -14 -34t-35 -14t-35 14t-14 34zM618 314q0 -134 -82 -228t-218 -94q-129 0 -207.5 78t-78.5 205q0 139 84 228t218 89
q130 0 207 -77t77 -201zM522 295q0 113 -52.5 183.5t-142.5 70.5q-92 0 -146 -69t-54 -184q0 -112 51.5 -186t142.5 -74q97 0 149 74t52 185z" />
    <glyph glyph-name="multiply" unicode="&#xd7;" horiz-adv-x="519" 
d="M119 101l-41 37l146 158l-145 156l41 39l140 -156l139 155l41 -38l-146 -156l146 -157l-40 -39l-140 156z" />
    <glyph glyph-name="Oslash" unicode="&#xd8;" horiz-adv-x="650" 
d="M618 314q0 -134 -82 -228t-218 -94q-109 0 -182 55l-48 -55h-56l73 83q-73 76 -73 200q0 139 84 228t218 89q107 0 181 -55l48 55h55l-73 -82q73 -76 73 -196zM127 296q0 -90 34 -158l305 344q-54 67 -139 67q-92 0 -146 -69t-54 -184zM522 295q0 87 -33 151l-304 -345
q51 -65 136 -65q97 0 149 74t52 185z" />
    <glyph glyph-name="Ugrave" unicode="&#xd9;" horiz-adv-x="663" 
d="M196 692l28 65l183 -101l-16 -32zM345 -8q-46 0 -86.5 10.5t-76 33.5t-56.5 66.5t-21 103.5v323l-90 19v35h275v-34l-98 -20v-318q0 -83 46 -126.5t114 -43.5q74 0 116 47.5t42 142.5v296l-88 21v35h225v-34l-78 -21v-300q0 -62 -20 -109.5t-53 -74t-71 -39.5t-80 -13z
" />
    <glyph glyph-name="Uacute" unicode="&#xda;" horiz-adv-x="663" 
d="M468 757l29 -65l-195 -68l-16 32zM345 -8q-46 0 -86.5 10.5t-76 33.5t-56.5 66.5t-21 103.5v323l-90 19v35h275v-34l-98 -20v-318q0 -83 46 -126.5t114 -43.5q74 0 116 47.5t42 142.5v296l-88 21v35h225v-34l-78 -21v-300q0 -62 -20 -109.5t-53 -74t-71 -39.5t-80 -13z
" />
    <glyph glyph-name="Ucircumflex" unicode="&#xdb;" horiz-adv-x="663" 
d="M345 -8q-46 0 -86.5 10.5t-76 33.5t-56.5 66.5t-21 103.5v323l-90 19v35h275v-34l-98 -20v-318q0 -83 46 -126.5t114 -43.5q74 0 116 47.5t42 142.5v296l-88 21v35h225v-34l-78 -21v-300q0 -62 -20 -109.5t-53 -74t-71 -39.5t-80 -13zM466 625l-115 62l-113 -61l-17 26
l135 107l132 -106z" />
    <glyph glyph-name="Udieresis" unicode="&#xdc;" horiz-adv-x="663" 
d="M216 678q0 22 13.5 36t34.5 14t35.5 -14t14.5 -36q0 -20 -14.5 -34t-35.5 -14t-34.5 14t-13.5 34zM394 678q0 22 14 36t35 14t35 -14t14 -36q0 -20 -14 -34t-35 -14t-35 14t-14 34zM345 -8q-46 0 -86.5 10.5t-76 33.5t-56.5 66.5t-21 103.5v323l-90 19v35h275v-34
l-98 -20v-318q0 -83 46 -126.5t114 -43.5q74 0 116 47.5t42 142.5v296l-88 21v35h225v-34l-78 -21v-300q0 -62 -20 -109.5t-53 -74t-71 -39.5t-80 -13z" />
    <glyph glyph-name="Yacute" unicode="&#xdd;" horiz-adv-x="560" 
d="M138 0v34l98 20v183l-176 296l-56 15v35h244v-34l-92 -23l141 -242h4l134 244l-88 20v35h211v-34l-50 -14l-187 -298v-183l100 -19v-35h-283zM412 757l29 -65l-195 -68l-16 32z" />
    <glyph glyph-name="Thorn" unicode="&#xde;" horiz-adv-x="510" 
d="M33 0v34l98 20v474l-98 20v35h283v-34l-100 -21v-54h100q91 0 144.5 -45t53.5 -134q0 -80 -61.5 -127t-178.5 -47h-58v-67l100 -19v-35h-283zM284 425l-68 1v-258h53q158 5 158 124q0 59 -38 95.5t-105 37.5z" />
    <glyph glyph-name="germandbls" unicode="&#xdf;" horiz-adv-x="556" 
d="M29 0v31l78 20v347h-81v34l81 19v84q0 70 57 120.5t129 50.5q71 0 116.5 -39.5t45.5 -100.5q0 -31 -9 -60t-30 -60t-30 -42t-34 -40q68 -29 121.5 -82.5t53.5 -130.5q0 -73 -49.5 -116t-117.5 -43q-52 0 -105 23v124h33l27 -80q28 -21 58 -21q36 0 59.5 24.5t23.5 59.5
q0 110 -176 193v26q1 2 10.5 16t12.5 18t11.5 17t11.5 19t10 19t10 21t8 20t7 21.5t3.5 21.5t1.5 23q0 52 -29.5 84t-70.5 33q-17 0 -33 -2q-51 -42 -51 -117v-487l42 -16v-32h-195z" />
    <glyph glyph-name="agrave" unicode="&#xe0;" horiz-adv-x="464" 
d="M106 300h-42v121q86 38 155 38q68 0 109.5 -31.5t41.5 -101.5v-266l71 -29v-31h-130l-14 57q-63 -65 -144 -65q-53 0 -85 30.5t-32 85.5q0 60 57 101.5t152 41.5h50v62q0 49 -25 75.5t-64 26.5q-31 0 -70 -23zM294 86l1 112h-65q-121 0 -121 -73q0 -68 73 -68
q47 0 112 29zM93 639l47 55l147 -148l-25 -26z" />
    <glyph glyph-name="aacute" unicode="&#xe1;" horiz-adv-x="464" 
d="M106 300h-42v121q86 38 155 38q68 0 109.5 -31.5t41.5 -101.5v-266l71 -29v-31h-130l-14 57q-63 -65 -144 -65q-53 0 -85 30.5t-32 85.5q0 60 57 101.5t152 41.5h50v62q0 49 -25 75.5t-64 26.5q-31 0 -70 -23zM294 86l1 112h-65q-121 0 -121 -73q0 -68 73 -68
q47 0 112 29zM302 695l47 -55l-169 -119l-25 26z" />
    <glyph glyph-name="acircumflex" unicode="&#xe2;" horiz-adv-x="464" 
d="M106 300h-42v121q86 38 155 38q68 0 109.5 -31.5t41.5 -101.5v-266l71 -29v-31h-130l-14 57q-63 -65 -144 -65q-53 0 -85 30.5t-32 85.5q0 60 57 101.5t152 41.5h50v62q0 49 -25 75.5t-64 26.5q-31 0 -70 -23zM294 86l1 112h-65q-121 0 -121 -73q0 -68 73 -68
q47 0 112 29zM207 669h32l115 -122l-24 -28l-115 78l-113 -77l-24 23z" />
    <glyph glyph-name="atilde" unicode="&#xe3;" horiz-adv-x="464" 
d="M106 300h-42v121q86 38 155 38q68 0 109.5 -31.5t41.5 -101.5v-266l71 -29v-31h-130l-14 57q-63 -65 -144 -65q-53 0 -85 30.5t-32 85.5q0 60 57 101.5t152 41.5h50v62q0 49 -25 75.5t-64 26.5q-31 0 -70 -23zM294 86l1 112h-65q-121 0 -121 -73q0 -68 73 -68
q47 0 112 29zM351 603q-44 -47 -96 -47q-18 0 -44.5 14t-39.5 14q-36 0 -63 -26l-24 29q46 49 98 49q22 0 49.5 -13.5t38.5 -13.5q16 0 30.5 5.5t21.5 11.5l7 5z" />
    <glyph glyph-name="adieresis" unicode="&#xe4;" horiz-adv-x="464" 
d="M106 300h-42v121q86 38 155 38q68 0 109.5 -31.5t41.5 -101.5v-266l71 -29v-31h-130l-14 57q-63 -65 -144 -65q-53 0 -85 30.5t-32 85.5q0 60 57 101.5t152 41.5h50v62q0 49 -25 75.5t-64 26.5q-31 0 -70 -23zM294 86l1 112h-65q-121 0 -121 -73q0 -68 73 -68
q47 0 112 29zM80 616q0 21 13.5 35t35.5 14q21 0 35 -14t14 -35q0 -20 -14 -34.5t-35 -14.5t-35 14t-14 35zM258 616q0 21 14 35t35 14t35 -14t14 -35q0 -20 -14 -34.5t-35 -14.5t-35 14.5t-14 34.5z" />
    <glyph glyph-name="aring" unicode="&#xe5;" horiz-adv-x="464" 
d="M106 300h-42v121q86 38 155 38q68 0 109.5 -31.5t41.5 -101.5v-266l71 -29v-31h-130l-14 57q-63 -65 -144 -65q-53 0 -85 30.5t-32 85.5q0 60 57 101.5t152 41.5h50v62q0 49 -25 75.5t-64 26.5q-31 0 -70 -23zM294 86l1 112h-65q-121 0 -121 -73q0 -68 73 -68
q47 0 112 29zM224 679q36 0 62 -20t26 -57q0 -36 -26.5 -57t-61.5 -21q-34 0 -59.5 20.5t-25.5 57.5t25.5 57t59.5 20zM224 647q-20 0 -32.5 -12.5t-12.5 -32.5t12.5 -33t32.5 -13t33 13t13 33t-13 32.5t-33 12.5z" />
    <glyph glyph-name="ae" unicode="&#xe6;" horiz-adv-x="704" 
d="M63 300v121h1q86 38 155 38q103 0 136 -65q57 65 145 65q89 0 129.5 -56t43.5 -162h-301q0 -96 45 -143.5t117 -47.5q55 0 123 34l11 -20q-19 -27 -65.5 -49.5t-97.5 -22.5q-119 0 -174 81q-83 -81 -178 -81q-53 0 -85 30.5t-32 85.5q0 60 57 101.5t152 41.5h50v62
q0 49 -25 75.5t-64 26.5q-33 0 -71 -24l-30 -91h-42zM182 57q62 0 134 45q-17 39 -22 96h-64q-121 0 -121 -73q0 -68 73 -68zM376 288h209q-13 130 -101 130q-40 0 -69.5 -32t-38.5 -98z" />
    <glyph glyph-name="ccedilla" unicode="&#xe7;" horiz-adv-x="435" 
d="M208 -220q-41 0 -73 19l19 36q26 -14 57 -14q22 0 36.5 10.5t14.5 30.5q0 45 -71 60v14l32 56q-92 6 -140 65t-48 160q0 104 57.5 173t147.5 69q93 0 161 -40v-134h-45l-32 107q-31 26 -86 26q-54 0 -90 -47.5t-36 -135.5t44.5 -137t114.5 -49q55 0 125 35l12 -20
q-18 -24 -57 -45t-84 -27l-23 -42q33 -10 53 -32t20 -50q0 -36 -29.5 -62t-79.5 -26z" />
    <glyph glyph-name="egrave" unicode="&#xe8;" horiz-adv-x="445" 
d="M113 228q0 -87 45 -132.5t117 -45.5q55 0 123 34l11 -20q-20 -27 -66.5 -49.5t-97.5 -22.5q-103 0 -156.5 59t-53.5 166q0 104 57.5 173t148.5 69q167 0 172 -218h-300v-13zM224 418q-40 0 -69 -32t-38 -98h208q-11 130 -101 130zM119 640l47 55l147 -148l-25 -26z" />
    <glyph glyph-name="eacute" unicode="&#xe9;" horiz-adv-x="445" 
d="M307 695l47 -55l-169 -119l-25 26zM113 228q0 -87 45 -132.5t117 -45.5q55 0 123 34l11 -20q-20 -27 -66.5 -49.5t-97.5 -22.5q-103 0 -156.5 59t-53.5 166q0 104 57.5 173t148.5 69q167 0 172 -218h-300v-13zM224 418q-40 0 -69 -32t-38 -98h208q-11 130 -101 130z" />
    <glyph glyph-name="ecircumflex" unicode="&#xea;" horiz-adv-x="445" 
d="M232 669h32l115 -122l-24 -28l-115 78l-113 -77l-24 23zM113 228q0 -87 45 -132.5t117 -45.5q55 0 123 34l11 -20q-20 -27 -66.5 -49.5t-97.5 -22.5q-103 0 -156.5 59t-53.5 166q0 104 57.5 173t148.5 69q167 0 172 -218h-300v-13zM224 418q-40 0 -69 -32t-38 -98h208
q-11 130 -101 130z" />
    <glyph glyph-name="edieresis" unicode="&#xeb;" horiz-adv-x="445" 
d="M105 616q0 21 13.5 35t35.5 14q21 0 35 -14t14 -35q0 -20 -14 -34.5t-35 -14.5t-35 14t-14 35zM283 616q0 21 14 35t35 14t35 -14t14 -35q0 -20 -14 -34.5t-35 -14.5t-35 14.5t-14 34.5zM113 228q0 -87 45 -132.5t117 -45.5q55 0 123 34l11 -20q-20 -27 -66.5 -49.5
t-97.5 -22.5q-103 0 -156.5 59t-53.5 166q0 104 57.5 173t148.5 69q167 0 172 -218h-300v-13zM224 418q-40 0 -69 -32t-38 -98h208q-11 130 -101 130z" />
    <glyph glyph-name="igrave" unicode="&#xec;" horiz-adv-x="292" 
d="M32 0v31l80 21v339h-85v32l128 36h32v-407l82 -20v-32h-237zM18 640l47 55l147 -148l-25 -26z" />
    <glyph glyph-name="iacute" unicode="&#xed;" horiz-adv-x="292" 
d="M216 695l47 -55l-169 -119l-25 26zM32 0v31l80 21v339h-85v32l128 36h32v-407l82 -20v-32h-237z" />
    <glyph glyph-name="icircumflex" unicode="&#xee;" horiz-adv-x="292" 
d="M127 669h32l115 -122l-24 -28l-115 78l-113 -77l-24 23zM32 0v31l80 21v339h-85v32l128 36h32v-407l82 -20v-32h-237z" />
    <glyph glyph-name="idieresis" unicode="&#xef;" horiz-adv-x="292" 
d="M9 616q0 21 13.5 35t35.5 14q21 0 35 -14t14 -35q0 -20 -14 -34.5t-35 -14.5t-35 14t-14 35zM187 616q0 21 14 35t35 14t35 -14t14 -35q0 -20 -14 -34.5t-35 -14.5t-35 14.5t-14 34.5zM32 0v31l80 21v339h-85v32l128 36h32v-407l82 -20v-32h-237z" />
    <glyph glyph-name="eth" unicode="&#xf0;" horiz-adv-x="480" 
d="M154 513l-18 38l101 47q-41 37 -107 72l31 36q79 -32 135 -81l84 39l19 -39l-70 -32q116 -129 116 -338q0 -116 -60 -189.5t-150 -73.5q-200 0 -200 228q0 95 62 167.5t146 72.5q55 0 96 -18q-23 73 -69 124zM361 244q0 62 -6 119q-42 54 -121 54q-116 0 -116 -181
q0 -197 130 -197q36 0 59 15t34.5 44.5t15.5 63t4 82.5z" />
    <glyph glyph-name="ntilde" unicode="&#xf1;" horiz-adv-x="579" 
d="M32 0v31l80 21v339h-85v32l114 36h27l19 -66q80 66 166 66q66 0 99.5 -43t33.5 -119v-245l80 -20v-32h-236v31l80 21v240q0 53 -24 78.5t-75 25.5q-64 0 -124 -39v-305l81 -20v-32h-236zM423 603q-44 -47 -96 -47q-18 0 -44.5 14t-39.5 14q-36 0 -63 -26l-24 29
q46 49 98 49q22 0 49.5 -13.5t38.5 -13.5q16 0 30.5 5.5t21.5 11.5l7 5z" />
    <glyph glyph-name="ograve" unicode="&#xf2;" horiz-adv-x="479" 
d="M446 225q0 -93 -62 -163t-149 -70q-200 0 -200 228q0 95 62 167t146 72q203 0 203 -234zM361 213q0 203 -127 203q-116 0 -116 -180q0 -197 130 -197q35 0 58.5 14t35 40.5t15.5 54t4 65.5zM107 640l47 55l147 -148l-25 -26z" />
    <glyph glyph-name="oacute" unicode="&#xf3;" horiz-adv-x="479" 
d="M318 695l47 -55l-169 -119l-25 26zM446 225q0 -93 -62 -163t-149 -70q-200 0 -200 228q0 95 62 167t146 72q203 0 203 -234zM361 213q0 203 -127 203q-116 0 -116 -180q0 -197 130 -197q35 0 58.5 14t35 40.5t15.5 54t4 65.5z" />
    <glyph glyph-name="ocircumflex" unicode="&#xf4;" horiz-adv-x="479" 
d="M230 664h32l115 -122l-24 -28l-115 78l-113 -77l-24 23zM446 225q0 -93 -62 -163t-149 -70q-200 0 -200 228q0 95 62 167t146 72q203 0 203 -234zM361 213q0 203 -127 203q-116 0 -116 -180q0 -197 130 -197q35 0 58.5 14t35 40.5t15.5 54t4 65.5z" />
    <glyph glyph-name="otilde" unicode="&#xf5;" horiz-adv-x="479" 
d="M446 225q0 -93 -62 -163t-149 -70q-200 0 -200 228q0 95 62 167t146 72q203 0 203 -234zM361 213q0 203 -127 203q-116 0 -116 -180q0 -197 130 -197q35 0 58.5 14t35 40.5t15.5 54t4 65.5zM373 603q-44 -47 -96 -47q-18 0 -44.5 14t-39.5 14q-36 0 -63 -26l-24 29
q46 49 98 49q22 0 49.5 -13.5t38.5 -13.5q16 0 30.5 5.5t21.5 11.5l7 5z" />
    <glyph glyph-name="odieresis" unicode="&#xf6;" horiz-adv-x="479" 
d="M104 616q0 21 13.5 35t35.5 14q21 0 35 -14t14 -35q0 -20 -14 -34.5t-35 -14.5t-35 14t-14 35zM282 616q0 21 14 35t35 14t35 -14t14 -35q0 -20 -14 -34.5t-35 -14.5t-35 14.5t-14 34.5zM446 225q0 -93 -62 -163t-149 -70q-200 0 -200 228q0 95 62 167t146 72
q203 0 203 -234zM361 213q0 203 -127 203q-116 0 -116 -180q0 -197 130 -197q35 0 58.5 14t35 40.5t15.5 54t4 65.5z" />
    <glyph glyph-name="divide" unicode="&#xf7;" horiz-adv-x="495" 
d="M49 269v55h396v-55h-396zM190 460q0 23 16 38.5t40 15.5q23 0 39.5 -15.5t16.5 -38.5t-16.5 -39t-39.5 -16q-24 0 -40 16t-16 39zM190 135q0 23 16 38.5t40 15.5q23 0 39.5 -15.5t16.5 -38.5t-16.5 -39t-39.5 -16q-24 0 -40 16t-16 39z" />
    <glyph glyph-name="oslash" unicode="&#xf8;" horiz-adv-x="479" 
d="M446 225q0 -93 -62 -163t-149 -70q-80 0 -129 37l-29 -37h-42l48 61q-48 57 -48 167q0 95 62 167t146 72q81 0 130 -37l29 37h44l-48 -61q48 -58 48 -173zM118 236q0 -72 17 -116l193 245q-32 51 -94 51q-116 0 -116 -180zM361 213q0 69 -17 117l-192 -243q33 -48 96 -48
q35 0 58.5 14t35 40.5t15.5 54t4 65.5z" />
    <glyph glyph-name="ugrave" unicode="&#xf9;" horiz-adv-x="547" 
d="M396 0l-11 56q-47 -37 -82.5 -50.5t-79.5 -13.5q-123 0 -123 154v245h-85v32l129 36h32v-274q0 -68 20.5 -98t64.5 -31q53 0 118 35v300h-84v32l128 36h32v-399l71 -29v-31h-130zM150 640l47 55l147 -148l-25 -26z" />
    <glyph glyph-name="uacute" unicode="&#xfa;" horiz-adv-x="547" 
d="M369 695l47 -55l-169 -119l-25 26zM396 0l-11 56q-47 -37 -82.5 -50.5t-79.5 -13.5q-123 0 -123 154v245h-85v32l129 36h32v-274q0 -68 20.5 -98t64.5 -31q53 0 118 35v300h-84v32l128 36h32v-399l71 -29v-31h-130z" />
    <glyph glyph-name="ucircumflex" unicode="&#xfb;" horiz-adv-x="547" 
d="M266 669h32l115 -122l-24 -28l-115 78l-113 -77l-24 23zM396 0l-11 56q-47 -37 -82.5 -50.5t-79.5 -13.5q-123 0 -123 154v245h-85v32l129 36h32v-274q0 -68 20.5 -98t64.5 -31q53 0 118 35v300h-84v32l128 36h32v-399l71 -29v-31h-130z" />
    <glyph glyph-name="udieresis" unicode="&#xfc;" horiz-adv-x="547" 
d="M138 616q0 21 13.5 35t35.5 14q21 0 35 -14t14 -35q0 -20 -14 -34.5t-35 -14.5t-35 14t-14 35zM316 616q0 21 14 35t35 14t35 -14t14 -35q0 -20 -14 -34.5t-35 -14.5t-35 14.5t-14 34.5zM396 0l-11 56q-47 -37 -82.5 -50.5t-79.5 -13.5q-123 0 -123 154v245h-85v32
l129 36h32v-274q0 -68 20.5 -98t64.5 -31q53 0 118 35v300h-84v32l128 36h32v-399l71 -29v-31h-130z" />
    <glyph glyph-name="yacute" unicode="&#xfd;" horiz-adv-x="489" 
d="M210 450v-30l-64 -20l103 -323h4l116 323l-67 19v31h195v-30l-70 -20l-147 -373l-73 -234h-82v26l84 174l-153 409l-60 17v31h214zM352 695l47 -55l-169 -119l-25 26z" />
    <glyph glyph-name="thorn" unicode="&#xfe;" horiz-adv-x="523" 
d="M29 -207v31l78 22v796h-84v33l108 28h52v-289q71 45 131 45q176 0 176 -223q0 -106 -68 -175t-166 -69q-37 0 -73 12v-157l82 -22v-32h-236zM287 399q-58 0 -104 -24v-306q51 -27 95 -27q35 0 61 16t39.5 43t19.5 56t6 61q0 88 -30 134.5t-87 46.5z" />
    <glyph glyph-name="ydieresis" unicode="&#xff;" horiz-adv-x="489" 
d="M210 450v-30l-64 -20l103 -323h4l116 323l-67 19v31h195v-30l-70 -20l-147 -373l-73 -234h-82v26l84 174l-153 409l-60 17v31h214zM126 617q0 21 13.5 35t35.5 14q21 0 35 -14t14 -35q0 -20 -14 -34.5t-35 -14.5t-35 14t-14 35zM304 617q0 21 14 35t35 14t35 -14t14 -35
q0 -20 -14 -34.5t-35 -14.5t-35 14.5t-14 34.5z" />
    <glyph glyph-name="Amacron" unicode="&#x100;" horiz-adv-x="607" 
d="M372 0v31l68 18l-51 169h-191l-61 -165l80 -21v-32h-217v31l74 20l215 532h64l186 -534l69 -17v-32h-236zM301 494l-85 -229h159l-69 229h-5zM445 651h-245v52h245v-52z" />
    <glyph glyph-name="amacron" unicode="&#x101;" horiz-adv-x="464" 
d="M106 300h-42v121q86 38 155 38q68 0 109.5 -31.5t41.5 -101.5v-266l71 -29v-31h-130l-14 57q-63 -65 -144 -65q-53 0 -85 30.5t-32 85.5q0 60 57 101.5t152 41.5h50v62q0 49 -25 75.5t-64 26.5q-31 0 -70 -23zM294 86l1 112h-65q-121 0 -121 -73q0 -68 73 -68
q47 0 112 29zM343 566h-246v55h246v-55z" />
    <glyph glyph-name="Abreve" unicode="&#x102;" horiz-adv-x="607" 
d="M372 0v31l68 18l-51 169h-191l-61 -165l80 -21v-32h-217v31l74 20l215 532h64l186 -534l69 -17v-32h-236zM301 494l-85 -229h159l-69 229h-5zM319 621q-98 0 -117 95l42 11q16 -59 78 -59q37 0 58.5 16t23.5 42l39 -12q-6 -48 -40 -70.5t-84 -22.5z" />
    <glyph glyph-name="abreve" unicode="&#x103;" horiz-adv-x="464" 
d="M106 300h-42v121q86 38 155 38q68 0 109.5 -31.5t41.5 -101.5v-266l71 -29v-31h-130l-14 57q-63 -65 -144 -65q-53 0 -85 30.5t-32 85.5q0 60 57 101.5t152 41.5h50v62q0 49 -25 75.5t-64 26.5q-31 0 -70 -23zM294 86l1 112h-65q-121 0 -121 -73q0 -68 73 -68
q47 0 112 29zM223 526q-49 0 -79 29.5t-39 74.5l43 12q8 -29 27.5 -49t49.5 -20q37 0 59 20.5t24 47.5l40 -11q-7 -49 -41.5 -76.5t-83.5 -27.5z" />
    <glyph glyph-name="Aogonek" unicode="&#x104;" horiz-adv-x="607" 
d="M372 0v31l68 18l-51 169h-191l-61 -165l80 -21v-32h-217v31l74 20l215 532h64l186 -534l69 -17v-32h-89q-74 -46 -74 -109q1 -26 16.5 -39.5t37.5 -13.5q31 0 55 12l14 -39q-32 -19 -85 -19q-50 0 -75 23.5t-25 62.5q0 68 72 122h-83zM301 494l-85 -229h159l-69 229h-5z
" />
    <glyph glyph-name="aogonek" unicode="&#x105;" horiz-adv-x="464" 
d="M406 -150l14 -39q-32 -19 -85 -19q-50 0 -75 23.5t-25 62.5q0 71 75 124l-13 55q-63 -65 -144 -65q-53 0 -85 30.5t-32 85.5q0 60 57 101.5t152 41.5h50v62q0 49 -25 75.5t-64 26.5q-31 0 -70 -23l-30 -92h-42v121q86 38 155 38q68 0 109.5 -31.5t41.5 -101.5v-266
l71 -29v-31h-70q-74 -46 -74 -109q1 -26 16.5 -39.5t37.5 -13.5q31 0 55 12zM294 86l1 112h-65q-121 0 -121 -73q0 -68 73 -68q47 0 112 29z" />
    <glyph glyph-name="Cacute" unicode="&#x106;" horiz-adv-x="568" 
d="M531 405h-43l-35 115q-44 26 -100 26q-97 0 -161.5 -64t-64.5 -185q0 -130 67.5 -194.5t175.5 -64.5q78 0 141 63h20v-71q-1 -1 -13.5 -6.5t-25 -10t-32 -10t-45.5 -8.5t-55 -3q-150 0 -239 74.5t-89 221.5q0 132 92 218t234 86q21 0 39.5 -1t34.5 -3.5t26.5 -4.5t24 -6
t18 -6t17 -7t13.5 -5v-154zM466 757l29 -65l-195 -68l-16 32z" />
    <glyph glyph-name="cacute" unicode="&#x107;" horiz-adv-x="435" 
d="M317 695l47 -55l-169 -119l-25 26zM356 285l-32 107q-31 26 -86 26q-54 0 -90 -47.5t-36 -135.5t44.5 -137t114.5 -49q55 0 125 35l12 -20q-21 -27 -67 -50t-96 -23q-102 0 -156 60t-54 166q0 104 57.5 173t147.5 69q93 0 161 -40v-134h-45z" />
    <glyph glyph-name="Ccircumflex" unicode="&#x108;" horiz-adv-x="568" 
d="M531 405h-43l-35 115q-44 26 -100 26q-97 0 -161.5 -64t-64.5 -185q0 -130 67.5 -194.5t175.5 -64.5q78 0 141 63h20v-71q-1 -1 -13.5 -6.5t-25 -10t-32 -10t-45.5 -8.5t-55 -3q-150 0 -239 74.5t-89 221.5q0 132 92 218t234 86q21 0 39.5 -1t34.5 -3.5t26.5 -4.5t24 -6
t18 -6t17 -7t13.5 -5v-154zM461 625l-115 62l-113 -61l-17 26l135 107l132 -106z" />
    <glyph glyph-name="ccircumflex" unicode="&#x109;" horiz-adv-x="435" 
d="M241 669h32l115 -122l-24 -28l-115 78l-113 -77l-24 23zM356 285l-32 107q-31 26 -86 26q-54 0 -90 -47.5t-36 -135.5t44.5 -137t114.5 -49q55 0 125 35l12 -20q-21 -27 -67 -50t-96 -23q-102 0 -156 60t-54 166q0 104 57.5 173t147.5 69q93 0 161 -40v-134h-45z" />
    <glyph glyph-name="Cdotaccent" unicode="&#x10a;" horiz-adv-x="568" 
d="M295 680q0 22 14 36t36 14q21 0 36 -14.5t15 -35.5t-15 -35t-36 -14q-22 0 -36 14t-14 35zM531 405h-43l-35 115q-44 26 -100 26q-97 0 -161.5 -64t-64.5 -185q0 -130 67.5 -194.5t175.5 -64.5q78 0 141 63h20v-71q-1 -1 -13.5 -6.5t-25 -10t-32 -10t-45.5 -8.5t-55 -3
q-150 0 -239 74.5t-89 221.5q0 132 92 218t234 86q21 0 39.5 -1t34.5 -3.5t26.5 -4.5t24 -6t18 -6t17 -7t13.5 -5v-154z" />
    <glyph glyph-name="cdotaccent" unicode="&#x10b;" horiz-adv-x="435" 
d="M356 285l-32 107q-31 26 -86 26q-54 0 -90 -47.5t-36 -135.5t44.5 -137t114.5 -49q55 0 125 35l12 -20q-21 -27 -67 -50t-96 -23q-102 0 -156 60t-54 166q0 104 57.5 173t147.5 69q93 0 161 -40v-134h-45zM198 620q0 23 16 38.5t40 15.5q23 0 39.5 -15.5t16.5 -38.5
t-16.5 -39t-39.5 -16q-24 0 -40 16t-16 39z" />
    <glyph glyph-name="Ccaron" unicode="&#x10c;" horiz-adv-x="568" 
d="M531 405h-43l-35 115q-44 26 -100 26q-97 0 -161.5 -64t-64.5 -185q0 -130 67.5 -194.5t175.5 -64.5q78 0 141 63h20v-71q-1 -1 -13.5 -6.5t-25 -10t-32 -10t-45.5 -8.5t-55 -3q-150 0 -239 74.5t-89 221.5q0 132 92 218t234 86q21 0 39.5 -1t34.5 -3.5t26.5 -4.5t24 -6
t18 -6t17 -7t13.5 -5v-154zM362 626h-32l-112 101l22 29l114 -62l114 61l17 -27z" />
    <glyph glyph-name="ccaron" unicode="&#x10d;" horiz-adv-x="435" 
d="M247 519h-32l-115 122l24 28l115 -78l112 77l24 -23zM356 285l-32 107q-31 26 -86 26q-54 0 -90 -47.5t-36 -135.5t44.5 -137t114.5 -49q55 0 125 35l12 -20q-21 -27 -67 -50t-96 -23q-102 0 -156 60t-54 166q0 104 57.5 173t147.5 69q93 0 161 -40v-134h-45z" />
    <glyph glyph-name="Dcaron" unicode="&#x10e;" horiz-adv-x="650" 
d="M329 624h-32l-112 101l22 29l114 -62l114 61l17 -27zM32 0v34l98 20v474l-98 20v35h260q61 0 109 -6.5t94 -25t76.5 -49t49 -80t18.5 -116.5q0 -147 -95 -226.5t-247 -79.5h-265zM289 535h-73v-487h88q240 0 240 243q0 121 -67.5 182.5t-187.5 61.5z" />
    <glyph glyph-name="dcaron" unicode="&#x10f;" horiz-adv-x="514" 
d="M507 529h-40v174h74zM416 60l71 -29v-31h-130l-13 57q-58 -65 -134 -65q-74 0 -124.5 52t-50.5 164q0 111 62 180.5t152 69.5q53 0 91 -11v195h-84v33l108 28h52v-643zM340 85v295q-41 29 -90 29q-65 0 -101 -43t-36 -131q0 -89 33.5 -135t92.5 -46q34 0 101 31z" />
    <glyph glyph-name="Dcroat" unicode="&#x110;" horiz-adv-x="650" 
d="M41 264v53h89v211l-98 20v35h260q61 0 109 -6.5t94 -25t76.5 -49t49 -80t18.5 -116.5q0 -147 -95 -226.5t-247 -79.5h-265v34l98 20v210h-89zM289 535h-73v-218h112v-53h-112v-216h88q240 0 240 243q0 121 -67.5 182.5t-187.5 61.5z" />
    <glyph glyph-name="dcroat" unicode="&#x111;" horiz-adv-x="508" 
d="M416 60l71 -29v-31h-130l-13 57q-58 -65 -134 -65q-74 0 -124.5 52t-50.5 164q0 111 62 180.5t152 69.5q53 0 91 -11v75h-133v48h133v72h-84v33l108 28h52v-133h60v-48h-60v-462zM340 85v295q-41 29 -90 29q-65 0 -101 -43t-36 -131q0 -89 33.5 -135t92.5 -46
q34 0 101 31z" />
    <glyph glyph-name="Emacron" unicode="&#x112;" horiz-adv-x="529" 
d="M421 652h-245v52h245v-52zM438 269l-222 4v-225h198l49 96l38 -6l-16 -138h-453v34l98 20v474l-98 20v35h451v-133h-46l-29 86h-192v-216l222 5v-56z" />
    <glyph glyph-name="emacron" unicode="&#x113;" horiz-adv-x="445" 
d="M113 228q0 -87 45 -132.5t117 -45.5q55 0 123 34l11 -20q-20 -27 -66.5 -49.5t-97.5 -22.5q-103 0 -156.5 59t-53.5 166q0 104 57.5 173t148.5 69q167 0 172 -218h-300v-13zM224 418q-40 0 -69 -32t-38 -98h208q-11 130 -101 130zM364 566h-246v55h246v-55z" />
    <glyph glyph-name="Ebreve" unicode="&#x114;" horiz-adv-x="529" 
d="M302 621q-98 0 -117 95l42 11q16 -59 78 -59q37 0 58.5 16t23.5 42l39 -12q-6 -48 -40 -70.5t-84 -22.5zM438 269l-222 4v-225h198l49 96l38 -6l-16 -138h-453v34l98 20v474l-98 20v35h451v-133h-46l-29 86h-192v-216l222 5v-56z" />
    <glyph glyph-name="ebreve" unicode="&#x115;" horiz-adv-x="445" 
d="M113 228q0 -87 45 -132.5t117 -45.5q55 0 123 34l11 -20q-20 -27 -66.5 -49.5t-97.5 -22.5q-103 0 -156.5 59t-53.5 166q0 104 57.5 173t148.5 69q167 0 172 -218h-300v-13zM224 418q-40 0 -69 -32t-38 -98h208q-11 130 -101 130zM234 526q-49 0 -79 29.5t-39 74.5l43 12
q8 -29 27.5 -49t49.5 -20q37 0 59 20.5t24 47.5l40 -11q-7 -49 -41.5 -76.5t-83.5 -27.5z" />
    <glyph glyph-name="Edotaccent" unicode="&#x116;" horiz-adv-x="529" 
d="M248 679q0 22 14 36t36 14q21 0 36 -14.5t15 -35.5t-15 -35t-36 -14q-22 0 -36 14t-14 35zM438 269l-222 4v-225h198l49 96l38 -6l-16 -138h-453v34l98 20v474l-98 20v35h451v-133h-46l-29 86h-192v-216l222 5v-56z" />
    <glyph glyph-name="edotaccent" unicode="&#x117;" horiz-adv-x="445" 
d="M113 228q0 -87 45 -132.5t117 -45.5q55 0 123 34l11 -20q-20 -27 -66.5 -49.5t-97.5 -22.5q-103 0 -156.5 59t-53.5 166q0 104 57.5 173t148.5 69q167 0 172 -218h-300v-13zM224 418q-40 0 -69 -32t-38 -98h208q-11 130 -101 130zM173 620q0 23 16 38.5t40 15.5
q23 0 39.5 -15.5t16.5 -38.5t-16.5 -39t-39.5 -16q-24 0 -40 16t-16 39z" />
    <glyph glyph-name="Eogonek" unicode="&#x118;" horiz-adv-x="529" 
d="M438 269l-222 4v-225h198l49 96l38 -6l-16 -138h-50q-74 -46 -74 -109q1 -26 16.5 -39.5t37.5 -13.5q31 0 55 12l14 -39q-32 -19 -85 -19q-50 0 -75 23.5t-25 62.5q0 68 72 122h-339v34l98 20v474l-98 20v35h451v-133h-46l-29 86h-192v-216l222 5v-56z" />
    <glyph glyph-name="eogonek" unicode="&#x119;" horiz-adv-x="445" 
d="M113 228q0 -87 45 -132.5t117 -45.5q55 0 123 34l11 -20q-32 -41 -98 -62q-35 -20 -56.5 -49.5t-21.5 -61.5q1 -26 16.5 -39.5t37.5 -13.5q31 0 55 12l14 -39q-32 -19 -85 -19q-50 0 -75 23.5t-25 62.5q0 63 62 114q-97 4 -147.5 63t-50.5 162q0 104 57.5 173t148.5 69
q167 0 172 -218h-300v-13zM224 418q-40 0 -69 -32t-38 -98h208q-11 130 -101 130z" />
    <glyph glyph-name="Ecaron" unicode="&#x11a;" horiz-adv-x="529" 
d="M311 626h-32l-112 101l22 29l114 -62l114 61l17 -27zM438 269l-222 4v-225h198l49 96l38 -6l-16 -138h-453v34l98 20v474l-98 20v35h451v-133h-46l-29 86h-192v-216l222 5v-56z" />
    <glyph glyph-name="ecaron" unicode="&#x11b;" horiz-adv-x="445" 
d="M246 519h-32l-115 122l24 28l115 -78l112 77l24 -23zM113 228q0 -87 45 -132.5t117 -45.5q55 0 123 34l11 -20q-20 -27 -66.5 -49.5t-97.5 -22.5q-103 0 -156.5 59t-53.5 166q0 104 57.5 173t148.5 69q167 0 172 -218h-300v-13zM224 418q-40 0 -69 -32t-38 -98h208
q-11 130 -101 130z" />
    <glyph glyph-name="Gcircumflex" unicode="&#x11c;" horiz-adv-x="598" 
d="M488 405l-34 115q-44 26 -101 26q-97 0 -161.5 -64t-64.5 -185t68.5 -187.5t174.5 -66.5q41 0 77 14v182l-97 20v35h183v-264q-73 -38 -173 -38q-150 0 -239 74.5t-89 221.5q0 132 92 218t234 86q105 0 173 -33v-154h-43zM469 625l-115 62l-113 -61l-17 26l135 107
l132 -106z" />
    <glyph glyph-name="gcircumflex" unicode="&#x11d;" horiz-adv-x="486" 
d="M227 669h32l115 -122l-24 -28l-115 78l-113 -77l-24 23zM228 176q-22 0 -41 3l-49 -63l130 -17q173 -23 173 -129q0 -71 -67.5 -127.5t-176.5 -56.5q-84 0 -130 36t-46 91q0 35 27.5 70t71.5 60l-53 7v58l82 81q-89 35 -89 121q0 59 46 104t116 45q84 0 128 -46l91 38h27
v-60h-100q21 -35 21 -79q0 -54 -49.5 -95t-111.5 -41zM247 27l-94 12q-60 -55 -60 -119q0 -39 32 -61.5t97 -22.5t107.5 29t42.5 72q0 75 -125 90zM304 307q0 53 -23.5 82t-61.5 29q-35 0 -57 -26.5t-22 -73.5q0 -46 22.5 -73.5t62.5 -27.5q38 0 58.5 24t20.5 66z" />
    <glyph glyph-name="Gbreve" unicode="&#x11e;" horiz-adv-x="598" 
d="M330 620q-98 0 -117 95l42 11q16 -59 78 -59q37 0 58.5 16t23.5 42l39 -12q-6 -48 -40 -70.5t-84 -22.5zM488 405l-34 115q-44 26 -101 26q-97 0 -161.5 -64t-64.5 -185t68.5 -187.5t174.5 -66.5q41 0 77 14v182l-97 20v35h183v-264q-73 -38 -173 -38q-150 0 -239 74.5
t-89 221.5q0 132 92 218t234 86q105 0 173 -33v-154h-43z" />
    <glyph glyph-name="gbreve" unicode="&#x11f;" horiz-adv-x="486" 
d="M228 176q-22 0 -41 3l-49 -63l130 -17q173 -23 173 -129q0 -71 -67.5 -127.5t-176.5 -56.5q-84 0 -130 36t-46 91q0 35 27.5 70t71.5 60l-53 7v58l82 81q-89 35 -89 121q0 59 46 104t116 45q84 0 128 -46l91 38h27v-60h-100q21 -35 21 -79q0 -54 -49.5 -95t-111.5 -41z
M247 27l-94 12q-60 -55 -60 -119q0 -39 32 -61.5t97 -22.5t107.5 29t42.5 72q0 75 -125 90zM304 307q0 53 -23.5 82t-61.5 29q-35 0 -57 -26.5t-22 -73.5q0 -46 22.5 -73.5t62.5 -27.5q38 0 58.5 24t20.5 66zM227 526q-49 0 -79 29.5t-39 74.5l43 12q8 -29 27.5 -49
t49.5 -20q37 0 59 20.5t24 47.5l40 -11q-7 -49 -41.5 -76.5t-83.5 -27.5z" />
    <glyph glyph-name="Gdotaccent" unicode="&#x120;" horiz-adv-x="598" 
d="M300 680q0 22 14 36t36 14q21 0 36 -14.5t15 -35.5t-15 -35t-36 -14q-22 0 -36 14t-14 35zM488 405l-34 115q-44 26 -101 26q-97 0 -161.5 -64t-64.5 -185t68.5 -187.5t174.5 -66.5q41 0 77 14v182l-97 20v35h183v-264q-73 -38 -173 -38q-150 0 -239 74.5t-89 221.5
q0 132 92 218t234 86q105 0 173 -33v-154h-43z" />
    <glyph glyph-name="gdotaccent" unicode="&#x121;" horiz-adv-x="486" 
d="M228 176q-22 0 -41 3l-49 -63l130 -17q173 -23 173 -129q0 -71 -67.5 -127.5t-176.5 -56.5q-84 0 -130 36t-46 91q0 35 27.5 70t71.5 60l-53 7v58l82 81q-89 35 -89 121q0 59 46 104t116 45q84 0 128 -46l91 38h27v-60h-100q21 -35 21 -79q0 -54 -49.5 -95t-111.5 -41z
M247 27l-94 12q-60 -55 -60 -119q0 -39 32 -61.5t97 -22.5t107.5 29t42.5 72q0 75 -125 90zM304 307q0 53 -23.5 82t-61.5 29q-35 0 -57 -26.5t-22 -73.5q0 -46 22.5 -73.5t62.5 -27.5q38 0 58.5 24t20.5 66zM166 620q0 23 16 38.5t40 15.5q23 0 39.5 -15.5t16.5 -38.5
t-16.5 -39t-39.5 -16q-24 0 -40 16t-16 39z" />
    <glyph glyph-name="Gcommaaccent" unicode="&#x122;" horiz-adv-x="598" 
d="M305 -62h74l-52 -185h-42zM488 405l-34 115q-44 26 -101 26q-97 0 -161.5 -64t-64.5 -185t68.5 -187.5t174.5 -66.5q41 0 77 14v182l-97 20v35h183v-264q-73 -38 -173 -38q-150 0 -239 74.5t-89 221.5q0 132 92 218t234 86q105 0 173 -33v-154h-43z" />
    <glyph glyph-name="gcommaaccent" unicode="&#x123;" horiz-adv-x="486" 
d="M246 513h-74l52 188h42zM228 176q-22 0 -41 3l-49 -63l130 -17q173 -23 173 -129q0 -71 -67.5 -127.5t-176.5 -56.5q-84 0 -130 36t-46 91q0 35 27.5 70t71.5 60l-53 7v58l82 81q-89 35 -89 121q0 59 46 104t116 45q84 0 128 -46l91 38h27v-60h-100q21 -35 21 -79
q0 -54 -49.5 -95t-111.5 -41zM247 27l-94 12q-60 -55 -60 -119q0 -39 32 -61.5t97 -22.5t107.5 29t42.5 72q0 75 -125 90zM304 307q0 53 -23.5 82t-61.5 29q-35 0 -57 -26.5t-22 -73.5q0 -46 22.5 -73.5t62.5 -27.5q38 0 58.5 24t20.5 66z" />
    <glyph glyph-name="Hcircumflex" unicode="&#x124;" horiz-adv-x="717" 
d="M404 0v34l97 20v220h-285v-220l99 -19v-35h-283v34l98 20v474l-98 20v35h283v-34l-99 -21v-208h285v208l-97 20v35h282v-34l-99 -20v-475l99 -19v-35h-282zM473 625l-115 62l-113 -61l-17 26l135 107l132 -106z" />
    <glyph glyph-name="hcircumflex" unicode="&#x125;" horiz-adv-x="576" 
d="M24 0v31l80 21v590h-85v33l108 28h53v-309q83 65 172 65q65 0 95.5 -44.5t30.5 -117.5v-245l80 -20v-32h-236v31l81 21v240q0 103 -99 103q-64 0 -124 -37v-306l81 -20v-32h-237zM247 721l-115 62l-113 -61l-17 26l135 107l132 -106z" />
    <glyph glyph-name="Hbar" unicode="&#x126;" horiz-adv-x="717" 
d="M404 0v34l97 20v220h-285v-220l99 -19v-35h-283v34l98 20v346h-88v43h88v85l-98 20v35h283v-34l-99 -21v-85h285v85l-97 20v35h282v-34l-99 -20v-86h91v-43h-91v-346l99 -19v-35h-282zM216 320h285v80h-285v-80z" />
    <glyph glyph-name="hbar" unicode="&#x127;" horiz-adv-x="576" 
d="M24 0v31l80 21v470h-77v44h77v76h-85v33l108 28h53v-137h126v-44h-126v-128q83 65 172 65q65 0 95.5 -44.5t30.5 -117.5v-245l80 -20v-32h-236v31l81 21v240q0 103 -99 103q-64 0 -124 -37v-306l81 -20v-32h-237z" />
    <glyph glyph-name="Itilde" unicode="&#x128;" horiz-adv-x="372" 
d="M45 0v34l98 20v474l-98 20v35h283v-34l-100 -21v-474l100 -19v-35h-283zM237 634q-17 0 -53.5 18.5t-49.5 18.5q-37 0 -64 -26l-24 28q47 50 98 50q22 0 59.5 -18.5t48.5 -18.5q16 0 30.5 5.5t21.5 10.5l7 6l22 -28q-46 -46 -96 -46z" />
    <glyph glyph-name="itilde" unicode="&#x129;" horiz-adv-x="292" 
d="M32 0v31l80 21v339h-85v32l128 36h32v-407l82 -20v-32h-237zM280 603q-44 -47 -96 -47q-18 0 -44.5 14t-39.5 14q-36 0 -63 -26l-24 29q46 49 98 49q22 0 49.5 -13.5t38.5 -13.5q16 0 30.5 5.5t21.5 11.5l7 5z" />
    <glyph glyph-name="Imacron" unicode="&#x12a;" horiz-adv-x="372" 
d="M45 0v34l98 20v474l-98 20v35h283v-34l-100 -21v-474l100 -19v-35h-283zM307 652h-245v52h245v-52z" />
    <glyph glyph-name="imacron" unicode="&#x12b;" horiz-adv-x="292" 
d="M32 0v31l80 21v339h-85v32l128 36h32v-407l82 -20v-32h-237zM270 566h-246v55h246v-55z" />
    <glyph glyph-name="Ibreve" unicode="&#x12c;" horiz-adv-x="372" 
d="M45 0v34l98 20v474l-98 20v35h283v-34l-100 -21v-474l100 -19v-35h-283zM182 621q-98 0 -117 95l42 11q16 -59 78 -59q37 0 58.5 16t23.5 42l39 -12q-6 -48 -40 -70.5t-84 -22.5z" />
    <glyph glyph-name="ibreve" unicode="&#x12d;" horiz-adv-x="292" 
d="M32 0v31l80 21v339h-85v32l128 36h32v-407l82 -20v-32h-237zM144 526q-49 0 -79 29.5t-39 74.5l43 12q8 -29 27.5 -49t49.5 -20q37 0 59 20.5t24 47.5l40 -11q-7 -49 -41.5 -76.5t-83.5 -27.5z" />
    <glyph glyph-name="Iogonek" unicode="&#x12e;" horiz-adv-x="372" 
d="M45 0v34l98 20v474l-98 20v35h283v-34l-100 -21v-474l100 -19v-35h-104q-74 -46 -74 -109q1 -26 16.5 -39.5t37.5 -13.5q31 0 55 12l14 -39q-32 -19 -85 -19q-50 0 -75 23.5t-25 62.5q0 68 72 122h-115z" />
    <glyph glyph-name="iogonek" unicode="&#x12f;" horiz-adv-x="292" 
d="M32 0v31l80 21v339h-85v32l128 36h32v-407l82 -20v-32h-91q-74 -46 -74 -109q1 -26 16.5 -39.5t37.5 -13.5q31 0 55 12l14 -39q-32 -19 -85 -19q-50 0 -75 23.5t-25 62.5q0 68 72 122h-82zM95 620q0 23 16 38.5t40 15.5q23 0 39.5 -15.5t16.5 -38.5t-16.5 -39t-39.5 -16
q-24 0 -40 16t-16 39z" />
    <glyph glyph-name="Idotaccent" unicode="&#x130;" horiz-adv-x="372" 
d="M45 0v34l98 20v474l-98 20v35h283v-34l-100 -21v-474l100 -19v-35h-283zM135 680q0 22 14 36t36 14q21 0 36 -14.5t15 -35.5t-15 -35t-36 -14q-22 0 -36 14t-14 35z" />
    <glyph glyph-name="dotlessi" unicode="&#x131;" horiz-adv-x="292" 
d="M32 0v31l80 21v339h-85v32l128 36h32v-407l82 -20v-32h-237z" />
    <glyph glyph-name="IJ" unicode="&#x132;" horiz-adv-x="781" 
d="M45 0v34l98 20v474l-98 20v35h283v-34l-100 -21v-474l100 -19v-35h-283zM505 -8q-74 0 -135 21v162h41l23 -119l5 -2q5 -1 12.5 -3t16 -4t18 -3.5t15.5 -1.5q37 0 61 30t24 77v379l-98 20v35h284v-34l-100 -21v-376q0 -70 -51 -115t-116 -45z" />
    <glyph glyph-name="ij" unicode="&#x133;" horiz-adv-x="538" 
d="M360 -221l-37 25q28 31 45 85.5t17 114.5v387h-85v32l128 36h32v-460q0 -128 -100 -220zM32 0v31l80 21v339h-85v32l128 36h32v-407l82 -20v-32h-237zM362 620q0 24 16 39.5t40 15.5t40.5 -15.5t16.5 -39.5t-16.5 -40t-40.5 -16t-40 16t-16 40zM105 620q0 24 15.5 39.5
t39.5 15.5t40.5 -15.5t16.5 -39.5t-16.5 -40t-40.5 -16t-39.5 16t-15.5 40z" />
    <glyph glyph-name="Jcircumflex" unicode="&#x134;" horiz-adv-x="419" 
d="M143 -8q-74 0 -135 21v162h41l23 -119l5 -2q5 -1 12.5 -3t16 -4t18 -3.5t15.5 -1.5q37 0 61 30t24 77v379l-98 20v35h284v-34l-100 -21v-376q0 -70 -51 -115t-116 -45zM376 625l-115 62l-113 -61l-17 26l135 107l132 -106z" />
    <glyph glyph-name="jcircumflex" unicode="&#x135;" horiz-adv-x="272" 
d="M187 -1q0 -125 -96 -213l-37 24q58 63 58 194v387h-85v32l128 36h32v-460zM128 669h32l115 -122l-24 -28l-115 78l-113 -77l-24 23z" />
    <glyph glyph-name="Kcommaaccent" unicode="&#x136;" horiz-adv-x="600" 
d="M302 -62h74l-52 -185h-42zM32 0v34l98 20v474l-98 20v35h283v-34l-99 -21v-474l99 -19v-35h-283zM454 0l-221 293v17l209 218l-59 22v33h203v-35l-65 -21l-205 -204l213 -267l82 -20v-36h-157z" />
    <glyph glyph-name="kcommaaccent" unicode="&#x137;" horiz-adv-x="504" 
d="M246 -62h74l-52 -185h-42zM24 0v31l80 21v590h-85v33l108 28h53v-651l81 -20v-32h-237zM208 235v16l139 142l-70 27v30h195v-31l-56 -27l-135 -127l141 -203l79 -31v-31h-138z" />
    <glyph glyph-name="Lacute" unicode="&#x139;" horiz-adv-x="501" 
d="M296 757l29 -65l-195 -68l-16 32zM32 0v34l98 20v474l-98 20v35h283v-34l-99 -21v-480h189l66 122l32 -7l-27 -163h-444z" />
    <glyph glyph-name="lacute" unicode="&#x13a;" horiz-adv-x="275" 
d="M257 851l29 -65l-195 -68l-16 32zM24 0v31l80 21v590h-85v33l108 28h53v-651l81 -20v-32h-237z" />
    <glyph glyph-name="Lcommaaccent" unicode="&#x13b;" horiz-adv-x="501" 
d="M246 -62h74l-52 -185h-42zM32 0v34l98 20v474l-98 20v35h283v-34l-99 -21v-480h189l66 122l32 -7l-27 -163h-444z" />
    <glyph glyph-name="lcommaaccent" unicode="&#x13c;" horiz-adv-x="275" 
d="M106 -62h74l-52 -185h-42zM24 0v31l80 21v590h-85v33l108 28h53v-651l81 -20v-32h-237z" />
    <glyph glyph-name="Lcaron" unicode="&#x13d;" horiz-adv-x="501" 
d="M407 527h-40v174h74zM32 0v34l98 20v474l-98 20v35h283v-34l-99 -21v-480h189l66 122l32 -7l-27 -163h-444z" />
    <glyph glyph-name="lcaron" unicode="&#x13e;" horiz-adv-x="285" 
d="M277 529h-40v174h74zM24 0v31l80 21v590h-85v33l108 28h53v-651l81 -20v-32h-237z" />
    <glyph glyph-name="Ldot" unicode="&#x13f;" horiz-adv-x="501" 
d="M32 0v34l98 20v474l-98 20v35h283v-34l-99 -21v-480h189l66 122l32 -7l-27 -163h-444zM375 331q0 23 16 38.5t40 15.5q23 0 39.5 -15.5t16.5 -38.5t-16.5 -39t-39.5 -16q-24 0 -40 16t-16 39z" />
    <glyph glyph-name="ldot" unicode="&#x140;" horiz-adv-x="295" 
d="M240 318q0 22 14 36t36 14q21 0 36 -14.5t15 -35.5t-15 -35t-36 -14q-22 0 -36 14t-14 35zM24 0v31l80 21v590h-85v33l108 28h53v-651l81 -20v-32h-237z" />
    <glyph glyph-name="Lslash" unicode="&#x141;" horiz-adv-x="501" 
d="M32 0v34l98 20v188l-88 -51v46l88 56v235l-98 20v35h283v-34l-99 -21v-181l110 70v-62l-110 -64v-243h189l66 122l32 -7l-27 -163h-444z" />
    <glyph glyph-name="lslash" unicode="&#x142;" horiz-adv-x="275" 
d="M24 0v31l80 21v240l-88 -61v50l88 65v296h-85v33l108 28h53v-300l86 64v-62l-86 -60v-293l81 -20v-32h-237z" />
    <glyph glyph-name="Nacute" unicode="&#x143;" horiz-adv-x="676" 
d="M458 757l29 -65l-195 -68l-16 32zM34 0v34l78 21v466l-80 26v36h176l303 -426h4v370l-87 21v35h224v-34l-77 -21v-536h-61l-340 479h-3v-415l88 -21v-35h-225z" />
    <glyph glyph-name="nacute" unicode="&#x144;" horiz-adv-x="579" 
d="M384 695l47 -55l-169 -119l-25 26zM32 0v31l80 21v339h-85v32l114 36h27l19 -66q80 66 166 66q66 0 99.5 -43t33.5 -119v-245l80 -20v-32h-236v31l80 21v240q0 53 -24 78.5t-75 25.5q-64 0 -124 -39v-305l81 -20v-32h-236z" />
    <glyph glyph-name="Ncommaaccent" unicode="&#x145;" horiz-adv-x="676" 
d="M323 -62h74l-52 -185h-42zM34 0v34l78 21v466l-80 26v36h176l303 -426h4v370l-87 21v35h224v-34l-77 -21v-536h-61l-340 479h-3v-415l88 -21v-35h-225z" />
    <glyph glyph-name="ncommaaccent" unicode="&#x146;" horiz-adv-x="579" 
d="M266 -62h74l-52 -185h-42zM32 0v31l80 21v339h-85v32l114 36h27l19 -66q80 66 166 66q66 0 99.5 -43t33.5 -119v-245l80 -20v-32h-236v31l80 21v240q0 53 -24 78.5t-75 25.5q-64 0 -124 -39v-305l81 -20v-32h-236z" />
    <glyph glyph-name="Ncaron" unicode="&#x147;" horiz-adv-x="676" 
d="M357 626h-32l-112 101l22 29l114 -62l114 61l17 -27zM34 0v34l78 21v466l-80 26v36h176l303 -426h4v370l-87 21v35h224v-34l-77 -21v-536h-61l-340 479h-3v-415l88 -21v-35h-225z" />
    <glyph glyph-name="ncaron" unicode="&#x148;" horiz-adv-x="579" 
d="M305 519h-32l-115 122l24 28l115 -78l112 77l24 -23zM32 0v31l80 21v339h-85v32l114 36h27l19 -66q80 66 166 66q66 0 99.5 -43t33.5 -119v-245l80 -20v-32h-236v31l80 21v240q0 53 -24 78.5t-75 25.5q-64 0 -124 -39v-305l81 -20v-32h-236z" />
    <glyph glyph-name="napostrophe" unicode="&#x149;" horiz-adv-x="579" 
d="M173 668q0 -50 -33 -97.5t-86 -77.5l-18 17q26 22 45 52t19 54q0 32 -37 52q0 20 16.5 37t37.5 17q24 0 40 -15.5t16 -38.5zM32 0v31l80 21v339h-85v32l114 36h27l19 -66q80 66 166 66q66 0 99.5 -43t33.5 -119v-245l80 -20v-32h-236v31l80 21v240q0 53 -24 78.5
t-75 25.5q-64 0 -124 -39v-305l81 -20v-32h-236z" />
    <glyph glyph-name="Eng" unicode="&#x14a;" horiz-adv-x="676" 
d="M34 0v34l78 21v466l-80 26v36h176l303 -426h4v370l-87 21v35h224v-34l-77 -21v-536h-1q-3 -70 -30.5 -122t-97.5 -94l-27 32q50 43 71 82t25 102h-1l-340 479h-3v-415l88 -21v-35h-225z" />
    <glyph glyph-name="eng" unicode="&#x14b;" horiz-adv-x="579" 
d="M32 0v31l80 21v339h-85v32l114 36h27l19 -66q80 66 166 66q66 0 99.5 -43t33.5 -119v-302q0 -125 -92 -210l-38 25q55 59 55 190l-1 292q0 53 -24 78.5t-75 25.5q-64 0 -124 -39v-305l81 -20v-32h-236z" />
    <glyph glyph-name="Omacron" unicode="&#x14c;" horiz-adv-x="650" 
d="M447 652h-245v52h245v-52zM618 314q0 -134 -82 -228t-218 -94q-129 0 -207.5 78t-78.5 205q0 139 84 228t218 89q130 0 207 -77t77 -201zM522 295q0 113 -52.5 183.5t-142.5 70.5q-92 0 -146 -69t-54 -184q0 -112 51.5 -186t142.5 -74q97 0 149 74t52 185z" />
    <glyph glyph-name="omacron" unicode="&#x14d;" horiz-adv-x="479" 
d="M358 566h-246v55h246v-55zM446 225q0 -93 -62 -163t-149 -70q-200 0 -200 228q0 95 62 167t146 72q203 0 203 -234zM361 213q0 203 -127 203q-116 0 -116 -180q0 -197 130 -197q35 0 58.5 14t35 40.5t15.5 54t4 65.5z" />
    <glyph glyph-name="Obreve" unicode="&#x14e;" horiz-adv-x="650" 
d="M318 620q-98 0 -117 95l42 11q16 -59 78 -59q37 0 58.5 16t23.5 42l39 -12q-6 -48 -40 -70.5t-84 -22.5zM618 314q0 -134 -82 -228t-218 -94q-129 0 -207.5 78t-78.5 205q0 139 84 228t218 89q130 0 207 -77t77 -201zM522 295q0 113 -52.5 183.5t-142.5 70.5
q-92 0 -146 -69t-54 -184q0 -112 51.5 -186t142.5 -74q97 0 149 74t52 185z" />
    <glyph glyph-name="obreve" unicode="&#x14f;" horiz-adv-x="479" 
d="M446 225q0 -93 -62 -163t-149 -70q-200 0 -200 228q0 95 62 167t146 72q203 0 203 -234zM361 213q0 203 -127 203q-116 0 -116 -180q0 -197 130 -197q35 0 58.5 14t35 40.5t15.5 54t4 65.5zM237 526q-49 0 -79 29.5t-39 74.5l43 12q8 -29 27.5 -49t49.5 -20q37 0 59 20.5
t24 47.5l40 -11q-7 -49 -41.5 -76.5t-83.5 -27.5z" />
    <glyph glyph-name="Ohungarumlaut" unicode="&#x150;" horiz-adv-x="650" 
d="M618 314q0 -134 -82 -228t-218 -94q-129 0 -207.5 78t-78.5 205q0 139 84 228t218 89q130 0 207 -77t77 -201zM522 295q0 113 -52.5 183.5t-142.5 70.5q-92 0 -146 -69t-54 -184q0 -112 51.5 -186t142.5 -74q97 0 149 74t52 185zM547 757l28 -65l-195 -68l-16 32z
M347 781l42 -57l-175 -109l-23 28z" />
    <glyph glyph-name="ohungarumlaut" unicode="&#x151;" horiz-adv-x="479" 
d="M147 520l-27 23l121 163l51 -48zM307 521l-25 26l136 149l47 -54zM446 225q0 -93 -62 -163t-149 -70q-200 0 -200 228q0 95 62 167t146 72q203 0 203 -234zM361 213q0 203 -127 203q-116 0 -116 -180q0 -197 130 -197q35 0 58.5 14t35 40.5t15.5 54t4 65.5z" />
    <glyph glyph-name="OE" unicode="&#x152;" horiz-adv-x="759" 
d="M671 270l-223 4v-226h199l48 96l39 -6l-17 -138h-326q-37 -8 -73 -8q-129 0 -207.5 78t-78.5 205q0 139 84 228t218 89q44 0 81 -9h300v-133h-45l-30 86h-192v-216l223 4v-54zM321 36q24 0 41 4v506q-17 3 -35 3q-92 0 -146 -69t-54 -184q0 -112 51.5 -186t142.5 -74z
" />
    <glyph glyph-name="oe" unicode="&#x153;" horiz-adv-x="773" 
d="M441 228q0 -87 45 -132.5t117 -45.5q55 0 123 34l11 -20q-20 -27 -66 -49.5t-97 -22.5q-127 0 -177 91q-62 -91 -162 -91q-200 0 -200 228q0 95 62 167t146 72q121 0 168 -87q58 86 158 86q88 0 129 -56t44 -161h-301v-13zM361 213q0 203 -127 203q-116 0 -116 -180
q0 -197 130 -197q35 0 58.5 14t35 40.5t15.5 54t4 65.5zM552 418q-40 0 -69 -32.5t-38 -98.5l209 1q-13 130 -102 130z" />
    <glyph glyph-name="Racute" unicode="&#x154;" 
d="M457 0l-158 264q-11 -1 -34 -1h-49v-209l99 -19v-35h-283v34l98 20v474l-98 20v35h276q90 0 143.5 -41t53.5 -120q0 -109 -115 -144l137 -218l73 -28v-32h-143zM276 534h-60v-224h44q158 5 158 108q0 114 -142 116zM394 757l29 -65l-195 -68l-16 32z" />
    <glyph glyph-name="racute" unicode="&#x155;" horiz-adv-x="368" 
d="M319 695l47 -55l-169 -119l-25 26zM33 0v31l79 21v339h-85v32l114 36h27l14 -49q65 49 141 49q26 0 46 -5l-22 -83h-20l-78 22h-62v-341l82 -20v-32h-236z" />
    <glyph glyph-name="Rcommaaccent" unicode="&#x156;" 
d="M284 -62h74l-52 -185h-42zM457 0l-158 264q-11 -1 -34 -1h-49v-209l99 -19v-35h-283v34l98 20v474l-98 20v35h276q90 0 143.5 -41t53.5 -120q0 -109 -115 -144l137 -218l73 -28v-32h-143zM276 534h-60v-224h44q158 5 158 108q0 114 -142 116z" />
    <glyph glyph-name="rcommaaccent" unicode="&#x157;" horiz-adv-x="368" 
d="M116 -62h74l-52 -185h-42zM33 0v31l79 21v339h-85v32l114 36h27l14 -49q65 49 141 49q26 0 46 -5l-22 -83h-20l-78 22h-62v-341l82 -20v-32h-236z" />
    <glyph glyph-name="Rcaron" unicode="&#x158;" 
d="M293 626h-32l-112 101l22 29l114 -62l114 61l17 -27zM457 0l-158 264q-11 -1 -34 -1h-49v-209l99 -19v-35h-283v34l98 20v474l-98 20v35h276q90 0 143.5 -41t53.5 -120q0 -109 -115 -144l137 -218l73 -28v-32h-143zM276 534h-60v-224h44q158 5 158 108q0 114 -142 116z
" />
    <glyph glyph-name="rcaron" unicode="&#x159;" horiz-adv-x="368" 
d="M227 519h-32l-115 122l24 28l115 -78l112 77l24 -23zM33 0v31l79 21v339h-85v32l114 36h27l14 -49q65 49 141 49q26 0 46 -5l-22 -83h-20l-78 22h-62v-341l82 -20v-32h-236z" />
    <glyph glyph-name="Sacute" unicode="&#x15a;" horiz-adv-x="457" 
d="M368 416l-27 102q-48 27 -105 27q-54 0 -84 -26.5t-30 -68.5q0 -20 8 -35t28.5 -28t37 -20.5t49.5 -21.5q28 -11 37.5 -15.5t34.5 -16.5t36 -20t28.5 -23.5t25 -30t14 -35t6.5 -44.5q0 -83 -66 -125.5t-158 -42.5q-89 0 -171 34v145h35l28 -99q58 -34 132 -34
q52 0 83.5 28.5t31.5 80.5q0 21 -8.5 37t-31 29.5t-37.5 20.5t-50 20q-4 2 -6 2.5t-5.5 2t-6.5 2.5q-70 27 -110.5 62t-40.5 99q0 75 56 122.5t134 47.5q98 0 166 -35v-141h-34zM342 757l29 -65l-195 -68l-16 32z" />
    <glyph glyph-name="sacute" unicode="&#x15b;" horiz-adv-x="399" 
d="M281 695l47 -55l-169 -119l-25 26zM187 -8q-75 0 -146 30v123h37l25 -79q43 -27 98 -27q40 0 66.5 17t26.5 49q0 34 -25.5 53t-62 27.5t-73 19.5t-62 40.5t-25.5 78.5q0 63 49 99t119 36q74 0 131 -29v-112h-35l-21 68q-48 28 -96 28q-38 0 -62 -17.5t-24 -50.5
q0 -35 26 -53.5t63.5 -26t75 -17.5t63.5 -38.5t26 -77.5q0 -71 -50.5 -106t-123.5 -35z" />
    <glyph glyph-name="Scircumflex" unicode="&#x15c;" horiz-adv-x="457" 
d="M368 416l-27 102q-48 27 -105 27q-54 0 -84 -26.5t-30 -68.5q0 -20 8 -35t28.5 -28t37 -20.5t49.5 -21.5q28 -11 37.5 -15.5t34.5 -16.5t36 -20t28.5 -23.5t25 -30t14 -35t6.5 -44.5q0 -83 -66 -125.5t-158 -42.5q-89 0 -171 34v145h35l28 -99q58 -34 132 -34
q52 0 83.5 28.5t31.5 80.5q0 21 -8.5 37t-31 29.5t-37.5 20.5t-50 20q-4 2 -6 2.5t-5.5 2t-6.5 2.5q-70 27 -110.5 62t-40.5 99q0 75 56 122.5t134 47.5q98 0 166 -35v-141h-34zM352 625l-115 62l-113 -61l-17 26l135 107l132 -106z" />
    <glyph glyph-name="scircumflex" unicode="&#x15d;" horiz-adv-x="399" 
d="M192 669h32l115 -122l-24 -28l-115 78l-113 -77l-24 23zM187 -8q-75 0 -146 30v123h37l25 -79q43 -27 98 -27q40 0 66.5 17t26.5 49q0 34 -25.5 53t-62 27.5t-73 19.5t-62 40.5t-25.5 78.5q0 63 49 99t119 36q74 0 131 -29v-112h-35l-21 68q-48 28 -96 28
q-38 0 -62 -17.5t-24 -50.5q0 -35 26 -53.5t63.5 -26t75 -17.5t63.5 -38.5t26 -77.5q0 -71 -50.5 -106t-123.5 -35z" />
    <glyph glyph-name="Scedilla" unicode="&#x15e;" horiz-adv-x="457" 
d="M192 -220q-41 0 -73 19l19 36q26 -14 57 -14q22 0 36.5 10.5t14.5 30.5q0 45 -71 60v14l32 56h-4q-89 0 -171 34v145h35l28 -99q58 -34 132 -34q52 0 83.5 28.5t31.5 80.5q0 21 -8.5 37t-31 29.5t-37.5 20.5t-50 20q-4 2 -6 2.5t-5.5 2t-6.5 2.5q-70 27 -110.5 62
t-40.5 99q0 75 56 122.5t134 47.5q98 0 166 -35v-141h-34l-27 102q-48 27 -105 27q-54 0 -84 -26.5t-30 -68.5q0 -20 8 -35t28.5 -28t37 -20.5t49.5 -21.5q28 -11 37.5 -15.5t34.5 -16.5t36 -20t28.5 -23.5t25 -30t14 -35t6.5 -44.5q0 -71 -49.5 -112.5t-124.5 -51.5
l-25 -46q33 -10 53 -32t20 -50q0 -36 -29.5 -62t-79.5 -26z" />
    <glyph glyph-name="scedilla" unicode="&#x15f;" horiz-adv-x="399" 
d="M163 -220q-41 0 -73 19l19 36q26 -14 57 -14q22 0 36.5 10.5t14.5 30.5q0 45 -71 60v14l32 56q-71 3 -137 30v123h37l25 -79q43 -27 98 -27q40 0 66.5 17t26.5 49q0 34 -25.5 53t-62 27.5t-73 19.5t-62 40.5t-25.5 78.5q0 63 49 99t119 36q74 0 131 -29v-112h-35l-21 68
q-48 28 -96 28q-38 0 -62 -17.5t-24 -50.5q0 -35 26 -53.5t63.5 -26t75 -17.5t63.5 -38.5t26 -77.5q0 -62 -38.5 -96.5t-98.5 -42.5l-25 -44q33 -10 53 -32t20 -50q0 -36 -29.5 -62t-79.5 -26z" />
    <glyph glyph-name="Scaron" unicode="&#x160;" horiz-adv-x="457" 
d="M368 416l-27 102q-48 27 -105 27q-54 0 -84 -26.5t-30 -68.5q0 -20 8 -35t28.5 -28t37 -20.5t49.5 -21.5q28 -11 37.5 -15.5t34.5 -16.5t36 -20t28.5 -23.5t25 -30t14 -35t6.5 -44.5q0 -83 -66 -125.5t-158 -42.5q-89 0 -171 34v145h35l28 -99q58 -34 132 -34
q52 0 83.5 28.5t31.5 80.5q0 21 -8.5 37t-31 29.5t-37.5 20.5t-50 20q-4 2 -6 2.5t-5.5 2t-6.5 2.5q-70 27 -110.5 62t-40.5 99q0 75 56 122.5t134 47.5q98 0 166 -35v-141h-34zM260 626h-32l-112 101l22 29l114 -62l114 61l17 -27z" />
    <glyph glyph-name="scaron" unicode="&#x161;" horiz-adv-x="399" 
d="M216 519h-32l-115 122l24 28l115 -78l112 77l24 -23zM187 -8q-75 0 -146 30v123h37l25 -79q43 -27 98 -27q40 0 66.5 17t26.5 49q0 34 -25.5 53t-62 27.5t-73 19.5t-62 40.5t-25.5 78.5q0 63 49 99t119 36q74 0 131 -29v-112h-35l-21 68q-48 28 -96 28q-38 0 -62 -17.5
t-24 -50.5q0 -35 26 -53.5t63.5 -26t75 -17.5t63.5 -38.5t26 -77.5q0 -71 -50.5 -106t-123.5 -35z" />
    <glyph glyph-name="Tcommaaccent" unicode="&#x162;" horiz-adv-x="525" 
d="M227 -62h74l-52 -185h-42zM122 0v34l98 20v481h-128l-48 -119h-31v167h503v-167h-31l-55 119h-124v-481l100 -19v-35h-284z" />
    <glyph glyph-name="tcommaaccent" unicode="&#x163;" horiz-adv-x="339" 
d="M162 -62h74l-52 -185h-42zM320 53l10 -35q-52 -26 -117 -26q-57 0 -93 32t-35 100v271h-66v31l70 24l29 118h46v-118h150v-55h-150v-270q1 -43 26 -63t65 -20q32 0 65 11z" />
    <glyph glyph-name="Tcaron" unicode="&#x164;" horiz-adv-x="525" 
d="M274 626h-32l-112 101l22 29l114 -62l114 61l17 -27zM122 0v34l98 20v481h-128l-48 -119h-31v167h503v-167h-31l-55 119h-124v-481l100 -19v-35h-284z" />
    <glyph glyph-name="tcaron" unicode="&#x165;" horiz-adv-x="339" 
d="M270 529h-40v174h74zM320 53l10 -35q-52 -26 -117 -26q-57 0 -93 32t-35 100v271h-66v31l70 24l29 118h46v-118h150v-55h-150v-270q1 -43 26 -63t65 -20q32 0 65 11z" />
    <glyph glyph-name="Tbar" unicode="&#x166;" horiz-adv-x="525" 
d="M122 0v34l98 20v219h-126v48h126v214h-128l-48 -119h-31v167h503v-167h-31l-55 119h-124v-214h123v-48h-123v-219l100 -19v-35h-284z" />
    <glyph glyph-name="tbar" unicode="&#x167;" horiz-adv-x="339" 
d="M320 53l10 -35q-52 -26 -117 -26q-57 0 -93 32t-35 100v121h-53v42h53v108h-66v31l70 24l29 118h46v-118h150v-55h-150v-108h126v-42h-126v-120q1 -43 26 -63t65 -20q32 0 65 11z" />
    <glyph glyph-name="Utilde" unicode="&#x168;" horiz-adv-x="663" 
d="M398 634q-17 0 -53.5 18.5t-49.5 18.5q-37 0 -64 -26l-24 28q47 50 98 50q22 0 59.5 -18.5t48.5 -18.5q16 0 30.5 5.5t21.5 10.5l7 6l22 -28q-46 -46 -96 -46zM345 -8q-46 0 -86.5 10.5t-76 33.5t-56.5 66.5t-21 103.5v323l-90 19v35h275v-34l-98 -20v-318
q0 -83 46 -126.5t114 -43.5q74 0 116 47.5t42 142.5v296l-88 21v35h225v-34l-78 -21v-300q0 -62 -20 -109.5t-53 -74t-71 -39.5t-80 -13z" />
    <glyph glyph-name="utilde" unicode="&#x169;" horiz-adv-x="547" 
d="M396 0l-11 56q-47 -37 -82.5 -50.5t-79.5 -13.5q-123 0 -123 154v245h-85v32l129 36h32v-274q0 -68 20.5 -98t64.5 -31q53 0 118 35v300h-84v32l128 36h32v-399l71 -29v-31h-130zM407 603q-44 -47 -96 -47q-18 0 -44.5 14t-39.5 14q-36 0 -63 -26l-24 29q46 49 98 49
q22 0 49.5 -13.5t38.5 -13.5q16 0 30.5 5.5t21.5 11.5l7 5z" />
    <glyph glyph-name="Umacron" unicode="&#x16a;" horiz-adv-x="663" 
d="M466 652h-245v52h245v-52zM345 -8q-46 0 -86.5 10.5t-76 33.5t-56.5 66.5t-21 103.5v323l-90 19v35h275v-34l-98 -20v-318q0 -83 46 -126.5t114 -43.5q74 0 116 47.5t42 142.5v296l-88 21v35h225v-34l-78 -21v-300q0 -62 -20 -109.5t-53 -74t-71 -39.5t-80 -13z" />
    <glyph glyph-name="umacron" unicode="&#x16b;" horiz-adv-x="547" 
d="M396 0l-11 56q-47 -37 -82.5 -50.5t-79.5 -13.5q-123 0 -123 154v245h-85v32l129 36h32v-274q0 -68 20.5 -98t64.5 -31q53 0 118 35v300h-84v32l128 36h32v-399l71 -29v-31h-130zM394 566h-246v55h246v-55z" />
    <glyph glyph-name="Ubreve" unicode="&#x16c;" horiz-adv-x="663" 
d="M347 621q-98 0 -117 95l42 11q16 -59 78 -59q37 0 58.5 16t23.5 42l39 -12q-6 -48 -40 -70.5t-84 -22.5zM345 -8q-46 0 -86.5 10.5t-76 33.5t-56.5 66.5t-21 103.5v323l-90 19v35h275v-34l-98 -20v-318q0 -83 46 -126.5t114 -43.5q74 0 116 47.5t42 142.5v296l-88 21v35
h225v-34l-78 -21v-300q0 -62 -20 -109.5t-53 -74t-71 -39.5t-80 -13z" />
    <glyph glyph-name="ubreve" unicode="&#x16d;" horiz-adv-x="547" 
d="M396 0l-11 56q-47 -37 -82.5 -50.5t-79.5 -13.5q-123 0 -123 154v245h-85v32l129 36h32v-274q0 -68 20.5 -98t64.5 -31q53 0 118 35v300h-84v32l128 36h32v-399l71 -29v-31h-130zM272 526q-49 0 -79 29.5t-39 74.5l43 12q8 -29 27.5 -49t49.5 -20q37 0 59 20.5t24 47.5
l40 -11q-7 -49 -41.5 -76.5t-83.5 -27.5z" />
    <glyph glyph-name="Uring" unicode="&#x16e;" horiz-adv-x="663" 
d="M345 -8q-46 0 -86.5 10.5t-76 33.5t-56.5 66.5t-21 103.5v323l-90 19v35h275v-34l-98 -20v-318q0 -83 46 -126.5t114 -43.5q74 0 116 47.5t42 142.5v296l-88 21v35h225v-34l-78 -21v-300q0 -62 -20 -109.5t-53 -74t-71 -39.5t-80 -13zM345 620q-34 0 -59.5 20.5
t-25.5 57.5t25 57t60 20t61 -20t26 -57q0 -35 -26.5 -56.5t-60.5 -21.5zM345 652q20 0 33 13t13 33t-13 32.5t-33 12.5q-21 0 -33 -12.5t-12 -32.5t12.5 -33t32.5 -13z" />
    <glyph glyph-name="uring" unicode="&#x16f;" horiz-adv-x="547" 
d="M277 679q36 0 62 -20t26 -57q0 -36 -26.5 -57t-61.5 -21q-34 0 -59.5 20.5t-25.5 57.5t25.5 57t59.5 20zM277 647q-20 0 -32.5 -12.5t-12.5 -32.5t12.5 -33t32.5 -13t33 13t13 33t-13 32.5t-33 12.5zM396 0l-11 56q-47 -37 -82.5 -50.5t-79.5 -13.5q-123 0 -123 154v245
h-85v32l129 36h32v-274q0 -68 20.5 -98t64.5 -31q53 0 118 35v300h-84v32l128 36h32v-399l71 -29v-31h-130z" />
    <glyph glyph-name="Uhungarumlaut" unicode="&#x170;" horiz-adv-x="663" 
d="M345 -8q-46 0 -86.5 10.5t-76 33.5t-56.5 66.5t-21 103.5v323l-90 19v35h275v-34l-98 -20v-318q0 -83 46 -126.5t114 -43.5q74 0 116 47.5t42 142.5v296l-88 21v35h225v-34l-78 -21v-300q0 -62 -20 -109.5t-53 -74t-71 -39.5t-80 -13zM573 757l28 -65l-195 -68l-16 32z
M373 781l42 -57l-175 -109l-23 28z" />
    <glyph glyph-name="uhungarumlaut" unicode="&#x171;" horiz-adv-x="547" 
d="M396 0l-11 56q-47 -37 -82.5 -50.5t-79.5 -13.5q-123 0 -123 154v245h-85v32l129 36h32v-274q0 -68 20.5 -98t64.5 -31q53 0 118 35v300h-84v32l128 36h32v-399l71 -29v-31h-130zM155 520l-27 23l121 163l51 -48zM315 521l-25 26l136 149l47 -54z" />
    <glyph glyph-name="Uogonek" unicode="&#x172;" horiz-adv-x="663" 
d="M446 -150l14 -39q-32 -19 -85 -19q-50 0 -75 23.5t-25 62.5q0 63 62 114q-98 2 -165 52t-67 162v323l-90 19v35h275v-34l-98 -20v-318q0 -83 46 -126.5t114 -43.5q74 0 116 47.5t42 142.5v296l-88 21v35h225v-34l-78 -21v-300q0 -95 -44 -151.5t-113 -75.5
q-75 -47 -75 -110q1 -26 16.5 -39.5t37.5 -13.5q31 0 55 12z" />
    <glyph glyph-name="uogonek" unicode="&#x173;" horiz-adv-x="547" 
d="M396 0l-11 56q-47 -37 -82.5 -50.5t-79.5 -13.5q-123 0 -123 154v245h-85v32l129 36h32v-274q0 -68 20.5 -98t64.5 -31q53 0 118 35v300h-84v32l128 36h32v-399l71 -29v-31h-65q-74 -46 -74 -109q1 -26 16.5 -39.5t37.5 -13.5q31 0 55 12l14 -39q-32 -19 -85 -19
q-50 0 -75 23.5t-25 62.5q0 68 72 122h-1z" />
    <glyph glyph-name="Wcircumflex" unicode="&#x174;" horiz-adv-x="958" 
d="M290 -8h-54l-176 540l-60 16v35h244v-34l-83 -20l120 -415h5l168 469h72l150 -471h5l141 419l-77 17v35h210v-34l-68 -18l-206 -539h-53l-156 471h-6zM601 625l-115 62l-113 -61l-17 26l135 107l132 -106z" />
    <glyph glyph-name="wcircumflex" unicode="&#x175;" horiz-adv-x="744" 
d="M365 669h32l115 -122l-24 -28l-115 78l-113 -77l-24 23zM485 -8l-104 349h-6l-134 -349h-59l-132 411l-54 16v31h214v-30l-67 -21l80 -314h5l134 365h59l108 -366h4l96 315l-70 20v31h194v-30l-64 -18l-141 -410h-63z" />
    <glyph glyph-name="Ycircumflex" unicode="&#x176;" horiz-adv-x="560" 
d="M138 0v34l98 20v183l-176 296l-56 15v35h244v-34l-92 -23l141 -242h4l134 244l-88 20v35h211v-34l-50 -14l-187 -298v-183l100 -19v-35h-283zM400 625l-115 62l-113 -61l-17 26l135 107l132 -106z" />
    <glyph glyph-name="ycircumflex" unicode="&#x177;" horiz-adv-x="489" 
d="M210 450v-30l-64 -20l103 -323h4l116 323l-67 19v31h195v-30l-70 -20l-147 -373l-73 -234h-82v26l84 174l-153 409l-60 17v31h214zM252 669h32l115 -122l-24 -28l-115 78l-113 -77l-24 23z" />
    <glyph glyph-name="Ydieresis" unicode="&#x178;" horiz-adv-x="560" 
d="M138 0v34l98 20v183l-176 296l-56 15v35h244v-34l-92 -23l141 -242h4l134 244l-88 20v35h211v-34l-50 -14l-187 -298v-183l100 -19v-35h-283zM154 679q0 22 13.5 36t34.5 14t35.5 -14t14.5 -36q0 -20 -14.5 -34t-35.5 -14t-34.5 14t-13.5 34zM332 679q0 22 14 36t35 14
t35 -14t14 -36q0 -20 -14 -34t-35 -14t-35 14t-14 34z" />
    <glyph glyph-name="Zacute" unicode="&#x179;" horiz-adv-x="487" 
d="M25 0l-9 31l319 504h-238l-37 -119h-28v167h418l7 -22l-334 -512h257l53 112l29 -5l-14 -156h-423zM372 757l29 -65l-195 -68l-16 32z" />
    <glyph glyph-name="zacute" unicode="&#x17a;" horiz-adv-x="418" 
d="M298 695l47 -55l-169 -119l-25 26zM395 145l-22 -145h-347l-10 30l255 377h-154l-69 -76l-23 4l13 115h331l11 -19l-259 -388h174l73 109z" />
    <glyph glyph-name="Zdotaccent" unicode="&#x17b;" horiz-adv-x="487" 
d="M200 679q0 22 14 36t36 14q21 0 36 -14.5t15 -35.5t-15 -35t-36 -14q-22 0 -36 14t-14 35zM25 0l-9 31l319 504h-238l-37 -119h-28v167h418l7 -22l-334 -512h257l53 112l29 -5l-14 -156h-423z" />
    <glyph glyph-name="zdotaccent" unicode="&#x17c;" horiz-adv-x="418" 
d="M395 145l-22 -145h-347l-10 30l255 377h-154l-69 -76l-23 4l13 115h331l11 -19l-259 -388h174l73 109zM153 620q0 23 16 38.5t40 15.5q23 0 39.5 -15.5t16.5 -38.5t-16.5 -39t-39.5 -16q-24 0 -40 16t-16 39z" />
    <glyph glyph-name="Zcaron" unicode="&#x17d;" horiz-adv-x="487" 
d="M260 626h-32l-112 101l22 29l114 -62l114 61l17 -27zM25 0l-9 31l319 504h-238l-37 -119h-28v167h418l7 -22l-334 -512h257l53 112l29 -5l-14 -156h-423z" />
    <glyph glyph-name="zcaron" unicode="&#x17e;" horiz-adv-x="418" 
d="M225 519h-32l-115 122l24 28l115 -78l112 77l24 -23zM395 145l-22 -145h-347l-10 30l255 377h-154l-69 -76l-23 4l13 115h331l11 -19l-259 -388h174l73 109z" />
    <glyph glyph-name="uni018F" unicode="&#x18f;" horiz-adv-x="600" 
d="M286 -8q-127 0 -190.5 72t-63.5 202v45h441q-4 105 -56.5 166.5t-139.5 61.5q-104 0 -180 -52l-25 42q104 63 213 63q130 0 207 -77t77 -201q0 -137 -74.5 -229.5t-208.5 -92.5zM290 36q88 0 132 63t50 165h-345q7 -228 163 -228z" />
    <glyph glyph-name="florin" unicode="&#x192;" horiz-adv-x="394" 
d="M39 268v47h107l7 71q9 103 66.5 158.5t138.5 55.5q18 0 39 -3l-13 -84l-94 27q-52 -45 -62 -156l-6 -69h123v-47h-128l-17 -191q-8 -86 -52 -153.5t-110 -67.5t-98 18l25 77q56 -30 114 -31q33 34 45 159l18 189h-103z" />
    <glyph glyph-name="Ohorn" unicode="&#x1a0;" horiz-adv-x="650" 
d="M618 314q0 -134 -82 -228t-218 -94q-129 0 -207.5 78t-78.5 205q0 139 84 228t218 89q113 0 187 -60q36 17 36 58q0 23 -11 63l67 13q12 -28 12 -64q0 -62 -79 -93q72 -75 72 -195zM522 295q0 113 -52.5 183.5t-142.5 70.5q-92 0 -146 -69t-54 -184q0 -112 51.5 -186
t142.5 -74q97 0 149 74t52 185z" />
    <glyph glyph-name="ohorn" unicode="&#x1a1;" horiz-adv-x="479" 
d="M446 225q0 -93 -62 -163t-149 -70q-200 0 -200 228q0 95 62 167t146 72q79 0 128 -36q28 16 28 53q0 25 -12 63l68 13q12 -28 12 -64q0 -58 -70 -89q49 -60 49 -174zM361 213q0 203 -127 203q-116 0 -116 -180q0 -197 130 -197q35 0 58.5 14t35 40.5t15.5 54t4 65.5z" />
    <glyph glyph-name="Uhorn" unicode="&#x1af;" horiz-adv-x="663" 
d="M345 -9q-46 0 -86.5 10.5t-76 33.5t-56.5 66.5t-21 103.5v324l-90 19v35h275v-34l-98 -20v-319q0 -83 46 -126.5t114 -43.5q74 0 116 47.5t42 142.5v297l-88 21v35h164q10 14 10 36q0 18 -12 64l68 13q12 -29 12 -64q0 -67 -95 -103v-302q0 -62 -20 -109.5t-53 -74
t-71 -39.5t-80 -13z" />
    <glyph glyph-name="uhorn" unicode="&#x1b0;" horiz-adv-x="547" 
d="M396 0l-11 56q-47 -37 -82.5 -50.5t-79.5 -13.5q-123 0 -123 154v245h-85v32l129 36h32v-274q0 -68 20.5 -98t64.5 -31q53 0 118 35v300h-84v32l133 37q43 9 43 43q0 15 -18 56l67 13q12 -28 12 -64q0 -59 -77 -93v-355l71 -29v-31h-130z" />
    <glyph glyph-name="uni01C4" unicode="&#x1c4;" horiz-adv-x="1137" 
d="M912 626h-32l-112 101l22 29l114 -62l114 61l17 -27zM677 0l-9 31l319 504h-238l-37 -119h-28v167h418l7 -22l-334 -512h257l53 112l29 -5l-14 -156h-423zM32 0v34l98 20v474l-98 20v35h260q61 0 109 -6.5t94 -25t76.5 -49t49 -80t18.5 -116.5q0 -147 -95 -226.5
t-247 -79.5h-265zM289 535h-73v-487h88q240 0 240 243q0 121 -67.5 182.5t-187.5 61.5z" />
    <glyph glyph-name="uni01C5" unicode="&#x1c5;" horiz-adv-x="1068" 
d="M876 519h-32l-115 122l24 28l115 -78l112 77l24 -23zM1047 145l-22 -145h-347l-10 30l255 377h-154l-69 -76l-23 4l13 115h331l11 -19l-259 -388h174l73 109zM32 0v34l98 20v474l-98 20v35h260q61 0 109 -6.5t94 -25t76.5 -49t49 -80t18.5 -116.5q0 -147 -95 -226.5
t-247 -79.5h-265zM289 535h-73v-487h88q240 0 240 243q0 121 -67.5 182.5t-187.5 61.5z" />
    <glyph glyph-name="uni01C6" unicode="&#x1c6;" horiz-adv-x="926" 
d="M735 519h-32l-115 122l24 28l115 -78l112 77l24 -23zM905 145l-22 -145h-347l-10 30l255 377h-154l-69 -76l-23 4l13 115h331l11 -19l-259 -388h174l73 109zM416 60l71 -29v-31h-130l-13 57q-58 -65 -134 -65q-74 0 -124.5 52t-50.5 164q0 111 62 180.5t152 69.5
q53 0 91 -11v195h-84v33l108 28h52v-643zM340 85v295q-41 29 -90 29q-65 0 -101 -43t-36 -131q0 -89 33.5 -135t92.5 -46q34 0 101 31z" />
    <glyph glyph-name="uni01C7" unicode="&#x1c7;" horiz-adv-x="920" 
d="M654 -8q-74 0 -135 21v162h41l23 -119l5 -2q5 -1 12.5 -3t16 -4t18 -3.5t15.5 -1.5q37 0 61 30t24 77v379l-98 20v35h284v-34l-100 -21v-376q0 -70 -51 -115t-116 -45zM32 0v34l98 20v474l-98 20v35h283v-34l-99 -21v-480h189l66 122l32 -7l-27 -163h-444z" />
    <glyph glyph-name="uni01C8" unicode="&#x1c8;" horiz-adv-x="773" 
d="M691 32q0 -67 -25.5 -136t-70.5 -110l-32 22q53 83 53 196v387h-85v32l128 36h32v-427zM599 620q0 24 16 39.5t40 15.5t40.5 -15.5t16.5 -39.5t-16.5 -40t-40.5 -16t-40 16t-16 40zM32 0v34l98 20v474l-98 20v35h283v-34l-99 -21v-480h189l66 122l32 -7l-27 -163h-444z
" />
    <glyph glyph-name="uni01C9" unicode="&#x1c9;" horiz-adv-x="547" 
d="M461 32q0 -67 -25.5 -136t-70.5 -110l-32 22q53 83 53 196v387h-85v32l128 36h32v-427zM369 620q0 24 16 39.5t40 15.5t40.5 -15.5t16.5 -39.5t-16.5 -40t-40.5 -16t-40 16t-16 40zM24 0v31l80 21v590h-85v33l108 28h53v-651l81 -20v-32h-237z" />
    <glyph glyph-name="uni01CA" unicode="&#x1ca;" horiz-adv-x="1075" 
d="M800 -8q-74 0 -135 21v162h41l23 -119l5 -2q5 -1 12.5 -3t16 -4t18 -3.5t15.5 -1.5q37 0 61 30t24 77v379l-98 20v35h284v-34l-100 -21v-376q0 -70 -51 -115t-116 -45zM34 0v34l78 21v466l-80 26v36h176l303 -426h4v370l-87 21v35h224v-34l-77 -21v-536h-61l-340 479h-3
v-415l88 -21v-35h-225z" />
    <glyph glyph-name="uni01CB" unicode="&#x1cb;" horiz-adv-x="948" 
d="M862 32q0 -67 -25.5 -136t-70.5 -110l-32 22q53 83 53 196v387h-85v32l128 36h32v-427zM770 620q0 24 16 39.5t40 15.5t40.5 -15.5t16.5 -39.5t-16.5 -40t-40.5 -16t-40 16t-16 40zM34 0v34l78 21v466l-80 26v36h176l303 -426h4v370l-87 21v35h224v-34l-77 -21v-536h-61
l-340 479h-3v-415l88 -21v-35h-225z" />
    <glyph glyph-name="uni01CC" unicode="&#x1cc;" horiz-adv-x="851" 
d="M767 32q0 -67 -25.5 -136t-70.5 -110l-32 22q53 83 53 196v387h-85v32l128 36h32v-427zM675 620q0 24 16 39.5t40 15.5t40.5 -15.5t16.5 -39.5t-16.5 -40t-40.5 -16t-40 16t-16 40zM32 0v31l80 21v339h-85v32l114 36h27l19 -66q80 66 166 66q66 0 99.5 -43t33.5 -119
v-245l80 -20v-32h-236v31l80 21v240q0 53 -24 78.5t-75 25.5q-64 0 -124 -39v-305l81 -20v-32h-236z" />
    <glyph glyph-name="uni01CD" unicode="&#x1cd;" horiz-adv-x="607" 
d="M372 0v31l68 18l-51 169h-191l-61 -165l80 -21v-32h-217v31l74 20l215 532h64l186 -534l69 -17v-32h-236zM301 494l-85 -229h159l-69 229h-5zM333 626h-32l-112 101l22 29l114 -62l114 61l17 -27z" />
    <glyph glyph-name="uni01CE" unicode="&#x1ce;" horiz-adv-x="464" 
d="M106 300h-42v121q86 38 155 38q68 0 109.5 -31.5t41.5 -101.5v-266l71 -29v-31h-130l-14 57q-63 -65 -144 -65q-53 0 -85 30.5t-32 85.5q0 60 57 101.5t152 41.5h50v62q0 49 -25 75.5t-64 26.5q-31 0 -70 -23zM294 86l1 112h-65q-121 0 -121 -73q0 -68 73 -68
q47 0 112 29zM237 523h-32l-115 122l24 28l115 -78l112 77l24 -23z" />
    <glyph glyph-name="uni01CF" unicode="&#x1cf;" horiz-adv-x="372" 
d="M45 0v34l98 20v474l-98 20v35h283v-34l-100 -21v-474l100 -19v-35h-283zM197 626h-32l-112 101l22 29l114 -62l114 61l17 -27z" />
    <glyph glyph-name="uni01D0" unicode="&#x1d0;" horiz-adv-x="292" 
d="M159 519h-32l-115 122l24 28l115 -78l112 77l24 -23zM32 0v31l80 21v339h-85v32l128 36h32v-407l82 -20v-32h-237z" />
    <glyph glyph-name="uni01D1" unicode="&#x1d1;" horiz-adv-x="650" 
d="M339 626h-32l-112 101l22 29l114 -62l114 61l17 -27zM618 314q0 -134 -82 -228t-218 -94q-129 0 -207.5 78t-78.5 205q0 139 84 228t218 89q130 0 207 -77t77 -201zM522 295q0 113 -52.5 183.5t-142.5 70.5q-92 0 -146 -69t-54 -184q0 -112 51.5 -186t142.5 -74
q97 0 149 74t52 185z" />
    <glyph glyph-name="uni01D2" unicode="&#x1d2;" horiz-adv-x="479" 
d="M255 519h-32l-115 122l24 28l115 -78l112 77l24 -23zM446 225q0 -93 -62 -163t-149 -70q-200 0 -200 228q0 95 62 167t146 72q203 0 203 -234zM361 213q0 203 -127 203q-116 0 -116 -180q0 -197 130 -197q35 0 58.5 14t35 40.5t15.5 54t4 65.5z" />
    <glyph glyph-name="uni01D3" unicode="&#x1d3;" horiz-adv-x="663" 
d="M357 627h-32l-112 101l22 29l114 -62l114 61l17 -27zM345 -8q-46 0 -86.5 10.5t-76 33.5t-56.5 66.5t-21 103.5v323l-90 19v35h275v-34l-98 -20v-318q0 -83 46 -126.5t114 -43.5q74 0 116 47.5t42 142.5v296l-88 21v35h225v-34l-78 -21v-300q0 -62 -20 -109.5t-53 -74
t-71 -39.5t-80 -13z" />
    <glyph glyph-name="uni01D4" unicode="&#x1d4;" horiz-adv-x="547" 
d="M284 519h-32l-115 122l24 28l115 -78l112 77l24 -23zM396 0l-11 56q-47 -37 -82.5 -50.5t-79.5 -13.5q-123 0 -123 154v245h-85v32l129 36h32v-274q0 -68 20.5 -98t64.5 -31q53 0 118 35v300h-84v32l128 36h32v-399l71 -29v-31h-130z" />
    <glyph glyph-name="AEmacron" unicode="&#x1e2;" horiz-adv-x="786" 
d="M685 650h-245v52h245v-52zM290 0v34l98 20v166h-164l-89 -169l73 -19v-32h-227v31l81 20l292 532h386v-133h-45l-30 86h-192v-216l222 5v-56l-222 4v-225h199l49 96l38 -6l-17 -138h-452zM380 519l-132 -252h140v252h-8z" />
    <glyph glyph-name="aemacron" unicode="&#x1e3;" horiz-adv-x="704" 
d="M63 300v121h1q86 38 155 38q103 0 136 -65q57 65 145 65q89 0 129.5 -56t43.5 -162h-301q0 -96 45 -143.5t117 -47.5q55 0 123 34l11 -20q-19 -27 -65.5 -49.5t-97.5 -22.5q-119 0 -174 81q-83 -81 -178 -81q-53 0 -85 30.5t-32 85.5q0 60 57 101.5t152 41.5h50v62
q0 49 -25 75.5t-64 26.5q-33 0 -71 -24l-30 -91h-42zM182 57q62 0 134 45q-17 39 -22 96h-64q-121 0 -121 -73q0 -68 73 -68zM376 288h209q-13 130 -101 130q-40 0 -69.5 -32t-38.5 -98zM480 566h-246v55h246v-55z" />
    <glyph glyph-name="uni01E6" unicode="&#x1e6;" horiz-adv-x="598" 
d="M355 626h-32l-112 101l22 29l114 -62l114 61l17 -27zM488 405l-34 115q-44 26 -101 26q-97 0 -161.5 -64t-64.5 -185t68.5 -187.5t174.5 -66.5q41 0 77 14v182l-97 20v35h183v-264q-73 -38 -173 -38q-150 0 -239 74.5t-89 221.5q0 132 92 218t234 86q105 0 173 -33v-154
h-43z" />
    <glyph glyph-name="uni01E7" unicode="&#x1e7;" horiz-adv-x="486" 
d="M238 519h-32l-115 122l24 28l115 -78l112 77l24 -23zM228 176q-22 0 -41 3l-49 -63l130 -17q173 -23 173 -129q0 -71 -67.5 -127.5t-176.5 -56.5q-84 0 -130 36t-46 91q0 35 27.5 70t71.5 60l-53 7v58l82 81q-89 35 -89 121q0 59 46 104t116 45q84 0 128 -46l91 38h27
v-60h-100q21 -35 21 -79q0 -54 -49.5 -95t-111.5 -41zM247 27l-94 12q-60 -55 -60 -119q0 -39 32 -61.5t97 -22.5t107.5 29t42.5 72q0 75 -125 90zM304 307q0 53 -23.5 82t-61.5 29q-35 0 -57 -26.5t-22 -73.5q0 -46 22.5 -73.5t62.5 -27.5q38 0 58.5 24t20.5 66z" />
    <glyph glyph-name="uni01E8" unicode="&#x1e8;" horiz-adv-x="600" 
d="M32 0v34l98 20v474l-98 20v35h283v-34l-99 -21v-474l99 -19v-35h-283zM454 0l-221 293v17l209 218l-59 22v33h203v-35l-65 -21l-205 -204l213 -267l82 -20v-36h-157zM341 626h-32l-112 101l22 29l114 -62l114 61l17 -27z" />
    <glyph glyph-name="uni01E9" unicode="&#x1e9;" horiz-adv-x="504" 
d="M24 0v31l80 21v590h-85v33l108 28h53v-651l81 -20v-32h-237zM208 235v16l139 142l-70 27v30h195v-31l-56 -27l-135 -127l141 -203l79 -31v-31h-138zM360 626h-32l-112 101l22 29l114 -62l114 61l17 -27z" />
    <glyph glyph-name="uni01EA" unicode="&#x1ea;" horiz-adv-x="650" 
d="M618 314q0 -118 -65.5 -207t-175.5 -109q-70 -46 -70 -107q1 -26 16.5 -39.5t37.5 -13.5q31 0 55 12l14 -39q-32 -19 -85 -19q-50 0 -75 23.5t-25 62.5q0 63 62 114q-125 4 -200 81t-75 202q0 139 84 228t218 89q130 0 207 -77t77 -201zM522 295q0 113 -52.5 183.5
t-142.5 70.5q-92 0 -146 -69t-54 -184q0 -112 51.5 -186t142.5 -74q97 0 149 74t52 185z" />
    <glyph glyph-name="uni01EB" unicode="&#x1eb;" horiz-adv-x="479" 
d="M446 225q0 -81 -48 -146.5t-121 -81.5q-69 -47 -69 -106q1 -26 16.5 -39.5t37.5 -13.5q31 0 55 12l14 -39q-32 -19 -85 -19q-50 0 -75 23.5t-25 62.5q0 63 63 115q-174 15 -174 227q0 95 62 167t146 72q203 0 203 -234zM361 213q0 203 -127 203q-116 0 -116 -180
q0 -197 130 -197q35 0 58.5 14t35 40.5t15.5 54t4 65.5z" />
    <glyph glyph-name="uni01EC" unicode="&#x1ec;" horiz-adv-x="650" 
d="M618 314q0 -118 -65.5 -207t-175.5 -109q-70 -46 -70 -107q1 -26 16.5 -39.5t37.5 -13.5q31 0 55 12l14 -39q-32 -19 -85 -19q-50 0 -75 23.5t-25 62.5q0 63 62 114q-125 4 -200 81t-75 202q0 139 84 228t218 89q130 0 207 -77t77 -201zM522 295q0 113 -52.5 183.5
t-142.5 70.5q-92 0 -146 -69t-54 -184q0 -112 51.5 -186t142.5 -74q97 0 149 74t52 185zM448 651h-245v52h245v-52z" />
    <glyph glyph-name="uni01ED" unicode="&#x1ed;" horiz-adv-x="479" 
d="M446 225q0 -80 -47.5 -145t-118.5 -82q-70 -46 -70 -107q1 -26 16.5 -39.5t37.5 -13.5q31 0 55 12l14 -39q-32 -19 -85 -19q-50 0 -75 23.5t-25 62.5q0 63 63 115q-176 13 -176 227q0 95 62 167t146 72q203 0 203 -234zM361 213q0 203 -127 203q-116 0 -116 -180
q0 -197 130 -197q35 0 58.5 14t35 40.5t15.5 54t4 65.5zM363 566h-246v55h246v-55z" />
    <glyph glyph-name="uni01EE" unicode="&#x1ee;" horiz-adv-x="450" 
d="M219 626h-32l-112 101l22 29l114 -62l114 61l17 -27zM337 74q0 66 -58.5 107.5t-139.5 43.5l-13 42l171 237l-3 7h-212l-40 -78l-26 4l17 146h360l10 -22l-191 -258l3 -6q99 -13 157.5 -67t58.5 -128q0 -104 -72 -162.5t-186 -58.5q-58 0 -140 25v110h30q15 -39 53.5 -62
t80.5 -23q62 0 101 39t39 104z" />
    <glyph glyph-name="uni01EF" unicode="&#x1ef;" horiz-adv-x="403" 
d="M386 27q0 -102 -99.5 -167.5t-221.5 -66.5l-11 39q97 0 170.5 51.5t73.5 125.5q0 55 -35 85t-92 30q-28 0 -49 -5l-14 43l158 220l-3 7h-165l-57 -87l-25 4l17 144h319l10 -22l-166 -225l3 -6q91 -7 139 -51.5t48 -118.5zM208 519h-32l-115 122l24 28l115 -78l112 77
l24 -23z" />
    <glyph glyph-name="uni01F1" unicode="&#x1f1;" horiz-adv-x="1137" 
d="M678 0l-9 31l319 504h-238l-37 -119h-28v167h418l7 -22l-334 -512h257l53 112l29 -5l-14 -156h-423zM32 0v34l98 20v474l-98 20v35h260q61 0 109 -6.5t94 -25t76.5 -49t49 -80t18.5 -116.5q0 -147 -95 -226.5t-247 -79.5h-265zM289 535h-73v-487h88q240 0 240 243
q0 121 -67.5 182.5t-187.5 61.5z" />
    <glyph glyph-name="uni01F2" unicode="&#x1f2;" horiz-adv-x="1068" 
d="M1048 145l-22 -145h-347l-10 30l255 377h-154l-69 -76l-23 4l13 115h331l11 -19l-259 -388h174l73 109zM32 0v34l98 20v474l-98 20v35h260q61 0 109 -6.5t94 -25t76.5 -49t49 -80t18.5 -116.5q0 -147 -95 -226.5t-247 -79.5h-265zM289 535h-73v-487h88q240 0 240 243
q0 121 -67.5 182.5t-187.5 61.5z" />
    <glyph glyph-name="uni01F3" unicode="&#x1f3;" horiz-adv-x="926" 
d="M905 145l-22 -145h-347l-10 30l255 377h-154l-69 -76l-23 4l13 115h331l11 -19l-259 -388h174l73 109zM416 60l71 -29v-31h-130l-13 57q-58 -65 -134 -65q-74 0 -124.5 52t-50.5 164q0 111 62 180.5t152 69.5q53 0 91 -11v195h-84v33l108 28h52v-643zM340 85v295
q-41 29 -90 29q-65 0 -101 -43t-36 -131q0 -89 33.5 -135t92.5 -46q34 0 101 31z" />
    <glyph glyph-name="uni01F4" unicode="&#x1f4;" horiz-adv-x="598" 
d="M446 757l29 -65l-195 -68l-16 32zM488 405l-34 115q-44 26 -101 26q-97 0 -161.5 -64t-64.5 -185t68.5 -187.5t174.5 -66.5q41 0 77 14v182l-97 20v35h183v-264q-73 -38 -173 -38q-150 0 -239 74.5t-89 221.5q0 132 92 218t234 86q105 0 173 -33v-154h-43z" />
    <glyph glyph-name="uni01F5" unicode="&#x1f5;" horiz-adv-x="486" 
d="M314 695l47 -55l-169 -119l-25 26zM228 176q-22 0 -41 3l-49 -63l130 -17q173 -23 173 -129q0 -71 -67.5 -127.5t-176.5 -56.5q-84 0 -130 36t-46 91q0 35 27.5 70t71.5 60l-53 7v58l82 81q-89 35 -89 121q0 59 46 104t116 45q84 0 128 -46l91 38h27v-60h-100
q21 -35 21 -79q0 -54 -49.5 -95t-111.5 -41zM247 27l-94 12q-60 -55 -60 -119q0 -39 32 -61.5t97 -22.5t107.5 29t42.5 72q0 75 -125 90zM304 307q0 53 -23.5 82t-61.5 29q-35 0 -57 -26.5t-22 -73.5q0 -46 22.5 -73.5t62.5 -27.5q38 0 58.5 24t20.5 66z" />
    <glyph glyph-name="uni01F8" unicode="&#x1f8;" horiz-adv-x="676" 
d="M193 692l28 65l183 -101l-16 -32zM34 0v34l78 21v466l-80 26v36h176l303 -426h4v370l-87 21v35h224v-34l-77 -21v-536h-61l-340 479h-3v-415l88 -21v-35h-225z" />
    <glyph glyph-name="uni01F9" unicode="&#x1f9;" horiz-adv-x="579" 
d="M142 640l47 55l147 -148l-25 -26zM32 0v31l80 21v339h-85v32l114 36h27l19 -66q80 66 166 66q66 0 99.5 -43t33.5 -119v-245l80 -20v-32h-236v31l80 21v240q0 53 -24 78.5t-75 25.5q-64 0 -124 -39v-305l81 -20v-32h-236z" />
    <glyph glyph-name="uni01FA" unicode="&#x1fa;" horiz-adv-x="607" 
d="M372 0v31l68 18l-51 169h-191l-61 -165l80 -21v-32h-217v31l74 20l215 532h64l186 -534l69 -17v-32h-236zM301 494l-85 -229h159l-69 229h-5zM395 899l29 -65l-195 -68l-16 32zM319 609q-34 0 -59.5 20.5t-25.5 57.5t25 57t60 20t61 -20t26 -57q0 -35 -26.5 -56.5
t-60.5 -21.5zM319 641q20 0 33 13t13 33t-13 32.5t-33 12.5q-21 0 -33 -12.5t-12 -32.5t12.5 -33t32.5 -13z" />
    <glyph glyph-name="uni01FB" unicode="&#x1fb;" horiz-adv-x="464" 
d="M106 300h-42v121q86 38 155 38q68 0 109.5 -31.5t41.5 -101.5v-266l71 -29v-31h-130l-14 57q-63 -65 -144 -65q-53 0 -85 30.5t-32 85.5q0 60 57 101.5t152 41.5h50v62q0 49 -25 75.5t-64 26.5q-31 0 -70 -23zM294 86l1 112h-65q-121 0 -121 -73q0 -68 73 -68
q47 0 112 29zM209 661q36 0 62 -20t26 -57q0 -36 -26.5 -57t-61.5 -21q-34 0 -59.5 20.5t-25.5 57.5t25.5 57t59.5 20zM209 629q-20 0 -32.5 -12.5t-12.5 -32.5t12.5 -33t32.5 -13t33 13t13 33t-13 32.5t-33 12.5zM300 803l29 -65l-195 -68l-16 32z" />
    <glyph glyph-name="AEacute" unicode="&#x1fc;" horiz-adv-x="786" 
d="M658 758l29 -65l-195 -68l-16 32zM290 0v34l98 20v166h-164l-89 -169l73 -19v-32h-227v31l81 20l292 532h386v-133h-45l-30 86h-192v-216l222 5v-56l-222 4v-225h199l49 96l38 -6l-17 -138h-452zM380 519l-132 -252h140v252h-8z" />
    <glyph glyph-name="aeacute" unicode="&#x1fd;" horiz-adv-x="704" 
d="M446 695l47 -55l-169 -119l-25 26zM63 300v121h1q86 38 155 38q103 0 136 -65q57 65 145 65q89 0 129.5 -56t43.5 -162h-301q0 -96 45 -143.5t117 -47.5q55 0 123 34l11 -20q-19 -27 -65.5 -49.5t-97.5 -22.5q-119 0 -174 81q-83 -81 -178 -81q-53 0 -85 30.5t-32 85.5
q0 60 57 101.5t152 41.5h50v62q0 49 -25 75.5t-64 26.5q-33 0 -71 -24l-30 -91h-42zM182 57q62 0 134 45q-17 39 -22 96h-64q-121 0 -121 -73q0 -68 73 -68zM376 288h209q-13 130 -101 130q-40 0 -69.5 -32t-38.5 -98z" />
    <glyph glyph-name="Oslashacute" unicode="&#x1fe;" horiz-adv-x="650" 
d="M618 314q0 -134 -82 -228t-218 -94q-109 0 -182 55l-48 -55h-56l73 83q-73 76 -73 200q0 139 84 228t218 89q107 0 181 -55l48 55h55l-73 -82q73 -76 73 -196zM127 296q0 -90 34 -158l305 344q-54 67 -139 67q-92 0 -146 -69t-54 -184zM522 295q0 87 -33 151l-304 -345
q51 -65 136 -65q97 0 149 74t52 185zM428 757l29 -65l-195 -68l-16 32z" />
    <glyph glyph-name="oslashacute" unicode="&#x1ff;" horiz-adv-x="479" 
d="M446 225q0 -93 -62 -163t-149 -70q-80 0 -129 37l-29 -37h-42l48 61q-48 57 -48 167q0 95 62 167t146 72q81 0 130 -37l29 37h44l-48 -61q48 -58 48 -173zM118 236q0 -72 17 -116l193 245q-32 51 -94 51q-116 0 -116 -180zM361 213q0 69 -17 117l-192 -243q33 -48 96 -48
q35 0 58.5 14t35 40.5t15.5 54t4 65.5zM351 695l47 -55l-169 -119l-25 26z" />
    <glyph glyph-name="Scommaaccent" unicode="&#x218;" horiz-adv-x="457" 
d="M204 -62h74l-52 -185h-42zM368 416l-27 102q-48 27 -105 27q-54 0 -84 -26.5t-30 -68.5q0 -20 8 -35t28.5 -28t37 -20.5t49.5 -21.5q28 -11 37.5 -15.5t34.5 -16.5t36 -20t28.5 -23.5t25 -30t14 -35t6.5 -44.5q0 -83 -66 -125.5t-158 -42.5q-89 0 -171 34v145h35l28 -99
q58 -34 132 -34q52 0 83.5 28.5t31.5 80.5q0 21 -8.5 37t-31 29.5t-37.5 20.5t-50 20q-4 2 -6 2.5t-5.5 2t-6.5 2.5q-70 27 -110.5 62t-40.5 99q0 75 56 122.5t134 47.5q98 0 166 -35v-141h-34z" />
    <glyph glyph-name="scommaaccent" unicode="&#x219;" horiz-adv-x="399" 
d="M165 -62h74l-52 -185h-42zM187 -8q-75 0 -146 30v123h37l25 -79q43 -27 98 -27q40 0 66.5 17t26.5 49q0 34 -25.5 53t-62 27.5t-73 19.5t-62 40.5t-25.5 78.5q0 63 49 99t119 36q74 0 131 -29v-112h-35l-21 68q-48 28 -96 28q-38 0 -62 -17.5t-24 -50.5q0 -35 26 -53.5
t63.5 -26t75 -17.5t63.5 -38.5t26 -77.5q0 -71 -50.5 -106t-123.5 -35z" />
    <glyph glyph-name="uni021A" unicode="&#x21a;" horiz-adv-x="525" 
d="M227 -62h74l-52 -185h-42zM122 0v34l98 20v481h-128l-48 -119h-31v167h503v-167h-31l-55 119h-124v-481l100 -19v-35h-284z" />
    <glyph glyph-name="uni021B" unicode="&#x21b;" horiz-adv-x="339" 
d="M162 -62h74l-52 -185h-42zM320 53l10 -35q-52 -26 -117 -26q-57 0 -93 32t-35 100v271h-66v31l70 24l29 118h46v-118h150v-55h-150v-270q1 -43 26 -63t65 -20q32 0 65 11z" />
    <glyph glyph-name="uni021C" unicode="&#x21c;" horiz-adv-x="450" 
d="M337 74q0 66 -58.5 107.5t-139.5 43.5l-13 42l171 237l-3 7h-212l-40 -78l-26 4l17 146h360l10 -22l-191 -258l3 -6q99 -13 157.5 -67t58.5 -128q0 -104 -72 -162.5t-186 -58.5q-58 0 -140 25v110h30q15 -39 53.5 -62t80.5 -23q62 0 101 39t39 104z" />
    <glyph glyph-name="uni021D" unicode="&#x21d;" horiz-adv-x="403" 
d="M386 27q0 -102 -99.5 -167.5t-221.5 -66.5l-11 39q97 0 170.5 51.5t73.5 125.5q0 55 -35 85t-92 30q-28 0 -49 -5l-14 43l158 220l-3 7h-165l-57 -87l-25 4l17 144h319l10 -22l-166 -225l3 -6q91 -7 139 -51.5t48 -118.5z" />
    <glyph glyph-name="uni021E" unicode="&#x21e;" horiz-adv-x="718" 
d="M404 0v34l97 20v220h-285v-220l99 -19v-35h-283v34l98 20v474l-98 20v35h283v-34l-99 -21v-208h285v208l-97 20v35h282v-34l-99 -20v-475l99 -19v-35h-282zM371 626h-32l-112 101l22 29l114 -62l114 61l17 -27z" />
    <glyph glyph-name="uni021F" unicode="&#x21f;" horiz-adv-x="576" 
d="M24 0v31l80 21v590h-85v33l108 28h53v-309q83 65 172 65q65 0 95.5 -44.5t30.5 -117.5v-245l80 -20v-32h-236v31l81 21v240q0 103 -99 103q-64 0 -124 -37v-306l81 -20v-32h-237zM363 626h-32l-112 101l22 29l114 -62l114 61l17 -27z" />
    <glyph glyph-name="uni0226" unicode="&#x226;" horiz-adv-x="607" 
d="M372 0v31l68 18l-51 169h-191l-61 -165l80 -21v-32h-217v31l74 20l215 532h64l186 -534l69 -17v-32h-236zM301 494l-85 -229h159l-69 229h-5zM270 679q0 22 14 36t36 14q21 0 36 -14.5t15 -35.5t-15 -35t-36 -14q-22 0 -36 14t-14 35z" />
    <glyph glyph-name="uni0227" unicode="&#x227;" horiz-adv-x="464" 
d="M106 300h-42v121q86 38 155 38q68 0 109.5 -31.5t41.5 -101.5v-266l71 -29v-31h-130l-14 57q-63 -65 -144 -65q-53 0 -85 30.5t-32 85.5q0 60 57 101.5t152 41.5h50v62q0 49 -25 75.5t-64 26.5q-31 0 -70 -23zM294 86l1 112h-65q-121 0 -121 -73q0 -68 73 -68
q47 0 112 29zM176 620q0 23 16 38.5t40 15.5q23 0 39.5 -15.5t16.5 -38.5t-16.5 -39t-39.5 -16q-24 0 -40 16t-16 39z" />
    <glyph glyph-name="uni0228" unicode="&#x228;" horiz-adv-x="529" 
d="M266 -221q-41 0 -73 19l19 36q26 -14 57 -14q22 0 36.5 10.5t14.5 30.5q0 45 -71 60v14l37 65h-254v34l98 20v474l-98 20v35h451v-133h-46l-29 86h-192v-216l222 5v-56l-222 4v-225h198l49 96l38 -6l-16 -138h-155l-28 -51q33 -10 53 -32t20 -50q0 -36 -29.5 -62
t-79.5 -26z" />
    <glyph glyph-name="uni0229" unicode="&#x229;" horiz-adv-x="445" 
d="M203 -221q-41 0 -73 19l19 36q26 -14 57 -14q22 0 36.5 10.5t14.5 30.5q0 45 -71 60v14l33 58q-90 7 -137 65.5t-47 158.5q0 104 57.5 173t148.5 69q167 0 172 -218h-300v-13q0 -87 45 -132.5t117 -45.5q55 0 123 34l11 -20q-18 -24 -58.5 -45.5t-87.5 -25.5l-24 -44
q33 -10 53 -32t20 -50q0 -36 -29.5 -62t-79.5 -26zM224 418q-40 0 -69 -32t-38 -98h208q-11 130 -101 130z" />
    <glyph glyph-name="uni022E" unicode="&#x22e;" horiz-adv-x="650" 
d="M274 679q0 22 14 36t36 14q21 0 36 -14.5t15 -35.5t-15 -35t-36 -14q-22 0 -36 14t-14 35zM618 314q0 -134 -82 -228t-218 -94q-129 0 -207.5 78t-78.5 205q0 139 84 228t218 89q130 0 207 -77t77 -201zM522 295q0 113 -52.5 183.5t-142.5 70.5q-92 0 -146 -69t-54 -184
q0 -112 51.5 -186t142.5 -74q97 0 149 74t52 185z" />
    <glyph glyph-name="uni022F" unicode="&#x22f;" horiz-adv-x="479" 
d="M446 225q0 -93 -62 -163t-149 -70q-200 0 -200 228q0 95 62 167t146 72q203 0 203 -234zM361 213q0 203 -127 203q-116 0 -116 -180q0 -197 130 -197q35 0 58.5 14t35 40.5t15.5 54t4 65.5zM184 620q0 23 16 38.5t40 15.5q23 0 39.5 -15.5t16.5 -38.5t-16.5 -39
t-39.5 -16q-24 0 -40 16t-16 39z" />
    <glyph glyph-name="Ymacron" unicode="&#x232;" horiz-adv-x="560" 
d="M138 0v34l98 20v183l-176 296l-56 15v35h244v-34l-92 -23l141 -242h4l134 244l-88 20v35h211v-34l-50 -14l-187 -298v-183l100 -19v-35h-283zM416 651h-245v52h245v-52z" />
    <glyph glyph-name="ymacron" unicode="&#x233;" horiz-adv-x="489" 
d="M210 450v-30l-64 -20l103 -323h4l116 323l-67 19v31h195v-30l-70 -20l-147 -373l-73 -234h-82v26l84 174l-153 409l-60 17v31h214zM380 566h-246v55h246v-55z" />
    <glyph glyph-name="dotlessj" unicode="&#x237;" horiz-adv-x="272" 
d="M187 -1q0 -125 -96 -213l-37 24q58 63 58 194v387h-85v32l128 36h32v-460z" />
    <glyph glyph-name="schwa" unicode="&#x259;" horiz-adv-x="445" 
d="M335 224q0 87 -45 132t-117 45q-55 0 -123 -34l-11 19q20 27 66 50t97 23q103 0 157 -59t54 -165q0 -105 -57.5 -174t-148.5 -69q-167 0 -172 218h300v14zM224 32q39 0 68.5 33t38.5 99l-208 -1q11 -131 101 -131z" />
    <glyph glyph-name="circumflex" unicode="&#x2c6;" horiz-adv-x="377" 
d="M181 669h32l115 -122l-24 -28l-115 78l-113 -77l-24 23z" />
    <glyph glyph-name="caron" unicode="&#x2c7;" horiz-adv-x="445" 
d="M237 519h-32l-115 122l24 28l115 -78l112 77l24 -23z" />
    <glyph glyph-name="breve" unicode="&#x2d8;" horiz-adv-x="330" 
d="M164 526q-49 0 -79 29.5t-39 74.5l43 12q8 -29 27.5 -49t49.5 -20q37 0 59 20.5t24 47.5l40 -11q-7 -49 -41.5 -76.5t-83.5 -27.5z" />
    <glyph glyph-name="dotaccent" unicode="&#x2d9;" horiz-adv-x="301" 
d="M95 620q0 23 16 38.5t40 15.5q23 0 39.5 -15.5t16.5 -38.5t-16.5 -39t-39.5 -16q-24 0 -40 16t-16 39z" />
    <glyph glyph-name="ring" unicode="&#x2da;" horiz-adv-x="311" 
d="M155 679q36 0 62 -20t26 -57q0 -36 -26.5 -57t-61.5 -21q-34 0 -59.5 20.5t-25.5 57.5t25.5 57t59.5 20zM155 647q-20 0 -32.5 -12.5t-12.5 -32.5t12.5 -33t32.5 -13t33 13t13 33t-13 32.5t-33 12.5z" />
    <glyph glyph-name="ogonek" unicode="&#x2db;" horiz-adv-x="294" 
d="M236 -150l14 -39q-32 -19 -85 -19q-50 0 -75 23.5t-25 62.5q0 58 46.5 100.5t105.5 66.5l35 -21q-52 -17 -88.5 -54t-36.5 -79q1 -26 16.5 -39.5t37.5 -13.5q31 0 55 12z" />
    <glyph glyph-name="tilde" unicode="&#x2dc;" horiz-adv-x="405" 
d="M336 603q-44 -47 -96 -47q-18 0 -44.5 14t-39.5 14q-36 0 -63 -26l-24 29q46 49 98 49q22 0 49.5 -13.5t38.5 -13.5q16 0 30.5 5.5t21.5 11.5l7 5z" />
    <glyph glyph-name="hungarumlaut" unicode="&#x2dd;" horiz-adv-x="451" 
d="M85 520l-27 23l121 163l51 -48zM245 521l-25 26l136 149l47 -54z" />
    <glyph glyph-name="gravecmb" unicode="&#x300;" horiz-adv-x="0" 
d="M-350 640l47 55l147 -148l-24 -26z" />
    <glyph glyph-name="acutecmb" unicode="&#x301;" horiz-adv-x="0" 
d="M-161 695l46 -55l-169 -119l-24 26z" />
    <glyph glyph-name="circumflexcmb" unicode="&#x302;" horiz-adv-x="0" 
d="M-242 669h32l115 -122l-24 -28l-115 78l-112 -77l-24 23z" />
    <glyph glyph-name="tildecmb" unicode="&#x303;" horiz-adv-x="0" 
d="M-83 603q-44 -47 -96 -47q-18 0 -54 14t-49 14q-36 0 -63 -26l-25 29q46 49 99 49q22 0 59 -13.5t48 -13.5q16 0 30.5 5.5t21.5 11.5l7 5z" />
    <glyph glyph-name="macroncmb" unicode="&#x304;" horiz-adv-x="0" 
d="M-112 566h-246v55h246v-55z" />
    <glyph glyph-name="brevecmb" unicode="&#x306;" horiz-adv-x="0" 
d="M-230 525q-49 0 -79 30t-39 75l43 11q8 -29 27.5 -49t49.5 -20q37 0 59 20.5t24 47.5l40 -11q-7 -48 -41.5 -76t-83.5 -28z" />
    <glyph glyph-name="dotaccentcmb" unicode="&#x307;" horiz-adv-x="0" 
d="M-289 620q0 24 16 39.5t39 15.5q24 0 40.5 -15.5t16.5 -39.5q0 -23 -16.5 -39t-40.5 -16q-23 0 -39 16t-16 39z" />
    <glyph glyph-name="dieresiscmb" unicode="&#x308;" horiz-adv-x="0" 
d="M-378 617q0 21 14 35t36 14q20 0 34 -14t14 -35q0 -20 -14 -34.5t-34 -14.5q-22 0 -36 14t-14 35zM-200 617q0 21 14.5 35t35.5 14q20 0 34 -14t14 -35q0 -20 -14 -34.5t-34 -14.5q-21 0 -35.5 14.5t-14.5 34.5z" />
    <glyph glyph-name="hookcmb" unicode="&#x309;" horiz-adv-x="0" 
d="M-136 619q0 -68 -86 -105l-28 20q20 7 39.5 27t19.5 41q0 41 -37 41q-22 0 -48 -18l-17 39q36 27 74 27q40 0 61.5 -20t21.5 -52z" />
    <glyph glyph-name="ringcmb" unicode="&#x30a;" horiz-adv-x="0" 
d="M-235 680q35 0 61.5 -20.5t26.5 -56.5t-27 -57t-61 -21t-59.5 20.5t-25.5 57.5t25.5 57t59.5 20zM-235 648q-20 0 -32.5 -12.5t-12.5 -32.5t12.5 -33t32.5 -13t33 13t13 33t-13 32.5t-33 12.5z" />
    <glyph glyph-name="hungarumlautcmb" unicode="&#x30b;" horiz-adv-x="0" 
d="M-322 520l-27 23l122 163l51 -48zM-161 521l-25 26l136 149l46 -54z" />
    <glyph glyph-name="caroncmb" unicode="&#x30c;" horiz-adv-x="0" 
d="M-215 519h-32l-116 122l25 28l115 -78l112 77l24 -23z" />
    <glyph glyph-name="candrabinducmb" unicode="&#x310;" horiz-adv-x="0" 
d="M-228 523q-49 0 -79 30.5t-39 75.5l35 9q7 -27 30.5 -47t54.5 -20q37 0 62 19.5t34 45.5l27 -8q-7 -47 -42 -76t-83 -29zM-268 664q0 20 12.5 32.5t31.5 12.5t32 -13t13 -32q0 -18 -13 -30.5t-32 -12.5t-31.5 12.5t-12.5 30.5z" />
    <glyph glyph-name="dotbelowcmb" unicode="&#x323;" horiz-adv-x="0" 
d="M-275 -113q0 22 14 36t36 14q21 0 36 -14.5t15 -35.5t-15 -35t-36 -14q-22 0 -36 14t-14 35z" />
    <glyph glyph-name="dieresisbelowcmb" unicode="&#x324;" horiz-adv-x="0" 
d="M-377 -104q0 21 13.5 35t35.5 14q20 0 34.5 -14t14.5 -35q0 -20 -14.5 -34.5t-34.5 -14.5q-21 0 -35 14t-14 35zM-199 -104q0 21 14 35t35 14q20 0 34 -14t14 -35q0 -20 -14 -34.5t-34 -14.5q-21 0 -35 14.5t-14 34.5z" />
    <glyph glyph-name="ringbelowcmb" unicode="&#x325;" horiz-adv-x="0" 
d="M-242 -52q35 0 61.5 -20t26.5 -57q0 -35 -27 -56.5t-61 -21.5t-59.5 20.5t-25.5 57.5t25 57t60 20zM-242 -84q-20 0 -32.5 -12.5t-12.5 -32.5t12.5 -33t32.5 -13t33 13t13 33t-13 32.5t-33 12.5z" />
    <glyph glyph-name="cedillacmb" unicode="&#x327;" horiz-adv-x="0" 
d="M-268 -221q-41 0 -73 19l19 36q26 -14 57 -14q22 0 37 10.5t15 30.5q0 45 -72 60v14l47 80h44l-38 -66q34 -10 54 -32t20 -50q0 -36 -30 -62t-80 -26z" />
    <glyph glyph-name="ogonekcmb" unicode="&#x328;" horiz-adv-x="0" 
d="M-153 -150l14 -39q-32 -19 -86 -19q-49 0 -74 23.5t-25 62.5q0 58 46.5 100.5t105.5 66.5l34 -21q-52 -17 -88 -54t-36 -79q1 -26 16.5 -39.5t37.5 -13.5q31 0 55 12z" />
    <glyph glyph-name="brevebelowcmb" unicode="&#x32e;" horiz-adv-x="0" 
d="M-244 -167q-49 0 -79 29.5t-39 74.5l43 12q8 -29 27.5 -49t49.5 -20q37 0 59 20.5t24 46.5l40 -11q-7 -48 -41.5 -75.5t-83.5 -27.5z" />
    <glyph glyph-name="macronbelowcmb" unicode="&#x331;" horiz-adv-x="0" 
d="M-108 -144h-246v54h246v-54z" />
    <glyph glyph-name="uni0374" unicode="&#x374;" horiz-adv-x="211" 
d="M182 624q0 -56 -36 -108t-95 -86l-20 20q28 24 49.5 57t21.5 60q0 35 -41 57q0 23 18.5 42t41.5 19q26 0 43.5 -17.5t17.5 -43.5z" />
    <glyph glyph-name="uni0375" unicode="&#x375;" horiz-adv-x="211" 
d="M183 43q0 -56 -36.5 -108.5t-95.5 -86.5l-20 20q29 25 50.5 58t21.5 60q0 35 -42 57q0 23 18.5 42t42.5 19q26 0 43.5 -17.5t17.5 -43.5z" />
    <glyph glyph-name="uni037E" unicode="&#x37e;" horiz-adv-x="264" 
d="M227 37q0 -62 -40.5 -120t-105.5 -96l-22 22q32 27 55.5 64t23.5 66q0 38 -46 64q0 25 20.5 46t46.5 21q29 0 48.5 -19.5t19.5 -47.5zM99 395q0 26 19 45.5t45 19.5t45 -19.5t19 -45.5t-19 -44.5t-45 -18.5t-45 18.5t-19 44.5z" />
    <glyph glyph-name="tonos" unicode="&#x384;" horiz-adv-x="295" 
d="M126 713l71 -14l-52 -183l-36 6z" />
    <glyph glyph-name="dieresistonos" unicode="&#x385;" horiz-adv-x="396" 
d="M49 585q0 19 12.5 31t32.5 12q19 0 32 -12t13 -31t-13 -32t-32 -13t-32 13t-13 32zM261 585q0 19 12.5 31t32.5 12q19 0 31.5 -12t12.5 -31t-12.5 -32t-31.5 -13t-32 13t-13 32zM184 713l72 -14l-52 -183l-37 6z" />
    <glyph glyph-name="Alphatonos" unicode="&#x386;" horiz-adv-x="607" 
d="M372 0v31l68 18l-51 169h-191l-61 -165l80 -21v-32h-217v31l74 20l215 532h64l186 -534l69 -17v-32h-236zM301 494l-85 -229h159l-69 229h-5zM101 593l71 -14l-52 -183l-36 6z" />
    <glyph glyph-name="anoteleia" unicode="&#x387;" horiz-adv-x="256" 
d="M59 289q0 28 21 49t49 21t48 -21t20 -49t-20 -48t-48 -20t-49 20t-21 48z" />
    <glyph glyph-name="Epsilontonos" unicode="&#x388;" horiz-adv-x="529" 
d="M-83 593l71 -14l-52 -183l-36 6zM438 269l-222 4v-225h198l49 96l38 -6l-16 -138h-453v34l98 20v474l-98 20v35h451v-133h-46l-29 86h-192v-216l222 5v-56z" />
    <glyph glyph-name="Etatonos" unicode="&#x389;" horiz-adv-x="718" 
d="M-86 593l71 -14l-52 -183l-36 6zM404 0v34l97 20v220h-285v-220l99 -19v-35h-283v34l98 20v474l-98 20v35h283v-34l-99 -21v-208h285v208l-97 20v35h282v-34l-99 -20v-475l99 -19v-35h-282z" />
    <glyph glyph-name="Iotatonos" unicode="&#x38a;" horiz-adv-x="372" 
d="M45 0v34l98 20v474l-98 20v35h283v-34l-100 -21v-474l100 -19v-35h-283zM-69 593l71 -14l-52 -183l-36 6z" />
    <glyph glyph-name="Omicrontonos" unicode="&#x38c;" horiz-adv-x="650" 
d="M-46 593l71 -14l-52 -183l-36 6zM618 314q0 -134 -82 -228t-218 -94q-129 0 -207.5 78t-78.5 205q0 139 84 228t218 89q130 0 207 -77t77 -201zM522 295q0 113 -52.5 183.5t-142.5 70.5q-92 0 -146 -69t-54 -184q0 -112 51.5 -186t142.5 -74q97 0 149 74t52 185z" />
    <glyph glyph-name="Upsilontonos" unicode="&#x38e;" horiz-adv-x="560" 
d="M-109 593l71 -14l-52 -183l-36 6zM128 0v34l97 20v144q0 112 -53 213.5t-116 122.5q-28 0 -50 -3l-6 37q62 24 113 24q28 -12 48.5 -29.5t43 -50.5t40.5 -90.5t30 -137.5h8q18 118 80 203t130 105q41 -4 72 -17l-5 -48q-62 -6 -111 -43.5t-78.5 -93.5t-44.5 -118
t-15 -122v-96l99 -19v-35h-282z" />
    <glyph glyph-name="Omegatonos" unicode="&#x38f;" horiz-adv-x="656" 
d="M-16 593l71 -14l-52 -183l-36 6zM571 54l25 72h29v-126h-219l-15 50q64 44 100 113t36 143q0 108 -49.5 175.5t-145.5 67.5q-100 0 -147 -66.5t-47 -175.5q0 -178 121 -262l-14 -45h-208v126h28l26 -72h99l1 2q-57 27 -102 102t-45 145q0 122 83 205.5t212 83.5
q137 0 210.5 -75t73.5 -193q0 -74 -50.5 -153t-114.5 -115v-2h113z" />
    <glyph glyph-name="iotadieresistonos" unicode="&#x390;" horiz-adv-x="270" 
d="M-18 585q0 19 12.5 31t32.5 12q19 0 32 -12t13 -31t-13 -32t-32 -13t-32 13t-13 32zM194 585q0 19 12.5 31t32.5 12q19 0 31.5 -12t12.5 -31t-12.5 -32t-31.5 -13t-32 13t-13 32zM117 713l72 -14l-52 -183l-37 6zM84 65v385h75v-366q0 -37 48 -37q3 0 33 3l4 -42
q-45 -15 -87 -15q-73 0 -73 72z" />
    <glyph glyph-name="Alpha" unicode="&#x391;" horiz-adv-x="607" 
d="M372 0v31l68 18l-51 169h-191l-61 -165l80 -21v-32h-217v31l74 20l215 532h64l186 -534l69 -17v-32h-236zM301 494l-85 -229h159l-69 229h-5z" />
    <glyph glyph-name="Beta" unicode="&#x392;" horiz-adv-x="570" 
d="M32 548v35h252q101 0 158 -37t57 -107q0 -95 -92 -128v-2q21 -3 41 -10.5t42 -22.5t35.5 -43.5t13.5 -66.5q0 -76 -58.5 -121t-171.5 -45h-277v34l98 20v474zM262 278h-46v-230h75q71 0 115.5 27t44.5 88q0 66 -49 90.5t-140 24.5zM262 539h-46v-213h56q136 0 136 104
q0 109 -146 109z" />
    <glyph glyph-name="Gamma" unicode="&#x393;" horiz-adv-x="481" 
d="M32 0v34l98 20v475l-98 19v35h450v-167h-35l-40 120h-191v-482l99 -19v-35h-283z" />
    <glyph glyph-name="uni0394" unicode="&#x394;" 
d="M47 0l-8 34l243 549h64l210 -547l-8 -36h-501zM295 495l-183 -439h339l-151 438z" />
    <glyph glyph-name="Epsilon" unicode="&#x395;" horiz-adv-x="529" 
d="M438 269l-222 4v-225h198l49 96l38 -6l-16 -138h-453v34l98 20v474l-98 20v35h451v-133h-46l-29 86h-192v-216l222 5v-56z" />
    <glyph glyph-name="Zeta" unicode="&#x396;" horiz-adv-x="487" 
d="M25 0l-9 31l319 504h-238l-37 -119h-28v167h418l7 -22l-334 -512h257l53 112l29 -5l-14 -156h-423z" />
    <glyph glyph-name="Eta" unicode="&#x397;" horiz-adv-x="718" 
d="M404 0v34l97 20v220h-285v-220l99 -19v-35h-283v34l98 20v474l-98 20v35h283v-34l-99 -21v-208h285v208l-97 20v35h282v-34l-99 -20v-475l99 -19v-35h-282z" />
    <glyph glyph-name="Theta" unicode="&#x398;" horiz-adv-x="650" 
d="M618 314q0 -134 -82 -228t-218 -94q-129 0 -207.5 78t-78.5 205q0 139 84 228t218 89q130 0 207 -77t77 -201zM522 295q0 113 -52.5 183.5t-142.5 70.5q-92 0 -146 -69t-54 -184q0 -112 51.5 -186t142.5 -74q97 0 149 74t52 185zM270 258l-16 -59h-28v184h28l16 -63h110
l14 63h29v-184h-28l-15 59h-110z" />
    <glyph glyph-name="Iota" unicode="&#x399;" horiz-adv-x="372" 
d="M45 0v34l98 20v474l-98 20v35h283v-34l-100 -21v-474l100 -19v-35h-283z" />
    <glyph glyph-name="Kappa" unicode="&#x39a;" horiz-adv-x="600" 
d="M32 0v34l98 20v474l-98 20v35h283v-34l-99 -21v-474l99 -19v-35h-283zM454 0l-221 293v17l209 218l-59 22v33h203v-35l-65 -21l-205 -204l213 -267l82 -20v-36h-157z" />
    <glyph glyph-name="Lambda" unicode="&#x39b;" horiz-adv-x="607" 
d="M372 0v31l68 17l-134 446h-5l-164 -441l80 -21v-32h-217v31l73 20l216 532h64l186 -534l69 -17v-32h-236z" />
    <glyph glyph-name="Mu" unicode="&#x39c;" horiz-adv-x="839" 
d="M559 0v34l85 19l-36 415h-4l-179 -476h-51l-175 483h-4l-36 -419l86 -21v-35h-237v34l89 19l47 474l-87 21v35h196l161 -467h5l166 467h191v-34l-89 -23l48 -473l90 -18v-35h-266z" />
    <glyph glyph-name="Nu" unicode="&#x39d;" horiz-adv-x="676" 
d="M34 0v34l78 21v466l-80 26v36h176l303 -426h4v370l-87 21v35h224v-34l-77 -21v-536h-61l-340 479h-3v-415l88 -21v-35h-225z" />
    <glyph glyph-name="Xi" unicode="&#x39e;" horiz-adv-x="528" 
d="M405 59l48 96l38 -6l-16 -149h-419l-16 149l38 6l48 -96h279zM133 526l-29 -87h-46v144h415v-144h-46l-29 87h-265zM170 258l-16 -59h-27v184h27l16 -63h190l15 63h29v-184h-28l-16 59h-190z" />
    <glyph glyph-name="Omicron" unicode="&#x39f;" horiz-adv-x="650" 
d="M618 314q0 -134 -82 -228t-218 -94q-129 0 -207.5 78t-78.5 205q0 139 84 228t218 89q130 0 207 -77t77 -201zM522 295q0 113 -52.5 183.5t-142.5 70.5q-92 0 -146 -69t-54 -184q0 -112 51.5 -186t142.5 -74q97 0 149 74t52 185z" />
    <glyph glyph-name="Pi" unicode="&#x3a0;" horiz-adv-x="718" 
d="M404 0v34l97 19v482h-285v-481l99 -19v-35h-283v34l98 20v475l-98 19v35h654v-34l-99 -20v-475l99 -19v-35h-282z" />
    <glyph glyph-name="Rho" unicode="&#x3a1;" horiz-adv-x="519" 
d="M32 0v34l98 20v474l-98 20v35h284q92 0 145 -44.5t53 -133.5q0 -80 -61.5 -127.5t-178.5 -47.5h-58v-176l99 -19v-35h-283zM284 534h-68v-257h53q158 5 158 125q0 58 -38 94.5t-105 37.5z" />
    <glyph glyph-name="Sigma" unicode="&#x3a3;" horiz-adv-x="487" 
d="M140 534l152 -217l-171 -245h259l53 89l28 -4l-14 -157h-423l-9 31l189 264l-177 257l7 31h411v-167h-28l-37 118h-240z" />
    <glyph glyph-name="Tau" unicode="&#x3a4;" horiz-adv-x="525" 
d="M122 0v34l98 20v481h-128l-48 -119h-31v167h503v-167h-31l-55 119h-124v-481l100 -19v-35h-284z" />
    <glyph glyph-name="Upsilon" unicode="&#x3a5;" horiz-adv-x="560" 
d="M128 0v34l97 20v144q0 112 -53 213.5t-116 122.5q-28 0 -50 -3l-6 37q62 24 113 24q28 -12 48.5 -29.5t43 -50.5t40.5 -90.5t30 -137.5h8q18 118 80 203t130 105q41 -4 72 -17l-5 -48q-62 -6 -111 -43.5t-78.5 -93.5t-44.5 -118t-15 -122v-96l99 -19v-35h-282z" />
    <glyph glyph-name="Phi" unicode="&#x3a6;" horiz-adv-x="658" 
d="M191 0v34l98 20v39q-125 1 -197 50.5t-72 142.5q0 97 74 159t195 67v38l-98 19v35h282v-34l-99 -20v-37q127 -1 198 -53.5t71 -142.5q0 -94 -71.5 -156.5t-197.5 -67.5v-39l99 -19v-35h-282zM554 306q0 77 -48.5 120t-131.5 46v-338q85 4 132.5 49.5t47.5 122.5zM108 300
q0 -77 48.5 -120.5t132.5 -45.5v338q-82 -4 -131.5 -50.5t-49.5 -121.5z" />
    <glyph glyph-name="Chi" unicode="&#x3a7;" horiz-adv-x="585" 
d="M337 0v35l53 16l-116 190l-122 -183l87 -22v-36h-223v35l59 15l174 232l-151 247l-70 18v36h240v-35l-65 -20l105 -168l115 168l-69 19v36h213v-35l-80 -22l-154 -206l166 -265l71 -19v-36h-233z" />
    <glyph glyph-name="Psi" unicode="&#x3a8;" horiz-adv-x="691" 
d="M208 0v34l98 20v136q-88 5 -139 31q-97 47 -97 167v135h-79v35l113 25h47v-202q0 -88 58 -119q31 -16 97 -19v287l-79 18v35h245v-34l-81 -19v-289q77 2 109 22q54 35 54 148v172h47l114 -25v-35h-80v-127q0 -124 -98 -173q-60 -30 -146 -33v-136l100 -19v-35h-283z" />
    <glyph glyph-name="Omega" unicode="&#x3a9;" horiz-adv-x="656" 
d="M571 54l25 72h29v-126h-219l-15 50q64 44 100 113t36 143q0 108 -49.5 175.5t-145.5 67.5q-100 0 -147 -66.5t-47 -175.5q0 -178 121 -262l-14 -45h-208v126h28l26 -72h99l1 2q-57 27 -102 102t-45 145q0 122 83 205.5t212 83.5q137 0 210.5 -75t73.5 -193
q0 -74 -50.5 -153t-114.5 -115v-2h113z" />
    <glyph glyph-name="Omega" unicode="&#x2126;" horiz-adv-x="656" 
d="M571 54l25 72h29v-126h-219l-15 50q64 44 100 113t36 143q0 108 -49.5 175.5t-145.5 67.5q-100 0 -147 -66.5t-47 -175.5q0 -178 121 -262l-14 -45h-208v126h28l26 -72h99l1 2q-57 27 -102 102t-45 145q0 122 83 205.5t212 83.5q137 0 210.5 -75t73.5 -193
q0 -74 -50.5 -153t-114.5 -115v-2h113z" />
    <glyph glyph-name="Iotadieresis" unicode="&#x3aa;" horiz-adv-x="372" 
d="M45 0v34l98 20v474l-98 20v35h283v-34l-100 -21v-474l100 -19v-35h-283zM49 678q0 22 13.5 36t34.5 14t35.5 -14t14.5 -36q0 -20 -14.5 -34t-35.5 -14t-34.5 14t-13.5 34zM227 678q0 22 14 36t35 14t35 -14t14 -36q0 -20 -14 -34t-35 -14t-35 14t-14 34z" />
    <glyph glyph-name="Upsilondieresis" unicode="&#x3ab;" horiz-adv-x="560" 
d="M128 0v34l97 20v144q0 112 -53 213.5t-116 122.5q-28 0 -50 -3l-6 37q62 24 113 24q28 -12 48.5 -29.5t43 -50.5t40.5 -90.5t30 -137.5h8q18 118 80 203t130 105q41 -4 72 -17l-5 -48q-62 -6 -111 -43.5t-78.5 -93.5t-44.5 -118t-15 -122v-96l99 -19v-35h-282zM157 678
q0 22 13.5 36t34.5 14t35.5 -14t14.5 -36q0 -20 -14.5 -34t-35.5 -14t-34.5 14t-13.5 34zM335 678q0 22 14 36t35 14t35 -14t14 -36q0 -20 -14 -34t-35 -14t-35 14t-14 34z" />
    <glyph glyph-name="alphatonos" unicode="&#x3ac;" horiz-adv-x="520" 
d="M258 718l71 -14l-52 -183l-36 6zM415 199v-104q0 -28 22.5 -40.5t52.5 -7.5l4 -38q-38 -17 -81 -17q-33 0 -52.5 20.5t-19.5 51.5v21q-60 -93 -147 -93q-72 0 -115.5 51t-43.5 165q0 111 64 180.5t154 69.5q64 0 102 -65q5 30 14 54l72 11l6 -15q-32 -79 -32 -244z
M223 54q69 0 118 91v58q0 55 2 83q-15 56 -47.5 85t-69.5 29q-113 0 -113 -166q0 -180 110 -180z" />
    <glyph glyph-name="epsilontonos" unicode="&#x3ad;" horiz-adv-x="419" 
d="M216 717l71 -14l-52 -183l-36 6zM222 459q84 0 145 -38v-86h-31q-24 45 -50.5 62.5t-66.5 17.5t-66 -22t-26 -58q0 -28 19.5 -51.5t45.5 -27.5q38 6 113 11q4 -26 -5 -57q-12 0 -59.5 3.5t-55.5 5.5q-66 -16 -66 -81q0 -46 30 -72.5t79 -26.5q79 0 124 76h29v-70
q-66 -53 -170 -53q-76 0 -126 35.5t-50 98.5q0 75 88 108v5q-35 14 -55.5 40.5t-20.5 56.5q0 53 55.5 88t119.5 35z" />
    <glyph glyph-name="etatonos" unicode="&#x3ae;" horiz-adv-x="519" 
d="M285 717l71 -14l-52 -183l-36 6zM453 -207h-76v499q0 53 -23 78t-74 25q-43 0 -106 -39v-356h-75v375q0 29 -39 29q-17 0 -44 -5l-4 35q56 25 110 25q26 0 39 -18.5t13 -47.5v-1q69 67 146 67q66 0 99.5 -43t33.5 -119v-504z" />
    <glyph glyph-name="iotatonos" unicode="&#x3af;" horiz-adv-x="270" 
d="M115 717l71 -14l-52 -183l-36 6zM84 65v385h75v-366q0 -37 48 -37q3 0 33 3l4 -42q-45 -15 -87 -15q-73 0 -73 72z" />
    <glyph glyph-name="upsilondieresistonos" unicode="&#x3b0;" horiz-adv-x="495" 
d="M105 585q0 19 12.5 31t32.5 12q19 0 32 -12t13 -31t-13 -32t-32 -13t-32 13t-13 32zM317 585q0 19 12.5 31t32.5 12q19 0 31.5 -12t12.5 -31t-12.5 -32t-31.5 -13t-32 13t-13 32zM240 713l72 -14l-52 -183l-37 6zM162 393v-225q0 -55 29.5 -88.5t79.5 -33.5
q62 0 90.5 58.5t28.5 140.5q0 54 -12 97l-71 77v22q55 18 85 18q28 -21 46.5 -69t18.5 -109q0 -51 -11 -99.5t-33.5 -92.5t-64 -70.5t-96.5 -26.5q-76 0 -120.5 41.5t-44.5 125.5v216q0 29 -38 29q-4 0 -22 -2.5t-23 -2.5l-4 35q56 25 108 25q54 0 54 -66z" />
    <glyph glyph-name="alpha" unicode="&#x3b1;" horiz-adv-x="520" 
d="M415 199v-104q0 -28 22.5 -40.5t52.5 -7.5l4 -38q-38 -17 -81 -17q-33 0 -52.5 20.5t-19.5 51.5v21q-60 -93 -147 -93q-72 0 -115.5 51t-43.5 165q0 111 64 180.5t154 69.5q64 0 102 -65q5 30 14 54l72 11l6 -15q-32 -79 -32 -244zM223 54q69 0 118 91v58q0 55 2 83
q-15 56 -47.5 85t-69.5 29q-113 0 -113 -166q0 -180 110 -180z" />
    <glyph glyph-name="beta" unicode="&#x3b2;" horiz-adv-x="490" 
d="M245 -7q-57 0 -100 19v-219h-75v707q0 93 50.5 151.5t123.5 58.5q82 0 129.5 -40.5t47.5 -109.5q0 -63 -40 -109t-89 -62v-5q73 -9 121 -56.5t48 -125.5q0 -66 -39.5 -116t-87.5 -71t-89 -22zM145 528v-458q46 -28 92 -28q138 0 138 159q0 62 -49.5 100.5t-130.5 39.5
l1 57q55 1 97.5 50.5t42.5 98.5q0 56 -25.5 87t-72.5 31q-44 0 -68.5 -36t-24.5 -101z" />
    <glyph glyph-name="gamma" unicode="&#x3b3;" horiz-adv-x="458" 
d="M268 -204q-22 -10 -48 -10q-16 0 -40 4l23 184q-54 245 -107 371q-14 32 -27 45t-34 14q-11 0 -31 -6l-12 29q44 31 97 32q27 0 39.5 -11.5t26.5 -46.5q39 -89 91 -328h6l144 386q53 0 78 -17q-12 -27 -101 -215t-113 -246q7 -123 8 -185z" />
    <glyph glyph-name="delta" unicode="&#x3b4;" horiz-adv-x="476" 
d="M33 200q0 124 146 232q-91 95 -91 152q0 51 47 88t101 37q111 0 198 -51l-30 -67l-21 -3q-87 73 -164 73q-27 0 -44.5 -15t-17.5 -40q0 -26 45.5 -77.5t99.5 -102.5t99.5 -114t45.5 -110q0 -88 -66 -148.5t-152 -60.5q-92 0 -144 60t-52 147zM366 168q0 28 -11.5 56.5
t-43 66t-45 52.5t-59.5 61q-88 -92 -88 -202q0 -62 31.5 -111t93.5 -49q52 0 87 34t35 92z" />
    <glyph glyph-name="epsilon" unicode="&#x3b5;" horiz-adv-x="419" 
d="M222 459q84 0 145 -38v-86h-31q-24 45 -50.5 62.5t-66.5 17.5t-66 -22t-26 -58q0 -28 19.5 -51.5t45.5 -27.5q38 6 113 11q4 -26 -5 -57q-12 0 -59.5 3.5t-55.5 5.5q-66 -16 -66 -81q0 -46 30 -72.5t79 -26.5q79 0 124 76h29v-70q-66 -53 -170 -53q-76 0 -126 35.5
t-50 98.5q0 75 88 108v5q-35 14 -55.5 40.5t-20.5 56.5q0 53 55.5 88t119.5 35z" />
    <glyph glyph-name="zeta" unicode="&#x3b6;" horiz-adv-x="369" 
d="M63 703h21q80 -48 162 -48q44 0 104 11q9 -28 10 -50q-104 -81 -168 -195t-64 -215q0 -68 24.5 -99.5t80.5 -48.5q122 -37 129 -56q0 -48 -24.5 -102t-45.5 -74l-37 14q35 76 35 121q-18 15 -111 37q-70 17 -103.5 56.5t-33.5 130.5q0 100 72 223t162 188l-2 5
q-32 -5 -61 -5q-100 0 -162 35z" />
    <glyph glyph-name="eta" unicode="&#x3b7;" horiz-adv-x="519" 
d="M453 -207h-76v499q0 53 -23 78t-74 25q-43 0 -106 -39v-356h-75v375q0 29 -39 29q-17 0 -44 -5l-4 35q56 25 110 25q26 0 39 -18.5t13 -47.5v-1q69 67 146 67q66 0 99.5 -43t33.5 -119v-504z" />
    <glyph glyph-name="theta" unicode="&#x3b8;" horiz-adv-x="487" 
d="M444 361q0 -104 -22.5 -186t-70 -132.5t-113.5 -50.5q-101 0 -147 96.5t-46 254.5q0 160 53 262.5t154 102.5q192 0 192 -347zM250 32q33 0 54.5 22.5t32 67.5t14.5 90.5t5 113.5h-227q1 -79 12 -142t39 -107.5t70 -44.5zM238 670q-32 0 -53.5 -22t-33 -65t-16.5 -92.5
t-6 -118.5h227q-4 298 -118 298z" />
    <glyph glyph-name="iota" unicode="&#x3b9;" horiz-adv-x="270" 
d="M84 65v385h75v-366q0 -37 48 -37q3 0 33 3l4 -42q-45 -15 -87 -15q-73 0 -73 72z" />
    <glyph glyph-name="kappa" unicode="&#x3ba;" horiz-adv-x="500" 
d="M172 390v-165l154 166q36 39 59.5 53.5t54.5 14.5q26 0 49 -7l-14 -76h-22l-64 11l-120 -122l127 -184q21 -30 56 -30q17 0 35 6l7 -39q-51 -26 -89 -26q-45 0 -70 42l-119 176l-44 -46v-164h-76v367q0 35 -44 35q-3 0 -36 -3l-4 45q50 15 102 15q34 0 46 -16t12 -53z
" />
    <glyph glyph-name="lambda" unicode="&#x3bb;" horiz-adv-x="482" 
d="M12 685q56 21 106 21q46 0 79.5 -31t47.5 -80l145 -512q10 -33 33 -33q25 0 43 6l6 -32q-47 -32 -89 -32t-52 30l-105 365l-119 -387h-79v19l180 435l-32 114q-14 47 -23.5 60.5t-33.5 13.5q-22 0 -88 -31z" />
    <glyph glyph-name="nu" unicode="&#x3bd;" horiz-adv-x="452" 
d="M204 -8l-121 361q-17 46 -46 46q-16 0 -37 -7l-11 31q44 36 95 36q48 0 68 -65l98 -308h6q53 98 77 156t24 104q-27 46 -47 66v24q43 21 71 22q21 -11 33.5 -36.5t12.5 -53.5q0 -53 -44 -140.5t-130 -227.5z" />
    <glyph glyph-name="xi" unicode="&#x3be;" horiz-adv-x="402" 
d="M255 709q92 0 158 -42l-24 -62l-25 -4q-29 32 -54.5 45.5t-62.5 13.5q-103 0 -103 -120q0 -56 28.5 -91t74.5 -42q17 1 34.5 2.5t37.5 4t30 3.5q7 -39 -7 -69q-13 0 -52.5 5t-49.5 5q-47 -7 -81.5 -45t-34.5 -97q0 -62 28.5 -99t96.5 -51q103 -22 150 -54
q-1 -57 -28 -108.5t-49 -66.5l-31 15q36 69 33 118q-19 11 -140 35q-73 16 -111 65.5t-38 123.5q0 60 38.5 108.5t102.5 75.5v4q-48 13 -81.5 56.5t-33.5 92.5q0 66 56 122t138 56z" />
    <glyph glyph-name="omicron" unicode="&#x3bf;" horiz-adv-x="479" 
d="M444 225q0 -93 -61 -163t-147 -70q-198 0 -198 228q0 95 61 167t145 72q200 0 200 -234zM370 214q0 35 -6 65.5t-20 60t-42 46.5t-67 17q-123 0 -123 -167q0 -81 32 -133.5t105 -52.5q68 0 94.5 43.5t26.5 120.5z" />
    <glyph glyph-name="pi" unicode="&#x3c0;" horiz-adv-x="546" 
d="M500 450v-65h-71v-277q0 -56 35 -56q33 0 55 2l6 -35q-46 -27 -97 -27q-40 0 -54.5 27.5t-13.5 76.5v289h-188v-385h-69v385h-87v17l39 48h445z" />
    <glyph glyph-name="rho" unicode="&#x3c1;" horiz-adv-x="468" 
d="M130 -207h-75v433q0 109 55.5 171t145.5 62q85 0 133 -60t48 -163q0 -106 -68 -175t-165 -69q-41 0 -74 15v-214zM130 246v-162q52 -41 98 -41q65 0 95 53t30 122q0 89 -32.5 141t-89.5 52q-47 0 -74 -42.5t-27 -122.5z" />
    <glyph glyph-name="sigma1" unicode="&#x3c2;" horiz-adv-x="425" 
d="M199 4q-88 21 -125 77.5t-37 146.5q0 99 58 165t145 66q81 0 139 -27l-15 -82h-26q-32 32 -55.5 45t-56.5 13q-112 0 -112 -167q0 -143 143 -176q70 -17 92.5 -24.5t28.5 -17.5q0 -49 -28 -108t-49 -79l-37 14q38 83 38 127q-5 4 -14 6.5t-19 5t-30.5 6.5t-39.5 9z" />
    <glyph glyph-name="sigma" unicode="&#x3c3;" horiz-adv-x="497" 
d="M486 447l4 -73l-22 -12l-83 21q46 -87 46 -163q0 -93 -58 -160.5t-139 -67.5q-199 0 -199 228q0 105 73.5 172t173.5 67q118 0 204 -12zM358 218q0 97 -26 174q-53 10 -92 10q-126 0 -126 -167q0 -52 11 -91.5t42 -68t81 -28.5q110 0 110 171z" />
    <glyph glyph-name="tau" unicode="&#x3c4;" horiz-adv-x="380" 
d="M368 450v-65h-164q-4 -103 -4 -231q0 -56 17 -77t52 -21q34 0 70 11l7 -40q-65 -35 -121 -35q-100 0 -100 128q0 123 24 265h-144v17l21 48h342z" />
    <glyph glyph-name="upsilon" unicode="&#x3c5;" horiz-adv-x="495" 
d="M162 393v-225q0 -55 29.5 -88.5t79.5 -33.5q62 0 90.5 58.5t28.5 140.5q0 54 -12 97l-71 77v22q55 18 85 18q28 -21 46.5 -69t18.5 -109q0 -51 -11 -99.5t-33.5 -92.5t-64 -70.5t-96.5 -26.5q-76 0 -120.5 41.5t-44.5 125.5v216q0 29 -38 29q-4 0 -22 -2.5t-23 -2.5
l-4 35q56 25 108 25q54 0 54 -66z" />
    <glyph glyph-name="phi" unicode="&#x3c6;" horiz-adv-x="624" 
d="M270 584h79l-1 -127q115 -5 180 -61t65 -165q0 -103 -73 -164t-175 -72l-1 -201h-65l-3 199q-108 6 -174.5 63t-66.5 166q0 106 67.5 163t168.5 71zM510 231q0 77 -41.5 124.5t-120.5 57.5l-3 -371q74 13 119.5 65t45.5 124zM118 222q0 -73 43 -122.5t115 -58.5l-4 371
q-154 -25 -154 -190z" />
    <glyph glyph-name="chi" unicode="&#x3c7;" horiz-adv-x="454" 
d="M10 -207v18l182 307l-100 229q-18 47 -50 47q-14 1 -32 -5l-11 31q47 39 90 39q39 0 65 -60l90 -199l126 250h71v-19l-177 -277l125 -278q17 -33 37 -33q19 0 28 2l5 -33q-43 -26 -81 -26q-39 0 -52 31l-113 254l-130 -278h-73z" />
    <glyph glyph-name="psi" unicode="&#x3c8;" horiz-adv-x="636" 
d="M297 584h79l-4 -538q73 13 117 79.5t44 157.5q0 36 -3 68l-70 68v18q85 22 115 22q27 -64 27 -146q0 -114 -61.5 -208.5t-168.5 -109.5l-1 -201h-66l-3 200q-89 8 -151 63.5t-62 150.5v167q0 29 -38 29q-4 0 -22.5 -2.5t-22.5 -2.5l-4 35q56 25 107 25q55 0 55 -66v-176
q0 -76 39 -118t99 -52z" />
    <glyph glyph-name="omega" unicode="&#x3c9;" horiz-adv-x="635" 
d="M605 205q0 -91 -53.5 -152t-120.5 -61q-71 0 -111 79q-15 -29 -50 -54t-74 -25q-75 0 -117.5 56t-42.5 156q0 81 38 146.5t101 108.5l29 -23q-54 -53 -69.5 -107t-15.5 -133q0 -53 27 -98.5t68 -45.5q25 0 44 16.5t25 30t8 22.5q-15 51 -15 169q15 9 43 9q31 0 45 -9
q0 -127 -16 -169q2 -9 9 -22.5t26 -30t44 -16.5q41 0 68.5 46.5t27.5 99.5q0 173 -85 237l27 24q58 -27 99 -99.5t41 -154.5z" />
    <glyph glyph-name="iotadieresis" unicode="&#x3ca;" horiz-adv-x="270" 
d="M-16 616q0 21 13.5 35t35.5 14q21 0 35 -14t14 -35q0 -20 -14 -34.5t-35 -14.5t-35 14t-14 35zM162 616q0 21 14 35t35 14t35 -14t14 -35q0 -20 -14 -34.5t-35 -14.5t-35 14.5t-14 34.5zM84 65v385h75v-366q0 -37 48 -37q3 0 33 3l4 -42q-45 -15 -87 -15q-73 0 -73 72z
" />
    <glyph glyph-name="upsilondieresis" unicode="&#x3cb;" horiz-adv-x="495" 
d="M108 616q0 21 13.5 35t35.5 14q21 0 35 -14t14 -35q0 -20 -14 -34.5t-35 -14.5t-35 14t-14 35zM286 616q0 21 14 35t35 14t35 -14t14 -35q0 -20 -14 -34.5t-35 -14.5t-35 14.5t-14 34.5zM162 393v-225q0 -55 29.5 -88.5t79.5 -33.5q62 0 90.5 58.5t28.5 140.5
q0 54 -12 97l-71 77v22q55 18 85 18q28 -21 46.5 -69t18.5 -109q0 -51 -11 -99.5t-33.5 -92.5t-64 -70.5t-96.5 -26.5q-76 0 -120.5 41.5t-44.5 125.5v216q0 29 -38 29q-4 0 -22 -2.5t-23 -2.5l-4 35q56 25 108 25q54 0 54 -66z" />
    <glyph glyph-name="omicrontonos" unicode="&#x3cc;" horiz-adv-x="479" 
d="M232 717l71 -14l-52 -183l-36 6zM444 225q0 -93 -61 -163t-147 -70q-198 0 -198 228q0 95 61 167t145 72q200 0 200 -234zM370 214q0 35 -6 65.5t-20 60t-42 46.5t-67 17q-123 0 -123 -167q0 -81 32 -133.5t105 -52.5q68 0 94.5 43.5t26.5 120.5z" />
    <glyph glyph-name="upsilontonos" unicode="&#x3cd;" horiz-adv-x="495" 
d="M248 717l71 -14l-52 -183l-36 6zM162 393v-225q0 -55 29.5 -88.5t79.5 -33.5q62 0 90.5 58.5t28.5 140.5q0 54 -12 97l-71 77v22q55 18 85 18q28 -21 46.5 -69t18.5 -109q0 -51 -11 -99.5t-33.5 -92.5t-64 -70.5t-96.5 -26.5q-76 0 -120.5 41.5t-44.5 125.5v216
q0 29 -38 29q-4 0 -22 -2.5t-23 -2.5l-4 35q56 25 108 25q54 0 54 -66z" />
    <glyph glyph-name="omegatonos" unicode="&#x3ce;" horiz-adv-x="635" 
d="M321 717l71 -14l-52 -183l-36 6zM605 205q0 -91 -53.5 -152t-120.5 -61q-71 0 -111 79q-15 -29 -50 -54t-74 -25q-75 0 -117.5 56t-42.5 156q0 81 38 146.5t101 108.5l29 -23q-54 -53 -69.5 -107t-15.5 -133q0 -53 27 -98.5t68 -45.5q25 0 44 16.5t25 30t8 22.5
q-15 51 -15 169q15 9 43 9q31 0 45 -9q0 -127 -16 -169q2 -9 9 -22.5t26 -30t44 -16.5q41 0 68.5 46.5t27.5 99.5q0 173 -85 237l27 24q58 -27 99 -99.5t41 -154.5z" />
    <glyph glyph-name="uni03D8" unicode="&#x3d8;" horiz-adv-x="650" 
d="M618 314q0 -122 -69.5 -213t-186.5 -106v-201h-84v200q-113 12 -179.5 88t-66.5 193q0 139 84 228t218 89q130 0 207 -77t77 -201zM522 295q0 113 -52.5 183.5t-142.5 70.5q-92 0 -146 -69t-54 -184q0 -112 51.5 -186t142.5 -74q97 0 149 74t52 185z" />
    <glyph glyph-name="uni03D9" unicode="&#x3d9;" horiz-adv-x="479" 
d="M202 -206v200q-166 19 -166 226q0 95 62 167t146 72q202 0 202 -234q0 -81 -47.5 -146t-119.5 -82v-203h-77zM362 213q0 203 -127 203q-116 0 -116 -180q0 -197 130 -197q35 0 58.5 14t35 40.5t15.5 54t4 65.5z" />
    <glyph glyph-name="uni03DA" unicode="&#x3da;" horiz-adv-x="425" 
d="M389 387h-135q-66 0 -103.5 -47.5t-37.5 -111.5q0 -157 126 -157h150q21 -7 14 -47q-7 -51 -44 -136.5t-53 -100.5l-37 14q19 41 41.5 108.5t22.5 90.5h-58q-239 0 -239 229q0 95 70.5 158t160.5 63l96 25h26v-88z" />
    <glyph glyph-name="uni03DB" unicode="&#x3db;" horiz-adv-x="425" 
d="M389 387h-135q-66 0 -103.5 -47.5t-37.5 -111.5q0 -157 126 -157h150q21 -7 14 -47q-7 -51 -44 -136.5t-53 -100.5l-37 14q19 41 41.5 108.5t22.5 90.5h-58q-239 0 -239 229q0 95 70.5 158t160.5 63l96 25h26v-88z" />
    <glyph glyph-name="uni03DC" unicode="&#x3dc;" horiz-adv-x="450" 
d="M82 0v583h351v-47h-266v-216l222 4v-56l-222 5v-273h-85z" />
    <glyph glyph-name="uni03DD" unicode="&#x3dd;" horiz-adv-x="380" 
d="M82 -206v656h282v-47h-206v-216l163 5v-56l-163 4v-346h-76z" />
    <glyph glyph-name="uni03DE" unicode="&#x3de;" horiz-adv-x="427" 
d="M250 -60h-60l117 313h-273l130 330h59l-101 -257h279z" />
    <glyph glyph-name="uni03DF" unicode="&#x3df;" horiz-adv-x="427" 
d="M269 0h-59l105 275h-273l122 308h59l-93 -235h279z" />
    <glyph glyph-name="uni03E0" unicode="&#x3e0;" horiz-adv-x="676" 
d="M626 -95v-111h-86v79q-2 159 -51 281l-123 -90q-122 -90 -124 -91l-35 40l260 191q-24 48 -69 96l-263 -190l-33 40l257 186q-135 112 -301 113h-49v59h73q130 0 233.5 -48t170 -131t102 -191t38.5 -233z" />
    <glyph glyph-name="uni03E1" unicode="&#x3e1;" horiz-adv-x="528" 
d="M435 -252l-74 23q46 136 48 232q0 43 -5 82l-264 -111l-23 47l278 116q-10 53 -41 112l-282 -115l-20 47l274 112q-50 74 -121 122.5t-186 79.5l16 57q101 -22 180 -62.5t129.5 -91.5t83.5 -114.5t46.5 -127t13.5 -132.5q0 -117 -53 -276z" />
    <glyph glyph-name="uni0400" unicode="&#x400;" horiz-adv-x="529" 
d="M159 692l28 65l183 -101l-16 -32zM438 269l-222 4v-225h198l49 96l38 -6l-16 -138h-453v34l98 20v474l-98 20v35h451v-133h-46l-29 86h-192v-216l222 5v-56z" />
    <glyph glyph-name="afii10023" unicode="&#x401;" horiz-adv-x="529" 
d="M147 678q0 22 13.5 36t34.5 14t35.5 -14t14.5 -36q0 -20 -14.5 -34t-35.5 -14t-34.5 14t-13.5 34zM325 678q0 22 14 36t35 14t35 -14t14 -36q0 -20 -14 -34t-35 -14t-35 14t-14 34zM438 269l-222 4v-225h198l49 96l38 -6l-16 -138h-453v34l98 20v475l-98 19v35h451v-133
h-46l-29 86h-192v-216l222 5v-56z" />
    <glyph glyph-name="afii10051" unicode="&#x402;" horiz-adv-x="635" 
d="M13 416v167h503v-152h-31l-50 104h-149v-214q84 23 148 23q93 0 139 -46t46 -129q0 -88 -47 -133t-115 -45q-48 0 -95 21v114h42l23 -80h1l4 -2t5 -1.5t7.5 -1t9.5 -0.5q78 0 78 126q0 130 -122 130q-56 0 -124 -20v-277h-184v34l98 20v481h-108l-48 -119h-31z" />
    <glyph glyph-name="afii10052" unicode="&#x403;" horiz-adv-x="489" 
d="M32 0v34l98 20v475l-98 19v35h439v-167h-31l-55 119h-168v-481l99 -19v-35h-284zM352 759l29 -66l-197 -68l-17 33z" />
    <glyph glyph-name="afii10053" unicode="&#x404;" horiz-adv-x="568" 
d="M531 405h-43l-35 114q-43 27 -100 27q-93 0 -156.5 -59t-69.5 -171l278 4v-56l-277 5q7 -116 73.5 -173.5t168.5 -57.5q78 0 141 63h20v-71q-1 -1 -13.5 -6.5t-25 -10t-32 -10t-45.5 -8.5t-55 -3q-150 0 -239 74.5t-89 221.5q0 132 92 218t234 86q21 0 39.5 -1t34.5 -3.5
t26.5 -4.5t24 -6t18 -6t17 -7t13.5 -5v-154z" />
    <glyph glyph-name="afii10054" unicode="&#x405;" horiz-adv-x="457" 
d="M368 416l-27 102q-48 27 -105 27q-54 0 -84 -26.5t-30 -68.5q0 -20 8 -35t28.5 -28t37 -20.5t49.5 -21.5q28 -11 37.5 -15.5t34.5 -16.5t36 -20t28.5 -23.5t25 -30t14 -35t6.5 -44.5q0 -83 -66 -125.5t-158 -42.5q-89 0 -171 34v145h35l28 -99q58 -34 132 -34
q52 0 83.5 28.5t31.5 80.5q0 21 -8.5 37t-31 29.5t-37.5 20.5t-50 20q-4 2 -6 2.5t-5.5 2t-6.5 2.5q-70 27 -110.5 62t-40.5 99q0 75 56 122.5t134 47.5q98 0 166 -35v-141h-34z" />
    <glyph glyph-name="afii10055" unicode="&#x406;" horiz-adv-x="372" 
d="M45 0v34l98 20v475l-98 19v35h283v-34l-100 -20v-475l100 -19v-35h-283z" />
    <glyph glyph-name="afii10056" unicode="&#x407;" horiz-adv-x="372" 
d="M51 678q0 22 13.5 36t34.5 14t35.5 -14t14.5 -36q0 -20 -14.5 -34t-35.5 -14t-34.5 14t-13.5 34zM229 678q0 22 14 36t35 14t35 -14t14 -36q0 -20 -14 -34t-35 -14t-35 14t-14 34zM45 0v34l98 20v475l-98 19v35h283v-34l-100 -20v-475l100 -19v-35h-283z" />
    <glyph glyph-name="afii10057" unicode="&#x408;" horiz-adv-x="419" 
d="M143 -8q-74 0 -135 21v162h41l23 -119l5 -2q5 -1 12.5 -3t16 -4t18 -3.5t15.5 -1.5q37 0 61 30t24 77v379l-98 20v35h284v-34l-100 -21v-376q0 -70 -51 -115t-116 -45z" />
    <glyph glyph-name="afii10058" unicode="&#x409;" horiz-adv-x="780" 
d="M284 0v34l97 19v483h-125q-26 -291 -66 -420q-20 -66 -53.5 -95t-121.5 -29v85l23 6h88q63 181 78 445l-99 20v35h462v-34l-100 -20v-177h100q92 0 145 -44.5t53 -133.5q0 -80 -61.5 -127t-178.5 -47h-241zM535 303l-68 1v-257h53q159 5 159 124q0 58 -38.5 94.5
t-105.5 37.5z" />
    <glyph glyph-name="afii10059" unicode="&#x40a;" horiz-adv-x="901" 
d="M404 548v35h282v-34l-99 -20v-208h100q92 0 145 -40.5t53 -122.5q0 -72 -61.5 -115t-178.5 -43h-241v34l97 19v221h-285v-220l99 -19v-35h-283v34l98 20v475l-98 19v35h283v-34l-99 -20v-208h285v208zM655 273l-68 1v-227h53q75 2 116.5 27t41.5 83q0 51 -38 83t-105 33z
" />
    <glyph glyph-name="afii10060" unicode="&#x40b;" horiz-adv-x="711" 
d="M102 0v34l98 20v481h-108l-48 -119h-31v167h503v-152h-31l-50 104h-149v-214q85 23 147 23q102 0 146 -50q30 -35 30 -115v-125l82 -19v-35h-253v34l86 20v133q0 22 -3.5 38.5t-14 34.5t-35 27.5t-61.5 9.5q-55 0 -124 -20v-223l98 -19v-35h-282z" />
    <glyph glyph-name="afii10061" unicode="&#x40c;" horiz-adv-x="612" 
d="M412 757l29 -65l-195 -68l-16 32zM32 0v34l98 20v475l-98 19v35h273v-34l-89 -20v-209h92l60 145q31 75 56.5 101t78.5 26q29 0 58 -10l-16 -78h-22l-77 17l-84 -199l160 -266l83 -20v-36h-158l-157 274h-74v-220l99 -19v-35h-283z" />
    <glyph glyph-name="uni040D" unicode="&#x40d;" horiz-adv-x="727" 
d="M224 692l28 65l183 -101l-16 -32zM32 0v34l98 20v475l-98 19v35h283v-34l-99 -20v-356l294 310v46l-97 19v35h283v-34l-100 -20v-475l100 -19v-35h-283v34l97 19v362l-294 -310v-51l99 -19v-35h-283z" />
    <glyph glyph-name="afii10062" unicode="&#x40e;" horiz-adv-x="565" 
d="M301 657q-65 0 -108 30t-43 80l62 23h22v-73q26 -24 67 -24t67 24v73h22l62 -23q0 -50 -43 -80t-108 -30zM281 137l-220 397l-56 14v35h244v-34l-92 -23l164 -303l124 306l-88 19v35h211v-34l-50 -14l-176 -384q-45 -97 -84.5 -128t-120.5 -31v82l23 6h92z" />
    <glyph glyph-name="afii10145" unicode="&#x40f;" horiz-adv-x="705" 
d="M673 583v-34l-99 -20v-475l99 -19v-35h-280l3 -140h-86l3 140h-281v34l98 20v475l-98 19v35h278v-34l-94 -20v-482h271v482l-91 19v35h277z" />
    <glyph glyph-name="afii10017" unicode="&#x410;" horiz-adv-x="607" 
d="M372 0v31l68 17l-51 170h-191l-61 -165l80 -21v-32h-217v31l73 20l216 532h64l186 -534l69 -17v-32h-236zM301 494l-85 -229h158l-68 229h-5z" />
    <glyph glyph-name="afii10018" unicode="&#x411;" horiz-adv-x="552" 
d="M444 436l-45 99h-183v-183h108q91 0 144 -44.5t53 -133.5q0 -80 -61 -127t-178 -47h-250v34l98 20v475l-98 19v35h444v-147h-32zM292 303l-76 1v-257h61q159 5 159 124q0 58 -38.5 94.5t-105.5 37.5z" />
    <glyph glyph-name="afii10019" unicode="&#x412;" horiz-adv-x="570" 
d="M32 548v35h261q94 -2 150 -39t56 -105q0 -95 -92 -128v-2q21 -3 41 -10.5t42 -22.5t35.5 -43.5t13.5 -66.5q0 -76 -58.5 -121t-171.5 -45h-277v34l98 20v475zM262 278h-46v-230h75q71 0 115.5 27t44.5 88q0 66 -49 90.5t-140 24.5zM262 539h-46v-213h56q136 0 136 104
q0 109 -146 109z" />
    <glyph glyph-name="afii10020" unicode="&#x413;" horiz-adv-x="489" 
d="M32 0v34l98 20v475l-98 19v35h439v-167h-31l-55 119h-168v-481l99 -19v-35h-284z" />
    <glyph glyph-name="afii10021" unicode="&#x414;" horiz-adv-x="606" 
d="M109 548v35h466v-34l-100 -20v-482h111v-187h-40l-49 140h-389l-48 -140h-40v187h82q84 217 115 477zM389 536h-119q-46 -353 -112 -489h231v489z" />
    <glyph glyph-name="afii10022" unicode="&#x415;" horiz-adv-x="529" 
d="M438 269l-222 4v-225h198l49 96l38 -6l-16 -138h-453v34l98 20v475l-98 19v35h451v-133h-46l-29 86h-192v-216l222 5v-56z" />
    <glyph glyph-name="afii10024" unicode="&#x416;" horiz-adv-x="836" 
d="M288 0v34l91 20v215h-79l-132 -269h-157v36l82 20l137 261l-86 204l-72 -17h-22l-16 78q29 10 53 10q53 0 80 -26.5t59 -100.5l59 -149h94v213l-88 19v35h260v-35l-88 -19v-213h93l60 149q32 73 59 100t79 27q25 0 54 -10l-16 -78h-22l-72 17l-86 -204l136 -261l83 -20
v-36h-157l-132 269h-79v-215l90 -20v-34h-265z" />
    <glyph glyph-name="afii10025" unicode="&#x417;" horiz-adv-x="469" 
d="M218 38q61 0 97 31.5t36 86.5q0 47 -27.5 75t-67.5 37l-114 -3v56l114 -2q71 34 71 111q0 57 -31.5 87t-84.5 30q-43 0 -83 -28l-34 -105h-43v145q85 33 172 33q82 0 138.5 -42t56.5 -111q0 -48 -25 -85t-67 -53v-2q15 -4 32 -12.5t37 -24.5t32.5 -44t12.5 -63
q0 -69 -59 -116t-163 -47q-114 0 -185 49v80h20q63 -83 165 -83z" />
    <glyph glyph-name="afii10026" unicode="&#x418;" horiz-adv-x="727" 
d="M32 0v34l98 20v475l-98 19v35h283v-34l-99 -20v-356l294 310v46l-97 19v35h283v-34l-100 -20v-475l100 -19v-35h-283v34l97 19v362l-294 -310v-51l99 -19v-35h-283z" />
    <glyph glyph-name="afii10027" unicode="&#x419;" horiz-adv-x="727" 
d="M32 0v34l98 20v475l-98 19v35h283v-34l-99 -20v-356l294 310v46l-97 19v35h283v-34l-100 -20v-475l100 -19v-35h-283v34l97 19v362l-294 -310v-51l99 -19v-35h-283zM364 657q-65 0 -108 30t-43 80l62 23h22v-73q26 -24 67 -24t67 24v73h22l62 -23q0 -50 -43 -80t-108 -30
z" />
    <glyph glyph-name="afii10028" unicode="&#x41a;" horiz-adv-x="612" 
d="M32 0v34l98 20v475l-98 19v35h273v-34l-89 -20v-209h92l60 145q31 75 56.5 101t78.5 26q29 0 58 -10l-16 -78h-22l-77 17l-84 -199l160 -266l83 -20v-36h-158l-157 274h-74v-220l99 -19v-35h-283z" />
    <glyph glyph-name="afii10029" unicode="&#x41b;" horiz-adv-x="597" 
d="M284 0v34l97 19v483h-125q-26 -291 -66 -420q-20 -66 -53.5 -95t-121.5 -29v85l23 6h88q63 181 78 445l-99 20v35h462v-34l-100 -20v-475l100 -19v-35h-283z" />
    <glyph glyph-name="afii10030" unicode="&#x41c;" horiz-adv-x="839" 
d="M559 0v34l85 18l-36 416h-4l-179 -477h-51l-175 484h-4l-36 -418l86 -22v-35h-237v34l89 19l47 474l-87 21v35h196l161 -467h5l166 467h191v-34l-89 -22l48 -474l90 -18v-35h-266z" />
    <glyph glyph-name="afii10031" unicode="&#x41d;" horiz-adv-x="718" 
d="M404 0v34l97 19v221h-285v-220l99 -19v-35h-283v34l98 20v475l-98 19v35h283v-34l-99 -20v-209h285v209l-97 19v35h283v-34l-100 -20v-475l100 -19v-35h-283z" />
    <glyph glyph-name="afii10032" unicode="&#x41e;" horiz-adv-x="650" 
d="M618 314q0 -134 -82 -228t-218 -94q-129 0 -207.5 78t-78.5 205q0 139 84 228t218 89q130 0 207 -77t77 -201zM522 295q0 113 -52.5 183.5t-142.5 70.5q-92 0 -146 -69t-54 -184q0 -112 51.5 -186t142.5 -74q97 0 149 74t52 185z" />
    <glyph glyph-name="afii10033" unicode="&#x41f;" horiz-adv-x="703" 
d="M389 0v34l96 19v483h-269v-482l99 -19v-35h-283v34l98 20v475l-98 19v35h639v-34l-99 -20v-475l99 -19v-35h-282z" />
    <glyph glyph-name="afii10034" unicode="&#x420;" horiz-adv-x="519" 
d="M32 0v34l98 20v475l-98 19v35h284q92 0 145 -44.5t53 -133.5q0 -80 -61.5 -127.5t-178.5 -47.5h-58v-176l99 -19v-35h-283zM284 534l-68 1v-258h53q158 5 158 125q0 58 -38 94.5t-105 37.5z" />
    <glyph glyph-name="afii10035" unicode="&#x421;" horiz-adv-x="568" 
d="M531 405h-43l-35 114q-43 27 -100 27q-97 0 -161.5 -64t-64.5 -185q0 -130 67.5 -194.5t175.5 -64.5q78 0 141 63h20v-71q-1 -1 -13.5 -6.5t-25 -10t-32 -10t-45.5 -8.5t-55 -3q-150 0 -239 74.5t-89 221.5q0 132 92 218t234 86q21 0 39.5 -1t34.5 -3.5t26.5 -4.5t24 -6
t18 -6t17 -7t13.5 -5v-154z" />
    <glyph glyph-name="afii10036" unicode="&#x422;" horiz-adv-x="525" 
d="M122 0v34l98 20v481h-128l-48 -119h-31v167h503v-167h-31l-55 119h-123v-481l99 -19v-35h-284z" />
    <glyph glyph-name="afii10037" unicode="&#x423;" horiz-adv-x="565" 
d="M281 137l-220 397l-56 14v35h244v-34l-92 -23l164 -303l124 306l-88 19v35h211v-34l-50 -14l-176 -384q-45 -97 -84.5 -128t-120.5 -31v82l23 6h92z" />
    <glyph glyph-name="afii10038" unicode="&#x424;" horiz-adv-x="684" 
d="M203 0v34l98 20v39q-125 1 -197 50.5t-72 142.5q0 97 74 159t195 67v38l-98 19v35h283v-34l-100 -20v-37q127 -1 198.5 -53.5t71.5 -142.5q0 -94 -72 -156.5t-198 -67.5v-39l100 -19v-35h-283zM566 306q0 77 -48.5 120t-131.5 46v-338q86 4 133 49.5t47 122.5zM121 300
q0 -77 48 -120.5t132 -45.5v338q-82 -4 -131 -50.5t-49 -121.5z" />
    <glyph glyph-name="afii10039" unicode="&#x425;" horiz-adv-x="585" 
d="M337 0v35l53 16l-116 190l-123 -183l88 -22v-36h-223v35l58 14l175 233l-152 247l-69 18v36h240v-35l-65 -20l106 -169l114 170l-69 18v36h213v-35l-80 -22l-154 -206l166 -266l71 -18v-36h-233z" />
    <glyph glyph-name="afii10040" unicode="&#x426;" horiz-adv-x="705" 
d="M310 583v-34l-94 -20v-482h271v482l-91 19v35h277v-34l-99 -20v-482h110v-187h-40l-48 140h-564v34l98 20v475l-98 19v35h278z" />
    <glyph glyph-name="afii10041" unicode="&#x427;" horiz-adv-x="631" 
d="M308 0v34l107 19v209q-85 -23 -146 -23q-102 0 -146 50q-14 16 -21.5 37.5t-8.5 36t-1 40.5v126l-82 19v35h253v-34l-85 -20v-133q0 -22 3.5 -38.5t14 -34.5t35 -27.5t61.5 -9.5q54 0 123 20v223l-87 19v35h273v-34l-100 -20v-475l100 -19v-35h-293z" />
    <glyph glyph-name="afii10042" unicode="&#x428;" horiz-adv-x="979" 
d="M33 0v34l97 20v475l-98 19v35h268v-34l-85 -20v-482h232v482l-85 19v35h256v-34l-85 -20v-482h232v482l-85 19v35h271v-34l-100 -20v-475l100 -19v-35h-918z" />
    <glyph glyph-name="afii10043" unicode="&#x429;" horiz-adv-x="979" 
d="M33 0v34l97 20v475l-98 19v35h268v-34l-85 -20v-482h232v482l-85 19v35h256v-34l-85 -20v-482h232v482l-85 19v35h271v-34l-100 -20v-482h110v-187h-40l-48 140h-840z" />
    <glyph glyph-name="afii10044" unicode="&#x42a;" horiz-adv-x="597" 
d="M101 0v34l98 20v481h-100l-48 -119h-31v167h364v-34l-100 -20v-177h100q92 0 145 -44.5t53 -133.5q0 -80 -61 -127t-178 -47h-242zM352 303l-68 1v-257h53q159 5 159 124q0 58 -38 94.5t-106 37.5z" />
    <glyph glyph-name="afii10045" unicode="&#x42b;" horiz-adv-x="840" 
d="M32 0v34l98 20v475l-98 19v35h283v-34l-99 -20v-177h100q92 0 145 -44.5t53 -133.5q0 -80 -61.5 -127t-178.5 -47h-242zM529 0v34l97 20v475l-97 19v35h282v-34l-99 -20v-475l99 -19v-35h-282zM216 304v-257h53q158 5 158 124q0 58 -38 94.5t-105 37.5z" />
    <glyph glyph-name="afii10046" unicode="&#x42c;" horiz-adv-x="530" 
d="M32 0v34l98 20v475l-98 19v35h283v-34l-99 -20v-177h100q92 0 145 -44.5t53 -133.5q0 -80 -61.5 -127t-178.5 -47h-242zM284 303l-68 1v-257h53q158 5 158 124q0 58 -38 94.5t-105 37.5z" />
    <glyph glyph-name="afii10047" unicode="&#x42d;" horiz-adv-x="561" 
d="M531 295q0 -129 -89.5 -216t-218.5 -87q-50 0 -96 11t-65.5 20.5t-29.5 17.5v80h20q62 -83 164 -83q91 0 153 60t67 171l-279 -5v56l277 -4q-6 112 -70.5 171t-159.5 59q-50 0 -93 -27l-34 -114h-43v154q85 33 171 33q151 0 238.5 -74.5t87.5 -222.5z" />
    <glyph glyph-name="afii10048" unicode="&#x42e;" horiz-adv-x="959" 
d="M32 0v34l98 20v475l-98 19v35h283v-34l-99 -20v-209h139q14 122 94 197t201 75q128 0 203.5 -77t75.5 -201q0 -134 -81 -228t-213 -94q-128 0 -204.5 77t-77.5 204h-137v-219l99 -19v-35h-283zM833 295q0 113 -51 183.5t-139 70.5q-91 0 -143 -69t-52 -184
q0 -113 50 -186.5t140 -73.5q94 0 144.5 74t50.5 185z" />
    <glyph glyph-name="afii10049" unicode="&#x42f;" horiz-adv-x="601" 
d="M21 36l83 20l124 201q-137 34 -137 151q0 88 56.5 131.5t149.5 43.5h275v-35l-98 -19v-475l98 -20v-34h-273v35l89 19v192h-73l-141 -246h-153v36zM388 535h-59q-70 2 -111.5 -29.5t-41.5 -88.5q0 -121 158 -125h54v243z" />
    <glyph glyph-name="afii10065" unicode="&#x430;" horiz-adv-x="464" 
d="M105 299h-42v121q85 39 156 39q68 0 109.5 -31.5t41.5 -101.5v-266l71 -29v-31h-130l-14 57q-63 -65 -144 -65q-53 0 -85 30.5t-32 85.5q0 60 57 101.5t152 41.5h50v62q0 49 -25 75.5t-64 26.5q-32 0 -72 -24zM294 86l1 112h-65q-121 0 -121 -73q0 -68 73 -68
q47 0 112 29z" />
    <glyph glyph-name="afii10066" unicode="&#x431;" horiz-adv-x="491" 
d="M455 213q0 -84 -61.5 -152.5t-150.5 -68.5q-200 0 -200 271q0 88 22 171t69 130q43 43 112 57q99 20 129 31l58 43l24 -18l-57 -108q-23 -4 -70 -9.5t-65 -7.5q-89 -11 -103 -30q-11 -14 -32 -133q-2 -10 -2 -16q78 54 155 54q80 0 126 -52t46 -162zM251 374
q-54 0 -126 -37q-1 -19 -1 -60v-59q0 -75 30 -126.5t102 -51.5q114 0 114 160q0 174 -119 174z" />
    <glyph glyph-name="afii10067" unicode="&#x432;" horiz-adv-x="467" 
d="M28 0v31l79 22v344l-79 22v31h215q182 0 182 -111q0 -38 -22.5 -65t-63.5 -38v-1q111 -14 111 -107q0 -58 -49.5 -93t-145.5 -35h-227zM225 208h-42v-165h57q126 0 126 85q0 46 -34.5 63t-106.5 17zM215 407h-32v-155h50q108 0 108 78q0 33 -21.5 51t-45.5 22t-59 4z" />
    <glyph glyph-name="afii10068" unicode="&#x433;" horiz-adv-x="409" 
d="M28 0v31l79 22v344l-79 22v31h363v-141h-35l-37 95h-136v-351l89 -21v-32h-244z" />
    <glyph glyph-name="afii10069" unicode="&#x434;" horiz-adv-x="500" 
d="M88 420v30h383v-30l-80 -23v-352h84v-172h-40l-37 127h-306l-37 -127h-40v172h63q65 143 93 352zM220 405q-13 -105 -39.5 -212t-51.5 -148h186v360h-95z" />
    <glyph glyph-name="afii10070" unicode="&#x435;" horiz-adv-x="445" 
d="M398 84l11 -20q-20 -27 -66.5 -49.5t-97.5 -22.5q-103 0 -156.5 59t-53.5 166q0 104 57.5 173t148.5 69q167 0 172 -218h-300v-14q0 -87 45.5 -132t116.5 -45q55 0 123 34zM224 418q-40 0 -69.5 -32t-38.5 -98h209q-11 130 -101 130z" />
    <glyph glyph-name="afii10072" unicode="&#x436;" horiz-adv-x="674" 
d="M233 0v32l70 21v147h-72l-90 -200h-126v31l69 31l93 186l-52 142l-64 -13h-22l-13 76q26 6 38 6q47 0 75 -20t49 -77l42 -115h73v150l-70 22v31h215v-31l-70 -22v-150h72l43 114q20 57 48 77.5t76 20.5q12 0 38 -6l-14 -76h-22l-63 13l-52 -142l92 -186l70 -31v-31h-126
l-91 200h-71v-147l70 -21v-32h-215z" />
    <glyph glyph-name="afii10073" unicode="&#x437;" horiz-adv-x="398" 
d="M189 459q77 0 118.5 -34t41.5 -89q0 -37 -21 -65t-53 -34v-1q92 -19 92 -110q0 -59 -47.5 -96.5t-136.5 -37.5q-77 0 -143 30v80h20q52 -67 128 -67q42 0 68.5 24t26.5 67q0 65 -63 83l-90 -3v50l90 -3q46 25 46 81q0 40 -22.5 60t-60.5 20q-47 0 -80 -29l-20 -67h-34
v113q61 28 140 28z" />
    <glyph glyph-name="afii10074" unicode="&#x438;" horiz-adv-x="591" 
d="M252 450v-31l-69 -22v-250l229 224v26l-70 22v31h225v-30l-79 -23v-344l79 -22v-31h-225v32l70 21v253l-229 -225v-28l69 -21v-32h-224v31l79 22v344l-79 22v31h224z" />
    <glyph glyph-name="afii10075" unicode="&#x439;" horiz-adv-x="591" 
d="M252 450v-31l-69 -22v-250l229 224v26l-70 22v31h225v-30l-79 -23v-344l79 -22v-31h-225v32l70 21v253l-229 -225v-28l69 -21v-32h-224v31l79 22v344l-79 22v31h224zM295 537q-64 0 -105 29.5t-41 80.5l62 23h22v-73q24 -24 62 -24q40 0 62 24v73h22l62 -23
q0 -51 -41 -80.5t-105 -29.5z" />
    <glyph glyph-name="afii10076" unicode="&#x43a;" horiz-adv-x="507" 
d="M262 450v-31l-79 -22v-142h80l45 109q23 54 51 74.5t73 20.5q15 0 41 -6l-14 -76h-22l-66 13l-56 -135l107 -193l79 -31v-31h-138l-107 207h-73v-154l70 -21v-32h-225v31l79 22v344l-79 22v31h234z" />
    <glyph glyph-name="afii10077" unicode="&#x43b;" horiz-adv-x="487" 
d="M82 420v30h381v-30l-80 -23v-344l80 -22v-31h-226v32l70 21v352h-96q-16 -184 -52 -305q-16 -55 -48.5 -81.5t-100.5 -26.5v83l23 6h72q45 138 56 316z" />
    <glyph glyph-name="afii10078" unicode="&#x43c;" horiz-adv-x="682" 
d="M449 0v32l69 21l-32 294h-3l-127 -355h-71l-123 360h-3l-28 -299l69 -21v-32h-193v31l74 23l35 343l-76 23v30h174l121 -364h4l126 364h170v-30l-76 -22l36 -345l80 -22v-31h-226z" />
    <glyph glyph-name="afii10079" unicode="&#x43d;" horiz-adv-x="581" 
d="M252 450v-31l-69 -22v-144h219v144l-70 22v31h225v-30l-79 -23v-344l79 -22v-31h-225v32l70 21v152h-219v-152l69 -21v-32h-224v31l79 22v344l-79 22v31h224z" />
    <glyph glyph-name="afii10080" unicode="&#x43e;" horiz-adv-x="479" 
d="M446 225q0 -93 -62 -163t-149 -70q-200 0 -200 228q0 95 62 167t146 72q203 0 203 -234zM361 213q0 203 -127 203q-116 0 -116 -180q0 -197 130 -197q35 0 58.5 14t35 40.5t15.5 54t4 65.5z" />
    <glyph glyph-name="afii10081" unicode="&#x43f;" horiz-adv-x="566" 
d="M28 0v31l79 22v344l-79 22v31h514v-30l-80 -23v-344l80 -22v-31h-225v32l69 21v350h-203v-350l69 -21v-32h-224z" />
    <glyph glyph-name="afii10082" unicode="&#x440;" horiz-adv-x="523" 
d="M29 -207v31l79 22v545h-84v32l113 36h28l13 -48q73 48 136 48q176 0 176 -223q0 -106 -68 -175t-166 -69q-40 0 -73 11v-156l82 -22v-32h-236zM287 400q-59 0 -104 -25v-308q39 -25 95 -25q35 0 61 16t39.5 43t19.5 56t6 61q0 89 -30 135.5t-87 46.5z" />
    <glyph glyph-name="afii10083" unicode="&#x441;" horiz-adv-x="435" 
d="M356 285l-32 107q-31 26 -86 26q-54 0 -90 -47.5t-36 -135.5t44.5 -137t114.5 -49q55 0 125 35l12 -20q-21 -27 -67 -50t-96 -23q-102 0 -156 60t-54 166q0 104 57.5 173t147.5 69q93 0 161 -40v-134h-45z" />
    <glyph glyph-name="afii10084" unicode="&#x442;" horiz-adv-x="440" 
d="M104 0v32l80 21v354h-97l-39 -98h-33v141h414v-141h-34l-39 98h-96v-354l79 -22v-31h-235z" />
    <glyph glyph-name="afii10085" unicode="&#x443;" horiz-adv-x="497" 
d="M214 450v-30l-65 -20l104 -323h4l115 323l-66 19v31h195v-30l-70 -20l-145 -365l-75 -242h-82v26l83 175l-153 408l-59 17v31h214z" />
    <glyph glyph-name="afii10086" unicode="&#x444;" horiz-adv-x="609" 
d="M192 -206v31l80 20v148q-236 11 -236 227q0 94 64.5 160t171.5 77v185h-85v33l108 28h47v-244q121 -7 178.5 -64t57.5 -170q0 -93 -63.5 -156.5t-172.5 -74.5v-148l82 -20v-32h-232zM494 213q0 181 -152 201v-375q46 3 77.5 18t47 40.5t21.5 53t6 62.5zM120 236
q0 -174 152 -194v374q-152 -12 -152 -180z" />
    <glyph glyph-name="afii10087" unicode="&#x445;" horiz-adv-x="523" 
d="M510 0h-213v31l47 14l-98 142l-111 -134l74 -21v-32h-195v31l48 13l159 178l-137 180l-60 17v31h214v-30l-60 -19l91 -128l110 127l-66 19v31h195v-30l-75 -21l-139 -160l146 -188l70 -19v-32z" />
    <glyph glyph-name="afii10088" unicode="&#x446;" horiz-adv-x="570" 
d="M546 -127h-41l-36 127h-441v31l79 22v344l-79 22v31h224v-31l-69 -22v-354h203v354l-69 22v31h224v-30l-79 -23v-354h84v-170z" />
    <glyph glyph-name="afii10089" unicode="&#x447;" horiz-adv-x="514" 
d="M107 207q-31 31 -31 90v100l-70 22v31h214v-31l-68 -22v-97q0 -77 83 -77q44 0 100 20v154l-69 22v31h224v-31l-79 -22v-344l79 -22v-31h-244v32l89 21v146q-66 -22 -130 -22q-68 0 -98 30z" />
    <glyph glyph-name="afii10090" unicode="&#x448;" horiz-adv-x="784" 
d="M759 450v-30l-79 -23v-344l79 -22v-31h-731v31l79 22v344l-79 22v31h214v-31l-60 -22v-354h174v354l-60 22v31h195v-31l-60 -22v-354h173v354l-59 22v31h214z" />
    <glyph glyph-name="afii10091" unicode="&#x449;" horiz-adv-x="788" 
d="M759 450v-30l-79 -23v-354h84v-170h-41l-36 127h-659v31l79 22v344l-79 22v31h214v-31l-60 -22v-354h174v354l-60 22v31h195v-31l-60 -22v-354h173v354l-59 22v31h214z" />
    <glyph glyph-name="afii10092" unicode="&#x44a;" horiz-adv-x="492" 
d="M324 450v-30l-79 -23v-123h51q94 0 145 -30.5t51 -105.5q0 -62 -50 -100t-146 -38h-207v31l80 22v354h-82l-39 -98h-33v141h309zM408 137q0 93 -119 93h-44v-187h45q118 0 118 94z" />
    <glyph glyph-name="afii10093" unicode="&#x44b;" horiz-adv-x="701" 
d="M262 450v-30l-79 -23v-123h52q94 0 144.5 -30.5t50.5 -105.5q0 -62 -50 -100t-145 -38h-207v31l79 22v344l-79 22v31h234zM679 450v-30l-80 -23v-344l80 -22v-31h-235v32l79 21v344l-79 22v31h235zM346 137q0 93 -119 93h-44v-187h45q118 0 118 94z" />
    <glyph glyph-name="afii10094" unicode="&#x44c;" horiz-adv-x="432" 
d="M262 450v-30l-79 -23v-123h52q94 0 144.5 -30.5t50.5 -105.5q0 -62 -50 -100t-145 -38h-207v31l79 22v344l-79 22v31h234zM346 137q0 93 -119 93h-44v-187h45q118 0 118 94z" />
    <glyph glyph-name="afii10095" unicode="&#x44d;" horiz-adv-x="431" 
d="M40 103h20q54 -67 132 -67q51 0 87.5 42.5t39.5 124.5l-190 -5v55l189 -5q-4 79 -37 122.5t-89 43.5q-46 0 -87 -29l-24 -76h-35v122q61 28 146 28q99 0 152.5 -57.5t53.5 -168.5q0 -104 -56.5 -172.5t-149.5 -68.5q-86 0 -152 32v79z" />
    <glyph glyph-name="afii10096" unicode="&#x44e;" horiz-adv-x="729" 
d="M253 450v-31l-70 -22v-145h107q11 86 70 146.5t136 60.5q203 0 203 -234q0 -93 -62 -163t-149 -70q-194 0 -200 216h-105v-155l70 -21v-32h-225v31l79 22v344l-79 22v31h225zM614 213q0 203 -127 203q-116 0 -116 -180q0 -84 29.5 -140.5t100.5 -56.5q35 0 58.5 14
t35 40.5t15.5 54t4 65.5z" />
    <glyph glyph-name="afii10097" unicode="&#x44f;" horiz-adv-x="490" 
d="M242 0v32l69 21v128h-33q-24 0 -34 1l-110 -182h-133v31l79 31l86 135q-101 28 -101 119q0 68 48 101t128 33h225v-30l-79 -23v-344l79 -22v-31h-224zM148 316q0 -51 32.5 -71.5t90.5 -22.5h40v185h-45q-57 -1 -87.5 -24.5t-30.5 -66.5z" />
    <glyph glyph-name="uni0450" unicode="&#x450;" horiz-adv-x="445" 
d="M113 228q0 -87 45 -132.5t117 -45.5q55 0 123 34l11 -20q-20 -27 -66.5 -49.5t-97.5 -22.5q-103 0 -156.5 59t-53.5 166q0 104 57.5 173t148.5 69q167 0 172 -218h-300v-13zM224 418q-40 0 -69 -32t-38 -98h208q-11 130 -101 130zM98 640l47 55l147 -148l-25 -26z" />
    <glyph glyph-name="afii10071" unicode="&#x451;" horiz-adv-x="445" 
d="M101 616q0 21 13.5 35t35.5 14q21 0 35 -14t14 -35q0 -20 -14 -34.5t-35 -14.5t-35 14t-14 35zM279 616q0 21 14 35t35 14t35 -14t14 -35q0 -20 -14 -34.5t-35 -14.5t-35 14.5t-14 34.5zM398 84l11 -20q-20 -27 -66.5 -49.5t-97.5 -22.5q-103 0 -156.5 59t-53.5 166
q0 104 57.5 173t148.5 69q167 0 172 -218h-300v-14q0 -87 45.5 -132t116.5 -45q55 0 123 34zM224 418q-40 0 -69.5 -32t-38.5 -98h209q-11 130 -101 130z" />
    <glyph glyph-name="afii10099" unicode="&#x452;" horiz-adv-x="526" 
d="M27 484v47h84v111h-84v33l108 28h52v-172h141v-47h-141v-146q86 65 162 65t110 -46t34 -120q0 -118 -52.5 -251.5t-115.5 -208.5l-34 23q118 215 118 402q0 139 -97 139q-58 0 -125 -39v-250l81 -20v-32h-236v31l79 20v433h-84z" />
    <glyph glyph-name="afii10100" unicode="&#x453;" horiz-adv-x="409" 
d="M289 695l47 -55l-169 -119l-25 26zM28 0v31l79 22v344l-79 22v31h363v-141h-35l-37 95h-136v-351l89 -21v-32h-244z" />
    <glyph glyph-name="afii10101" unicode="&#x454;" horiz-adv-x="435" 
d="M358 287l-31 101q-34 30 -89 30q-52 0 -87.5 -44t-38.5 -126l189 5v-55l-188 5q9 -74 52 -114t106 -40q55 0 125 35l12 -20q-21 -27 -67 -50t-96 -23q-102 0 -156 60t-54 166q0 104 57.5 173t147.5 69q89 0 161 -40v-132h-43z" />
    <glyph glyph-name="afii10102" unicode="&#x455;" horiz-adv-x="399" 
d="M187 -8q-75 0 -146 30v123h37l25 -79q43 -27 98 -27q40 0 66.5 17t26.5 49q0 34 -25.5 53t-62 27.5t-73 19.5t-62 40.5t-25.5 78.5q0 63 49 99t119 36q74 0 131 -29v-112h-35l-21 68q-48 28 -96 28q-38 0 -62 -17.5t-24 -50.5q0 -35 26 -53.5t63.5 -26t75 -17.5
t63.5 -38.5t26 -77.5q0 -71 -50.5 -106t-123.5 -35z" />
    <glyph glyph-name="afii10103" unicode="&#x456;" horiz-adv-x="292" 
d="M32 0v31l80 20v339l-85 1v32l128 36h32v-407l82 -20v-32h-237zM95 620q0 24 16 39.5t40 15.5t40.5 -15.5t16.5 -39.5t-16.5 -40t-40.5 -16t-40 16t-16 40z" />
    <glyph glyph-name="afii10104" unicode="&#x457;" horiz-adv-x="292" 
d="M33 0v31l79 20v339l-84 1v32l128 36h31v-407l83 -20v-32h-237zM13 619q0 24 16 40t39 16q24 0 40.5 -16t16.5 -40q0 -22 -17 -38.5t-40 -16.5t-39 16t-16 39zM171 619q0 24 15.5 40t39.5 16q23 0 39.5 -16t16.5 -40q0 -22 -16.5 -38.5t-39.5 -16.5q-24 0 -39.5 16
t-15.5 39z" />
    <glyph glyph-name="afii10105" unicode="&#x458;" horiz-adv-x="272" 
d="M187 32q0 -67 -25.5 -136t-70.5 -110l-32 22q53 83 53 196v387h-85v32l128 36h32v-427zM95 620q0 24 16 39.5t40 15.5t40.5 -15.5t16.5 -39.5t-16.5 -40t-40.5 -16t-40 16t-16 40z" />
    <glyph glyph-name="afii10106" unicode="&#x459;" horiz-adv-x="631" 
d="M82 420v30h381v-30l-80 -23v-123h52q94 0 145 -30.5t51 -105.5q0 -62 -50 -100t-146 -38h-198v32l70 21v352h-96q-16 -184 -52 -305q-16 -55 -48.5 -81.5t-100.5 -26.5v83l23 6h72q45 138 56 316zM546 137q0 93 -119 93h-44v-187h45q118 0 118 94z" />
    <glyph glyph-name="afii10107" unicode="&#x45a;" horiz-adv-x="725" 
d="M332 0v32l70 21v153h-219v-153l69 -21v-32h-224v31l79 22v344l-79 22v31h224v-31l-69 -22v-144h219v144l-70 22v31h225v-30l-79 -23v-144h51q94 0 145 -28t51 -98q0 -57 -50 -92t-146 -35h-197zM641 124q0 82 -119 82h-44v-163h44q119 0 119 81z" />
    <glyph glyph-name="afii10108" unicode="&#x45b;" horiz-adv-x="569" 
d="M27 484v47h84v111h-84v33l108 28h52v-172h141v-47h-141v-147q87 66 172 66q65 0 96 -44.5t31 -118.5v-188l80 -20v-32h-236v31l81 21v183q0 105 -99 105q-62 0 -125 -39v-249l81 -20v-32h-236v31l79 20v433h-84z" />
    <glyph glyph-name="afii10109" unicode="&#x45c;" horiz-adv-x="507" 
d="M339 695l47 -55l-169 -119l-25 26zM262 450v-31l-79 -22v-142h80l45 109q23 54 51 74.5t73 20.5q15 0 41 -6l-14 -76h-22l-66 13l-56 -135l107 -193l79 -31v-31h-138l-107 207h-73v-154l70 -21v-32h-225v31l79 22v344l-79 22v31h234z" />
    <glyph glyph-name="uni045D" unicode="&#x45d;" horiz-adv-x="591" 
d="M252 450v-31l-69 -22v-250l229 224v26l-70 22v31h225v-30l-79 -23v-344l79 -22v-31h-225v32l70 21v253l-229 -225v-28l69 -21v-32h-224v31l79 22v344l-79 22v31h224zM165 640l47 55l147 -148l-25 -26z" />
    <glyph glyph-name="afii10110" unicode="&#x45e;" horiz-adv-x="497" 
d="M214 450v-30l-65 -20l104 -323h4l115 323l-66 19v31h195v-30l-70 -20l-145 -365l-75 -242h-82v26l83 175l-153 408l-59 17v31h214zM258 537q-64 0 -105 29.5t-41 80.5l62 23h22v-73q24 -24 62 -24q40 0 62 24v73h22l62 -23q0 -51 -41 -80.5t-105 -29.5z" />
    <glyph glyph-name="afii10193" unicode="&#x45f;" horiz-adv-x="566" 
d="M541 450v-30l-79 -23v-344l79 -22v-31h-221l3 -139h-76l3 139h-222v31l79 22v344l-79 22v31h224v-31l-69 -22v-354h203v354l-69 22v31h224z" />
    <glyph glyph-name="afii10146" unicode="&#x462;" horiz-adv-x="572" 
d="M87 0v34l97 20v373h-102l-38 -56h-31v101h171v57l-97 19v35h271v-34l-88 -20v-57h179v-101h-31l-38 56h-110v-114h100q186 0 186 -149q0 -164 -228 -164h-241zM270 265v-218h53q73 2 110 27t37 87q0 102 -132 103z" />
    <glyph glyph-name="afii10194" unicode="&#x463;" horiz-adv-x="551" 
d="M357 583v-34l-99 -20v-64h200v-105h-32l-26 55h-142v-103h69q208 0 208 -145q0 -167 -219 -167h-240v34l98 20v361h-96l-27 -55h-32v105h155v64l-98 19v35h281zM449 164q0 56 -43 78.5t-148 21.5v-217h53q71 2 104.5 27t33.5 90z" />
    <glyph glyph-name="afii10147" unicode="&#x472;" horiz-adv-x="650" 
d="M618 314q0 -134 -82 -228t-218 -94q-129 0 -207.5 78t-78.5 205q0 139 84 228t218 89q130 0 207 -77t77 -201zM327 549q-88 0 -141.5 -63.5t-58.5 -169.5l394 4q-5 102 -57 165.5t-137 63.5zM321 36q90 0 141.5 64.5t58.5 163.5l-393 4q6 -102 57 -167t136 -65z" />
    <glyph glyph-name="afii10195" unicode="&#x473;" horiz-adv-x="479" 
d="M445 225q0 -93 -61.5 -163t-148.5 -70q-200 0 -200 228q0 95 62 167t146 72q202 0 202 -234zM248 39q65 0 88.5 45.5t24.5 123.5l-243 6q8 -175 130 -175zM234 416q-112 0 -116 -163l241 6q-15 157 -125 157z" />
    <glyph glyph-name="afii10148" unicode="&#x474;" horiz-adv-x="605" 
d="M261 -8l-200 540l-61 16v35h244v-34l-81 -20l144 -424h4l136 385q10 27 16 40.5t17 30.5t26 24t36 7q43 0 79 -27l-17 -38q-15 6 -29 6q-35 0 -52 -39l-210 -502h-52z" />
    <glyph glyph-name="afii10196" unicode="&#x475;" horiz-adv-x="489" 
d="M251 87l91 269q9 26 15 40.5t17 31t26 24t35 7.5q36 0 76 -19l-17 -45q-15 6 -30 6q-34 0 -51 -39l-144 -362h-66l-150 403l-57 16v31h214v-30l-65 -20l99 -313h7z" />
    <glyph glyph-name="afii10050" unicode="&#x490;" horiz-adv-x="479" 
d="M32 0v34l98 20v475l-98 19v35h343l55 129h31v-177h-244v-481l99 -19v-35h-284z" />
    <glyph glyph-name="afii10098" unicode="&#x491;" horiz-adv-x="399" 
d="M28 0v31l79 22v344l-79 22v31h281l38 101h35v-147h-199v-351l89 -21v-32h-244z" />
    <glyph glyph-name="uni04D8" unicode="&#x4d8;" horiz-adv-x="600" 
d="M286 -8q-127 0 -190.5 72t-63.5 202v45h441q-4 105 -56.5 166.5t-139.5 61.5q-104 0 -180 -52l-25 42q104 63 213 63q130 0 207 -77t77 -201q0 -137 -74.5 -229.5t-208.5 -92.5zM290 36q88 0 132 63t50 165h-345q7 -228 163 -228z" />
    <glyph glyph-name="afii10846" unicode="&#x4d9;" horiz-adv-x="445" 
d="M335 224q0 87 -45 132t-117 45q-55 0 -123 -34l-11 19q20 27 66 50t97 23q103 0 157 -59t54 -165q0 -105 -57.5 -174t-148.5 -69q-167 0 -172 218h300v14zM224 32q39 0 68.5 33t38.5 99l-208 -1q11 -131 101 -131z" />
    <glyph glyph-name="uni1E02" unicode="&#x1e02;" horiz-adv-x="570" 
d="M225 679q0 22 14 36t36 14q21 0 36 -14.5t15 -35.5t-15 -35t-36 -14q-22 0 -36 14t-14 35zM32 548v35h252q101 0 158 -37t57 -107q0 -95 -92 -128v-2q21 -3 41 -10.5t42 -22.5t35.5 -43.5t13.5 -66.5q0 -76 -58.5 -121t-171.5 -45h-277v34l98 20v474zM262 278h-46v-230
h75q71 0 115.5 27t44.5 88q0 66 -49 90.5t-140 24.5zM262 539h-46v-213h56q136 0 136 104q0 109 -146 109z" />
    <glyph glyph-name="uni1E03" unicode="&#x1e03;" horiz-adv-x="497" 
d="M83 36v606h-84v33l108 28h52v-288q70 44 134 44q171 0 171 -223q0 -106 -68.5 -175t-165.5 -69q-88 0 -147 44zM260 400q-53 0 -101 -23v-303q49 -28 93 -28q46 0 76 28t40.5 64.5t10.5 80.5q0 81 -31.5 131t-87.5 50zM227 620q0 23 16 38.5t40 15.5q23 0 39.5 -15.5
t16.5 -38.5t-16.5 -39t-39.5 -16q-24 0 -40 16t-16 39z" />
    <glyph glyph-name="uni1E04" unicode="&#x1e04;" horiz-adv-x="570" 
d="M261 -113q0 22 14 36t36 14q21 0 36 -14.5t15 -35.5t-15 -35t-36 -14q-22 0 -36 14t-14 35zM32 548v35h252q101 0 158 -37t57 -107q0 -95 -92 -128v-2q21 -3 41 -10.5t42 -22.5t35.5 -43.5t13.5 -66.5q0 -76 -58.5 -121t-171.5 -45h-277v34l98 20v474zM262 278h-46v-230
h75q71 0 115.5 27t44.5 88q0 66 -49 90.5t-140 24.5zM262 539h-46v-213h56q136 0 136 104q0 109 -146 109z" />
    <glyph glyph-name="uni1E05" unicode="&#x1e05;" horiz-adv-x="497" 
d="M205 -113q0 22 14 36t36 14q21 0 36 -14.5t15 -35.5t-15 -35t-36 -14q-22 0 -36 14t-14 35zM83 36v606h-84v33l108 28h52v-288q70 44 134 44q171 0 171 -223q0 -106 -68.5 -175t-165.5 -69q-88 0 -147 44zM260 400q-53 0 -101 -23v-303q49 -28 93 -28q46 0 76 28
t40.5 64.5t10.5 80.5q0 81 -31.5 131t-87.5 50z" />
    <glyph glyph-name="uni1E06" unicode="&#x1e06;" horiz-adv-x="570" 
d="M32 548v35h252q101 0 158 -37t57 -107q0 -95 -92 -128v-2q21 -3 41 -10.5t42 -22.5t35.5 -43.5t13.5 -66.5q0 -76 -58.5 -121t-171.5 -45h-277v34l98 20v474zM262 278h-46v-230h75q71 0 115.5 27t44.5 88q0 66 -49 90.5t-140 24.5zM262 539h-46v-213h56q136 0 136 104
q0 109 -146 109zM436 -144h-246v54h246v-54z" />
    <glyph glyph-name="uni1E07" unicode="&#x1e07;" horiz-adv-x="497" 
d="M380 -144h-246v54h246v-54zM83 36v606h-84v33l108 28h52v-288q70 44 134 44q171 0 171 -223q0 -106 -68.5 -175t-165.5 -69q-88 0 -147 44zM260 400q-53 0 -101 -23v-303q49 -28 93 -28q46 0 76 28t40.5 64.5t10.5 80.5q0 81 -31.5 131t-87.5 50z" />
    <glyph glyph-name="uni1E0A" unicode="&#x1e0a;" horiz-adv-x="650" 
d="M275 679q0 22 14 36t36 14q21 0 36 -14.5t15 -35.5t-15 -35t-36 -14q-22 0 -36 14t-14 35zM32 0v34l98 20v474l-98 20v35h260q61 0 109 -6.5t94 -25t76.5 -49t49 -80t18.5 -116.5q0 -147 -95 -226.5t-247 -79.5h-265zM289 535h-73v-487h88q240 0 240 243
q0 121 -67.5 182.5t-187.5 61.5z" />
    <glyph glyph-name="uni1E0B" unicode="&#x1e0b;" horiz-adv-x="508" 
d="M416 60l71 -29v-31h-130l-13 57q-58 -65 -134 -65q-74 0 -124.5 52t-50.5 164q0 111 62 180.5t152 69.5q53 0 91 -11v195h-84v33l108 28h52v-643zM340 85v295q-41 29 -90 29q-65 0 -101 -43t-36 -131q0 -89 33.5 -135t92.5 -46q34 0 101 31zM102 619q0 23 16 38.5
t40 15.5q23 0 39.5 -15.5t16.5 -38.5t-16.5 -39t-39.5 -16q-24 0 -40 16t-16 39z" />
    <glyph glyph-name="uni1E0C" unicode="&#x1e0c;" horiz-adv-x="650" 
d="M279 -113q0 22 14 36t36 14q21 0 36 -14.5t15 -35.5t-15 -35t-36 -14q-22 0 -36 14t-14 35zM32 0v34l98 20v474l-98 20v35h260q61 0 109 -6.5t94 -25t76.5 -49t49 -80t18.5 -116.5q0 -147 -95 -226.5t-247 -79.5h-265zM289 535h-73v-487h88q240 0 240 243
q0 121 -67.5 182.5t-187.5 61.5z" />
    <glyph glyph-name="uni1E0D" unicode="&#x1e0d;" horiz-adv-x="508" 
d="M211 -113q0 22 14 36t36 14q21 0 36 -14.5t15 -35.5t-15 -35t-36 -14q-22 0 -36 14t-14 35zM416 60l71 -29v-31h-130l-13 57q-58 -65 -134 -65q-74 0 -124.5 52t-50.5 164q0 111 62 180.5t152 69.5q53 0 91 -11v195h-84v33l108 28h52v-643zM340 85v295q-41 29 -90 29
q-65 0 -101 -43t-36 -131q0 -89 33.5 -135t92.5 -46q34 0 101 31z" />
    <glyph glyph-name="uni1E0E" unicode="&#x1e0e;" horiz-adv-x="650" 
d="M449 -144h-246v54h246v-54zM32 0v34l98 20v474l-98 20v35h260q61 0 109 -6.5t94 -25t76.5 -49t49 -80t18.5 -116.5q0 -147 -95 -226.5t-247 -79.5h-265zM289 535h-73v-487h88q240 0 240 243q0 121 -67.5 182.5t-187.5 61.5z" />
    <glyph glyph-name="uni1E0F" unicode="&#x1e0f;" horiz-adv-x="508" 
d="M388 -144h-246v54h246v-54zM416 60l71 -29v-31h-130l-13 57q-58 -65 -134 -65q-74 0 -124.5 52t-50.5 164q0 111 62 180.5t152 69.5q53 0 91 -11v195h-84v33l108 28h52v-643zM340 85v295q-41 29 -90 29q-65 0 -101 -43t-36 -131q0 -89 33.5 -135t92.5 -46q34 0 101 31z
" />
    <glyph glyph-name="uni1E1E" unicode="&#x1e1e;" horiz-adv-x="481" 
d="M243 679q0 22 14 36t36 14q21 0 36 -14.5t15 -35.5t-15 -35t-36 -14q-22 0 -36 14t-14 35zM32 0v34l98 20v474l-98 20v35h450v-133h-45l-30 86h-191v-225l222 6v-57l-222 4v-210l100 -19v-35h-284z" />
    <glyph glyph-name="uni1E1F" unicode="&#x1e1f;" horiz-adv-x="309" 
d="M62 729q0 22 14 36t36 14q21 0 36 -14.5t15 -35.5t-15 -35t-36 -14q-22 0 -36 14t-14 35zM29 0v31l78 20v347h-81v34l81 19v84q0 72 59 121.5t134 49.5q26 0 46 -5l-14 -76h-22l-89 22q-39 -40 -39 -112v-85h98v-52h-98v-345l84 -21v-32h-237z" />
    <glyph glyph-name="uni1E20" unicode="&#x1e20;" horiz-adv-x="598" 
d="M453 651h-245v52h245v-52zM488 405l-34 115q-44 26 -101 26q-97 0 -161.5 -64t-64.5 -185t68.5 -187.5t174.5 -66.5q41 0 77 14v182l-97 20v35h183v-264q-73 -38 -173 -38q-150 0 -239 74.5t-89 221.5q0 132 92 218t234 86q105 0 173 -33v-154h-43z" />
    <glyph glyph-name="uni1E21" unicode="&#x1e21;" horiz-adv-x="486" 
d="M343 566h-246v55h246v-55zM228 176q-22 0 -41 3l-49 -63l130 -17q173 -23 173 -129q0 -71 -67.5 -127.5t-176.5 -56.5q-84 0 -130 36t-46 91q0 35 27.5 70t71.5 60l-53 7v58l82 81q-89 35 -89 121q0 59 46 104t116 45q84 0 128 -46l91 38h27v-60h-100q21 -35 21 -79
q0 -54 -49.5 -95t-111.5 -41zM247 27l-94 12q-60 -55 -60 -119q0 -39 32 -61.5t97 -22.5t107.5 29t42.5 72q0 75 -125 90zM304 307q0 53 -23.5 82t-61.5 29q-35 0 -57 -26.5t-22 -73.5q0 -46 22.5 -73.5t62.5 -27.5q38 0 58.5 24t20.5 66z" />
    <glyph glyph-name="uni1E22" unicode="&#x1e22;" horiz-adv-x="718" 
d="M306 679q0 22 14 36t36 14q21 0 36 -14.5t15 -35.5t-15 -35t-36 -14q-22 0 -36 14t-14 35zM404 0v34l97 20v220h-285v-220l99 -19v-35h-283v34l98 20v474l-98 20v35h283v-34l-99 -21v-208h285v208l-97 20v35h282v-34l-99 -20v-475l99 -19v-35h-282z" />
    <glyph glyph-name="uni1E23" unicode="&#x1e23;" horiz-adv-x="576" 
d="M24 0v31l80 21v590h-85v33l108 28h53v-309q83 65 172 65q65 0 95.5 -44.5t30.5 -117.5v-245l80 -20v-32h-236v31l81 21v240q0 103 -99 103q-64 0 -124 -37v-306l81 -20v-32h-237zM265 620q0 23 16 38.5t40 15.5q23 0 39.5 -15.5t16.5 -38.5t-16.5 -39t-39.5 -16
q-24 0 -40 16t-16 39z" />
    <glyph glyph-name="uni1E24" unicode="&#x1e24;" horiz-adv-x="718" 
d="M404 0v34l97 20v220h-285v-220l99 -19v-35h-283v34l98 20v474l-98 20v35h283v-34l-99 -21v-208h285v208l-97 20v35h282v-34l-99 -20v-475l99 -19v-35h-282zM310 -113q0 22 14 36t36 14q21 0 36 -14.5t15 -35.5t-15 -35t-36 -14q-22 0 -36 14t-14 35z" />
    <glyph glyph-name="uni1E25" unicode="&#x1e25;" horiz-adv-x="576" 
d="M24 0v31l80 21v590h-85v33l108 28h53v-309q83 65 172 65q65 0 95.5 -44.5t30.5 -117.5v-245l80 -20v-32h-236v31l81 21v240q0 103 -99 103q-64 0 -124 -37v-306l81 -20v-32h-237zM241 -113q0 22 14 36t36 14q21 0 36 -14.5t15 -35.5t-15 -35t-36 -14q-22 0 -36 14t-14 35
z" />
    <glyph glyph-name="uni1E2A" unicode="&#x1e2a;" horiz-adv-x="718" 
d="M354 -167q-49 0 -79 29.5t-39 74.5l43 12q8 -29 27.5 -49t49.5 -20q37 0 59 20.5t24 46.5l40 -11q-7 -48 -41.5 -75.5t-83.5 -27.5zM404 0v34l97 20v220h-285v-220l99 -19v-35h-283v34l98 20v474l-98 20v35h283v-34l-99 -21v-208h285v208l-97 20v35h282v-34l-99 -20v-475
l99 -19v-35h-282z" />
    <glyph glyph-name="uni1E2B" unicode="&#x1e2b;" horiz-adv-x="576" 
d="M285 -167q-49 0 -79 29.5t-39 74.5l43 12q8 -29 27.5 -49t49.5 -20q37 0 59 20.5t24 46.5l40 -11q-7 -48 -41.5 -75.5t-83.5 -27.5zM24 0v31l80 21v590h-85v33l108 28h53v-309q83 65 172 65q65 0 95.5 -44.5t30.5 -117.5v-245l80 -20v-32h-236v31l81 21v240
q0 103 -99 103q-64 0 -124 -37v-306l81 -20v-32h-237z" />
    <glyph glyph-name="uni1E32" unicode="&#x1e32;" horiz-adv-x="600" 
d="M280 -113q0 22 14 36t36 14q21 0 36 -14.5t15 -35.5t-15 -35t-36 -14q-22 0 -36 14t-14 35zM32 0v34l98 20v474l-98 20v35h283v-34l-99 -21v-474l99 -19v-35h-283zM454 0l-221 293v17l209 218l-59 22v33h203v-35l-65 -21l-205 -204l213 -267l82 -20v-36h-157z" />
    </font>
</defs>
</svg>
