<?xml version="1.0" standalone="no"?>
<!DOCTYPE svg PUBLIC "-//W3C//DTD SVG 1.1//EN" "http://www.w3.org/Graphics/SVG/1.1/DTD/svg11.dtd" >
<svg xmlns="http://www.w3.org/2000/svg" xmlns:xlink="http://www.w3.org/1999/xlink" version="1.1">
<metadata>
Created by FontForge 20161013 at Tue Feb  3 16:56:31 2009
 By ,,,
Copyright (c) 2008 Typotheque.com All rights reserved.
</metadata>
<defs>
<font id="GretaDisplayPro-Bold" horiz-adv-x="599" >
  <font-face 
    font-family="Greta Display Pro Bold"
    font-weight="700"
    font-stretch="normal"
    units-per-em="1000"
    panose-1="2 0 5 3 0 0 0 2 0 4"
    ascent="710"
    descent="-290"
    x-height="459"
    cap-height="583"
    bbox="-457 -384 1356 884"
    underline-thickness="50"
    underline-position="-200"
    unicode-range="U+0020-FB04"
  />
<missing-glyph horiz-adv-x="712" 
d="M305 375v27h27v-27h-27zM380 525v27h27v-27h-27zM305 525v27h27v-27h-27zM230 525v27h27v-27h-27zM80 0v27h27v-27h-27zM155 0v27h27v-27h-27zM230 0v27h27v-27h-27zM305 0v27h27v-27h-27zM380 0v27h27v-27h-27zM80 75v27h27v-27h-27zM80 150v27h27v-27h-27zM80 225v27
h27v-27h-27zM80 300v27h27v-27h-27zM80 375v27h27v-27h-27zM80 450v27h27v-27h-27zM80 525v27h27v-27h-27zM80 600v27h27v-27h-27zM80 675v27h27v-27h-27zM155 675v27h27v-27h-27zM230 675v27h27v-27h-27zM305 675v27h27v-27h-27zM380 675v27h27v-27h-27zM455 675v27h27v-27
h-27zM530 675v27h27v-27h-27zM530 0v27h27v-27h-27zM455 0v27h27v-27h-27zM605 0v27h27v-27h-27zM605 675v27h27v-27h-27zM305 300v27h27v-27h-27zM305 150v27h27v-27h-27zM380 375v27h27v-27h-27zM455 375v27h27v-27h-27zM455 450v27h27v-27h-27zM455 525v27h27v-27h-27z
M605 600v27h27v-27h-27zM605 525v27h27v-27h-27zM605 375v27h27v-27h-27zM605 300v27h27v-27h-27zM605 150v27h27v-27h-27zM605 75v27h27v-27h-27zM605 225v27h27v-27h-27zM605 450v27h27v-27h-27z" />
    <glyph glyph-name="f_f" unicode="ff" horiz-adv-x="678" 
d="M348 0v19l66 13v363h-167v-360l78 -15v-20h-296v19l66 13v363h-81v31l81 19v22q0 109 74.5 165.5t190.5 56.5q63 0 141 -25q55 45 161 45q38 0 73 -8l-11 -124h-15l-119 82q-24 -23 -24 -55v-160h98v-49h-98v-360l78 -15v-20h-296zM247 584v-140h162l5 1v42q0 47 15 86
q-71 51 -156 68q-26 -23 -26 -57z" />
    <glyph glyph-name="fi" unicode="fi" horiz-adv-x="641" 
d="M29 0v19l66 13v363h-81v31l81 19v42q0 116 73 169t192 53q68 0 156 -28l-56 -113l-187 93q-26 -23 -26 -57v-160h166l88 25h65v-435l68 -14v-20h-286v19l66 13v363h-167v-360l78 -15v-20h-296z" />
    <glyph glyph-name="fl" unicode="fl" horiz-adv-x="641" 
d="M348 0v19l66 13v559l-141 70q-26 -23 -26 -57v-160h107v-49h-107v-360l78 -15v-20h-296v19l66 13v363h-81v31l81 19v42q0 112 74 167t191 55q47 0 109 -15l32 9h65v-669l68 -14v-20h-286z" />
    <glyph glyph-name="f_f_i" unicode="ffi" horiz-adv-x="959" 
d="M666 0v19l66 13v363h-166v-360l78 -15v-20h-296v19l66 13v363h-167v-360l78 -15v-20h-296v19l66 13v363h-81v31l81 19v22q0 109 74.5 165.5t190.5 56.5q63 0 141 -25q55 45 161 45q38 0 73 -8l-11 -124h-15l-119 82q-24 -23 -24 -55v-160h165l88 25h65v-435l68 -14v-20
h-286zM414 487q0 47 15 86q-71 51 -156 68q-26 -23 -26 -57v-140h162l5 1v42z" />
    <glyph glyph-name="f_f_l" unicode="ffl" horiz-adv-x="960" 
d="M667 0v19l66 13v559l-141 70q-26 -23 -26 -57v-160h107v-49h-107v-360l78 -15v-20h-296v19l66 13v363h-167v-360l78 -15v-20h-296v19l66 13v363h-81v31l81 19v22q0 109 74.5 165.5t190.5 56.5q63 0 141 -25q68 45 178 45q47 0 109 -15l32 9h65v-669l68 -14v-20h-286z
M414 487q0 47 14 86q-67 50 -155 68q-26 -23 -26 -57v-140h162l5 1v42z" />
    <glyph glyph-name="uni0045030A" unicode="E&#x2da;" horiz-adv-x="556" 
d="M473 274l-206 3v-240h155l100 144l23 -4l-30 -177h-494v19l75 13v516l-75 15v20h496v-162h-23l-75 126h-152v-228l206 4v-49zM320 632q-26 0 -48 18t-22 53q0 29 19 49t51 20q29 0 50 -19t21 -50t-19 -51t-52 -20zM320 654q49 0 49 49q0 21 -13.5 34t-35.5 13
q-24 0 -36 -14t-12 -33q0 -24 14 -36.5t34 -12.5z" />
    <glyph glyph-name="uni00460304" unicode="F&#xaf;" horiz-adv-x="512" 
d="M21 583h486v-162h-22l-76 126h-142v-245l196 4v-50l-196 7v-228l92 -15v-20h-338v19l75 13v516l-75 15v20zM427 664h-245v41h245v-41z" />
    <glyph glyph-name="uni00480331" unicode="H&#x331;" horiz-adv-x="730" 
d="M393 0v19l75 13v255h-201v-254l70 -13v-20h-316v19l75 13v516l-75 15v20h316v-19l-70 -13v-234h201v231l-75 15v20h316v-19l-70 -13v-518l70 -13v-20h-316zM492 -130h-246v38h246v-38z" />
    <glyph glyph-name="uni004A0301" unicode="J&#xb4;" horiz-adv-x="442" 
d="M176 -8q-84 0 -173 33v183h22l72 -160q30 -16 50 -16q32 0 43 27t11 100v389l-75 15v20h316v-19l-70 -13v-389q0 -75 -59 -122.5t-137 -47.5zM376 746l38 -84l-209 -42l-7 16z" />
    <glyph glyph-name="uni004D0310" unicode="M&#x310;" horiz-adv-x="855" 
d="M560 0v19l60 11l-35 423h-6l-173 -461h-68l-172 461h-6l-30 -409l85 -24v-20h-205v19l73 26l51 500l-87 18v20h245l147 -376l150 376h228v-20l-81 -19l54 -517l55 -7v-20h-285zM449 615q-40 0 -75 15.5t-50 29t-19 21.5l49 36q34 -44 97 -44q38 0 69.5 14.5t38.5 25.5
l19 -8q-8 -30 -44.5 -60t-84.5 -30zM391 774q0 57 62 57t62 -57q0 -56 -62 -56t-62 56z" />
    <glyph glyph-name="uni004E0304" unicode="N&#xaf;" horiz-adv-x="685" 
d="M14 0v19l87 27v484l-87 33v20h207l321 -331v279l-124 32v20h254v-19l-87 -27v-545h-57l-384 436v-376l135 -32v-20h-265zM477 664h-245v41h245v-41z" />
    <glyph glyph-name="uni00500304" unicode="P&#xaf;" horiz-adv-x="588" 
d="M21 0v19l75 13v516l-75 15v20h329q107 0 169 -47t62 -141q0 -84 -68.5 -130.5t-201.5 -46.5h-44v-185l70 -13v-20h-316zM277 545h-10v-287h13q113 0 113 144q0 140 -116 143zM444 664h-245v41h245v-41z" />
    <glyph glyph-name="uni00520300" unicode="R`" horiz-adv-x="648" 
d="M21 0v19l75 13v516l-75 15v20h329q98 0 157 -43.5t59 -124.5q0 -113 -115 -148l152 -230l49 -18v-19h-217l-145 251h-23v-218l70 -13v-20h-316zM270 545h-3v-255q61 3 86 31.5t25 93.5q0 63 -25.5 95.5t-82.5 34.5zM167 663l38 84l176 -113l-7 -15z" />
    <glyph glyph-name="uni00520325" unicode="R&#x325;" horiz-adv-x="648" 
d="M21 0v19l75 13v516l-75 15v20h329q98 0 157 -43.5t59 -124.5q0 -113 -115 -148l152 -230l49 -18v-19h-217l-145 251h-23v-218l70 -13v-20h-316zM270 545h-3v-255q61 3 86 31.5t25 93.5q0 63 -25.5 95.5t-82.5 34.5zM323 -189q-26 0 -48 18t-22 53q0 29 19 49t51 20
q29 0 50 -19t21 -50t-19 -51t-52 -20zM323 -167q49 0 49 49q0 21 -13.5 34t-35.5 13q-24 0 -36 -14t-12 -33q0 -24 14 -36.5t34 -12.5z" />
    <glyph glyph-name="uni005203250304" unicode="R&#x325;&#xaf;" horiz-adv-x="648" 
d="M21 0v19l75 13v516l-75 15v20h329q98 0 157 -43.5t59 -124.5q0 -113 -115 -148l152 -230l49 -18v-19h-217l-145 251h-23v-218l70 -13v-20h-316zM270 545h-3v-255q61 3 86 31.5t25 93.5q0 63 -25.5 95.5t-82.5 34.5zM323 -189q-26 0 -48 18t-22 53q0 29 19 49t51 20
q29 0 50 -19t21 -50t-19 -51t-52 -20zM442 664h-245v41h245v-41zM323 -167q49 0 49 49q0 21 -13.5 34t-35.5 13q-24 0 -36 -14t-12 -33q0 -24 14 -36.5t34 -12.5z" />
    <glyph glyph-name="uni00530331" unicode="S&#x331;" horiz-adv-x="499" 
d="M429 397l-62 134q-48 23 -95 23q-48 0 -79 -26t-31 -62q0 -62 134 -105q32 -10 52.5 -18t48 -23.5t43 -34t27 -47t11.5 -64.5q0 -94 -69 -138t-188 -44q-92 0 -194 40v169h26l60 -142q59 -30 115 -30q44 0 75.5 25.5t31.5 63.5q0 9 -3 17.5t-9.5 16t-13 14t-18.5 13
t-21 11.5t-24.5 11.5t-25 10t-27 10.5t-26.5 10q-63 24 -99.5 63t-36.5 109q0 90 65.5 138.5t169.5 48.5q114 0 188 -38v-156h-25zM363 -130h-246v38h246v-38z" />
    <glyph glyph-name="uni00530300" unicode="S`" horiz-adv-x="499" 
d="M429 397l-62 134q-48 23 -95 23q-48 0 -79 -26t-31 -62q0 -62 134 -105q32 -10 52.5 -18t48 -23.5t43 -34t27 -47t11.5 -64.5q0 -94 -69 -138t-188 -44q-92 0 -194 40v169h26l60 -142q59 -30 115 -30q44 0 75.5 25.5t31.5 63.5q0 9 -3 17.5t-9.5 16t-13 14t-18.5 13
t-21 11.5t-24.5 11.5t-25 10t-27 10.5t-26.5 10q-63 24 -99.5 63t-36.5 109q0 90 65.5 138.5t169.5 48.5q114 0 188 -38v-156h-25zM135 663l38 84l176 -113l-7 -15z" />
    <glyph glyph-name="uni00530306" unicode="S&#x2d8;" horiz-adv-x="499" 
d="M429 397l-62 134q-48 23 -95 23q-48 0 -79 -26t-31 -62q0 -62 134 -105q32 -10 52.5 -18t48 -23.5t43 -34t27 -47t11.5 -64.5q0 -94 -69 -138t-188 -44q-92 0 -194 40v169h26l60 -142q59 -30 115 -30q44 0 75.5 25.5t31.5 63.5q0 9 -3 17.5t-9.5 16t-13 14t-18.5 13
t-21 11.5t-24.5 11.5t-25 10t-27 10.5t-26.5 10q-63 24 -99.5 63t-36.5 109q0 90 65.5 138.5t169.5 48.5q114 0 188 -38v-156h-25zM277 630q-39 0 -72 15.5t-46 29t-17 21.5l41 31q5 -8 14.5 -16.5t32.5 -18t50 -9.5q36 0 62 14.5t36 27.5l13 -17q-10 -24 -40.5 -51
t-73.5 -27z" />
    <glyph glyph-name="uni00540308" unicode="T&#xa8;" horiz-adv-x="561" 
d="M121 0v19l75 13v515h-73l-99 -176h-23v212h559v-212h-22l-99 176h-72v-514l70 -13v-20h-316zM151 677q0 23 14.5 38t36.5 15q23 0 38 -15t15 -38q0 -22 -15 -36.5t-38 -14.5q-22 0 -36.5 14.5t-14.5 36.5zM328 677q0 23 15 38t38 15q22 0 36.5 -15t14.5 -38
q0 -22 -14.5 -36.5t-36.5 -14.5q-23 0 -38 14.5t-15 36.5z" />
    <glyph glyph-name="uni00560304" unicode="V&#xaf;" horiz-adv-x="589" 
d="M244 0l-206 554l-45 9v20h284v-19l-53 -9l123 -382h7l132 364l-93 26v20h202v-19l-58 -21l-208 -543h-85zM443 664h-245v41h245v-41z" />
    <glyph glyph-name="uni00580304" unicode="X&#xaf;" horiz-adv-x="611" 
d="M328 0v19l59 12l-122 198l-125 -186l101 -23v-20h-233v19l65 15l169 232l-179 288l-44 9v20h274v-19l-51 -9l102 -162l98 148l-72 22v20h212v-19l-92 -28l-126 -176l207 -332l41 -8v-20h-284zM453 664h-245v41h245v-41z" />
    <glyph glyph-name="uni005A0324" unicode="Z&#x324;" horiz-adv-x="534" 
d="M22 0l-12 36l309 511h-189l-76 -155h-20v191h461l10 -34l-323 -512h227l85 147l24 -5l-21 -179h-475zM106 -100q0 26 16 42.5t41 16.5t42 -17t17 -42q0 -24 -17 -40.5t-42 -16.5t-41 16.5t-16 40.5zM283 -100q0 26 16.5 42.5t42.5 16.5q24 0 40.5 -17t16.5 -42
q0 -24 -16.5 -40.5t-40.5 -16.5q-25 0 -42 16.5t-17 40.5z" />
    <glyph glyph-name="uni0065030A" unicode="e&#x2da;" horiz-adv-x="521" 
d="M505 233h-318q3 -80 48 -119.5t104 -39.5q65 0 133 28l10 -12q-32 -40 -93 -69t-127 -29q-109 0 -173.5 57.5t-64.5 167.5q0 116 78 184t185 68q103 0 160.5 -62.5t57.5 -173.5zM269 431q-76 0 -82 -164l154 10q-1 61 -19 107.5t-53 46.5zM275 538q-26 0 -48 18t-22 53
q0 29 19 49t51 20q29 0 50 -19t21 -50t-19 -51t-52 -20zM275 560q49 0 49 49q0 21 -13.5 34t-35.5 13q-24 0 -36 -14t-12 -33q0 -24 14 -36.5t34 -12.5z" />
    <glyph glyph-name="uni00660304" unicode="f&#xaf;" horiz-adv-x="359" 
d="M29 0v19l66 13v363h-81v31l81 19v42q0 104 70 162.5t179 58.5q43 0 72 -7l-11 -124h-15l-119 82q-24 -23 -24 -55v-160h98v-49h-98v-360l78 -15v-20h-296zM417 772h-246v38h246v-38z" />
    <glyph glyph-name="uni006A0301" unicode="j&#xb4;" horiz-adv-x="303" 
d="M237 27q0 -68 -51 -129.5t-151 -95.5l-12 14q38 36 50 77t12 111v397h-75v22l162 46h65v-442zM227 681l62 -72l-190 -96l-10 11z" />
    <glyph glyph-name="uni006D0310" unicode="m&#x310;" horiz-adv-x="901" 
d="M325 0v19l58 12v238q0 116 -98 116q-23 0 -48 -6v-346l57 -13v-20h-276v19l67 13v369h-75v22l162 46h40l20 -61q79 61 165 61t120 -72q84 72 179 72q62 0 100.5 -42t38.5 -130v-264l61 -13v-20h-276v19l62 13v237q0 116 -98 116q-26 0 -60 -8q12 -38 12 -80v-265l55 -12
v-20h-266zM455 527q-40 0 -75 17t-49.5 31t-19.5 23l49 36q38 -49 97 -49q38 0 69 17t39 29l19 -8q-8 -31 -45 -63.5t-84 -32.5zM390 686q0 57 62 57t62 -57q0 -56 -62 -56t-62 56z" />
    <glyph glyph-name="uni006E0304" unicode="n&#xaf;" horiz-adv-x="610" 
d="M18 0v19l67 13v369h-75v22l162 46h40l22 -68q83 68 173 68q62 0 100.5 -42t38.5 -130v-265l59 -12v-20h-276v19l64 13v237q0 116 -98 116q-26 0 -58 -8v-344l57 -13v-20h-276zM451 568h-246v38h246v-38z" />
    <glyph glyph-name="uni007000AF" unicode="p&#xaf;" horiz-adv-x="580" 
d="M4 -208v19l71 14v576h-75v22l162 46h40l19 -47q64 47 140 47q91 0 143 -55.5t52 -166.5q0 -118 -83.5 -186.5t-194.5 -68.5q-17 0 -51 2v-166l85 -16v-20h-308zM260 404q-16 0 -33 -3v-365q18 -6 34 -6q65 0 97.5 55t32.5 145q0 72 -39.5 123t-91.5 51zM415 568h-246v38
h246v-38z" />
    <glyph glyph-name="uni00720325" unicode="r&#x325;" horiz-adv-x="418" 
d="M27 0v19l58 11v371h-75v22l162 46h40l20 -53q81 53 130 53q26 0 46 -5l-16 -150h-22l-133 82v-360l76 -16v-20h-286zM160 -189q-26 0 -48 18t-22 53q0 29 19 49t51 20q29 0 50 -19t21 -50t-19 -51t-52 -20zM160 -167q49 0 49 49q0 21 -13.5 34t-35.5 13q-24 0 -36 -14
t-12 -33q0 -24 14 -36.5t34 -12.5z" />
    <glyph glyph-name="uni007203250304" unicode="r&#x325;&#xaf;" horiz-adv-x="418" 
d="M27 0v19l58 11v371h-75v22l162 46h40l20 -53q81 53 130 53q26 0 46 -5l-16 -150h-22l-133 82v-360l76 -16v-20h-286zM160 -189q-26 0 -48 18t-22 53q0 29 19 49t51 20q29 0 50 -19t21 -50t-19 -51t-52 -20zM358 567h-246v38h246v-38zM160 -167q49 0 49 49q0 21 -13.5 34
t-35.5 13q-24 0 -36 -14t-12 -33q0 -24 14 -36.5t34 -12.5z" />
    <glyph glyph-name="uni00720300" unicode="r`" horiz-adv-x="418" 
d="M27 0v19l58 11v371h-75v22l162 46h40l20 -53q81 53 130 53q26 0 46 -5l-16 -150h-22l-133 82v-360l76 -16v-20h-286zM98 609l62 72l138 -157l-9 -13z" />
    <glyph glyph-name="uni00730331" unicode="s&#x331;" horiz-adv-x="451" 
d="M210 -9q-76 0 -185 21v137h43l67 -107q31 -13 67 -13q87 0 87 68q0 23 -27 39.5t-66 29.5t-78 30t-66 52t-27 85q0 45 34 77t81.5 45.5t101.5 13.5q107 0 180 -32v-113h-44l-60 96q-25 9 -60 9t-60 -17t-25 -42q0 -26 27 -43t65.5 -28.5t77.5 -27t66 -49.5t27 -86
q0 -63 -64 -104t-162 -41zM349 -130h-246v38h246v-38z" />
    <glyph glyph-name="uni00730300" unicode="s`" horiz-adv-x="451" 
d="M210 -9q-76 0 -185 21v137h43l67 -107q31 -13 67 -13q87 0 87 68q0 23 -27 39.5t-66 29.5t-78 30t-66 52t-27 85q0 45 34 77t81.5 45.5t101.5 13.5q107 0 180 -32v-113h-44l-60 96q-25 9 -60 9t-60 -17t-25 -42q0 -26 27 -43t65.5 -28.5t77.5 -27t66 -49.5t27 -86
q0 -63 -64 -104t-162 -41zM99 610l62 72l138 -157l-9 -13z" />
    <glyph glyph-name="uni00730306" unicode="s&#x2d8;" horiz-adv-x="451" 
d="M210 -9q-76 0 -185 21v137h43l67 -107q31 -13 67 -13q87 0 87 68q0 23 -27 39.5t-66 29.5t-78 30t-66 52t-27 85q0 45 34 77t81.5 45.5t101.5 13.5q107 0 180 -32v-113h-44l-60 96q-25 9 -60 9t-60 -17t-25 -42q0 -26 27 -43t65.5 -28.5t77.5 -27t66 -49.5t27 -86
q0 -63 -64 -104t-162 -41zM246 539q-40 0 -75 17t-49.5 31t-19.5 23l49 36q38 -49 97 -49q38 0 69 17t39 29l19 -8q-8 -31 -45 -63.5t-84 -32.5z" />
    <glyph glyph-name="uni00760304" unicode="v&#xaf;" horiz-adv-x="533" 
d="M543 459v-19l-64 -19l-183 -421h-77l-187 430l-42 9v20h286v-19l-72 -15l104 -294h10l112 282l-90 26v20h203zM416 568h-246v38h246v-38z" />
    <glyph glyph-name="uni00780304" unicode="x&#xaf;" horiz-adv-x="557" 
d="M328 256l189 -228l37 -8v-20h-286v19l62 12l-93 145l-117 -134l84 -22v-20h-213v19l65 18l157 175l-171 218l-41 9v20h286v-19l-74 -15l90 -132l105 124l-74 22v20h203v-19l-71 -21zM417 568h-246v38h246v-38z" />
    <glyph glyph-name="uni007A0324" unicode="z&#x324;" horiz-adv-x="483" 
d="M467 185l-19 -185h-420l-13 45l256 374h-135l-91 -124l-20 3l13 161h393l18 -54l-248 -365h150l99 148zM72 -100q0 26 16 42.5t41 16.5t42 -17t17 -42q0 -24 -17 -40.5t-42 -16.5t-41 16.5t-16 40.5zM249 -100q0 26 16.5 42.5t42.5 16.5q24 0 40.5 -17t16.5 -42
q0 -24 -16.5 -40.5t-40.5 -16.5q-25 0 -42 16.5t-17 40.5z" />
    <glyph glyph-name="f_h" unicode="fh" horiz-adv-x="944" 
d="M347 0v19l66 13v559l-140 70q-26 -23 -26 -57v-160h126v-49h-126v-360l78 -15v-20h-296v19l66 13v363h-81v31l81 19v42q0 109 74.5 165.5t190.5 56.5q47 0 109 -15l31 9h65v-304q85 70 176 70q62 0 100.5 -42t38.5 -130v-265l59 -12v-20h-276v19l64 13v237q0 116 -98 116
q-31 0 -64 -9v-343l58 -13v-20h-276z" />
    <glyph glyph-name="f_b" unicode="fb" horiz-adv-x="919" 
d="M617 -8q-127 0 -203 32v567l-141 70q-26 -23 -26 -57v-160h120v-49h-120v-360l78 -15v-20h-296v19l66 13v363h-81v31l81 19v42q0 109 74.5 165.5t190.5 56.5q47 0 109 -15l32 9h65v-277q64 43 134 43q91 0 143 -55.5t52 -166.5q0 -118 -83.5 -186.5t-194.5 -68.5z
M598 410q-17 0 -32 -3v-373q8 -1 25 -1q68 0 103.5 57t35.5 159q0 71 -39 116t-93 45z" />
    <glyph glyph-name="f_j" unicode="fj" horiz-adv-x="601" 
d="M364 -198l-12 14q38 36 50 77t12 111v391h-167v-360l78 -15v-20h-296v19l66 13v363h-81v31l81 19v42q0 110 71.5 166t193.5 56q68 0 156 -28l-56 -113l-187 93q-26 -23 -26 -57v-160h166l88 25h65v-442q0 -68 -51 -129.5t-151 -95.5z" />
    <glyph glyph-name="f_k" unicode="fk" horiz-adv-x="890" 
d="M348 0v19l66 14v558l-141 70q-26 -23 -26 -57v-160h127v-49h-127v-360l78 -15v-20h-296v19l66 13v363h-81v31l81 19v42q0 110 71.5 166t193.5 56q47 0 109 -15l32 9h65v-671l58 -12v-20h-276zM703 0l-127 209v22l154 183l-93 28v17h232v-18l-92 -28l-98 -112l164 -247
l47 -34v-20h-187z" />
    <glyph glyph-name="f_igrave" unicode="f&#xec;" horiz-adv-x="656" 
d="M348 0v19l66 13v363h-167v-360l78 -15v-20h-296v19l66 13v363h-81v31l81 19v42q0 101 69.5 161.5t174.5 60.5q26 0 61 -8l-11 -124h-15l-102 83q-25 -24 -25 -56v-160h166l88 25h65v-435l68 -14v-20h-286zM409 640l62 72l138 -157l-9 -13z" />
    <glyph glyph-name="f_idieresis" unicode="f&#xef;" horiz-adv-x="663" 
d="M348 0v19l66 13v363h-167v-360l78 -15v-20h-296v19l66 13v363h-81v31l81 19v42q0 101 69.5 161.5t174.5 60.5q26 0 61 -8l-11 -124h-15l-102 83q-25 -24 -25 -56v-160h166l88 25h65v-435l68 -14v-20h-286zM408 597q0 26 16 42.5t41 16.5t42 -17t17 -42q0 -24 -17 -40.5
t-42 -16.5t-41 16.5t-16 40.5zM585 597q0 25 16.5 42t42.5 17q24 0 40.5 -17t16.5 -42q0 -24 -16.5 -40.5t-40.5 -16.5q-25 0 -42 16.5t-17 40.5z" />
    <glyph glyph-name="lambda_lambda" unicode="&#x3bb;&#x3bb;" horiz-adv-x="1004" 
d="M484 575h-9q-26 30 -41 69q20 29 66.5 47.5t93.5 18.5q51 0 110.5 -32.5t76.5 -101.5l104 -432q10 -41 27 -59.5t43 -21.5q22 -2 43 4l5 -27q-52 -48 -135 -48q-97 0 -118 82l-73 304l-44 -187q-21 -105 -71.5 -152t-108.5 -47q-65 0 -103 34.5t-60 114.5l-58 237
l-88 -378h-122v52l197 369l-29 116q-11 45 -28.5 88t-30.5 51q-12 -6 -43 -41t-49 -60h-9q-26 30 -41 69q20 29 66.5 47.5t93.5 18.5q51 0 110.5 -32.5t76.5 -101.5l106 -442q13 -53 39 -70h10l173 357l-29 116q-11 45 -28.5 88t-30.5 51q-12 -6 -43 -41t-49 -60z" />
    <glyph glyph-name="gamma_gamma" unicode="&#x3b3;&#x3b3;" horiz-adv-x="928" 
d="M726 -208q-18 -9 -74 -7q-48 0 -78 6q7 32 20 99.5t21 99.5q-39 167 -108 319q-15 32 -31 58h-11q-71 -139 -165 -367q7 -98 11 -208q-18 -9 -74 -7q-48 0 -78 6q7 32 20 99.5t21 99.5q-39 167 -108 319q-30 62 -42 72q-23 16 -57 12l-9 34q25 15 69 28t85 14
q29 1 45 -12t28 -46q37 -94 88 -338h6l97 386q35 10 76 10q48 0 88.5 -12.5t51.5 -34.5q49 -124 96 -349h6l100 396q25 2 64 -6t56 -19q-14 -34 -108.5 -211.5t-116.5 -232.5q7 -98 11 -208z" />
    <glyph glyph-name=".notdef" horiz-adv-x="712" 
d="M305 375v27h27v-27h-27zM380 525v27h27v-27h-27zM305 525v27h27v-27h-27zM230 525v27h27v-27h-27zM80 0v27h27v-27h-27zM155 0v27h27v-27h-27zM230 0v27h27v-27h-27zM305 0v27h27v-27h-27zM380 0v27h27v-27h-27zM80 75v27h27v-27h-27zM80 150v27h27v-27h-27zM80 225v27
h27v-27h-27zM80 300v27h27v-27h-27zM80 375v27h27v-27h-27zM80 450v27h27v-27h-27zM80 525v27h27v-27h-27zM80 600v27h27v-27h-27zM80 675v27h27v-27h-27zM155 675v27h27v-27h-27zM230 675v27h27v-27h-27zM305 675v27h27v-27h-27zM380 675v27h27v-27h-27zM455 675v27h27v-27
h-27zM530 675v27h27v-27h-27zM530 0v27h27v-27h-27zM455 0v27h27v-27h-27zM605 0v27h27v-27h-27zM605 675v27h27v-27h-27zM305 300v27h27v-27h-27zM305 150v27h27v-27h-27zM380 375v27h27v-27h-27zM455 375v27h27v-27h-27zM455 450v27h27v-27h-27zM455 525v27h27v-27h-27z
M605 600v27h27v-27h-27zM605 525v27h27v-27h-27zM605 375v27h27v-27h-27zM605 300v27h27v-27h-27zM605 150v27h27v-27h-27zM605 75v27h27v-27h-27zM605 225v27h27v-27h-27zM605 450v27h27v-27h-27z" />
    <glyph glyph-name=".null" horiz-adv-x="0" 
 />
    <glyph glyph-name="nonmarkingreturn" horiz-adv-x="333" 
 />
    <glyph glyph-name="space" unicode=" " horiz-adv-x="206" 
 />
    <glyph glyph-name="exclam" unicode="!" horiz-adv-x="294" 
d="M216 583l-52 -368h-33l-52 368h137zM54 75q0 37 26.5 64.5t67.5 27.5q43 0 67.5 -26.5t24.5 -65.5q0 -33 -25 -59t-67 -26q-41 0 -67.5 25.5t-26.5 59.5z" />
    <glyph glyph-name="quotedbl" unicode="&#x22;" horiz-adv-x="391" 
d="M45 337v246h121l-82 -246h-39zM226 337v246h124l-84 -246h-40z" />
    <glyph glyph-name="numbersign" unicode="#" horiz-adv-x="621" 
d="M73 393v44h132l34 146h42l-33 -146h167l34 146h44l-33 -146h110v-44h-120l-38 -169h120v-45h-130l-40 -179h-46l41 179h-167l-40 -179h-46l41 179h-110v45h121l39 169h-122zM238 393l-38 -169h167l38 169h-167z" />
    <glyph glyph-name="dollar" unicode="$" horiz-adv-x="493" 
d="M412 398l-22 106q-57 43 -124 47v-181q7 -3 32.5 -13t35.5 -14.5t32 -16t32.5 -19.5t26 -23t22.5 -29.5t12.5 -35t5.5 -43.5q0 -162 -199 -179v-52h-35v50h-10q-98 0 -190 40v167h32l20 -111q75 -54 146 -54h2v189q-8 3 -31.5 12.5t-34 13.5t-31 14.5t-30.5 18.5t-25 21
t-21.5 26.5t-12 32t-5.5 39.5q0 82 52.5 129.5t138.5 55.5v64h35v-62q110 -1 176 -38v-155h-30zM168 470q0 -51 63 -85v163q-28 -8 -45.5 -29t-17.5 -49zM325 136q0 44 -59 74v-167q59 20 59 93z" />
    <glyph glyph-name="percent" unicode="%" horiz-adv-x="692" 
d="M24 411q0 77 38.5 124.5t99.5 47.5q62 0 99.5 -44t37.5 -126q0 -76 -38.5 -121.5t-98.5 -45.5q-62 0 -100 43t-38 122zM207 409q0 135 -48 135q-43 0 -43 -132q0 -125 50 -125q16 0 28.5 31.5t12.5 90.5zM396 157q0 77 38.5 124.5t98.5 47.5q62 0 100 -44t38 -126
q0 -76 -38.5 -121.5t-99.5 -45.5t-99 43t-38 122zM579 155q0 136 -49 136q-42 0 -42 -133q0 -124 49 -124q10 0 19.5 11.5t16 40t6.5 69.5zM207 0h-42l325 583h43z" />
    <glyph glyph-name="ampersand" unicode="&#x26;" horiz-adv-x="738" 
d="M734 20v-20h-208q-39 15 -85 45q-84 -53 -173 -53q-109 0 -166 38t-57 108q0 97 124 141q-64 77 -64 149q0 73 56 118t144 45q87 0 140 -33t53 -100q0 -49 -47.5 -82.5t-126.5 -47.5q14 -13 55 -48q44 -39 139 -112q57 74 70 159l-65 17v18h201v-18l-69 -18
q-33 -101 -103 -183q132 -97 182 -123zM272 178q-47 39 -81 76q-14 -44 -14 -86q0 -63 34 -93.5t90 -30.5q46 0 102 27q-59 44 -131 107zM231 474q0 -56 82 -135q24 19 37.5 54.5t13.5 70.5q0 40 -18.5 65t-46.5 25q-32 0 -50 -23t-18 -57z" />
    <glyph glyph-name="quotesingle" unicode="'" horiz-adv-x="207" 
d="M45 337v246h121l-82 -246h-39z" />
    <glyph glyph-name="parenleft" unicode="(" horiz-adv-x="287" 
d="M226 -185q-28 24 -60 63.5t-65.5 96.5t-55.5 133t-22 153q0 68 23 139.5t57.5 127.5t66.5 95.5t58 62.5l29 -23q-25 -24 -53 -60.5t-61.5 -89.5t-55 -120t-21.5 -131q0 -73 20.5 -144.5t54 -127t59.5 -89t53 -61.5z" />
    <glyph glyph-name="parenright" unicode=")" horiz-adv-x="287" 
d="M54 -185l-27 25q27 28 53 61.5t59.5 89t54 127t20.5 144.5q0 64 -21.5 131t-55 120t-61.5 89.5t-53 60.5l29 23q26 -23 58 -62.5t66.5 -95.5t57.5 -127.5t23 -139.5q0 -77 -22 -153t-55.5 -133t-65.5 -96.5t-60 -63.5z" />
    <glyph glyph-name="asterisk" unicode="*" horiz-adv-x="371" 
d="M331 435l-6 -29l-23 -22l-101 77l16 -124l-28 -9l-28 9l16 125l-100 -78l-20 20l-8 30l116 47l-116 50l6 29l23 20l100 -79l-16 128l27 7l29 -7l-17 -127l102 78l23 -19l5 -30l-121 -49z" />
    <glyph glyph-name="plus" unicode="+" horiz-adv-x="495" 
d="M445 277h-176v-184h-45v184h-175v45h175v184h45v-184h176v-45z" />
    <glyph glyph-name="comma" unicode="," horiz-adv-x="295" 
d="M240 47q0 -58 -53.5 -132t-131.5 -122l-13 14q78 98 78 155q0 78 -79 89q0 35 31.5 63.5t71.5 28.5q43 0 69.5 -27.5t26.5 -68.5z" />
    <glyph glyph-name="hyphen" unicode="-" horiz-adv-x="302" 
d="M261 208h-220v77h220v-77z" />
    <glyph glyph-name="period" unicode="." horiz-adv-x="292" 
d="M51 75q0 37 26.5 64.5t67.5 27.5q43 0 67.5 -26.5t24.5 -65.5q0 -33 -25 -59t-67 -26q-41 0 -67.5 25.5t-26.5 59.5z" />
    <glyph glyph-name="slash" unicode="/" horiz-adv-x="271" 
d="M269 677l-221 -767h-50l222 767h49z" />
    <glyph glyph-name="zero" unicode="0" horiz-adv-x="580" 
d="M548 293q0 -129 -74 -214.5t-189 -85.5q-117 0 -185 77.5t-68 204.5q0 143 73 229.5t192 86.5q128 0 189.5 -81.5t61.5 -216.5zM370 287q0 127 -17.5 197t-63.5 70t-64 -71t-18 -204q0 -62 3.5 -104t13 -77t27.5 -51.5t45 -16.5q40 0 57 60t17 197z" />
    <glyph glyph-name="one" unicode="1" horiz-adv-x="423" 
d="M28 0v22l103 19v459h-103v22l204 69h69v-551l98 -17v-23h-371z" />
    <glyph glyph-name="two" unicode="2" horiz-adv-x="485" 
d="M472 189l-14 -189h-422l-7 30q107 98 180.5 205t73.5 195q0 63 -24 90t-72 27q-44 0 -78.5 -44t-47.5 -100h-21v120q38 32 94 50t108 18q86 0 145 -46t59 -115q0 -76 -64.5 -147.5t-212.5 -166.5h254l28 76z" />
    <glyph glyph-name="three" unicode="3" horiz-adv-x="467" 
d="M30 156h25q27 -122 122 -122q48 0 75 37t27 76q0 121 -155 124v37q60 4 95 46t35 94q0 51 -25 78t-57 27q-75 0 -116 -119h-21v97q85 60 193 60q83 0 133.5 -39.5t50.5 -94.5q0 -98 -156 -137v-6q181 -13 181 -139q0 -84 -66.5 -133t-162.5 -49q-94 0 -178 37v126z" />
    <glyph glyph-name="four" unicode="4" horiz-adv-x="486" 
d="M450 143h-56v-143h-168v143h-232l-12 44l292 396h120v-343h83zM72 240h154v221z" />
    <glyph glyph-name="five" unicode="5" horiz-adv-x="476" 
d="M28 142h24q13 -55 40 -81t71 -26q43 0 74.5 31t31.5 89q0 53 -40 84.5t-100 31.5q-37 0 -74 -6l26 318h354l-21 -114l-300 -1l-4 -104q40 8 108 8q100 0 161 -48t61 -141q0 -54 -25 -93.5t-66 -59.5t-82.5 -29t-84.5 -9q-74 0 -154 33v117z" />
    <glyph glyph-name="six" unicode="6" horiz-adv-x="514" 
d="M260 -8q-114 0 -175.5 70.5t-61.5 197.5q0 149 79 240t208 91q86 0 154 -30v-111h-26q-14 43 -43.5 72t-74.5 29q-105 0 -120 -229q48 46 116 46q80 0 129.5 -42.5t49.5 -109.5q0 -102 -63 -163t-172 -61zM246 309q-27 0 -47 -14q-1 -9 -1 -27q0 -235 67 -235q28 0 45 47
t17 100q0 61 -21.5 95t-59.5 34z" />
    <glyph glyph-name="seven" unicode="7" horiz-adv-x="408" 
d="M39 0v25l306 430h-339l21 128h381l14 -41l-248 -542h-135z" />
    <glyph glyph-name="eight" unicode="8" horiz-adv-x="545" 
d="M264 -7q-109 0 -168.5 34t-59.5 103q0 48 35 83t90 54q-50 31 -78 68t-28 89q0 68 64.5 117.5t153.5 49.5q95 0 154.5 -36.5t59.5 -102.5q0 -35 -39 -72t-96 -48q35 -19 54.5 -32t44 -33.5t36 -44.5t11.5 -52q0 -75 -68.5 -126t-165.5 -51zM330 116q0 13 -3.5 24.5
t-13 22.5t-16.5 18.5t-24.5 19t-25 16t-30 17t-29.5 16.5q-37 -43 -37 -103q0 -114 99 -114q34 0 57 23.5t23 59.5zM210 479q0 -41 29 -70.5t84 -60.5q49 44 49 103q0 47 -26.5 74.5t-58.5 27.5q-31 0 -54 -21t-23 -53z" />
    <glyph glyph-name="nine" unicode="9" horiz-adv-x="514" 
d="M262 591q114 0 175.5 -70.5t61.5 -197.5q0 -149 -79 -240t-208 -91q-86 0 -154 30v111h26q14 -43 43.5 -72t74.5 -29q104 0 119 229q-46 -46 -115 -46q-80 0 -129.5 42.5t-49.5 109.5q0 102 63 163t172 61zM276 274q25 0 47 14q0 4 0.5 13t0.5 14q0 235 -67 235
q-28 0 -45 -47t-17 -100q0 -61 21.5 -95t59.5 -34z" />
    <glyph glyph-name="colon" unicode=":" horiz-adv-x="292" 
d="M71 75q0 37 26.5 64.5t67.5 27.5q43 0 67.5 -26.5t24.5 -65.5q0 -33 -25 -59t-67 -26q-41 0 -67.5 25.5t-26.5 59.5zM71 374q0 37 26.5 64.5t67.5 27.5q43 0 67.5 -26.5t24.5 -65.5q0 -33 -25 -59t-67 -26q-41 0 -67.5 25.5t-26.5 59.5z" />
    <glyph glyph-name="semicolon" unicode=";" horiz-adv-x="302" 
d="M260 47q0 -58 -53.5 -132t-131.5 -122l-13 14q78 98 78 155q0 78 -79 89q0 35 31.5 63.5t71.5 28.5q43 0 69.5 -27.5t26.5 -68.5zM71 374q0 37 26.5 64.5t67.5 27.5q43 0 67.5 -26.5t24.5 -65.5q0 -33 -25 -59t-67 -26q-41 0 -67.5 25.5t-26.5 59.5z" />
    <glyph glyph-name="less" unicode="&#x3c;" horiz-adv-x="495" 
d="M101 300l339 -173l-19 -38l-371 191v37l371 189l18 -37z" />
    <glyph glyph-name="equal" unicode="=" horiz-adv-x="536" 
d="M466 371h-396v45h396v-45zM466 179h-396v45h396v-45z" />
    <glyph glyph-name="greater" unicode="&#x3e;" horiz-adv-x="495" 
d="M50 127l339 173l-338 169l18 37l371 -189v-37l-371 -191z" />
    <glyph glyph-name="question" unicode="?" horiz-adv-x="412" 
d="M390 438q0 -57 -54 -104.5t-116 -65.5l-4 -65h-64l-38 102q39 14 73 50.5t34 94.5q0 105 -67 105q-13 0 -28 -4l-69 -145h-26v137q81 46 160 46q89 0 144 -37t55 -114zM85 75q0 37 26.5 64.5t67.5 27.5q43 0 67.5 -26.5t24.5 -65.5q0 -33 -25 -59t-67 -26
q-41 0 -67.5 25.5t-26.5 59.5z" />
    <glyph glyph-name="at" unicode="@" horiz-adv-x="883" 
d="M462 5l24 143l-149 -156h-70q-13 46 -13 111q0 77 16 152.5t45 113.5q68 89 150 89q49 0 105 -28l24 29h50l-68 -408l10 -7q99 40 156.5 112.5t57.5 144.5q0 143 -79.5 227.5t-231.5 84.5q-164 0 -286 -122t-122 -289q0 -172 105 -270t281 -98q65 0 139 27t123 68l17 -28
q-60 -46 -138.5 -75.5t-159.5 -29.5q-180 0 -295.5 109t-115.5 291q0 123 63 227.5t169 165t229 60.5q157 0 251 -91.5t94 -239.5q0 -50 -18.5 -96.5t-49 -82.5t-72.5 -67.5t-85 -53.5t-90 -38zM357 94l15 -5l122 107l33 178q-77 49 -116 40q-25 -36 -40.5 -111t-15.5 -153
q0 -38 2 -56z" />
    <glyph glyph-name="A" unicode="A" horiz-adv-x="625" 
d="M355 0v19l59 10l-56 141h-199l-51 -124l113 -26v-20h-225v19l63 24l231 540h87l216 -557l36 -6v-20h-274zM257 409l-83 -203h170l-81 203h-6z" />
    <glyph glyph-name="B" unicode="B" horiz-adv-x="607" 
d="M21 0v19l75 13v516l-75 15v20h300q103 0 166 -37.5t63 -106.5q0 -46 -31 -83.5t-75 -54.5v-2q142 -18 142 -133q0 -75 -63 -120.5t-177 -45.5h-325zM281 277h-14v-240h14q65 0 98 35.5t33 90.5q0 62 -38 88t-93 26zM281 550h-14v-238h11q43 0 74 28.5t31 84.5
q0 57 -25 91t-77 34z" />
    <glyph glyph-name="C" unicode="C" horiz-adv-x="604" 
d="M577 404h-25l-79 136q-31 14 -68 14q-85 0 -134.5 -73t-49.5 -188q0 -72 17.5 -129t61 -95t107.5 -38q43 0 87 30.5t61 67.5h22v-95q-30 -17 -87 -29.5t-112 -12.5q-69 0 -128.5 15t-110 46.5t-79.5 88t-29 132.5q0 155 100.5 236t263.5 81q97 0 182 -33v-154z" />
    <glyph glyph-name="D" unicode="D" horiz-adv-x="702" 
d="M21 0v19l75 13v516l-75 15v20h294q61 0 110 -6.5t96.5 -25t79 -49t51 -80t19.5 -116.5q0 -146 -99 -226t-252 -80h-299zM298 548h-31v-510h25q104 0 146.5 54t42.5 199q0 140 -39.5 198.5t-143.5 58.5z" />
    <glyph glyph-name="E" unicode="E" horiz-adv-x="556" 
d="M473 274l-206 3v-240h155l100 144l23 -4l-30 -177h-494v19l75 13v516l-75 15v20h496v-162h-23l-75 126h-152v-228l206 4v-49z" />
    <glyph glyph-name="F" unicode="F" horiz-adv-x="512" 
d="M21 583h486v-162h-22l-76 126h-142v-245l196 4v-50l-196 7v-228l92 -15v-20h-338v19l75 13v516l-75 15v20z" />
    <glyph glyph-name="G" unicode="G" horiz-adv-x="643" 
d="M560 404l-82 138q-35 12 -77 12q-75 0 -127.5 -75t-52.5 -186q0 -72 17.5 -129t61 -95.5t107.5 -38.5q10 0 32 2v223l-80 14v19h238v-254q-28 -16 -95 -29t-124 -13q-67 0 -128 16.5t-110.5 49.5t-79 89t-29.5 127q0 149 102 233t262 84q49 0 105 -11t85 -22v-154h-25z
" />
    <glyph glyph-name="H" unicode="H" horiz-adv-x="730" 
d="M393 0v19l75 13v255h-201v-254l70 -13v-20h-316v19l75 13v516l-75 15v20h316v-19l-70 -13v-234h201v231l-75 15v20h316v-19l-70 -13v-518l70 -13v-20h-316z" />
    <glyph glyph-name="I" unicode="I" horiz-adv-x="372" 
d="M28 0v19l75 13v516l-75 15v20h316v-19l-70 -13v-518l70 -13v-20h-316z" />
    <glyph glyph-name="J" unicode="J" horiz-adv-x="442" 
d="M176 -8q-84 0 -173 33v183h22l72 -160q30 -16 50 -16q32 0 43 27t11 100v389l-75 15v20h316v-19l-70 -13v-389q0 -75 -59 -122.5t-137 -47.5z" />
    <glyph glyph-name="K" unicode="K" horiz-adv-x="672" 
d="M21 0v19l75 13v516l-75 15v20h316v-19l-70 -13v-518l70 -13v-20h-316zM456 0l-172 254v24l201 261l-86 25v19h244v-23l-104 -20l-136 -174l234 -329l39 -19v-18h-220z" />
    <glyph glyph-name="L" unicode="L" horiz-adv-x="543" 
d="M21 0v19l75 13v516l-75 15v20h316v-19l-70 -13v-514h141l110 147l23 -7l-30 -177h-490z" />
    <glyph glyph-name="M" unicode="M" horiz-adv-x="855" 
d="M560 0v19l60 11l-35 423h-6l-173 -461h-68l-172 461h-6l-30 -409l85 -24v-20h-205v19l73 26l51 500l-87 18v20h245l147 -376l150 376h228v-20l-81 -19l54 -517l55 -7v-20h-285z" />
    <glyph glyph-name="N" unicode="N" horiz-adv-x="685" 
d="M14 0v19l87 27v484l-87 33v20h207l321 -331v279l-124 32v20h254v-19l-87 -27v-545h-57l-384 436v-376l135 -32v-20h-265z" />
    <glyph glyph-name="O" unicode="O" horiz-adv-x="686" 
d="M655 314q0 -140 -87 -231t-232 -91q-138 0 -221.5 75t-83.5 208q0 144 89 230t232 86q141 0 222 -71.5t81 -205.5zM464 295q0 138 -27 198.5t-92 60.5q-69 0 -96.5 -59t-27.5 -199q0 -136 27 -201t91 -65q74 0 99.5 63t25.5 202z" />
    <glyph glyph-name="P" unicode="P" horiz-adv-x="588" 
d="M21 0v19l75 13v516l-75 15v20h329q107 0 169 -47t62 -141q0 -84 -68.5 -130.5t-201.5 -46.5h-44v-185l70 -13v-20h-316zM277 545h-10v-287h13q113 0 113 144q0 140 -116 143z" />
    <glyph glyph-name="Q" unicode="Q" horiz-adv-x="686" 
d="M655 314q0 -123 -68 -209.5t-186 -106.5l254 -98v-17h-234l-50 111q-22 -2 -35 -2q-138 0 -221.5 75t-83.5 208q0 144 89 230t232 86q141 0 222 -71.5t81 -205.5zM464 295q0 60 -5 103.5t-17.5 80.5t-36.5 56t-60 19q-73 0 -98.5 -65t-25.5 -193q0 -131 27.5 -198.5
t90.5 -67.5q38 0 63.5 19t38.5 57t18 82.5t5 106.5z" />
    <glyph glyph-name="R" unicode="R" horiz-adv-x="648" 
d="M21 0v19l75 13v516l-75 15v20h329q98 0 157 -43.5t59 -124.5q0 -113 -115 -148l152 -230l49 -18v-19h-217l-145 251h-23v-218l70 -13v-20h-316zM270 545h-3v-255q61 3 86 31.5t25 93.5q0 63 -25.5 95.5t-82.5 34.5z" />
    <glyph glyph-name="S" unicode="S" horiz-adv-x="499" 
d="M429 397l-62 134q-48 23 -95 23q-48 0 -79 -26t-31 -62q0 -62 134 -105q32 -10 52.5 -18t48 -23.5t43 -34t27 -47t11.5 -64.5q0 -94 -69 -138t-188 -44q-92 0 -194 40v169h26l60 -142q59 -30 115 -30q44 0 75.5 25.5t31.5 63.5q0 9 -3 17.5t-9.5 16t-13 14t-18.5 13
t-21 11.5t-24.5 11.5t-25 10t-27 10.5t-26.5 10q-63 24 -99.5 63t-36.5 109q0 90 65.5 138.5t169.5 48.5q114 0 188 -38v-156h-25z" />
    <glyph glyph-name="T" unicode="T" horiz-adv-x="561" 
d="M121 0v19l75 13v515h-73l-99 -176h-23v212h559v-212h-22l-99 176h-72v-514l70 -13v-20h-316z" />
    <glyph glyph-name="U" unicode="U" horiz-adv-x="658" 
d="M334 -8q-262 0 -262 205v352l-68 14v20h310v-19l-58 -11v-347q0 -84 34 -127.5t97 -43.5q66 0 103 51t37 141v305l-124 31v20h245v-19l-78 -29v-311q0 -122 -64.5 -177t-171.5 -55z" />
    <glyph glyph-name="V" unicode="V" horiz-adv-x="589" 
d="M244 0l-206 554l-45 9v20h284v-19l-53 -9l123 -382h7l132 364l-93 26v20h202v-19l-58 -21l-208 -543h-85z" />
    <glyph glyph-name="W" unicode="W" horiz-adv-x="874" 
d="M191 0l-150 554l-48 9v20h294v-19l-77 -12l84 -372h7l136 403h95l124 -398h7l110 349l-104 29v20h212v-19l-62 -25l-169 -539h-95l-124 410h-6l-142 -410h-92z" />
    <glyph glyph-name="X" unicode="X" horiz-adv-x="611" 
d="M328 0v19l59 12l-122 198l-125 -186l101 -23v-20h-233v19l65 15l169 232l-179 288l-44 9v20h274v-19l-51 -9l102 -162l98 148l-72 22v20h212v-19l-92 -28l-126 -176l207 -332l41 -8v-20h-284z" />
    <glyph glyph-name="Y" unicode="Y" horiz-adv-x="568" 
d="M126 0v19l75 13v214l-168 309l-40 8v20h284v-19l-66 -11l134 -252l113 242l-105 20v20h222v-19l-67 -14l-136 -283v-234l70 -13v-20h-316z" />
    <glyph glyph-name="Z" unicode="Z" horiz-adv-x="534" 
d="M22 0l-12 36l309 511h-189l-76 -155h-20v191h461l10 -34l-323 -512h227l85 147l24 -5l-21 -179h-475z" />
    <glyph glyph-name="bracketleft" unicode="[" horiz-adv-x="256" 
d="M213 -181h-115v861h115v-39h-72v-783h72v-39z" />
    <glyph glyph-name="backslash" unicode="\" horiz-adv-x="271" 
d="M219 -90l-221 767h49l222 -767h-50z" />
    <glyph glyph-name="bracketright" unicode="]" horiz-adv-x="257" 
d="M160 -181h-117v39h73v783h-73v39h117v-861z" />
    <glyph glyph-name="asciicircum" unicode="^" horiz-adv-x="447" 
d="M389 242h-45l-116 294l-131 -294h-45l156 341h45z" />
    <glyph glyph-name="underscore" unicode="_" horiz-adv-x="500" 
d="M500 -98h-500v33h500v-33z" />
    <glyph glyph-name="grave" unicode="`" horiz-adv-x="469" 
d="M139 610l62 72l138 -157l-9 -13z" />
    <glyph glyph-name="a" unicode="a" horiz-adv-x="499" 
d="M96 309h-55v121h1q35 16 101.5 27.5t109.5 11.5q87 0 135 -40t48 -114v-264l58 -29v-22h-185l-23 67q-72 -75 -149 -75q-54 0 -90.5 30t-36.5 86q0 67 65 102t168 35h41v90q0 46 -22 71.5t-60 25.5q-14 0 -36 -8zM284 86v127h-28q-85 0 -85 -72q0 -31 21.5 -46t52.5 -15
q21 0 39 6z" />
    <glyph glyph-name="b" unicode="b" horiz-adv-x="560" 
d="M55 24v611h-75v22l162 46h65v-277q64 43 134 43q91 0 143 -55.5t52 -166.5q0 -118 -83.5 -186.5t-194.5 -68.5q-127 0 -203 32zM239 410q-17 0 -32 -3v-373q8 -1 25 -1q68 0 103.5 57t35.5 159q0 74 -35 117.5t-97 43.5z" />
    <glyph glyph-name="c" unicode="c" horiz-adv-x="484" 
d="M420 284l-77 139q-18 2 -27 2q-59 0 -94.5 -51.5t-35.5 -120.5q0 -75 42.5 -130t99.5 -55q40 0 67.5 7t63.5 27l10 -13q-26 -37 -85 -67t-124 -30q-104 0 -170 61t-66 164q0 111 74.5 181.5t177.5 70.5q107 0 189 -46v-139h-45z" />
    <glyph glyph-name="d" unicode="d" horiz-adv-x="570" 
d="M378 0l-18 55q-56 -63 -146 -63q-87 0 -138.5 61.5t-51.5 163.5q0 111 75 181.5t178 70.5q40 0 76 -15v181h-75v22l162 46h65v-652l58 -29v-22h-185zM353 82v342q-25 5 -47 5q-47 0 -83 -50t-36 -132q0 -72 35.5 -124t85.5 -52q21 0 45 11z" />
    <glyph glyph-name="e" unicode="e" horiz-adv-x="521" 
d="M505 233h-318q3 -80 48 -119.5t104 -39.5q65 0 133 28l10 -12q-32 -40 -93 -69t-127 -29q-109 0 -173.5 57.5t-64.5 167.5q0 116 78 184t185 68q103 0 160.5 -62.5t57.5 -173.5zM269 431q-76 0 -82 -164l154 10q-1 61 -19 107.5t-53 46.5z" />
    <glyph glyph-name="f" unicode="f" horiz-adv-x="359" 
d="M29 0v19l66 13v363h-81v31l81 19v42q0 104 70 162.5t179 58.5q43 0 72 -7l-11 -124h-15l-119 82q-24 -23 -24 -55v-160h98v-49h-98v-360l78 -15v-20h-296z" />
    <glyph glyph-name="g" unicode="g" horiz-adv-x="534" 
d="M253 176q-34 0 -64 3l-15 -45l127 -8q105 -8 158.5 -44.5t53.5 -108.5q0 -74 -85.5 -134t-205.5 -60q-110 0 -166 36t-56 96q0 40 36.5 69.5t89.5 45.5l-72 13v48l114 96q-138 24 -138 132q0 72 64 113t153 41q130 0 192 -62l80 62h12v-86h-74q18 -29 18 -66
q0 -63 -66 -102t-156 -39zM118 -54q0 -56 35 -85.5t79 -29.5q64 0 98.5 29t34.5 68q0 32 -22.5 48t-82.5 27l-113 20q-29 -35 -29 -77zM250 213q30 0 46.5 30t16.5 69q0 56 -19 87t-49 31q-31 0 -47.5 -29.5t-16.5 -77.5q0 -44 18.5 -77t50.5 -33z" />
    <glyph glyph-name="h" unicode="h" horiz-adv-x="610" 
d="M13 0v19l66 13v603h-75v22l162 46h65v-304q85 70 176 70q62 0 100.5 -42t38.5 -130v-265l59 -12v-20h-276v19l64 13v237q0 116 -98 116q-31 0 -64 -9v-343l58 -13v-20h-276z" />
    <glyph glyph-name="i" unicode="i" horiz-adv-x="312" 
d="M19 0v19l66 13v369h-75v22l162 46h65v-435l68 -14v-20h-286zM77 610q0 38 24 58t66 20q89 0 89 -78q0 -79 -89 -79q-41 0 -65.5 20.5t-24.5 58.5z" />
    <glyph glyph-name="j" unicode="j" horiz-adv-x="293" 
d="M35 -198l-12 14q38 36 50 77t12 111v397h-75v22l162 46h65v-442q0 -68 -51 -129.5t-151 -95.5zM165 531q-41 0 -65.5 20.5t-24.5 58.5t24 58t66 20q89 0 89 -78q0 -79 -89 -79z" />
    <glyph glyph-name="k" unicode="k" horiz-adv-x="556" 
d="M14 0v19l66 14v602h-75v22l162 46h65v-671l58 -12v-20h-276zM242 209v22l154 183l-93 28v17h232v-18l-92 -28l-98 -112l164 -247l47 -34v-20h-187z" />
    <glyph glyph-name="l" unicode="l" horiz-adv-x="307" 
d="M14 0v19l66 13v603h-75v22l162 46h65v-669l68 -14v-20h-286z" />
    <glyph glyph-name="m" unicode="m" horiz-adv-x="901" 
d="M325 0v19l58 12v238q0 116 -98 116q-23 0 -48 -6v-346l57 -13v-20h-276v19l67 13v369h-75v22l162 46h40l20 -61q79 61 165 61t120 -72q84 72 179 72q62 0 100.5 -42t38.5 -130v-264l61 -13v-20h-276v19l62 13v237q0 116 -98 116q-26 0 -60 -8q12 -38 12 -80v-265l55 -12
v-20h-266z" />
    <glyph glyph-name="n" unicode="n" horiz-adv-x="610" 
d="M18 0v19l67 13v369h-75v22l162 46h40l22 -68q83 68 173 68q62 0 100.5 -42t38.5 -130v-265l59 -12v-20h-276v19l64 13v237q0 116 -98 116q-26 0 -58 -8v-344l57 -13v-20h-276z" />
    <glyph glyph-name="o" unicode="o" horiz-adv-x="545" 
d="M521 225q0 -117 -72.5 -175t-180.5 -58q-55 0 -96 10t-76 34t-53.5 70.5t-18.5 113.5q0 121 74 185t178 64q245 0 245 -244zM356 213q0 54 -6.5 99t-28 81t-55.5 36q-78 0 -78 -188q0 -90 22.5 -149.5t64.5 -59.5q29 0 48 28.5t26 67t7 85.5z" />
    <glyph glyph-name="p" unicode="p" horiz-adv-x="580" 
d="M4 -208v19l71 14v576h-75v22l162 46h40l19 -47q64 47 140 47q91 0 143 -55.5t52 -166.5q0 -118 -83.5 -186.5t-194.5 -68.5q-17 0 -51 2v-166l85 -16v-20h-308zM260 404q-16 0 -33 -3v-365q18 -6 34 -6q65 0 97.5 55t32.5 145q0 72 -39.5 123t-91.5 51z" />
    <glyph glyph-name="q" unicode="q" horiz-adv-x="563" 
d="M277 -189l76 15v222q-53 -56 -139 -56q-88 0 -139 59.5t-51 165.5q0 83 40.5 142t100 84.5t129.5 25.5q96 0 211 -25v-619l58 -13v-20h-286v19zM308 66q25 0 45 5v349q-27 11 -55 11q-47 0 -79 -51.5t-32 -152.5q0 -81 33.5 -121t87.5 -40z" />
    <glyph glyph-name="r" unicode="r" horiz-adv-x="418" 
d="M27 0v19l58 11v371h-75v22l162 46h40l20 -53q81 53 130 53q26 0 46 -5l-16 -150h-22l-133 82v-360l76 -16v-20h-286z" />
    <glyph glyph-name="s" unicode="s" horiz-adv-x="451" 
d="M210 -9q-76 0 -185 21v137h43l67 -107q31 -13 67 -13q87 0 87 68q0 23 -27 39.5t-66 29.5t-78 30t-66 52t-27 85q0 45 34 77t81.5 45.5t101.5 13.5q107 0 180 -32v-113h-44l-60 96q-25 9 -60 9t-60 -17t-25 -42q0 -26 27 -43t65.5 -28.5t77.5 -27t66 -49.5t27 -86
q0 -63 -64 -104t-162 -41z" />
    <glyph glyph-name="t" unicode="t" horiz-adv-x="401" 
d="M382 61l7 -32q-74 -37 -154 -37q-76 0 -120 34.5t-44 125.5v243h-66v25l70 24l48 123h101v-123h150v-49h-150v-228q1 -54 20.5 -84.5t72.5 -30.5q27 0 65 9z" />
    <glyph glyph-name="u" unicode="u" horiz-adv-x="597" 
d="M402 0l-22 62q-79 -69 -166 -69q-62 0 -100.5 42t-38.5 130v236h-75v22l162 46h66v-276q0 -116 98 -116q26 0 51 7v317h-75v22l162 46h65v-418l58 -29v-22h-185z" />
    <glyph glyph-name="v" unicode="v" horiz-adv-x="533" 
d="M543 459v-19l-64 -19l-183 -421h-77l-187 430l-42 9v20h286v-19l-72 -15l104 -294h10l112 282l-90 26v20h203z" />
    <glyph glyph-name="w" unicode="w" horiz-adv-x="798" 
d="M187 0l-156 430l-41 9v20h286v-19l-76 -15l84 -299h6l117 333h69l119 -333h5l94 285l-72 28v20h186v-19l-72 -29l-139 -411h-98l-108 299h-5l-101 -299h-98z" />
    <glyph glyph-name="x" unicode="x" horiz-adv-x="557" 
d="M328 256l189 -228l37 -8v-20h-286v19l62 12l-93 145l-117 -134l84 -22v-20h-213v19l65 18l157 175l-171 218l-41 9v20h286v-19l-74 -15l90 -132l105 124l-74 22v20h203v-19l-71 -21z" />
    <glyph glyph-name="y" unicode="y" horiz-adv-x="533" 
d="M302 19l-92 -226h-108v17l129 167l-198 453l-43 9v20h286v-19l-73 -15l107 -304l116 284l-86 34v20h203v-19l-67 -26z" />
    <glyph glyph-name="z" unicode="z" horiz-adv-x="483" 
d="M467 185l-19 -185h-420l-13 45l256 374h-135l-91 -124l-20 3l13 161h393l18 -54l-248 -365h150l99 148z" />
    <glyph glyph-name="braceleft" unicode="{" horiz-adv-x="275" 
d="M257 -168l-22 -2q-73 -5 -118 29.5t-39 110.5l17 186q2 31 -14.5 56.5t-50.5 31.5v30q33 7 50 33t15 57l-17 191q-2 65 39.5 98t109.5 32h30v-40h-24q-51 0 -81 -25.5t-28 -67.5l17 -179q3 -40 -10 -67t-57 -46q73 -24 66 -112l-17 -181q-3 -41 26.5 -69t83.5 -28h24v-38
z" />
    <glyph glyph-name="bar" unicode="|" horiz-adv-x="223" 
d="M136 -91h-45v763h45v-763z" />
    <glyph glyph-name="braceright" unicode="}" horiz-adv-x="275" 
d="M52 -170l-22 2v38h24q54 0 83.5 28t26.5 69l-17 181q-7 88 66 112q-44 19 -57 46t-10 67l17 179q2 42 -28 67.5t-81 25.5h-24v40h30q68 1 109.5 -32t39.5 -98l-17 -191q-2 -31 15 -57t50 -33v-30q-34 -6 -50.5 -31.5t-14.5 -56.5l17 -186q6 -76 -39 -110.5t-118 -29.5z
" />
    <glyph glyph-name="asciitilde" unicode="~" horiz-adv-x="443" 
d="M387 330l24 -29q-44 -52 -103 -52q-34 0 -88 26t-84 26q-13 0 -25.5 -4t-19 -8t-18 -12t-13.5 -10l-20 28q44 49 101 49q43 0 92 -26t82 -26q8 0 15.5 2t15.5 6.5t12.5 8t15 11t13.5 10.5z" />
    <glyph glyph-name="uni00A0" unicode="&#xa0;" horiz-adv-x="206" 
 />
    <glyph glyph-name="exclamdown" unicode="&#xa1;" horiz-adv-x="294" 
d="M79 -122l52 368h33l52 -368h-137zM54 377q0 37 26.5 64.5t67.5 27.5q43 0 67.5 -26.5t24.5 -65.5q0 -33 -25 -59t-67 -26q-41 0 -67.5 25.5t-26.5 59.5z" />
    <glyph glyph-name="cent" unicode="&#xa2;" horiz-adv-x="470" 
d="M406 284l-77 139q-18 2 -27 2q-2 0 -5 -0.5t-4 -0.5v-354q7 -2 21 -2q40 0 67.5 7t63.5 27l10 -13q-21 -30 -65.5 -56.5t-96.5 -35.5v-74h-36v70q-2 0 -6 -0.5t-5 -0.5q-104 0 -170 61t-66 164q0 110 72.5 180t174.5 72v66h36v-67q88 -6 158 -45v-139h-45zM172 253
q0 -55 23.5 -100.5t61.5 -68.5v331q-40 -17 -62.5 -62t-22.5 -100z" />
    <glyph glyph-name="sterling" unicode="&#xa3;" horiz-adv-x="541" 
d="M397 292v-35h-123q3 -23 3 -44q0 -82 -34 -169h166l97 149l27 -3l-30 -190h-493v19l68 17q39 90 39 155q0 22 -10 66h-84v35h74q-20 68 -20 106q0 82 67.5 137t149.5 55q94 0 187 -50v-178h-21l-75 171q-26 7 -57 7q-36 0 -59 -33t-23 -84q0 -28 21 -131h130z" />
    <glyph glyph-name="currency" unicode="&#xa4;" horiz-adv-x="496" 
d="M73 88l-33 34l72 70q-33 42 -33 104q0 66 32 104l-71 71l33 32l70 -70q53 34 105 34q63 0 105 -32l69 70l34 -35l-70 -70q32 -35 32 -104t-34 -106l70 -70l-31 -34l-70 70q-51 -30 -105 -30q-60 0 -103 32zM248 227q30 0 44 20t14 49q1 29 -13.5 49.5t-44.5 20.5
q-29 0 -44 -20.5t-15 -49.5q0 -28 15.5 -48.5t43.5 -20.5z" />
    <glyph glyph-name="yen" unicode="&#xa5;" horiz-adv-x="582" 
d="M133 0v19l75 13v133h-183v34h183v47l-20 37h-163v34h144l-129 238l-40 8v20h284v-19l-66 -11l134 -252l113 242l-105 20v20h222v-19l-67 -14l-112 -233h147v-34h-164l-7 -16v-68h172v-34h-172v-132l70 -13v-20h-316z" />
    <glyph glyph-name="brokenbar" unicode="&#xa6;" horiz-adv-x="216" 
d="M136 -92h-45v290h45v-290zM136 675v-283h-45v283h45z" />
    <glyph glyph-name="section" unicode="&#xa7;" horiz-adv-x="460" 
d="M373 417l-10 103q-51 29 -123 29q-68 0 -120 -54l180 -140q117 -101 117 -243q0 -87 -65.5 -146t-149.5 -59q-87 0 -162 42v133h33l9 -103q51 -29 124 -29q68 0 120 55l-180 140q-117 101 -117 242q0 87 65.5 146t149.5 59q87 0 162 -42v-133h-33zM77 389
q0 -123 121 -218l157 -124q14 30 14 63q0 123 -121 218l-157 124q-14 -30 -14 -63z" />
    <glyph glyph-name="dieresis" unicode="&#xa8;" horiz-adv-x="417" 
d="M71 587q0 26 16 42.5t41 16.5t42 -17t17 -42q0 -24 -17 -40.5t-42 -16.5t-41 16.5t-16 40.5zM248 587q0 25 17 42t42 17q24 0 40.5 -17t16.5 -42q0 -24 -16.5 -40.5t-40.5 -16.5q-25 0 -42 16.5t-17 40.5z" />
    <glyph glyph-name="copyright" unicode="&#xa9;" horiz-adv-x="726" 
d="M506 360h-18l-43 81q-29 12 -52 12q-52 0 -81.5 -46.5t-29.5 -113.5q0 -72 29.5 -116t87.5 -44q70 0 98 74h9v-70q-61 -34 -129 -34q-83 0 -145.5 46.5t-62.5 134.5q0 98 61 146t158 48q77 0 118 -26v-92zM60 289q0 125 89 214t214 89t214 -89t89 -214t-89 -214t-214 -89
t-214 89t-89 214zM90 289q0 -113 80.5 -196t192.5 -83t192.5 83t80.5 196t-80.5 195.5t-192.5 82.5t-192.5 -82.5t-80.5 -195.5z" />
    <glyph glyph-name="ordfeminine" unicode="&#xaa;" horiz-adv-x="380" 
d="M76 607h-40v84h1q26 11 74.5 18.5t80.5 7.5q64 0 99 -27t35 -78v-186l42 -20v-15h-135l-17 46q-55 -52 -110 -52q-39 0 -66 21t-27 59q0 46 48 70t123 24h30v66q0 32 -16 49.5t-44 17.5q-9 0 -26 -5zM21 316v26h338v-26h-338zM214 450v87h-20q-63 0 -63 -49
q0 -21 16 -31.5t39 -10.5q17 0 28 4z" />
    <glyph glyph-name="guillemotleft" unicode="&#xab;" horiz-adv-x="383" 
d="M185 46l-165 180l164 179h25l-71 -175l71 -184h-24zM341 46l-165 180l164 179h25l-71 -175l71 -184h-24z" />
    <glyph glyph-name="logicalnot" unicode="&#xac;" horiz-adv-x="495" 
d="M427 100h-50v178h-321v45h371v-223z" />
    <glyph glyph-name="registered" unicode="&#xae;" horiz-adv-x="434" 
d="M217 268q-80 0 -133.5 53.5t-53.5 132.5q0 80 54 133.5t133 53.5t133 -53.5t54 -133.5q0 -79 -53.5 -132.5t-133.5 -53.5zM217 289q74 0 116 47t42 118q0 69 -45 117t-113 48t-113 -48t-45 -117t45 -117t113 -48zM115 363v4l27 10v164l-27 9v6h127q33 0 56 -14.5
t23 -41.5q0 -34 -36 -46l42 -73l15 -10v-8h-76l-40 81h-12v-67l24 -9v-5h-123zM218 538h-4v-83q20 0 31.5 12t11.5 33q0 37 -39 38z" />
    <glyph glyph-name="macron" unicode="&#xaf;" horiz-adv-x="445" 
d="M343 567h-246v38h246v-38z" />
    <glyph glyph-name="degree" unicode="&#xb0;" horiz-adv-x="394" 
d="M333 464q0 -53 -38.5 -92.5t-100.5 -39.5t-97.5 38t-35.5 93q0 53 38.5 92.5t100.5 39.5t97.5 -38t35.5 -93zM270 464q0 101 -74 101q-72 0 -72 -103t74 -103q37 0 54.5 30t17.5 75z" />
    <glyph glyph-name="plusminus" unicode="&#xb1;" horiz-adv-x="501" 
d="M443 47h-385v45h385v-45zM273 352h170v-45h-170v-160h-45v160h-170v45h170v166h45v-166z" />
    <glyph glyph-name="twosuperior" unicode="&#xb2;" horiz-adv-x="313" 
d="M299 515l-9 -116h-259l-3 13q58 52 100 113t42 110q0 34 -11.5 43t-40.5 9t-47 -24.5t-24 -57.5h-15v76q54 41 130 41q52 0 87.5 -25.5t35.5 -60.5q0 -40 -32 -73.5t-124 -88.5h137l19 43z" />
    <glyph glyph-name="threesuperior" unicode="&#xb3;" horiz-adv-x="301" 
d="M23 493h18q11 -69 68 -69q28 0 42 18t14 36q0 66 -87 67v22q37 3 55 25.5t18 49.5q0 28 -14 40.5t-30 12.5q-45 0 -67 -66h-14v57q57 36 125 36q53 0 83.5 -22.5t30.5 -51.5q0 -53 -103 -74v-3q116 -9 116 -77q0 -46 -39 -72.5t-99 -26.5q-55 0 -117 23v75z" />
    <glyph glyph-name="acute" unicode="&#xb4;" horiz-adv-x="469" 
d="M287 682l62 -72l-190 -96l-10 11z" />
    <glyph glyph-name="mu" unicode="&#xb5;" horiz-adv-x="629" 
d="M467 -10q-65 0 -79 66q-30 -23 -71.5 -43t-76.5 -20q-31 0 -48 16l-2 -2q42 -51 42 -81v-133h-151v666h153v-266q0 -116 98 -116q25 0 52 6v376h151v-359q0 -47 26 -47q35 0 56 4l7 -29q-21 -13 -74.5 -25.5t-82.5 -12.5z" />
    <glyph glyph-name="mu" unicode="&#x3bc;" horiz-adv-x="629" 
d="M467 -10q-65 0 -79 66q-30 -23 -71.5 -43t-76.5 -20q-31 0 -48 16l-2 -2q42 -51 42 -81v-133h-151v666h153v-266q0 -116 98 -116q25 0 52 6v376h151v-359q0 -47 26 -47q35 0 56 4l7 -29q-21 -13 -74.5 -25.5t-82.5 -12.5z" />
    <glyph glyph-name="paragraph" unicode="&#xb6;" horiz-adv-x="620" 
d="M306 149q-114 3 -185 59t-71 158q0 98 71 157.5t189 59.5h258v-23l-79 -9v-758h-44v751h-63v-751h-76v356z" />
    <glyph glyph-name="periodcentered" unicode="&#xb7;" horiz-adv-x="162" 
d="M10 299q0 31 19.5 51.5t50.5 20.5q30 0 51 -20.5t21 -51.5q0 -29 -21 -49.5t-51 -20.5t-50 20t-20 50z" />
    <glyph glyph-name="cedilla" unicode="&#xb8;" horiz-adv-x="373" 
d="M141 -238q-47 0 -78 22l16 35q34 -22 70 -22q23 0 37 16t14 40q0 53 -81 65l48 87h42l-27 -48q85 -21 85 -95q0 -41 -35 -70.5t-91 -29.5z" />
    <glyph glyph-name="onesuperior" unicode="&#xb9;" horiz-adv-x="269" 
d="M19 399v14l55 13v240h-52v14l111 35h64v-289l53 -12v-15h-231z" />
    <glyph glyph-name="ordmasculine" unicode="&#xba;" horiz-adv-x="461" 
d="M21 316v26h419v-26h-419zM422 544q0 -79 -58 -120t-133 -41q-185 0 -185 158q0 81 59 126t132 45q82 0 133.5 -40t51.5 -128zM297 536q0 76 -14.5 112t-53.5 36q-36 0 -47.5 -28.5t-11.5 -100.5q0 -76 16 -110t50 -34q61 0 61 125z" />
    <glyph glyph-name="guillemotright" unicode="&#xbb;" horiz-adv-x="384" 
d="M42 408l165 -180l-164 -179h-25l71 175l-71 184h24zM199 408l165 -180l-164 -179h-25l71 175l-71 184h24z" />
    <glyph glyph-name="onequarter" unicode="&#xbc;" horiz-adv-x="710" 
d="M652 77h-27v-77h-121v77h-136l-5 24l176 215h86v-180h48zM37 267v14l55 13v240h-52v14l111 35h64v-289l53 -12v-15h-231zM180 -9l-24 14l366 555l26 -13zM428 136h76v99z" />
    <glyph glyph-name="onehalf" unicode="&#xbd;" horiz-adv-x="726" 
d="M689 116l-9 -116h-259l-3 13q58 52 100 113t42 110q0 34 -11.5 43t-40.5 9t-47 -24.5t-24 -57.5h-15v76q54 41 130 41q52 0 87.5 -25.5t35.5 -60.5q0 -40 -32 -73.5t-124 -88.5h137l19 43zM37 268v14l55 13v240h-52v14l111 35h64v-289l53 -12v-15h-231zM157 -9l-24 14
l366 555l26 -13z" />
    <glyph glyph-name="threequarters" unicode="&#xbe;" horiz-adv-x="703" 
d="M645 77h-27v-77h-121v77h-136l-5 24l176 215h86v-180h48zM37 365h18q11 -69 68 -69q28 0 42 18t14 36q0 66 -87 67v22q37 3 55 25.5t18 49.5q0 28 -14 40.5t-30 12.5q-45 0 -67 -66h-14v57q57 36 125 36q53 0 83.5 -22.5t30.5 -51.5q0 -53 -103 -74v-3q116 -9 116 -77
q0 -46 -39 -72.5t-99 -26.5q-55 0 -117 23v75zM163 -9l-24 14l366 555l26 -13zM421 136h76v99z" />
    <glyph glyph-name="questiondown" unicode="&#xbf;" horiz-adv-x="412" 
d="M31 22q0 57 54 104.5t116 65.5l4 65h64l38 -102q-39 -14 -73 -50.5t-34 -94.5q0 -105 67 -105q13 0 28 4l69 145h26v-137q-81 -46 -160 -46q-89 0 -144 37t-55 114zM142 377q0 37 26.5 64.5t67.5 27.5q43 0 67.5 -26.5t24.5 -65.5q0 -33 -25 -59t-67 -26
q-41 0 -67.5 25.5t-26.5 59.5z" />
    <glyph glyph-name="Agrave" unicode="&#xc0;" horiz-adv-x="625" 
d="M355 0v19l59 10l-56 141h-199l-51 -124l113 -26v-20h-225v19l63 24l231 540h87l216 -557l36 -6v-20h-274zM257 409l-83 -203h170l-81 203h-6zM176 663l38 84l176 -113l-7 -15z" />
    <glyph glyph-name="Aacute" unicode="&#xc1;" horiz-adv-x="625" 
d="M355 0v19l59 10l-56 141h-199l-51 -124l113 -26v-20h-225v19l63 24l231 540h87l216 -557l36 -6v-20h-274zM257 409l-83 -203h170l-81 203h-6zM451 746l38 -84l-209 -42l-7 16z" />
    <glyph glyph-name="Acircumflex" unicode="&#xc2;" horiz-adv-x="625" 
d="M355 0v19l59 10l-56 141h-199l-51 -124l113 -26v-20h-225v19l63 24l231 540h87l216 -557l36 -6v-20h-274zM257 409l-83 -203h170l-81 203h-6zM462 617l-127 52l-126 -58l-12 16l145 126l133 -118z" />
    <glyph glyph-name="Atilde" unicode="&#xc3;" horiz-adv-x="625" 
d="M355 0v19l59 10l-56 141h-199l-51 -124l113 -26v-20h-225v19l63 24l231 540h87l216 -557l36 -6v-20h-274zM257 409l-83 -203h170l-81 203h-6zM376 637q-30 0 -62 10t-53 10q-22 0 -52 -32l-19 18q38 71 88 71q22 0 62 -11t48 -11q15 0 29.5 7t20.5 14l7 7l19 -18
q-10 -22 -35.5 -43.5t-52.5 -21.5z" />
    <glyph glyph-name="Adieresis" unicode="&#xc4;" horiz-adv-x="625" 
d="M355 0v19l59 10l-56 141h-199l-51 -124l113 -26v-20h-225v19l63 24l231 540h87l216 -557l36 -6v-20h-274zM257 409l-83 -203h170l-81 203h-6zM192 677q0 23 14.5 38t36.5 15q23 0 38 -15t15 -38q0 -22 -15 -36.5t-38 -14.5q-22 0 -36.5 14.5t-14.5 36.5zM369 677
q0 23 15 38t38 15q22 0 36.5 -15t14.5 -38q0 -22 -14.5 -36.5t-36.5 -14.5q-23 0 -38 14.5t-15 36.5z" />
    <glyph glyph-name="Aring" unicode="&#xc5;" horiz-adv-x="625" 
d="M355 0v19l59 10l-56 141h-199l-51 -124l113 -26v-20h-225v19l63 24l231 540h87l216 -557l36 -6v-20h-274zM257 409l-83 -203h170l-81 203h-6zM331 616q-26 0 -48 18t-22 53q0 29 19 49t51 20q29 0 50 -19t21 -50t-19 -51t-52 -20zM331 638q49 0 49 49q0 21 -13.5 34
t-35.5 13q-24 0 -36 -14t-12 -33q0 -24 14 -36.5t34 -12.5z" />
    <glyph glyph-name="AE" unicode="&#xc6;" horiz-adv-x="845" 
d="M310 0v19l75 13v206h-162l-104 -200l102 -18v-20h-225v19l65 13l300 551h445v-162h-23l-75 126h-152v-224l206 4v-49l-206 3v-244h155l100 144l23 -4l-30 -177h-494zM375 530l-132 -254h142v254h-10z" />
    <glyph glyph-name="Ccedilla" unicode="&#xc7;" horiz-adv-x="604" 
d="M577 404h-25l-79 136q-31 14 -68 14q-85 0 -134.5 -73t-49.5 -188q0 -72 17.5 -129t61 -95t107.5 -38q43 0 87 30.5t61 67.5h22v-95q-29 -17 -85 -29t-112 -13l-8 -15q85 -21 85 -95q0 -41 -35 -70.5t-91 -29.5q-47 0 -78 22l16 35q34 -22 70 -22q23 0 37 16t14 40
q0 53 -81 65l30 55q-63 4 -116 21t-97.5 49t-69.5 86t-25 125q0 155 100.5 236t263.5 81q97 0 182 -33v-154z" />
    <glyph glyph-name="Egrave" unicode="&#xc8;" horiz-adv-x="556" 
d="M473 274l-206 3v-240h155l100 144l23 -4l-30 -177h-494v19l75 13v516l-75 15v20h496v-162h-23l-75 126h-152v-228l206 4v-49zM183 663l38 84l176 -113l-7 -15z" />
    <glyph glyph-name="Eacute" unicode="&#xc9;" horiz-adv-x="556" 
d="M473 274l-206 3v-240h155l100 144l23 -4l-30 -177h-494v19l75 13v516l-75 15v20h496v-162h-23l-75 126h-152v-228l206 4v-49zM399 746l38 -84l-209 -42l-7 16z" />
    <glyph glyph-name="Ecircumflex" unicode="&#xca;" horiz-adv-x="556" 
d="M473 274l-206 3v-240h155l100 144l23 -4l-30 -177h-494v19l75 13v516l-75 15v20h496v-162h-23l-75 126h-152v-228l206 4v-49zM437 617l-127 52l-126 -58l-12 16l145 126l133 -118z" />
    <glyph glyph-name="Edieresis" unicode="&#xcb;" horiz-adv-x="556" 
d="M473 274l-206 3v-240h155l100 144l23 -4l-30 -177h-494v19l75 13v516l-75 15v20h496v-162h-23l-75 126h-152v-228l206 4v-49zM169 678q0 23 14.5 38t36.5 15q23 0 38 -15t15 -38q0 -22 -15 -36.5t-38 -14.5q-22 0 -36.5 14.5t-14.5 36.5zM346 678q0 23 15 38t38 15
q22 0 36.5 -15t14.5 -38q0 -22 -14.5 -36.5t-36.5 -14.5q-23 0 -38 14.5t-15 36.5z" />
    <glyph glyph-name="Igrave" unicode="&#xcc;" horiz-adv-x="372" 
d="M28 0v19l75 13v516l-75 15v20h316v-19l-70 -13v-518l70 -13v-20h-316zM66 663l38 84l176 -113l-7 -15z" />
    <glyph glyph-name="Iacute" unicode="&#xcd;" horiz-adv-x="372" 
d="M28 0v19l75 13v516l-75 15v20h316v-19l-70 -13v-518l70 -13v-20h-316zM305 746l38 -84l-209 -42l-7 16z" />
    <glyph glyph-name="Icircumflex" unicode="&#xce;" horiz-adv-x="372" 
d="M28 0v19l75 13v516l-75 15v20h316v-19l-70 -13v-518l70 -13v-20h-316zM318 616l-127 52l-126 -58l-12 16l145 126l133 -118z" />
    <glyph glyph-name="Idieresis" unicode="&#xcf;" horiz-adv-x="372" 
d="M28 0v19l75 13v516l-75 15v20h316v-19l-70 -13v-518l70 -13v-20h-316zM47 678q0 23 14.5 38t36.5 15q23 0 38 -15t15 -38q0 -22 -15 -36.5t-38 -14.5q-22 0 -36.5 14.5t-14.5 36.5zM224 678q0 23 15 38t38 15q22 0 36.5 -15t14.5 -38q0 -22 -14.5 -36.5t-36.5 -14.5
q-23 0 -38 14.5t-15 36.5z" />
    <glyph glyph-name="Eth" unicode="&#xd0;" horiz-adv-x="702" 
d="M26 285v32h70v231l-75 15v20h294q61 0 110 -6.5t96.5 -25t79 -49t51 -80t19.5 -116.5q0 -146 -99 -226t-252 -80h-299v19l75 13v253h-70zM352 285h-85v-247h25q104 0 146.5 54t42.5 199q0 140 -39.5 198.5t-143.5 58.5h-31v-231h85v-32z" />
    <glyph glyph-name="Ntilde" unicode="&#xd1;" horiz-adv-x="685" 
d="M14 0v19l87 27v484l-87 33v20h207l321 -331v279l-124 32v20h254v-19l-87 -27v-545h-57l-384 436v-376l135 -32v-20h-265zM421 638q-29 0 -62 10t-53 10q-22 0 -52 -32l-19 18q38 71 88 71q23 0 63 -11t47 -11q15 0 29.5 7t21.5 14l6 7l19 -18q-10 -22 -35.5 -43.5
t-52.5 -21.5z" />
    <glyph glyph-name="Ograve" unicode="&#xd2;" horiz-adv-x="686" 
d="M655 314q0 -140 -87 -231t-232 -91q-138 0 -221.5 75t-83.5 208q0 144 89 230t232 86q141 0 222 -71.5t81 -205.5zM464 295q0 138 -27 198.5t-92 60.5q-69 0 -96.5 -59t-27.5 -199q0 -136 27 -201t91 -65q74 0 99.5 63t25.5 202zM205 663l38 84l176 -113l-7 -15z" />
    <glyph glyph-name="Oacute" unicode="&#xd3;" horiz-adv-x="686" 
d="M655 314q0 -140 -87 -231t-232 -91q-138 0 -221.5 75t-83.5 208q0 144 89 230t232 86q141 0 222 -71.5t81 -205.5zM464 295q0 138 -27 198.5t-92 60.5q-69 0 -96.5 -59t-27.5 -199q0 -136 27 -201t91 -65q74 0 99.5 63t25.5 202zM445 746l38 -84l-209 -42l-7 16z" />
    <glyph glyph-name="Ocircumflex" unicode="&#xd4;" horiz-adv-x="686" 
d="M655 314q0 -140 -87 -231t-232 -91q-138 0 -221.5 75t-83.5 208q0 144 89 230t232 86q141 0 222 -71.5t81 -205.5zM464 295q0 138 -27 198.5t-92 60.5q-69 0 -96.5 -59t-27.5 -199q0 -136 27 -201t91 -65q74 0 99.5 63t25.5 202zM469 617l-127 52l-126 -58l-12 16
l145 126l133 -118z" />
    <glyph glyph-name="Otilde" unicode="&#xd5;" horiz-adv-x="686" 
d="M655 314q0 -140 -87 -231t-232 -91q-138 0 -221.5 75t-83.5 208q0 144 89 230t232 86q141 0 222 -71.5t81 -205.5zM464 295q0 138 -27 198.5t-92 60.5q-69 0 -96.5 -59t-27.5 -199q0 -136 27 -201t91 -65q74 0 99.5 63t25.5 202zM396 637q-30 0 -62 10t-53 10
q-22 0 -52 -32l-19 18q38 71 88 71q22 0 62 -11t48 -11q15 0 29.5 7t20.5 14l7 7l19 -18q-10 -22 -35.5 -43.5t-52.5 -21.5z" />
    <glyph glyph-name="Odieresis" unicode="&#xd6;" horiz-adv-x="686" 
d="M655 314q0 -140 -87 -231t-232 -91q-138 0 -221.5 75t-83.5 208q0 144 89 230t232 86q141 0 222 -71.5t81 -205.5zM464 295q0 138 -27 198.5t-92 60.5q-69 0 -96.5 -59t-27.5 -199q0 -136 27 -201t91 -65q74 0 99.5 63t25.5 202zM204 677q0 23 14.5 38t36.5 15
q23 0 38 -15t15 -38q0 -22 -15 -36.5t-38 -14.5q-22 0 -36.5 14.5t-14.5 36.5zM381 677q0 23 15 38t38 15q22 0 36.5 -15t14.5 -38q0 -22 -14.5 -36.5t-36.5 -14.5q-23 0 -38 14.5t-15 36.5z" />
    <glyph glyph-name="multiply" unicode="&#xd7;" horiz-adv-x="519" 
d="M437 445l-146 -146l149 -148l-32 -32l-148 148l-149 -148l-32 31l149 149l-144 144l32 32l144 -144l145 145z" />
    <glyph glyph-name="Oslash" unicode="&#xd8;" horiz-adv-x="686" 
d="M655 314q0 -140 -87 -231t-232 -91q-126 0 -205 61l-60 -61h-40l78 80q-78 75 -78 203q0 144 89 230t232 86q126 0 204 -58l57 59h42l-76 -78q76 -73 76 -200zM221 296q0 -53 5 -103l229 236q-11 65 -37.5 95t-72.5 30q-69 0 -96.5 -59t-27.5 -199zM464 295q0 40 -4 96
l-229 -235q11 -64 37 -95t71 -31q74 0 99.5 63t25.5 202z" />
    <glyph glyph-name="Ugrave" unicode="&#xd9;" horiz-adv-x="658" 
d="M334 -8q-262 0 -262 205v352l-68 14v20h310v-19l-58 -11v-347q0 -84 34 -127.5t97 -43.5q66 0 103 51t37 141v305l-124 31v20h245v-19l-78 -29v-311q0 -122 -64.5 -177t-171.5 -55zM227 663l38 84l176 -113l-7 -15z" />
    <glyph glyph-name="Uacute" unicode="&#xda;" horiz-adv-x="658" 
d="M334 -8q-262 0 -262 205v352l-68 14v20h310v-19l-58 -11v-347q0 -84 34 -127.5t97 -43.5q66 0 103 51t37 141v305l-124 31v20h245v-19l-78 -29v-311q0 -122 -64.5 -177t-171.5 -55zM494 746l38 -84l-209 -42l-7 16z" />
    <glyph glyph-name="Ucircumflex" unicode="&#xdb;" horiz-adv-x="658" 
d="M334 -8q-262 0 -262 205v352l-68 14v20h310v-19l-58 -11v-347q0 -84 34 -127.5t97 -43.5q66 0 103 51t37 141v305l-124 31v20h245v-19l-78 -29v-311q0 -122 -64.5 -177t-171.5 -55zM490 616l-127 52l-126 -58l-12 16l145 126l133 -118z" />
    <glyph glyph-name="Udieresis" unicode="&#xdc;" horiz-adv-x="658" 
d="M334 -8q-262 0 -262 205v352l-68 14v20h310v-19l-58 -11v-347q0 -84 34 -127.5t97 -43.5q66 0 103 51t37 141v305l-124 31v20h245v-19l-78 -29v-311q0 -122 -64.5 -177t-171.5 -55zM232 677q0 23 14.5 38t36.5 15q23 0 38 -15t15 -38q0 -22 -15 -36.5t-38 -14.5
q-22 0 -36.5 14.5t-14.5 36.5zM409 677q0 23 15 38t38 15q22 0 36.5 -15t14.5 -38q0 -22 -14.5 -36.5t-36.5 -14.5q-23 0 -38 14.5t-15 36.5z" />
    <glyph glyph-name="Yacute" unicode="&#xdd;" horiz-adv-x="568" 
d="M126 0v19l75 13v214l-168 309l-40 8v20h284v-19l-66 -11l134 -252l113 242l-105 20v20h222v-19l-67 -14l-136 -283v-234l70 -13v-20h-316zM437 746l38 -84l-209 -42l-7 16z" />
    <glyph glyph-name="Thorn" unicode="&#xde;" horiz-adv-x="588" 
d="M28 0v19l75 13v516l-75 15v20h316v-19l-70 -13v-70h76q107 0 169 -47t62 -141q0 -84 -68.5 -130.5t-201.5 -46.5h-37v-83l70 -13v-20h-316zM277 443h-3v-287h6q113 0 113 144q0 140 -116 143z" />
    <glyph glyph-name="germandbls" unicode="&#xdf;" horiz-adv-x="663" 
d="M29 0v19l66 13v363h-81v30l81 19v45q0 102 65.5 160t172.5 58q88 0 151 -37t63 -110q0 -31 -18.5 -59t-39 -43t-44.5 -29.5t-25 -15.5q37 -15 72 -36.5t70 -52.5t56.5 -74t21.5 -89q0 -67 -54.5 -118t-145.5 -51q-84 0 -129 20v137h37l32 -109q27 -15 45 -15
q34 0 48.5 23t17.5 69q0 57 -37 104t-123 92v29q42 40 64.5 87t22.5 88q0 40 -21.5 80.5t-59.5 58.5q-19 8 -35 11q-55 -25 -55 -100v-538l34 -9v-20h-252z" />
    <glyph glyph-name="agrave" unicode="&#xe0;" horiz-adv-x="499" 
d="M96 309h-55v121h1q35 16 101.5 27.5t109.5 11.5q87 0 135 -40t48 -114v-264l58 -29v-22h-185l-23 67q-72 -75 -149 -75q-54 0 -90.5 30t-36.5 86q0 67 65 102t168 35h41v90q0 46 -22 71.5t-60 25.5q-14 0 -36 -8zM284 86v127h-28q-85 0 -85 -72q0 -31 21.5 -46t52.5 -15
q21 0 39 6zM114 609l62 72l138 -157l-9 -13z" />
    <glyph glyph-name="aacute" unicode="&#xe1;" horiz-adv-x="499" 
d="M96 309h-55v121h1q35 16 101.5 27.5t109.5 11.5q87 0 135 -40t48 -114v-264l58 -29v-22h-185l-23 67q-72 -75 -149 -75q-54 0 -90.5 30t-36.5 86q0 67 65 102t168 35h41v90q0 46 -22 71.5t-60 25.5q-14 0 -36 -8zM284 86v127h-28q-85 0 -85 -72q0 -31 21.5 -46t52.5 -15
q21 0 39 6zM331 682l62 -72l-190 -96l-10 11z" />
    <glyph glyph-name="acircumflex" unicode="&#xe2;" horiz-adv-x="499" 
d="M96 309h-55v121h1q35 16 101.5 27.5t109.5 11.5q87 0 135 -40t48 -114v-264l58 -29v-22h-185l-23 67q-72 -75 -149 -75q-54 0 -90.5 30t-36.5 86q0 67 65 102t168 35h41v90q0 46 -22 71.5t-60 25.5q-14 0 -36 -8zM241 671h32l109 -148l-13 -15l-120 73l-115 -74l-14 12z
M284 86v127h-28q-85 0 -85 -72q0 -31 21.5 -46t52.5 -15q21 0 39 6z" />
    <glyph glyph-name="atilde" unicode="&#xe3;" horiz-adv-x="499" 
d="M96 309h-55v121h1q35 16 101.5 27.5t109.5 11.5q87 0 135 -40t48 -114v-264l58 -29v-22h-185l-23 67q-72 -75 -149 -75q-54 0 -90.5 30t-36.5 86q0 67 65 102t168 35h41v90q0 46 -22 71.5t-60 25.5q-14 0 -36 -8zM282 551q-30 0 -62 10t-53 10q-22 0 -52 -32l-19 18
q38 71 88 71q23 0 62.5 -11t47.5 -11q15 0 29.5 7t20.5 14l7 7l19 -18q-10 -22 -35.5 -43.5t-52.5 -21.5zM284 86v127h-28q-85 0 -85 -72q0 -31 21.5 -46t52.5 -15q21 0 39 6z" />
    <glyph glyph-name="adieresis" unicode="&#xe4;" horiz-adv-x="499" 
d="M96 309h-55v121h1q35 16 101.5 27.5t109.5 11.5q87 0 135 -40t48 -114v-264l58 -29v-22h-185l-23 67q-72 -75 -149 -75q-54 0 -90.5 30t-36.5 86q0 67 65 102t168 35h41v90q0 46 -22 71.5t-60 25.5q-14 0 -36 -8zM284 86v127h-28q-85 0 -85 -72q0 -31 21.5 -46t52.5 -15
q21 0 39 6zM99 587q0 26 16 42.5t41 16.5t42 -17t17 -42q0 -24 -17 -40.5t-42 -16.5t-41 16.5t-16 40.5zM276 587q0 25 17 42t42 17q24 0 40.5 -17t16.5 -42q0 -24 -16.5 -40.5t-40.5 -16.5q-25 0 -42 16.5t-17 40.5z" />
    <glyph glyph-name="aring" unicode="&#xe5;" horiz-adv-x="499" 
d="M96 309h-55v121h1q35 16 101.5 27.5t109.5 11.5q87 0 135 -40t48 -114v-264l58 -29v-22h-185l-23 67q-72 -75 -149 -75q-54 0 -90.5 30t-36.5 86q0 67 65 102t168 35h41v90q0 46 -22 71.5t-60 25.5q-14 0 -36 -8zM242 527q-26 0 -48 18t-22 53q0 29 19 49t51 20
q29 0 50 -19t21 -50t-19 -51t-52 -20zM284 86v127h-28q-85 0 -85 -72q0 -31 21.5 -46t52.5 -15q21 0 39 6zM242 549q49 0 49 49q0 21 -13.5 34t-35.5 13q-24 0 -36 -14t-12 -33q0 -24 14 -36.5t34 -12.5z" />
    <glyph glyph-name="ae" unicode="&#xe6;" horiz-adv-x="770" 
d="M41 309v121h1q35 16 101.5 27.5t109.5 11.5q90 0 139 -44q68 44 154 44q103 0 160.5 -62.5t57.5 -173.5h-318q3 -80 48 -119.5t104 -39.5q65 0 133 28l10 -12q-32 -40 -93 -69t-127 -29q-133 0 -195 81q-86 -81 -189 -81q-54 0 -90.5 30t-36.5 86q0 67 65 102t168 35h41
v90q0 46 -22 71.5t-60 25.5q-14 0 -36 -8l-70 -115h-55zM446 267l154 10q-1 61 -19 107.5t-53 46.5q-76 0 -82 -164zM245 80q38 0 63 21q-24 60 -24 112h-28q-85 0 -85 -72q0 -31 21.5 -46t52.5 -15z" />
    <glyph glyph-name="ccedilla" unicode="&#xe7;" horiz-adv-x="484" 
d="M420 284l-77 139q-18 2 -27 2q-59 0 -94.5 -51.5t-35.5 -120.5q0 -75 42.5 -130t99.5 -55q40 0 67.5 7t63.5 27l10 -13q-25 -35 -80 -64t-116 -32l-6 -11q85 -21 85 -95q0 -41 -35 -70.5t-91 -29.5q-47 0 -78 22l16 35q34 -22 70 -22q23 0 37 16t14 40q0 53 -81 65l28 51
q-93 8 -150.5 67.5t-57.5 155.5q0 111 74.5 181.5t177.5 70.5q107 0 189 -46v-139h-45z" />
    <glyph glyph-name="egrave" unicode="&#xe8;" horiz-adv-x="521" 
d="M505 233h-318q3 -80 48 -119.5t104 -39.5q65 0 133 28l10 -12q-32 -40 -93 -69t-127 -29q-109 0 -173.5 57.5t-64.5 167.5q0 116 78 184t185 68q103 0 160.5 -62.5t57.5 -173.5zM269 431q-76 0 -82 -164l154 10q-1 61 -19 107.5t-53 46.5zM146 610l62 72l138 -157l-9 -13
z" />
    <glyph glyph-name="eacute" unicode="&#xe9;" horiz-adv-x="521" 
d="M505 233h-318q3 -80 48 -119.5t104 -39.5q65 0 133 28l10 -12q-32 -40 -93 -69t-127 -29q-109 0 -173.5 57.5t-64.5 167.5q0 116 78 184t185 68q103 0 160.5 -62.5t57.5 -173.5zM269 431q-76 0 -82 -164l154 10q-1 61 -19 107.5t-53 46.5zM372 682l62 -72l-190 -96
l-10 11z" />
    <glyph glyph-name="ecircumflex" unicode="&#xea;" horiz-adv-x="521" 
d="M505 233h-318q3 -80 48 -119.5t104 -39.5q65 0 133 28l10 -12q-32 -40 -93 -69t-127 -29q-109 0 -173.5 57.5t-64.5 167.5q0 116 78 184t185 68q103 0 160.5 -62.5t57.5 -173.5zM269 431q-76 0 -82 -164l154 10q-1 61 -19 107.5t-53 46.5zM272 671h32l109 -148l-13 -15
l-120 73l-115 -74l-14 12z" />
    <glyph glyph-name="edieresis" unicode="&#xeb;" horiz-adv-x="521" 
d="M505 233h-318q3 -80 48 -119.5t104 -39.5q65 0 133 28l10 -12q-32 -40 -93 -69t-127 -29q-109 0 -173.5 57.5t-64.5 167.5q0 116 78 184t185 68q103 0 160.5 -62.5t57.5 -173.5zM269 431q-76 0 -82 -164l154 10q-1 61 -19 107.5t-53 46.5zM132 587q0 26 16 42.5t41 16.5
t42 -17t17 -42q0 -24 -17 -40.5t-42 -16.5t-41 16.5t-16 40.5zM309 587q0 25 16.5 42t42.5 17q24 0 40.5 -17t16.5 -42q0 -24 -16.5 -40.5t-40.5 -16.5q-25 0 -42 16.5t-17 40.5z" />
    <glyph glyph-name="igrave" unicode="&#xec;" horiz-adv-x="312" 
d="M19 0v19l66 13v369h-75v22l162 46h65v-435l68 -14v-20h-286zM50 610l62 72l138 -157l-9 -13z" />
    <glyph glyph-name="iacute" unicode="&#xed;" horiz-adv-x="312" 
d="M19 0v19l66 13v369h-75v22l162 46h65v-435l68 -14v-20h-286zM234 682l62 -72l-190 -96l-10 11z" />
    <glyph glyph-name="icircumflex" unicode="&#xee;" horiz-adv-x="312" 
d="M237 34l68 -14v-20h-286v19l66 13v369h-75v22l162 46h65v-435zM155 671h32l109 -148l-13 -15l-120 73l-115 -74l-14 12z" />
    <glyph glyph-name="idieresis" unicode="&#xef;" horiz-adv-x="312" 
d="M19 0v19l66 13v369h-75v22l162 46h65v-435l68 -14v-20h-286zM17 587q0 26 16 42.5t41 16.5t42 -17t17 -42q0 -24 -17 -40.5t-42 -16.5t-41 16.5t-16 40.5zM194 587q0 25 17 42t42 17q24 0 40.5 -17t16.5 -42q0 -24 -16.5 -40.5t-40.5 -16.5q-25 0 -42 16.5t-17 40.5z" />
    <glyph glyph-name="eth" unicode="&#xf0;" horiz-adv-x="547" 
d="M172 506l-32 24l74 77q-35 23 -93 47l20 33q66 -20 113 -40l64 66l33 -26l-58 -58q228 -116 228 -366q0 -125 -67.5 -198t-185.5 -73q-244 0 -244 228q0 61 23 110.5t60.5 78.5t81 44.5t87.5 15.5q22 0 57 -7q-25 71 -85 121zM356 256q0 99 -9 151q-37 23 -81 23
q-78 0 -78 -189q0 -208 87 -208q47 0 64 57t17 166z" />
    <glyph glyph-name="ntilde" unicode="&#xf1;" horiz-adv-x="610" 
d="M18 0v19l67 13v369h-75v22l162 46h40l22 -68q83 68 173 68q62 0 100.5 -42t38.5 -130v-265l59 -12v-20h-276v19l64 13v237q0 116 -98 116q-26 0 -58 -8v-344l57 -13v-20h-276zM364 551q-30 0 -62 10t-53 10q-22 0 -52 -32l-19 18q38 71 88 71q22 0 62 -11t48 -11
q15 0 29.5 7t20.5 14l7 7l19 -18q-10 -22 -35.5 -43.5t-52.5 -21.5z" />
    <glyph glyph-name="ograve" unicode="&#xf2;" horiz-adv-x="545" 
d="M521 225q0 -117 -72.5 -175t-180.5 -58q-55 0 -96 10t-76 34t-53.5 70.5t-18.5 113.5q0 121 74 185t178 64q245 0 245 -244zM356 213q0 54 -6.5 99t-28 81t-55.5 36q-78 0 -78 -188q0 -90 22.5 -149.5t64.5 -59.5q29 0 48 28.5t26 67t7 85.5zM133 610l62 72l138 -157
l-9 -13z" />
    <glyph glyph-name="oacute" unicode="&#xf3;" horiz-adv-x="545" 
d="M521 225q0 -117 -72.5 -175t-180.5 -58q-55 0 -96 10t-76 34t-53.5 70.5t-18.5 113.5q0 121 74 185t178 64q245 0 245 -244zM356 213q0 54 -6.5 99t-28 81t-55.5 36q-78 0 -78 -188q0 -90 22.5 -149.5t64.5 -59.5q29 0 48 28.5t26 67t7 85.5zM359 682l62 -72l-190 -96
l-10 11z" />
    <glyph glyph-name="ocircumflex" unicode="&#xf4;" horiz-adv-x="545" 
d="M521 225q0 -117 -72.5 -175t-180.5 -58q-55 0 -96 10t-76 34t-53.5 70.5t-18.5 113.5q0 121 74 185t178 64q245 0 245 -244zM356 213q0 54 -6.5 99t-28 81t-55.5 36q-78 0 -78 -188q0 -90 22.5 -149.5t64.5 -59.5q29 0 48 28.5t26 67t7 85.5zM265 666h32l109 -148
l-13 -15l-120 73l-115 -74l-14 12z" />
    <glyph glyph-name="otilde" unicode="&#xf5;" horiz-adv-x="545" 
d="M521 225q0 -117 -72.5 -175t-180.5 -58q-55 0 -96 10t-76 34t-53.5 70.5t-18.5 113.5q0 121 74 185t178 64q245 0 245 -244zM356 213q0 54 -6.5 99t-28 81t-55.5 36q-78 0 -78 -188q0 -90 22.5 -149.5t64.5 -59.5q29 0 48 28.5t26 67t7 85.5zM337 551q-29 0 -62 10
t-53 10q-22 0 -52 -32l-19 18q38 71 88 71q23 0 63 -11t47 -11q15 0 29.5 7t21.5 14l6 7l19 -18q-10 -22 -35.5 -43.5t-52.5 -21.5z" />
    <glyph glyph-name="odieresis" unicode="&#xf6;" horiz-adv-x="545" 
d="M521 225q0 -117 -72.5 -175t-180.5 -58q-55 0 -96 10t-76 34t-53.5 70.5t-18.5 113.5q0 121 74 185t178 64q245 0 245 -244zM356 213q0 54 -6.5 99t-28 81t-55.5 36q-78 0 -78 -188q0 -90 22.5 -149.5t64.5 -59.5q29 0 48 28.5t26 67t7 85.5zM135 587q0 26 16 42.5
t41 16.5t42 -17t17 -42q0 -24 -17 -40.5t-42 -16.5t-41 16.5t-16 40.5zM312 587q0 25 17 42t42 17q24 0 40.5 -17t16.5 -42q0 -24 -16.5 -40.5t-40.5 -16.5q-25 0 -42 16.5t-17 40.5z" />
    <glyph glyph-name="divide" unicode="&#xf7;" horiz-adv-x="458" 
d="M427 277h-396v45h396v-45zM155 448q0 31 19.5 51.5t50.5 20.5q30 0 51 -20.5t21 -51.5q0 -29 -21 -49.5t-51 -20.5t-50 20t-20 50zM155 148q0 31 19.5 51.5t50.5 20.5q30 0 51 -20.5t21 -51.5q0 -29 -21 -49.5t-51 -20.5t-50 20t-20 50z" />
    <glyph glyph-name="oslash" unicode="&#xf8;" horiz-adv-x="545" 
d="M521 225q0 -117 -72.5 -175t-180.5 -58q-106 0 -163 37l-34 -37h-47l55 58q-55 57 -55 170q0 121 74 185t178 64q100 0 159 -40l38 40h48l-59 -63q59 -61 59 -181zM188 241q0 -42 4 -71l153 163q-21 96 -79 96q-78 0 -78 -188zM356 213q0 42 -4 77l-153 -162
q22 -96 76 -96q29 0 48 28.5t26 67t7 85.5z" />
    <glyph glyph-name="ugrave" unicode="&#xf9;" horiz-adv-x="597" 
d="M402 0l-22 62q-79 -69 -166 -69q-62 0 -100.5 42t-38.5 130v236h-75v22l162 46h66v-276q0 -116 98 -116q26 0 51 7v317h-75v22l162 46h65v-418l58 -29v-22h-185zM178 610l62 72l138 -157l-9 -13z" />
    <glyph glyph-name="uacute" unicode="&#xfa;" horiz-adv-x="597" 
d="M402 0l-22 62q-79 -69 -166 -69q-62 0 -100.5 42t-38.5 130v236h-75v22l162 46h66v-276q0 -116 98 -116q26 0 51 7v317h-75v22l162 46h65v-418l58 -29v-22h-185zM397 682l62 -72l-190 -96l-10 11z" />
    <glyph glyph-name="ucircumflex" unicode="&#xfb;" horiz-adv-x="597" 
d="M402 0l-22 62q-79 -69 -166 -69q-62 0 -100.5 42t-38.5 130v236h-75v22l162 46h66v-276q0 -116 98 -116q26 0 51 7v317h-75v22l162 46h65v-418l58 -29v-22h-185zM303 671h32l109 -148l-13 -15l-120 73l-115 -74l-14 12z" />
    <glyph glyph-name="udieresis" unicode="&#xfc;" horiz-adv-x="597" 
d="M402 0l-22 62q-79 -69 -166 -69q-62 0 -100.5 42t-38.5 130v236h-75v22l162 46h66v-276q0 -116 98 -116q26 0 51 7v317h-75v22l162 46h65v-418l58 -29v-22h-185zM177 587q0 26 16 42.5t41 16.5t42 -17t17 -42q0 -24 -17 -40.5t-42 -16.5t-41 16.5t-16 40.5zM354 587
q0 25 17 42t42 17q24 0 40.5 -17t16.5 -42q0 -24 -16.5 -40.5t-40.5 -16.5q-25 0 -42 16.5t-17 40.5z" />
    <glyph glyph-name="yacute" unicode="&#xfd;" horiz-adv-x="533" 
d="M302 19l-92 -226h-108v17l129 167l-198 453l-43 9v20h286v-19l-73 -15l107 -304l116 284l-86 34v20h203v-19l-67 -26zM380 682l62 -72l-190 -96l-10 11z" />
    <glyph glyph-name="thorn" unicode="&#xfe;" horiz-adv-x="580" 
d="M4 -208v19l71 14v810h-75v22l162 46h65v-277q64 43 134 43q91 0 143 -55.5t52 -166.5q0 -118 -83.5 -186.5t-194.5 -68.5q-17 0 -51 2v-166l85 -16v-20h-308zM260 404q-16 0 -33 -3v-365q18 -6 34 -6q65 0 97.5 55t32.5 145q0 72 -39.5 123t-91.5 51z" />
    <glyph glyph-name="ydieresis" unicode="&#xff;" horiz-adv-x="533" 
d="M302 19l-92 -226h-108v17l129 167l-198 453l-43 9v20h286v-19l-73 -15l107 -304l116 284l-86 34v20h203v-19l-67 -26zM152 588q0 26 16 42.5t41 16.5t42 -17t17 -42q0 -24 -17 -40.5t-42 -16.5t-41 16.5t-16 40.5zM329 588q0 26 16.5 42.5t42.5 16.5q24 0 40.5 -17
t16.5 -42q0 -24 -16.5 -40.5t-40.5 -16.5q-25 0 -42 16.5t-17 40.5z" />
    <glyph glyph-name="Amacron" unicode="&#x100;" horiz-adv-x="625" 
d="M355 0v19l59 10l-56 141h-199l-51 -124l113 -26v-20h-225v19l63 24l231 540h87l216 -557l36 -6v-20h-274zM257 409l-83 -203h170l-81 203h-6zM463 665h-245v41h245v-41z" />
    <glyph glyph-name="amacron" unicode="&#x101;" horiz-adv-x="499" 
d="M96 309h-55v121h1q35 16 101.5 27.5t109.5 11.5q87 0 135 -40t48 -114v-264l58 -29v-22h-185l-23 67q-72 -75 -149 -75q-54 0 -90.5 30t-36.5 86q0 67 65 102t168 35h41v90q0 46 -22 71.5t-60 25.5q-14 0 -36 -8zM284 86v127h-28q-85 0 -85 -72q0 -31 21.5 -46t52.5 -15
q21 0 39 6zM373 567h-246v38h246v-38z" />
    <glyph glyph-name="Abreve" unicode="&#x102;" horiz-adv-x="625" 
d="M355 0v19l59 10l-56 141h-199l-51 -124l113 -26v-20h-225v19l63 24l231 540h87l216 -557l36 -6v-20h-274zM257 409l-83 -203h170l-81 203h-6zM332 631q-39 0 -72 15.5t-46 29t-17 21.5l41 31q5 -8 14.5 -16.5t32.5 -18t50 -9.5q36 0 62 14.5t36 27.5l13 -17
q-10 -24 -40.5 -51t-73.5 -27z" />
    <glyph glyph-name="abreve" unicode="&#x103;" horiz-adv-x="499" 
d="M96 309h-55v121h1q35 16 101.5 27.5t109.5 11.5q87 0 135 -40t48 -114v-264l58 -29v-22h-185l-23 67q-72 -75 -149 -75q-54 0 -90.5 30t-36.5 86q0 67 65 102t168 35h41v90q0 46 -22 71.5t-60 25.5q-14 0 -36 -8zM249 537q-40 0 -75 17t-49.5 31t-19.5 23l49 36
q38 -49 97 -49q38 0 69 17t39 29l19 -8q-8 -31 -45 -63.5t-84 -32.5zM284 86v127h-28q-85 0 -85 -72q0 -31 21.5 -46t52.5 -15q21 0 39 6z" />
    <glyph glyph-name="Aogonek" unicode="&#x104;" horiz-adv-x="625" 
d="M-4 0v19l63 24l231 540h87l216 -557l36 -6v-20h-99q-52 -36 -52 -97q0 -72 71 -72q32 0 56 14l13 -31q-37 -21 -92 -21q-109 0 -109 102q0 64 57 105h-119v19l59 10l-56 141h-199l-51 -124l113 -26v-20h-225zM257 409l-83 -203h170l-81 203h-6z" />
    <glyph glyph-name="aogonek" unicode="&#x105;" horiz-adv-x="499" 
d="M494 22v-22h-124q-40 -19 -64 -49.5t-24 -63.5q0 -67 68 -67q26 0 46 10l11 -29q-30 -17 -82 -17q-42 0 -73 25t-31 70q0 74 90 121h-2l-23 67q-72 -75 -149 -75q-54 0 -90.5 30t-36.5 86q0 67 65 102t168 35h41v90q0 46 -22 71.5t-60 25.5q-14 0 -36 -8l-70 -115h-55
v121h1q35 16 101.5 27.5t109.5 11.5q87 0 135 -40t48 -114v-264zM284 86v127h-28q-85 0 -85 -72q0 -31 21.5 -46t52.5 -15q21 0 39 6z" />
    <glyph glyph-name="Cacute" unicode="&#x106;" horiz-adv-x="604" 
d="M577 404h-25l-79 136q-31 14 -68 14q-85 0 -134.5 -73t-49.5 -188q0 -72 17.5 -129t61 -95t107.5 -38q43 0 87 30.5t61 67.5h22v-95q-30 -17 -87 -29.5t-112 -12.5q-69 0 -128.5 15t-110 46.5t-79.5 88t-29 132.5q0 155 100.5 236t263.5 81q97 0 182 -33v-154zM484 746
l38 -84l-209 -42l-7 16z" />
    <glyph glyph-name="cacute" unicode="&#x107;" horiz-adv-x="484" 
d="M420 284l-77 139q-18 2 -27 2q-59 0 -94.5 -51.5t-35.5 -120.5q0 -75 42.5 -130t99.5 -55q40 0 67.5 7t63.5 27l10 -13q-26 -37 -85 -67t-124 -30q-104 0 -170 61t-66 164q0 111 74.5 181.5t177.5 70.5q107 0 189 -46v-139h-45zM361 682l62 -72l-190 -96l-10 11z" />
    <glyph glyph-name="Ccircumflex" unicode="&#x108;" horiz-adv-x="604" 
d="M577 404h-25l-79 136q-31 14 -68 14q-85 0 -134.5 -73t-49.5 -188q0 -72 17.5 -129t61 -95t107.5 -38q43 0 87 30.5t61 67.5h22v-95q-30 -17 -87 -29.5t-112 -12.5q-69 0 -128.5 15t-110 46.5t-79.5 88t-29 132.5q0 155 100.5 236t263.5 81q97 0 182 -33v-154zM504 617
l-127 52l-126 -58l-12 16l145 126l133 -118z" />
    <glyph glyph-name="ccircumflex" unicode="&#x109;" horiz-adv-x="484" 
d="M420 284l-77 139q-18 2 -27 2q-59 0 -94.5 -51.5t-35.5 -120.5q0 -75 42.5 -130t99.5 -55q40 0 67.5 7t63.5 27l10 -13q-26 -37 -85 -67t-124 -30q-104 0 -170 61t-66 164q0 111 74.5 181.5t177.5 70.5q107 0 189 -46v-139h-45zM275 671h32l109 -148l-13 -15l-120 73
l-115 -74l-14 12z" />
    <glyph glyph-name="Cdotaccent" unicode="&#x10a;" horiz-adv-x="604" 
d="M577 404h-25l-79 136q-31 14 -68 14q-85 0 -134.5 -73t-49.5 -188q0 -72 17.5 -129t61 -95t107.5 -38q43 0 87 30.5t61 67.5h22v-95q-30 -17 -87 -29.5t-112 -12.5q-69 0 -128.5 15t-110 46.5t-79.5 88t-29 132.5q0 155 100.5 236t263.5 81q97 0 182 -33v-154zM307 691
q0 31 19.5 51.5t50.5 20.5q30 0 51 -20.5t21 -51.5q0 -29 -21 -49.5t-51 -20.5t-50 20t-20 50z" />
    <glyph glyph-name="cdotaccent" unicode="&#x10b;" horiz-adv-x="484" 
d="M420 284l-77 139q-18 2 -27 2q-59 0 -94.5 -51.5t-35.5 -120.5q0 -75 42.5 -130t99.5 -55q40 0 67.5 7t63.5 27l10 -13q-26 -37 -85 -67t-124 -30q-104 0 -170 61t-66 164q0 111 74.5 181.5t177.5 70.5q107 0 189 -46v-139h-45zM210 604q0 31 19.5 51.5t50.5 20.5
q30 0 51 -20.5t21 -51.5q0 -29 -21 -49.5t-51 -20.5t-50 20t-20 50z" />
    <glyph glyph-name="Ccaron" unicode="&#x10c;" horiz-adv-x="604" 
d="M577 404h-25l-79 136q-31 14 -68 14q-85 0 -134.5 -73t-49.5 -188q0 -72 17.5 -129t61 -95t107.5 -38q43 0 87 30.5t61 67.5h22v-95q-30 -17 -87 -29.5t-112 -12.5q-69 0 -128.5 15t-110 46.5t-79.5 88t-29 132.5q0 155 100.5 236t263.5 81q97 0 182 -33v-154zM398 613
h-32l-112 102l10 17l125 -48l123 45l10 -15z" />
    <glyph glyph-name="ccaron" unicode="&#x10d;" horiz-adv-x="484" 
d="M420 284l-77 139q-18 2 -27 2q-59 0 -94.5 -51.5t-35.5 -120.5q0 -75 42.5 -130t99.5 -55q40 0 67.5 7t63.5 27l10 -13q-26 -37 -85 -67t-124 -30q-104 0 -170 61t-66 164q0 111 74.5 181.5t177.5 70.5q107 0 189 -46v-139h-45zM296 519h-32l-125 149l13 15l135 -82
l128 86l12 -13z" />
    <glyph glyph-name="Dcaron" unicode="&#x10e;" horiz-adv-x="702" 
d="M21 0v19l75 13v516l-75 15v20h294q61 0 110 -6.5t96.5 -25t79 -49t51 -80t19.5 -116.5q0 -146 -99 -226t-252 -80h-299zM298 548h-31v-510h25q104 0 146.5 54t42.5 199q0 140 -39.5 198.5t-143.5 58.5zM357 613h-32l-112 102l10 17l125 -48l123 45l10 -15z" />
    <glyph glyph-name="dcaron" unicode="&#x10f;" horiz-adv-x="600" 
d="M378 0l-18 55q-56 -63 -146 -63q-87 0 -138.5 61.5t-51.5 163.5q0 111 75 181.5t178 70.5q40 0 76 -15v181h-75v22l162 46h65v-652l58 -29v-22h-185zM308 71q21 0 45 11v342q-25 5 -47 5q-47 0 -83 -50t-36 -132q0 -72 35.5 -124t85.5 -52zM580 529h-19v174h92z" />
    <glyph glyph-name="Dcroat" unicode="&#x110;" horiz-adv-x="702" 
d="M26 285v32h70v231l-75 15v20h294q61 0 110 -6.5t96.5 -25t79 -49t51 -80t19.5 -116.5q0 -146 -99 -226t-252 -80h-299v19l75 13v253h-70zM352 285h-85v-247h25q104 0 146.5 54t42.5 199q0 140 -39.5 198.5t-143.5 58.5h-31v-231h85v-32z" />
    <glyph glyph-name="dcroat" unicode="&#x111;" horiz-adv-x="570" 
d="M214 -8q-87 0 -138.5 61.5t-51.5 163.5q0 111 75 181.5t178 70.5q40 0 76 -15v76h-153v32h153v73h-75v22l162 46h65v-141h42v-32h-42v-479l58 -29v-22h-185l-18 55q-56 -63 -146 -63zM353 82v342q-25 5 -47 5q-47 0 -83 -50t-36 -132q0 -72 35.5 -124t85.5 -52
q21 0 45 11z" />
    <glyph glyph-name="Emacron" unicode="&#x112;" horiz-adv-x="556" 
d="M473 274l-206 3v-240h155l100 144l23 -4l-30 -177h-494v19l75 13v516l-75 15v20h496v-162h-23l-75 126h-152v-228l206 4v-49zM435 665h-245v41h245v-41z" />
    <glyph glyph-name="emacron" unicode="&#x113;" horiz-adv-x="521" 
d="M505 233h-318q3 -80 48 -119.5t104 -39.5q65 0 133 28l10 -12q-32 -40 -93 -69t-127 -29q-109 0 -173.5 57.5t-64.5 167.5q0 116 78 184t185 68q103 0 160.5 -62.5t57.5 -173.5zM269 431q-76 0 -82 -164l154 10q-1 61 -19 107.5t-53 46.5zM405 567h-246v38h246v-38z" />
    <glyph glyph-name="Ebreve" unicode="&#x114;" horiz-adv-x="556" 
d="M473 274l-206 3v-240h155l100 144l23 -4l-30 -177h-494v19l75 13v516l-75 15v20h496v-162h-23l-75 126h-152v-228l206 4v-49zM329 631q-39 0 -72 15.5t-46 29t-17 21.5l41 31q5 -8 14.5 -16.5t32.5 -18t50 -9.5q36 0 62 14.5t36 27.5l13 -17q-10 -24 -40.5 -51t-73.5 -27
z" />
    <glyph glyph-name="ebreve" unicode="&#x115;" horiz-adv-x="521" 
d="M505 233h-318q3 -80 48 -119.5t104 -39.5q65 0 133 28l10 -12q-32 -40 -93 -69t-127 -29q-109 0 -173.5 57.5t-64.5 167.5q0 116 78 184t185 68q103 0 160.5 -62.5t57.5 -173.5zM269 431q-76 0 -82 -164l154 10q-1 61 -19 107.5t-53 46.5zM283 537q-40 0 -75 17t-49.5 31
t-19.5 23l49 36q38 -49 97 -49q38 0 69 17t39 29l19 -8q-8 -31 -45 -63.5t-84 -32.5z" />
    <glyph glyph-name="Edotaccent" unicode="&#x116;" horiz-adv-x="556" 
d="M473 274l-206 3v-240h155l100 144l23 -4l-30 -177h-494v19l75 13v516l-75 15v20h496v-162h-23l-75 126h-152v-228l206 4v-49zM242 690q0 31 19.5 51.5t50.5 20.5q30 0 51 -20.5t21 -51.5q0 -29 -21 -49.5t-51 -20.5t-50 20t-20 50z" />
    <glyph glyph-name="edotaccent" unicode="&#x117;" horiz-adv-x="521" 
d="M505 233h-318q3 -80 48 -119.5t104 -39.5q65 0 133 28l10 -12q-32 -40 -93 -69t-127 -29q-109 0 -173.5 57.5t-64.5 167.5q0 116 78 184t185 68q103 0 160.5 -62.5t57.5 -173.5zM269 431q-76 0 -82 -164l154 10q-1 61 -19 107.5t-53 46.5zM210 604q0 31 19.5 51.5
t50.5 20.5q30 0 51 -20.5t21 -51.5q0 -29 -21 -49.5t-51 -20.5t-50 20t-20 50z" />
    <glyph glyph-name="Eogonek" unicode="&#x118;" horiz-adv-x="556" 
d="M473 274l-206 3v-240h155l100 144l23 -4l-30 -177h-30q-40 -19 -64 -49.5t-24 -63.5q0 -67 68 -67q26 0 46 10l11 -29q-30 -17 -82 -17q-42 0 -73 25t-31 70q0 74 90 121h-405v19l75 13v516l-75 15v20h496v-162h-23l-75 126h-152v-228l206 4v-49z" />
    <glyph glyph-name="eogonek" unicode="&#x119;" horiz-adv-x="521" 
d="M505 233h-318q3 -80 48 -119.5t104 -39.5q65 0 133 28l10 -12q-48 -60 -137 -86q-44 -18 -70.5 -50t-26.5 -67q0 -67 68 -67q26 0 46 10l11 -29q-30 -17 -82 -17q-42 0 -73 25t-31 70q0 67 75 113q-109 0 -173.5 57.5t-64.5 167.5q0 116 78 184t185 68q103 0 160.5 -62.5
t57.5 -173.5zM269 431q-76 0 -82 -164l154 10q-1 61 -19 107.5t-53 46.5z" />
    <glyph glyph-name="Ecaron" unicode="&#x11a;" horiz-adv-x="556" 
d="M473 274l-206 3v-240h155l100 144l23 -4l-30 -177h-494v19l75 13v516l-75 15v20h496v-162h-23l-75 126h-152v-228l206 4v-49zM324 613h-32l-112 102l10 17l125 -48l123 45l10 -15z" />
    <glyph glyph-name="ecaron" unicode="&#x11b;" horiz-adv-x="521" 
d="M505 233h-318q3 -80 48 -119.5t104 -39.5q65 0 133 28l10 -12q-32 -40 -93 -69t-127 -29q-109 0 -173.5 57.5t-64.5 167.5q0 116 78 184t185 68q103 0 160.5 -62.5t57.5 -173.5zM269 431q-76 0 -82 -164l154 10q-1 61 -19 107.5t-53 46.5zM292 519h-32l-125 149l13 15
l135 -82l128 86l12 -13z" />
    <glyph glyph-name="Gcircumflex" unicode="&#x11c;" horiz-adv-x="643" 
d="M597 34q-28 -16 -95 -29t-124 -13q-67 0 -128 16.5t-110.5 49.5t-79 89t-29.5 127q0 149 102 233t262 84q49 0 105 -11t85 -22v-154h-25l-82 138q-35 12 -77 12q-75 0 -127.5 -75t-52.5 -186q0 -72 17.5 -129t61 -95.5t107.5 -38.5q10 0 32 2v223l-80 14v19h238v-254z
M511 616l-127 52l-126 -58l-12 16l145 126l133 -118z" />
    <glyph glyph-name="gcircumflex" unicode="&#x11d;" horiz-adv-x="534" 
d="M253 176q-34 0 -64 3l-15 -45l127 -8q105 -8 158.5 -44.5t53.5 -108.5q0 -74 -85.5 -134t-205.5 -60q-110 0 -166 36t-56 96q0 40 36.5 69.5t89.5 45.5l-72 13v48l114 96q-138 24 -138 132q0 72 64 113t153 41q130 0 192 -62l80 62h12v-86h-74q18 -29 18 -66
q0 -63 -66 -102t-156 -39zM118 -54q0 -56 35 -85.5t79 -29.5q64 0 98.5 29t34.5 68q0 32 -22.5 48t-82.5 27l-113 20q-29 -35 -29 -77zM250 213q30 0 46.5 30t16.5 69q0 56 -19 87t-49 31q-31 0 -47.5 -29.5t-16.5 -77.5q0 -44 18.5 -77t50.5 -33zM252 671h32l109 -148
l-13 -15l-120 73l-115 -74l-14 12z" />
    <glyph glyph-name="Gbreve" unicode="&#x11e;" horiz-adv-x="643" 
d="M597 34q-28 -16 -95 -29t-124 -13q-67 0 -128 16.5t-110.5 49.5t-79 89t-29.5 127q0 149 102 233t262 84q49 0 105 -11t85 -22v-154h-25l-82 138q-35 12 -77 12q-75 0 -127.5 -75t-52.5 -186q0 -72 17.5 -129t61 -95.5t107.5 -38.5q10 0 32 2v223l-80 14v19h238v-254z
M399 630q-39 0 -72 15.5t-46 29t-17 21.5l41 31q5 -8 14.5 -16.5t32.5 -18t50 -9.5q36 0 62 14.5t36 27.5l13 -17q-10 -24 -40.5 -51t-73.5 -27z" />
    <glyph glyph-name="gbreve" unicode="&#x11f;" horiz-adv-x="534" 
d="M253 176q-34 0 -64 3l-15 -45l127 -8q105 -8 158.5 -44.5t53.5 -108.5q0 -74 -85.5 -134t-205.5 -60q-110 0 -166 36t-56 96q0 40 36.5 69.5t89.5 45.5l-72 13v48l114 96q-138 24 -138 132q0 72 64 113t153 41q130 0 192 -62l80 62h12v-86h-74q18 -29 18 -66
q0 -63 -66 -102t-156 -39zM118 -54q0 -56 35 -85.5t79 -29.5q64 0 98.5 29t34.5 68q0 32 -22.5 48t-82.5 27l-113 20q-29 -35 -29 -77zM250 213q30 0 46.5 30t16.5 69q0 56 -19 87t-49 31q-31 0 -47.5 -29.5t-16.5 -77.5q0 -44 18.5 -77t50.5 -33zM266 537q-40 0 -75 17
t-49.5 31t-19.5 23l49 36q38 -49 97 -49q38 0 69 17t39 29l19 -8q-8 -31 -45 -63.5t-84 -32.5z" />
    <glyph glyph-name="Gdotaccent" unicode="&#x120;" horiz-adv-x="643" 
d="M597 34q-28 -16 -95 -29t-124 -13q-67 0 -128 16.5t-110.5 49.5t-79 89t-29.5 127q0 149 102 233t262 84q49 0 105 -11t85 -22v-154h-25l-82 138q-35 12 -77 12q-75 0 -127.5 -75t-52.5 -186q0 -72 17.5 -129t61 -95.5t107.5 -38.5q10 0 32 2v223l-80 14v19h238v-254z
M310 691q0 31 19.5 51.5t50.5 20.5q30 0 51 -20.5t21 -51.5q0 -29 -21 -49.5t-51 -20.5t-50 20t-20 50z" />
    <glyph glyph-name="gdotaccent" unicode="&#x121;" horiz-adv-x="534" 
d="M253 176q-34 0 -64 3l-15 -45l127 -8q105 -8 158.5 -44.5t53.5 -108.5q0 -74 -85.5 -134t-205.5 -60q-110 0 -166 36t-56 96q0 40 36.5 69.5t89.5 45.5l-72 13v48l114 96q-138 24 -138 132q0 72 64 113t153 41q130 0 192 -62l80 62h12v-86h-74q18 -29 18 -66
q0 -63 -66 -102t-156 -39zM118 -54q0 -56 35 -85.5t79 -29.5q64 0 98.5 29t34.5 68q0 32 -22.5 48t-82.5 27l-113 20q-29 -35 -29 -77zM250 213q30 0 46.5 30t16.5 69q0 56 -19 87t-49 31q-31 0 -47.5 -29.5t-16.5 -77.5q0 -44 18.5 -77t50.5 -33zM182 604q0 31 19.5 51.5
t50.5 20.5q30 0 51 -20.5t21 -51.5q0 -29 -21 -49.5t-51 -20.5t-50 20t-20 50z" />
    <glyph glyph-name="Gcommaaccent" unicode="&#x122;" horiz-adv-x="643" 
d="M597 34q-28 -16 -95 -29t-124 -13q-67 0 -128 16.5t-110.5 49.5t-79 89t-29.5 127q0 149 102 233t262 84q49 0 105 -11t85 -22v-154h-25l-82 138q-35 12 -77 12q-75 0 -127.5 -75t-52.5 -186q0 -72 17.5 -129t61 -95.5t107.5 -38.5q10 0 32 2v223l-80 14v19h238v-254z
M330 -51h99l-81 -156h-30z" />
    <glyph glyph-name="gcommaaccent" unicode="&#x123;" horiz-adv-x="534" 
d="M253 176q-34 0 -64 3l-15 -45l127 -8q105 -8 158.5 -44.5t53.5 -108.5q0 -74 -85.5 -134t-205.5 -60q-110 0 -166 36t-56 96q0 40 36.5 69.5t89.5 45.5l-72 13v48l114 96q-138 24 -138 132q0 72 64 113t153 41q130 0 192 -62l80 62h12v-86h-74q18 -29 18 -66
q0 -63 -66 -102t-156 -39zM118 -54q0 -56 35 -85.5t79 -29.5q64 0 98.5 29t34.5 68q0 32 -22.5 48t-82.5 27l-113 20q-29 -35 -29 -77zM250 213q30 0 46.5 30t16.5 69q0 56 -19 87t-49 31q-31 0 -47.5 -29.5t-16.5 -77.5q0 -44 18.5 -77t50.5 -33zM298 502h-99l81 158h30z
" />
    <glyph glyph-name="Hcircumflex" unicode="&#x124;" horiz-adv-x="730" 
d="M393 0v19l75 13v255h-201v-254l70 -13v-20h-316v19l75 13v516l-75 15v20h316v-19l-70 -13v-234h201v231l-75 15v20h316v-19l-70 -13v-518l70 -13v-20h-316zM488 616l-127 52l-126 -58l-12 16l145 126l133 -118z" />
    <glyph glyph-name="hcircumflex" unicode="&#x125;" horiz-adv-x="610" 
d="M13 0v19l66 13v603h-75v22l162 46h65v-304q85 70 176 70q62 0 100.5 -42t38.5 -130v-265l59 -12v-20h-276v19l64 13v237q0 116 -98 116q-31 0 -64 -9v-343l58 -13v-20h-276zM274 734l-127 52l-126 -58l-12 16l145 126l133 -118z" />
    <glyph glyph-name="Hbar" unicode="&#x126;" horiz-adv-x="730" 
d="M21 0v19l75 13v382h-75v29h75v105l-75 15v20h316v-19l-70 -13v-108h201v105l-75 15v20h316v-19l-70 -13v-108h71v-29h-71v-381l70 -13v-20h-316v19l75 13v255h-201v-254l70 -13v-20h-316zM267 414v-97h201v97h-201z" />
    <glyph glyph-name="hbar" unicode="&#x127;" horiz-adv-x="610" 
d="M13 0v19l66 13v490h-60v31h60v82h-75v22l162 46h65v-150h124v-31h-124v-123q85 70 176 70q62 0 100.5 -42t38.5 -130v-265l59 -12v-20h-276v19l64 13v237q0 116 -98 116q-31 0 -64 -9v-343l58 -13v-20h-276z" />
    <glyph glyph-name="Itilde" unicode="&#x128;" horiz-adv-x="372" 
d="M28 0v19l75 13v516l-75 15v20h316v-19l-70 -13v-518l70 -13v-20h-316zM235 638q-29 0 -62 10t-53 10q-22 0 -52 -32l-19 18q38 71 88 71q23 0 63 -11t47 -11q15 0 29.5 7t21.5 14l6 7l19 -18q-10 -22 -35.5 -43.5t-52.5 -21.5z" />
    <glyph glyph-name="itilde" unicode="&#x129;" horiz-adv-x="312" 
d="M19 0v19l66 13v369h-75v22l162 46h65v-435l68 -14v-20h-286zM221 551q-29 0 -62 10t-53 10q-22 0 -52 -32l-19 18q38 71 88 71q23 0 63 -11t47 -11q15 0 29.5 7t21.5 14l6 7l19 -18q-10 -22 -35.5 -43.5t-52.5 -21.5z" />
    <glyph glyph-name="Imacron" unicode="&#x12a;" horiz-adv-x="372" 
d="M28 0v19l75 13v516l-75 15v20h316v-19l-70 -13v-518l70 -13v-20h-316zM314 665h-245v41h245v-41z" />
    <glyph glyph-name="imacron" unicode="&#x12b;" horiz-adv-x="312" 
d="M19 0v19l66 13v369h-75v22l162 46h65v-435l68 -14v-20h-286zM279 567h-246v38h246v-38z" />
    <glyph glyph-name="Ibreve" unicode="&#x12c;" horiz-adv-x="372" 
d="M28 0v19l75 13v516l-75 15v20h316v-19l-70 -13v-518l70 -13v-20h-316zM199 631q-39 0 -72 15.5t-46 29t-17 21.5l41 31q5 -8 14.5 -16.5t32.5 -18t50 -9.5q36 0 62 14.5t36 27.5l13 -17q-10 -24 -40.5 -51t-73.5 -27z" />
    <glyph glyph-name="ibreve" unicode="&#x12d;" horiz-adv-x="312" 
d="M19 0v19l66 13v369h-75v22l162 46h65v-435l68 -14v-20h-286zM158 537q-40 0 -75 17t-49.5 31t-19.5 23l49 36q38 -49 97 -49q38 0 69 17t39 29l19 -8q-8 -31 -45 -63.5t-84 -32.5z" />
    <glyph glyph-name="Iogonek" unicode="&#x12e;" horiz-adv-x="372" 
d="M28 0v19l75 13v516l-75 15v20h316v-19l-70 -13v-518l70 -13v-20h-101q-40 -19 -64 -49.5t-24 -63.5q0 -67 68 -67q26 0 46 10l11 -29q-30 -17 -82 -17q-42 0 -73 25t-31 70q0 74 90 121h-156z" />
    <glyph glyph-name="iogonek" unicode="&#x12f;" horiz-adv-x="312" 
d="M19 0v19l66 13v369h-75v22l162 46h65v-435l68 -14v-20h-92q-40 -19 -64 -49.5t-24 -63.5q0 -67 68 -67q26 0 46 10l11 -29q-30 -17 -82 -17q-42 0 -73 25t-31 70q0 74 90 121h-135zM77 610q0 38 24 58t66 20q89 0 89 -78q0 -79 -89 -79q-41 0 -65.5 20.5t-24.5 58.5z" />
    <glyph glyph-name="Idotaccent" unicode="&#x130;" horiz-adv-x="372" 
d="M28 0v19l75 13v516l-75 15v20h316v-19l-70 -13v-518l70 -13v-20h-316zM122 691q0 31 19.5 51.5t50.5 20.5q30 0 51 -20.5t21 -51.5q0 -29 -21 -49.5t-51 -20.5t-50 20t-20 50z" />
    <glyph glyph-name="dotlessi" unicode="&#x131;" horiz-adv-x="312" 
d="M19 0v19l66 13v369h-75v22l162 46h65v-435l68 -14v-20h-286z" />
    <glyph glyph-name="IJ" unicode="&#x132;" horiz-adv-x="804" 
d="M538 -8q-84 0 -173 33v183h22l72 -160q30 -16 50 -16q32 0 43 27t11 100v389l-75 15v20h316v-19l-70 -13v-389q0 -75 -59 -122.5t-137 -47.5zM28 0v19l75 13v516l-75 15v20h316v-19l-70 -13v-518l70 -13v-20h-316z" />
    <glyph glyph-name="ij" unicode="&#x133;" horiz-adv-x="585" 
d="M327 -198l-12 14q38 36 50 77t12 111v397h-75v22l162 46h65v-442q0 -68 -51 -129.5t-151 -95.5zM19 0v19l66 13v369h-75v22l162 46h65v-435l68 -14v-20h-286zM77 610q0 38 24 58t66 20q89 0 89 -78q0 -79 -89 -79q-41 0 -65.5 20.5t-24.5 58.5zM457 531q-41 0 -65.5 20.5
t-24.5 58.5t24 58t66 20q89 0 89 -78q0 -79 -89 -79z" />
    <glyph glyph-name="Jcircumflex" unicode="&#x134;" horiz-adv-x="442" 
d="M176 -8q-84 0 -173 33v183h22l72 -160q30 -16 50 -16q32 0 43 27t11 100v389l-75 15v20h316v-19l-70 -13v-389q0 -75 -59 -122.5t-137 -47.5zM410 616l-127 52l-126 -58l-12 16l145 126l133 -118z" />
    <glyph glyph-name="jcircumflex" unicode="&#x135;" horiz-adv-x="303" 
d="M35 -198l-12 14q38 36 50 77t12 111v397h-75v22l162 46h65v-442q0 -68 -51 -129.5t-151 -95.5zM144 671h32l109 -148l-13 -15l-120 73l-115 -74l-14 12z" />
    <glyph glyph-name="Kcommaaccent" unicode="&#x136;" horiz-adv-x="672" 
d="M21 0v19l75 13v516l-75 15v20h316v-19l-70 -13v-518l70 -13v-20h-316zM456 0l-172 254v24l201 261l-86 25v19h244v-23l-104 -20l-136 -174l234 -329l39 -19v-18h-220zM291 -51h99l-81 -156h-30z" />
    <glyph glyph-name="kcommaaccent" unicode="&#x137;" horiz-adv-x="556" 
d="M14 0v19l66 14v602h-75v22l162 46h65v-671l58 -12v-20h-276zM242 209v22l154 183l-93 28v17h232v-18l-92 -28l-98 -112l164 -247l47 -34v-20h-187zM235 -51h99l-81 -156h-30z" />
    <glyph glyph-name="Lacute" unicode="&#x139;" horiz-adv-x="543" 
d="M21 0v19l75 13v516l-75 15v20h316v-19l-70 -13v-514h141l110 147l23 -7l-30 -177h-490zM299 746l38 -84l-209 -42l-7 16z" />
    <glyph glyph-name="lacute" unicode="&#x13a;" horiz-adv-x="307" 
d="M14 0v19l66 13v603h-75v22l162 46h65v-669l68 -14v-20h-286zM223 840l38 -84l-209 -42l-7 16z" />
    <glyph glyph-name="Lcommaaccent" unicode="&#x13b;" horiz-adv-x="543" 
d="M21 0v19l75 13v516l-75 15v20h316v-19l-70 -13v-514h141l110 147l23 -7l-30 -177h-490zM235 -51h99l-81 -156h-30z" />
    <glyph glyph-name="lcommaaccent" unicode="&#x13c;" horiz-adv-x="307" 
d="M14 0v19l66 13v603h-75v22l162 46h65v-669l68 -14v-20h-286zM120 -51h99l-81 -156h-30z" />
    <glyph glyph-name="Lcaron" unicode="&#x13d;" horiz-adv-x="543" 
d="M21 0v19l75 13v516l-75 15v20h316v-19l-70 -13v-514h141l110 147l23 -7l-30 -177h-490zM415 442h-19v174h92z" />
    <glyph glyph-name="lcaron" unicode="&#x13e;" horiz-adv-x="326" 
d="M14 0v19l66 13v603h-75v22l162 46h65v-669l68 -14v-20h-286zM297 529h-19v174h92z" />
    <glyph glyph-name="Ldot" unicode="&#x13f;" horiz-adv-x="543" 
d="M21 0v19l75 13v516l-75 15v20h316v-19l-70 -13v-514h141l110 147l23 -7l-30 -177h-490zM363 314q0 31 19.5 51.5t50.5 20.5q30 0 51 -20.5t21 -51.5q0 -29 -21 -49.5t-51 -20.5t-50 20t-20 50z" />
    <glyph glyph-name="ldot" unicode="&#x140;" horiz-adv-x="338" 
d="M14 0v19l66 13v603h-75v22l162 46h65v-669l68 -14v-20h-286zM264 310q0 31 19.5 51.5t50.5 20.5q30 0 51 -20.5t21 -51.5q0 -29 -21 -49.5t-51 -20.5t-50 20t-20 50z" />
    <glyph glyph-name="Lslash" unicode="&#x141;" horiz-adv-x="543" 
d="M21 0v19l75 13v183l-73 -34v35l73 38v294l-75 15v20h316v-19l-70 -13v-208l87 46v-51l-87 -42v-259h141l110 147l23 -7l-30 -177h-490z" />
    <glyph glyph-name="lslash" unicode="&#x142;" horiz-adv-x="307" 
d="M14 0v19l66 13v249l-70 -43v36l70 47v314h-75v22l162 46h65v-278l66 45v-54l-66 -41v-341l68 -14v-20h-286z" />
    <glyph glyph-name="Nacute" unicode="&#x143;" horiz-adv-x="685" 
d="M14 0v19l87 27v484l-87 33v20h207l321 -331v279l-124 32v20h254v-19l-87 -27v-545h-57l-384 436v-376l135 -32v-20h-265zM484 746l38 -84l-209 -42l-7 16z" />
    <glyph glyph-name="nacute" unicode="&#x144;" horiz-adv-x="610" 
d="M18 0v19l67 13v369h-75v22l162 46h40l22 -68q83 68 173 68q62 0 100.5 -42t38.5 -130v-265l59 -12v-20h-276v19l64 13v237q0 116 -98 116q-26 0 -58 -8v-344l57 -13v-20h-276zM413 682l62 -72l-190 -96l-10 11z" />
    <glyph glyph-name="Ncommaaccent" unicode="&#x145;" horiz-adv-x="685" 
d="M14 0v19l87 27v484l-87 33v20h207l321 -331v279l-124 32v20h254v-19l-87 -27v-545h-57l-384 436v-376l135 -32v-20h-265zM302 -51h99l-81 -156h-30z" />
    <glyph glyph-name="ncommaaccent" unicode="&#x146;" horiz-adv-x="610" 
d="M18 0v19l67 13v369h-75v22l162 46h40l22 -68q83 68 173 68q62 0 100.5 -42t38.5 -130v-265l59 -12v-20h-276v19l64 13v237q0 116 -98 116q-26 0 -58 -8v-344l57 -13v-20h-276zM255 -51h99l-81 -156h-30z" />
    <glyph glyph-name="Ncaron" unicode="&#x147;" horiz-adv-x="685" 
d="M14 0v19l87 27v484l-87 33v20h207l321 -331v279l-124 32v20h254v-19l-87 -27v-545h-57l-384 436v-376l135 -32v-20h-265zM375 613h-32l-112 102l10 17l125 -48l123 45l10 -15z" />
    <glyph glyph-name="ncaron" unicode="&#x148;" horiz-adv-x="610" 
d="M18 0v19l67 13v369h-75v22l162 46h40l22 -68q83 68 173 68q62 0 100.5 -42t38.5 -130v-265l59 -12v-20h-276v19l64 13v237q0 116 -98 116q-26 0 -58 -8v-344l57 -13v-20h-276zM331 519h-32l-125 149l13 15l135 -82l128 86l12 -13z" />
    <glyph glyph-name="napostrophe" unicode="&#x149;" horiz-adv-x="610" 
d="M18 0v19l67 13v369h-75v22l162 46h40l22 -68q83 68 173 68q62 0 100.5 -42t38.5 -130v-265l59 -12v-20h-276v19l64 13v237q0 116 -98 116q-26 0 -58 -8v-344l57 -13v-20h-276zM208 669q0 -41 -38 -93.5t-93 -86.5l-9 10q55 70 55 110q0 56 -56 63q0 25 22.5 45t50.5 20
q31 0 49.5 -19.5t18.5 -48.5z" />
    <glyph glyph-name="Eng" unicode="&#x14a;" horiz-adv-x="685" 
d="M14 0v19l87 27v484l-87 33v20h207l321 -331v279l-124 32v20h254v-19l-87 -27v-512v-14v-19h-2q-10 -130 -137 -206l-25 24q60 45 86 85.5t32 96.5h-11l-384 436v-376l135 -32v-20h-265z" />
    <glyph glyph-name="eng" unicode="&#x14b;" horiz-adv-x="610" 
d="M18 0v19l67 13v369h-75v22l162 46h40l22 -68q83 68 173 68q62 0 100.5 -42t38.5 -130v-290q0 -62 -56 -123.5t-132 -88.5l-17 12q33 32 42.5 73.5t9.5 126.5v262q0 116 -98 116q-26 0 -58 -8v-344l57 -13v-20h-276z" />
    <glyph glyph-name="Omacron" unicode="&#x14c;" horiz-adv-x="686" 
d="M655 314q0 -140 -87 -231t-232 -91q-138 0 -221.5 75t-83.5 208q0 144 89 230t232 86q141 0 222 -71.5t81 -205.5zM464 295q0 138 -27 198.5t-92 60.5q-69 0 -96.5 -59t-27.5 -199q0 -136 27 -201t91 -65q74 0 99.5 63t25.5 202zM476 665h-245v41h245v-41z" />
    <glyph glyph-name="omacron" unicode="&#x14d;" horiz-adv-x="545" 
d="M521 225q0 -117 -72.5 -175t-180.5 -58q-55 0 -96 10t-76 34t-53.5 70.5t-18.5 113.5q0 121 74 185t178 64q245 0 245 -244zM356 213q0 54 -6.5 99t-28 81t-55.5 36q-78 0 -78 -188q0 -90 22.5 -149.5t64.5 -59.5q29 0 48 28.5t26 67t7 85.5zM400 567h-246v38h246v-38z
" />
    <glyph glyph-name="Obreve" unicode="&#x14e;" horiz-adv-x="686" 
d="M655 314q0 -140 -87 -231t-232 -91q-138 0 -221.5 75t-83.5 208q0 144 89 230t232 86q141 0 222 -71.5t81 -205.5zM464 295q0 138 -27 198.5t-92 60.5q-69 0 -96.5 -59t-27.5 -199q0 -136 27 -201t91 -65q74 0 99.5 63t25.5 202zM352 630q-39 0 -72 15.5t-46 29t-17 21.5
l41 31q5 -8 14.5 -16.5t32.5 -18t50 -9.5q36 0 62 14.5t36 27.5l13 -17q-10 -24 -40.5 -51t-73.5 -27z" />
    <glyph glyph-name="obreve" unicode="&#x14f;" horiz-adv-x="545" 
d="M521 225q0 -117 -72.5 -175t-180.5 -58q-55 0 -96 10t-76 34t-53.5 70.5t-18.5 113.5q0 121 74 185t178 64q245 0 245 -244zM356 213q0 54 -6.5 99t-28 81t-55.5 36q-78 0 -78 -188q0 -90 22.5 -149.5t64.5 -59.5q29 0 48 28.5t26 67t7 85.5zM274 537q-40 0 -75 17
t-49.5 31t-19.5 23l49 36q38 -49 97 -49q38 0 69 17t39 29l19 -8q-8 -31 -45 -63.5t-84 -32.5z" />
    <glyph glyph-name="Ohungarumlaut" unicode="&#x150;" horiz-adv-x="686" 
d="M655 314q0 -140 -87 -231t-232 -91q-138 0 -221.5 75t-83.5 208q0 144 89 230t232 86q141 0 222 -71.5t81 -205.5zM464 295q0 138 -27 198.5t-92 60.5q-69 0 -96.5 -59t-27.5 -199q0 -136 27 -201t91 -65q74 0 99.5 63t25.5 202zM204 623l-12 17l155 136l51 -66zM363 624
l-6 17l176 107l34 -87z" />
    <glyph glyph-name="ohungarumlaut" unicode="&#x151;" horiz-adv-x="545" 
d="M521 225q0 -117 -72.5 -175t-180.5 -58q-55 0 -96 10t-76 34t-53.5 70.5t-18.5 113.5q0 121 74 185t178 64q245 0 245 -244zM356 213q0 54 -6.5 99t-28 81t-55.5 36q-78 0 -78 -188q0 -90 22.5 -149.5t64.5 -59.5q29 0 48 28.5t26 67t7 85.5zM171 515l-16 10l106 177
l72 -58zM318 513l-13 15l123 149l67 -67z" />
    <glyph glyph-name="OE" unicode="&#x152;" horiz-adv-x="841" 
d="M758 278l-206 3v-244h155l100 144l23 -4l-30 -177h-385q-40 -8 -79 -8q-138 0 -221.5 75t-83.5 208q0 144 89 230t232 86q45 0 88 -8h362v-162h-23l-75 126h-152v-224l206 4v-49zM381 37v512q-18 5 -36 5q-124 0 -124 -258q0 -77 10.5 -134t38 -94.5t69.5 -37.5
q26 0 44 7h-2z" />
    <glyph glyph-name="oe" unicode="&#x153;" horiz-adv-x="849" 
d="M276 469q119 0 179 -56q73 56 170 56q103 0 160.5 -62.5t57.5 -173.5h-318q3 -80 48 -119.5t104 -39.5q65 0 133 28l10 -12q-32 -40 -93 -69t-127 -29q-102 0 -164 49q-66 -49 -168 -49q-55 0 -96 10t-76 34t-53.5 70.5t-18.5 113.5q0 121 74 185t178 64zM356 213
q0 54 -6.5 99t-28 81t-55.5 36q-78 0 -78 -188q0 -90 22.5 -149.5t64.5 -59.5q29 0 48 28.5t26 67t7 85.5zM607 431q-76 0 -82 -164l154 10q-1 61 -19 107.5t-53 46.5z" />
    <glyph glyph-name="Racute" unicode="&#x154;" horiz-adv-x="648" 
d="M21 0v19l75 13v516l-75 15v20h329q98 0 157 -43.5t59 -124.5q0 -113 -115 -148l152 -230l49 -18v-19h-217l-145 251h-23v-218l70 -13v-20h-316zM270 545h-3v-255q61 3 86 31.5t25 93.5q0 63 -25.5 95.5t-82.5 34.5zM419 746l38 -84l-209 -42l-7 16z" />
    <glyph glyph-name="racute" unicode="&#x155;" horiz-adv-x="418" 
d="M27 0v19l58 11v371h-75v22l162 46h40l20 -53q81 53 130 53q26 0 46 -5l-16 -150h-22l-133 82v-360l76 -16v-20h-286zM331 682l62 -72l-190 -96l-10 11z" />
    <glyph glyph-name="Rcommaaccent" unicode="&#x156;" horiz-adv-x="648" 
d="M21 0v19l75 13v516l-75 15v20h329q98 0 157 -43.5t59 -124.5q0 -113 -115 -148l152 -230l49 -18v-19h-217l-145 251h-23v-218l70 -13v-20h-316zM270 545h-3v-255q61 3 86 31.5t25 93.5q0 63 -25.5 95.5t-82.5 34.5zM273 -51h99l-81 -156h-30z" />
    <glyph glyph-name="rcommaaccent" unicode="&#x157;" horiz-adv-x="418" 
d="M27 0v19l58 11v371h-75v22l162 46h40l20 -53q81 53 130 53q26 0 46 -5l-16 -150h-22l-133 82v-360l76 -16v-20h-286zM105 -51h99l-81 -156h-30z" />
    <glyph glyph-name="Rcaron" unicode="&#x158;" horiz-adv-x="648" 
d="M21 0v19l75 13v516l-75 15v20h329q98 0 157 -43.5t59 -124.5q0 -113 -115 -148l152 -230l49 -18v-19h-217l-145 251h-23v-218l70 -13v-20h-316zM270 545h-3v-255q61 3 86 31.5t25 93.5q0 63 -25.5 95.5t-82.5 34.5zM319 613h-32l-112 102l10 17l125 -48l123 45l10 -15z
" />
    <glyph glyph-name="rcaron" unicode="&#x159;" horiz-adv-x="418" 
d="M27 0v19l58 11v371h-75v22l162 46h40l20 -53q81 53 130 53q26 0 46 -5l-16 -150h-22l-133 82v-360l76 -16v-20h-286zM237 519h-32l-125 149l13 15l135 -82l128 86l12 -13z" />
    <glyph glyph-name="Sacute" unicode="&#x15a;" horiz-adv-x="499" 
d="M429 397l-62 134q-48 23 -95 23q-48 0 -79 -26t-31 -62q0 -62 134 -105q32 -10 52.5 -18t48 -23.5t43 -34t27 -47t11.5 -64.5q0 -94 -69 -138t-188 -44q-92 0 -194 40v169h26l60 -142q59 -30 115 -30q44 0 75.5 25.5t31.5 63.5q0 9 -3 17.5t-9.5 16t-13 14t-18.5 13
t-21 11.5t-24.5 11.5t-25 10t-27 10.5t-26.5 10q-63 24 -99.5 63t-36.5 109q0 90 65.5 138.5t169.5 48.5q114 0 188 -38v-156h-25zM368 746l38 -84l-209 -42l-7 16z" />
    <glyph glyph-name="sacute" unicode="&#x15b;" horiz-adv-x="451" 
d="M210 -9q-76 0 -185 21v137h43l67 -107q31 -13 67 -13q87 0 87 68q0 23 -27 39.5t-66 29.5t-78 30t-66 52t-27 85q0 45 34 77t81.5 45.5t101.5 13.5q107 0 180 -32v-113h-44l-60 96q-25 9 -60 9t-60 -17t-25 -42q0 -26 27 -43t65.5 -28.5t77.5 -27t66 -49.5t27 -86
q0 -63 -64 -104t-162 -41zM315 682l62 -72l-190 -96l-10 11z" />
    <glyph glyph-name="Scircumflex" unicode="&#x15c;" horiz-adv-x="499" 
d="M429 397l-62 134q-48 23 -95 23q-48 0 -79 -26t-31 -62q0 -62 134 -105q32 -10 52.5 -18t48 -23.5t43 -34t27 -47t11.5 -64.5q0 -94 -69 -138t-188 -44q-92 0 -194 40v169h26l60 -142q59 -30 115 -30q44 0 75.5 25.5t31.5 63.5q0 9 -3 17.5t-9.5 16t-13 14t-18.5 13
t-21 11.5t-24.5 11.5t-25 10t-27 10.5t-26.5 10q-63 24 -99.5 63t-36.5 109q0 90 65.5 138.5t169.5 48.5q114 0 188 -38v-156h-25zM399 616l-127 52l-126 -58l-12 16l145 126l133 -118z" />
    <glyph glyph-name="scircumflex" unicode="&#x15d;" horiz-adv-x="451" 
d="M210 -9q-76 0 -185 21v137h43l67 -107q31 -13 67 -13q87 0 87 68q0 23 -27 39.5t-66 29.5t-78 30t-66 52t-27 85q0 45 34 77t81.5 45.5t101.5 13.5q107 0 180 -32v-113h-44l-60 96q-25 9 -60 9t-60 -17t-25 -42q0 -26 27 -43t65.5 -28.5t77.5 -27t66 -49.5t27 -86
q0 -63 -64 -104t-162 -41zM229 671h32l109 -148l-13 -15l-120 73l-115 -74l-14 12z" />
    <glyph glyph-name="Scedilla" unicode="&#x15e;" horiz-adv-x="499" 
d="M429 397l-62 134q-48 23 -95 23q-48 0 -79 -26t-31 -62q0 -62 134 -105q32 -10 52.5 -18t48 -23.5t43 -34t27 -47t11.5 -64.5q0 -86 -59 -130.5t-162 -50.5l-8 -15q85 -21 85 -95q0 -41 -35 -70.5t-91 -29.5q-47 0 -78 22l16 35q34 -22 70 -22q23 0 37 16t14 40
q0 53 -81 65l29 53q-92 1 -188 40v169h26l60 -142q59 -30 115 -30q44 0 75.5 25.5t31.5 63.5q0 9 -3 17.5t-9.5 16t-13 14t-18.5 13t-21 11.5t-24.5 11.5t-25 10t-27 10.5t-26.5 10q-63 24 -99.5 63t-36.5 109q0 90 65.5 138.5t169.5 48.5q114 0 188 -38v-156h-25z" />
    <glyph glyph-name="scedilla" unicode="&#x15f;" horiz-adv-x="451" 
d="M185 -215q-47 0 -78 22l16 35q34 -22 70 -22q23 0 37 16t14 40q0 53 -81 65l28 51q-84 4 -166 20v137h43l67 -107q31 -13 67 -13q87 0 87 68q0 23 -27 39.5t-66 29.5t-78 30t-66 52t-27 85q0 45 34 77t81.5 45.5t101.5 13.5q107 0 180 -32v-113h-44l-60 96q-25 9 -60 9
t-60 -17t-25 -42q0 -26 27 -43t65.5 -28.5t77.5 -27t66 -49.5t27 -86q0 -59 -57 -99t-147 -45l-6 -12q85 -21 85 -95q0 -41 -35 -70.5t-91 -29.5z" />
    <glyph glyph-name="Scaron" unicode="&#x160;" horiz-adv-x="499" 
d="M429 397l-62 134q-48 23 -95 23q-48 0 -79 -26t-31 -62q0 -62 134 -105q32 -10 52.5 -18t48 -23.5t43 -34t27 -47t11.5 -64.5q0 -94 -69 -138t-188 -44q-92 0 -194 40v169h26l60 -142q59 -30 115 -30q44 0 75.5 25.5t31.5 63.5q0 9 -3 17.5t-9.5 16t-13 14t-18.5 13
t-21 11.5t-24.5 11.5t-25 10t-27 10.5t-26.5 10q-63 24 -99.5 63t-36.5 109q0 90 65.5 138.5t169.5 48.5q114 0 188 -38v-156h-25zM274 613h-32l-112 102l10 17l125 -48l123 45l10 -15z" />
    <glyph glyph-name="scaron" unicode="&#x161;" horiz-adv-x="451" 
d="M210 -9q-76 0 -185 21v137h43l67 -107q31 -13 67 -13q87 0 87 68q0 23 -27 39.5t-66 29.5t-78 30t-66 52t-27 85q0 45 34 77t81.5 45.5t101.5 13.5q107 0 180 -32v-113h-44l-60 96q-25 9 -60 9t-60 -17t-25 -42q0 -26 27 -43t65.5 -28.5t77.5 -27t66 -49.5t27 -86
q0 -63 -64 -104t-162 -41zM255 519h-32l-125 149l13 15l135 -82l128 86l12 -13z" />
    <glyph glyph-name="Tcommaaccent" unicode="&#x162;" horiz-adv-x="561" 
d="M121 0v19l75 13v515h-73l-99 -176h-23v212h559v-212h-22l-99 176h-72v-514l70 -13v-20h-316zM233 -51h99l-81 -156h-30z" />
    <glyph glyph-name="tcommaaccent" unicode="&#x163;" horiz-adv-x="401" 
d="M382 61l7 -32q-74 -37 -154 -37q-76 0 -120 34.5t-44 125.5v243h-66v25l70 24l48 123h101v-123h150v-49h-150v-228q1 -54 20.5 -84.5t72.5 -30.5q27 0 65 9zM170 -51h99l-81 -156h-30z" />
    <glyph glyph-name="Tcaron" unicode="&#x164;" horiz-adv-x="561" 
d="M121 0v19l75 13v515h-73l-99 -176h-23v212h559v-212h-22l-99 176h-72v-514l70 -13v-20h-316zM293 613h-32l-112 102l10 17l125 -48l123 45l10 -15z" />
    <glyph glyph-name="tcaron" unicode="&#x165;" horiz-adv-x="401" 
d="M382 61l7 -32q-74 -37 -154 -37q-76 0 -120 34.5t-44 125.5v243h-66v25l70 24l48 123h101v-123h150v-49h-150v-228q1 -54 20.5 -84.5t72.5 -30.5q27 0 65 9zM314 514h-19v174h92z" />
    <glyph glyph-name="Tbar" unicode="&#x166;" horiz-adv-x="561" 
d="M1 371v212h559v-212h-22l-99 176h-72v-235h99v-37h-99v-242l70 -13v-20h-316v19l75 13v243h-102v37h102v235h-73l-99 -176h-23z" />
    <glyph glyph-name="tbar" unicode="&#x167;" horiz-adv-x="401" 
d="M382 61l7 -32q-74 -37 -154 -37q-76 0 -120 34.5t-44 125.5v105h-49v39h49v99h-66v25l70 24l48 123h101v-123h150v-49h-150v-99h134v-39h-134v-90q1 -54 20.5 -84.5t72.5 -30.5q27 0 65 9z" />
    <glyph glyph-name="Utilde" unicode="&#x168;" horiz-adv-x="658" 
d="M334 -8q-262 0 -262 205v352l-68 14v20h310v-19l-58 -11v-347q0 -84 34 -127.5t97 -43.5q66 0 103 51t37 141v305l-124 31v20h245v-19l-78 -29v-311q0 -122 -64.5 -177t-171.5 -55zM400 638q-30 0 -62 10t-53 10q-22 0 -52 -32l-19 18q38 71 88 71q22 0 62 -11t48 -11
q15 0 29.5 7t20.5 14l7 7l19 -18q-10 -22 -35.5 -43.5t-52.5 -21.5z" />
    <glyph glyph-name="utilde" unicode="&#x169;" horiz-adv-x="597" 
d="M402 0l-22 62q-79 -69 -166 -69q-62 0 -100.5 42t-38.5 130v236h-75v22l162 46h66v-276q0 -116 98 -116q26 0 51 7v317h-75v22l162 46h65v-418l58 -29v-22h-185zM366 551q-30 0 -62 10t-53 10q-22 0 -52 -32l-19 18q38 71 88 71q22 0 62 -11t48 -11q15 0 29.5 7t20.5 14
l7 7l19 -18q-10 -22 -35.5 -43.5t-52.5 -21.5z" />
    <glyph glyph-name="Umacron" unicode="&#x16a;" horiz-adv-x="658" 
d="M334 -8q-262 0 -262 205v352l-68 14v20h310v-19l-58 -11v-347q0 -84 34 -127.5t97 -43.5q66 0 103 51t37 141v305l-124 31v20h245v-19l-78 -29v-311q0 -122 -64.5 -177t-171.5 -55zM481 665h-245v41h245v-41z" />
    <glyph glyph-name="umacron" unicode="&#x16b;" horiz-adv-x="597" 
d="M402 0l-22 62q-79 -69 -166 -69q-62 0 -100.5 42t-38.5 130v236h-75v22l162 46h66v-276q0 -116 98 -116q26 0 51 7v317h-75v22l162 46h65v-418l58 -29v-22h-185zM438 567h-246v38h246v-38z" />
    <glyph glyph-name="Ubreve" unicode="&#x16c;" horiz-adv-x="658" 
d="M334 -8q-262 0 -262 205v352l-68 14v20h310v-19l-58 -11v-347q0 -84 34 -127.5t97 -43.5q66 0 103 51t37 141v305l-124 31v20h245v-19l-78 -29v-311q0 -122 -64.5 -177t-171.5 -55zM360 631q-39 0 -72 15.5t-46 29t-17 21.5l41 31q5 -8 14.5 -16.5t32.5 -18t50 -9.5
q36 0 62 14.5t36 27.5l13 -17q-10 -24 -40.5 -51t-73.5 -27z" />
    <glyph glyph-name="ubreve" unicode="&#x16d;" horiz-adv-x="597" 
d="M402 0l-22 62q-79 -69 -166 -69q-62 0 -100.5 42t-38.5 130v236h-75v22l162 46h66v-276q0 -116 98 -116q26 0 51 7v317h-75v22l162 46h65v-418l58 -29v-22h-185zM317 537q-40 0 -75 17t-49.5 31t-19.5 23l49 36q38 -49 97 -49q38 0 69 17t39 29l19 -8q-8 -31 -45 -63.5
t-84 -32.5z" />
    <glyph glyph-name="Uring" unicode="&#x16e;" horiz-adv-x="658" 
d="M334 -8q-262 0 -262 205v352l-68 14v20h310v-19l-58 -11v-347q0 -84 34 -127.5t97 -43.5q66 0 103 51t37 141v305l-124 31v20h245v-19l-78 -29v-311q0 -122 -64.5 -177t-171.5 -55zM360 631q-26 0 -48 18t-22 53q0 29 19 49t51 20q29 0 50 -19t21 -50t-19 -51t-52 -20z
M360 653q49 0 49 49q0 21 -13.5 34t-35.5 13q-24 0 -36 -14t-12 -33q0 -24 14 -36.5t34 -12.5z" />
    <glyph glyph-name="uring" unicode="&#x16f;" horiz-adv-x="597" 
d="M402 0l-22 62q-79 -69 -166 -69q-62 0 -100.5 42t-38.5 130v236h-75v22l162 46h66v-276q0 -116 98 -116q26 0 51 7v317h-75v22l162 46h65v-418l58 -29v-22h-185zM314 527q-26 0 -48 18t-22 53q0 29 19 49t51 20q29 0 50 -19t21 -50t-19 -51t-52 -20zM314 549q49 0 49 49
q0 21 -13.5 34t-35.5 13q-24 0 -36 -14t-12 -33q0 -24 14 -36.5t34 -12.5z" />
    <glyph glyph-name="Uhungarumlaut" unicode="&#x170;" horiz-adv-x="658" 
d="M334 -8q-262 0 -262 205v352l-68 14v20h310v-19l-58 -11v-347q0 -84 34 -127.5t97 -43.5q66 0 103 51t37 141v305l-124 31v20h245v-19l-78 -29v-311q0 -122 -64.5 -177t-171.5 -55zM369 624l-6 17l176 107l34 -87zM210 623l-12 17l155 136l51 -66z" />
    <glyph glyph-name="uhungarumlaut" unicode="&#x171;" horiz-adv-x="597" 
d="M402 0l-22 62q-79 -69 -166 -69q-62 0 -100.5 42t-38.5 130v236h-75v22l162 46h66v-276q0 -116 98 -116q26 0 51 7v317h-75v22l162 46h65v-418l58 -29v-22h-185zM179 515l-16 10l106 177l72 -58zM326 513l-13 15l123 149l67 -67z" />
    <glyph glyph-name="Uogonek" unicode="&#x172;" horiz-adv-x="658" 
d="M334 -8q-262 0 -262 205v352l-68 14v20h310v-19l-58 -11v-347q0 -84 34 -127.5t97 -43.5q66 0 103 51t37 141v305l-124 31v20h245v-19l-78 -29v-311q0 -177 -142 -220q-44 -18 -71 -50t-27 -67q0 -67 68 -67q26 0 46 10l11 -29q-30 -17 -82 -17q-42 0 -73 25t-31 70
q0 67 75 113h-10z" />
    <glyph glyph-name="uogonek" unicode="&#x173;" horiz-adv-x="597" 
d="M326 77q26 0 51 7v317h-75v22l162 46h65v-418l58 -29v-22h-127q-40 -19 -64 -49.5t-24 -63.5q0 -67 68 -67q26 0 46 10l11 -29q-30 -17 -82 -17q-42 0 -73 25t-31 70q0 75 91 121l-22 62q-79 -69 -166 -69q-62 0 -100.5 42t-38.5 130v236h-75v22l162 46h66v-276
q0 -116 98 -116z" />
    <glyph glyph-name="Wcircumflex" unicode="&#x174;" horiz-adv-x="874" 
d="M191 0l-150 554l-48 9v20h294v-19l-77 -12l84 -372h7l136 403h95l124 -398h7l110 349l-104 29v20h212v-19l-62 -25l-169 -539h-95l-124 410h-6l-142 -410h-92zM609 616l-127 52l-126 -58l-12 16l145 126l133 -118z" />
    <glyph glyph-name="wcircumflex" unicode="&#x175;" horiz-adv-x="798" 
d="M187 0l-156 430l-41 9v20h286v-19l-76 -15l84 -299h6l117 333h69l119 -333h5l94 285l-72 28v20h186v-19l-72 -29l-139 -411h-98l-108 299h-5l-101 -299h-98zM435 671h32l109 -148l-13 -15l-120 73l-115 -74l-14 12z" />
    <glyph glyph-name="Ycircumflex" unicode="&#x176;" horiz-adv-x="568" 
d="M126 0v19l75 13v214l-168 309l-40 8v20h284v-19l-66 -11l134 -252l113 242l-105 20v20h222v-19l-67 -14l-136 -283v-234l70 -13v-20h-316zM437 616l-127 52l-126 -58l-12 16l145 126l133 -118z" />
    <glyph glyph-name="ycircumflex" unicode="&#x177;" horiz-adv-x="533" 
d="M302 19l-92 -226h-108v17l129 167l-198 453l-43 9v20h286v-19l-73 -15l107 -304l116 284l-86 34v20h203v-19l-67 -26zM289 671h32l109 -148l-13 -15l-120 73l-115 -74l-14 12z" />
    <glyph glyph-name="Ydieresis" unicode="&#x178;" horiz-adv-x="568" 
d="M126 0v19l75 13v214l-168 309l-40 8v20h284v-19l-66 -11l134 -252l113 242l-105 20v20h222v-19l-67 -14l-136 -283v-234l70 -13v-20h-316zM179 678q0 23 14.5 38t36.5 15q23 0 38 -15t15 -38q0 -22 -15 -36.5t-38 -14.5q-22 0 -36.5 14.5t-14.5 36.5zM356 678q0 23 15 38
t38 15q22 0 36.5 -15t14.5 -38q0 -22 -14.5 -36.5t-36.5 -14.5q-23 0 -38 14.5t-15 36.5z" />
    <glyph glyph-name="Zacute" unicode="&#x179;" horiz-adv-x="534" 
d="M22 0l-12 36l309 511h-189l-76 -155h-20v191h461l10 -34l-323 -512h227l85 147l24 -5l-21 -179h-475zM397 746l38 -84l-209 -42l-7 16z" />
    <glyph glyph-name="zacute" unicode="&#x17a;" horiz-adv-x="483" 
d="M467 185l-19 -185h-420l-13 45l256 374h-135l-91 -124l-20 3l13 161h393l18 -54l-248 -365h150l99 148zM319 682l62 -72l-190 -96l-10 11z" />
    <glyph glyph-name="Zdotaccent" unicode="&#x17b;" horiz-adv-x="534" 
d="M22 0l-12 36l309 511h-189l-76 -155h-20v191h461l10 -34l-323 -512h227l85 147l24 -5l-21 -179h-475zM206 690q0 31 19.5 51.5t50.5 20.5q30 0 51 -20.5t21 -51.5q0 -29 -21 -49.5t-51 -20.5t-50 20t-20 50z" />
    <glyph glyph-name="zdotaccent" unicode="&#x17c;" horiz-adv-x="483" 
d="M467 185l-19 -185h-420l-13 45l256 374h-135l-91 -124l-20 3l13 161h393l18 -54l-248 -365h150l99 148zM191 604q0 31 19.5 51.5t50.5 20.5q30 0 51 -20.5t21 -51.5q0 -29 -21 -49.5t-51 -20.5t-50 20t-20 50z" />
    <glyph glyph-name="Zcaron" unicode="&#x17d;" horiz-adv-x="534" 
d="M22 0l-12 36l309 511h-189l-76 -155h-20v191h461l10 -34l-323 -512h227l85 147l24 -5l-21 -179h-475zM286 613h-32l-112 102l10 17l125 -48l123 45l10 -15z" />
    <glyph glyph-name="zcaron" unicode="&#x17e;" horiz-adv-x="483" 
d="M467 185l-19 -185h-420l-13 45l256 374h-135l-91 -124l-20 3l13 161h393l18 -54l-248 -365h150l99 148zM274 519h-32l-125 149l13 15l135 -82l128 86l12 -13z" />
    <glyph glyph-name="uni018F" unicode="&#x18f;" horiz-adv-x="626" 
d="M286 -8q-133 0 -199 73t-66 210v22h393q-1 238 -164 238q-68 0 -177 -42l-17 25q121 73 246 73q141 0 222 -71.5t81 -205.5q0 -140 -87 -231t-232 -91zM308 30q58 0 81 56.5t25 180.5h-203q1 -53 5.5 -93t15 -74t29.5 -52t47 -18z" />
    <glyph glyph-name="florin" unicode="&#x192;" horiz-adv-x="446" 
d="M29 273v40h99l7 72q11 106 73 161t159 55q41 0 90 -11l-20 -121l-95 79q-11 -15 -23.5 -68.5t-17.5 -101.5l-6 -65h110v-40h-114l-17 -182q-5 -54 -27.5 -102.5t-67 -83.5t-101.5 -35q-26 0 -41 1t-42 9t-55 24l20 58q60 -41 113 -41q25 87 34 176l17 176h-95z" />
    <glyph glyph-name="Ohorn" unicode="&#x1a0;" horiz-adv-x="686" 
d="M655 314q0 -140 -87 -231t-232 -91q-138 0 -221.5 75t-83.5 208q0 144 89 230t232 86q109 0 185 -45q10 10 10 27q0 25 -29 76l102 17q12 -28 12 -64q0 -46 -66 -76q89 -73 89 -212zM464 295q0 138 -27 198.5t-92 60.5q-69 0 -96.5 -59t-27.5 -199q0 -136 27 -201t91 -65
q74 0 99.5 63t25.5 202z" />
    <glyph glyph-name="ohorn" unicode="&#x1a1;" horiz-adv-x="545" 
d="M521 225q0 -117 -72.5 -175t-180.5 -58q-55 0 -96 10t-76 34t-53.5 70.5t-18.5 113.5q0 121 74 185t178 64q82 0 139 -28q25 29 -29 101l102 17q12 -29 12 -64q0 -43 -58 -71q79 -60 79 -199zM356 213q0 54 -6.5 99t-28 81t-55.5 36q-78 0 -78 -188q0 -90 22.5 -149.5
t64.5 -59.5q29 0 48 28.5t26 67t7 85.5z" />
    <glyph glyph-name="Uhorn" unicode="&#x1af;" horiz-adv-x="658" 
d="M334 -9q-262 0 -262 205v353l-68 14v20h310v-19l-58 -11v-348q0 -84 34 -127.5t97 -43.5q66 0 103 51t37 141v306l-124 31v20h195q22 32 -46 100l91 13q12 -29 12 -64q0 -34 -17 -57t-68 -41v-311q0 -122 -64.5 -177t-171.5 -55z" />
    <glyph glyph-name="uhorn" unicode="&#x1b0;" horiz-adv-x="597" 
d="M402 0l-22 62q-79 -69 -166 -69q-62 0 -100.5 42t-38.5 130v236h-75v22l162 46h66v-276q0 -116 98 -116q26 0 51 7v317h-75v22l171 40q61 14 61 45q0 25 -35 55l80 18q15 -40 15 -71q0 -23 -16 -40t-49 -36v-383l58 -29v-22h-185z" />
    <glyph glyph-name="uni01C4" unicode="&#x1c4;" horiz-adv-x="1236" 
d="M21 0v19l75 13v516l-75 15v20h294q61 0 110 -6.5t96.5 -25t79 -49t51 -80t19.5 -116.5q0 -146 -99 -226t-252 -80h-299zM724 0l-12 36l309 511h-189l-76 -155h-20v191h461l10 -34l-323 -512h227l85 147l24 -5l-21 -179h-475zM298 548h-31v-510h25q104 0 146.5 54
t42.5 199q0 140 -39.5 198.5t-143.5 58.5zM988 613h-32l-112 102l10 17l125 -48l123 45l10 -15z" />
    <glyph glyph-name="uni01C5" unicode="&#x1c5;" horiz-adv-x="1185" 
d="M21 0v19l75 13v516l-75 15v20h294q61 0 110 -6.5t96.5 -25t79 -49t51 -80t19.5 -116.5q0 -146 -99 -226t-252 -80h-299zM1169 185l-19 -185h-420l-13 45l256 374h-135l-91 -124l-20 3l13 161h393l18 -54l-248 -365h150l99 148zM298 548h-31v-510h25q104 0 146.5 54
t42.5 199q0 140 -39.5 198.5t-143.5 58.5zM976 519h-32l-125 149l13 15l135 -82l128 86l12 -13z" />
    <glyph glyph-name="uni01C6" unicode="&#x1c6;" horiz-adv-x="1053" 
d="M378 0l-18 55q-56 -63 -146 -63q-87 0 -138.5 61.5t-51.5 163.5q0 111 75 181.5t178 70.5q40 0 76 -15v181h-75v22l162 46h65v-652l58 -29v-22h-185zM1037 185l-19 -185h-420l-13 45l256 374h-135l-91 -124l-20 3l13 161h393l18 -54l-248 -365h150l99 148zM353 82v342
q-25 5 -47 5q-47 0 -83 -50t-36 -132q0 -72 35.5 -124t85.5 -52q21 0 45 11zM844 519h-32l-125 149l13 15l135 -82l128 86l12 -13z" />
    <glyph glyph-name="uni01C7" unicode="&#x1c7;" horiz-adv-x="985" 
d="M21 0v19l75 13v516l-75 15v20h316v-19l-70 -13v-514h141l110 147l23 -7l-30 -177h-490zM719 -8q-84 0 -173 33v183h22l72 -160q30 -16 50 -16q32 0 43 27t11 100v389l-75 15v20h316v-19l-70 -13v-389q0 -75 -59 -122.5t-137 -47.5z" />
    <glyph glyph-name="uni01C8" unicode="&#x1c8;" horiz-adv-x="836" 
d="M21 0v19l75 13v516l-75 15v20h316v-19l-70 -13v-514h141l110 147l23 -7l-30 -177h-490zM578 -198l-12 14q38 36 50 77t12 111v397h-75v22l162 46h65v-442q0 -68 -51 -129.5t-151 -95.5zM708 531q-41 0 -65.5 20.5t-24.5 58.5t24 58t66 20q89 0 89 -78q0 -79 -89 -79z" />
    <glyph glyph-name="uni01C9" unicode="&#x1c9;" horiz-adv-x="600" 
d="M14 0v19l66 13v603h-75v22l162 46h65v-669l68 -14v-20h-286zM342 -198l-12 14q38 36 50 77t12 111v397h-75v22l162 46h65v-442q0 -68 -51 -129.5t-151 -95.5zM472 531q-41 0 -65.5 20.5t-24.5 58.5t24 58t66 20q89 0 89 -78q0 -79 -89 -79z" />
    <glyph glyph-name="uni01CA" unicode="&#x1ca;" horiz-adv-x="1127" 
d="M14 0v19l87 27v484l-87 33v20h207l321 -331v279l-124 32v20h254v-19l-87 -27v-545h-57l-384 436v-376l135 -32v-20h-265zM861 -8q-84 0 -173 33v183h22l72 -160q30 -16 50 -16q32 0 43 27t11 100v389l-75 15v20h316v-19l-70 -13v-389q0 -75 -59 -122.5t-137 -47.5z" />
    <glyph glyph-name="uni01CB" unicode="&#x1cb;" horiz-adv-x="978" 
d="M14 0v19l87 27v484l-87 33v20h207l321 -331v279l-124 32v20h254v-19l-87 -27v-545h-57l-384 436v-376l135 -32v-20h-265zM720 -198l-12 14q38 36 50 77t12 111v397h-75v22l162 46h65v-442q0 -68 -51 -129.5t-151 -95.5zM850 531q-41 0 -65.5 20.5t-24.5 58.5t24 58t66 20
q89 0 89 -78q0 -79 -89 -79z" />
    <glyph glyph-name="uni01CC" unicode="&#x1cc;" horiz-adv-x="903" 
d="M18 0v19l67 13v369h-75v22l162 46h40l22 -68q83 68 173 68q62 0 100.5 -42t38.5 -130v-265l59 -12v-20h-276v19l64 13v237q0 116 -98 116q-26 0 -58 -8v-344l57 -13v-20h-276zM645 -198l-12 14q38 36 50 77t12 111v397h-75v22l162 46h65v-442q0 -68 -51 -129.5
t-151 -95.5zM775 531q-41 0 -65.5 20.5t-24.5 58.5t24 58t66 20q89 0 89 -78q0 -79 -89 -79z" />
    <glyph glyph-name="uni01CD" unicode="&#x1cd;" horiz-adv-x="625" 
d="M355 0v19l59 10l-56 141h-199l-51 -124l113 -26v-20h-225v19l63 24l231 540h87l216 -557l36 -6v-20h-274zM257 409l-83 -203h170l-81 203h-6zM350 613h-32l-112 102l10 17l125 -48l123 45l10 -15z" />
    <glyph glyph-name="uni01CE" unicode="&#x1ce;" horiz-adv-x="499" 
d="M96 309h-55v121h1q35 16 101.5 27.5t109.5 11.5q87 0 135 -40t48 -114v-264l58 -29v-22h-185l-23 67q-72 -75 -149 -75q-54 0 -90.5 30t-36.5 86q0 67 65 102t168 35h41v90q0 46 -22 71.5t-60 25.5q-14 0 -36 -8zM263 523h-32l-125 149l13 15l135 -82l128 86l12 -13z
M284 86v127h-28q-85 0 -85 -72q0 -31 21.5 -46t52.5 -15q21 0 39 6z" />
    <glyph glyph-name="uni01CF" unicode="&#x1cf;" horiz-adv-x="372" 
d="M28 0v19l75 13v516l-75 15v20h316v-19l-70 -13v-518l70 -13v-20h-316zM205 613h-32l-112 102l10 17l125 -48l123 45l10 -15z" />
    <glyph glyph-name="uni01D0" unicode="&#x1d0;" horiz-adv-x="312" 
d="M237 34l68 -14v-20h-286v19l66 13v369h-75v22l162 46h65v-435zM179 519h-32l-125 149l13 15l135 -82l128 86l12 -13z" />
    <glyph glyph-name="uni01D1" unicode="&#x1d1;" horiz-adv-x="686" 
d="M655 314q0 -140 -87 -231t-232 -91q-138 0 -221.5 75t-83.5 208q0 144 89 230t232 86q141 0 222 -71.5t81 -205.5zM464 295q0 138 -27 198.5t-92 60.5q-69 0 -96.5 -59t-27.5 -199q0 -136 27 -201t91 -65q74 0 99.5 63t25.5 202zM359 613h-32l-112 102l10 17l125 -48
l123 45l10 -15z" />
    <glyph glyph-name="uni01D2" unicode="&#x1d2;" horiz-adv-x="545" 
d="M521 225q0 -117 -72.5 -175t-180.5 -58q-55 0 -96 10t-76 34t-53.5 70.5t-18.5 113.5q0 121 74 185t178 64q245 0 245 -244zM356 213q0 54 -6.5 99t-28 81t-55.5 36q-78 0 -78 -188q0 -90 22.5 -149.5t64.5 -59.5q29 0 48 28.5t26 67t7 85.5zM287 519h-32l-125 149l13 15
l135 -82l128 86l12 -13z" />
    <glyph glyph-name="uni01D3" unicode="&#x1d3;" horiz-adv-x="658" 
d="M334 -8q-262 0 -262 205v352l-68 14v20h310v-19l-58 -11v-347q0 -84 34 -127.5t97 -43.5q66 0 103 51t37 141v305l-124 31v20h245v-19l-78 -29v-311q0 -122 -64.5 -177t-171.5 -55zM373 614h-32l-112 102l10 17l125 -48l123 45l10 -15z" />
    <glyph glyph-name="uni01D4" unicode="&#x1d4;" horiz-adv-x="597" 
d="M402 0l-22 62q-79 -69 -166 -69q-62 0 -100.5 42t-38.5 130v236h-75v22l162 46h66v-276q0 -116 98 -116q26 0 51 7v317h-75v22l162 46h65v-418l58 -29v-22h-185zM319 519h-32l-125 149l13 15l135 -82l128 86l12 -13z" />
    <glyph glyph-name="AEmacron" unicode="&#x1e2;" horiz-adv-x="845" 
d="M310 0v19l75 13v206h-162l-104 -200l102 -18v-20h-225v19l65 13l300 551h445v-162h-23l-75 126h-152v-224l206 4v-49l-206 3v-244h155l100 144l23 -4l-30 -177h-494zM375 530l-132 -254h142v254h-10zM723 663h-245v41h245v-41z" />
    <glyph glyph-name="aemacron" unicode="&#x1e3;" horiz-adv-x="770" 
d="M41 309v121h1q35 16 101.5 27.5t109.5 11.5q90 0 139 -44q68 44 154 44q103 0 160.5 -62.5t57.5 -173.5h-318q3 -80 48 -119.5t104 -39.5q65 0 133 28l10 -12q-32 -40 -93 -69t-127 -29q-133 0 -195 81q-86 -81 -189 -81q-54 0 -90.5 30t-36.5 86q0 67 65 102t168 35h41
v90q0 46 -22 71.5t-60 25.5q-14 0 -36 -8l-70 -115h-55zM446 267l154 10q-1 61 -19 107.5t-53 46.5q-76 0 -82 -164zM245 80q38 0 63 21q-24 60 -24 112h-28q-85 0 -85 -72q0 -31 21.5 -46t52.5 -15zM535 567h-246v38h246v-38z" />
    <glyph glyph-name="uni01E6" unicode="&#x1e6;" horiz-adv-x="643" 
d="M597 34q-28 -16 -95 -29t-124 -13q-67 0 -128 16.5t-110.5 49.5t-79 89t-29.5 127q0 149 102 233t262 84q49 0 105 -11t85 -22v-154h-25l-82 138q-35 12 -77 12q-75 0 -127.5 -75t-52.5 -186q0 -72 17.5 -129t61 -95.5t107.5 -38.5q10 0 32 2v223l-80 14v19h238v-254z
M388 613h-32l-112 102l10 17l125 -48l123 45l10 -15z" />
    <glyph glyph-name="uni01E7" unicode="&#x1e7;" horiz-adv-x="534" 
d="M253 176q-34 0 -64 3l-15 -45l127 -8q105 -8 158.5 -44.5t53.5 -108.5q0 -74 -85.5 -134t-205.5 -60q-110 0 -166 36t-56 96q0 40 36.5 69.5t89.5 45.5l-72 13v48l114 96q-138 24 -138 132q0 72 64 113t153 41q130 0 192 -62l80 62h12v-86h-74q18 -29 18 -66
q0 -63 -66 -102t-156 -39zM118 -54q0 -56 35 -85.5t79 -29.5q64 0 98.5 29t34.5 68q0 32 -22.5 48t-82.5 27l-113 20q-29 -35 -29 -77zM250 213q30 0 46.5 30t16.5 69q0 56 -19 87t-49 31q-31 0 -47.5 -29.5t-16.5 -77.5q0 -44 18.5 -77t50.5 -33zM270 519h-32l-125 149
l13 15l135 -82l128 86l12 -13z" />
    <glyph glyph-name="uni01E8" unicode="&#x1e8;" horiz-adv-x="672" 
d="M21 0v19l75 13v516l-75 15v20h316v-19l-70 -13v-518l70 -13v-20h-316zM456 0l-172 254v24l201 261l-86 25v19h244v-23l-104 -20l-136 -174l234 -329l39 -19v-18h-220zM373 613h-32l-112 102l10 17l125 -48l123 45l10 -15z" />
    <glyph glyph-name="uni01E9" unicode="&#x1e9;" horiz-adv-x="556" 
d="M14 0v19l66 14v602h-75v22l162 46h65v-671l58 -12v-20h-276zM242 209v22l154 183l-93 28v17h232v-18l-92 -28l-98 -112l164 -247l47 -34v-20h-187zM418 613h-32l-112 102l10 17l125 -48l123 45l10 -15z" />
    <glyph glyph-name="uni01EA" unicode="&#x1ea;" horiz-adv-x="686" 
d="M655 314q0 -119 -64.5 -205t-177.5 -109q-40 -19 -63.5 -49.5t-23.5 -63.5q0 -67 68 -67q26 0 46 10l11 -29q-30 -17 -82 -17q-42 0 -73 25t-31 70q0 68 76 113h-5q-138 0 -221.5 75t-83.5 208q0 144 89 230t232 86q141 0 222 -71.5t81 -205.5zM464 295q0 138 -27 198.5
t-92 60.5q-69 0 -96.5 -59t-27.5 -199q0 -136 27 -201t91 -65q74 0 99.5 63t25.5 202z" />
    <glyph glyph-name="uni01EB" unicode="&#x1eb;" horiz-adv-x="545" 
d="M521 225q0 -93 -47 -149t-125 -75q-41 -18 -66 -49t-25 -65q0 -67 68 -67q26 0 46 10l11 -29q-30 -17 -82 -17q-42 0 -73 25t-31 70q0 67 75 113h-4q-55 0 -96 10t-76 34t-53.5 70.5t-18.5 113.5q0 121 74 185t178 64q245 0 245 -244zM356 213q0 54 -6.5 99t-28 81
t-55.5 36q-78 0 -78 -188q0 -90 22.5 -149.5t64.5 -59.5q29 0 48 28.5t26 67t7 85.5z" />
    <glyph glyph-name="uni01EC" unicode="&#x1ec;" horiz-adv-x="686" 
d="M655 314q0 -119 -64.5 -205t-177.5 -109q-40 -19 -63.5 -49.5t-23.5 -63.5q0 -67 68 -67q26 0 46 10l11 -29q-30 -17 -82 -17q-42 0 -73 25t-31 70q0 68 76 113h-5q-138 0 -221.5 75t-83.5 208q0 144 89 230t232 86q141 0 222 -71.5t81 -205.5zM464 295q0 138 -27 198.5
t-92 60.5q-69 0 -96.5 -59t-27.5 -199q0 -136 27 -201t91 -65q74 0 99.5 63t25.5 202zM470 664h-245v41h245v-41z" />
    <glyph glyph-name="uni01ED" unicode="&#x1ed;" horiz-adv-x="545" 
d="M521 225q0 -93 -47 -149t-125 -75q-41 -18 -66 -49t-25 -65q0 -67 68 -67q26 0 46 10l11 -29q-30 -17 -82 -17q-42 0 -73 25t-31 70q0 67 75 113h-4q-55 0 -96 10t-76 34t-53.5 70.5t-18.5 113.5q0 121 74 185t178 64q245 0 245 -244zM356 213q0 54 -6.5 99t-28 81
t-55.5 36q-78 0 -78 -188q0 -90 22.5 -149.5t64.5 -59.5q29 0 48 28.5t26 67t7 85.5zM395 567h-246v38h246v-38z" />
    <glyph glyph-name="uni01EE" unicode="&#x1ee;" horiz-adv-x="484" 
d="M281 65q0 83 -32.5 121t-108.5 39l-13 42l218 225l-3 7h-258l-51 -92l-25 1l16 175h425l12 -31l-221 -223l3 -6q106 -10 167 -68t61 -146q0 -107 -74 -168.5t-201 -61.5q-94 0 -178 35v119h37q17 -44 50 -79.5t77 -35.5q45 0 72 42t27 105zM252 613h-32l-112 102l10 17
l125 -48l123 45l10 -15z" />
    <glyph glyph-name="uni01EF" unicode="&#x1ef;" horiz-adv-x="439" 
d="M426 38q0 -72 -62 -130t-145.5 -85.5t-161.5 -24.5l-6 38q82 11 147.5 70t65.5 115q0 49 -30.5 76t-77.5 27q-18 0 -40 -5l-18 58l196 195l-3 7h-197l-60 -82l-24 3l17 158h367l10 -30l-223 -220l3 -6q105 2 173.5 -39t68.5 -125zM227 519h-32l-125 149l13 15l135 -82
l128 86l12 -13z" />
    <glyph glyph-name="uni01F1" unicode="&#x1f1;" horiz-adv-x="1236" 
d="M21 0v19l75 13v516l-75 15v20h294q61 0 110 -6.5t96.5 -25t79 -49t51 -80t19.5 -116.5q0 -146 -99 -226t-252 -80h-299zM724 0l-12 36l309 511h-189l-76 -155h-20v191h461l10 -34l-323 -512h227l85 147l24 -5l-21 -179h-475zM298 548h-31v-510h25q104 0 146.5 54
t42.5 199q0 140 -39.5 198.5t-143.5 58.5z" />
    <glyph glyph-name="uni01F2" unicode="&#x1f2;" horiz-adv-x="1185" 
d="M21 0v19l75 13v516l-75 15v20h294q61 0 110 -6.5t96.5 -25t79 -49t51 -80t19.5 -116.5q0 -146 -99 -226t-252 -80h-299zM1169 185l-19 -185h-420l-13 45l256 374h-135l-91 -124l-20 3l13 161h393l18 -54l-248 -365h150l99 148zM298 548h-31v-510h25q104 0 146.5 54
t42.5 199q0 140 -39.5 198.5t-143.5 58.5z" />
    <glyph glyph-name="uni01F3" unicode="&#x1f3;" horiz-adv-x="1053" 
d="M378 0l-18 55q-56 -63 -146 -63q-87 0 -138.5 61.5t-51.5 163.5q0 111 75 181.5t178 70.5q40 0 76 -15v181h-75v22l162 46h65v-652l58 -29v-22h-185zM1037 185l-19 -185h-420l-13 45l256 374h-135l-91 -124l-20 3l13 161h393l18 -54l-248 -365h150l99 148zM308 71
q21 0 45 11v342q-25 5 -47 5q-47 0 -83 -50t-36 -132q0 -72 35.5 -124t85.5 -52z" />
    <glyph glyph-name="uni01F4" unicode="&#x1f4;" horiz-adv-x="643" 
d="M597 34q-28 -16 -95 -29t-124 -13q-67 0 -128 16.5t-110.5 49.5t-79 89t-29.5 127q0 149 102 233t262 84q49 0 105 -11t85 -22v-154h-25l-82 138q-35 12 -77 12q-75 0 -127.5 -75t-52.5 -186q0 -72 17.5 -129t61 -95.5t107.5 -38.5q10 0 32 2v223l-80 14v19h238v-254z
M483 746l38 -84l-209 -42l-7 16z" />
    <glyph glyph-name="uni01F5" unicode="&#x1f5;" horiz-adv-x="534" 
d="M253 176q-34 0 -64 3l-15 -45l127 -8q105 -8 158.5 -44.5t53.5 -108.5q0 -74 -85.5 -134t-205.5 -60q-110 0 -166 36t-56 96q0 40 36.5 69.5t89.5 45.5l-72 13v48l114 96q-138 24 -138 132q0 72 64 113t153 41q130 0 192 -62l80 62h12v-86h-74q18 -29 18 -66
q0 -63 -66 -102t-156 -39zM118 -54q0 -56 35 -85.5t79 -29.5q64 0 98.5 29t34.5 68q0 32 -22.5 48t-82.5 27l-113 20q-29 -35 -29 -77zM250 213q30 0 46.5 30t16.5 69q0 56 -19 87t-49 31q-31 0 -47.5 -29.5t-16.5 -77.5q0 -44 18.5 -77t50.5 -33zM341 682l62 -72l-190 -96
l-10 11z" />
    <glyph glyph-name="uni01F8" unicode="&#x1f8;" horiz-adv-x="685" 
d="M14 0v19l87 27v484l-87 33v20h207l321 -331v279l-124 32v20h254v-19l-87 -27v-545h-57l-384 436v-376l135 -32v-20h-265zM213 663l38 84l176 -113l-7 -15z" />
    <glyph glyph-name="uni01F9" unicode="&#x1f9;" horiz-adv-x="610" 
d="M18 0v19l67 13v369h-75v22l162 46h40l22 -68q83 68 173 68q62 0 100.5 -42t38.5 -130v-265l59 -12v-20h-276v19l64 13v237q0 116 -98 116q-26 0 -58 -8v-344l57 -13v-20h-276zM187 610l62 72l138 -157l-9 -13z" />
    <glyph glyph-name="uni01FA" unicode="&#x1fa;" horiz-adv-x="625" 
d="M355 0v19l59 10l-56 141h-199l-51 -124l113 -26v-20h-225v19l63 24l231 540h87l216 -557l36 -6v-20h-274zM257 409l-83 -203h170l-81 203h-6zM337 596q-26 0 -48 18t-22 53q0 29 19 49t51 20q29 0 50 -19t21 -50t-19 -51t-52 -20zM439 867l38 -84l-209 -42l-7 16z
M337 618q49 0 49 49q0 21 -13.5 34t-35.5 13q-24 0 -36 -14t-12 -33q0 -24 14 -36.5t34 -12.5z" />
    <glyph glyph-name="uni01FB" unicode="&#x1fb;" horiz-adv-x="499" 
d="M96 309h-55v121h1q35 16 101.5 27.5t109.5 11.5q87 0 135 -40t48 -114v-264l58 -29v-22h-185l-23 67q-72 -75 -149 -75q-54 0 -90.5 30t-36.5 86q0 67 65 102t168 35h41v90q0 46 -22 71.5t-60 25.5q-14 0 -36 -8zM238 516q-26 0 -48 18t-22 53q0 29 19 49t51 20
q29 0 50 -19t21 -50t-19 -51t-52 -20zM284 86v127h-28q-85 0 -85 -72q0 -31 21.5 -46t52.5 -15q21 0 39 6zM356 827l38 -84l-209 -42l-7 16zM238 538q49 0 49 49q0 21 -13.5 34t-35.5 13q-24 0 -36 -14t-12 -33q0 -24 14 -36.5t34 -12.5z" />
    <glyph glyph-name="AEacute" unicode="&#x1fc;" horiz-adv-x="845" 
d="M310 0v19l75 13v206h-162l-104 -200l102 -18v-20h-225v19l65 13l300 551h445v-162h-23l-75 126h-152v-224l206 4v-49l-206 3v-244h155l100 144l23 -4l-30 -177h-494zM375 530l-132 -254h142v254h-10zM704 747l38 -84l-209 -42l-7 16z" />
    <glyph glyph-name="aeacute" unicode="&#x1fd;" horiz-adv-x="770" 
d="M41 309v121h1q35 16 101.5 27.5t109.5 11.5q90 0 139 -44q68 44 154 44q103 0 160.5 -62.5t57.5 -173.5h-318q3 -80 48 -119.5t104 -39.5q65 0 133 28l10 -12q-32 -40 -93 -69t-127 -29q-133 0 -195 81q-86 -81 -189 -81q-54 0 -90.5 30t-36.5 86q0 67 65 102t168 35h41
v90q0 46 -22 71.5t-60 25.5q-14 0 -36 -8l-70 -115h-55zM446 267l154 10q-1 61 -19 107.5t-53 46.5q-76 0 -82 -164zM245 80q38 0 63 21q-24 60 -24 112h-28q-85 0 -85 -72q0 -31 21.5 -46t52.5 -15zM480 682l62 -72l-190 -96l-10 11z" />
    <glyph glyph-name="Oslashacute" unicode="&#x1fe;" horiz-adv-x="686" 
d="M655 314q0 -140 -87 -231t-232 -91q-126 0 -205 61l-60 -61h-40l78 80q-78 75 -78 203q0 144 89 230t232 86q126 0 204 -58l57 59h42l-76 -78q76 -73 76 -200zM221 296q0 -53 5 -103l229 236q-11 65 -37.5 95t-72.5 30q-69 0 -96.5 -59t-27.5 -199zM464 295q0 40 -4 96
l-229 -235q11 -64 37 -95t71 -31q74 0 99.5 63t25.5 202zM490 746l38 -84l-209 -42l-7 16z" />
    <glyph glyph-name="oslashacute" unicode="&#x1ff;" horiz-adv-x="545" 
d="M521 225q0 -117 -72.5 -175t-180.5 -58q-106 0 -163 37l-34 -37h-47l55 58q-55 57 -55 170q0 121 74 185t178 64q100 0 159 -40l38 40h48l-59 -63q59 -61 59 -181zM188 241q0 -42 4 -71l153 163q-21 96 -79 96q-78 0 -78 -188zM356 213q0 42 -4 77l-153 -162
q22 -96 76 -96q29 0 48 28.5t26 67t7 85.5zM382 682l62 -72l-190 -96l-10 11z" />
    <glyph glyph-name="Scommaaccent" unicode="&#x218;" horiz-adv-x="499" 
d="M429 397l-62 134q-48 23 -95 23q-48 0 -79 -26t-31 -62q0 -62 134 -105q32 -10 52.5 -18t48 -23.5t43 -34t27 -47t11.5 -64.5q0 -94 -69 -138t-188 -44q-92 0 -194 40v169h26l60 -142q59 -30 115 -30q44 0 75.5 25.5t31.5 63.5q0 9 -3 17.5t-9.5 16t-13 14t-18.5 13
t-21 11.5t-24.5 11.5t-25 10t-27 10.5t-26.5 10q-63 24 -99.5 63t-36.5 109q0 90 65.5 138.5t169.5 48.5q114 0 188 -38v-156h-25zM194 -51h99l-81 -156h-30z" />
    <glyph glyph-name="scommaaccent" unicode="&#x219;" horiz-adv-x="451" 
d="M210 -9q-76 0 -185 21v137h43l67 -107q31 -13 67 -13q87 0 87 68q0 23 -27 39.5t-66 29.5t-78 30t-66 52t-27 85q0 45 34 77t81.5 45.5t101.5 13.5q107 0 180 -32v-113h-44l-60 96q-25 9 -60 9t-60 -17t-25 -42q0 -26 27 -43t65.5 -28.5t77.5 -27t66 -49.5t27 -86
q0 -63 -64 -104t-162 -41zM179 -51h99l-81 -156h-30z" />
    <glyph glyph-name="uni021A" unicode="&#x21a;" horiz-adv-x="561" 
d="M121 0v19l75 13v515h-73l-99 -176h-23v212h559v-212h-22l-99 176h-72v-514l70 -13v-20h-316zM236 -51h99l-81 -156h-30z" />
    <glyph glyph-name="uni021B" unicode="&#x21b;" horiz-adv-x="401" 
d="M382 61l7 -32q-74 -37 -154 -37q-76 0 -120 34.5t-44 125.5v243h-66v25l70 24l48 123h101v-123h150v-49h-150v-228q1 -54 20.5 -84.5t72.5 -30.5q27 0 65 9zM181 -51h99l-81 -156h-30z" />
    <glyph glyph-name="uni021C" unicode="&#x21c;" horiz-adv-x="484" 
d="M281 65q0 83 -32.5 121t-108.5 39l-13 42l218 225l-3 7h-258l-51 -92l-25 1l16 175h425l12 -31l-221 -223l3 -6q106 -10 167 -68t61 -146q0 -107 -74 -168.5t-201 -61.5q-94 0 -178 35v119h37q17 -44 50 -79.5t77 -35.5q45 0 72 42t27 105z" />
    <glyph glyph-name="uni021D" unicode="&#x21d;" horiz-adv-x="439" 
d="M426 38q0 -72 -62 -130t-145.5 -85.5t-161.5 -24.5l-6 38q82 11 147.5 70t65.5 115q0 49 -30.5 76t-77.5 27q-18 0 -40 -5l-18 58l196 195l-3 7h-197l-60 -82l-24 3l17 158h367l10 -30l-223 -220l3 -6q105 2 173.5 -39t68.5 -125z" />
    <glyph glyph-name="uni021E" unicode="&#x21e;" horiz-adv-x="730" 
d="M393 0v19l75 13v255h-201v-254l70 -13v-20h-316v19l75 13v516l-75 15v20h316v-19l-70 -13v-234h201v231l-75 15v20h316v-19l-70 -13v-518l70 -13v-20h-316zM382 613h-32l-112 102l10 17l125 -48l123 45l10 -15z" />
    <glyph glyph-name="uni021F" unicode="&#x21f;" horiz-adv-x="610" 
d="M13 0v19l66 13v603h-75v22l162 46h65v-304q85 70 176 70q62 0 100.5 -42t38.5 -130v-265l59 -12v-20h-276v19l64 13v237q0 116 -98 116q-31 0 -64 -9v-343l58 -13v-20h-276zM413 613h-32l-112 102l10 17l125 -48l123 45l10 -15z" />
    <glyph glyph-name="uni0226" unicode="&#x226;" horiz-adv-x="625" 
d="M355 0v19l59 10l-56 141h-199l-51 -124l113 -26v-20h-225v19l63 24l231 540h87l216 -557l36 -6v-20h-274zM257 409l-83 -203h170l-81 203h-6zM267 690q0 31 19.5 51.5t50.5 20.5q30 0 51 -20.5t21 -51.5q0 -29 -21 -49.5t-51 -20.5t-50 20t-20 50z" />
    <glyph glyph-name="uni0227" unicode="&#x227;" horiz-adv-x="499" 
d="M96 309h-55v121h1q35 16 101.5 27.5t109.5 11.5q87 0 135 -40t48 -114v-264l58 -29v-22h-185l-23 67q-72 -75 -149 -75q-54 0 -90.5 30t-36.5 86q0 67 65 102t168 35h41v90q0 46 -22 71.5t-60 25.5q-14 0 -36 -8zM172 604q0 31 19.5 51.5t50.5 20.5q30 0 51 -20.5
t21 -51.5q0 -29 -21 -49.5t-51 -20.5t-50 20t-20 50zM284 86v127h-28q-85 0 -85 -72q0 -31 21.5 -46t52.5 -15q21 0 39 6z" />
    <glyph glyph-name="uni0228" unicode="&#x228;" horiz-adv-x="556" 
d="M473 274l-206 3v-240h155l100 144l23 -4l-30 -177h-197l-15 -27q85 -21 85 -95q0 -41 -35 -70.5t-91 -29.5q-47 0 -78 22l16 35q34 -22 70 -22q23 0 37 16t14 40q0 53 -81 65l36 66h-255v19l75 13v516l-75 15v20h496v-162h-23l-75 126h-152v-228l206 4v-49z" />
    <glyph glyph-name="uni0229" unicode="&#x229;" horiz-adv-x="521" 
d="M243 -238q-47 0 -78 22l16 35q34 -22 70 -22q23 0 37 16t14 40q0 53 -81 65l41 74q-109 0 -173.5 57.5t-64.5 167.5q0 116 78 184t185 68q103 0 160.5 -62.5t57.5 -173.5h-318q3 -80 48 -119.5t104 -39.5q65 0 133 28l10 -12q-27 -33 -74.5 -59.5t-102.5 -34.5l-21 -39
q85 -21 85 -95q0 -41 -35 -70.5t-91 -29.5zM269 431q-76 0 -82 -164l154 10q-1 61 -19 107.5t-53 46.5z" />
    <glyph glyph-name="uni022E" unicode="&#x22e;" horiz-adv-x="686" 
d="M655 314q0 -140 -87 -231t-232 -91q-138 0 -221.5 75t-83.5 208q0 144 89 230t232 86q141 0 222 -71.5t81 -205.5zM464 295q0 138 -27 198.5t-92 60.5q-69 0 -96.5 -59t-27.5 -199q0 -136 27 -201t91 -65q74 0 99.5 63t25.5 202zM276 690q0 31 19.5 51.5t50.5 20.5
q30 0 51 -20.5t21 -51.5q0 -29 -21 -49.5t-51 -20.5t-50 20t-20 50z" />
    <glyph glyph-name="uni022F" unicode="&#x22f;" horiz-adv-x="545" 
d="M521 225q0 -117 -72.5 -175t-180.5 -58q-55 0 -96 10t-76 34t-53.5 70.5t-18.5 113.5q0 121 74 185t178 64q245 0 245 -244zM356 213q0 54 -6.5 99t-28 81t-55.5 36q-78 0 -78 -188q0 -90 22.5 -149.5t64.5 -59.5q29 0 48 28.5t26 67t7 85.5zM201 604q0 31 19.5 51.5
t50.5 20.5q30 0 51 -20.5t21 -51.5q0 -29 -21 -49.5t-51 -20.5t-50 20t-20 50z" />
    <glyph glyph-name="Ymacron" unicode="&#x232;" horiz-adv-x="568" 
d="M126 0v19l75 13v214l-168 309l-40 8v20h284v-19l-66 -11l134 -252l113 242l-105 20v20h222v-19l-67 -14l-136 -283v-234l70 -13v-20h-316zM432 664h-245v41h245v-41z" />
    <glyph glyph-name="ymacron" unicode="&#x233;" horiz-adv-x="533" 
d="M302 19l-92 -226h-108v17l129 167l-198 453l-43 9v20h286v-19l-73 -15l107 -304l116 284l-86 34v20h203v-19l-67 -26zM419 569h-246v38h246v-38z" />
    <glyph glyph-name="dotlessj" unicode="&#x237;" horiz-adv-x="303" 
d="M237 27q0 -68 -51 -129.5t-151 -95.5l-12 14q38 36 50 77t12 111v397h-75v22l162 46h65v-442z" />
    <glyph glyph-name="schwa" unicode="&#x259;" horiz-adv-x="511" 
d="M224 -8q-103 0 -160.5 62.5t-57.5 173.5h318q-3 80 -48.5 119.5t-103.5 39.5q-65 0 -133 -28l-10 12q32 40 93 69t127 29q109 0 173.5 -57.5t64.5 -167.5q0 -116 -78 -184t-185 -68zM242 30q76 0 81 164l-153 -10q1 -61 19 -107.5t53 -46.5z" />
    <glyph glyph-name="circumflex" unicode="&#x2c6;" horiz-adv-x="445" 
d="M218 671h32l109 -148l-13 -15l-120 73l-115 -74l-14 12z" />
    <glyph glyph-name="caron" unicode="&#x2c7;" horiz-adv-x="445" 
d="M237 519h-32l-125 149l13 15l135 -82l128 86l12 -13z" />
    <glyph glyph-name="breve" unicode="&#x2d8;" horiz-adv-x="412" 
d="M209 537q-40 0 -75 17t-49.5 31t-19.5 23l49 36q38 -49 97 -49q38 0 69 17t39 29l19 -8q-8 -31 -45 -63.5t-84 -32.5z" />
    <glyph glyph-name="dotaccent" unicode="&#x2d9;" horiz-adv-x="287" 
d="M83 604q0 31 19.5 51.5t50.5 20.5q30 0 51 -20.5t21 -51.5q0 -29 -21 -49.5t-51 -20.5t-50 20t-20 50z" />
    <glyph glyph-name="ring" unicode="&#x2da;" horiz-adv-x="353" 
d="M173 549q49 0 49 49q0 21 -13.5 34t-35.5 13q-24 0 -36 -14t-12 -33q0 -24 14 -36.5t34 -12.5zM173 527q-26 0 -48 18t-22 53q0 29 19 49t51 20q29 0 50 -19t21 -50t-19 -51t-52 -20z" />
    <glyph glyph-name="ogonek" unicode="&#x2db;" horiz-adv-x="466" 
d="M419 12q-52 -16 -85.5 -51t-33.5 -74q0 -67 68 -67q26 0 46 10l11 -29q-30 -17 -82 -17q-42 0 -73 25t-31 70q0 31 16 57t42.5 44t52 29.5t52.5 19.5z" />
    <glyph glyph-name="tilde" unicode="&#x2dc;" horiz-adv-x="445" 
d="M277 551q-29 0 -62 10t-53 10q-22 0 -52 -32l-19 18q38 71 88 71q23 0 63 -11t47 -11q15 0 29.5 7t21.5 14l6 7l19 -18q-10 -22 -35.5 -43.5t-52.5 -21.5z" />
    <glyph glyph-name="hungarumlaut" unicode="&#x2dd;" horiz-adv-x="469" 
d="M76 515l-16 10l106 177l72 -58zM223 513l-13 15l123 149l67 -67z" />
    <glyph glyph-name="gravecmb" unicode="&#x300;" horiz-adv-x="0" 
d="M-351 610l62 72l138 -157l-9 -13z" />
    <glyph glyph-name="acutecmb" unicode="&#x301;" horiz-adv-x="0" 
d="M-173 682l62 -72l-190 -96l-10 11z" />
    <glyph glyph-name="circumflexcmb" unicode="&#x302;" horiz-adv-x="0" 
d="M-244 691h32l109 -148l-13 -15l-120 73l-115 -74l-14 12z" />
    <glyph glyph-name="tildecmb" unicode="&#x303;" horiz-adv-x="0" 
d="M-175 568q-30 0 -62.5 10t-52.5 10q-22 0 -52 -32l-19 18q38 71 88 71q23 0 63 -11t47 -11q15 0 29.5 7t21.5 14l6 7l19 -18q-10 -22 -35.5 -43.5t-52.5 -21.5z" />
    <glyph glyph-name="macroncmb" unicode="&#x304;" horiz-adv-x="0" 
d="M-112 583h-246v38h246v-38z" />
    <glyph glyph-name="brevecmb" unicode="&#x306;" horiz-adv-x="0" 
d="M-219 537q-40 0 -75 17t-49.5 31t-19.5 23l49 36q38 -49 97 -49q38 0 69 17t39 29l19 -8q-8 -31 -45 -63.5t-84 -32.5z" />
    <glyph glyph-name="dotaccentcmb" unicode="&#x307;" horiz-adv-x="0" 
d="M-294 622q0 31 19.5 51.5t50.5 20.5q30 0 51 -20.5t21 -51.5q0 -29 -21 -49.5t-51 -20.5t-50 20t-20 50z" />
    <glyph glyph-name="dieresiscmb" unicode="&#x308;" horiz-adv-x="0" 
d="M-388 587q0 26 16 42.5t41 16.5t42 -17t17 -42q0 -24 -17 -40.5t-42 -16.5t-41 16.5t-16 40.5zM-211 587q0 25 16.5 42t42.5 17q24 0 40.5 -17t16.5 -42q0 -24 -16.5 -40.5t-40.5 -16.5q-25 0 -42 16.5t-17 40.5z" />
    <glyph glyph-name="hookcmb" unicode="&#x309;" horiz-adv-x="0" 
d="M-138 621q0 -30 -29 -63t-58 -46l-19 17q42 37 42 86q0 34 -36 34q-20 0 -41 -17l-21 28q32 32 81 32q81 0 81 -71z" />
    <glyph glyph-name="ringcmb" unicode="&#x30a;" horiz-adv-x="0" 
d="M-236 552q49 0 49 49q0 21 -13.5 34t-35.5 13q-24 0 -36 -14t-12 -33q0 -24 14 -36.5t34 -12.5zM-236 530q-26 0 -48 18t-22 53q0 29 19 49t51 20q29 0 50 -19t21 -50t-19 -51t-52 -20z" />
    <glyph glyph-name="hungarumlautcmb" unicode="&#x30b;" horiz-adv-x="0" 
d="M-328 515l-16 10l106 177l72 -58zM-181 513l-13 15l123 149l67 -67z" />
    <glyph glyph-name="caroncmb" unicode="&#x30c;" horiz-adv-x="0" 
d="M-216 519h-32l-125 149l13 15l135 -82l128 86l12 -13z" />
    <glyph glyph-name="candrabinducmb" unicode="&#x310;" horiz-adv-x="0" 
d="M-285 686q0 57 62 57t62 -57q0 -56 -62 -56t-62 56zM-220 527q-40 0 -75 17t-49.5 31t-19.5 23l49 36q38 -49 97 -49q38 0 69 17t39 29l19 -8q-8 -31 -45 -63.5t-84 -32.5z" />
    <glyph glyph-name="dotbelowcmb" unicode="&#x323;" horiz-adv-x="0" 
d="M-294 -112q0 31 19.5 51.5t50.5 20.5q30 0 51 -20.5t21 -51.5q0 -29 -21 -49.5t-51 -20.5t-50 20t-20 50z" />
    <glyph glyph-name="dieresisbelowcmb" unicode="&#x324;" horiz-adv-x="0" 
d="M-385 -100q0 26 16 42.5t41 16.5t42 -17t17 -42q0 -24 -17 -40.5t-42 -16.5t-41 16.5t-16 40.5zM-208 -100q0 26 17 42.5t42 16.5q24 0 40.5 -17t16.5 -42q0 -24 -16.5 -40.5t-40.5 -16.5q-25 0 -42 16.5t-17 40.5z" />
    <glyph glyph-name="ringbelowcmb" unicode="&#x325;" horiz-adv-x="0" 
d="M-242 -167q49 0 49 49q0 21 -13.5 34t-35.5 13q-24 0 -36 -14t-12 -33q0 -24 14 -36.5t34 -12.5zM-242 -189q-26 0 -48 18t-22 53q0 29 19 49t51 20q29 0 50 -19t21 -50t-19 -51t-52 -20z" />
    <glyph glyph-name="cedillacmb" unicode="&#x327;" horiz-adv-x="0" 
d="M-272 -238q-47 0 -78 22l16 35q34 -22 70 -22q23 0 37 16t14 40q0 53 -81 65l48 87h42l-27 -48q85 -21 85 -95q0 -41 -35 -70.5t-91 -29.5z" />
    <glyph glyph-name="ogonekcmb" unicode="&#x328;" horiz-adv-x="0" 
d="M-151 12q-52 -16 -85.5 -51t-33.5 -74q0 -67 68 -67q26 0 46 10l11 -29q-30 -17 -82 -17q-42 0 -73 25t-31 70q0 31 16 57t42.5 44t52 29.5t52.5 19.5z" />
    <glyph glyph-name="brevebelowcmb" unicode="&#x32e;" horiz-adv-x="0" 
d="M-235 -157q-40 0 -75 17t-49.5 31t-19.5 23l49 36q38 -49 97 -49q38 0 69 17t39 29l19 -8q-8 -31 -45 -63.5t-84 -32.5z" />
    <glyph glyph-name="macronbelowcmb" unicode="&#x331;" horiz-adv-x="0" 
d="M-109 -130h-246v38h246v-38z" />
    <glyph glyph-name="uni0374" unicode="&#x374;" horiz-adv-x="241" 
d="M210 633q0 -52 -48.5 -119t-118.5 -109l-11 12q70 88 70 140q0 70 -71 80q0 31 28.5 57t64.5 26q39 0 62.5 -25t23.5 -62z" />
    <glyph glyph-name="uni0375" unicode="&#x375;" horiz-adv-x="261" 
d="M230 47q0 -58 -53.5 -132t-131.5 -122l-13 14q78 98 78 155q0 78 -79 89q0 35 31.5 63.5t71.5 28.5q43 0 69.5 -27.5t26.5 -68.5z" />
    <glyph glyph-name="uni037E" unicode="&#x37e;" horiz-adv-x="317" 
d="M260 47q0 -58 -53.5 -132t-131.5 -122l-13 14q78 98 78 155q0 78 -79 89q0 35 31.5 63.5t71.5 28.5q43 0 69.5 -27.5t26.5 -68.5zM89 387q0 37 26.5 64.5t67.5 27.5q43 0 67.5 -26.5t24.5 -65.5q0 -33 -25 -59t-67 -26q-41 0 -67.5 25.5t-26.5 59.5z" />
    <glyph glyph-name="tonos" unicode="&#x384;" horiz-adv-x="163" 
d="M32 703h114l6 -8l-117 -192l-23 2z" />
    <glyph glyph-name="dieresistonos" unicode="&#x385;" horiz-adv-x="434" 
d="M38 561q0 28 18 42.5t47 14.5q64 0 64 -57q0 -56 -64 -56q-29 0 -47 14.5t-18 41.5zM293 561q0 28 17.5 42.5t46.5 14.5q65 0 65 -57q0 -56 -65 -56q-29 0 -46.5 14.5t-17.5 41.5zM205 703h114l6 -8l-117 -192l-23 2z" />
    <glyph glyph-name="Alphatonos" unicode="&#x386;" horiz-adv-x="625" 
d="M355 0v19l59 10l-56 141h-199l-51 -124l113 -26v-20h-225v19l63 24l231 540h87l216 -557l36 -6v-20h-274zM257 409l-83 -203h170l-81 203h-6zM72 583h114l6 -8l-105 -192l-23 2z" />
    <glyph glyph-name="anoteleia" unicode="&#x387;" horiz-adv-x="256" 
d="M46 289q0 33 25 58t58 25t57 -25t24 -58q0 -34 -23.5 -57.5t-57.5 -23.5q-33 0 -58 24t-25 57z" />
    <glyph glyph-name="Epsilontonos" unicode="&#x388;" horiz-adv-x="556" 
d="M473 274l-206 3v-240h155l100 144l23 -4l-30 -177h-494v19l75 13v516l-75 15v20h496v-162h-23l-75 126h-152v-228l206 4v-49zM-128 583h114l6 -8l-105 -192l-23 2z" />
    <glyph glyph-name="Etatonos" unicode="&#x389;" horiz-adv-x="730" 
d="M393 0v19l75 13v255h-201v-254l70 -13v-20h-316v19l75 13v516l-75 15v20h316v-19l-70 -13v-234h201v231l-75 15v20h316v-19l-70 -13v-518l70 -13v-20h-316zM-126 583h114l6 -8l-105 -192l-23 2z" />
    <glyph glyph-name="Iotatonos" unicode="&#x38a;" horiz-adv-x="372" 
d="M28 0v19l75 13v516l-75 15v20h316v-19l-70 -13v-518l70 -13v-20h-316zM-128 583h114l6 -8l-105 -192l-23 2z" />
    <glyph glyph-name="Omicrontonos" unicode="&#x38c;" horiz-adv-x="686" 
d="M655 314q0 -140 -87 -231t-232 -91q-138 0 -221.5 75t-83.5 208q0 144 89 230t232 86q141 0 222 -71.5t81 -205.5zM464 295q0 138 -27 198.5t-92 60.5q-69 0 -96.5 -59t-27.5 -199q0 -136 27 -201t91 -65q74 0 99.5 63t25.5 202zM-46 583h114l6 -8l-105 -192l-23 2z" />
    <glyph glyph-name="Upsilontonos" unicode="&#x38e;" horiz-adv-x="660" 
d="M156 0v18l75 13v117q0 75 -27 163.5t-68.5 154.5t-80.5 79q-27 0 -50 -3l-5 26q21 8 84 16t87 8q37 -17 64 -45.5t54 -100t41 -182.5h8q18 130 70.5 215t120.5 113q120 -12 131 -17l-2 -32q-61 -6 -112 -46t-81 -99t-46.5 -123.5t-16.5 -124.5v-117l70 -13v-20h-316z
M-138 583h114l6 -8l-105 -192l-23 2z" />
    <glyph glyph-name="Omegatonos" unicode="&#x38f;" horiz-adv-x="720" 
d="M648 98l15 55h11v-153h-289l-6 98q56 38 83.5 104.5t27.5 141.5q0 90 -32.5 150t-95.5 60q-43 0 -75 -35t-45 -79.5t-13 -89.5q0 -107 22 -160t78 -92l-2 -98h-281v151h11l15 -53h190v5q-114 42 -165.5 97t-51.5 133q0 116 89.5 187t233.5 71q153 0 229.5 -68.5
t76.5 -188.5q0 -156 -222 -233v-3h196zM-44 583h114l6 -8l-105 -192l-23 2z" />
    <glyph glyph-name="iotadieresistonos" unicode="&#x390;" horiz-adv-x="317" 
d="M-45 561q0 28 17.5 42.5t47.5 14.5q64 0 64 -57q0 -56 -64 -56q-29 0 -47 14.5t-18 41.5zM210 561q0 28 17.5 42.5t46.5 14.5q65 0 65 -57q0 -56 -65 -56q-29 0 -46.5 14.5t-17.5 41.5zM122 703h114l6 -8l-117 -192l-23 2zM60 89v370h152v-357q0 -25 11 -36.5t38 -11.5
q13 0 46 5l7 -33q-57 -34 -153 -34q-101 0 -101 97z" />
    <glyph glyph-name="Alpha" unicode="&#x391;" horiz-adv-x="625" 
d="M355 0v19l59 10l-56 141h-199l-51 -124l113 -26v-20h-225v19l63 24l231 540h87l216 -557l36 -6v-20h-274zM257 409l-83 -203h170l-81 203h-6z" />
    <glyph glyph-name="Beta" unicode="&#x392;" horiz-adv-x="607" 
d="M21 0v19l75 13v516l-75 15v20h300q103 0 166 -37.5t63 -106.5q0 -46 -31 -83.5t-75 -54.5v-2q142 -18 142 -133q0 -75 -63 -120.5t-177 -45.5h-325zM281 277h-14v-240h14q65 0 98 35.5t33 90.5q0 62 -38 88t-93 26zM281 550h-14v-238h11q43 0 74 28.5t31 84.5
q0 57 -25 91t-77 34z" />
    <glyph glyph-name="Gamma" unicode="&#x393;" horiz-adv-x="508" 
d="M21 0v19l75 13v516l-75 15v20h483v-192h-30l-81 156h-126v-514l70 -13v-20h-316z" />
    <glyph glyph-name="uni0394" unicode="&#x394;" horiz-adv-x="591" 
d="M16 0l-11 32l248 551h109l224 -531l-25 -52h-545zM253 464l-7 1l-162 -367h311z" />
    <glyph glyph-name="Epsilon" unicode="&#x395;" horiz-adv-x="556" 
d="M473 274l-206 3v-240h155l100 144l23 -4l-30 -177h-494v19l75 13v516l-75 15v20h496v-162h-23l-75 126h-152v-228l206 4v-49z" />
    <glyph glyph-name="Zeta" unicode="&#x396;" horiz-adv-x="534" 
d="M22 0l-12 36l309 511h-189l-76 -155h-20v191h461l10 -34l-323 -512h227l85 147l24 -5l-21 -179h-475z" />
    <glyph glyph-name="Eta" unicode="&#x397;" horiz-adv-x="730" 
d="M393 0v19l75 13v255h-201v-254l70 -13v-20h-316v19l75 13v516l-75 15v20h316v-19l-70 -13v-234h201v231l-75 15v20h316v-19l-70 -13v-518l70 -13v-20h-316z" />
    <glyph glyph-name="Theta" unicode="&#x398;" horiz-adv-x="686" 
d="M655 314q0 -140 -87 -231t-232 -91q-138 0 -221.5 75t-83.5 208q0 144 89 230.5t232 86.5q141 0 222 -72t81 -206zM464 295q0 138 -27 199t-92 61q-69 0 -96.5 -59.5t-27.5 -199.5q0 -136 27 -201t91 -65q74 0 99.5 63t25.5 202zM295 258l-10 -50h-13v184h14l9 -53h102
l9 53h14v-184h-13l-10 50h-102z" />
    <glyph glyph-name="Iota" unicode="&#x399;" horiz-adv-x="372" 
d="M28 0v19l75 13v516l-75 15v20h316v-19l-70 -13v-518l70 -13v-20h-316z" />
    <glyph glyph-name="Kappa" unicode="&#x39a;" horiz-adv-x="672" 
d="M21 0v19l75 13v516l-75 15v20h316v-19l-70 -13v-518l70 -13v-20h-316zM456 0l-172 254v24l201 261l-86 25v19h244v-23l-104 -20l-136 -174l234 -329l39 -19v-18h-220z" />
    <glyph glyph-name="Lambda" unicode="&#x39b;" horiz-adv-x="625" 
d="M355 0v19l59 10l-151 380h-6l-149 -363l113 -26v-20h-225v19l63 24l231 540h87l216 -557l36 -6v-20h-274z" />
    <glyph glyph-name="Mu" unicode="&#x39c;" horiz-adv-x="855" 
d="M560 0v19l60 11l-35 423h-6l-173 -461h-68l-172 461h-6l-30 -409l85 -24v-20h-205v19l73 26l51 500l-87 18v20h245l147 -376l150 376h228v-20l-81 -19l54 -517l55 -7v-20h-285z" />
    <glyph glyph-name="Nu" unicode="&#x39d;" horiz-adv-x="685" 
d="M14 0v19l87 27v484l-87 33v20h207l321 -331v279l-124 32v20h254v-19l-87 -27v-545h-57l-384 436v-376l135 -32v-20h-265z" />
    <glyph glyph-name="Xi" unicode="&#x39e;" horiz-adv-x="585" 
d="M454 98l73 105l23 -6l-20 -197h-475l-20 197l23 6l77 -105h319zM130 487l-58 -86h-19v182h479v-182h-18l-63 86h-321zM200 258l-10 -50h-15v184h16l9 -53h188l9 53h16v-184h-15l-10 50h-188z" />
    <glyph glyph-name="Omicron" unicode="&#x39f;" horiz-adv-x="686" 
d="M655 314q0 -140 -87 -231t-232 -91q-138 0 -221.5 75t-83.5 208q0 144 89 230t232 86q141 0 222 -71.5t81 -205.5zM464 295q0 138 -27 198.5t-92 60.5q-69 0 -96.5 -59t-27.5 -199q0 -136 27 -201t91 -65q74 0 99.5 63t25.5 202z" />
    <glyph glyph-name="Pi" unicode="&#x3a0;" horiz-adv-x="732" 
d="M399 0v19l75 12v516h-211v-515l70 -12v-20h-312v19l75 13v515l-75 16v20h690v-19l-70 -12v-519l70 -13v-20h-312z" />
    <glyph glyph-name="Rho" unicode="&#x3a1;" horiz-adv-x="588" 
d="M21 0v19l75 13v516l-75 15v20h329q107 0 169 -47t62 -141q0 -84 -68.5 -130.5t-201.5 -46.5h-44v-185l70 -13v-20h-316zM277 545h-10v-287h13q113 0 113 144q0 140 -116 143z" />
    <glyph glyph-name="Sigma" unicode="&#x3a3;" horiz-adv-x="560" 
d="M214 547l134 -210l-202 -240h294l75 106l25 -8l-23 -195h-480l-5 28l194 231l-187 292l8 32h468v-192h-31l-73 156h-197z" />
    <glyph glyph-name="Tau" unicode="&#x3a4;" horiz-adv-x="561" 
d="M121 0v19l75 13v515h-73l-99 -176h-23v212h559v-212h-22l-99 176h-72v-514l70 -13v-20h-316z" />
    <glyph glyph-name="Upsilon" unicode="&#x3a5;" horiz-adv-x="660" 
d="M156 0v18l75 13v117q0 75 -27 163.5t-68.5 154.5t-80.5 79q-27 0 -50 -3l-5 26q21 8 84 16t87 8q37 -17 64 -45.5t54 -100t41 -182.5h8q18 130 70.5 215t120.5 113q120 -12 131 -17l-2 -32q-61 -6 -112 -46t-81 -99t-46.5 -123.5t-16.5 -124.5v-117l70 -13v-20h-316z" />
    <glyph glyph-name="Phi" unicode="&#x3a6;" horiz-adv-x="762" 
d="M223 0v19l79 13v61q-143 5 -215 51.5t-72 141.5q0 98 74.5 155.5t212.5 68.5v60l-79 14v20h316v-19l-80 -14v-60q288 -10 288 -195q0 -95 -72 -153.5t-216 -68.5v-62l80 -12v-20h-316zM574 305q0 72 -31.5 121t-83.5 52v-350q53 4 84 54.5t31 122.5zM187 300
q0 -71 31.5 -119.5t83.5 -52.5v350q-50 -4 -82.5 -56t-32.5 -122z" />
    <glyph glyph-name="Chi" unicode="&#x3a7;" horiz-adv-x="611" 
d="M328 0v19l59 12l-122 198l-125 -186l101 -23v-20h-233v19l65 15l169 232l-179 288l-44 9v20h274v-19l-51 -9l102 -162l98 148l-72 22v20h212v-19l-92 -28l-126 -176l207 -332l41 -8v-20h-284z" />
    <glyph glyph-name="Psi" unicode="&#x3a8;" horiz-adv-x="860" 
d="M264 0v19l77 13v145q-119 14 -191.5 61t-72.5 121v157h-76v17l158 50h71v-239q0 -99 111 -127v331l-77 15v20h316v-19l-72 -13v-335q125 29 125 146v221l60 1l166 -43v-26h-75v-148q0 -83 -75.5 -131.5t-200.5 -60.5v-142l72 -13v-20h-316z" />
    <glyph glyph-name="Omega" unicode="&#x3a9;" horiz-adv-x="720" 
d="M648 98l15 55h11v-153h-289l-6 98q56 38 83.5 104.5t27.5 141.5q0 90 -32.5 150t-95.5 60q-43 0 -75 -35t-45 -79.5t-13 -89.5q0 -107 22 -160t78 -92l-2 -98h-281v151h11l15 -53h190v5q-114 42 -165.5 97t-51.5 133q0 116 89.5 187t233.5 71q153 0 229.5 -68.5
t76.5 -188.5q0 -156 -222 -233v-3h196z" />
    <glyph glyph-name="Omega" unicode="&#x2126;" horiz-adv-x="720" 
d="M648 98l15 55h11v-153h-289l-6 98q56 38 83.5 104.5t27.5 141.5q0 90 -32.5 150t-95.5 60q-43 0 -75 -35t-45 -79.5t-13 -89.5q0 -107 22 -160t78 -92l-2 -98h-281v151h11l15 -53h190v5q-114 42 -165.5 97t-51.5 133q0 116 89.5 187t233.5 71q153 0 229.5 -68.5
t76.5 -188.5q0 -156 -222 -233v-3h196z" />
    <glyph glyph-name="Iotadieresis" unicode="&#x3aa;" horiz-adv-x="372" 
d="M28 0v19l75 13v516l-75 15v20h316v-19l-70 -13v-518l70 -13v-20h-316zM46 677q0 23 14.5 38t36.5 15q23 0 38 -15t15 -38q0 -22 -15 -36.5t-38 -14.5q-22 0 -36.5 14.5t-14.5 36.5zM223 677q0 23 15 38t38 15q22 0 36.5 -15t14.5 -38q0 -22 -14.5 -36.5t-36.5 -14.5
q-23 0 -38 14.5t-15 36.5z" />
    <glyph glyph-name="Upsilondieresis" unicode="&#x3ab;" horiz-adv-x="660" 
d="M156 0v18l75 13v117q0 75 -27 163.5t-68.5 154.5t-80.5 79q-27 0 -50 -3l-5 26q21 8 84 16t87 8q37 -17 64 -45.5t54 -100t41 -182.5h8q18 130 70.5 215t120.5 113q120 -12 131 -17l-2 -32q-61 -6 -112 -46t-81 -99t-46.5 -123.5t-16.5 -124.5v-117l70 -13v-20h-316z
M189 677q0 23 14.5 38t36.5 15q23 0 38 -15t15 -38q0 -22 -15 -36.5t-38 -14.5q-22 0 -36.5 14.5t-14.5 36.5zM366 677q0 23 15 38t38 15q22 0 36.5 -15t14.5 -38q0 -22 -14.5 -36.5t-36.5 -14.5q-23 0 -38 14.5t-15 36.5z" />
    <glyph glyph-name="alphatonos" unicode="&#x3ac;" horiz-adv-x="581" 
d="M488 199v-78q0 -41 12 -57t38 -15q12 0 34 5l4 -31q-59 -31 -132 -31q-43 0 -70 22t-33 58q-58 -80 -148 -80q-169 0 -169 236q0 105 71 170.5t146 65.5q76 0 116 -49q6 26 12 41l134 12l13 -29q-28 -82 -28 -240zM260 68q35 0 79 33v110q0 56 4 101q-36 109 -84 109
q-22 0 -38.5 -17t-25.5 -45t-13 -57.5t-4 -60.5q0 -173 82 -173zM282 708h114l6 -8l-117 -192l-23 2z" />
    <glyph glyph-name="epsilontonos" unicode="&#x3ad;" horiz-adv-x="465" 
d="M247 468q101 0 197 -34v-105h-32q-31 100 -133 100q-41 0 -63.5 -25t-22.5 -71q0 -24 12.5 -50t26.5 -37l120 32q5 -12 5 -40q0 -30 -8 -49l-122 32q-18 -7 -30.5 -35t-12.5 -57q0 -46 28 -69t67 -23q41 0 81 29.5t54 70.5h30v-97q-33 -20 -88 -34t-106 -14
q-113 0 -172 37.5t-59 100.5q0 44 34 75t90 35v5q-52 7 -79 33t-27 59q0 52 56.5 91.5t153.5 39.5zM239 707h114l6 -8l-117 -192l-23 2z" />
    <glyph glyph-name="etatonos" unicode="&#x3ae;" horiz-adv-x="598" 
d="M542 -207h-153v476q0 64 -17.5 90t-61.5 26q-25 0 -59 -8v-377h-152v354q0 25 -11 36.5t-38 11.5q-16 0 -36 -3l-5 36q74 33 171 33q58 0 69 -54q0 -2 0.5 -5.5t0.5 -4.5q74 65 153 65q62 0 100.5 -42t38.5 -130v-504zM299 707h114l6 -8l-117 -192l-23 2z" />
    <glyph glyph-name="iotatonos" unicode="&#x3af;" horiz-adv-x="317" 
d="M122 707h114l6 -8l-117 -192l-23 2zM60 89v370h152v-357q0 -25 11 -36.5t38 -11.5q13 0 46 5l7 -33q-57 -34 -153 -34q-101 0 -101 97z" />
    <glyph glyph-name="upsilondieresistonos" unicode="&#x3b0;" horiz-adv-x="556" 
d="M105 561q0 28 17.5 42.5t47.5 14.5q64 0 64 -57q0 -56 -64 -56q-29 0 -47 14.5t-18 41.5zM360 561q0 28 17.5 42.5t46.5 14.5q65 0 65 -57q0 -56 -65 -56q-29 0 -46.5 14.5t-17.5 41.5zM272 703h114l6 -8l-117 -192l-23 2zM247 393v-237q0 -122 81 -122q47 0 71 80.5
t20 161.5q-3 41 -10 73l-64 64v29q100 26 130 26q65 -49 65 -171q0 -74 -28 -142.5t-85.5 -115.5t-130.5 -47q-95 0 -148 50.5t-53 138.5v176q0 25 -11 36.5t-38 11.5q-14 0 -34 -3l-7 33q74 33 171 33q34 0 52.5 -19.5t18.5 -55.5z" />
    <glyph glyph-name="alpha" unicode="&#x3b1;" horiz-adv-x="581" 
d="M488 199v-78q0 -41 12 -57t38 -15q12 0 34 5l4 -31q-59 -31 -132 -31q-43 0 -70 22t-33 58q-58 -80 -148 -80q-169 0 -169 236q0 105 71 170.5t146 65.5q76 0 116 -49q6 26 12 41l134 12l13 -29q-28 -82 -28 -240zM260 68q35 0 79 33v110q0 56 4 101q-36 109 -84 109
q-22 0 -38.5 -17t-25.5 -45t-13 -57.5t-4 -60.5q0 -173 82 -173z" />
    <glyph glyph-name="beta" unicode="&#x3b2;" horiz-adv-x="564" 
d="M308 -8q-52 0 -95 15v-215h-153v685q0 57 24 103.5t60.5 73.5t75.5 41.5t73 14.5q95 0 155 -47t60 -125q0 -94 -159 -148v-5q86 -7 142.5 -50.5t56.5 -124.5q0 -45 -18 -83t-45 -62t-60.5 -41.5t-63 -24.5t-53.5 -7zM213 528v-487q22 -2 33 -1q60 1 98.5 44t38.5 115
q0 139 -128 152v28q94 51 94 161q0 129 -62 129q-36 0 -55 -29.5t-19 -111.5z" />
    <glyph glyph-name="gamma" unicode="&#x3b3;" horiz-adv-x="513" 
d="M311 -208q-18 -9 -74 -7q-48 0 -78 6q7 32 20 99.5t21 99.5q-39 167 -108 319q-30 62 -42 72q-23 16 -57 12l-9 34q25 15 69 28t85 14q29 1 45 -12t28 -46q37 -94 88 -338h6l100 396q25 2 64 -6t56 -19q-14 -34 -108.5 -211.5t-116.5 -232.5q7 -98 11 -208z" />
    <glyph glyph-name="delta" unicode="&#x3b4;" horiz-adv-x="532" 
d="M16 200q0 79 40.5 122.5t125.5 72.5q-51 42 -79 78.5t-28 74.5q0 68 60 115t130 47q124 0 223 -47l-23 -121l-20 -2q-104 130 -179 130q-27 0 -44.5 -17t-17.5 -43q0 -29 31.5 -65.5t76.5 -74.5t90 -78t76.5 -87t31.5 -91q0 -90 -78 -156t-181 -66q-108 0 -171.5 60.5
t-63.5 147.5zM354 176q0 22 -10.5 46t-20.5 39.5t-38.5 43t-38.5 36t-46 38.5q-34 -50 -34 -154q0 -85 27.5 -137t72.5 -52q40 0 64 40t24 100z" />
    <glyph glyph-name="epsilon" unicode="&#x3b5;" horiz-adv-x="465" 
d="M247 468q101 0 197 -34v-105h-32q-31 100 -133 100q-41 0 -63.5 -25t-22.5 -71q0 -24 12.5 -50t26.5 -37l120 32q5 -12 5 -40q0 -30 -8 -49l-122 32q-18 -7 -30.5 -35t-12.5 -57q0 -46 28 -69t67 -23q41 0 81 29.5t54 70.5h30v-97q-33 -20 -88 -34t-106 -14
q-113 0 -172 37.5t-59 100.5q0 44 34 75t90 35v5q-52 7 -79 33t-27 59q0 52 56.5 91.5t153.5 39.5z" />
    <glyph glyph-name="zeta" unicode="&#x3b6;" horiz-adv-x="400" 
d="M32 703h61q77 -24 173 -29q52 -2 78 -2h30q6 -13 12.5 -47t7.5 -48q-227 -187 -227 -383q0 -45 67 -60q147 -33 156 -57q0 -55 -23.5 -118t-62.5 -113l-37 13q5 10 12.5 25.5t11 23t8 18t6 19t1.5 18.5q-17 13 -90 30q-36 8 -54.5 13t-50 18t-47.5 27t-29 39t-13 56
q0 86 109 222t215 207l-2 5q-118 -6 -191 -4q-81 2 -139 16z" />
    <glyph glyph-name="eta" unicode="&#x3b7;" horiz-adv-x="598" 
d="M542 -207h-153v476q0 64 -17.5 90t-61.5 26q-25 0 -59 -8v-377h-152v354q0 25 -11 36.5t-38 11.5q-16 0 -36 -3l-5 36q74 33 171 33q58 0 69 -54q0 -2 0.5 -5.5t0.5 -4.5q74 65 153 65q62 0 100.5 -42t38.5 -130v-504z" />
    <glyph glyph-name="theta" unicode="&#x3b8;" horiz-adv-x="520" 
d="M498 351q0 -165 -68 -261.5t-175 -96.5q-103 0 -168 93.5t-65 247.5q0 186 66.5 280.5t178.5 94.5q119 0 175 -88t56 -270zM266 33q36 0 49.5 76.5t14.5 230.5h-143q2 -307 79 -307zM255 669q-65 0 -68 -295h143q-2 140 -21.5 217.5t-53.5 77.5z" />
    <glyph glyph-name="iota" unicode="&#x3b9;" horiz-adv-x="317" 
d="M60 89v370h152v-357q0 -25 11 -36.5t38 -11.5q13 0 46 5l7 -33q-57 -34 -153 -34q-101 0 -101 97z" />
    <glyph glyph-name="kappa" unicode="&#x3ba;" horiz-adv-x="570" 
d="M247 393v-173l153 167q31 33 43.5 46t29.5 24t31 11q29 0 58 -9l-19 -118h-22l-98 11l-60 -59l88 -150q42 -74 83 -74q16 0 29 4l8 -32q-52 -48 -127 -48q-42 0 -65 19.5t-50 64.5l-59 126l-23 -22v-181h-152v357q0 25 -11 36.5t-38 11.5q-14 0 -34 -3l-7 33
q74 33 171 33q34 0 52.5 -19.5t18.5 -55.5z" />
    <glyph glyph-name="lambda" unicode="&#x3bb;" horiz-adv-x="547" 
d="M36 575h-9q-26 30 -41 69q20 29 66.5 47.5t93.5 18.5q51 0 110.5 -32.5t76.5 -101.5l104 -432q10 -41 27 -59.5t43 -21.5q22 -2 43 4l5 -27q-52 -48 -135 -48q-97 0 -118 82l-73 304l-88 -378h-122v52l197 369l-29 116q-11 45 -28.5 88t-30.5 51q-12 -6 -43 -41t-49 -60z
" />
    <glyph glyph-name="nu" unicode="&#x3bd;" horiz-adv-x="527" 
d="M213 -8l-129 354q-15 39 -45 45q-16 3 -37 0l-7 34q38 22 71 32.5t84 10.5q61 0 85 -81l99 -307h12q28 52 43 106.5t17.5 85.5t2.5 75q-37 46 -57 66v24q91 32 118 32q21 -11 33.5 -36.5t12.5 -53.5q0 -37 -29.5 -103.5t-59.5 -117.5t-91 -151z" />
    <glyph glyph-name="xi" unicode="&#x3be;" horiz-adv-x="473" 
d="M283 718q113 0 189 -52l-40 -104h-42q-22 58 -48 82.5t-67 24.5q-42 0 -65.5 -36.5t-23.5 -94.5q0 -43 19 -81.5t53 -58.5l128 31q5 -12 5 -51q0 -35 -7 -53l-134 29q-26 -8 -48 -41t-22 -81q0 -31 12.5 -53t35.5 -34.5t39.5 -17.5t39.5 -10q102 -21 145 -41
q7 -62 -18.5 -134t-52.5 -103l-35 16q24 75 20 116q-31 14 -112 24q-122 15 -180 64.5t-58 146.5q0 65 56 116t131 64v5q-72 15 -117 52t-45 91q0 76 70 130t172 54z" />
    <glyph glyph-name="omicron" unicode="&#x3bf;" horiz-adv-x="545" 
d="M521 225q0 -94 -77 -163.5t-176 -69.5q-55 0 -96 10t-76 34t-53.5 70.5t-18.5 113.5q0 108 76 178.5t176 70.5q245 0 245 -244zM356 213q0 54 -6.5 98t-28 79t-55.5 35q-78 0 -78 -184q0 -90 22.5 -147t64.5 -57q43 0 62 51t19 125z" />
    <glyph glyph-name="pi" unicode="&#x3c0;" horiz-adv-x="623" 
d="M559 459v-101h-69v-135q0 -100 18 -137t61 -37q9 0 19 3l4 -25q-48 -35 -124 -35t-98.5 34t-22.5 127v205h-150v-254q0 -47 -23.5 -80t-63.5 -33q-55 0 -79 35l3 23q30 -1 47 3t33 20t23 51t7 93v142h-119v18l53 83h481z" />
    <glyph glyph-name="rho" unicode="&#x3c1;" horiz-adv-x="557" 
d="M212 -207h-152v421q0 106 81 180t166 74q234 0 234 -221q0 -112 -79 -183.5t-186 -71.5q-27 0 -64 7v-206zM212 235v-174q44 -23 86 -23q38 0 58 53t20 130q0 200 -89 200q-40 0 -57.5 -40.5t-17.5 -145.5z" />
    <glyph glyph-name="sigma1" unicode="&#x3c2;" horiz-adv-x="487" 
d="M181 0q-76 19 -120.5 76t-44.5 141q0 111 74.5 181t177.5 70q107 0 189 -46l-16 -103h-47q-12 56 -43.5 83t-72.5 27q-47 0 -78.5 -41.5t-31.5 -126.5q0 -82 36 -114.5t122 -48.5q69 -14 118 -34q7 -62 -17 -131t-51 -100l-35 18q24 76 20 120q-13 3 -82 12.5t-98 16.5z
" />
    <glyph glyph-name="sigma" unicode="&#x3c3;" horiz-adv-x="549" 
d="M544 459l5 -101l-26 -10q-28 10 -158 44q45 -29 82 -78.5t37 -98.5q0 -114 -74 -168.5t-175 -54.5q-98 0 -158.5 56.5t-60.5 170.5q0 74 46 133.5t108 88t121 28.5q93 0 253 -10zM343 208q0 108 -27 188q-20 7 -40 7q-56 0 -85.5 -33.5t-29.5 -127.5q0 -208 101 -208
q39 0 60 45t21 129z" />
    <glyph glyph-name="tau" unicode="&#x3c4;" horiz-adv-x="460" 
d="M434 459v-111h-179v-217q0 -80 82 -80q33 0 81 13l7 -33q-25 -16 -75 -27.5t-94 -11.5q-56 0 -103.5 32.5t-47.5 94.5q0 86 115 229h-219v18l53 93h380z" />
    <glyph glyph-name="upsilon" unicode="&#x3c5;" horiz-adv-x="556" 
d="M247 393v-237q0 -122 81 -122q47 0 71 80.5t20 161.5q-3 41 -10 73l-64 64v29q100 26 130 26q65 -49 65 -171q0 -74 -28 -142.5t-85.5 -115.5t-130.5 -47q-95 0 -148 50.5t-53 138.5v176q0 25 -11 36.5t-38 11.5q-14 0 -34 -3l-7 33q74 33 171 33q34 0 52.5 -19.5
t18.5 -55.5z" />
    <glyph glyph-name="phi" unicode="&#x3c6;" horiz-adv-x="709" 
d="M289 601h137l-4 -135q271 -22 271 -241q0 -107 -77.5 -163.5t-206.5 -66.5l-5 -202h-114l-1 201q-273 18 -273 226q0 108 73.5 170t199.5 75v136zM528 213q0 176 -108 214l-9 -394q117 34 117 180zM180 241q0 -97 28.5 -143.5t80.5 -62.5v394q-50 -15 -79.5 -63
t-29.5 -125z" />
    <glyph glyph-name="chi" unicode="&#x3c7;" horiz-adv-x="526" 
d="M-10 -207v46l196 254l-109 257q-13 31 -35 40q-19 10 -51 5l-4 30q38 22 71 32.5t84 10.5q32 0 53 -19t38 -60l74 -181l79 251h115v-64l-179 -213l111 -258q24 -54 69 -63q21 -3 41 2l1 -29q-21 -20 -59 -34t-81 -14q-81 0 -121 93l-83 184l-91 -270h-119z" />
    <glyph glyph-name="psi" unicode="&#x3c8;" horiz-adv-x="748" 
d="M339 601h137l-14 -565q114 43 131 237q3 33 -2 76l-64 64v29q110 26 140 26q65 -49 65 -171q0 -100 -77 -190t-196 -112l-5 -202h-114l-1 198q-116 12 -180 73.5t-64 145.5v147q0 25 -11 36.5t-38 11.5q-14 0 -34 -3l-7 33q74 33 168 33q34 0 52.5 -19.5t18.5 -55.5v-196
q0 -64 25.5 -105.5t69.5 -55.5v565z" />
    <glyph glyph-name="omega" unicode="&#x3c9;" horiz-adv-x="761" 
d="M741 217q0 -93 -73 -159t-166 -66q-50 0 -84.5 39.5t-45.5 89.5q-16 -54 -55 -91.5t-101 -37.5q-94 0 -145 56t-51 156q0 80 60.5 157t136.5 108l47 -23q-46 -52 -65.5 -105t-19.5 -120q0 -181 66 -181q19 0 36 15t27 37t14.5 35.5t6.5 21.5q-17 79 -17 169q15 9 67 9
q43 0 56 -9q0 -117 -17 -169l6 -22t12.5 -34.5t25 -38t34.5 -14.5q27 0 48 30t30 68.5t9 74.5q0 142 -86 232l55 24q70 -27 129.5 -96.5t59.5 -155.5z" />
    <glyph glyph-name="iotadieresis" unicode="&#x3ca;" horiz-adv-x="317" 
d="M-9 587q0 26 16 42.5t41 16.5t42 -17t17 -42q0 -24 -17 -40.5t-42 -16.5t-41 16.5t-16 40.5zM168 587q0 25 17 42t42 17q24 0 40.5 -17t16.5 -42q0 -24 -16.5 -40.5t-40.5 -16.5q-25 0 -42 16.5t-17 40.5zM60 89v370h152v-357q0 -25 11 -36.5t38 -11.5q13 0 46 5l7 -33
q-57 -34 -153 -34q-101 0 -101 97z" />
    <glyph glyph-name="upsilondieresis" unicode="&#x3cb;" horiz-adv-x="556" 
d="M142 587q0 26 16 42.5t41 16.5t42 -17t17 -42q0 -24 -17 -40.5t-42 -16.5t-41 16.5t-16 40.5zM319 587q0 25 16.5 42t42.5 17q24 0 40.5 -17t16.5 -42q0 -24 -16.5 -40.5t-40.5 -16.5q-25 0 -42 16.5t-17 40.5zM247 393v-237q0 -122 81 -122q47 0 71 80.5t20 161.5
q-3 41 -10 73l-64 64v29q100 26 130 26q65 -49 65 -171q0 -74 -28 -142.5t-85.5 -115.5t-130.5 -47q-95 0 -148 50.5t-53 138.5v176q0 25 -11 36.5t-38 11.5q-14 0 -34 -3l-7 33q74 33 171 33q34 0 52.5 -19.5t18.5 -55.5z" />
    <glyph glyph-name="omicrontonos" unicode="&#x3cc;" horiz-adv-x="545" 
d="M521 225q0 -94 -77 -163.5t-176 -69.5q-55 0 -96 10t-76 34t-53.5 70.5t-18.5 113.5q0 108 76 178.5t176 70.5q245 0 245 -244zM356 213q0 54 -6.5 98t-28 79t-55.5 35q-78 0 -78 -184q0 -90 22.5 -147t64.5 -57q43 0 62 51t19 125zM251 707h114l6 -8l-117 -192l-23 2z
" />
    <glyph glyph-name="upsilontonos" unicode="&#x3cd;" horiz-adv-x="556" 
d="M265 707h114l6 -8l-117 -192l-23 2zM247 393v-237q0 -122 81 -122q47 0 71 80.5t20 161.5q-3 41 -10 73l-64 64v29q100 26 130 26q65 -49 65 -171q0 -74 -28 -142.5t-85.5 -115.5t-130.5 -47q-95 0 -148 50.5t-53 138.5v176q0 25 -11 36.5t-38 11.5q-14 0 -34 -3l-7 33
q74 33 171 33q34 0 52.5 -19.5t18.5 -55.5z" />
    <glyph glyph-name="omegatonos" unicode="&#x3ce;" horiz-adv-x="761" 
d="M741 217q0 -93 -73 -159t-166 -66q-50 0 -84.5 39.5t-45.5 89.5q-16 -54 -55 -91.5t-101 -37.5q-94 0 -145 56t-51 156q0 80 60.5 157t136.5 108l47 -23q-46 -52 -65.5 -105t-19.5 -120q0 -181 66 -181q19 0 36 15t27 37t14.5 35.5t6.5 21.5q-17 79 -17 169q15 9 67 9
q43 0 56 -9q0 -117 -17 -169l6 -22t12.5 -34.5t25 -38t34.5 -14.5q27 0 48 30t30 68.5t9 74.5q0 142 -86 232l55 24q70 -27 129.5 -96.5t59.5 -155.5zM368 707h114l6 -8l-117 -192l-23 2z" />
    <glyph glyph-name="uni03D8" unicode="&#x3d8;" horiz-adv-x="686" 
d="M655 314q0 -123 -69 -210.5t-187 -106.5v-203h-131v204q-109 17 -173 89t-64 188q0 144 89 230.5t232 86.5q141 0 222 -72t81 -206zM464 295q0 138 -27 199t-92 61q-69 0 -96.5 -59.5t-27.5 -199.5q0 -136 27 -201t91 -65q74 0 99.5 63t25.5 202z" />
    <glyph glyph-name="uni03D9" unicode="&#x3d9;" horiz-adv-x="545" 
d="M521 225q0 -94 -48.5 -150t-127.5 -75v-206h-131v201q-90 9 -140 60.5t-50 164.5q0 121 74 185t178 64q245 0 245 -244zM356 213q0 54 -6.5 99t-28 81t-55.5 36q-78 0 -78 -188q0 -90 22.5 -149.5t64.5 -59.5q29 0 48 28.5t26 67t7 85.5z" />
    <glyph glyph-name="uni03DA" unicode="&#x3da;" horiz-adv-x="457" 
d="M420 373h-135q-33 0 -55.5 -11.5t-32.5 -32.5t-14 -42t-4 -49q0 -64 33.5 -102t84.5 -42l113 -10q18 -2 25.5 -21t7.5 -38q0 -40 -30 -123.5t-56 -113.5l-49 13q19 41 41.5 108.5t22.5 90.5h-88q-118 0 -188 55.5t-70 173.5q0 94 79 157.5t171 63.5l118 25h26v-102z" />
    <glyph glyph-name="uni03DB" unicode="&#x3db;" horiz-adv-x="457" 
d="M420 373h-135q-33 0 -55.5 -11.5t-32.5 -32.5t-14 -42t-4 -49q0 -64 33.5 -102t84.5 -42l113 -10q18 -2 25.5 -21t7.5 -38q0 -40 -30 -123.5t-56 -113.5l-49 13q19 41 41.5 108.5t22.5 90.5h-88q-118 0 -188 55.5t-70 173.5q0 94 79 157.5t171 63.5l118 25h26v-102z" />
    <glyph glyph-name="uni03DC" unicode="&#x3dc;" horiz-adv-x="512" 
d="M96 0v583h411v-36h-240v-233l186 12v-59l-186 12v-279h-171z" />
    <glyph glyph-name="uni03DD" unicode="&#x3dd;" horiz-adv-x="482" 
d="M96 -208v667h371v-36h-200v-233l146 12v-59l-146 12v-363h-171z" />
    <glyph glyph-name="uni03DE" unicode="&#x3de;" horiz-adv-x="427" 
d="M242 -88h-58l105 296h-275l150 375h57l-87 -224h280z" />
    <glyph glyph-name="uni03DF" unicode="&#x3df;" horiz-adv-x="427" 
d="M274 0h-58l78 217h-275l145 366h57l-82 -215h280z" />
    <glyph glyph-name="uni03E0" unicode="&#x3e0;" horiz-adv-x="663" 
d="M614 -82v-115h-125v84q-2 138 -41 256l-231 -172l-32 36l247 177q-12 22 -36 60t-33 50l-257 -186l-26 34l251 182q-56 61 -128 98.5t-141 38.5h-83v45h106q107 0 194.5 -30.5t148 -84t102.5 -128t62 -161t22 -184.5z" />
    <glyph glyph-name="uni03E1" unicode="&#x3e1;" horiz-adv-x="513" 
d="M421 -254l-106 41q44 131 46 225q0 40 -3 67l-251 -100l-14 29l260 106q-4 34 -16.5 74.5t-26.5 59.5l-271 -110l-13 33l268 105q-107 153 -307 207l11 42q112 -24 197.5 -63t139 -84.5t86.5 -103.5t46 -116t13 -125q0 -110 -59 -287z" />
    <glyph glyph-name="uni0400" unicode="&#x400;" horiz-adv-x="556" 
d="M473 274l-206 3v-240h155l100 144l23 -4l-30 -177h-494v19l75 13v516l-75 15v20h496v-162h-23l-75 126h-152v-228l206 4v-49zM183 663l38 84l176 -113l-7 -15z" />
    <glyph glyph-name="afii10023" unicode="&#x401;" horiz-adv-x="556" 
d="M473 274l-206 3v-240h155l100 144l23 -4l-30 -177h-494v19l75 13v516l-75 15v20h496v-162h-23l-75 126h-152v-228l206 4v-49zM167 677q0 23 14.5 38t36.5 15q23 0 38 -15t15 -38q0 -22 -15 -36.5t-38 -14.5q-22 0 -36.5 14.5t-14.5 36.5zM344 677q0 23 15 38t38 15
q22 0 36.5 -15t14.5 -38q0 -22 -14.5 -36.5t-36.5 -14.5q-23 0 -38 14.5t-15 36.5z" />
    <glyph glyph-name="afii10051" unicode="&#x402;" horiz-adv-x="717" 
d="M354 547v-221q76 17 131 17q106 0 159 -45.5t53 -128.5q0 -88 -54 -133t-132 -45q-68 0 -110 21v113h22l58 -89q2 -1 6 -1q18 0 25.5 44.5t7.5 78.5q0 142 -101 142q-31 0 -65 -10v-290h-244v19l73 13v515h-51l-99 -176h-23v212h559v-182h-22l-85 146h-108z" />
    <glyph glyph-name="afii10052" unicode="&#x403;" horiz-adv-x="512" 
d="M265 547v-513l72 -14v-20h-316v19l73 13v517l-73 14v20h481v-212h-22l-99 176h-116zM400 746l38 -84l-209 -42l-7 16z" />
    <glyph glyph-name="afii10053" unicode="&#x404;" horiz-adv-x="604" 
d="M577 404h-25l-79 136q-31 14 -68 14q-81 0 -130 -67.5t-54 -173.5l244 7v-55l-244 6q4 -105 50 -173t136 -68q43 0 87 30.5t61 67.5h22v-95q-30 -17 -87 -29.5t-112 -12.5q-69 0 -128.5 15t-110 46.5t-79.5 88t-29 132.5q0 155 100.5 236.5t263.5 81.5q97 0 182 -33v-154
z" />
    <glyph glyph-name="afii10054" unicode="&#x405;" horiz-adv-x="499" 
d="M429 397l-62 134q-48 23 -95 23q-48 0 -79 -26t-31 -62q0 -62 134 -105q32 -10 52.5 -18t48 -23.5t43 -34t27 -47t11.5 -64.5q0 -94 -69 -138t-188 -44q-92 0 -194 40v169h26l60 -142q59 -30 115 -30q44 0 75.5 25.5t31.5 63.5q0 9 -3 17.5t-9.5 16t-13 14t-18.5 13
t-21 11.5t-24.5 11.5t-25 10t-27 10.5t-26.5 10q-63 24 -99.5 63t-36.5 109q0 90 65.5 138.5t169.5 48.5q114 0 188 -38v-156h-25z" />
    <glyph glyph-name="afii10055" unicode="&#x406;" horiz-adv-x="372" 
d="M28 0v19l75 13v516l-75 15v20h316v-19l-70 -13v-518l70 -13v-20h-316z" />
    <glyph glyph-name="afii10056" unicode="&#x407;" horiz-adv-x="372" 
d="M28 0v19l75 13v516l-75 15v20h316v-19l-70 -13v-518l70 -13v-20h-316zM50 677q0 23 14.5 38t36.5 15q23 0 38 -15t15 -38q0 -22 -15 -36.5t-38 -14.5q-22 0 -36.5 14.5t-14.5 36.5zM227 677q0 23 15 38t38 15q22 0 36.5 -15t14.5 -38q0 -22 -14.5 -36.5t-36.5 -14.5
q-23 0 -38 14.5t-15 36.5z" />
    <glyph glyph-name="afii10057" unicode="&#x408;" horiz-adv-x="442" 
d="M176 -9q-84 0 -173 33v183h22l72 -160q30 -16 50 -16q32 0 43 27t11 100v390l-75 15v20h316v-19l-70 -13v-390q0 -75 -59 -122.5t-137 -47.5z" />
    <glyph glyph-name="afii10058" unicode="&#x409;" horiz-adv-x="858" 
d="M607 583v-19l-72 -13v-210h85q107 0 169 -42.5t62 -128.5q0 -77 -69.5 -123.5t-200.5 -46.5h-290v19l73 13v515h-108q-23 -286 -67 -431q-18 -58 -54.5 -91t-114.5 -33v122l16 6h113q57 191 67 424l-91 19v20h482zM535 305v-269h15q61 0 87 31.5t26 100.5q0 71 -28.5 103
t-87.5 34h-12z" />
    <glyph glyph-name="afii10059" unicode="&#x40a;" horiz-adv-x="962" 
d="M393 0v19l75 13v252h-201v-251l70 -13v-20h-316v19l75 13v516l-75 15v20h316v-19l-70 -13v-231h201v228l-75 15v20h318v-19l-72 -13v-231h85q107 0 169 -40t62 -120q0 -72 -69.5 -116t-200.5 -44h-292zM651 284h-12v-248h15q61 0 87 29t26 93q0 65 -28.5 94.5t-87.5 31.5
z" />
    <glyph glyph-name="afii10060" unicode="&#x40b;" horiz-adv-x="767" 
d="M456 0v19l59 12v164q0 17 -1 29t-6.5 27.5t-15.5 25t-28 16.5t-44 7q-30 0 -66 -9v-259l58 -12v-20h-302v19l73 13v515h-51l-99 -176h-23v212h559v-182h-22l-85 146h-108v-219q75 15 128 15q117 0 167 -52q36 -37 36 -117v-140l72 -14v-20h-301z" />
    <glyph glyph-name="afii10061" unicode="&#x40c;" horiz-adv-x="686" 
d="M21 0v19l73 13v517l-73 14v20h316v-19l-72 -13v-236h79l74 165q28 64 60 87.5t75 23.5q24 0 70 -10l-29 -129h-15l-106 55l-56 -127l211 -343l49 -19v-18h-220l-153 279h-39v-246l62 -13v-20h-306zM467 746l38 -84l-209 -42l-7 16z" />
    <glyph glyph-name="uni040D" unicode="&#x40d;" horiz-adv-x="750" 
d="M267 129v-96l70 -13v-20h-316v19l75 13v516l-75 15v20h316v-19l-70 -13v-364l221 269v92l-75 15v20h316v-19l-70 -13v-518l70 -13v-20h-316v19l75 13v366zM243 663l38 84l176 -113l-7 -15z" />
    <glyph glyph-name="afii10062" unicode="&#x40e;" horiz-adv-x="597" 
d="M223 553l155 -269l103 259l-106 20v20h222v-19l-66 -14l-170 -400q-28 -65 -49 -95.5t-57 -46.5t-98 -16v98l16 6h121l9 20l-257 439l-41 8v20h284v-19zM320 658q-73 0 -130.5 28.5t-57.5 80.5l128 43h16v-116q17 -9 45 -9q26 0 45 9v116h16l126 -43q0 -52 -58.5 -80.5
t-129.5 -28.5z" />
    <glyph glyph-name="afii10145" unicode="&#x40f;" horiz-adv-x="717" 
d="M21 0v19l73 13v517l-73 14v20h306v-19l-62 -12v-516h188v514l-63 13v20h306v-19l-72 -13v-517l72 -14v-20h-267l26 -140h-193l25 140h-266z" />
    <glyph glyph-name="afii10017" unicode="&#x410;" horiz-adv-x="625" 
d="M355 0v19l59 10l-56 141h-199l-51 -124l113 -26v-20h-225v19l63 24l231 540h87l216 -557l36 -6v-20h-274zM257 409l-83 -203h170l-81 203h-6z" />
    <glyph glyph-name="afii10018" unicode="&#x411;" horiz-adv-x="582" 
d="M21 0v19l73 13v517l-73 14v20h486v-172h-22l-89 136h-131v-206h82q102 0 161 -43t59 -129q0 -77 -68.5 -123t-199.5 -46h-278zM281 305h-16v-268h7q122 0 122 132q0 136 -113 136z" />
    <glyph glyph-name="afii10019" unicode="&#x412;" horiz-adv-x="607" 
d="M21 0v19l75 13v516l-75 15v20h300q103 0 166 -37.5t63 -106.5q0 -46 -31 -83.5t-75 -54.5v-2q142 -18 142 -133q0 -75 -63 -120.5t-177 -45.5h-325zM281 277h-14v-240h14q65 0 98 35.5t33 90.5q0 62 -38 88t-93 26zM281 550h-14v-238h11q43 0 74 28.5t31 84.5
q0 57 -25 91t-77 34z" />
    <glyph glyph-name="afii10020" unicode="&#x413;" horiz-adv-x="512" 
d="M265 547v-513l72 -14v-20h-316v19l73 13v517l-73 14v20h481v-212h-22l-99 176h-116z" />
    <glyph glyph-name="afii10021" unicode="&#x414;" horiz-adv-x="643" 
d="M11 -168v204h80q38 101 72.5 245.5t47.5 261.5l-92 20v20h482v-19l-72 -13v-515h102v-204h-23l-99 168h-376l-99 -168h-23zM135 36h223v511h-105q-16 -133 -51 -280.5t-67 -230.5z" />
    <glyph glyph-name="afii10022" unicode="&#x415;" horiz-adv-x="556" 
d="M473 274l-206 3v-240h155l100 144l23 -4l-30 -177h-494v19l75 13v516l-75 15v20h496v-162h-23l-75 126h-152v-228l206 4v-49z" />
    <glyph glyph-name="afii10024" unicode="&#x416;" horiz-adv-x="965" 
d="M339 0v19l63 12v248h-39l-133 -279h-220v18l49 19l195 349l-46 121l-106 -55h-15l-29 129q46 10 70 10q44 0 74.5 -23t55.5 -88l65 -165h79v234l-63 14v20h286v-19l-62 -13v-236h79l65 165q25 65 55.5 88t74.5 23q24 0 70 -10l-29 -129h-15l-106 55l-46 -120l195 -350
l49 -19v-18h-220l-133 279h-39v-246l62 -13v-20h-286z" />
    <glyph glyph-name="afii10025" unicode="&#x417;" horiz-adv-x="536" 
d="M212 28q58 0 93.5 33t35.5 91q0 51 -25.5 82t-62.5 38l-105 -4v51l106 -5q63 40 63 120q0 58 -28 89.5t-75 31.5q-42 0 -62 -8l-82 -144h-25v155q107 33 210 33q102 0 170 -40t68 -112q0 -47 -30.5 -82.5t-82.5 -51.5v-4q26 -5 53.5 -18.5t54.5 -47.5t27 -80
q0 -79 -68.5 -121t-197.5 -42q-116 0 -211 42v100h27q16 -44 54 -75t93 -31z" />
    <glyph glyph-name="afii10026" unicode="&#x418;" horiz-adv-x="750" 
d="M267 129v-96l70 -13v-20h-316v19l75 13v516l-75 15v20h316v-19l-70 -13v-364l221 269v92l-75 15v20h316v-19l-70 -13v-518l70 -13v-20h-316v19l75 13v366z" />
    <glyph glyph-name="afii10027" unicode="&#x419;" horiz-adv-x="750" 
d="M267 129v-96l70 -13v-20h-316v19l75 13v516l-75 15v20h316v-19l-70 -13v-364l221 269v92l-75 15v20h316v-19l-70 -13v-518l70 -13v-20h-316v19l75 13v366zM373 658q-73 0 -130.5 28.5t-57.5 80.5l128 43h16v-116q17 -9 45 -9q26 0 45 9v116h16l126 -43q0 -52 -58.5 -80.5
t-129.5 -28.5z" />
    <glyph glyph-name="afii10028" unicode="&#x41a;" horiz-adv-x="686" 
d="M21 0v19l73 13v517l-73 14v20h316v-19l-72 -13v-236h79l74 165q28 64 60 87.5t75 23.5q24 0 70 -10l-29 -129h-15l-106 55l-56 -127l211 -343l49 -19v-18h-220l-153 279h-39v-246l62 -13v-20h-306z" />
    <glyph glyph-name="afii10029" unicode="&#x41b;" horiz-adv-x="628" 
d="M291 0v19l73 13v515h-108q-23 -286 -67 -431q-18 -58 -54.5 -91t-114.5 -33v122l16 6h113q57 191 67 425l-91 18v20h482v-19l-72 -13v-517l72 -14v-20h-316z" />
    <glyph glyph-name="afii10030" unicode="&#x41c;" horiz-adv-x="855" 
d="M560 0v19l60 11l-35 423h-6l-173 -462h-68l-172 462h-6l-30 -409l85 -24v-20h-205v19l73 26l51 500l-87 18v20h245l147 -376l150 376h228v-20l-81 -19l54 -517l55 -7v-20h-285z" />
    <glyph glyph-name="afii10031" unicode="&#x41d;" horiz-adv-x="730" 
d="M393 0v19l75 13v252h-201v-251l70 -13v-20h-316v19l75 13v516l-75 15v20h316v-19l-70 -13v-231h201v228l-75 15v20h316v-19l-70 -13v-518l70 -13v-20h-316z" />
    <glyph glyph-name="afii10032" unicode="&#x41e;" horiz-adv-x="686" 
d="M655 314q0 -140 -87 -231t-232 -91q-138 0 -221.5 75t-83.5 208q0 144 89 230t232 86q141 0 222 -71.5t81 -205.5zM464 295q0 138 -27 198.5t-92 60.5q-69 0 -96.5 -59t-27.5 -199q0 -136 27 -201t91 -65q74 0 99.5 63t25.5 202z" />
    <glyph glyph-name="afii10033" unicode="&#x41f;" horiz-adv-x="717" 
d="M21 0v19l73 13v517l-73 14v20h675v-19l-72 -13v-517l72 -14v-20h-306v19l63 12v516h-188v-514l62 -13v-20h-306z" />
    <glyph glyph-name="afii10034" unicode="&#x420;" horiz-adv-x="588" 
d="M21 0v19l75 13v516l-75 15v20h329q107 0 169 -47t62 -141q0 -84 -68.5 -130.5t-201.5 -46.5h-44v-185l70 -13v-20h-316zM277 545h-10v-287h13q113 0 113 144q0 140 -116 143z" />
    <glyph glyph-name="afii10035" unicode="&#x421;" horiz-adv-x="604" 
d="M577 404h-25l-79 136q-31 14 -68 14q-85 0 -134.5 -73t-49.5 -188q0 -72 17.5 -129t61 -95t107.5 -38q43 0 87 30.5t61 67.5h22v-95q-30 -17 -87 -29.5t-112 -12.5q-69 0 -128.5 15t-110 46.5t-79.5 88t-29 132.5q0 155 100.5 236t263.5 81q97 0 182 -33v-154z" />
    <glyph glyph-name="afii10036" unicode="&#x422;" horiz-adv-x="579" 
d="M130 0v19l75 13v515h-73l-99 -176h-23v212h559v-212h-22l-99 176h-72v-514l70 -13v-20h-316z" />
    <glyph glyph-name="afii10037" unicode="&#x423;" horiz-adv-x="597" 
d="M223 553l155 -269l103 259l-106 20v20h222v-19l-66 -14l-170 -400q-28 -65 -49 -95.5t-57 -46.5t-98 -16v98l16 6h121l9 20l-257 439l-41 8v20h284v-19z" />
    <glyph glyph-name="afii10038" unicode="&#x424;" horiz-adv-x="772" 
d="M227 0v19l79 14v63q-143 5 -214.5 51t-71.5 139q0 96 74 152t212 67v64l-79 15v20h316v-19l-78 -14v-65q287 -10 287 -192q0 -93 -72 -150t-215 -67v-62l78 -15v-20h-316zM579 305q0 77 -31 122t-83 49v-350q53 4 83.5 52.5t30.5 126.5zM192 298q0 -77 30.5 -122.5
t83.5 -49.5v350q-52 -4 -83 -53t-31 -125z" />
    <glyph glyph-name="afii10039" unicode="&#x425;" horiz-adv-x="612" 
d="M328 0v19l59 12l-122 198l-125 -186l101 -23v-20h-233v19l65 15l169 232l-179 288l-44 9v20h274v-19l-51 -9l102 -162l98 148l-72 22v20h212v-19l-92 -28l-126 -176l207 -332l41 -8v-20h-284z" />
    <glyph glyph-name="afii10040" unicode="&#x426;" horiz-adv-x="737" 
d="M21 0v19l73 13v517l-73 14v20h306v-19l-62 -12v-516h188v514l-63 13v20h306v-19l-72 -13v-515h102v-204h-23l-99 168h-583z" />
    <glyph glyph-name="afii10041" unicode="&#x427;" horiz-adv-x="673" 
d="M326 0v19l83 14v222q-66 -13 -128 -13q-118 0 -167 51q-36 36 -36 115v142l-63 13v20h291v-19l-58 -12v-164q0 -22 2.5 -37.5t11 -33.5t29 -27.5t52.5 -9.5q28 0 66 8v262l-58 13v20h301v-19l-72 -13v-517l72 -14v-20h-326z" />
    <glyph glyph-name="afii10042" unicode="&#x428;" horiz-adv-x="1062" 
d="M21 0v19l73 13v517l-73 14v20h306v-19l-62 -12v-516h180v514l-63 13v20h296v-19l-62 -12v-516h182v514l-63 13v20h306v-19l-72 -13v-517l72 -14v-20h-1020z" />
    <glyph glyph-name="afii10043" unicode="&#x429;" horiz-adv-x="1081" 
d="M21 0v19l73 13v517l-73 14v20h306v-19l-62 -12v-516h180v514l-63 13v20h296v-19l-62 -12v-516h182v514l-63 13v20h306v-19l-72 -13v-515h96v-204h-23l-99 168h-922z" />
    <glyph glyph-name="afii10044" unicode="&#x42a;" horiz-adv-x="687" 
d="M11 371v212h425v-19l-72 -13v-210h85q107 0 169 -42.5t62 -128.5q0 -77 -69.5 -123.5t-200.5 -46.5h-290v19l73 13v515h-60l-99 -176h-23zM376 305h-12v-269h15q61 0 87 31.5t26 100.5q0 71 -28.5 103t-87.5 34z" />
    <glyph glyph-name="afii10045" unicode="&#x42b;" horiz-adv-x="917" 
d="M21 0v19l73 13v517l-73 14v20h316v-19l-72 -13v-210h85q107 0 169 -42.5t62 -128.5q0 -77 -69.5 -123.5t-200.5 -46.5h-290zM580 0v19l73 13v517l-73 14v20h316v-19l-72 -13v-517l72 -14v-20h-316zM265 305v-269h15q61 0 87 31.5t26 100.5q0 71 -28.5 103t-87.5 34h-12z
" />
    <glyph glyph-name="afii10046" unicode="&#x42c;" horiz-adv-x="601" 
d="M21 0v19l73 13v517l-73 14v20h316v-19l-72 -13v-210h85q107 0 169 -42.5t62 -128.5q0 -77 -69.5 -123.5t-200.5 -46.5h-290zM265 305v-269h15q61 0 87 31.5t26 100.5q0 71 -28.5 103t-87.5 34h-12z" />
    <glyph glyph-name="afii10047" unicode="&#x42d;" horiz-adv-x="608" 
d="M578 295q0 -128 -97.5 -215.5t-238.5 -87.5q-74 0 -133 15.5t-76 27.5v99h27q44 -106 154 -106q67 0 115.5 63.5t55.5 180.5l-235 -6v55l235 -7q-6 119 -58 180t-128 61q-33 0 -61 -12l-80 -140h-25v155q96 33 189 33q164 0 260 -74t96 -222z" />
    <glyph glyph-name="afii10048" unicode="&#x42e;" horiz-adv-x="1015" 
d="M984 314q0 -140 -87 -231t-232 -91q-131 0 -214 69t-90 192q-1 5 -1 16h-95v-235l72 -14v-20h-316v19l73 13v517l-73 14v20h316v-19l-72 -13v-246h96q10 131 97.5 208.5t222.5 77.5q141 0 222 -71.5t81 -205.5zM793 295q0 138 -27 198.5t-92 60.5q-69 0 -96.5 -59
t-27.5 -199q0 -136 27 -201t91 -65q74 0 99.5 63t25.5 202z" />
    <glyph glyph-name="afii10049" unicode="&#x42f;" horiz-adv-x="659" 
d="M332 0v19l63 12v218h-24l-133 -249h-227v18l55 19l149 224q-128 39 -128 146q0 89 60 132.5t158 43.5h333v-19l-72 -13v-517l72 -14v-20h-306zM259 418q0 -69 28 -101t74 -32h34v262h-38q-45 0 -71.5 -33t-26.5 -96z" />
    <glyph glyph-name="afii10065" unicode="&#x430;" horiz-adv-x="499" 
d="M96 309h-55v121q36 16 102.5 27.5t109.5 11.5q87 0 135 -40t48 -114v-264l58 -29v-22h-185l-23 67q-72 -75 -149 -75q-54 0 -90.5 30t-36.5 86q0 67 65 102t168 35h41v90q0 46 -22 71.5t-60 25.5q-14 0 -36 -8zM284 86v127h-28q-85 0 -85 -72q0 -31 21.5 -46t52.5 -15
q21 0 39 6z" />
    <glyph glyph-name="afii10066" unicode="&#x431;" horiz-adv-x="551" 
d="M527 213q0 -94 -72.5 -157.5t-182.5 -63.5q-242 0 -242 304q0 90 38 167t106 121q52 34 157 49q13 2 51.5 8t55.5 10l59 43l18 -13l-72 -138q-32 -6 -101 -8q-119 -6 -128 -17q-19 -39 -21 -135q69 42 145 42q86 0 137.5 -53t51.5 -159zM261 360q-34 0 -68 -8v-60
q0 -133 19.5 -196.5t70.5 -63.5q79 0 79 163q0 88 -24 126.5t-77 38.5z" />
    <glyph glyph-name="afii10067" unicode="&#x432;" horiz-adv-x="530" 
d="M284 459q207 0 207 -116q0 -39 -25.5 -67t-72.5 -40v-1q25 -3 49.5 -11.5t48.5 -34t24 -61.5q0 -128 -219 -128h-276v19l67 13v392l-67 15v20h264zM270 214h-31v-174h31q81 0 81 89q0 43 -18 64t-63 21zM253 419h-14v-165h14q37 0 55 20t18 66q0 45 -17.5 62t-55.5 17z
" />
    <glyph glyph-name="afii10068" unicode="&#x433;" horiz-adv-x="448" 
d="M334 419h-95v-384l77 -15v-20h-296v19l67 13v392l-67 15v20h418v-167h-31z" />
    <glyph glyph-name="afii10069" unicode="&#x434;" horiz-adv-x="543" 
d="M419 0h-310l-73 -127h-31v167h64q34 73 61 181.5t38 197.5l-87 20v20h430v-19l-67 -14v-386h79v-167h-31zM116 40h176v379h-84q-9 -89 -36.5 -203.5t-55.5 -175.5z" />
    <glyph glyph-name="afii10070" unicode="&#x435;" horiz-adv-x="521" 
d="M505 233h-318q0 -10 1 -15q7 -73 51 -108.5t100 -35.5q65 0 133 28l10 -12q-32 -40 -93 -69t-127 -29q-109 0 -173.5 57.5t-64.5 167.5q0 116 78 184t185 68q103 0 160.5 -62.5t57.5 -173.5zM269 431q-76 0 -82 -164l154 10q-1 61 -19 107.5t-53 46.5z" />
    <glyph glyph-name="afii10072" unicode="&#x436;" horiz-adv-x="810" 
d="M277 0v19l57 12v178h-37l-99 -209h-188v20l48 34l142 241l-43 99l-94 -63h-15l-11 131q30 7 56 7q43 0 65.5 -19t50.5 -76l60 -125h65v175l-67 15v20h276v-19l-67 -14v-177h64l61 125q28 57 50.5 76t65.5 19q26 0 56 -7l-11 -131h-15l-94 63l-43 -99l142 -241l48 -34v-20
h-188l-99 209h-37v-176l57 -13v-20h-256z" />
    <glyph glyph-name="afii10073" unicode="&#x437;" horiz-adv-x="463" 
d="M224 469q102 0 154 -32t52 -92q0 -37 -27.5 -65.5t-67.5 -36.5v-1q48 -9 80.5 -35.5t32.5 -76.5q0 -63 -59 -100.5t-172 -37.5q-95 0 -182 31v114h35q33 -105 122 -105q40 0 65.5 25t25.5 67q0 67 -55 85l-93 -3v46l93 -3q38 26 38 91q0 43 -19 66t-50 23q-42 0 -58 -14
l-50 -93h-45v119q79 28 180 28z" />
    <glyph glyph-name="afii10074" unicode="&#x438;" horiz-adv-x="670" 
d="M374 0v19l57 12v275l-192 -216v-57l57 -13v-20h-276v19l67 13v392l-67 15v20h276v-19l-57 -12v-278l192 216v60l-57 13v20h276v-19l-67 -14v-392l67 -14v-20h-276z" />
    <glyph glyph-name="afii10075" unicode="&#x439;" horiz-adv-x="670" 
d="M374 0v19l57 12v275l-192 -216v-57l57 -13v-20h-276v19l67 13v392l-67 15v20h276v-19l-57 -12v-278l192 216v60l-57 13v20h276v-19l-67 -14v-392l67 -14v-20h-276zM334 551q-153 0 -184 86l119 62h14v-110q21 -11 51 -11q33 0 51 11v110h14l119 -62q-16 -37 -64 -61.5
t-120 -24.5z" />
    <glyph glyph-name="afii10076" unicode="&#x43a;" horiz-adv-x="583" 
d="M306 459v-19l-67 -14v-177h64l65 125q28 55 53.5 75t68.5 20q26 0 56 -7l-11 -131h-15l-94 63l-53 -99l152 -241l48 -34v-20h-188l-109 209h-37v-176l57 -13v-20h-276v19l67 13v392l-67 15v20h286z" />
    <glyph glyph-name="afii10077" unicode="&#x43b;" horiz-adv-x="537" 
d="M169 423l-77 16v20h425v-19l-67 -14v-392l67 -14v-20h-286v19l67 13v387h-86q-17 -201 -53 -319q-17 -54 -50.5 -81t-98.5 -27v122l15 6h97q39 144 47 303z" />
    <glyph glyph-name="afii10078" unicode="&#x43c;" horiz-adv-x="744" 
d="M260 459l114 -320h4l104 320h196v-19l-56 -11l60 -396l62 -13v-20h-274v19l58 12l-38 302h-3l-118 -341h-76l-133 341h-3l-33 -290l62 -23v-20h-186v19l83 33l39 372l-70 15v20h208z" />
    <glyph glyph-name="afii10079" unicode="&#x43d;" horiz-adv-x="655" 
d="M359 0v19l57 12v178h-177v-176l57 -13v-20h-276v19l67 13v392l-67 15v20h276v-19l-57 -12v-179h177v177l-57 13v20h276v-19l-67 -14v-392l67 -14v-20h-276z" />
    <glyph glyph-name="afii10080" unicode="&#x43e;" horiz-adv-x="545" 
d="M521 225q0 -117 -72.5 -175t-180.5 -58q-55 0 -96 10t-76 34t-53.5 70.5t-18.5 113.5q0 121 74 185t178 64q245 0 245 -244zM356 213q0 54 -6.5 99t-28 81t-55.5 36q-78 0 -78 -188q0 -90 22.5 -149.5t64.5 -59.5q29 0 48 28.5t26 67t7 85.5z" />
    <glyph glyph-name="afii10081" unicode="&#x43f;" horiz-adv-x="635" 
d="M339 0v19l57 12v388h-157v-386l57 -13v-20h-276v19l67 13v392l-67 15v20h595v-19l-67 -14v-392l67 -14v-20h-276z" />
    <glyph glyph-name="afii10082" unicode="&#x440;" horiz-adv-x="580" 
d="M4 -208v19l71 14v576h-75v22l162 46h40l19 -47q64 47 140 47q91 0 143 -55.5t52 -166.5q0 -118 -83.5 -186.5t-194.5 -68.5q-17 0 -51 2v-166l85 -16v-20h-308zM260 404q-16 0 -33 -3v-365q18 -6 34 -6q65 0 97.5 55t32.5 145q0 72 -39.5 123t-91.5 51z" />
    <glyph glyph-name="afii10083" unicode="&#x441;" horiz-adv-x="484" 
d="M420 284l-77 139q-18 2 -27 2q-59 0 -94.5 -51.5t-35.5 -120.5q0 -75 42.5 -130t99.5 -55q40 0 67.5 7t63.5 27l10 -13q-26 -37 -85 -67t-124 -30q-104 0 -170 61t-66 164q0 111 74.5 181.5t177.5 70.5q107 0 189 -46v-139h-45z" />
    <glyph glyph-name="afii10084" unicode="&#x442;" horiz-adv-x="510" 
d="M406 419h-75v-385l67 -14v-20h-286v19l67 13v387h-74l-73 -127h-22v167h490v-167h-21z" />
    <glyph glyph-name="afii10085" unicode="&#x443;" horiz-adv-x="568" 
d="M322 19l-92 -226h-108v17l129 167l-198 453l-43 9v20h286v-19l-73 -15l107 -304l116 284l-86 34v20h203v-19l-67 -26z" />
    <glyph glyph-name="afii10086" unicode="&#x444;" horiz-adv-x="732" 
d="M229 -207v19l66 13v169q-271 19 -271 231q0 106 72 165.5t199 75.5v169h-75v22l162 46h55v-234q271 -21 271 -240q0 -204 -271 -234v-168l68 -14v-20h-276zM543 218q0 194 -106 217v-407q106 13 106 190zM295 28v407q-106 -15 -106 -195q0 -189 106 -212z" />
    <glyph glyph-name="afii10087" unicode="&#x445;" horiz-adv-x="583" 
d="M347 256l189 -228l37 -8v-20h-286v19l62 12l-93 145l-117 -134l84 -22v-20h-213v19l65 18l157 175l-171 218l-41 9v20h286v-19l-74 -15l90 -132l105 124l-74 22v20h203v-19l-71 -21z" />
    <glyph glyph-name="afii10088" unicode="&#x446;" horiz-adv-x="642" 
d="M610 459v-19l-67 -14v-386h79v-167h-31l-73 127h-498v19l67 13v392l-67 15v20h276v-19l-57 -12v-388h152v386l-57 13v20h276z" />
    <glyph glyph-name="afii10089" unicode="&#x447;" horiz-adv-x="592" 
d="M285 0v19l67 13v166q-66 -17 -132 -17q-81 0 -117 32q-37 33 -37 93v120l-57 13v20h256v-19l-47 -11v-133q0 -73 72 -73q29 0 62 10v194l-47 12v20h266v-19l-67 -14v-392l67 -14v-20h-286z" />
    <glyph glyph-name="afii10090" unicode="&#x448;" horiz-adv-x="842" 
d="M566 440v19h256v-20l-67 -15v-392l67 -13v-19h-802v19l67 13v392l-67 15v20h256v-19l-47 -12v-388h121v387l-47 12v20h236v-19l-47 -11v-389h121v388z" />
    <glyph glyph-name="afii10091" unicode="&#x449;" horiz-adv-x="854" 
d="M730 0h-710v19l67 13v392l-67 15v20h256v-19l-47 -12v-388h121v387l-47 12v20h236v-19l-47 -11v-389h121v388l-47 12v19h256v-20l-67 -15v-384h79v-167h-31z" />
    <glyph glyph-name="afii10092" unicode="&#x44a;" horiz-adv-x="575" 
d="M380 459v-19l-67 -14v-155h28q110 0 169.5 -30t59.5 -104q0 -62 -58.5 -99.5t-170.5 -37.5h-247v19l67 13v387h-56l-73 -127h-22v167h370zM313 231v-191h7q82 3 82 96q0 89 -82 95h-7z" />
    <glyph glyph-name="afii10093" unicode="&#x44b;" horiz-adv-x="804" 
d="M306 459v-19l-67 -14v-155h28q110 0 169.5 -30t59.5 -104q0 -62 -58.5 -99.5t-170.5 -37.5h-247v19l67 13v392l-67 15v20h286zM784 459v-19l-67 -14v-392l67 -14v-20h-286v19l67 13v392l-67 15v20h286zM239 231v-191h4q85 2 85 96q0 90 -83 95h-6z" />
    <glyph glyph-name="afii10094" unicode="&#x44c;" horiz-adv-x="501" 
d="M306 459v-19l-67 -14v-155h28q110 0 169.5 -30t59.5 -104q0 -62 -58.5 -99.5t-170.5 -37.5h-247v19l67 13v392l-67 15v20h286zM239 231v-191h4q85 2 85 96q0 90 -84 95h-5z" />
    <glyph glyph-name="afii10095" unicode="&#x44d;" horiz-adv-x="494" 
d="M35 137h35q34 -105 121 -105q48 0 81.5 44.5t35.5 130.5l-164 -3v46l164 -3q-4 87 -32 134.5t-74 47.5q-45 0 -67 -16l-47 -91h-46v119q74 28 178 28q121 0 185.5 -58.5t64.5 -171.5q0 -107 -68.5 -177t-181.5 -70q-106 0 -185 33v112z" />
    <glyph glyph-name="afii10096" unicode="&#x44e;" horiz-adv-x="848" 
d="M239 209v-175l67 -14v-20h-286v19l67 13v392l-67 15v20h286v-19l-67 -14v-177h89q10 107 82 163.5t169 56.5q245 0 245 -244q0 -117 -72.5 -175t-180.5 -58q-113 0 -177 47.5t-67 169.5h-88zM659 213q0 54 -6.5 99t-28 81t-55.5 36q-78 0 -78 -188q0 -90 22.5 -149.5
t64.5 -59.5q29 0 48 28.5t26 67t7 85.5z" />
    <glyph glyph-name="afii10097" unicode="&#x44f;" horiz-adv-x="569" 
d="M273 0v19l57 12v154h-38l-87 -185h-195v20l52 24l100 161q-97 31 -97 116q0 70 53.5 104t141.5 34h289v-19l-67 -14v-392l67 -14v-20h-276zM330 225v194h-11q-44 -1 -67 -26t-23 -70q0 -98 94 -98h7z" />
    <glyph glyph-name="uni0450" unicode="&#x450;" horiz-adv-x="521" 
d="M505 233h-318q3 -80 48 -119.5t104 -39.5q65 0 133 28l10 -12q-32 -40 -93 -69t-127 -29q-109 0 -173.5 57.5t-64.5 167.5q0 116 78 184t185 68q103 0 160.5 -62.5t57.5 -173.5zM269 431q-76 0 -82 -164l154 10q-1 61 -19 107.5t-53 46.5zM132 610l62 72l138 -157l-9 -13
z" />
    <glyph glyph-name="afii10071" unicode="&#x451;" horiz-adv-x="521" 
d="M505 233h-318q0 -10 1 -15q7 -73 51 -108.5t100 -35.5q65 0 133 28l10 -12q-32 -40 -93 -69t-127 -29q-109 0 -173.5 57.5t-64.5 167.5q0 116 78 184t185 68q103 0 160.5 -62.5t57.5 -173.5zM269 431q-76 0 -82 -164l154 10q-1 61 -19 107.5t-53 46.5zM117 587
q0 26 16 42.5t41 16.5t42 -17t17 -42q0 -24 -17 -40.5t-42 -16.5t-41 16.5t-16 40.5zM294 587q0 25 17 42t42 17q24 0 40.5 -17t16.5 -42q0 -24 -16.5 -40.5t-40.5 -16.5q-25 0 -42 16.5t-17 40.5z" />
    <glyph glyph-name="afii10099" unicode="&#x452;" horiz-adv-x="551" 
d="M231 326v-293l58 -13v-20h-276v19l66 13v443h-75v40h75v120h-75v22l162 46h65v-188h113v-40h-113v-126q29 25 74.5 44t84.5 19q79 0 117.5 -47t38.5 -121q0 -117 -68 -253.5t-144 -218.5l-29 17q78 179 78 416q0 140 -81 140q-35 0 -71 -19z" />
    <glyph glyph-name="afii10100" unicode="&#x453;" horiz-adv-x="448" 
d="M334 419h-95v-384l77 -15v-20h-296v19l67 13v392l-67 15v20h418v-167h-31zM324 682l62 -72l-190 -96l-10 11z" />
    <glyph glyph-name="afii10101" unicode="&#x454;" horiz-adv-x="484" 
d="M420 304l-63 116q-28 5 -41 5q-59 0 -94.5 -50.5t-35.5 -118.5v-6l186 3v-46l-181 3q12 -61 50.5 -101.5t86.5 -40.5q40 0 67.5 7t63.5 27l10 -13q-26 -37 -85 -67t-124 -30q-104 0 -170 61t-66 164q0 111 74.5 181.5t177.5 70.5q107 0 189 -46v-119h-45z" />
    <glyph glyph-name="afii10102" unicode="&#x455;" horiz-adv-x="451" 
d="M210 -9q-76 0 -185 21v137h43l67 -107q31 -13 67 -13q87 0 87 68q0 23 -27 39.5t-66 29.5t-78 30t-66 52t-27 85q0 45 34 77t81.5 45.5t101.5 13.5q107 0 180 -32v-113h-44l-60 96q-25 9 -60 9t-60 -17t-25 -42q0 -26 27 -43t65.5 -28.5t77.5 -27t66 -49.5t27 -86
q0 -63 -64 -104t-162 -41z" />
    <glyph glyph-name="afii10103" unicode="&#x456;" horiz-adv-x="312" 
d="M19 0v19l66 13v369h-75v22l162 46h65v-435l68 -14v-20h-286zM77 610q0 38 24 58t66 20q89 0 89 -78q0 -79 -89 -79q-41 0 -65.5 20.5t-24.5 58.5z" />
    <glyph glyph-name="afii10104" unicode="&#x457;" horiz-adv-x="312" 
d="M19 0v19l66 13v369h-75v22l162 46h65v-435l68 -14v-20h-286zM176 609q0 33 21.5 54t53.5 21q31 0 52.5 -21t21.5 -54q0 -31 -21.5 -52.5t-52.5 -21.5q-32 0 -53.5 21t-21.5 53zM-13 609q0 33 21 54t53 21t53.5 -21t21.5 -54q0 -31 -21.5 -52.5t-53.5 -21.5t-53 21t-21 53
z" />
    <glyph glyph-name="afii10105" unicode="&#x458;" horiz-adv-x="293" 
d="M35 -198l-12 14q38 36 50 77t12 111v397h-75v22l162 46h65v-442q0 -68 -51 -129.5t-151 -95.5zM165 531q-41 0 -65.5 20.5t-24.5 58.5t24 58t66 20q89 0 89 -78q0 -79 -89 -79z" />
    <glyph glyph-name="afii10106" unicode="&#x459;" horiz-adv-x="712" 
d="M231 0v19l67 13v387h-86q-17 -201 -53 -319q-17 -54 -50.5 -81t-98.5 -27v122l15 6h97q39 144 47 303l-77 16v20h425v-19l-67 -14v-155h28q110 0 169.5 -30t59.5 -104q0 -62 -58.5 -99.5t-170.5 -37.5h-247zM455 231h-5v-191h4q85 2 85 96q0 90 -84 95z" />
    <glyph glyph-name="afii10107" unicode="&#x45a;" horiz-adv-x="830" 
d="M359 0v19l57 12v178h-177v-176l57 -13v-20h-276v19l67 13v392l-67 15v20h276v-19l-57 -12v-179h177v177l-57 13v20h276v-19l-67 -14v-177h28q110 0 169.5 -27.5t59.5 -95.5q0 -57 -58.5 -91.5t-170.5 -34.5h-237zM568 209v-169h5q84 2 84 85q0 81 -85 84h-4z" />
    <glyph glyph-name="afii10108" unicode="&#x45b;" horiz-adv-x="610" 
d="M4 475v40h75v120h-75v22l162 46h65v-188h113v-40h-113v-126q85 70 176 70q62 0 100.5 -42t38.5 -130v-215l59 -12v-20h-276v19l64 13v187q0 116 -98 116q-29 0 -64 -9v-293l58 -13v-20h-276v19l66 13v443h-75z" />
    <glyph glyph-name="afii10109" unicode="&#x45c;" horiz-adv-x="583" 
d="M306 459v-19l-67 -14v-177h64l65 125q28 55 53.5 75t68.5 20q26 0 56 -7l-11 -131h-15l-94 63l-53 -99l152 -241l48 -34v-20h-188l-109 209h-37v-176l57 -13v-20h-276v19l67 13v392l-67 15v20h286zM367 682l62 -72l-190 -96l-10 11z" />
    <glyph glyph-name="uni045D" unicode="&#x45d;" horiz-adv-x="670" 
d="M374 0v19l57 12v275l-192 -216v-57l57 -13v-20h-276v19l67 13v392l-67 15v20h276v-19l-57 -12v-278l192 216v60l-57 13v20h276v-19l-67 -14v-392l67 -14v-20h-276zM190 610l62 72l138 -157l-9 -13z" />
    <glyph glyph-name="afii10110" unicode="&#x45e;" horiz-adv-x="568" 
d="M322 19l-92 -226h-108v17l129 167l-198 453l-43 9v20h286v-19l-73 -15l107 -304l116 284l-86 34v20h203v-19l-67 -26zM303 551q-153 0 -184 86l119 62h14v-110q21 -11 51 -11q33 0 51 11v110h14l119 -62q-16 -37 -64 -61.5t-120 -24.5z" />
    <glyph glyph-name="afii10193" unicode="&#x45f;" horiz-adv-x="630" 
d="M296 459v-19l-57 -12v-388h152v386l-57 13v20h276v-19l-67 -14v-392l67 -14v-20h-223l23 -127h-189l23 127h-224v19l67 13v392l-67 15v20h276z" />
    <glyph glyph-name="afii10146" unicode="&#x462;" horiz-adv-x="701" 
d="M121 0v19l75 15v414h-108l-48 -85h-30v122h186v62l-75 16v20h312v-19l-70 -12v-67h223v-122h-30l-48 85h-145v-129h87q56 0 94.5 -6t71.5 -22.5t49 -48t16 -78.5q0 -75 -69 -119.5t-201 -44.5h-290zM363 279v-242h17q113 0 113 126q0 60 -27 87.5t-89 28.5h-14z" />
    <glyph glyph-name="afii10194" unicode="&#x463;" horiz-adv-x="597" 
d="M403 583v-19l-68 -22v-77h216v-112h-20l-58 74h-138v-124h28q55 0 95 -6.5t74 -22t52 -46t18 -75.5q0 -153 -239 -153h-247v19l67 14v394h-105l-58 -74h-20v112h183v74l-66 24v20h286zM434 152q0 115 -99 117v-235h4q49 0 72 32.5t23 85.5z" />
    <glyph glyph-name="afii10147" unicode="&#x472;" horiz-adv-x="666" 
d="M645 314q0 -140 -87 -231t-232 -91q-138 0 -221.5 75t-83.5 208q0 144 89 230t232 86q141 0 222 -71.5t81 -205.5zM335 554q-65 0 -93.5 -59t-30.5 -188l242 10q-5 127 -31 182t-87 55zM329 30q67 0 95.5 58.5t28.5 176.5l-241 9q5 -126 32 -185t85 -59z" />
    <glyph glyph-name="afii10195" unicode="&#x473;" horiz-adv-x="517" 
d="M507 225q0 -60 -22.5 -106t-60 -73t-81 -40.5t-89.5 -13.5q-244 0 -244 228q0 61 23 110.5t60.5 78.5t81 44.5t87.5 15.5q110 0 177.5 -58t67.5 -186zM261 33q41 0 61 52t20 128l-167 7q0 -78 23.5 -132.5t62.5 -54.5zM252 430q-78 0 -78 -183l166 7q-18 176 -88 176z
" />
    <glyph glyph-name="afii10148" unicode="&#x474;" horiz-adv-x="606" 
d="M354 173l101 310q21 64 40 90.5t53 26.5q29 0 57 -28l-19 -52q-11 7 -25 7q-30 0 -44 -37l-188 -490h-85l-206 554l-45 9v20h284v-19l-53 -9l123 -382h7z" />
    <glyph glyph-name="afii10196" unicode="&#x475;" horiz-adv-x="563" 
d="M475 365l-168 -365h-77l-187 430l-42 9v20h286v-19l-72 -15l104 -294h10l84 227q30 78 42 93q18 24 51 24q29 0 57 -28l-19 -52q-11 7 -25 7q-12 0 -21 -6t-12 -11t-11 -20z" />
    <glyph glyph-name="afii10050" unicode="&#x490;" horiz-adv-x="502" 
d="M265 547v-513l72 -14v-20h-316v19l73 13v517l-73 14v20h350l99 186h22v-222h-227z" />
    <glyph glyph-name="afii10098" unicode="&#x491;" horiz-adv-x="438" 
d="M428 419h-189v-384l77 -15v-20h-296v19l67 13v392l-67 15v20h304l73 137h31v-177z" />
    <glyph glyph-name="uni04D8" unicode="&#x4d8;" horiz-adv-x="626" 
d="M286 -8q-133 0 -199 73t-66 210v22h393q-1 238 -164 238q-70 0 -177 -41l-17 25q119 72 246 72q141 0 222 -71.5t81 -205.5q0 -140 -87 -231t-232 -91zM308 30q58 0 81 56.5t25 180.5h-203q1 -53 5.5 -93t15 -74t29.5 -52t47 -18z" />
    <glyph glyph-name="afii10846" unicode="&#x4d9;" horiz-adv-x="521" 
d="M234 -8q-103 0 -160.5 62.5t-57.5 173.5h318q-3 80 -48.5 119.5t-103.5 39.5q-65 0 -133 -28l-10 12q32 40 93 69t127 29q109 0 173.5 -57.5t64.5 -167.5q0 -116 -78 -184t-185 -68zM252 30q76 0 81 164l-153 -10q1 -61 19 -107.5t53 -46.5z" />
    <glyph glyph-name="uni1E02" unicode="&#x1e02;" horiz-adv-x="607" 
d="M21 0v19l75 13v516l-75 15v20h300q103 0 166 -37.5t63 -106.5q0 -46 -31 -83.5t-75 -54.5v-2q142 -18 142 -133q0 -75 -63 -120.5t-177 -45.5h-325zM281 277h-14v-240h14q65 0 98 35.5t33 90.5q0 62 -38 88t-93 26zM281 550h-14v-238h11q43 0 74 28.5t31 84.5
q0 57 -25 91t-77 34zM237 690q0 31 19.5 51.5t50.5 20.5q30 0 51 -20.5t21 -51.5q0 -29 -21 -49.5t-51 -20.5t-50 20t-20 50z" />
    <glyph glyph-name="uni1E03" unicode="&#x1e03;" horiz-adv-x="560" 
d="M55 24v611h-75v22l162 46h65v-277q64 43 134 43q91 0 143 -55.5t52 -166.5q0 -118 -83.5 -186.5t-194.5 -68.5q-127 0 -203 32zM239 410q-17 0 -32 -3v-373q8 -1 25 -1q68 0 103.5 57t35.5 159q0 74 -35 117.5t-97 43.5zM277 604q0 31 19.5 51.5t50.5 20.5q30 0 51 -20.5
t21 -51.5q0 -29 -21 -49.5t-51 -20.5t-50 20t-20 50z" />
    <glyph glyph-name="uni1E04" unicode="&#x1e04;" horiz-adv-x="607" 
d="M21 0v19l75 13v516l-75 15v20h300q103 0 166 -37.5t63 -106.5q0 -46 -31 -83.5t-75 -54.5v-2q142 -18 142 -133q0 -75 -63 -120.5t-177 -45.5h-325zM281 277h-14v-240h14q65 0 98 35.5t33 90.5q0 62 -38 88t-93 26zM281 550h-14v-238h11q43 0 74 28.5t31 84.5
q0 57 -25 91t-77 34zM223 -112q0 31 19.5 51.5t50.5 20.5q30 0 51 -20.5t21 -51.5q0 -29 -21 -49.5t-51 -20.5t-50 20t-20 50z" />
    <glyph glyph-name="uni1E05" unicode="&#x1e05;" horiz-adv-x="560" 
d="M55 24v611h-75v22l162 46h65v-277q64 43 134 43q91 0 143 -55.5t52 -166.5q0 -118 -83.5 -186.5t-194.5 -68.5q-127 0 -203 32zM239 410q-17 0 -32 -3v-373q8 -1 25 -1q68 0 103.5 57t35.5 159q0 74 -35 117.5t-97 43.5zM213 -112q0 31 19.5 51.5t50.5 20.5
q30 0 51 -20.5t21 -51.5q0 -29 -21 -49.5t-51 -20.5t-50 20t-20 50z" />
    <glyph glyph-name="uni1E06" unicode="&#x1e06;" horiz-adv-x="607" 
d="M21 0v19l75 13v516l-75 15v20h300q103 0 166 -37.5t63 -106.5q0 -46 -31 -83.5t-75 -54.5v-2q142 -18 142 -133q0 -75 -63 -120.5t-177 -45.5h-325zM281 277h-14v-240h14q65 0 98 35.5t33 90.5q0 62 -38 88t-93 26zM281 550h-14v-238h11q43 0 74 28.5t31 84.5
q0 57 -25 91t-77 34zM422 -130h-246v38h246v-38z" />
    <glyph glyph-name="uni1E07" unicode="&#x1e07;" horiz-adv-x="560" 
d="M55 24v611h-75v22l162 46h65v-277q64 43 134 43q91 0 143 -55.5t52 -166.5q0 -118 -83.5 -186.5t-194.5 -68.5q-127 0 -203 32zM239 410q-17 0 -32 -3v-373q8 -1 25 -1q68 0 103.5 57t35.5 159q0 74 -35 117.5t-97 43.5zM402 -130h-246v38h246v-38z" />
    <glyph glyph-name="uni1E0A" unicode="&#x1e0a;" horiz-adv-x="702" 
d="M21 0v19l75 13v516l-75 15v20h294q61 0 110 -6.5t96.5 -25t79 -49t51 -80t19.5 -116.5q0 -146 -99 -226t-252 -80h-299zM298 548h-31v-510h25q104 0 146.5 54t42.5 199q0 140 -39.5 198.5t-143.5 58.5zM260 690q0 31 19.5 51.5t50.5 20.5q30 0 51 -20.5t21 -51.5
q0 -29 -21 -49.5t-51 -20.5t-50 20t-20 50z" />
    <glyph glyph-name="uni1E0B" unicode="&#x1e0b;" horiz-adv-x="570" 
d="M378 0l-18 55q-56 -63 -146 -63q-87 0 -138.5 61.5t-51.5 163.5q0 111 75 181.5t178 70.5q40 0 76 -15v181h-75v22l162 46h65v-652l58 -29v-22h-185zM353 82v342q-25 5 -47 5q-47 0 -83 -50t-36 -132q0 -72 35.5 -124t85.5 -52q21 0 45 11zM68 577q0 31 19.5 51.5
t50.5 20.5q30 0 51 -20.5t21 -51.5q0 -29 -21 -49.5t-51 -20.5t-50 20t-20 50z" />
    <glyph glyph-name="uni1E0C" unicode="&#x1e0c;" horiz-adv-x="702" 
d="M21 0v19l75 13v516l-75 15v20h294q61 0 110 -6.5t96.5 -25t79 -49t51 -80t19.5 -116.5q0 -146 -99 -226t-252 -80h-299zM298 548h-31v-510h25q104 0 146.5 54t42.5 199q0 140 -39.5 198.5t-143.5 58.5zM247 -112q0 31 19.5 51.5t50.5 20.5q30 0 51 -20.5t21 -51.5
q0 -29 -21 -49.5t-51 -20.5t-50 20t-20 50z" />
    <glyph glyph-name="uni1E0D" unicode="&#x1e0d;" horiz-adv-x="570" 
d="M378 0l-18 55q-56 -63 -146 -63q-87 0 -138.5 61.5t-51.5 163.5q0 111 75 181.5t178 70.5q40 0 76 -15v181h-75v22l162 46h65v-652l58 -29v-22h-185zM353 82v342q-25 5 -47 5q-47 0 -83 -50t-36 -132q0 -72 35.5 -124t85.5 -52q21 0 45 11zM227 -112q0 31 19.5 51.5
t50.5 20.5q30 0 51 -20.5t21 -51.5q0 -29 -21 -49.5t-51 -20.5t-50 20t-20 50z" />
    <glyph glyph-name="uni1E0E" unicode="&#x1e0e;" horiz-adv-x="702" 
d="M21 0v19l75 13v516l-75 15v20h294q61 0 110 -6.5t96.5 -25t79 -49t51 -80t19.5 -116.5q0 -146 -99 -226t-252 -80h-299zM298 548h-31v-510h25q104 0 146.5 54t42.5 199q0 140 -39.5 198.5t-143.5 58.5zM448 -130h-246v38h246v-38z" />
    <glyph glyph-name="uni1E0F" unicode="&#x1e0f;" horiz-adv-x="570" 
d="M378 0l-18 55q-56 -63 -146 -63q-87 0 -138.5 61.5t-51.5 163.5q0 111 75 181.5t178 70.5q40 0 76 -15v181h-75v22l162 46h65v-652l58 -29v-22h-185zM353 82v342q-25 5 -47 5q-47 0 -83 -50t-36 -132q0 -72 35.5 -124t85.5 -52q21 0 45 11zM423 -130h-246v38h246v-38z
" />
    <glyph glyph-name="uni1E1E" unicode="&#x1e1e;" horiz-adv-x="512" 
d="M21 583h486v-162h-22l-76 126h-142v-245l196 4v-50l-196 7v-228l92 -15v-20h-338v19l75 13v516l-75 15v20zM226 690q0 31 19.5 51.5t50.5 20.5q30 0 51 -20.5t21 -51.5q0 -29 -21 -49.5t-51 -20.5t-50 20t-20 50z" />
    <glyph glyph-name="uni1E1F" unicode="&#x1e1f;" horiz-adv-x="359" 
d="M29 0v19l66 13v363h-81v31l81 19v42q0 104 70 162.5t179 58.5q43 0 72 -7l-11 -124h-15l-119 82q-24 -23 -24 -55v-160h98v-49h-98v-360l78 -15v-20h-296zM34 740q0 31 19.5 51.5t50.5 20.5q30 0 51 -20.5t21 -51.5q0 -29 -21 -49.5t-51 -20.5t-50 20t-20 50z" />
    <glyph glyph-name="uni1E20" unicode="&#x1e20;" horiz-adv-x="643" 
d="M560 404l-82 138q-35 12 -77 12q-75 0 -127.5 -75t-52.5 -186q0 -72 17.5 -129t61 -95.5t107.5 -38.5q10 0 32 2v223l-80 14v19h238v-254q-28 -16 -95 -29t-124 -13q-67 0 -128 16.5t-110.5 49.5t-79 89t-29.5 127q0 149 102 233t262 84q49 0 105 -11t85 -22v-154h-25z
M507 664h-245v41h245v-41z" />
    <glyph glyph-name="uni1E21" unicode="&#x1e21;" horiz-adv-x="534" 
d="M253 176q-34 0 -64 3l-15 -45l127 -8q105 -8 158.5 -44.5t53.5 -108.5q0 -74 -85.5 -134t-205.5 -60q-110 0 -166 36t-56 96q0 40 36.5 69.5t89.5 45.5l-72 13v48l114 96q-138 24 -138 132q0 72 64 113t153 41q130 0 192 -62l80 62h12v-86h-74q18 -29 18 -66
q0 -63 -66 -102t-156 -39zM118 -54q0 -56 35 -85.5t79 -29.5q64 0 98.5 29t34.5 68q0 32 -22.5 48t-82.5 27l-113 20q-29 -35 -29 -77zM250 213q30 0 46.5 30t16.5 69q0 56 -19 87t-49 31q-31 0 -47.5 -29.5t-16.5 -77.5q0 -44 18.5 -77t50.5 -33zM392 567h-246v38h246v-38z
" />
    <glyph glyph-name="uni1E22" unicode="&#x1e22;" horiz-adv-x="730" 
d="M393 0v19l75 13v255h-201v-254l70 -13v-20h-316v19l75 13v516l-75 15v20h316v-19l-70 -13v-234h201v231l-75 15v20h316v-19l-70 -13v-518l70 -13v-20h-316zM298 690q0 31 19.5 51.5t50.5 20.5q30 0 51 -20.5t21 -51.5q0 -29 -21 -49.5t-51 -20.5t-50 20t-20 50z" />
    <glyph glyph-name="uni1E23" unicode="&#x1e23;" horiz-adv-x="610" 
d="M13 0v19l66 13v603h-75v22l162 46h65v-304q85 70 176 70q62 0 100.5 -42t38.5 -130v-265l59 -12v-20h-276v19l64 13v237q0 116 -98 116q-31 0 -64 -9v-343l58 -13v-20h-276zM297 604q0 31 19.5 51.5t50.5 20.5q30 0 51 -20.5t21 -51.5q0 -29 -21 -49.5t-51 -20.5t-50 20
t-20 50z" />
    <glyph glyph-name="uni1E24" unicode="&#x1e24;" horiz-adv-x="730" 
d="M393 0v19l75 13v255h-201v-254l70 -13v-20h-316v19l75 13v516l-75 15v20h316v-19l-70 -13v-234h201v231l-75 15v20h316v-19l-70 -13v-518l70 -13v-20h-316zM298 -112q0 31 19.5 51.5t50.5 20.5q30 0 51 -20.5t21 -51.5q0 -29 -21 -49.5t-51 -20.5t-50 20t-20 50z" />
    </font>
</defs>
</svg>
